<xml version="1.0" encoding="utf-8">
<svg version="1.1" xmlns="http://www.w3.org/2000/svg" xmlns:xlink="http://www.w3.org/1999/xlink" x="0px" y="0px" viewBox="0 0 1181.4 491" xml:space="preserve">
<g>
	<g>
		<path class="st1" d="M7.7,221.8C3.9,218,2,213.1,2,206.9V59.4c0-6.1,1.7-10.9,5-14.2c3.3-3.3,8.1-5,14.2-5h90.7
			c6.7,0,11.6,1.3,14.7,3.9c3.1,2.6,4.8,6.8,4.8,12.4c0,5.4-1.6,9.5-4.8,12.1c-3.1,2.6-8.1,4-14.7,4H42.5v42.7h64
			c6.7,0,11.6,1.3,14.7,3.9c3.1,2.6,4.8,6.8,4.8,12.4c0,5.4-1.6,9.5-4.8,12.1c-3.1,2.6-8.1,4-14.7,4h-64V207c0,6.3-1.8,11.4-5.4,15
			c-3.6,3.7-8.4,5.5-14.7,5.5C16.4,227.5,11.4,225.6,7.7,221.8z"/>
		<path class="st1" d="M236.7,97.5c3.1,2.8,4.6,6.8,4.6,12.3c0,5.8-1.4,10.1-4.2,12.9c-2.8,2.8-7.8,4.6-15,5.3l-7.9,0.8
			c-9.7,1.1-16.7,4.2-21,9.5c-4.3,5.3-6.4,12.1-6.4,20.3v50.4c0,6.1-1.9,10.8-5.7,14s-8.4,4.8-14.1,4.8c-5.8,0-10.6-1.6-14.4-4.8
			s-5.7-7.8-5.7-14v-96.7c0-5.8,1.9-10.3,5.8-13.4c3.8-3.1,8.5-4.8,14-4.8c5.3,0,9.7,1.5,13.2,4.6c3.5,3.1,5.3,7.4,5.3,12.8v7.1
			c3.1-7.5,8-13.4,14.4-17.4c6.4-4.1,13.4-6.3,21-6.8l3.7-0.2C229.4,93.5,233.7,94.7,236.7,97.5z"/>
		<path class="st1" d="M276.1,219.7c-10.4-5.5-18.3-13.4-23.9-23.5c-5.6-10.1-8.4-22-8.4-35.7c0-13.7,2.8-25.6,8.4-35.7
			c5.6-10.1,13.6-17.9,23.9-23.3c10.4-5.4,22.4-8.1,36.1-8.1c13.7,0,25.7,2.8,36.1,8.1c10.4,5.4,18.3,13.2,23.9,23.3
			s8.4,22,8.4,35.7c0,13.7-2.8,25.6-8.4,35.7c-5.6,10.1-13.6,17.9-23.9,23.5c-10.4,5.5-22.4,8.3-36.1,8.3
			C298.5,228,286.5,225.3,276.1,219.7z M341.2,160.6c0-12.4-2.5-21.8-7.5-27.9c-5-6.1-12.2-9.2-21.5-9.2c-19.3,0-29,12.4-29,37.2
			s9.7,37.2,29,37.2C331.5,197.7,341.2,185.3,341.2,160.6z"/>
		<path class="st1" d="M520.7,106.9c7.5,9.1,11.4,22.7,11.4,41v60.9c0,5.8-1.8,10.4-5.4,13.7c-3.6,3.4-8.4,5-14.7,5
			c-6.1,0-11-1.7-14.5-5c-3.5-3.3-5.3-7.9-5.3-13.7v-59c0-8.8-1.6-15.2-4.9-19.3c-3.2-4.1-8.3-6.1-15.1-6.1
			c-8.3,0-14.9,2.6-19.9,7.9s-7.5,12.3-7.5,21.1v55.3c0,5.8-1.8,10.4-5.3,13.7s-8.4,5-14.5,5s-11.1-1.7-14.7-5
			c-3.6-3.3-5.4-7.9-5.4-13.7V112c0-5.4,1.9-9.8,5.7-13.2c3.8-3.3,8.7-5,14.7-5c5.4,0,9.9,1.6,13.3,4.9c3.5,3.2,5.1,7.4,5.1,12.5
			v3.7c4.5-7.1,10.5-12.4,17.8-16c7.3-3.7,15.5-5.5,24.6-5.5C501.6,93.4,513.1,97.9,520.7,106.9z"/>
		<path class="st1" d="M645.3,202.5c2.5,2.3,3.7,5.6,3.7,10c0,5.1-2,9-6.1,11.6s-9.8,3.7-17.4,3.1l-7.4-0.5
			c-30.8-2.5-46.1-18.5-46.1-48.2v-52.2h-10.5c-5.8,0-10.2-1.3-13.2-3.8c-3-2.5-4.5-6.2-4.5-10.9c0-4.9,1.5-8.7,4.5-11.2
			s7.4-3.8,13.2-3.8H572V75.9c0-5.8,1.8-10.4,5.4-13.7c3.6-3.3,8.4-5,14.7-5c6.1,0,11,1.7,14.5,5c3.5,3.4,5.3,7.9,5.3,13.7v20.6
			h18.4c12,0,17.9,5,17.9,15c0,4.8-1.5,8.4-4.5,10.9c-3,2.5-7.4,3.8-13.4,3.8h-18.4v55.1c0,5.3,1.2,9.3,3.7,12
			c2.5,2.8,6.1,4.3,10.8,4.6l7.4,0.5C639,198.9,642.9,200.2,645.3,202.5z"/>
		<path class="st1" d="M745.5,220.9c-3.4-3.3-5-8.1-5-14.2V59.4c0-6.1,1.7-10.9,5-14.2c3.3-3.3,8.1-5,14.2-5h93.3
			c13,0,19.5,5.3,19.5,15.8c0,10.7-6.5,16-19.5,16h-72.5v43.5h67.2c13,0,19.5,5.4,19.5,16c0,10.5-6.5,15.8-19.5,15.8h-67.2v46.7
			h72.5c13,0,19.5,5.4,19.5,16c0,10.5-6.5,15.8-19.5,15.8h-93.3C753.5,226,748.8,224.3,745.5,220.9z"/>
		<path class="st1" d="M1009.3,106.9c7.5,9.1,11.4,22.7,11.4,41v60.9c0,5.8-1.8,10.4-5.4,13.7c-3.6,3.4-8.4,5-14.7,5
			c-6.1,0-11-1.7-14.5-5c-3.5-3.3-5.3-7.9-5.3-13.7v-59c0-8.8-1.6-15.2-4.9-19.3c-3.2-4.1-8.3-6.1-15.1-6.1
			c-8.3,0-14.9,2.6-19.9,7.9c-5,5.3-7.5,12.3-7.5,21.1v55.3c0,5.8-1.8,10.4-5.3,13.7c-3.5,3.4-8.4,5-14.5,5c-6.1,0-11.1-1.7-14.7-5
			s-5.4-7.9-5.4-13.7V112c0-5.4,1.9-9.8,5.7-13.2c3.8-3.3,8.7-5,14.7-5c5.4,0,9.9,1.6,13.3,4.9c3.5,3.2,5.1,7.4,5.1,12.5v3.7
			c4.5-7.1,10.5-12.4,17.8-16c7.3-3.7,15.5-5.5,24.6-5.5C990.2,93.4,1001.7,97.9,1009.3,106.9z"/>
		<path class="st1" d="M1175.7,43.8c3.8,3.4,5.7,7.8,5.7,13.2v151.8c0,5.6-1.8,10.1-5.4,13.6c-3.6,3.5-8.4,5.1-14.4,5.1
			s-10.7-1.7-14.4-5.1c-3.6-3.5-5.4-8-5.4-13.6v-2.1c-3.8,6.7-9.4,11.9-16.5,15.7c-7.1,3.8-15.1,5.7-24.1,5.7
			c-11.1,0-21-2.8-29.6-8.6c-8.7-5.7-15.4-13.7-20.3-23.9c-4.8-10.3-7.2-22.1-7.2-35.5c0-13.4,2.4-25.1,7.2-35.2
			c4.8-10.1,11.5-17.9,20.2-23.3c8.6-5.4,18.5-8.1,29.8-8.1c8.8,0,16.7,1.8,23.9,5.5s12.6,8.9,16.5,15.6V56.3
			c0-5.3,1.8-9.5,5.3-12.7c3.5-3.1,8.1-4.8,14-4.8C1167,38.8,1172,40.5,1175.7,43.8z M1134.3,188.1c5-6.4,7.5-15.6,7.5-27.6
			c0-12-2.5-21.1-7.5-27.4c-5-6.3-12.2-9.5-21.5-9.5s-16.5,3.1-21.6,9.4c-5.1,6.2-7.7,15.3-7.7,27c0,12,2.5,21.2,7.7,27.8
			c5.1,6.6,12.3,9.9,21.6,9.9C1122.1,197.7,1129.4,194.5,1134.3,188.1z"/>
	</g>
	<path class="st1" d="M70.9,452.6c-2-2-3-4.7-3-8.1V287H11.3c-3.1,0-5.6-0.8-7.4-2.4c-1.8-1.6-2.6-3.8-2.6-6.8c0-3,0.8-5.3,2.6-6.8
		c1.8-1.6,4.2-2.4,7.4-2.4h135.2c3.1,0,5.6,0.8,7.4,2.4c1.8,1.6,2.6,3.8,2.6,6.8c0,3-0.8,5.3-2.6,6.8c-1.8,1.6-4.2,2.4-7.4,2.4H89.8
		v157.6c0,3.4-1,6-2.9,8.1c-1.9,2-4.6,3-7.9,3C75.6,455.7,72.9,454.7,70.9,452.6z"/>
	<path class="st1" d="M178.7,448c-9.2-5.4-16.3-13.2-21.3-23.3c-5-10.1-7.5-21.8-7.5-35.2s2.5-25.1,7.5-35.2
		c5-10.1,12.1-17.9,21.3-23.3c9.2-5.4,19.9-8.1,32-8.1s22.9,2.8,32.2,8.1c9.3,5.4,16.5,13.2,21.5,23.3c5,10.1,7.5,21.8,7.5,35.2
		s-2.5,25.1-7.5,35.2c-5,10.1-12.2,17.9-21.5,23.3c-9.3,5.4-20,8.1-32.2,8.1S188,453.5,178.7,448z M239.9,426.1
		c6.8-8.4,10.1-20.5,10.1-36.5c0-15.7-3.5-27.7-10.3-36.2s-16.5-12.8-29-12.8c-12.5,0-22.1,4.3-29,12.8
		c-6.8,8.5-10.3,20.6-10.3,36.2c0,15.8,3.4,27.9,10.1,36.4c6.8,8.4,16.5,12.7,29.1,12.7C223.2,438.6,233.1,434.4,239.9,426.1z"/>
	<path class="st1" d="M325,448c-9.2-5.4-16.3-13.2-21.3-23.3c-5-10.1-7.5-21.8-7.5-35.2s2.5-25.1,7.5-35.2
		c5-10.1,12.1-17.9,21.3-23.3c9.2-5.4,19.9-8.1,32-8.1c12.1,0,22.9,2.8,32.2,8.1c9.3,5.4,16.5,13.2,21.5,23.3
		c5,10.1,7.5,21.8,7.5,35.2s-2.5,25.1-7.5,35.2c-5,10.1-12.2,17.9-21.5,23.3c-9.3,5.4-20,8.1-32.2,8.1
		C344.9,456.2,334.2,453.5,325,448z M386.1,426.1c6.8-8.4,10.1-20.5,10.1-36.5c0-15.7-3.5-27.7-10.3-36.2
		c-6.8-8.5-16.5-12.8-29-12.8s-22.1,4.3-29,12.8c-6.8,8.5-10.3,20.6-10.3,36.2c0,15.8,3.4,27.9,10.1,36.4
		c6.8,8.4,16.5,12.7,29.1,12.7C369.5,438.6,379.4,434.4,386.1,426.1z"/>
	<path class="st1" d="M453.1,452.9c-2-1.8-3-4.5-3-7.8V277.8c0-3.3,1-5.9,3-7.8c2-1.8,4.6-2.8,7.8-2.8c3,0,5.5,0.9,7.5,2.8
		s3,4.5,3,7.8v167.3c0,3.4-1,5.9-3,7.8c-2,1.8-4.5,2.8-7.5,2.8C457.7,455.7,455.1,454.8,453.1,452.9z"/>
	<path class="st1" d="M531.3,453.3c-7.3-1.9-13.7-4.7-19.3-8.1c-3.1-2.1-5.4-4.1-6.8-5.9c-1.4-1.8-2-4.1-2-6.8c0-2.3,0.7-4.1,2-5.7
		c1.3-1.5,3-2.2,5.1-2.2c2.1,0,5.1,1.3,9.2,4c5.3,3.1,10.5,5.7,15.7,7.5c5.1,1.8,11.7,2.8,19.3,2.8c9.5,0,16.9-1.7,22.1-5
		c5.3-3.3,7.9-8.1,7.9-14.5c0-3.8-1-7-2.9-9.4s-5.3-4.5-10-6.3c-4.8-1.8-11.7-3.8-20.8-5.7c-15.4-3.3-26.6-7.8-33.2-13.4
		c-6.7-5.6-10-13.3-10-23c0-7.5,2.1-14.2,6.3-20c4.2-5.8,10.1-10.4,17.5-13.7c7.4-3.3,16-5,25.4-5c6.8,0,13.5,0.9,19.9,2.8
		c6.4,1.8,12.1,4.5,17,7.8c6,4.2,9,8.6,9,13.2c0,2.3-0.7,4.2-2.1,5.8c-1.4,1.6-3.1,2.4-5,2.4c-2.1,0-5.3-1.5-9.5-4.5
		c-4.9-3.1-9.6-5.6-14-7.4c-4.4-1.8-9.8-2.6-16.3-2.6c-8.3,0-14.9,1.8-19.9,5.5s-7.5,8.6-7.5,14.7c0,3.8,0.9,7,2.8,9.4
		c1.8,2.4,4.9,4.5,9.2,6.3c4.3,1.8,10.5,3.7,18.6,5.4c12,2.6,21.2,5.5,27.8,8.7c6.6,3.1,11.3,7.1,14.1,11.6
		c2.8,4.6,4.2,10.4,4.2,17.4c0,11.1-4.7,20-14,26.7c-9.3,6.8-21.6,10.1-36.9,10.1C546.3,456.2,538.6,455.2,531.3,453.3z"/>
</g>
</svg>
