<?xml version="1.0" encoding="utf-8"?>
<!-- Generator: Adobe Illustrator 23.0.1, SVG Export Plug-In . SVG Version: 6.00 Build 0)  -->
<svg version="1.1" id="Capa_1" xmlns="http://www.w3.org/2000/svg" xmlns:xlink="http://www.w3.org/1999/xlink" x="0px" y="0px"
	 viewBox="0 0 42.6 42.6" style="enable-background:new 0 0 42.6 42.6;" xml:space="preserve">
<style type="text/css">
	.st0{fill:#FFFFFF;}
</style>
<g>
	<path class="st0" d="M33.1,20.9c3.3,0.3,6.7,0.5,9.4,1.4c-2.7-0.4-6-1.1-9.4-1.2c-1.4,2.8-4.2,4.1-8.1,4.4c0.4,0.9,1.2,1.3,1.4,2.7
		c0.3,2.2-0.5,5.4,0.3,6.8c0.4,0.7,0.9,0.7,1.3,1.3c-1,1.1-3.3-0.1-3.6-1.3c-0.5-2,0.7-5.2-0.6-6.6c0.1,2.2-0.5,5.3,0.1,7.3
		c0.2,0.8,0.9,1.1,0.8,1.8c-4.4,0.4-2.6-5.7-3.3-9.4c-0.7,0-0.4,1-0.4,1.4c0,3.6,0.7,8.4-3.1,8c-0.1-0.7,0.5-1,0.8-1.7
		c0.7-2-0.1-5,0.2-7.4c-1.5,1.1,0.2,5-0.8,6.9c-0.5,1.1-2.2,1.6-3.5,1.1c0.2-0.8,1-0.7,1.4-1.5c0.5-1.1,0-2.7,0.2-4.3
		c-2.7,0.5-4.8-0.1-5.8-1.8c-0.5-0.8-0.6-1.7-1.1-2.3c-0.6-0.7-1.4-0.8-1.7-1.7c3.4-0.8,3.5,3.5,6.5,3.6c0.9,0,1.4-0.3,2.3-0.5
		c0.2-1.1,0.8-1.9,1.5-2.4c-3.8-0.5-6.8-1.7-8.3-4.5c-3.4,0.2-6.5,0.6-9.4,1.3c2.6-1,5.9-1.3,9.3-1.4c-0.2-1.2-2-0.9-3.1-0.8
		c-2.1,0.1-4.7,0.3-6.3,0.7c2.4-0.9,5.7-0.7,8.9-0.8c-1-3.1-0.6-8,1.5-9.8C9.8,8.7,10,6.2,10.8,5c2.4,0.1,3.9,1.2,5.4,2.2
		c1.9-0.5,3.8-0.8,6.4-0.7c1.1,0.1,2.2,0.5,3,0.5c0.8-0.1,1.7-1,2.4-1.3c1-0.4,1.9-0.6,3-0.7c0.6,1.3,0.9,3.3,0.4,4.9
		c2.2,1.9,2.9,6.4,1.9,10.1c3.1,0.2,6.8-0.1,9.2,0.8c-2.2-0.3-5.3-0.9-8.2-0.7C33.8,20.2,33,20.1,33.1,20.9z"/>
</g>
</svg>
