<svg xmlns="http://www.w3.org/2000/svg" height="512pt" version="1.1" viewBox="0 0 512.00047 512" width="512pt">
<g id="surface1">
<path d="M 504.398438 152.816406 L 207.980469 449.234375 L 132.484375 470.015625 L 7.601562 504.390625 L 41.984375 379.519531 L 62.769531 304.019531 L 359.1875 7.601562 Z M 504.398438 152.816406 " style=" stroke:none;fill-rule:nonzero;fill:rgb(100%,81.568627%,38.039216%);fill-opacity:1;" />
<path d="M 7.601562 504.390625 L 41.984375 379.519531 L 62.769531 304.019531 L 359.1875 7.601562 L 395.644531 44.0625 L 90.957031 348.75 Z M 7.601562 504.390625 " style=" stroke:none;fill-rule:nonzero;fill:rgb(93.72549%,53.72549%,18.823529%);fill-opacity:1;" />
<path d="M 504.398438 152.816406 L 221.203125 436.011719 C 205.609375 421.101562 180 420.78125 164.304688 426.082031 C 161.332031 427.09375 158.449219 424.226562 159.453125 421.246094 C 164.835938 405.339844 164.441406 379.230469 148.917969 363.707031 C 133.402344 348.191406 107.285156 347.789062 91.378906 353.171875 C 90.410156 353.492188 89.464844 353.421875 88.648438 353.0625 C 86.949219 352.3125 85.851562 350.339844 86.535156 348.328125 C 91.917969 332.421875 91.515625 306.304688 76 290.789062 L 359.1875 7.601562 Z M 504.398438 152.816406 " style=" stroke:none;fill-rule:nonzero;fill:rgb(98.039216%,43.921569%,69.803922%);fill-opacity:1;" />
<path d="M 88.648438 353.0625 C 86.949219 352.3125 85.851562 350.339844 86.535156 348.328125 C 91.914062 332.421875 91.515625 306.304688 76 290.789062 L 359.1875 7.601562 L 395.644531 44.0625 L 90.957031 348.75 Z M 88.648438 353.0625 " style=" stroke:none;fill-rule:nonzero;fill:rgb(86.666667%,12.941176%,35.686275%);fill-opacity:1;" />
<path d="M 504.398438 152.816406 L 221.203125 436.011719 C 205.609375 421.101562 180 420.78125 164.304688 426.082031 C 162.8125 426.585938 161.351562 426.125 160.382812 425.160156 L 468.5625 116.980469 Z M 504.398438 152.816406 " style=" stroke:none;fill-rule:nonzero;fill:rgb(100%,60.784314%,78.039216%);fill-opacity:1;" />
<path d="M 92.367188 481.0625 L 7.601562 504.390625 L 30.9375 419.632812 C 37.195312 421.347656 43.292969 423.761719 49.113281 426.871094 C 56.539062 430.855469 63.503906 435.972656 69.761719 442.230469 C 80.9375 453.402344 88.476562 466.835938 92.367188 481.0625 Z M 92.367188 481.0625 " style=" stroke:none;fill-rule:nonzero;fill:rgb(24.313725%,29.411765%,36.078431%);fill-opacity:1;" />
<path d="M 7.601562 504.390625 L 30.9375 419.632812 C 37.195312 421.347656 43.296875 423.761719 49.113281 426.871094 Z M 7.601562 504.390625 " style=" stroke:none;fill-rule:nonzero;fill:rgb(14.117647%,19.215686%,25.882353%);fill-opacity:1;" />
<path d="M 509.773438 147.441406 L 364.5625 2.226562 C 363.132812 0.800781 361.203125 0 359.183594 0 C 357.167969 0 355.234375 0.800781 353.808594 2.226562 L 139.667969 216.367188 C 136.699219 219.335938 136.699219 224.148438 139.667969 227.117188 C 142.636719 230.085938 147.449219 230.085938 150.417969 227.117188 L 359.1875 18.351562 L 384.894531 44.0625 L 97.167969 331.789062 C 97.792969 317.832031 94.613281 302.796875 86.300781 291.234375 L 132.503906 245.035156 C 135.472656 242.066406 135.472656 237.253906 132.503906 234.285156 C 129.53125 231.316406 124.71875 231.3125 121.75 234.285156 L 57.390625 298.644531 C 56.460938 299.574219 55.789062 300.730469 55.4375 302 L 0.273438 502.375 C -0.363281 504.679688 0.128906 507.132812 1.558594 509.003906 C 1.761719 509.269531 1.984375 509.527344 2.226562 509.769531 C 3.671875 511.214844 5.613281 511.996094 7.605469 511.996094 C 8.277344 511.996094 8.953125 511.90625 9.621094 511.722656 L 94.390625 488.390625 C 94.40625 488.382812 94.421875 488.378906 94.441406 488.371094 L 210 456.5625 C 211.269531 456.210938 212.425781 455.539062 213.355469 454.609375 L 509.773438 158.191406 C 512.742188 155.222656 512.742188 150.410156 509.773438 147.441406 Z M 18.484375 493.511719 L 36.15625 429.320312 C 46.695312 433.328125 56.34375 439.5625 64.386719 447.605469 C 72.433594 455.652344 78.671875 465.304688 82.679688 475.839844 Z M 97.382812 471.792969 C 92.636719 458.730469 85.046875 446.765625 75.140625 436.855469 C 65.234375 426.953125 53.269531 419.363281 40.203125 414.617188 L 69.5625 307.976562 L 75.351562 302.1875 C 83.265625 314.964844 83.625 333.207031 79.332031 345.894531 C 77.933594 350.027344 78.988281 354.519531 82.089844 357.621094 C 85.1875 360.71875 89.683594 361.773438 93.8125 360.375 C 108.667969 355.34375 131.148438 356.691406 143.539062 369.082031 C 155.9375 381.480469 157.28125 403.957031 152.253906 418.808594 C 150.851562 422.941406 151.90625 427.433594 155 430.53125 C 158.101562 433.632812 162.597656 434.6875 166.742188 433.289062 C 179.078125 429.113281 196.917969 429.351562 209.660156 436.800781 L 204.027344 442.4375 Z M 220.675781 425.789062 C 208.972656 417.59375 194.320312 414.738281 180.898438 415.394531 L 410.65625 185.636719 C 413.625 182.667969 413.625 177.855469 410.65625 174.886719 C 407.6875 171.917969 402.875 171.917969 399.90625 174.886719 L 170.085938 404.703125 C 170.828125 388.265625 166.28125 370.324219 154.292969 358.332031 C 142.304688 346.34375 124.359375 341.796875 107.917969 342.539062 L 395.644531 54.8125 L 457.8125 116.980469 L 417.824219 156.964844 C 414.855469 159.933594 414.855469 164.746094 417.824219 167.714844 C 419.308594 169.199219 421.253906 169.941406 423.199219 169.941406 C 425.144531 169.941406 427.09375 169.199219 428.578125 167.714844 L 468.5625 127.730469 L 493.648438 152.8125 Z M 220.675781 425.789062 " style=" stroke:none;fill-rule:nonzero;fill:rgb(0%,0%,0%);fill-opacity:1;" />
</g>
</svg>