<?xml version="1.0" encoding="utf-8"?>
<!DOCTYPE svg PUBLIC "-//W3C//DTD SVG 1.1//EN" "http://www.w3.org/Graphics/SVG/1.1/DTD/svg11.dtd">
<svg version="1.1" xmlns="http://www.w3.org/2000/svg" xmlns:xlink="http://www.w3.org/1999/xlink">
<path fill="none" stroke="#08C1F3" stroke-width="7" stroke-miterlimit="10" d="M833.505,124.298
	c-12.809,18.556-58.989-25.067-98.765-19.964c0.56-12.142-3.167-27.714-20.457-42.73C668.342,14.51,602.66,93.52,602.918,87.773
	c0.258-5.747-3.544-16.082-14.106-13.444c-11.614,4.925-4.486,16.641-1.936,24.987c2.549,8.336-10.966,23.716-10.966,23.716
	c-12.484,17.53,2.802,21.163,2.802,21.163s98.366,0,121.558,0s29.308-14.27,29.308-14.27c0.48-1.252,1.483-5.831,2.487-8.914
	c45.514-13.248,96.163,54.823,120.501-1.324C861.733,98.126,854.574,94.031,833.505,124.298z"/>
<g>
	<path fill="#FFFFFF" d="M0,160.699c7.106-0.862,10.655-5.059,10.655-12.573V57.142h7.928v90.798
		c0,13.009-6.196,20.035-18.582,21.083L0,160.699z M20.212,27.367c1.554,1.603,2.336,3.544,2.336,5.827
		c0,2.345-0.782,4.317-2.336,5.92c-1.554,1.603-3.424,2.403-5.596,2.403s-4.037-0.804-5.592-2.407
		c-1.554-1.599-2.332-3.571-2.332-5.916c0-2.278,0.777-4.224,2.336-5.827c1.554-1.603,3.42-2.407,5.592-2.407
		C16.788,24.964,18.653,25.764,20.212,27.367z"/>
	<path fill="#FFFFFF" d="M83.736,48.912c13.386,0,24.791,4.961,34.216,14.887s14.137,21.918,14.137,35.97
		c0,13.99-4.712,25.95-14.137,35.877c-9.424,9.922-20.825,14.887-34.216,14.887c-13.328,0-24.72-4.961-34.171-14.887
		s-14.177-21.887-14.177-35.877c0-14.052,4.726-26.044,14.177-35.97C59.016,53.877,70.403,48.912,83.736,48.912z M55.463,70.088
		c-7.808,8.199-11.712,18.094-11.712,29.681s3.904,21.465,11.712,29.637c7.808,8.168,17.232,12.249,28.273,12.249
		c11.037,0,20.461-4.082,28.269-12.249c7.808-8.172,11.712-18.045,11.712-29.637c0-11.587-3.904-21.478-11.712-29.681
		c-7.808-8.199-17.232-12.298-28.269-12.298C72.695,57.79,63.271,61.889,55.463,70.088z"/>
	<path fill="#FFFFFF" d="M174.254,139.803l-19.551,42.814h-7.75l23.339-51.412l-33.732-74.063h8.98l28.713,65.091l28.708-65.091
		h8.896l-37.604,82.754V139.803z"/>
	<path fill="#FFFFFF" d="M223.379,57.142h7.923v12.76c1.466-2.096,3.14-4.13,5.019-6.102c9.451-9.86,20.843-14.794,34.171-14.794
		c13.386,0,24.791,4.948,34.216,14.843s14.137,21.869,14.137,35.921c0,13.99-4.712,25.95-14.137,35.877
		c-9.424,9.922-20.825,14.887-34.216,14.887c-13.328,0-24.72-4.961-34.171-14.887c-1.879-1.972-3.553-4.006-5.019-6.102v53.073
		h-7.928V57.142H223.379z M231.302,91.077v17.383c1.523,7.95,5.165,14.945,10.921,20.99c7.808,8.203,17.228,12.302,28.269,12.302
		c11.037,0,20.461-4.099,28.269-12.302c7.808-8.199,11.716-18.089,11.716-29.681c0-11.587-3.904-21.478-11.716-29.681
		c-7.808-8.199-17.232-12.298-28.269-12.298c-11.041,0-20.461,4.099-28.269,12.298C236.467,76.128,232.83,83.128,231.302,91.077z"/>
	<path fill="#FFFFFF" d="M343.88,27.367c1.554,1.603,2.336,3.544,2.336,5.827c0,2.345-0.782,4.317-2.336,5.92
		c-1.554,1.603-3.42,2.407-5.592,2.407c-2.172,0-4.037-0.804-5.592-2.407c-1.559-1.603-2.336-3.575-2.336-5.92
		c0-2.278,0.777-4.224,2.336-5.827c1.554-1.603,3.42-2.407,5.592-2.407C340.46,24.964,342.325,25.764,343.88,27.367z
		 M342.254,57.142v90.798h-7.928V57.142H342.254z"/>
	<path fill="#FFFFFF" d="M414.19,57.142l-22.282,40.496l-0.262,0.462l0.262,0.462l27.127,49.374h-9.158l-22.544-40.962
		l-22.548,40.962h-9.247l27.212-49.374l0.266-0.462l-0.266-0.462l-22.282-40.496h9.158l17.703,32.088l17.614-32.088L414.19,57.142z"
		/>
	<path fill="#FFFFFF" d="M447.02,130.925c7.457,7.15,16.322,10.726,26.594,10.726c11.037,0,20.461-4.099,28.273-12.298
		c0.999-1.048,1.936-2.127,2.816-3.238l8.367,3.144c-1.528,2.216-3.255,4.348-5.196,6.382c-9.451,9.922-20.87,14.887-34.26,14.887
		c-13.328,0-24.716-4.961-34.167-14.887c-9.455-9.926-14.181-21.918-14.181-35.974c0-13.986,4.726-25.946,14.181-35.872
		c9.451-9.922,20.839-14.887,34.167-14.887c11.45,0,21.46,3.606,30.036,10.819c1.408,1.235,2.816,2.589,4.224,4.068
		c0.529,0.555,1.026,1.11,1.501,1.665l-5.991,6.289L447.02,130.925z M497.575,66.109c-6.871-5.547-14.856-8.323-23.961-8.323
		c-10.979,0-20.372,4.082-28.18,12.249c-7.812,8.168-11.716,18.045-11.716,29.632c0,9.558,2.643,17.938,7.923,25.151L497.575,66.109
		z"/>
	<path fill="#FFFFFF" d="M533.838,0v147.944h-7.923V0H533.838z"/>
	<path fill="#FFFFFF" d="M557.91,135.091c1.554,1.599,2.332,3.544,2.332,5.827c0,2.341-0.782,4.317-2.332,5.916
		c-1.559,1.603-3.424,2.403-5.596,2.403c-2.172,0-4.037-0.799-5.592-2.403c-1.559-1.599-2.332-3.575-2.332-5.916
		c0-2.283,0.777-4.224,2.332-5.827c1.554-1.603,3.42-2.407,5.592-2.407S556.351,133.483,557.91,135.091z"/>
</g>
</svg>
