<?xml version="1.0" encoding="utf-8"?>
<!-- Generator: Adobe Illustrator 23.0.1, SVG Export Plug-In . SVG Version: 6.00 Build 0)  -->
<svg version="1.1" id="Capa_1" xmlns="http://www.w3.org/2000/svg" xmlns:xlink="http://www.w3.org/1999/xlink" x="0px" y="0px"
	 viewBox="0 0 512 512" style="enable-background:new 0 0 512 512;" xml:space="preserve">
<style type="text/css">
	.st0{fill:#FF7043;}
	.st1{fill:#E64A19;}
	.st2{fill:#FDD835;}
</style>
<path class="st0" d="M224.1,223.6l-16-16l47.9-47.9l47.9,47.9l-16,16L256,191.6L224.1,223.6z"/>
<path class="st0" d="M256,351.3l-47.9-47.9l16-16l31.9,31.9l31.9-31.9l16,16L256,351.3z"/>
<path class="st1" d="M382.8,244.2l112.7,0v22.6l-112.7,0V244.2z"/>
<path class="st1" d="M16.5,244.2h112.7l0,22.6H16.5L16.5,244.2z"/>
<g>
	<path class="st2" d="M337.6,244.2l22.6,0l0,22.6h-22.6V244.2z"/>
	<path class="st2" d="M292.4,244.2H315v22.6l-22.6,0L292.4,244.2z"/>
	<path class="st2" d="M151.8,244.2h22.6v22.6l-22.6,0L151.8,244.2z"/>
	<path class="st2" d="M197,244.2l22.6,0l0,22.6H197V244.2z"/>
</g>
<path class="st0" d="M447.6,303.4c-4.4-4.4-4.4-11.6,0-16l31.9-31.9l-31.9-31.9c-4.4-4.4-4.4-11.6,0-16c4.4-4.4,11.6-4.4,16,0
	l47.9,47.9l-47.9,47.9C459.2,307.8,452,307.8,447.6,303.4z"/>
<path class="st0" d="M48.4,303.4L0.5,255.5l47.9-47.9c4.4-4.4,11.6-4.4,16,0c4.4,4.4,4.4,11.6,0,16l-31.9,31.9l31.9,31.9
	c4.4,4.4,4.4,11.6,0,16C60,307.8,52.8,307.8,48.4,303.4z"/>
</svg>
