<?xml version="1.0" encoding="utf-8"?>
<!-- Generator: Adobe Illustrator 23.0.1, SVG Export Plug-In . SVG Version: 6.00 Build 0)  -->
<svg version="1.1" id="Capa_1" xmlns="http://www.w3.org/2000/svg" xmlns:xlink="http://www.w3.org/1999/xlink" x="0px" y="0px"
	 viewBox="0 0 50 50" style="enable-background:new 0 0 50 50;" xml:space="preserve">
<style type="text/css">
	.st0{fill:#E4E4E4;}
	.st1{fill:#263238;}
</style>
<polygon class="st0" points="0,0 50,50 50,0 "/>
<g>
	<path class="st1" d="M43.3,17.3l-4.4-2.7l4.4-2.7c0.1,0,0.1-0.1,0.1-0.2s0-0.2,0-0.3l-1.3-2.1c-0.1-0.2-0.3-0.2-0.5-0.1l-4.2,2.6
		V6.9c0-0.2-0.1-0.3-0.3-0.3h-2.5c-0.2,0-0.3,0.1-0.3,0.3v4.9l-4.2-2.6c-0.2-0.1-0.4,0-0.5,0.1l-1.3,2.1c0,0.1-0.1,0.2,0,0.3
		s0.1,0.2,0.1,0.2l4.4,2.7l-4.4,2.7c-0.1,0-0.1,0.1-0.1,0.2c0,0.1,0,0.2,0,0.3l1.3,2.1c0.1,0.2,0.3,0.2,0.5,0.1l4.2-2.6v4.9
		c0,0.2,0.1,0.3,0.3,0.3h2.5c0.2,0,0.3-0.1,0.3-0.3v-4.9l4.2,2.6c0.2,0.1,0.4,0,0.5-0.1l1.3-2.1c0-0.1,0.1-0.2,0-0.3
		C43.4,17.4,43.4,17.3,43.3,17.3z"/>
</g>
</svg>
