<?xml version="1.0" encoding="utf-8"?>
<!-- Generator: Adobe Illustrator 23.0.1, SVG Export Plug-In . SVG Version: 6.00 Build 0)  -->
<svg version="1.1" id="Capa_1" xmlns="http://www.w3.org/2000/svg" xmlns:xlink="http://www.w3.org/1999/xlink" x="0px" y="0px"
	 viewBox="0 0 59 59" style="enable-background:new 0 0 59 59;" xml:space="preserve">
<style type="text/css">
	.st0{fill:#FFFFFF;}
</style>
<path class="st0" d="M47,39c-2.7,0-5.2,1-7.1,2.9c-0.5,0.5-1,1.1-1.4,1.7L21.3,33.1c0.5-1.1,0.7-2.4,0.7-3.7s-0.3-2.5-0.7-3.7
	l17.3-10.4c1.8,2.8,4.9,4.6,8.4,4.6c5.5,0,10-4.5,10-10S52.5,0,47,0S37,4.5,37,10c0,1.3,0.2,2.5,0.7,3.6L20.4,24
	c-1.8-2.7-4.9-4.5-8.4-4.5c-5.5,0-10,4.5-10,10s4.5,10,10,10c3.5,0,6.6-1.8,8.4-4.5l17.3,10.5C37.2,46.6,37,47.8,37,49
	c0,2.7,1,5.2,2.9,7.1C41.8,58,44.3,59,47,59s5.2-1,7.1-2.9C56,54.2,57,51.7,57,49s-1-5.2-2.9-7.1C52.2,40,49.7,39,47,39z"/>
</svg>
