<?xml version="1.0" encoding="iso-8859-1"?>
<!-- Generator: Adobe Illustrator 22.0.0, SVG Export Plug-In . SVG Version: 6.00 Build 0)  -->
<svg xmlns="http://www.w3.org/2000/svg" xmlns:xlink="http://www.w3.org/1999/xlink" version="1.1" x="0px" y="0px" viewBox="0 0 59 58" style="enable-background:new 0 0 59 58;" xml:space="preserve" width="512" height="512">
<g id="_x31_-Rapper">
	<path style="fill:#D3A87D;" d="M12,29h1v-8h-1c-2.209,0-4,1.791-4,4C8,27.209,9.791,29,12,29z"/>
	<path style="fill:#D3A87D;" d="M48,21h-1v8h1c2.209,0,4-1.791,4-4C52,22.791,50.209,21,48,21z"/>
	<path style="fill:#DD352E;" d="M49.166,58c-0.054-0.683,0.283-1.367,1.153-1.564c1.562-0.354,3.343-0.662,5.06-0.657   c-0.117-0.111-0.226-0.218-0.313-0.319c-0.927-1.059-1.487-2.363-2.587-3.271c-0.691-0.57-0.659-1.313-0.275-1.875   c-3.458-1.972-7.567-4.537-9.613-7.46C39.344,46.034,34.903,48,30,48c-4.681,0-8.931-1.802-12.132-4.731   c-0.003,0.003-0.005,0.006-0.007,0.009c-2.211,2.71-6.513,5.093-9.898,6.958c0.521,0.701,0.579,1.82-0.353,2.457   c-1.142,0.78-2.579,1.071-3.658,1.936c-0.434,0.348-0.774,0.795-1.08,1.254c-0.209,0.314-0.358,1.015-0.654,0.961   c0.739,0.367,2.531-0.296,3.184-0.457c1.266-0.312,2.546-0.537,3.847-0.634c1.368-0.102,1.825,1.255,1.399,2.247H49.166z"/>
	<path style="fill:#FBCE9D;" d="M53.442,51.013c-0.554-0.31-1.112-0.643-1.671-0.988C50.048,52.036,49,54.644,49,57.5   c0,0.169,0.018,0.333,0.025,0.5H59C59,54.827,56.865,52.929,53.442,51.013z"/>
	<path style="fill:#FBCE9D;" d="M11,57.5c0-2.849-1.042-5.45-2.757-7.459c-0.573,0.339-1.14,0.667-1.685,0.972   C3.135,52.929,1,54.827,1,58h9.975C10.982,57.833,11,57.669,11,57.5z"/>
	<path style="fill:#EDB883;" d="M30,42c-4.778,0-9.109,4.125-12.332,1.088C18.903,46.186,22.171,55.865,30,58   c7.829-2.135,11.097-11.814,12.332-14.912C39.109,46.125,34.778,42,30,42z"/>
	<path style="fill:#ED8A19;" d="M13,18H1c-0.552,0-1-0.448-1-1s0.448-1,1-1h12c0.552,0,1,0.448,1,1S13.552,18,13,18z"/>
	<path style="fill:#FBCE9D;" d="M12.051,16C12.032,16.333,12,30,12,30c0,9.941,8.059,18,18,18l0,0c9.941,0,18-8.059,18-18   c0,0-0.032-13.667-0.051-14H12.051z"/>
	<path style="fill:#EBBA16;" d="M34.091,0h-8.182C18.228,0,12,6.573,12,14.682V17h12.325c-0.033-0.837,0.479-1.652,1.55-1.56   c4.17,0.358,7.91,0.476,12.062-0.062c1.118-0.145,1.619,0.739,1.524,1.622H48v-2.318C48,6.573,41.772,0,34.091,0z"/>
	<path style="fill:#ED8A19;" d="M34.341,0h-5.682C23.325,0,19,6.573,19,14.682V17h5.257c0.044-0.777,0.56-1.545,1.555-1.591   c2.208-0.102,4.407,0.152,6.613,0.064c1.981-0.079,3.966-0.505,5.949-0.439c1.169,0.039,1.683,1.075,1.542,1.966H44v-2.318   C44,6.573,39.676,0,34.341,0z"/>
	<path style="fill:#6F3315;" d="M40,15H24v-3c0-2.209,1.791-4,4-4h8c2.209,0,4,1.791,4,4V15z"/>
	<rect x="24" y="13" style="fill:#FFFFFF;" width="16" height="4"/>
	<path style="fill:#6F3315;" d="M20,24.6c-0.392,0-0.764-0.232-0.924-0.617c-0.212-0.51,0.03-1.095,0.54-1.307   c2.046-0.85,4.637-0.897,6.3-0.118c0.5,0.234,0.715,0.83,0.481,1.33c-0.234,0.499-0.83,0.714-1.33,0.48   c-1.154-0.541-3.168-0.475-4.684,0.154C20.258,24.575,20.128,24.6,20,24.6z"/>
	<path style="fill:#6C4127;" d="M23.027,29c-1.088,0-2.06-0.497-2.739-1.398c-0.13-0.173-0.201-0.385-0.201-0.602   c0-1.103,0.897-2,2-2c0.552,0,1,0.448,1,1c0,0.399-0.233,0.743-0.571,0.904c0.292,0.118,0.633,0.16,0.983-0.043   c0.478-0.277,1.09-0.114,1.367,0.364s0.114,1.09-0.364,1.367C24.033,28.862,23.537,29,23.027,29z"/>
	<path style="fill:#D8AD82;" d="M31,42h-2c-0.552,0-1-0.448-1-1s0.448-1,1-1h2c0.552,0,1,0.448,1,1S31.552,42,31,42z"/>
	<path style="fill:#EA6248;" d="M33,39h-6c-0.552,0-1-0.448-1-1s0.448-1,1-1h6c0.552,0,1,0.448,1,1S33.552,39,33,39z"/>
	<path style="fill:#D8AD82;" d="M30,34.971c-0.552,0-1-0.448-1-1s0.448-1,1-1c0.107,0,0.212-0.007,0.316-0.02   c0.682-0.083,0.694-0.765,0.681-0.972C30.991,31.879,30.915,31,30.115,31H30c-0.552,0-1-0.448-1-1v-1c0-0.552,0.448-1,1-1   s1,0.448,1,1v0.131c1.227,0.386,1.923,1.562,1.994,2.726c0.098,1.599-0.926,2.895-2.434,3.08   C30.376,34.959,30.189,34.971,30,34.971z"/>
	<path style="fill:#6F3315;" d="M40,24.6c-0.128,0-0.258-0.025-0.383-0.077c-1.516-0.63-3.529-0.696-4.684-0.154   c-0.5,0.235-1.095,0.02-1.33-0.48c-0.235-0.5-0.019-1.096,0.481-1.33c1.663-0.78,4.254-0.732,6.3,0.118   c0.51,0.212,0.752,0.797,0.54,1.307C40.764,24.368,40.392,24.6,40,24.6z"/>
	<path style="fill:#6C4127;" d="M37.94,29c-1.088,0-2.06-0.497-2.739-1.398C35.071,27.428,35,27.217,35,27c0-1.103,0.897-2,2-2   c0.552,0,1,0.448,1,1c0,0.399-0.233,0.743-0.571,0.904c0.292,0.118,0.633,0.16,0.983-0.043c0.479-0.277,1.09-0.114,1.367,0.364   c0.277,0.478,0.114,1.09-0.364,1.367C38.946,28.862,38.45,29,37.94,29z"/>
	<path style="fill:#D3A87D;" d="M25,35c-0.552,0-1-0.448-1-1v-1c0-0.552,0.448-1,1-1s1,0.448,1,1v1C26,34.552,25.552,35,25,35z"/>
	<path style="fill:#D3A87D;" d="M23,38c-0.552,0-1-0.448-1-1v-1c0-0.552,0.448-1,1-1s1,0.448,1,1v1C24,37.552,23.552,38,23,38z"/>
	<path style="fill:#D3A87D;" d="M35,35c-0.552,0-1-0.448-1-1v-1c0-0.552,0.448-1,1-1s1,0.448,1,1v1C36,34.552,35.552,35,35,35z"/>
	<path style="fill:#D3A87D;" d="M37,38c-0.552,0-1-0.448-1-1v-1c0-0.552,0.448-1,1-1s1,0.448,1,1v1C38,37.552,37.552,38,37,38z"/>
</g>

</svg>
