<?xml version="1.0" encoding="iso-8859-1"?>
<!-- Generator: Adobe Illustrator 22.0.0, SVG Export Plug-In . SVG Version: 6.00 Build 0)  -->
<svg xmlns="http://www.w3.org/2000/svg" xmlns:xlink="http://www.w3.org/1999/xlink" version="1.1" x="0px" y="0px" viewBox="0 0 58 58" style="enable-background:new 0 0 58 58;" xml:space="preserve" width="512" height="512">
<g id="_x31_0-Hoodie">
	<path style="fill:#3D6F44;" d="M42.989,48.018H15.011C6.757,51.803,0,52.817,0,58h33.143H35h23   C58,52.817,51.243,51.803,42.989,48.018z"/>
	<path style="fill:#61B872;" d="M54.372,19.067c-0.159-0.354-0.331-0.71-0.516-1.067c0,0-4.699-9.636-12.563-14.925   C38.272,1.043,34.655,0,30.973,0H29h-1.973c-3.682,0-7.3,1.043-10.321,3.075C8.843,8.364,4.144,18,4.144,18   c-0.185,0.357-0.357,0.713-0.516,1.067c-3.313,7.37-1.419,15.972,4.32,21.789L24.857,58H29h4.143l16.91-17.144   C55.791,35.039,57.685,26.437,54.372,19.067z"/>
	<path style="fill:#4F995B;" d="M33.143,58l16.91-17.144c3.824-3.876,5.928-8.989,5.935-14.149C55.723,18.006,43.746,11,29,11   S2.277,18.006,2.012,26.707c0.007,5.16,2.111,10.273,5.935,14.149L24.857,58H29H33.143z"/>
	<path style="fill:#3D6F44;" d="M37.836,16.04c-0.059,0.419-0.349,0.788-0.898,0.762c-5.237-0.254-10.384-0.253-15.594,0.125   c-0.64,0.046-0.938-0.448-0.911-0.947c-7.681,1.746-14.216,5.699-14.419,10.79c0.024,4.112,1.765,8.219,4.782,11.278L26.53,58   h4.939l15.735-19.952c3.017-3.06,4.758-7.166,4.782-11.278C51.786,21.737,45.4,17.816,37.836,16.04z"/>
	<path style="fill:#D3A87D;" d="M38,41.678C35.811,44.088,32.86,46,29,46s-6.811-1.912-9-4.322v8.042L26.53,58h4.939L38,49.72   V41.678z"/>
	<path style="fill:#EDB883;" d="M20,41.678v6.912c2.509,0.881,5.618,3.41,9,3.41s6.491-2.529,9-3.41v-6.912H20z"/>
	<g>
		<path style="fill:#FBCE9D;" d="M44.082,25.147c-0.714-2.062-4.018-5.712-6.457-9.144C34.819,15.359,31.864,15,29,15    c-2.865,0-5.822,0.36-8.629,1.004c-2.44,3.435-5.749,7.089-6.464,9.154l0,0c0.05,0.609,0.11,1.235,0.164,1.886    c0.359,4.26,1.604,8.418,3.885,11.957c2.256,3.5,5.819,7,11.044,7s8.788-3.5,11.044-7c2.281-3.539,3.527-7.697,3.885-11.957    c0.056-0.664,0.117-1.305,0.168-1.926C44.092,25.127,44.083,25.141,44.082,25.147z"/>
	</g>
	<path style="fill:#E7ECED;" d="M47,56c-0.552,0-1-0.448-1-1V43.951c0-0.552,0.448-1,1-1s1,0.448,1,1V55C48,55.552,47.552,56,47,56z   "/>
	<path style="fill:#E7ECED;" d="M11,56c-0.552,0-1-0.448-1-1V43.951c0-0.552,0.448-1,1-1s1,0.448,1,1V55C12,55.552,11.552,56,11,56z   "/>
	<path style="fill:#6F3315;" d="M13.907,25.158c0.715-2.064,4.024-5.719,6.464-9.154c-0.057,0.013-0.138,0.023-0.205,0.035   c-4.153,0.975-7.946,2.597-10.56,4.695C11.349,22.485,13.889,24.948,13.907,25.158z"/>
	<path style="fill:#6F3315;" d="M44.082,25.147c-0.715-2.064-4.024-5.719-6.464-9.154c0.057,0.013,0.138,0.023,0.205,0.035   c4.153,0.975,7.946,2.597,10.56,4.695C46.64,22.474,44.099,24.938,44.082,25.147z"/>
	<path style="fill:#D3A87D;" d="M28,34.614c-0.552,0-1-0.448-1-1s0.448-1,1-1c0.551,0,1-0.449,1-1c0-0.322-0.149-0.617-0.41-0.808   c-0.446-0.326-0.542-0.952-0.216-1.397c0.326-0.445,0.952-0.542,1.397-0.216C30.541,29.756,31,30.662,31,31.614   C31,33.269,29.654,34.614,28,34.614z"/>
	<path style="fill:#EA6248;" d="M29,39.997c-1.233,0-2.467-0.397-3.543-1.192c-0.444-0.328-0.538-0.954-0.21-1.398   c0.328-0.443,0.954-0.54,1.398-0.21c1.453,1.073,3.258,1.073,4.71,0c0.445-0.329,1.071-0.234,1.398,0.21   c0.328,0.444,0.234,1.07-0.21,1.398C31.467,39.6,30.233,39.997,29,39.997z"/>
	<path style="fill:#D3A87D;" d="M30,43h-2c-0.552,0-1-0.448-1-1s0.448-1,1-1h2c0.552,0,1,0.448,1,1S30.552,43,30,43z"/>
	<path style="fill:#839594;" d="M31,27h-4c-0.552,0-1-0.448-1-1s0.448-1,1-1h4c0.552,0,1,0.448,1,1S31.552,27,31,27z"/>
	<path style="fill:#FFFFFF;" d="M14.964,23.036H24c1.65,0,3,1.35,3,3v0c0,3.3-2.7,6-6,6h-2.964C14.716,32.036,12,29.32,12,26v0   C12,24.363,13.327,23.036,14.964,23.036z"/>
	<path style="fill:#FFFFFF;" d="M33.964,23H43c1.65,0,3,1.35,3,3v0c0,3.3-2.7,6-6,6h-2.964C33.716,32,31,29.284,31,25.964v0   C31,24.327,32.327,23,33.964,23z"/>
	<path style="fill:#6C4127;" d="M20.519,29c-1.088,0-2.06-0.497-2.739-1.398c-0.13-0.173-0.201-0.385-0.201-0.602   c0-1.103,0.897-2,2-2c0.552,0,1,0.448,1,1c0,0.399-0.233,0.743-0.571,0.904c0.292,0.119,0.633,0.16,0.983-0.043   c0.478-0.276,1.09-0.114,1.367,0.364c0.277,0.478,0.114,1.09-0.364,1.367C21.525,28.862,21.029,29,20.519,29z"/>
	<path style="fill:#6C4127;" d="M38.492,29c-1.088,0-2.06-0.497-2.739-1.398c-0.13-0.173-0.201-0.385-0.201-0.602   c0-1.103,0.897-2,2-2c0.552,0,1,0.448,1,1c0,0.399-0.233,0.743-0.571,0.904c0.292,0.119,0.633,0.16,0.983-0.043   c0.478-0.276,1.09-0.114,1.367,0.364c0.277,0.478,0.114,1.09-0.364,1.367C39.498,28.862,39.002,29,38.492,29z"/>
</g>

</svg>
