<?xml version="1.0" encoding="iso-8859-1"?>
<!-- Generator: Adobe Illustrator 19.0.0, SVG Export Plug-In . SVG Version: 6.00 Build 0)  -->
<svg version="1.1" id="Capa_1" xmlns="http://www.w3.org/2000/svg" xmlns:xlink="http://www.w3.org/1999/xlink" x="0px" y="0px"
	 viewBox="0 0 511.999 511.999" style="enable-background:new 0 0 511.999 511.999;" xml:space="preserve">
<path style="fill:#FFD93B;" d="M477.712,325.855H53.696c12.96,21.2,10.4,51.728-7.52,69.264
	C89.824,465.231,167.312,511.999,256,511.999c81.76,0,153.936-39.792,198.912-100.944C433.92,384.511,441.6,337.215,477.712,325.855
	z"/>
<path style="fill:#3E4347;" d="M260.192,246.927H40.912c-10.592,0-19.184-8.592-19.184-19.168V19.199
	c0-13.984,14.48-23.264,27.184-17.424l219.296,100.736c6.8,3.12,11.168,9.936,11.168,17.424v107.824
	C279.376,238.335,270.784,246.927,260.192,246.927z"/>
<path style="fill:#32373A;" d="M251.808,246.927h219.296c10.592,0,19.168-8.592,19.168-19.168V19.199
	c0-13.984-14.48-23.264-27.184-17.424l-219.28,100.736c-6.8,3.12-11.168,9.936-11.168,17.424v107.824
	C232.624,238.335,241.216,246.927,251.808,246.927z"/>
<path style="fill:#F4C534;" d="M439.68,338.431c-40.8,80.784-124.32,136.272-220.976,136.256
	c-58.896,0-112.992-20.512-155.488-54.864C108.64,476.095,178.144,511.999,256,511.999c102.608,0,190.672-62.4,228.24-151.36
	C466.864,360.623,449.616,353.119,439.68,338.431z"/>
<path style="fill:#3E4347;" d="M503.664,264.287c0,104.016-64.08,193.024-154.944,229.712c7.12-18.256,19.2-37.296,38.848-56.192
	c80.496-69.504-32.976-96.128-63.456-93.328c-18.272,1.696-44.576,16.56-63.312,16.56c-18.576,0-44.896-15.008-63.152-16.72
	c-30.496-2.784-144.256,24-63.472,93.488c21.2,20.272,33.44,40.864,40.56,60.368c-96.896-33.44-166.4-125.536-166.4-233.888
	C8.336,127.615,119.168,16.639,256,16.639S503.664,127.615,503.664,264.287z"/>
<path style="fill:#32373A;" d="M503.664,264.335c0-77.856-35.984-147.36-92.176-192.784c34.368,42.48,54.88,96.592,54.88,155.488
	c0,58-20.08,111.232-53.472,153.424c7.152,14.352,2.56,33.264-25.312,57.344c-19.616,18.848-31.664,37.84-38.8,56.064
	c0.928-0.384,1.92-0.656,2.848-1.04c0.384-0.144,0.752-0.304,1.136-0.464C441.44,454.687,503.664,366.815,503.664,264.335z"/>
<path style="fill:#FFFFFF;" d="M426.208,169.871c0,0-101.52,1.184-126.912,19.072c-32.656,23.008-36.464,56.496-18.576,81.872
	s50.704,33.056,83.344,10.032C389.44,262.975,426.208,169.871,426.208,169.871z"/>
<path style="fill:#3E4347;" d="M346.848,265.071c-12.688,12.688-33.28,12.688-45.968,0c-12.688-12.688-12.688-33.44,0-46.128
	c12.688-12.688,33.28-12.688,45.968,0C359.696,231.631,359.696,252.367,346.848,265.071z"/>
<path style="fill:#5A5F63;" d="M343.744,235.343c-2.32,2.32-7.12,1.248-10.832-2.32c-3.712-3.712-4.8-8.512-2.48-10.832
	c2.32-2.32,7.12-1.248,10.832,2.48C344.992,228.223,346.064,233.183,343.744,235.343z"/>
<path style="fill:#FFFFFF;" d="M85.792,169.871c0,0,101.52,1.184,126.912,19.072c32.656,23.008,36.464,56.496,18.576,81.872
	s-50.688,33.056-83.344,10.032C122.56,262.975,85.792,169.871,85.792,169.871z"/>
<path style="fill:#3E4347;" d="M165.152,265.071c12.688,12.688,33.28,12.688,45.968,0c12.688-12.688,12.688-33.44,0-46.128
	c-12.688-12.688-33.28-12.688-45.968,0C152.304,231.631,152.304,252.367,165.152,265.071z"/>
<path style="fill:#5A5F63;" d="M168.256,235.343c2.32,2.32,7.12,1.248,10.832-2.32c3.712-3.712,4.8-8.512,2.48-10.832
	s-7.12-1.248-10.832,2.48C167.008,228.223,165.92,233.183,168.256,235.343z"/>
<path style="fill:#3E4347;" d="M352.176,392.751c-7.104-7.36-46.24,17.776-95.6,16.64c-49.376,1.12-88.512-24.016-95.616-16.64
	c-8.576,6.16,29.12,53.968,95.616,53.888C323.056,446.703,360.752,398.911,352.176,392.751z"/>
<g>
</g>
<g>
</g>
<g>
</g>
<g>
</g>
<g>
</g>
<g>
</g>
<g>
</g>
<g>
</g>
<g>
</g>
<g>
</g>
<g>
</g>
<g>
</g>
<g>
</g>
<g>
</g>
<g>
</g>
</svg>
