<?xml version="1.0" encoding="iso-8859-1"?>
<!-- Generator: Adobe Illustrator 19.0.0, SVG Export Plug-In . SVG Version: 6.00 Build 0)  -->
<svg version="1.1" id="Capa_1" xmlns="http://www.w3.org/2000/svg" xmlns:xlink="http://www.w3.org/1999/xlink" x="0px" y="0px"
	 viewBox="0 0 512.006 512.006" style="enable-background:new 0 0 512.006 512.006;" xml:space="preserve">
<g>
	<path style="fill:#DEE4E9;" d="M352.57,484.32c-8.72-42.288-7.136-91.616,0-144.768H159.61c4.96,55.424,7.648,107.568,0,144.768
		C223.93,506.128,288.25,506.128,352.57,484.32z"/>
	<path style="fill:#DEE4E9;" d="M471.018,215.024c0,122.768-102.896,221.504-227.136,214.688
		c-117.984-6.48-207.68-115.12-202.512-233.168C48.17,41.456,141.658,0,255.994,0C374.762,0,471.018,44.736,471.018,215.024z"/>
	<path style="fill:#DEE4E9;" d="M477.466,351.328c0,138.096-209.104,138.272-209.104,0c0-57.744,46.816-104.56,104.56-104.56
		C430.65,246.768,477.466,293.584,477.466,351.328z"/>
</g>
<path style="fill:#CBD6E0;" d="M372.906,454.96c48.144-4.368,86.48-39.12,95.04-81.872c15.52-78.24-68.928-113.792-23.952-194.304
	c-27.184,97.808,57.568,107.632,37.584,197.424C473.53,414.672,436.394,458.112,372.906,454.96z"/>
<circle style="fill:#DEE4E9;" cx="139.098" cy="351.328" r="104.56"/>
<path style="fill:#CBD6E0;" d="M139.082,455.888c-54.704,2.72-99.088-33.856-108.672-79.68
	c-11.328-50.88,11.664-78.496,21.808-95.264c18.688-31.104,25.6-66.864,15.792-102.16c12.4,22.208,18.032,66.704-4.8,108.656
	c-9.424,16.768-27.952,41.328-19.168,85.664C52.138,413.504,88.458,451.296,139.082,455.888z"/>
<path style="fill:#5A5F63;" d="M226.538,207.408c-1.376,37.376-28.16,46.608-61.088,46.608c-30.896,0-51.904-51.968-46.624-88.912
	s43.216-25.6,73.664-19.776C223.002,151.168,227.978,168.304,226.538,207.408z"/>
<path style="fill:#3E4347;" d="M225.322,176.64c-4.512-2.848-10.384-4.832-17.632-6.144c-30.368-5.92-68.384-17.104-73.472,19.744
	c-2.352,16.448,0.384,35.76,7.056,52.208c-16.656-17.328-26.256-51.12-22.528-77.44c5.296-36.848,43.296-25.44,73.664-19.744
	C213.37,149.216,222.186,158.64,225.322,176.64z"/>
<path style="fill:#5A5F63;" d="M285.53,207.408c1.376,37.376,28.16,46.608,61.088,46.608c30.896,0,51.904-51.968,46.624-88.912
	s-43.216-25.6-73.664-19.776C289.05,151.168,284.09,168.304,285.53,207.408z"/>
<path style="fill:#3E4347;" d="M391.866,159.296c-15.088-5.696-37.232,0.224-56.432,3.952c-30.368,5.696-35.456,22.816-34.096,62.08
	c0.192,7.888,1.76,14.704,4.112,20.176c-11.76-7.024-19.2-18.864-19.984-38.176c-1.376-39.056,3.536-56.16,34.096-62.08
	C348.186,139.776,383.642,129.472,391.866,159.296z"/>
<g>
	<path style="fill:#F2F8FC;" d="M192.89,467.616c-2.8,9.232-5.584,18.448-8.384,27.68c-0.976,3.296-5.2,5.024-9.248,3.648
		c-5.488-1.856-10.944-3.888-16.336-6.128c-3.984-1.664-5.904-5.68-4.464-8.8c3.968-8.784,7.936-17.568,11.904-26.352
		c1.44-3.12,5.2-4.544,8.496-3.184c4.512,1.872,9.056,3.584,13.648,5.12C191.866,460.72,193.866,464.32,192.89,467.616z"/>
	<path style="fill:#F2F8FC;" d="M223.386,474.496c-1.44,9.536-2.88,19.056-4.336,28.592c-0.496,3.392-4.4,5.728-8.576,4.96
		c-5.648-1.04-11.28-2.256-16.864-3.68c-4.128-1.04-6.56-4.736-5.6-8.032c2.656-9.264,5.312-18.528,7.968-27.792
		c0.96-3.296,4.448-5.264,7.856-4.4c4.672,1.184,9.376,2.208,14.096,3.072C221.402,467.84,223.882,471.104,223.386,474.496z"/>
	<path style="fill:#F2F8FC;" d="M254.41,476.944c-0.064,9.632-0.144,19.28-0.208,28.912c0,3.44-3.536,6.288-7.76,6.128
		c-5.712-0.224-11.44-0.624-17.136-1.232c-4.208-0.448-7.12-3.744-6.64-7.152c1.296-9.552,2.608-19.104,3.904-28.656
		c0.496-3.408,3.632-5.856,7.12-5.488c4.768,0.512,9.536,0.848,14.32,1.024C251.498,470.64,254.41,473.504,254.41,476.944z"/>
	<path style="fill:#F2F8FC;" d="M285.45,474.96c1.296,9.552,2.608,19.104,3.904,28.656c0.48,3.392-2.608,6.72-6.816,7.168
		c-5.696,0.608-11.424,1.008-17.136,1.216c-4.224,0.16-7.568-2.688-7.584-6.128c-0.064-9.632-0.144-19.28-0.208-28.912
		c-0.016-3.44,2.752-6.288,6.256-6.432c4.784-0.176,9.568-0.512,14.32-1.024C281.674,469.12,284.97,471.552,285.45,474.96z"/>
	<path style="fill:#F2F8FC;" d="M316.026,468.528c2.656,9.264,5.312,18.528,7.968,27.792c0.96,3.296-1.648,7.056-5.776,8.08
		c-5.584,1.424-11.216,2.64-16.864,3.664c-4.176,0.768-7.904-1.584-8.4-4.992c-1.44-9.536-2.88-19.056-4.336-28.592
		c-0.496-3.408,1.84-6.624,5.296-7.264c4.72-0.864,9.424-1.888,14.096-3.072C311.434,463.296,315.066,465.232,316.026,468.528z"/>
	<path style="fill:#F2F8FC;" d="M345.658,457.648c3.968,8.784,7.936,17.568,11.904,26.352c1.44,3.136-0.656,7.216-4.624,8.864
		c-5.392,2.24-10.832,4.272-16.336,6.128c-4.064,1.36-8.112-0.416-9.088-3.712c-2.8-9.216-5.584-18.448-8.384-27.68
		c-0.976-3.296,0.88-6.848,4.24-7.968c4.592-1.552,9.152-3.248,13.648-5.12C340.33,453.168,344.234,454.528,345.658,457.648z"/>
</g>
<path style="fill:#5A5F63;" d="M292.762,366.512c2.128,16.672-15.232,30.432-34.048,30.432c-18.832,0-36.192-13.76-34.064-30.432
	c9.568-77.44,25.632-67.952,34.064-50.48C267.13,298.56,283.194,289.072,292.762,366.512z"/>
<path style="fill:#3E4347;" d="M278.266,308.752v0.208c0,0-45.456,44.832-40.032,82.288c-8.944-5.472-14.832-14.528-13.664-24.832
	c9.664-77.44,25.68-67.76,34.144-50.304C263.658,306.016,270.954,298.656,278.266,308.752z"/>
<g>
</g>
<g>
</g>
<g>
</g>
<g>
</g>
<g>
</g>
<g>
</g>
<g>
</g>
<g>
</g>
<g>
</g>
<g>
</g>
<g>
</g>
<g>
</g>
<g>
</g>
<g>
</g>
<g>
</g>
</svg>
