<?xml version="1.0" encoding="iso-8859-1"?>
<!-- Generator: Adobe Illustrator 22.0.0, SVG Export Plug-In . SVG Version: 6.00 Build 0)  -->
<svg xmlns="http://www.w3.org/2000/svg" xmlns:xlink="http://www.w3.org/1999/xlink" version="1.1" x="0px" y="0px" viewBox="0 0 58 58" style="enable-background:new 0 0 58 58;" xml:space="preserve" width="512" height="512">
<g id="_x31_1-Hoodie">
	<path style="fill:#61B872;" d="M46.41,49.838c-0.673-0.045-1.464-0.301-2.403-0.838l-5.308-3.852   c0.192-0.123,0.367-0.269,0.555-0.4C36.339,46.782,32.814,48,28.99,48c-3.604,0-6.947-1.078-9.76-2.905L13.993,49   c-0.956,0.547-1.758,0.801-2.438,0.839C7.812,52.182,1.524,54.924,0,58h58C56.476,54.924,50.147,52.181,46.41,49.838z"/>
	<g>
		<path style="fill:#3D6F44;" d="M11.151,32.22C11.82,37.651,18.603,35.178,23,38l2.225,11.29C25.711,49.629,26,50.185,26,50.777    v0.003c0,1.148-1.052,2.008-2.177,1.778c-1.387-0.283-3.093-0.659-4.03-0.971c-2.222-0.738-5.799-2.586-5.8-2.587    C7,53,8,41.781,8,39C8,36.432,9.222,34.117,11.151,32.22z"/>
	</g>
	<g>
		<path style="fill:#3D6F44;" d="M46.849,32.22C46.18,37.651,35,38,34,43l-1.225,6.29C32.289,49.629,32,50.185,32,50.777v0.003    c0,1.148,1.052,2.008,2.177,1.778c1.387-0.283,3.093-0.659,4.03-0.971c2.222-0.738,5.799-2.586,5.8-2.587C51,53,50,41.781,50,39    C50,36.432,48.778,34.117,46.849,32.22z"/>
	</g>
	<path style="fill:#EDB883;" d="M28.99,48c-3.191,0-5.396-1.539-7.99-3c-0.009,0.026-0.992-1.026-1-1l5.226,5.29   C25.711,49.629,26,50.184,26,50.777c0,0.707-0.4,1.301-0.968,1.603C26.23,52.773,27.574,55,29,55c1.425,0,2.767-2.227,3.965-2.62   C32.398,52.078,32,51.485,32,50.78v-0.003c0-0.592,0.289-1.148,0.775-1.487l5.034-3.52c-0.01-0.031-0.024-0.06-0.035-0.09   C35.175,47.146,32.188,48,28.99,48z"/>
	<path style="fill:#FFFFFF;" d="M23,56c-0.552,0-1-0.448-1-1v-4c0-0.552,0.448-1,1-1s1,0.448,1,1v4C24,55.552,23.552,56,23,56z"/>
	<path style="fill:#FFFFFF;" d="M35,56c-0.552,0-1-0.448-1-1v-4c0-0.552,0.448-1,1-1s1,0.448,1,1v4C36,55.552,35.552,56,35,56z"/>
	<path style="fill:#D3A87D;" d="M16,29v-2c-1.126-0.375-5.829-0.878-6.269-2.608C8.799,24.981,8,26.434,8,30   c0,1.028,1.802,6,3.333,6c0.508,0,0.98-0.325,1.385-0.879C12.255,33.431,16,30.704,16,29z"/>
	<path style="fill:#D3A87D;" d="M48.414,24.504c-0.333,1.05-3.805,0.56-4.435,1.496C43.305,27,43,27.5,43,27.5v1   c0,1.704,2.745,4.931,2.282,6.621C45.686,35.675,46.159,36,46.667,36C48.198,36,50,31.028,50,30   C50,26.624,49.282,25.152,48.414,24.504z"/>
	<path style="fill:#FBCE9D;" d="M38,10c-2.156,2-9,0-9,0c-5.505,2.198-11.061,1.103-11,1c-4.312,2-7,4-7,4l1,10v3v2   c0,9.615,7.991,20,16.981,20h0.039C38.009,50,46,39.615,46,30v-1V17C43.844,11,38,10,38,10z"/>
	<path style="fill:#6F3315;" d="M12,25v-5c0,0,1.431-5,5.743-7c-0.06,0.103,5.274,2.198,10.778,0c0,0,6.467,0,8.623-2   c0,0,6.701,3,8.856,9v9c0,0,0.305-0.5,0.979-1.5C48.345,25.472,49,23.099,49,20.708v-1.708c0-2.068-0.503-4.112-1.52-5.952   c-1.327-2.401-3.764-5.486-8.18-8.047c0,0-0.606-1.688-3.183-2.953c-1.761-0.865-3.794-1.125-5.771-0.901   C29.187,1.278,27.953,1.527,27.443,2c0,0-6.467,0-7.545-2c0,0-2.156,2-2.156,4c0,0-1.078-1-3.234-1c0,0-2.156,3-1.078,5   C13.431,8,9,10,9,18c0,0,0,9,3,10V25z"/>
	<path style="fill:#A35D3E;" d="M28.521,14c-0.427,0-0.822-0.276-0.955-0.705c-0.163-0.527,0.132-1.087,0.66-1.251   c2.41-0.745,2.526-2.022,2.53-2.076c0.037-0.538,0.502-0.979,1.033-0.949c0.539,0.019,0.966,0.442,0.966,0.98   c0,0.112-0.045,2.751-3.938,3.956C28.718,13.986,28.619,14,28.521,14z"/>
	<path style="fill:#D3A87D;" d="M29,36c-0.552,0-1-0.448-1-1s0.448-1,1-1c0.552,0,1-0.449,1-1c0-0.322-0.15-0.617-0.41-0.808   c-1.01-0.74-1.59-1.808-1.59-2.929V29c0-0.552,0.448-1,1-1s1,0.448,1,1v0.263c0,0.653,0.484,1.105,0.772,1.316   C31.541,31.143,32,32.048,32,33C32,34.654,30.654,36,29,36z"/>
	<path style="fill:#EA6248;" d="M33.002,41.444c-0.059,0-0.118-0.005-0.177-0.016c-0.739-0.132-1.792-0.537-2.532-1.277   c-0.111-0.111-0.28-0.281-0.598,0.013c-0.395,0.364-1.022,0.367-1.402-0.013c-0.305-0.281-0.473-0.112-0.585,0   c-0.74,0.74-1.793,1.146-2.531,1.277c-0.544,0.098-1.063-0.265-1.16-0.809c-0.097-0.543,0.265-1.063,0.808-1.16   c0.438-0.078,1.085-0.338,1.469-0.723c0.675-0.675,1.549-0.899,2.398-0.617c0.108,0.036,0.21,0.079,0.303,0.124   c0.758-0.366,1.795-0.424,2.712,0.493c0.385,0.385,1.031,0.645,1.469,0.723c0.544,0.097,0.906,0.617,0.808,1.16   C33.898,41.104,33.477,41.444,33.002,41.444z"/>
	<path style="fill:#D3A87D;" d="M29,45.444c-1.058,0-2.042-0.483-2.77-1.362c-0.353-0.425-0.294-1.056,0.132-1.408   c0.425-0.353,1.055-0.294,1.408,0.132c0.683,0.823,1.778,0.823,2.46,0c0.353-0.426,0.983-0.485,1.408-0.132   c0.425,0.353,0.484,0.983,0.132,1.408C31.042,44.961,30.058,45.444,29,45.444z"/>
	<g>
		<path style="fill:#556080;" d="M12,20.888c0,2.244,0.19,8.599,4.857,9.021C28.089,30.925,29,23.132,29,20.888    C23.733,18.371,17.267,18.371,12,20.888z"/>
	</g>
	<path style="fill:#556080;" d="M29,20.888c0,2.244,0.911,10.037,12.143,9.021C45.81,29.487,46,23.132,46,20.888   C40.733,18.371,34.267,18.371,29,20.888z"/>
	<path style="fill:#727FA0;" d="M23.396,19.213l-6.635,6.157c-0.405,0.375-0.429,1.008-0.053,1.413   c0.197,0.212,0.465,0.32,0.733,0.32c0.243,0,0.487-0.088,0.68-0.267l7.682-7.128C25.014,19.492,24.209,19.33,23.396,19.213z"/>
	<path style="fill:#727FA0;" d="M16.812,20.997l-4.402,4.089c0.163,0.714,0.393,1.42,0.711,2.069l5.052-4.693   c0.405-0.376,0.428-1.009,0.052-1.414C17.85,20.646,17.217,20.623,16.812,20.997z"/>
</g>

</svg>
