<?xml version="1.0" encoding="iso-8859-1"?>
<!-- Generator: Adobe Illustrator 22.0.0, SVG Export Plug-In . SVG Version: 6.00 Build 0)  -->
<svg xmlns="http://www.w3.org/2000/svg" xmlns:xlink="http://www.w3.org/1999/xlink" version="1.1" x="0px" y="0px" viewBox="0 0 58 59" style="enable-background:new 0 0 58 59;" xml:space="preserve" width="512" height="512">
<g id="_x31_3-Formal">
	<path style="fill:#E7ECED;" d="M40.632,45.241c-0.115-0.075-0.231-0.152-0.346-0.229c-0.188-0.188-0.372-0.392-0.553-0.601   l-20.989-0.168c-0.325,0.256-0.658,0.512-1.031,0.769c-0.115,0.077-0.23,0.153-0.346,0.229C7.761,50.836,0,51.442,0,57.442V59h29   h29v-1.558C58,51.442,50.239,50.836,40.632,45.241z"/>
	<path style="fill:#D6D6D6;" d="M36,46c-1.544,2.161-2.479,4.975-5.131,4.996L39.04,56V45.343L36,46z"/>
	<path style="fill:#D6D6D6;" d="M24,46l-4.96-1.402V56l8.205-5.049C25.024,50.721,25.394,47.774,24,46z"/>
	<path style="fill:#D3A87D;" d="M13,29c-2.209,0-4,1.791-4,4c0,2.209,1.791,4,4,4l4-1v-6L13,29z"/>
	<path style="fill:#D3A87D;" d="M45,29c2.209,0,4,1.791,4,4c0,2.209-1.791,4-4,4l-7-2v-4L45,29z"/>
	<path style="fill:#FBCE9D;" d="M46,25c0-0.399,0.023-2.607,0-3c-0.897-3.875-7.303-6-7.303-6c-0.013,0.008-0.026,0.013-0.039,0.021   C34.02,18.704,29.907,20.323,26.645,20l-8.882-2c-0.061,0.001-0.032,0.033-0.093,0.037c-0.015,0-0.031-0.001-0.046,0   c-0.292,0.017-0.58,0.074-0.865,0.142c-0.197,0.05-0.39,0.118-0.581,0.193c-0.073,0.028-0.146,0.055-0.219,0.086   c-0.228,0.102-0.451,0.216-0.664,0.354c-0.006,0.004-0.012,0.008-0.018,0.012C14.807,19.13,14.374,19.522,14,20   c-1.847,2.361-1,7-1,7v7.132c0,1.858,0.624,3.662,1.772,5.122l6.739,8.576C23.082,49.832,25.486,51,28.03,51h2.703   c2.677,0,5.19-1.293,6.747-3.472l5.976-8.366C44.46,37.756,45,36.071,45,34.343v-7.219C44.981,27.082,45,27,45,27L46,25z"/>
	<path style="fill:#FFFFFF;" d="M13.04,28.474c0,0,3.091-4.141,11.211-1.709c1.185,0.355,2.088,1.363,2.334,2.605   c0.4,2.022,0.463,6.111-4.234,7.291C13.04,39,13.04,28.474,13.04,28.474z"/>
	<path style="fill:#FFFFFF;" d="M45.04,28.474c0,0-3.091-4.141-11.211-1.709c-1.185,0.355-2.088,1.363-2.334,2.605   c-0.4,2.022-0.463,6.111,4.234,7.291C45.04,39,45.04,28.474,45.04,28.474z"/>
	<path style="fill:#6F3315;" d="M42.996,7.724c0.014-0.405-0.01-0.82-0.075-1.242c-0.416-2.696-2.562-4.903-5.247-5.378   c-1.935-0.342-3.741,0.183-5.119,1.238C26.209,0.688,19,1,19,1c1.53,1.147,2.17,2.877,2.391,4.579   c-1.006-0.421-2.124-0.63-3.296-0.568c-3.78,0.201-6.912,3.356-7.086,7.137c-0.054,1.175,0.165,2.293,0.594,3.299   c-0.892,0.441-1.765,1.255-2.249,2.747c-0.573,1.765-0.434,3.742,0.304,5.429c0.509,1.165,1.8,2.474,3.307,3.377   c0,0,0.388-2.639,2.228-5c0.993-1.275,2.405-1.944,3.86-1.97c0.01,0.002,0.021,0.004,0.031,0.006C24.031,22.047,27,26,27,26   c0-1.647-0.136-2.987-0.355-4.086c0.525,0.052,1.066,0.088,1.634,0.09c1.503-0.003,3.153-0.207,4.919-0.701   c0.001,0.007,0.001,0.013,0.003,0.02c1.716-0.466,3.538-1.192,5.457-2.302c0.013-0.008,0.025-0.013,0.039-0.021   c0,0,5.352,0.942,6.249,4.817C44.969,24.21,45,24.601,45,25v2c0,0-0.02,0.082,0,0.124v0.116c2.946-1.335,5-4.295,5-7.74   c0-3.955-2.226-6.111-4.33-7.266C44.027,11.331,42.932,9.598,42.996,7.724z"/>
	<path style="fill:#A35D3E;" d="M19,21c-0.552,0-1-0.447-1-1s0.448-1,1-1c2.206,0,4-1.346,4-3c0-0.553,0.448-1,1-1s1,0.447,1,1   C25,18.757,22.308,21,19,21z"/>
	<path style="fill:#A35D3E;" d="M38.555,20c-0.315,0-0.625-0.148-0.82-0.427c-0.317-0.451-0.207-1.075,0.245-1.393   c0.013-0.009,1.348-0.951,2.371-2.12c0.364-0.415,0.995-0.458,1.411-0.095c0.416,0.364,0.458,0.996,0.094,1.411   c-1.187,1.357-2.667,2.398-2.729,2.442C38.953,19.941,38.753,20,38.555,20z"/>
	<path style="fill:#A35D3E;" d="M31,7.5c-0.552,0-1-0.447-1-1C30,2.916,32.916,0,36.5,0c0.552,0,1,0.447,1,1s-0.448,1-1,1   C34.019,2,32,4.019,32,6.5C32,7.053,31.552,7.5,31,7.5z"/>
	<polygon style="fill:#DD352E;" points="30.892,54.081 27.108,54.081 25,59 33,59  "/>
	<g>
		<path style="fill:#B02721;" d="M30.868,50.996c-0.032,0-0.064,0.004-0.096,0.004h-2.7c-0.324,0-0.898-0.053-0.866-0.05    l-1.156,0.711C26.288,53.554,27.513,55,29,55s2.712-1.446,2.95-3.338L30.868,50.996z"/>
	</g>
	<path style="fill:#EA6248;" d="M29,44.997c-1.234,0-2.467-0.397-3.543-1.192c-0.444-0.328-0.538-0.954-0.21-1.398   c0.329-0.445,0.954-0.539,1.399-0.21c1.453,1.073,3.258,1.073,4.71,0c0.444-0.328,1.071-0.234,1.398,0.21   c0.328,0.444,0.234,1.07-0.21,1.398C31.468,44.6,30.234,44.997,29,44.997z"/>
	<path style="fill:#D3A87D;" d="M28,39c-0.552,0-1-0.448-1-1s0.448-1,1-1c0.552,0,1-0.449,1-1c0-0.322-0.15-0.617-0.41-0.808   c-0.445-0.327-0.542-0.952-0.215-1.397c0.327-0.445,0.953-0.542,1.398-0.215C30.541,34.143,31,35.048,31,36   C31,37.654,29.654,39,28,39z"/>
	<path style="fill:#D3A87D;" d="M30,48h-2c-0.552,0-1-0.448-1-1s0.448-1,1-1h2c0.552,0,1,0.448,1,1S30.552,48,30,48z"/>
	<path style="fill:#366DB6;" d="M21.607,33c-1.087,0-2.06-0.497-2.739-1.398c-0.131-0.173-0.201-0.385-0.201-0.602   c0-1.103,0.897-2,2-2c0.552,0,1,0.448,1,1c0,0.399-0.233,0.743-0.571,0.904c0.292,0.118,0.633,0.161,0.983-0.043   c0.478-0.277,1.09-0.114,1.367,0.364c0.277,0.478,0.114,1.09-0.364,1.367C22.613,32.862,22.117,33,21.607,33z"/>
	<path style="fill:#366DB6;" d="M38.013,33c-1.087,0-2.06-0.497-2.739-1.398c-0.131-0.173-0.201-0.385-0.201-0.602   c0-1.103,0.897-2,2-2c0.552,0,1,0.448,1,1c0,0.399-0.233,0.743-0.571,0.904c0.292,0.118,0.633,0.161,0.984-0.043   c0.478-0.277,1.09-0.114,1.367,0.364c0.277,0.478,0.114,1.089-0.364,1.366C39.018,32.862,38.522,33,38.013,33z"/>
	<path style="fill:#839594;" d="M32.558,28.524c-0.24,0-0.481-0.086-0.672-0.26c-1.781-1.618-4.105-1.676-5.922-0.148   c-0.422,0.356-1.053,0.302-1.409-0.121s-0.301-1.054,0.121-1.409c2.589-2.179,6.027-2.099,8.555,0.199   c0.409,0.371,0.439,1.004,0.067,1.413C33.101,28.414,32.83,28.524,32.558,28.524z"/>
</g>

</svg>
