<?xml version="1.0" encoding="iso-8859-1"?>
<!-- Generator: Adobe Illustrator 19.0.0, SVG Export Plug-In . SVG Version: 6.00 Build 0)  -->
<svg version="1.1" id="Capa_1" xmlns="http://www.w3.org/2000/svg" xmlns:xlink="http://www.w3.org/1999/xlink" x="0px" y="0px"
	 viewBox="0 0 512 512" style="enable-background:new 0 0 512 512;" xml:space="preserve">
<g>
	<path style="fill:#E24B4B;" d="M198.048,43.632c0,14.368-11.648,26.032-26.032,26.032c-1.664,0-3.184-0.16-4.688-0.448
		L45.84,178.752c0.144,0.304,0.144,0.448,0.144,0.752c0,11.648-9.536,21.328-21.328,21.328c-11.808,0-21.328-9.68-21.328-21.328
		c0-5.904,2.416-11.344,6.352-15.28c-4.08-5.76-6.352-12.576-6.352-19.984c0-4.544,0.912-8.928,2.416-12.864
		C2.112,126.24,0,119.872,0,113.072c0-14.976,10.288-27.536,24.208-31.168c-1.36-3.472-2.112-7.264-2.112-11.2
		c0-17.552,14.368-31.92,31.92-31.92c2.88,0,5.6,0.304,8.176,1.056C64.144,21.088,79.888,6.4,99.248,6.4
		c9.376,0,18,3.632,24.512,9.376c3.936-1.504,8.176-2.256,12.56-2.256c8.624,0,16.496,2.88,22.544,7.872
		c3.776-2.416,8.32-3.776,13.168-3.776C186.4,17.6,198.048,29.248,198.048,43.632z"/>
	<path style="fill:#E24B4B;" d="M508.672,144.24c0,7.408-2.272,14.224-6.352,19.968c3.936,3.936,6.352,9.376,6.352,15.28
		c0,11.648-9.536,21.328-21.328,21.328c-11.808,0-21.328-9.68-21.328-21.328c0-0.304,0-0.448,0.144-0.752L339.984,69.648
		c-14.368,0-26.016-11.648-26.016-26.032c0-14.368,11.648-26.032,26.016-26.032c4.848,0,9.376,1.36,13.168,3.776
		c6.048-4.992,13.92-7.872,22.544-7.872c4.384,0,8.624,0.752,12.56,2.272c6.48-5.728,15.104-9.36,24.496-9.36
		c19.36,0,35.104,14.672,37.072,33.44c2.576-0.752,5.296-1.056,8.176-1.056c17.552,0,31.92,14.368,31.92,31.92
		c0,3.936-0.752,7.712-2.112,11.2C501.712,85.536,512,98.096,512,113.072c0,6.816-2.112,13.168-5.744,18.304
		C507.76,135.312,508.672,139.696,508.672,144.24z"/>
</g>
<path style="fill:#E9EFF4;" d="M497.376,264.208C497.376,397.584,389.216,505.6,256,505.6
	c-133.36,0-241.376-108.016-241.376-241.376C14.624,131.008,122.64,22.832,256,22.832
	C389.216,22.832,497.376,131.008,497.376,264.208z"/>
<path style="fill:#DEE4E9;" d="M497.376,264.208C497.376,397.584,389.216,505.6,256,505.6c-76.032,0-143.92-35.152-187.984-90.064
	c41.344,33.184,93.68,52.944,150.864,52.944c133.216,0,241.376-108.016,241.376-241.376c0-57.184-19.76-109.52-53.104-150.864
	C462.224,120.448,497.376,188.176,497.376,264.208z"/>
<path style="fill:#FFFFFF;" d="M375.472,229.936c-0.224,26.848-20.56,48.704-45.472,48.704c-24.784,0-44.752-21.856-44.528-48.704
	s20.56-48.704,45.344-48.704C355.728,181.232,375.696,203.088,375.472,229.936z"/>
<ellipse style="fill:#3E4347;" cx="330.464" cy="229.936" rx="24.192" ry="26.992"/>
<path style="fill:#FFFFFF;" d="M341.792,225.04c-2.352,0.832-5.392-0.944-6.832-3.792s-0.592-5.92,1.6-6.64
	c2.352-0.832,5.392,0.944,6.832,3.792S344.128,224.208,341.792,225.04z"/>
<path style="fill:#D3D9DD;" d="M385.472,205.12c-13.504-27.52-38.224-44.032-63.04-41.984c-5.856,0.416-10.944-3.856-11.408-9.696
	c-0.464-5.824,3.872-10.944,9.696-11.408c33.52-2.688,66.416,18.384,83.776,53.776c2.576,5.248,0.4,11.584-4.848,14.176
	C394.448,212.544,388.08,210.432,385.472,205.12z"/>
<path style="fill:#FFFFFF;" d="M136.528,229.936c0.224,26.848,20.56,48.704,45.472,48.704c24.784,0,44.752-21.856,44.528-48.704
	s-20.56-48.704-45.344-48.704C156.272,181.232,136.304,203.088,136.528,229.936z"/>
<ellipse style="fill:#3E4347;" cx="181.504" cy="229.936" rx="24.192" ry="26.992"/>
<path style="fill:#FFFFFF;" d="M192.832,225.04c-2.352,0.832-5.392-0.944-6.832-3.792s-0.592-5.92,1.6-6.64
	c2.352-0.832,5.392,0.944,6.832,3.792C195.872,221.248,195.184,224.208,192.832,225.04z"/>
<path style="fill:#D3D9DD;" d="M112.352,209.968c-5.248-2.576-7.424-8.928-4.848-14.176c17.36-35.408,50.368-56.512,83.776-53.776
	c5.824,0.48,10.176,5.584,9.696,11.408s-5.728,10.08-11.408,9.696c-24.848-1.952-49.536,14.464-63.056,41.984
	C123.92,210.432,117.552,212.544,112.352,209.968z"/>
<circle style="fill:#E24B4B;" cx="256" cy="308.736" r="41.04"/>
<g style="opacity:0.2;">
	<path style="fill:#FFFFFF;" d="M279.984,304.512c-4.224,4.08-11.92,2.864-17.344-2.56c-5.584-5.424-6.64-13.28-2.56-17.344
		c4.08-4.08,11.92-3.024,17.344,2.56C282.848,292.592,284.064,300.288,279.984,304.512z"/>
</g>
<path style="fill:#E24B4B;" d="M367.52,322.304c-11.456,0-21.904,5.664-29.104,14.592c-19.44,24.064-49.136,39.504-82.4,39.504
	c-33.28,0-62.976-15.44-82.416-39.504c-7.2-8.912-17.648-14.592-29.104-14.592l0,0c-30.672,0-47.456,35.472-28.336,59.456
	c32.784,41.136,83.296,67.536,139.856,67.536s107.072-26.416,139.856-67.536C414.976,357.776,398.192,322.304,367.52,322.304
	L367.52,322.304z"/>
<path style="fill:#FFFFFF;" d="M256,427.44c-47.968,0-92.72-21.616-122.752-59.312c-5.296-6.64-3.024-13.232-1.808-15.76
	c4.496-9.344,17.056-11.744,25.152-1.728c24.448,30.272,60.688,47.632,99.424,47.632s74.976-17.36,99.424-47.648
	c8.112-10.032,20.656-7.552,25.152,1.744c1.216,2.528,3.472,9.12-1.808,15.76C348.72,405.824,303.968,427.44,256,427.44z"/>
<g>
</g>
<g>
</g>
<g>
</g>
<g>
</g>
<g>
</g>
<g>
</g>
<g>
</g>
<g>
</g>
<g>
</g>
<g>
</g>
<g>
</g>
<g>
</g>
<g>
</g>
<g>
</g>
<g>
</g>
</svg>
