<?xml version="1.0" encoding="iso-8859-1"?>
<!-- Generator: Adobe Illustrator 22.0.0, SVG Export Plug-In . SVG Version: 6.00 Build 0)  -->
<svg xmlns="http://www.w3.org/2000/svg" xmlns:xlink="http://www.w3.org/1999/xlink" version="1.1" x="0px" y="0px" viewBox="0 0 58 59" style="enable-background:new 0 0 58 59;" xml:space="preserve" width="512" height="512">
<g id="_x31_4-Moustache">
	<path style="fill:#61B872;" d="M51.442,51.62c-3.628-2.145-7.491-5.108-9.794-8.54l-24.804,0.389   c-2.532,3.269-6.794,6.087-10.286,8.151C3.135,53.643,0,55.648,0,59h29h29C58,55.648,54.865,53.643,51.442,51.62z"/>
	<path style="fill:#EDB883;" d="M39.886,44.197l-20.899,0.355c-0.928-0.31-1.643-0.727-2.143-1.083   c-0.022,0.026-0.045,0.051-0.065,0.077C18.088,47.084,21.381,56.805,29,59c7.744-2.231,11.022-12.248,12.287-15.632   C40.944,43.624,40.473,43.923,39.886,44.197z"/>
	<path style="fill:#D3A87D;" d="M12.96,29c-2.209,0-4,1.791-4,4c0,2.209,1.791,4,4,4l4-1v-6L12.96,29z"/>
	<path style="fill:#D3A87D;" d="M44.96,29c2.209,0,4,1.791,4,4c0,2.209-1.791,4-4,4l-7-2v-4L44.96,29z"/>
	<path style="fill:#FBCE9D;" d="M45.96,25c0-0.399,0.023-2.607,0-3c-0.897-3.875-7.303-6-7.303-6   c-0.013,0.008-0.026,0.013-0.039,0.021C33.98,18.704,29.867,20.323,26.605,20l-8.882-2c-0.061,0.001-0.032,0.033-0.093,0.037   c-0.015,0-0.031-0.001-0.046,0c-0.292,0.017-0.58,0.074-0.865,0.142c-0.197,0.05-0.39,0.118-0.581,0.193   c-0.073,0.028-0.146,0.055-0.219,0.086c-0.228,0.102-0.451,0.216-0.664,0.354c-0.006,0.004-0.012,0.008-0.018,0.012   C14.766,19.13,14.333,19.522,13.96,20c-1.847,2.361-1,7-1,7v7.132c0,1.858,0.624,3.662,1.772,5.122l6.739,8.576   C23.042,49.832,25.445,51,27.989,51h2.703c2.677,0,5.19-1.293,6.747-3.472l5.976-8.366c1.004-1.406,1.544-3.091,1.544-4.819v-7.219   c-0.019-0.042,0-0.124,0-0.124L45.96,25z"/>
	<path style="fill:#EBBA16;" d="M42.956,7.724c0.014-0.405-0.01-0.82-0.075-1.242c-0.416-2.696-2.562-4.903-5.247-5.378   c-1.935-0.342-3.741,0.183-5.119,1.238C26.169,0.688,18.96,1,18.96,1c1.53,1.147,2.17,2.877,2.391,4.579   c-1.006-0.421-2.124-0.63-3.296-0.568c-3.78,0.201-6.912,3.356-7.086,7.137c-0.054,1.175,0.165,2.293,0.594,3.299   c-0.892,0.441-1.765,1.255-2.249,2.747c-0.573,1.765-0.434,3.742,0.304,5.429c0.509,1.165,1.8,2.474,3.307,3.377   c0,0,0.388-2.639,2.228-5c0.993-1.275,2.405-1.944,3.86-1.97c0.01,0.002,0.021,0.004,0.031,0.006C23.991,22.047,26.96,26,26.96,26   c0-1.647-0.136-2.987-0.355-4.086c0.525,0.052,1.066,0.088,1.634,0.09c1.503-0.003,3.153-0.207,4.919-0.701   c0.001,0.007,0.001,0.013,0.003,0.02c1.716-0.466,3.538-1.192,5.457-2.302c0.013-0.008,0.025-0.013,0.039-0.021   c0,0,5.352,0.942,6.249,4.817C44.929,24.21,44.96,24.601,44.96,25v2c0,0-0.02,0.082,0,0.124v0.116c2.946-1.335,5-4.295,5-7.74   c0-3.955-2.226-6.111-4.33-7.266C43.986,11.331,42.891,9.598,42.956,7.724z"/>
	<path style="fill:#C49716;" d="M18.96,21c-0.552,0-1-0.447-1-1s0.448-1,1-1c2.206,0,4-1.346,4-3c0-0.553,0.448-1,1-1s1,0.447,1,1   C24.96,18.757,22.268,21,18.96,21z"/>
	<path style="fill:#C49716;" d="M38.515,20c-0.315,0-0.625-0.148-0.82-0.427c-0.317-0.451-0.207-1.075,0.245-1.393   c0.013-0.009,1.348-0.951,2.371-2.12c0.364-0.415,0.995-0.458,1.411-0.095c0.416,0.364,0.458,0.996,0.094,1.411   c-1.187,1.357-2.667,2.398-2.729,2.442C38.912,19.941,38.712,20,38.515,20z"/>
	<path style="fill:#C49716;" d="M30.96,7.5c-0.552,0-1-0.447-1-1c0-3.584,2.916-6.5,6.5-6.5c0.552,0,1,0.447,1,1s-0.448,1-1,1   c-2.481,0-4.5,2.019-4.5,4.5C31.96,7.053,31.512,7.5,30.96,7.5z"/>
	<path style="fill:#C49716;" d="M18.508,28.6c-0.392,0-0.764-0.232-0.924-0.617c-0.212-0.51,0.03-1.095,0.54-1.307   c2.046-0.85,4.637-0.897,6.3-0.118c0.5,0.234,0.715,0.83,0.481,1.33c-0.234,0.5-0.83,0.715-1.33,0.48   c-1.154-0.541-3.168-0.475-4.684,0.154C18.766,28.575,18.636,28.6,18.508,28.6z"/>
	<path style="fill:#C49716;" d="M39.999,28.6c-0.128,0-0.258-0.025-0.383-0.077c-1.516-0.63-3.529-0.696-4.684-0.154   c-0.5,0.236-1.095,0.02-1.33-0.48c-0.235-0.5-0.019-1.096,0.481-1.33c1.663-0.78,4.254-0.732,6.3,0.118   c0.51,0.212,0.752,0.797,0.54,1.307C40.763,28.368,40.391,28.6,39.999,28.6z"/>
	<path style="fill:#366DB6;" d="M21.575,34c-1.087,0-2.06-0.497-2.739-1.398c-0.131-0.173-0.201-0.385-0.201-0.602   c0-1.103,0.897-2,2-2c0.552,0,1,0.448,1,1c0,0.399-0.233,0.743-0.571,0.904c0.292,0.119,0.633,0.16,0.983-0.043   c0.478-0.276,1.09-0.114,1.367,0.364c0.277,0.478,0.114,1.09-0.364,1.367C22.581,33.862,22.085,34,21.575,34z"/>
	<path style="fill:#366DB6;" d="M37.981,34c-1.087,0-2.06-0.497-2.739-1.398C35.111,32.428,35.04,32.217,35.04,32   c0-1.103,0.897-2,2-2c0.552,0,1,0.448,1,1c0,0.399-0.233,0.743-0.571,0.904c0.292,0.119,0.633,0.16,0.983-0.043   c0.478-0.276,1.09-0.114,1.367,0.364c0.277,0.478,0.114,1.09-0.364,1.367C38.987,33.862,38.49,34,37.981,34z"/>
	<path style="fill:#D3A87D;" d="M28,37.614c-0.552,0-1-0.448-1-1s0.448-1,1-1c0.552,0,1-0.449,1-1c0-0.322-0.149-0.617-0.41-0.808   c-0.446-0.327-0.542-0.952-0.216-1.398c0.327-0.445,0.953-0.542,1.398-0.215C30.541,32.757,31,33.662,31,34.614   C31,36.269,29.654,37.614,28,37.614z"/>
	<path style="fill:#D3A87D;" d="M30,48h-2c-0.552,0-1-0.448-1-1s0.448-1,1-1h2c0.552,0,1,0.448,1,1S30.552,48,30,48z"/>
	<path style="fill:#C49716;" d="M15.995,42.755c0,0,4.063,4.506,11.375,0.751c0,0,1.625-0.751,1.625-2.253   c0-0.751-0.812-2.253-2.438-2.253C24.12,39,20.87,42.755,15.995,42.755z"/>
	<path style="fill:#C49716;" d="M41.995,42.755c0,0-4.062,4.506-11.375,0.751c0,0-1.625-0.751-1.625-2.253   c0-0.751,0.812-2.253,2.438-2.253C33.87,39,37.12,42.755,41.995,42.755z"/>
</g>

</svg>
