<?xml version="1.0" encoding="iso-8859-1"?>
<!-- Generator: Adobe Illustrator 22.0.0, SVG Export Plug-In . SVG Version: 6.00 Build 0)  -->
<svg xmlns="http://www.w3.org/2000/svg" xmlns:xlink="http://www.w3.org/1999/xlink" version="1.1" id="Layer_1" x="0px" y="0px" viewBox="0 0 58 58" style="enable-background:new 0 0 58 58;" xml:space="preserve" width="512" height="512">
<g id="_x31_6-Rasta">
	<path style="fill:#D3A87D;" d="M7,25c0-2.206,1.786-3.993,3.99-3.999V21h3v8h-3v-0.001C8.786,28.993,7,27.206,7,25z"/>
	<path style="fill:#28384C;" d="M46.41,49.838c-0.673-0.045-1.464-0.301-2.403-0.838l-5.308-3.852   c0.192-0.123,0.367-0.269,0.555-0.4C36.339,46.782,32.814,48,28.99,48c-3.604,0-6.947-1.078-9.76-2.905L13.993,49   c-0.956,0.547-1.758,0.801-2.438,0.839C7.812,52.182,1.524,54.924,0,58h58C56.476,54.924,50.147,52.181,46.41,49.838z"/>
	<g>
		<path style="fill:#4C5E72;" d="M11.151,32.22C11.82,37.651,18.603,35.178,23,38l2.225,11.29C25.711,49.629,26,50.185,26,50.777    v0.003c0,1.148-1.052,2.008-2.177,1.778c-1.387-0.283-3.093-0.659-4.03-0.971c-2.222-0.738-5.799-2.586-5.8-2.587    C7,53,8,41.781,8,39C8,36.432,9.222,34.117,11.151,32.22z"/>
	</g>
	<g>
		<path style="fill:#4C5E72;" d="M46.849,32.22C46.18,37.651,35,38,34,43l-1.225,6.29C32.289,49.629,32,50.185,32,50.777v0.003    c0,1.148,1.052,2.008,2.177,1.778c1.387-0.283,3.093-0.659,4.03-0.971c2.222-0.738,5.799-2.586,5.8-2.587C51,53,50,41.781,50,39    C50,36.432,48.778,34.117,46.849,32.22z"/>
	</g>
	<path style="fill:#EDB883;" d="M28.99,45.594c-3.191,0-5.396,0.867-7.99-0.594c-0.009,0.026-0.992-1.026-1-1l5.226,5.29   C25.711,49.629,26,50.184,26,50.777c0,0.707-0.4,1.301-0.968,1.603C26.23,52.773,27.574,55,29,55c1.425,0,2.767-2.227,3.965-2.62   C32.398,52.078,32,51.485,32,50.78v-0.003c0-0.592,0.289-1.148,0.775-1.487l5.034-3.52c-0.01-0.031-0.298-0.992-0.309-1.022   C34.901,46.214,32.188,45.594,28.99,45.594z"/>
	<path style="fill:#FFFFFF;" d="M23,56c-0.552,0-1-0.448-1-1v-4c0-0.552,0.448-1,1-1s1,0.448,1,1v4C24,55.552,23.552,56,23,56z"/>
	<path style="fill:#FFFFFF;" d="M35,56c-0.552,0-1-0.448-1-1v-4c0-0.552,0.448-1,1-1s1,0.448,1,1v4C36,55.552,35.552,56,35,56z"/>
	<path style="fill:#D3A87D;" d="M50.99,25c0-2.206-1.786-3.993-3.99-3.999V21h-3v8h3v-0.001C49.204,28.993,50.99,27.206,50.99,25z"/>
	<g>
		<path style="fill:#FBCE9D;" d="M45.476,15c-3.916-0.767-10.018-3-16.872-3c-5.91,0-11.26,1.979-15.132,3    c-0.915,0.241-1.744,0.426-2.482,0.524V30c0,9.941,8.059,18,18,18l0,0c9.941,0,18-8.059,18-18V15.237    C46.531,15.191,46.025,15.108,45.476,15z"/>
	</g>
	<path style="fill:#EA6248;" d="M33.002,40.444c-0.059,0-0.118-0.005-0.177-0.016c-0.739-0.132-1.792-0.537-2.532-1.277   c-0.112-0.111-0.28-0.282-0.598,0.013c-0.395,0.364-1.022,0.366-1.402-0.013c-0.305-0.281-0.474-0.112-0.585,0   c-0.74,0.74-1.793,1.146-2.531,1.277c-0.545,0.098-1.063-0.265-1.16-0.809c-0.097-0.543,0.265-1.063,0.808-1.16   c0.438-0.078,1.085-0.338,1.469-0.723c0.675-0.675,1.549-0.899,2.398-0.617c0.108,0.036,0.21,0.079,0.303,0.124   c0.758-0.366,1.795-0.424,2.712,0.493c0.385,0.385,1.031,0.645,1.469,0.723c0.544,0.097,0.906,0.617,0.808,1.16   C33.898,40.104,33.477,40.444,33.002,40.444z"/>
	<path style="fill:#D3A87D;" d="M28,35.614c-0.552,0-1-0.448-1-1s0.448-1,1-1s1-0.449,1-1c0-0.322-0.149-0.617-0.41-0.808   c-0.445-0.326-0.542-0.952-0.216-1.397s0.952-0.542,1.398-0.216C30.541,30.756,31,31.662,31,32.614   C31,34.269,29.654,35.614,28,35.614z"/>
	<path style="fill:#D3A87D;" d="M30,44h-2c-0.552,0-1-0.448-1-1s0.448-1,1-1h2c0.552,0,1,0.448,1,1S30.553,44,30,44z"/>
	<g>
		<path style="fill:#556080;" d="M11,22.06c0,2.448,0.201,9.381,5.143,9.841C28.036,33.009,29,24.507,29,22.06    C23.423,19.313,16.577,19.313,11,22.06z"/>
	</g>
	<path style="fill:#556080;" d="M29,22.06c0,2.448,0.964,10.949,12.857,9.841C46.799,31.441,47,24.507,47,22.06   C41.423,19.313,34.577,19.313,29,22.06z"/>
	<path style="fill:#7383BF;" d="M23.185,20.249l-7.113,6.775c-0.4,0.381-0.415,1.014-0.034,1.414c0.197,0.206,0.46,0.31,0.724,0.31   c0.248,0,0.496-0.091,0.689-0.276l8.102-7.717C24.775,20.539,23.984,20.372,23.185,20.249z"/>
	<path style="fill:#7383BF;" d="M16.124,22.256l-4.671,4.475c0.165,0.723,0.394,1.435,0.701,2.097l5.353-5.128   c0.399-0.382,0.413-1.015,0.031-1.414S16.523,21.874,16.124,22.256z"/>
	<path style="fill:#212F3F;" d="M50,15.494c0,3.014-1.689,3.061-4.524,2.506c-3.916-0.767-10.018-3-16.872-3   c-5.91,0-11.26,1.979-15.132,3c-3.87,1.02-6.264,1.082-6.264-2.506C7.208,8.315,16.787,0,28.604,0S50,8.315,50,15.494z"/>
	<path style="fill:#EBBA16;" d="M10.378,8.016c0.28-0.088,0.58-0.183,0.903-0.286c1.169-0.37,2.204-0.699,2.445-0.763   c0.775-0.204,1.609-0.446,2.494-0.704c2.492-0.724,5.316-1.545,8.389-1.974c0.547-0.076,0.928-0.581,0.852-1.128   s-0.581-0.935-1.129-0.852c-3.216,0.448-6.114,1.291-8.671,2.034c-0.694,0.201-1.346,0.388-1.972,0.56   C12.418,5.857,11.312,6.909,10.378,8.016z"/>
	<path style="fill:#DD352E;" d="M46.469,7.584c-0.979-1.089-2.146-2.109-3.454-3.036c-3.48-0.953-7.085-1.877-9.407-2.193   c-0.545-0.073-1.051,0.309-1.126,0.856c-0.074,0.547,0.309,1.051,0.856,1.125c2.96,0.403,8.265,1.886,12.527,3.079   C46.07,7.472,46.268,7.528,46.469,7.584z"/>
	<path style="fill:#EBBA16;" d="M48.9,11.14c-0.328-0.674-0.731-1.34-1.193-1.994c-0.834-0.008-1.619-0.045-2.039-0.127   c-1.031-0.202-2.21-0.506-3.575-0.859C38.367,7.197,33.729,6,28.604,6c-2.094,0-4.281,0.237-6.686,0.725   c-0.541,0.11-0.891,0.638-0.781,1.179s0.639,0.892,1.179,0.781C24.588,8.224,26.645,8,28.604,8c4.872,0,9.373,1.162,12.989,2.096   c1.338,0.345,2.602,0.672,3.691,0.885c0.603,0.118,1.712,0.167,2.822,0.167C48.374,11.148,48.64,11.145,48.9,11.14z"/>
	<path style="fill:#23A24D;" d="M49.969,15.112c-0.03-0.658-0.137-1.322-0.319-1.989c-1.304,0.123-2.849,0.118-3.981-0.104   c-1.033-0.202-2.215-0.507-3.583-0.861l-1.185-0.305c-0.534-0.134-1.079,0.187-1.216,0.723c-0.136,0.535,0.187,1.08,0.722,1.216   l1.178,0.303c1.341,0.346,2.607,0.673,3.699,0.887c0.521,0.102,1.634,0.212,2.897,0.212C48.76,15.193,49.369,15.169,49.969,15.112z   "/>
	<path style="fill:#DD352E;" d="M34.971,10.562C32.702,10.184,30.619,10,28.604,10c-4.881,0-9.351,1.299-12.942,2.343   c-0.868,0.252-1.685,0.49-2.445,0.69c-2,0.527-4.236,0.565-5.708,0.298c-0.165,0.657-0.269,1.312-0.285,1.959   c0.715,0.13,1.484,0.193,2.262,0.193c1.56,0,3.13-0.224,4.24-0.517c0.775-0.204,1.608-0.446,2.493-0.704   C19.689,13.255,24.008,12,28.604,12c1.904,0,3.879,0.175,6.039,0.535c0.545,0.094,1.06-0.277,1.151-0.822   C35.884,11.168,35.516,10.653,34.971,10.562z"/>
	<path style="fill:#23A24D;" d="M17.142,7.916l-1.479,0.426c-0.868,0.252-1.686,0.49-2.447,0.691   c-0.975,0.257-2.489,0.342-3.86,0.324c-0.439,0.644-0.833,1.296-1.143,1.958c0.465,0.026,0.955,0.041,1.454,0.041   c1.492,0,3.038-0.12,4.059-0.39c0.775-0.204,1.609-0.446,2.495-0.704l1.468-0.423c0.531-0.151,0.84-0.704,0.689-1.235   C18.227,8.073,17.675,7.766,17.142,7.916z"/>
</g>

</svg>
