<?xml version="1.0" encoding="iso-8859-1"?>
<!-- Generator: Adobe Illustrator 19.0.0, SVG Export Plug-In . SVG Version: 6.00 Build 0)  -->
<svg version="1.1" id="Capa_1" xmlns="http://www.w3.org/2000/svg" xmlns:xlink="http://www.w3.org/1999/xlink" x="0px" y="0px"
	 viewBox="0 0 511.995 511.995" style="enable-background:new 0 0 511.995 511.995;" xml:space="preserve">
<g>
	<path style="fill:#3E4347;" d="M469.87,19.707c-8.448-30.576-27.152-20.32-25.376-4.432
		c-1.296,58.272-75.888,76.272-103.616,80.944c9.248,16.256,27.616,29.744,39.616,43.776c13.168,15.424,24.464,31.664,32.992,50.096
		c2.176,4.72,4.16,9.472,6.016,14.272c12.144,4.64,23.664,2.688,33.072-10.432C490.382,141.211,480.062,54.699,469.87,19.707z"/>
	<path style="fill:#3E4347;" d="M75.15,205.787c21.888-39.376,57.36-72.288,87.968-111.088
		c-31.872-6.528-94.432-26.096-95.616-79.424c1.792-15.888-16.912-26.144-25.376,4.432C31.934,54.699,21.614,141.211,59.422,193.915
		C64.19,200.555,69.502,204.251,75.15,205.787z"/>
</g>
<path style="fill:#E24B4B;" d="M487.134,280.859c0,127.696-103.584,231.136-231.136,231.136
	c-127.696,0-231.136-103.44-231.136-231.136c0-127.552,103.44-231.136,231.136-231.136
	C383.55,49.723,487.134,153.307,487.134,280.859z"/>
<path style="fill:#D03F3F;" d="M487.134,280.859c0,127.696-103.584,231.136-231.136,231.136c-72.8,0-137.808-33.664-180-86.24
	c39.584,31.776,89.712,50.704,144.464,50.704c127.552,0,231.136-103.44,231.136-231.136c0-54.752-18.928-104.88-50.848-144.464
	C453.47,143.195,487.134,208.059,487.134,280.859z"/>
<circle style="fill:#3E4347;" cx="331.022" cy="250.411" r="32.96"/>
<ellipse transform="matrix(-0.4191 -0.908 0.908 -0.4191 275.1005 654.8198)" style="fill:#5A5F63;" cx="347.033" cy="239.403" rx="7.632" ry="5.248"/>
<g>
	<path style="fill:#3E4347;" d="M372.19,210.971c-14.576-13.344-34.288-18.16-50.496-12.208c-3.952,1.472-8.112,3.728-11.904,6.352
		c-6.624,4.592-11.136,11.392-13.968,18.928c-4.224,11.296-19.904,8.96-19.904-4.144c0-0.096,0-0.096,0-0.208
		c0-8,4.832-18.992,18.48-27.296c6.576-4,13.952-6.368,21.552-7.392C354.734,180.171,372.19,210.971,372.19,210.971z"/>
	<circle style="fill:#3E4347;" cx="180.974" cy="250.411" r="32.96"/>
</g>
<ellipse transform="matrix(-0.908 -0.4191 0.4191 -0.908 214.4854 525.7773)" style="fill:#5A5F63;" cx="164.986" cy="239.333" rx="5.248" ry="7.632"/>
<g>
	<path style="fill:#3E4347;" d="M139.806,210.971c14.576-13.344,34.288-18.16,50.496-12.208c3.952,1.472,8.112,3.728,11.904,6.352
		c6.608,4.592,11.136,11.392,13.968,18.928c4.224,11.296,19.904,8.96,19.904-4.144c0-0.096,0-0.096,0-0.208
		c0-8-4.832-18.992-18.48-27.296c-6.576-4-13.968-6.368-21.552-7.392C157.262,180.171,139.806,210.971,139.806,210.971z"/>
	<path style="fill:#3E4347;" d="M364.67,393.179c-24.224,33.76-63.776,55.504-108.512,55.504
		c-44.944,0-84.496-21.952-108.928-55.712c-6.416-8.912,2.272-20.912,12.64-17.6c65.856,20.496,129.84,20.08,192.176,0.416
		C362.59,372.251,371.294,384.267,364.67,393.179z"/>
</g>
<g>
	<path style="fill:#FFFFFF;" d="M335.118,402.811c-1.12,9.28-3.36,17.44-5.76,24.16c-3.2,9.44-7.04,16.32-9.12,19.84
		c-0.8,1.28-2.4,2.08-4.16,1.76c0,0-0.16,0-0.32-0.16c-2.08-0.48-3.52-2.56-3.04-4.64c0.48-2.4,0.8-5.12,0.8-7.84
		c1.12-17.44-4.48-39.04-7.36-49.12c10.08-1.76,20.16-3.84,30.24-6.56C336.718,384.251,336.558,391.291,335.118,402.811z"/>
	<path style="fill:#FFFFFF;" d="M199.278,443.771c0.48,2.08-0.8,4.16-2.88,4.64c-0.32,0.16-0.32,0.16-0.48,0.16
		c-1.6,0.32-3.2-0.48-4.16-1.76c-3.68-6.08-12.16-21.92-14.88-44c-1.44-12-1.6-18.88-1.12-23.04c10.08,2.88,20.32,4.96,30.4,6.56
		C202.798,397.531,195.598,425.371,199.278,443.771z"/>
</g>
<g>
</g>
<g>
</g>
<g>
</g>
<g>
</g>
<g>
</g>
<g>
</g>
<g>
</g>
<g>
</g>
<g>
</g>
<g>
</g>
<g>
</g>
<g>
</g>
<g>
</g>
<g>
</g>
<g>
</g>
</svg>
