<?xml version="1.0" encoding="iso-8859-1"?>
<!-- Generator: Adobe Illustrator 22.0.0, SVG Export Plug-In . SVG Version: 6.00 Build 0)  -->
<svg xmlns="http://www.w3.org/2000/svg" xmlns:xlink="http://www.w3.org/1999/xlink" version="1.1" x="0px" y="0px" viewBox="0 0 58 58" style="enable-background:new 0 0 58 58;" xml:space="preserve" width="512" height="512">
<g id="_x31_7-Rasta">
	<path style="fill:#61B872;" d="M39.665,44.476L29,44c-3.998,0-7.678,2.681-10.665,0.476C10,50.448,0,51.293,0,58h29h29   C58,51.293,48,50.448,39.665,44.476z"/>
	<path style="fill:#EDB883;" d="M29,45L29,45c-3.465,0-6.689,2.004-9.435,0.308C22.262,50.887,29,55,29,55s6.738-4.113,9.435-9.692   C35.689,47.004,32.465,45,29,45z"/>
	<path style="fill:#D3A87D;" d="M7.01,25c0-2.206,1.786-3.993,3.99-3.999V21h3v8h-3v-0.001C8.796,28.993,7.01,27.206,7.01,25z"/>
	<path style="fill:#D3A87D;" d="M51,25c0-2.206-1.786-3.993-3.99-3.999V21h-3v8h3v-0.001C49.214,28.993,51,27.206,51,25z"/>
	<g>
		<path style="fill:#FBCE9D;" d="M45.486,15c-3.916-0.767-10.018-3-16.872-3c-5.91,0-11.26,1.979-15.132,3    c-0.915,0.241-1.744,0.426-2.482,0.524V30c0,9.941,8.059,18,18,18l0,0c9.941,0,18-8.059,18-18V15.237    C46.541,15.191,46.035,15.108,45.486,15z"/>
	</g>
	<path style="fill:#EA6248;" d="M16.783,24.6c-0.385,0-0.752-0.224-0.917-0.6c-0.221-0.506,0.01-1.095,0.516-1.316   c1.966-0.86,4.458-0.909,6.061-0.117c0.495,0.244,0.698,0.844,0.454,1.339c-0.245,0.495-0.845,0.698-1.339,0.454   c-1.076-0.531-2.957-0.464-4.374,0.156C17.053,24.573,16.917,24.6,16.783,24.6z"/>
	<path style="fill:#366DB6;" d="M19.658,29c-1.059,0-2.003-0.504-2.657-1.418c-0.121-0.169-0.187-0.373-0.187-0.582   c0-1.103,0.875-2,1.95-2c0.552,0,1,0.448,1,1c0,0.399-0.234,0.744-0.572,0.904c0.257,0.114,0.551,0.162,0.869-0.032   c0.471-0.29,1.086-0.14,1.375,0.333c0.288,0.471,0.138,1.086-0.333,1.374C20.646,28.858,20.16,29,19.658,29z"/>
	<path style="fill:#EA6248;" d="M36,24.6c-0.385,0-0.752-0.224-0.917-0.6c-0.221-0.506,0.01-1.095,0.516-1.317   c1.967-0.858,4.458-0.907,6.061-0.116c0.495,0.244,0.698,0.844,0.454,1.339c-0.245,0.494-0.843,0.697-1.339,0.454   c-1.076-0.531-2.956-0.465-4.374,0.156C36.27,24.573,36.134,24.6,36,24.6z"/>
	<path style="fill:#366DB6;" d="M38.875,29c-1.059,0-2.002-0.503-2.657-1.418c-0.121-0.17-0.187-0.374-0.187-0.582   c0-1.103,0.875-2,1.95-2c0.552,0,1,0.448,1,1c0,0.399-0.234,0.743-0.572,0.904c0.257,0.113,0.55,0.162,0.869-0.032   c0.472-0.29,1.087-0.139,1.374,0.333c0.288,0.471,0.139,1.086-0.333,1.374C39.863,28.858,39.377,29,38.875,29z"/>
	<path style="fill:#D3A87D;" d="M29,34c-0.552,0-1-0.448-1-1s0.448-1,1-1c0.552,0,1-0.449,1-1c0-0.322-0.15-0.617-0.41-0.808   c-1.01-0.74-1.59-1.808-1.59-2.929V27c0-0.552,0.448-1,1-1s1,0.448,1,1v0.263c0,0.653,0.484,1.105,0.772,1.316   C31.541,29.143,32,30.048,32,31C32,32.654,30.654,34,29,34z"/>
	<path style="fill:#EA6248;" d="M11.328,38.333c0,0-0.596-1.17-2.328-1.333c-1.792-0.169-3.601,0.741-3.91,2.167   C4.663,41.141,5.538,45,12.367,45c0,0,9.972-0.107,15.524-4.761c0.738-0.619,1.116-1.466,1.109-2.323c0,0,0-0.001,0-0.001   c-0.048-2.418-3.521-3.768-5.936-2.319C19.886,37.504,15.152,40.869,11,41C7.321,41.116,9.455,38.432,11.328,38.333z"/>
	<path style="fill:#EA6248;" d="M46.672,38.333c0,0,0.596-1.17,2.328-1.333c1.792-0.169,3.601,0.741,3.91,2.167   C53.337,41.141,52.462,45,45.633,45c0,0-9.972-0.107-15.524-4.761c-0.738-0.619-1.116-1.466-1.109-2.323c0,0,0-0.001,0-0.001   c0.048-2.418,3.521-3.768,5.936-2.319C38.114,37.504,42.848,40.869,47,41C50.679,41.116,48.545,38.432,46.672,38.333z"/>
	<path style="fill:#4C5E72;" d="M50,15.494c0,3.014-1.689,3.061-4.524,2.506c-3.916-0.767-10.018-3-16.872-3   c-5.91,0-11.26,1.979-15.132,3c-3.87,1.02-6.264,1.082-6.264-2.506C7.208,8.315,16.787,0,28.604,0S50,8.315,50,15.494z"/>
	<path style="fill:#28384C;" d="M10.378,8.016c0.28-0.088,0.58-0.183,0.903-0.286c1.169-0.37,2.204-0.699,2.445-0.763   c0.775-0.204,1.609-0.446,2.494-0.704c2.492-0.724,5.316-1.545,8.389-1.974c0.547-0.076,0.928-0.581,0.852-1.128   c-0.076-0.547-0.581-0.935-1.129-0.852c-3.216,0.448-6.114,1.291-8.671,2.034c-0.694,0.201-1.346,0.388-1.972,0.56   C12.418,5.857,11.312,6.909,10.378,8.016z"/>
	<path style="fill:#28384C;" d="M46.469,7.584c-0.979-1.089-2.146-2.109-3.454-3.036c-3.48-0.953-7.085-1.877-9.407-2.193   c-0.545-0.073-1.051,0.309-1.126,0.856c-0.074,0.547,0.309,1.051,0.856,1.125c2.96,0.403,8.265,1.886,12.527,3.079   C46.07,7.472,46.268,7.528,46.469,7.584z"/>
	<path style="fill:#28384C;" d="M48.9,11.14c-0.328-0.674-0.731-1.34-1.193-1.994c-0.834-0.008-1.619-0.045-2.039-0.127   c-1.031-0.202-2.21-0.506-3.575-0.859C38.367,7.197,33.729,6,28.604,6c-2.094,0-4.281,0.237-6.686,0.725   c-0.541,0.11-0.891,0.638-0.781,1.179c0.11,0.541,0.639,0.892,1.179,0.781C24.588,8.224,26.645,8,28.604,8   c4.872,0,9.373,1.162,12.989,2.096c1.338,0.345,2.602,0.672,3.691,0.885c0.603,0.118,1.712,0.167,2.822,0.167   C48.374,11.148,48.64,11.145,48.9,11.14z"/>
	<path style="fill:#28384C;" d="M49.969,15.112c-0.03-0.658-0.137-1.322-0.319-1.989c-1.304,0.123-2.849,0.118-3.981-0.104   c-1.033-0.202-2.215-0.507-3.583-0.861l-1.185-0.305c-0.534-0.134-1.079,0.187-1.216,0.723c-0.136,0.535,0.187,1.08,0.722,1.216   l1.178,0.303c1.341,0.346,2.607,0.673,3.699,0.887c0.521,0.102,1.634,0.212,2.897,0.212C48.76,15.193,49.369,15.169,49.969,15.112z   "/>
	<path style="fill:#28384C;" d="M34.971,10.562C32.702,10.184,30.619,10,28.604,10c-4.881,0-9.351,1.299-12.942,2.343   c-0.868,0.252-1.685,0.49-2.445,0.69c-2,0.527-4.236,0.565-5.708,0.298c-0.165,0.657-0.269,1.312-0.285,1.959   c0.715,0.13,1.484,0.193,2.262,0.193c1.56,0,3.13-0.224,4.24-0.517c0.775-0.204,1.608-0.446,2.493-0.704   C19.689,13.255,24.008,12,28.604,12c1.904,0,3.879,0.175,6.039,0.535c0.545,0.094,1.06-0.277,1.151-0.822   C35.884,11.168,35.516,10.653,34.971,10.562z"/>
	<path style="fill:#28384C;" d="M17.142,7.916l-1.479,0.426c-0.868,0.252-1.686,0.49-2.447,0.691   c-0.975,0.257-2.489,0.342-3.86,0.324c-0.439,0.644-0.833,1.296-1.143,1.958c0.465,0.026,0.955,0.041,1.454,0.041   c1.492,0,3.038-0.12,4.059-0.39c0.775-0.204,1.609-0.446,2.495-0.704l1.468-0.423c0.531-0.151,0.84-0.704,0.689-1.235   C18.227,8.073,17.675,7.766,17.142,7.916z"/>
</g>

</svg>
