<?xml version="1.0" encoding="iso-8859-1"?>
<!-- Generator: Adobe Illustrator 22.0.0, SVG Export Plug-In . SVG Version: 6.00 Build 0)  -->
<svg xmlns="http://www.w3.org/2000/svg" xmlns:xlink="http://www.w3.org/1999/xlink" version="1.1" x="0px" y="0px" viewBox="0 0 58 58" style="enable-background:new 0 0 58 58;" xml:space="preserve" width="512" height="512">
<g id="_x31_8-Polo">
	<rect x="24" y="43" style="fill:#D3A87D;" width="10" height="8"/>
	<g>
		<path style="fill:#DD352E;" d="M43.63,42.942L37,45l-8,3.428L21,46l-6.63-3.058C6.374,46.896,0,48.213,0,53.442v0.713    c0.548,0.029,1.114,0.482,0.965,1.183c-0.032,0.151-0.465,1.315-0.688,1.455c0.36,0.034,1.764,0.12,2.119,0.174    c1.865,0.282,5.196,1.298,7.037,0.456c0.614-0.281,1.171,0.098,1.373,0.577h36.298c0.004-0.367,0.205-0.709,0.683-0.799    c1.621-0.303,3.211-0.147,4.85-0.089c0.861,0.03,1.724,0.059,2.585,0.035c1.333-0.037,2.2-0.194,1.938-1.809    c-0.103-0.632,0.354-1.065,0.84-1.17v-0.726C58,48.214,51.625,46.896,43.63,42.942z"/>
	</g>
	<path style="fill:#B02721;" d="M41.054,39.297l-12.196,8.989L33.572,53l11.556-11.556C43.812,40.808,42.449,40.105,41.054,39.297z"/>
	<path style="fill:#B02721;" d="M16.946,39.297c-1.387,0.806-2.751,1.508-4.074,2.147L24.428,53l4.714-4.714L16.946,39.297z"/>
	<polygon style="fill:#FBCE9D;" points="11,58 0,58 0,54 10,54  "/>
	<polygon style="fill:#FBCE9D;" points="47,58 58,58 58,54 48,54  "/>
	<path style="fill:#B02721;" d="M10,55c-0.256,0-0.512-0.098-0.707-0.293c-0.391-0.391-0.391-1.023,0-1.414l1-1   c0.391-0.391,1.023-0.391,1.414,0s0.391,1.023,0,1.414l-1,1C10.512,54.902,10.256,55,10,55z"/>
	<path style="fill:#B02721;" d="M48,55c-0.256,0-0.512-0.098-0.707-0.293l-1-1c-0.391-0.391-0.391-1.023,0-1.414   s1.023-0.391,1.414,0l1,1c0.391,0.391,0.391,1.023,0,1.414C48.512,54.902,48.256,55,48,55z"/>
	<path style="fill:#FBCE9D;" d="M44.833,20.622C51,6,28,3,28,3S8,5,13.167,20.622c0,0-3.167-1.586-3.167,3.172   c0,4.7,5.403,14.804,5.535,8.939C15.507,34.434,15.797,46,29,46s13.493-11.566,13.465-13.267C42.597,38.598,48,28.494,48,23.794   C48,19.036,44.833,20.622,44.833,20.622z"/>
	<path style="fill:#895A3F;" d="M23.258,6.078C26.39,5.453,29,5.554,29,5.554S48.792,4.76,44.833,20.622c0,0,0.802-0.401,1.6-0.192   l0.559-3.773c0,0,2.318-8.462-8.227-14.275c-6.946-3.829-12.251-2.26-15.118-0.677c-1.073,0.592-1.922,1.48-2.418,2.552   C21.582,4.443,20.652,5.688,21,6C21.33,6.296,22.938,5.652,23.258,6.078z"/>
	<path style="fill:#6C4127;" d="M13.167,20.622C10.645,10.518,17.757,7.176,23.256,6.078c-4.036-5.385-9.173,0.268-9.173,0.268   c-5.419,5.224-2.908,11.292-1.17,14.174C13.068,20.574,13.167,20.622,13.167,20.622z"/>
	<path style="fill:#D3A87D;" d="M15.99,30.345c-0.256,0-0.512-0.098-0.708-0.293c-1.997-2-1.074-4.866-1.033-4.987   c0.174-0.524,0.741-0.809,1.264-0.633c0.522,0.174,0.806,0.737,0.635,1.259c-0.01,0.032-0.563,1.834,0.549,2.948   c0.39,0.391,0.39,1.024-0.001,1.414C16.501,30.248,16.246,30.345,15.99,30.345z"/>
	<path style="fill:#D3A87D;" d="M42.01,30.345c-0.256,0-0.511-0.098-0.707-0.292c-0.391-0.39-0.391-1.023-0.001-1.414   c1.116-1.118,0.557-2.925,0.551-2.943c-0.174-0.524,0.109-1.09,0.633-1.264c0.524-0.176,1.09,0.109,1.264,0.633   c0.041,0.121,0.963,2.988-1.033,4.987C42.522,30.248,42.267,30.345,42.01,30.345z"/>
	<path style="fill:#895A3F;" d="M24,19c-0.22,0-0.441-0.072-0.626-0.221c-1.287-1.034-3.46-1.034-4.747,0   c-0.429,0.346-1.059,0.279-1.406-0.153c-0.346-0.43-0.278-1.06,0.153-1.406c2.033-1.636,5.22-1.636,7.253,0   c0.431,0.346,0.499,0.976,0.153,1.406C24.582,18.873,24.292,19,24,19z"/>
	<path style="fill:#895A3F;" d="M40,19c-0.22,0-0.441-0.072-0.626-0.221c-1.287-1.034-3.46-1.034-4.747,0   c-0.429,0.346-1.059,0.279-1.406-0.153c-0.346-0.43-0.278-1.06,0.153-1.406c2.033-1.636,5.22-1.636,7.253,0   c0.431,0.346,0.499,0.976,0.153,1.406C40.582,18.873,40.292,19,40,19z"/>
	<path style="fill:#366DB6;" d="M21.027,24c-1.087,0-2.06-0.497-2.739-1.398c-0.13-0.173-0.201-0.384-0.201-0.602   c0-1.103,0.897-2,2-2c0.552,0,1,0.448,1,1c0,0.399-0.233,0.743-0.571,0.904c0.292,0.117,0.631,0.159,0.984-0.044   c0.478-0.277,1.09-0.113,1.366,0.364c0.277,0.478,0.114,1.089-0.364,1.366C22.032,23.863,21.536,24,21.027,24z"/>
	<path style="fill:#366DB6;" d="M37,24c-1.087,0-2.06-0.497-2.739-1.398C34.13,22.428,34.06,22.217,34.06,22c0-1.103,0.897-2,2-2   c0.552,0,1,0.448,1,1c0,0.399-0.233,0.743-0.571,0.904c0.292,0.117,0.631,0.159,0.984-0.044c0.478-0.277,1.09-0.113,1.366,0.364   c0.277,0.478,0.114,1.089-0.364,1.366C38.005,23.863,37.509,24,37,24z"/>
	<path style="fill:#D3A87D;" d="M29,30.995c-0.552,0-1-0.448-1-1s0.448-1,1-1c0.551,0,1-0.449,1-1c0-0.322-0.149-0.617-0.41-0.808   C28.58,26.446,28,25.379,28,24.258v-0.262c0-0.552,0.448-1,1-1s1,0.448,1,1v0.262c0,0.653,0.484,1.105,0.772,1.317   C31.541,26.137,32,27.043,32,27.995C32,29.65,30.654,30.995,29,30.995z"/>
	<path style="fill:#D3A87D;" d="M30,42h-2c-0.552,0-1-0.448-1-1s0.448-1,1-1h2c0.552,0,1,0.448,1,1S30.552,42,30,42z"/>
	<path style="fill:#EA6248;" d="M32,39h-6c-0.552,0-1-0.448-1-1s0.448-1,1-1h6c0.552,0,1,0.448,1,1S32.552,39,32,39z"/>
</g>

</svg>
