<?xml version="1.0" encoding="iso-8859-1"?>
<!-- Generator: Adobe Illustrator 22.0.0, SVG Export Plug-In . SVG Version: 6.00 Build 0)  -->
<svg xmlns="http://www.w3.org/2000/svg" xmlns:xlink="http://www.w3.org/1999/xlink" version="1.1" x="0px" y="0px" viewBox="0 0 58 58" style="enable-background:new 0 0 58 58;" xml:space="preserve" width="512" height="512">
<g id="_x31_9-Suit">
	<g>
		<path style="fill:#D3A87D;" d="M17,28.584c-0.454-2.882-0.683-5.797-0.683-8.716L12,18l-1.535,0.424    c-1.523,0-2.681,1.367-2.431,2.87L9.152,28c0.233,1.399,0.888,2,2.306,2h1.448L17,28.584z"/>
	</g>
	<g>
		<path style="fill:#D3A87D;" d="M41,28.584c0.454-2.882,0.683-5.797,0.683-8.716L46,18l1.535,0.424c1.523,0,2.681,1.367,2.431,2.87    L48.848,28c-0.233,1.399-0.888,2-2.306,2h-1.448L41,28.584z"/>
	</g>
	<path style="fill:#366DB6;" d="M43.63,42.942l-4.609-2.502H18.979l-4.609,2.502C6.374,46.896,0,48.214,0,53.442V58h29h29v-4.558   C58,48.214,51.625,46.896,43.63,42.942z"/>
	<path style="fill:#CCD2D6;" d="M35.975,42.496c-3.343,4.676-10.712,4.669-13.95,0c-1.133-0.555-2.132-1.249-3.025-2.037V58h10h10   V40.459C38.107,41.246,37.108,41.941,35.975,42.496z"/>
	<polygon style="fill:#1F436D;" points="11,53 15,58 19,58 19,41  "/>
	<polygon style="fill:#1F436D;" points="47,53 43,58 39,58 39,41  "/>
	<path style="fill:#DD352E;" d="M29,50c-0.968,0-1.898,2.901-2.783,2.73L25,58h8l-1.217-5.269C30.898,52.902,29.968,50,29,50z"/>
	<path style="fill:#B02721;" d="M29,46l-3.67,2.202L25,52.446C26.228,52.802,27.578,53,29,53c1.423,0,2.772-0.198,4-0.554   l-0.33-4.244L29,46z"/>
	<path style="fill:#E7ECED;" d="M35.975,42.496c-1.663,2.326-4.323,3.491-6.975,3.502V46l10,6v-8v-1.487V41v-0.541   C38.107,41.246,37.108,41.941,35.975,42.496z"/>
	<path style="fill:#E7ECED;" d="M22.025,42.496c-1.133-0.555-2.132-1.249-3.025-2.037V41v1.513V44v8l10-6v-0.002   C26.322,46.009,23.652,44.842,22.025,42.496z"/>
	<path style="fill:#FBCE9D;" d="M27.381,46c-2.491,0-4.718-1.006-6.479-2.796l-4.89-4.969c-1.413-1.435-2.338-3.291-2.642-5.298   l-0.686-4.353C12.228,25.702,12,22.788,12,19.868v-4.813C12,6.733,18.517,0,26.571,0l4.857,0C39.483,0,46,6.733,46,15.055v4.813   c0,2.92-0.228,5.835-0.683,8.716l-0.686,4.353c-0.304,2.006-1.229,3.862-2.642,5.298l-4.89,4.969C35.337,44.994,33.11,46,30.619,46   H27.381z"/>
	<path style="fill:#D3A87D;" d="M28.19,33c-0.552,0-1-0.448-1-1s0.448-1,1-1c0.788,0,1.429-0.552,1.429-1.23   c0-0.38-0.202-0.734-0.553-0.97c-1.192-0.803-1.876-1.968-1.876-3.197v-0.293c0-0.552,0.448-1,1-1s1,0.448,1,1v0.293   c0,0.757,0.622,1.289,0.993,1.538c0.899,0.605,1.436,1.588,1.436,2.629C31.619,31.551,30.081,33,28.19,33z"/>
	<path style="fill:#D3A87D;" d="M29.81,42H28.19c-0.552,0-1-0.448-1-1s0.448-1,1-1h1.619c0.552,0,1,0.448,1,1S30.362,42,29.81,42z"/>
	<path style="fill:#EA6248;" d="M31.428,39h-4.857c-0.552,0-1-0.448-1-1s0.448-1,1-1h4.857c0.552,0,1,0.448,1,1S31.98,39,31.428,39z   "/>
	<path style="fill:#FFFFFF;" d="M12.03,22.333c-0.291-2.6,1.566-4.932,4.04-5.209c2.143-0.239,4.846-0.462,6.96-0.379   c1.635,0.064,2.945,1.521,3.009,3.336l0.115,3.263c0.085,2.409-1.562,4.462-3.727,4.645l-5.112,0.432   c-2.057,0.174-4-1.117-4.655-3.176C12.386,24.378,12.149,23.39,12.03,22.333z"/>
	<path style="fill:#FFFFFF;" d="M45.97,22.333c0.291-2.6-1.566-4.932-4.04-5.209c-2.143-0.239-4.846-0.462-6.96-0.379   c-1.635,0.064-2.945,1.521-3.009,3.336l-0.115,3.263c-0.085,2.409,1.562,4.462,3.727,4.645l5.112,0.432   c2.057,0.174,4-1.117,4.655-3.176C45.614,24.378,45.851,23.39,45.97,22.333z"/>
	<path style="fill:#AFB6BB;" d="M26.079,22.177c-0.367,0-0.72-0.203-0.896-0.553c-0.247-0.494-0.046-1.094,0.448-1.341l0.71-0.355   c1.684-0.841,3.623-0.856,5.318-0.044l0.697,0.335c0.498,0.239,0.708,0.836,0.468,1.334c-0.239,0.498-0.837,0.708-1.334,0.468   l-0.696-0.334c-1.133-0.544-2.431-0.533-3.559,0.03l-0.71,0.355C26.382,22.143,26.229,22.177,26.079,22.177z"/>
	<path style="fill:#28384C;" d="M41.965,4.669c-0.004,0.256-0.013,0.509-0.013,0.768c0,4.944,0.713,9.358,1.834,12.344   c1.186,0.743,2.015,2.023,2.179,3.484c0.002,0.002,0.004,0.004,0.006,0.006C45.984,20.803,46,20.335,46,19.868v-4.813   C46,11.021,44.46,7.37,41.965,4.669z"/>
	<path style="fill:#28384C;" d="M12.034,21.264c0.164-1.461,0.993-2.741,2.179-3.484c1.121-2.986,1.835-7.4,1.835-12.344   c0-0.259-0.009-0.511-0.013-0.768C13.54,7.37,12,11.021,12,15.055v4.813c0,0.467,0.016,0.935,0.027,1.402   C12.029,21.268,12.032,21.266,12.034,21.264z"/>
	<path style="fill:#28384C;" d="M23.409,22.273c-0.239,0-0.479-0.085-0.67-0.258L21.615,21H19c-0.552,0-1-0.448-1-1s0.448-1,1-1h3   c0.248,0,0.487,0.092,0.67,0.258l1.409,1.273c0.41,0.37,0.442,1.002,0.071,1.412C23.954,22.162,23.682,22.273,23.409,22.273z"/>
	<path style="fill:#6C4127;" d="M21.027,26c-1.087,0-2.06-0.497-2.739-1.398c-0.13-0.173-0.201-0.384-0.201-0.602   c0-1.103,0.897-2,2-2c0.552,0,1,0.448,1,1c0,0.399-0.233,0.743-0.571,0.904c0.292,0.117,0.633,0.16,0.984-0.043   c0.479-0.276,1.09-0.114,1.366,0.364c0.277,0.478,0.114,1.089-0.364,1.366C22.032,25.862,21.537,26,21.027,26z"/>
	<path style="fill:#28384C;" d="M34.41,22.273c-0.273,0-0.545-0.111-0.742-0.33c-0.371-0.41-0.338-1.042,0.071-1.412l1.409-1.273   C35.332,19.092,35.571,19,35.818,19h3c0.552,0,1,0.448,1,1s-0.448,1-1,1h-2.615l-1.124,1.015   C34.888,22.188,34.648,22.273,34.41,22.273z"/>
	<path style="fill:#6C4127;" d="M38.027,26c-1.087,0-2.06-0.497-2.739-1.398c-0.13-0.173-0.201-0.384-0.201-0.602   c0-1.103,0.897-2,2-2c0.552,0,1,0.448,1,1c0,0.399-0.233,0.743-0.571,0.904c0.292,0.117,0.632,0.16,0.984-0.043   c0.478-0.276,1.09-0.114,1.366,0.364c0.277,0.478,0.114,1.089-0.364,1.366C39.032,25.862,38.537,26,38.027,26z"/>
	<path style="fill:#28384C;" d="M29,10c-0.097,0-0.194-0.014-0.29-0.043C28.289,9.83,28,9.44,28,9V5c0-0.552,0.448-1,1-1   s1,0.448,1,1v1.624C31.135,5.796,32.799,5,35,5c0.552,0,1,0.448,1,1s-0.448,1-1,1c-3.425,0-5.151,2.529-5.168,2.555   C29.643,9.838,29.328,10,29,10z"/>
</g>

</svg>
