<?xml version="1.0" encoding="iso-8859-1"?>
<!-- Generator: Adobe Illustrator 19.0.0, SVG Export Plug-In . SVG Version: 6.00 Build 0)  -->
<svg version="1.1" id="Capa_1" xmlns="http://www.w3.org/2000/svg" xmlns:xlink="http://www.w3.org/1999/xlink" x="0px" y="0px"
	 viewBox="0 0 512.016 512.016" style="enable-background:new 0 0 512.016 512.016;" xml:space="preserve">
<circle style="fill:#8CC63E;" cx="256.008" cy="249.008" r="249.008"/>
<g>
	<path style="fill:#7FB239;" d="M505.016,249.008c0,137.584-111.504,249.008-249.008,249.008c-78.288,0-148.16-36.112-193.84-92.672
		c42.72,34.544,97.12,55.168,156.336,55.168c137.504,0,249.008-111.44,249.008-249.008c0-59.216-20.624-113.616-55.168-156.336
		C468.84,100.832,505.016,170.72,505.016,249.008z"/>
	<path style="fill:#7FB239;" d="M247.288,214.64c0,50.608-41.008,91.6-91.6,91.6s-91.6-41.008-91.6-91.6
		c0-50.448,41.008-91.456,91.6-91.456C206.296,123.184,247.288,164.176,247.288,214.64z"/>
</g>
<path style="fill:#E24B4B;" d="M226.76,214.64c0,39.296-31.776,71.2-71.056,71.2c-39.296,0-71.2-31.92-71.2-71.2
	c0-39.152,31.92-71.072,71.2-71.072S226.76,175.488,226.76,214.64z"/>
<circle style="fill:#3E4347;" cx="155.64" cy="214.688" r="38.064"/>
<path style="fill:#FFFFFF;" d="M176.376,207.728c-2.368,2.496-7.616,1.584-11.424-2.224s-4.848-9.184-2.368-11.68
	c2.624-2.496,7.872-1.44,11.68,2.368C178.088,199.984,179,205.232,176.376,207.728z"/>
<g>
	<path style="fill:#7FB239;" d="M234.312,178.608c-13.2-30.288-43.408-51.52-78.624-51.52s-65.424,21.232-78.624,51.52
		C128.296,185.984,180.712,185.968,234.312,178.608z"/>
	<path style="fill:#7FB239;" d="M447.928,214.64c0,50.608-41.008,91.6-91.6,91.6s-91.6-41.008-91.6-91.6
		c0-50.448,41.008-91.456,91.6-91.456C406.92,123.184,447.928,164.176,447.928,214.64z"/>
</g>
<path style="fill:#E24B4B;" d="M427.384,214.64c0,39.296-31.776,71.2-71.056,71.2c-39.296,0-71.2-31.92-71.2-71.2
	c0-39.152,31.92-71.072,71.2-71.072S427.384,175.488,427.384,214.64z"/>
<circle style="fill:#3E4347;" cx="356.264" cy="214.688" r="38.064"/>
<path style="fill:#FFFFFF;" d="M377,207.728c-2.368,2.496-7.616,1.584-11.408-2.224c-3.808-3.808-4.848-9.184-2.368-11.68
	c2.624-2.496,7.872-1.44,11.68,2.368C378.712,199.984,379.624,205.232,377,207.728z"/>
<path style="fill:#7FB239;" d="M434.952,178.608c-13.2-30.288-43.408-51.52-78.624-51.52s-65.424,21.232-78.624,51.52
	C328.92,185.984,381.336,185.968,434.952,178.608z"/>
<path style="fill:#3E4347;" d="M338.536,394.384c1.248,9.504-6.224,18.048-15.872,18.048H164.456c-9.648,0-17.12-8.56-15.872-18.048
	l9.024-68.32c1.088-7.936,7.936-13.856,15.872-13.856h140.16c7.936,0,14.784,5.904,15.872,13.856L338.536,394.384z"/>
<g>
	<path style="fill:#E24B4B;" d="M237.08,478.896c-8.336,0.144-19.472-26.64-27.68-22.72s-4,13.76-3.2,21.76
		c1.44,17.12-20.8,17.6-20.8-7.2c0-11.04-11.68-47.36-11.68-23.68v51.52c0,19.36-20.8,14.88-20.8,4.8
		c-0.16-11.52-2.24-96.16,2.08-109.92c6.08-18.4,32.8-14.08,54.72-8.16c7.2,1.92,12.48-0.48,18.24-3.36
		c5.92,7.04,7.84,17.28,7.36,26.56C234.84,419.056,243.752,478.032,237.08,478.896z"/>
	<path style="fill:#E24B4B;" d="M323.48,462.416c-5.92,1.28-12.16-0.48-18.08,0c-9.12,0.8-16.16,11.36-24,16.16
		c-4.64,2.72-10.72-0.32-11.36-5.76c-2.24-17.76-3.36-55.2-9.12-59.2c-1.28-0.96-3.04-1.76-4.48-0.96c-1.76,0.96-1.76,3.36-1.6,5.28
		c0.8,7.2,1.44,14.56,2.24,21.76c0.16,2.4,0.48,4.96-0.16,7.2c-0.64,2.4-2.4,4.48-4.8,4.96c-2.56,0.48-4.96-1.12-6.4-3.2
		s-1.92-4.64-2.4-7.04c-2.72-14.72-4.16-29.6-4.64-44.48c0-3.2-0.16-6.56-0.96-9.6c-0.64-1.76-2.08-5.6-3.84-8.64
		c0.32-0.16,0.48-0.32,0.8-0.48c19.36-9.44,19.84,19.68,31.68,2.08c16-24,24.48-0.32,40.16,4.336c8.32,2.24,17.6-1.6,25.92,1.12
		C355.48,393.936,350.68,457.136,323.48,462.416z"/>
</g>
<g>
	<polygon style="fill:#FFFFFF;" points="313.336,346.688 305.128,352.32 292.808,350.704 286.984,343.344 283.672,328.592 
		310.296,325.408 	"/>
	<polygon style="fill:#FFFFFF;" points="248.024,343.312 253.304,349.776 267,353.088 272.824,345.728 276.104,328.592 
		249.48,325.408 	"/>
	<path style="fill:#FFFFFF;" d="M239.672,342.928c-2.016,2.848-4.24,6.304-6.256,9.152c-5.44,0.784-8.528-0.528-13.584-0.832
		c-2.224-2.528-4.24-4.576-5.84-6.784c-0.8-4.88-1.808-10.256-2.416-14.976l27.888-5.008
		C239.48,329.52,239.672,336.624,239.672,342.928z"/>
	<polygon style="fill:#FFFFFF;" points="204.6,327.792 199.704,349.328 193.656,353.616 179.832,352.336 173.768,348.992 
		176.648,329.04 	"/>
	<polygon style="fill:#FFFFFF;" points="173.768,380 181.992,374.896 194.312,376.352 200.12,383.04 203.448,396.432 
		176.824,399.328 	"/>
	<polygon style="fill:#FFFFFF;" points="239.08,383.072 233.816,377.2 220.12,374.208 214.296,380.88 211.016,396.432 
		237.624,399.328 	"/>
	<path style="fill:#FFFFFF;" d="M247.432,383.424c2.016-2.576,4.24-5.728,6.256-8.304c5.44-0.72,8.528,0.48,13.584,0.768
		c2.224,2.288,4.24,4.16,5.856,6.16c0.8,4.432,1.808,9.312,2.416,13.6l-27.888,4.544C247.64,395.6,247.448,389.152,247.432,383.424z
		"/>
	<polygon style="fill:#FFFFFF;" points="282.504,397.152 287.416,377.616 293.464,373.728 307.288,374.896 313.336,377.92 
		310.456,396.032 	"/>
</g>
<g>
</g>
<g>
</g>
<g>
</g>
<g>
</g>
<g>
</g>
<g>
</g>
<g>
</g>
<g>
</g>
<g>
</g>
<g>
</g>
<g>
</g>
<g>
</g>
<g>
</g>
<g>
</g>
<g>
</g>
</svg>
