<?xml version="1.0" encoding="iso-8859-1"?>
<!-- Generator: Adobe Illustrator 22.0.0, SVG Export Plug-In . SVG Version: 6.00 Build 0)  -->
<svg xmlns="http://www.w3.org/2000/svg" xmlns:xlink="http://www.w3.org/1999/xlink" version="1.1" x="0px" y="0px" viewBox="0 0 59 58" style="enable-background:new 0 0 59 58;" xml:space="preserve" width="512" height="512">
<g id="_x32_-Hoodie">
	<path style="fill:#E7ECED;" d="M47.41,49.838c-0.673-0.045-1.464-0.301-2.403-0.838l-5.308-3.852   c0.192-0.123,0.367-0.269,0.555-0.4C37.339,46.782,33.814,48,29.99,48c-3.604,0-6.947-1.078-9.76-2.905L14.993,49   c-0.956,0.547-1.758,0.801-2.438,0.839C8.812,52.182,2.524,54.924,1,58h58C57.476,54.924,51.147,52.181,47.41,49.838z"/>
	<g>
		<path style="fill:#D6D6D6;" d="M12.151,32.22C12.82,37.651,19.603,38.178,24,41l2.225,8.29C26.711,49.629,27,50.185,27,50.777    v0.003c0,1.148-1.052,2.008-2.177,1.778c-1.387-0.283-3.093-0.659-4.03-0.971c-2.222-0.738-5.799-2.586-5.8-2.587    C8,53,9,41.781,9,39C9,36.432,10.222,34.117,12.151,32.22z"/>
	</g>
	<g>
		<path style="fill:#D6D6D6;" d="M47.849,32.22C47.18,37.651,39.397,40.178,35,43l-1.225,6.29C33.289,49.629,33,50.185,33,50.777    v0.003c0,1.148,1.052,2.008,2.177,1.778c1.387-0.283,3.093-0.659,4.03-0.971c2.222-0.738,5.799-2.586,5.8-2.587    C52,53,51,41.781,51,39C51,36.432,49.778,34.117,47.849,32.22z"/>
	</g>
	<path style="fill:#EDB883;" d="M30,42c-3.191,0-6.185,5.153-8.779,3.692c-0.009,0.026-0.021,0.05-0.03,0.076l5.034,3.522   C26.711,49.629,27,50.184,27,50.777c0,0.707-0.4,1.301-0.968,1.603C27.23,52.773,28.574,55,30,55c1.425,0,2.767-2.227,3.965-2.62   C33.398,52.078,33,51.485,33,50.78v-0.003c0-0.592,0.289-1.148,0.775-1.487l5.034-3.52c-0.01-0.031-0.024-0.06-0.035-0.09   C36.175,47.146,33.198,42,30,42z"/>
	<path style="fill:#D3A87D;" d="M12,29h1v-8h-1c-2.209,0-4,1.791-4,4C8,27.209,9.791,29,12,29z"/>
	<path style="fill:#D3A87D;" d="M48,21h-1v8h1c2.209,0,4-1.791,4-4C52,22.791,50.209,21,48,21z"/>
	<path style="fill:#1F436D;" d="M13,18H1c-0.552,0-1-0.448-1-1s0.448-1,1-1h12c0.552,0,1,0.448,1,1S13.552,18,13,18z"/>
	<path style="fill:#FBCE9D;" d="M12.051,16C12.032,16.333,12,30,12,30c0,9.941,8.059,18,18,18l0,0c9.941,0,18-8.059,18-18   c0,0-0.032-13.667-0.051-14H12.051z"/>
	<path style="fill:#D3A87D;" d="M30,36.029c-2.206,0-4-1.476-4-3.291c0-0.986,0.523-1.909,1.435-2.533   c0.456-0.311,1.079-0.194,1.39,0.261c0.312,0.456,0.195,1.078-0.261,1.39C28.206,32.102,28,32.423,28,32.738   c0,0.688,0.935,1.291,2,1.291s2-0.603,2-1.291c0-0.433-0.355-0.739-0.566-0.883c-0.456-0.311-0.574-0.933-0.263-1.389   c0.311-0.457,0.933-0.575,1.39-0.263C33.475,30.826,34,31.75,34,32.738C34,34.553,32.206,36.029,30,36.029z"/>
	<path style="fill:#BE6E41;" d="M17.509,24.6c-0.392,0-0.764-0.232-0.924-0.617c-0.212-0.51,0.03-1.095,0.54-1.307   c2.046-0.85,4.637-0.897,6.3-0.118c0.5,0.234,0.715,0.83,0.481,1.33c-0.234,0.5-0.83,0.716-1.33,0.48   c-1.155-0.541-3.168-0.475-4.684,0.154C17.766,24.575,17.636,24.6,17.509,24.6z"/>
	<path style="fill:#366DB6;" d="M21.027,29c-1.088,0-2.06-0.497-2.739-1.398c-0.13-0.173-0.201-0.385-0.201-0.602   c0-1.103,0.897-2,2-2c0.552,0,1,0.448,1,1c0,0.399-0.233,0.743-0.571,0.904c0.292,0.118,0.633,0.16,0.983-0.043   c0.478-0.277,1.09-0.114,1.367,0.364c0.277,0.478,0.114,1.09-0.364,1.367C22.033,28.862,21.537,29,21.027,29z"/>
	<path style="fill:#BE6E41;" d="M37,24.6c-0.392,0-0.764-0.232-0.924-0.617c-0.212-0.51,0.03-1.095,0.54-1.307   c2.046-0.85,4.637-0.897,6.3-0.118c0.5,0.234,0.715,0.83,0.481,1.33c-0.234,0.5-0.83,0.716-1.33,0.48   c-1.154-0.541-3.168-0.475-4.684,0.154C37.258,24.575,37.128,24.6,37,24.6z"/>
	<path style="fill:#366DB6;" d="M40.519,29c-1.088,0-2.06-0.497-2.739-1.398c-0.13-0.173-0.201-0.385-0.201-0.602   c0-1.103,0.897-2,2-2c0.552,0,1,0.448,1,1c0,0.399-0.233,0.743-0.571,0.904c0.292,0.118,0.633,0.16,0.983-0.043   c0.478-0.277,1.089-0.114,1.367,0.364c0.277,0.478,0.114,1.09-0.364,1.367C41.525,28.862,41.029,29,40.519,29z"/>
	<path style="fill:#D3A87D;" d="M31,45h-2c-0.552,0-1-0.448-1-1s0.448-1,1-1h2c0.552,0,1,0.448,1,1S31.552,45,31,45z"/>
	<path style="fill:#EA6248;" d="M27.94,41.932c-0.395,0-0.791-0.021-1.188-0.064c-0.549-0.059-0.947-0.552-0.888-1.101   c0.059-0.549,0.556-0.948,1.101-0.888c2.724,0.292,5.393-0.652,7.328-2.587c0.391-0.391,1.024-0.391,1.414,0   c0.391,0.391,0.391,1.023,0,1.414C33.624,40.79,30.844,41.932,27.94,41.932z"/>
	<path style="fill:#839594;" d="M24,56c-0.552,0-1-0.448-1-1v-4c0-0.552,0.448-1,1-1s1,0.448,1,1v4C25,55.552,24.552,56,24,56z"/>
	<path style="fill:#839594;" d="M36,56c-0.552,0-1-0.448-1-1v-4c0-0.552,0.448-1,1-1s1,0.448,1,1v4C37,55.552,36.552,56,36,56z"/>
	<path style="fill:#366DB6;" d="M34.091,0h-8.182C18.227,0,12,6.573,12,14.682V17h12.447c0.068-0.75,0.582-1.446,1.553-1.435   c3.89,0.044,7.833,0.635,11.694-0.067c1.116-0.203,1.877,0.637,2.009,1.502H48v-2.318C48,6.573,41.773,0,34.091,0z"/>
	<path style="fill:#1F436D;" d="M34.341,0h-5.682C23.324,0,19,6.573,19,14.682V17h5.192c0.044-0.774,0.56-1.509,1.558-1.497   c4.17,0.051,8.434,0.008,12.594,0.25c0.839,0.049,1.334,0.608,1.497,1.247H44v-2.318C44,6.573,39.676,0,34.341,0z"/>
	<path style="fill:#BE6E41;" d="M40,15H24v-3c0-2.209,1.791-4,4-4h8c2.209,0,4,1.791,4,4V15z"/>
	<rect x="24" y="13" style="fill:#FFFFFF;" width="16" height="4"/>
</g>

</svg>
