<?xml version="1.0" encoding="iso-8859-1"?>
<!-- Generator: Adobe Illustrator 19.0.0, SVG Export Plug-In . SVG Version: 6.00 Build 0)  -->
<svg version="1.1" id="Capa_1" xmlns="http://www.w3.org/2000/svg" xmlns:xlink="http://www.w3.org/1999/xlink" x="0px" y="0px"
	 viewBox="0 0 512 512" style="enable-background:new 0 0 512 512;" xml:space="preserve">
<path style="fill:#8CC63E;" d="M512,256c0,141.44-114.72,256-256,256C114.56,512,0,397.44,0,256C0,114.72,114.56,0,256,0
	C397.28,0,512,114.72,512,256z"/>
<path style="fill:#7FB239;" d="M512,256c0,141.44-114.72,256-256,256c-80.64,0-152.64-37.28-199.36-95.52
	c43.84,35.2,99.36,56.16,160,56.16c141.28,0,256-114.56,256-256c0-60.64-20.96-116.16-56.32-160C474.72,103.52,512,175.36,512,256z"
	/>
<path style="fill:#3E4347;" d="M214.864,213.728c0,24.784-16.016,44.832-35.504,44.832c-19.632,0-35.504-20.048-35.504-44.832
	s15.872-44.832,35.504-44.832C198.864,168.912,214.864,188.96,214.864,213.728z"/>
<path style="fill:#7FB239;" d="M104.416,178.256c-5.152,0-9.632-3.824-10.304-9.072c-0.736-5.696,3.28-10.912,8.992-11.632
	c62.928-8.128,87.04-54.32,88.048-56.288c2.592-5.104,8.864-7.152,13.952-4.608c5.12,2.576,7.2,8.784,4.64,13.92
	c-1.168,2.352-29.712,58-103.984,67.6C105.312,178.224,104.848,178.256,104.416,178.256z"/>
<path style="fill:#5A5F63;" d="M199.84,203.632c-3.04,1.584-7.264-0.976-9.712-5.52s-2.128-9.568,0.752-11.152
	c2.896-1.44,7.264,0.976,9.712,5.52C203.056,197.024,202.736,202.032,199.84,203.632z"/>
<g>
	<path style="fill:#7FB239;" d="M406.448,178.256c5.152,0,9.632-3.824,10.304-9.072c0.736-5.696-3.28-10.912-8.992-11.632
		c-62.928-8.128-87.04-54.32-88.048-56.288c-2.592-5.104-8.864-7.152-13.952-4.608c-5.12,2.576-7.2,8.784-4.64,13.92
		c1.168,2.352,29.712,58,103.984,67.6C405.552,178.224,406,178.256,406.448,178.256z"/>
	<path style="fill:#7FB239;" d="M135.152,352.32c6.24,17.92,1.44,36-10.88,40.32c-12.16,4.16-27.2-6.72-33.44-24.64
		c-6.4-17.92-1.44-35.84,10.72-40.16C113.872,323.52,128.752,334.56,135.152,352.32z"/>
	<path style="fill:#7FB239;" d="M420.112,368c-6.4,17.92-21.28,28.8-33.6,24.64c-12.16-4.32-17.12-22.4-10.72-40.32
		c6.24-17.76,21.28-28.8,33.44-24.48C421.552,332.16,426.352,350.08,420.112,368z"/>
</g>
<g>
	<path style="fill:#3E4347;" d="M304.16,384c9.872,4.192,18.288-10.704,11.808-20.784c-14.24-22.112-36.112-36.32-60.816-36.32
		c-23.424,0-44.288,12.768-58.544,32.944c-7.424,10.528,0.848,26.016,11.552,21.52C239.168,368.32,271.216,370.016,304.16,384z"/>
	<path style="fill:#3E4347;" d="M309.856,405.072c-7.216-14.352-7.6-32.208-1.04-48.992c8-20.432,25.168-35.28,43.76-37.808
		c4.368-0.56,8.4,2.464,9.008,6.848c0.592,4.384-2.464,8.4-6.848,9.008c-12.928,1.76-25.088,12.672-31.008,27.776
		c-4.848,12.384-4.672,25.824,0.432,35.984c1.984,3.952,0.384,8.752-3.552,10.736C316.688,410.592,311.856,409.056,309.856,405.072z
		"/>
	<path style="fill:#3E4347;" d="M191.408,408.624c-3.952-1.984-5.536-6.8-3.552-10.736c5.104-10.16,5.28-23.6,0.432-35.984
		c-5.92-15.104-18.08-26.016-31.008-27.776c-4.384-0.608-7.44-4.624-6.848-9.008s4.592-7.392,9.008-6.848
		c18.592,2.528,35.76,17.36,43.76,37.808c6.56,16.784,6.176,34.64-1.04,48.992C200.144,409.056,195.312,410.592,191.408,408.624z"/>
	<path style="fill:#3E4347;" d="M366.992,213.728c0,24.784-16.016,44.832-35.504,44.832c-19.632,0-35.504-20.048-35.504-44.832
		s15.872-44.832,35.504-44.832C350.976,168.912,366.992,188.96,366.992,213.728z"/>
</g>
<path style="fill:#5A5F63;" d="M351.968,203.632c-3.024,1.584-7.264-0.976-9.712-5.52s-2.128-9.568,0.768-11.152
	c2.896-1.44,7.264,0.976,9.712,5.52S354.864,202.032,351.968,203.632z"/>
<g>
</g>
<g>
</g>
<g>
</g>
<g>
</g>
<g>
</g>
<g>
</g>
<g>
</g>
<g>
</g>
<g>
</g>
<g>
</g>
<g>
</g>
<g>
</g>
<g>
</g>
<g>
</g>
<g>
</g>
</svg>
