<?xml version="1.0" encoding="iso-8859-1"?>
<!-- Generator: Adobe Illustrator 19.0.0, SVG Export Plug-In . SVG Version: 6.00 Build 0)  -->
<svg version="1.1" id="Capa_1" xmlns="http://www.w3.org/2000/svg" xmlns:xlink="http://www.w3.org/1999/xlink" x="0px" y="0px"
	 viewBox="0 0 512 512" style="enable-background:new 0 0 512 512;" xml:space="preserve">
<path style="fill:#8CC63E;" d="M512,256c0,141.44-114.72,256-256,256C114.56,512,0,397.44,0,256C0,114.72,114.56,0,256,0
	C397.28,0,512,114.72,512,256z"/>
<path style="fill:#3E4347;" d="M256.016,424.192c-33.952,0-66.672-15.04-94.624-43.52c-6.192-6.32-6.096-16.448,0.208-22.64
	c6.272-6.192,16.4-6.096,22.624,0.208c43.584,44.4,99.952,44.416,143.536,0c6.208-6.336,16.336-6.4,22.624-0.224
	c6.32,6.192,6.4,16.32,0.224,22.624C322.672,409.136,289.952,424.192,256.016,424.192z"/>
<path style="fill:#7FB239;" d="M512,256c0,141.44-114.72,256-256,256c-80.64,0-152.64-37.28-199.36-95.52
	c43.84,35.2,99.36,56.16,160,56.16c141.28,0,256-114.56,256-256c0-60.64-20.96-116.16-56.32-160C474.72,103.52,512,175.36,512,256z"
	/>
<path style="fill:#3E4347;" d="M401.472,211.056c1.504,26.4-5.104,48.976-18.928,65.712c-13.584,16.512-33.888,26.976-59.68,29.92
	c-19.52,1.984-39.376-15.392-40.752-35.536c-3.392-52.96,27.104-90.112,78.496-95.504
	C380.368,173.664,400.336,190.912,401.472,211.056z"/>
<path style="fill:#5A5F63;" d="M330.672,211.248c2.4,4.432,10.8,4.464,18.688,0.048c7.872-4.56,12.208-11.728,9.68-16.016
	c-2.544-4.432-10.944-4.448-18.688-0.048C332.464,199.648,328.128,206.816,330.672,211.248z"/>
<path style="fill:#3E4347;" d="M110.544,211.056c-1.52,26.4,5.104,48.976,18.928,65.712c13.584,16.512,33.888,26.976,59.68,29.92
	c19.52,1.984,39.376-15.392,40.752-35.536c3.392-52.96-27.104-90.112-78.496-95.504
	C131.632,173.664,111.664,190.912,110.544,211.056z"/>
<path style="fill:#5A5F63;" d="M181.328,211.248c-2.4,4.432-10.8,4.464-18.688,0.048c-7.872-4.56-12.208-11.728-9.68-16.016
	c2.544-4.432,10.944-4.448,18.688-0.048C179.536,199.648,183.872,206.816,181.328,211.248z"/>
<g>
</g>
<g>
</g>
<g>
</g>
<g>
</g>
<g>
</g>
<g>
</g>
<g>
</g>
<g>
</g>
<g>
</g>
<g>
</g>
<g>
</g>
<g>
</g>
<g>
</g>
<g>
</g>
<g>
</g>
</svg>
