<?xml version="1.0" encoding="iso-8859-1"?>
<!-- Generator: Adobe Illustrator 22.0.0, SVG Export Plug-In . SVG Version: 6.00 Build 0)  -->
<svg xmlns="http://www.w3.org/2000/svg" xmlns:xlink="http://www.w3.org/1999/xlink" version="1.1" x="0px" y="0px" viewBox="0 0 58 58" style="enable-background:new 0 0 58 58;" xml:space="preserve" width="512" height="512">
<g id="_x32_0-Casual">
	<path style="fill:#61B872;" d="M43.63,42.942l-4.384-2.38H18.754l-4.384,2.38C6.374,46.896,0,48.213,0,53.442V58h29h29v-4.558   C58,48.214,51.625,46.896,43.63,42.942z"/>
	<g>
		<path style="fill:#FBCE9D;" d="M42.294,18.588c-3.894-1.277-6.316-3.447-7.797-5.428c-2.559,6.469-13.083,5.789-18.604,4.941    C15.291,19.461,13,19.43,13,21l1,6c0,2.215-0.375,3.814,0,6l1,3c0.251,1.522,2.103,3.021,3.27,4.11l4.04,3.77    C23.765,45.237,25.605,46,27.662,46h2.675c2.058,0,3.897-0.763,5.353-2.121l4.04-3.77c1.167-1.089,4.452-4.286,4.703-5.808L45,31    c0.375-2.186,0-3.785,0-6v-5C45,18.613,42.77,19.817,42.294,18.588z"/>
	</g>
	<circle style="fill:#EBBA16;" cx="37.5" cy="55.5" r="2.5"/>
	<path style="fill:#C49716;" d="M24,24c-0.22,0-0.441-0.072-0.626-0.221c-1.287-1.034-3.46-1.034-4.747,0   c-0.429,0.346-1.059,0.278-1.406-0.153c-0.346-0.43-0.278-1.06,0.153-1.406c2.033-1.636,5.22-1.636,7.253,0   c0.431,0.346,0.499,0.976,0.153,1.406C24.582,23.873,24.292,24,24,24z"/>
	<path style="fill:#C49716;" d="M40,24c-0.22,0-0.441-0.072-0.626-0.221c-1.287-1.034-3.46-1.034-4.747,0   c-0.43,0.346-1.059,0.278-1.406-0.153c-0.346-0.43-0.278-1.06,0.153-1.406c2.033-1.636,5.22-1.636,7.253,0   c0.431,0.346,0.499,0.976,0.153,1.406C40.582,23.873,40.292,24,40,24z"/>
	<path style="fill:#366DB6;" d="M21.027,29c-1.087,0-2.06-0.497-2.739-1.398c-0.13-0.173-0.201-0.384-0.201-0.602   c0-1.103,0.897-2,2-2c0.552,0,1,0.448,1,1c0,0.399-0.233,0.743-0.571,0.904c0.292,0.117,0.631,0.159,0.984-0.044   c0.479-0.277,1.09-0.113,1.366,0.364c0.277,0.478,0.114,1.089-0.364,1.366C22.032,28.862,21.536,29,21.027,29z"/>
	<path style="fill:#366DB6;" d="M37,29c-1.087,0-2.06-0.497-2.739-1.398C34.13,27.428,34.06,27.217,34.06,27c0-1.103,0.897-2,2-2   c0.552,0,1,0.448,1,1c0,0.399-0.233,0.743-0.571,0.904c0.292,0.117,0.631,0.159,0.984-0.044c0.479-0.277,1.09-0.113,1.366,0.364   c0.277,0.478,0.114,1.089-0.364,1.366C38.005,28.862,37.509,29,37,29z"/>
	<path style="fill:#D3A87D;" d="M31,43c-0.288,0-0.573-0.123-0.771-0.362c-0.683-0.823-1.777-0.823-2.46,0   c-0.353,0.427-0.984,0.485-1.408,0.132c-0.425-0.353-0.484-0.983-0.132-1.408C26.958,40.484,27.942,40,29,40   s2.042,0.483,2.77,1.362c0.353,0.425,0.293,1.056-0.132,1.408C31.452,42.925,31.226,43,31,43z"/>
	<path style="fill:#D3A87D;" d="M29,33.668c-0.945,0-1.89-0.296-2.626-0.888c-0.431-0.346-0.499-0.976-0.153-1.406   s0.977-0.498,1.406-0.153c0.745,0.599,2.002,0.599,2.747,0c0.43-0.345,1.061-0.277,1.406,0.153c0.346,0.43,0.278,1.06-0.153,1.406   C30.89,33.372,29.945,33.668,29,33.668z"/>
	<path style="fill:#EA6248;" d="M32.171,40.002c-0.593,0-1.284-0.183-1.966-0.728C29.978,39.092,29.686,39,29.335,39h-0.671   c-0.35,0-0.643,0.092-0.87,0.274c-1.335,1.068-2.708,0.744-3.309,0.383c-0.474-0.284-0.627-0.898-0.343-1.372   c0.284-0.475,0.898-0.627,1.372-0.343c0.087,0.043,0.496,0.198,1.03-0.229C27.127,37.247,27.86,37,28.665,37h0.671   c0.804,0,1.537,0.247,2.12,0.713c0.579,0.464,1.026,0.233,1.03,0.229c0.474-0.284,1.088-0.131,1.372,0.343s0.131,1.088-0.343,1.372   C33.22,39.834,32.741,40.002,32.171,40.002z"/>
	<path style="fill:#3D6F44;" d="M35.69,43.879C34.235,45.237,32.396,46,30.338,46h-2.675c-2.058,0-3.897-0.763-5.353-2.121   l-3.555-3.318l-3.893,2.114v0C17.547,45.841,22.867,50,29,50s11.453-4.159,14.139-7.325v0l-3.893-2.114L35.69,43.879z"/>
	<path style="fill:#3D6F44;" d="M48,58v-4c0-0.552-0.448-1-1-1s-1,0.448-1,1v4H48z"/>
	<path style="fill:#3D6F44;" d="M12,58v-4c0-0.552-0.448-1-1-1s-1,0.448-1,1v4H12z"/>
	<g>
		<path style="fill:#EBBA16;" d="M29,0.003c0,0-19-0.724-19,20.274v6.517v5.555c0,2.477,1.069,4.73,2.822,6.433    c1.107,1.076,2.817,1.277,4.15,0.501c0.007-0.004,0.014-0.008,0.021-0.012l0.228-0.124c-0.652-0.89-0.957-1.979-1.134-3.056    l-0.566-3.302c-0.375-2.188-0.564-4.404-0.564-6.624v-3.639c0-1.57,0.334-3.064,0.937-4.425    c5.521,0.847,16.045,1.528,18.604-4.941c1.481,1.981,3.903,4.152,7.797,5.428c0.476,1.229,0.749,2.552,0.749,3.938v3.639    c0,2.22-0.189,4.436-0.564,6.624l-0.566,3.302c-0.178,1.076-0.469,2.105-1.121,2.995l0.166,0.158    c0.023,0.014,0.046,0.027,0.07,0.04c1.335,0.774,3.043,0.574,4.15-0.502C46.931,37.078,48,34.826,48,32.349v-5.555v-6.517    C48-0.721,29,0.003,29,0.003z"/>
	</g>
	<path style="fill:#C49716;" d="M22.386,19.64c-5.125,0-9.804-1.133-10.148-1.219c-0.536-0.133-0.863-0.675-0.73-1.211   c0.133-0.536,0.676-0.863,1.211-0.73c0.142,0.035,14.195,3.435,19.435-1.566c1.759-1.679,2.313-4.229,1.649-7.578   c-0.107-0.542,0.245-1.068,0.786-1.176c0.543-0.111,1.068,0.245,1.176,0.786c0.807,4.065,0.056,7.233-2.231,9.416   C30.854,18.917,26.478,19.64,22.386,19.64z"/>
	<path style="fill:#C49716;" d="M43.871,20.036c-0.078,0-0.156-0.009-0.234-0.028c-4.201-1.008-7.638-3.169-9.94-6.251   c-0.331-0.442-0.24-1.069,0.203-1.4c0.442-0.33,1.069-0.24,1.4,0.203c2.048,2.742,5.01,4.594,8.805,5.504   c0.537,0.128,0.868,0.668,0.739,1.206C44.732,19.728,44.322,20.036,43.871,20.036z"/>
</g>

</svg>
