<?xml version="1.0" encoding="iso-8859-1"?>
<!-- Generator: Adobe Illustrator 19.0.0, SVG Export Plug-In . SVG Version: 6.00 Build 0)  -->
<svg version="1.1" id="Capa_1" xmlns="http://www.w3.org/2000/svg" xmlns:xlink="http://www.w3.org/1999/xlink" x="0px" y="0px"
	 viewBox="0 0 511.995 511.995" style="enable-background:new 0 0 511.995 511.995;" xml:space="preserve">
<g>
	<path style="fill:#E9EFF4;" d="M295.309,235.131l3.504,219.248c0.512,31.824,26.464,57.616,57.968,57.616l0,0
		c68.544,0,123.2-56.112,122.096-125.344l-2.432-151.52H295.309z"/>
	<path style="fill:#E9EFF4;" d="M216.381,235.131l3.504,219.248c0.528,31.824-24.608,57.616-56.112,57.616l0,0
		c-68.544,0-124.992-56.112-126.112-125.344l-2.432-151.52H216.381z"/>
</g>
<path style="fill:#FFD93B;" d="M463.629,265.067c0,126.384-93.856,228.768-209.44,228.768
	c-115.712,0-209.424-102.368-209.424-228.768c0-126.256,93.728-228.768,209.424-228.768
	C369.773,36.299,463.629,138.811,463.629,265.067z"/>
<path style="fill:#F4C534;" d="M463.629,265.067c0,126.384-93.856,228.768-209.44,228.768c-65.968,0-124.88-33.312-163.088-85.36
	c35.872,31.456,81.28,50.192,130.896,50.192c115.584,0,209.424-102.368,209.424-228.768c0-54.192-17.152-103.808-46.08-142.976
	C433.133,128.811,463.629,193.003,463.629,265.067z"/>
<g>
	<path style="fill:#3E4347;" d="M385.069,297.931c-3.072,0-5.952-1.888-7.088-4.944c-1.44-3.904,0.544-8.256,4.448-9.696
		l19.872-7.344l32.448-46.512c2.4-3.44,7.12-4.224,10.528-1.872c3.424,2.384,4.256,7.088,1.872,10.512l-35.168,50.4l-24.304,8.992
		C386.829,297.771,385.949,297.931,385.069,297.931z"/>
	<path style="fill:#3E4347;" d="M123.309,297.931c-0.864,0-1.76-0.144-2.624-0.48l-24.288-8.976l-35.168-50.4
		c-2.384-3.424-1.552-8.128,1.872-10.512c3.392-2.352,8.112-1.568,10.512,1.872l32.448,46.512l19.856,7.344
		c3.904,1.44,5.904,5.792,4.448,9.696C129.277,296.043,126.381,297.931,123.309,297.931z"/>
</g>
<g>
	<path style="fill:#E9EFF4;" d="M186.125,22.475c0,0-63.648,24.624-2.976,104.432s244.448,77.696,270.64,208.592
		C556.573,162.411,332.525-74.325,186.125,22.475z"/>
	<path style="fill:#E9EFF4;" d="M240.157,27.147c0,0,70.288,23.968,31.168,101.68s-226.08,77.584-216.928,205.04
		C0.973,241.739,36.301-37.317,240.157,27.147z"/>
</g>
<path style="fill:#E24B4B;" d="M254.205,422.427c-25.312,0-49.376-12.368-64.368-33.072c-3.504-4.848-2.416-11.616,2.416-15.104
	c4.832-3.52,11.6-2.432,15.104,2.416c11.104,15.328,28.176,24.128,46.832,24.128s35.728-8.784,46.816-24.128
	c3.488-4.848,10.288-5.904,15.104-2.416c4.848,3.504,5.936,10.256,2.416,15.104C303.565,410.075,279.501,422.427,254.205,422.427z"
	/>
<g>
	<path style="fill:#3E4347;" d="M327.757,354.539c-35.392,0-64.176-28.784-64.176-64.176s28.784-64.176,64.176-64.176
		s64.176,28.784,64.176,64.176S363.149,354.539,327.757,354.539z M327.757,241.307c-27.056,0-49.072,22.016-49.072,49.072
		s22.016,49.072,49.072,49.072s49.072-22.016,49.072-49.072S354.813,241.307,327.757,241.307z"/>
	<path style="fill:#3E4347;" d="M180.637,354.539c-35.392,0-64.176-28.784-64.176-64.176s28.784-64.176,64.176-64.176
		s64.176,28.784,64.176,64.176C244.813,325.755,216.029,354.539,180.637,354.539z M180.637,241.307
		c-27.056,0-49.072,22.016-49.072,49.072s22.016,49.072,49.072,49.072s49.072-22.016,49.072-49.072S207.693,241.307,180.637,241.307
		z"/>
	<path style="fill:#3E4347;" d="M271.165,296.507c-4.176,0-7.552-3.376-7.552-7.552c0-5.184-4.224-9.408-9.408-9.408
		s-9.392,4.224-9.392,9.408c0,4.176-3.376,7.552-7.552,7.552s-7.552-3.376-7.552-7.552c0-13.52,10.992-24.512,24.496-24.512
		c13.504,0,24.512,10.992,24.512,24.512C278.717,293.131,275.341,296.507,271.165,296.507z"/>
	<ellipse style="fill:#3E4347;" cx="191.997" cy="291.931" rx="19.472" ry="19.616"/>
</g>
<path style="fill:#5A5F63;" d="M202.573,289.451c-1.808,1.216-4.688,0.304-6.192-2.272c-1.664-2.416-1.504-5.44,0.448-6.64
	c1.808-1.216,4.688-0.16,6.192,2.256C204.685,285.227,204.541,288.251,202.573,289.451z"/>
<ellipse style="fill:#3E4347;" cx="316.397" cy="291.931" rx="19.472" ry="19.616"/>
<path style="fill:#5A5F63;" d="M326.957,289.451c-1.808,1.216-4.688,0.304-6.192-2.272c-1.664-2.416-1.504-5.44,0.448-6.64
	c1.808-1.216,4.688-0.16,6.192,2.256C329.069,285.227,328.925,288.251,326.957,289.451z"/>
<g>
</g>
<g>
</g>
<g>
</g>
<g>
</g>
<g>
</g>
<g>
</g>
<g>
</g>
<g>
</g>
<g>
</g>
<g>
</g>
<g>
</g>
<g>
</g>
<g>
</g>
<g>
</g>
<g>
</g>
</svg>
