<?xml version="1.0" encoding="iso-8859-1"?>
<!-- Generator: Adobe Illustrator 22.0.0, SVG Export Plug-In . SVG Version: 6.00 Build 0)  -->
<svg xmlns="http://www.w3.org/2000/svg" xmlns:xlink="http://www.w3.org/1999/xlink" version="1.1" x="0px" y="0px" viewBox="0 0 58 58" style="enable-background:new 0 0 58 58;" xml:space="preserve" width="512" height="512">
<g id="_x32_1-Polo">
	<path style="fill:#D3A87D;" d="M15,30l-1-6c-1.126-0.375-3.829,0.123-4.269-1.608C8.799,22.981,8,24.434,8,28   c0,1.028,1.802,6,3.333,6c0.508,0,0.98-0.325,1.385-0.879C12.255,31.431,15,31.703,15,30z"/>
	<path style="fill:#D3A87D;" d="M48.414,22.504C48.081,23.554,44.63,23.064,44,24c-0.674,1-1,1-1,1v5   c0,1.704,2.745,1.431,2.282,3.121C45.686,33.675,46.159,34,46.667,34C48.198,34,50,29.028,50,28   C50,24.624,49.282,23.152,48.414,22.504z"/>
	<rect x="16" y="37" style="fill:#D3A87D;" width="26" height="16"/>
	<g>
		<path style="fill:#DD352E;" d="M43.63,42.942L36,46l-7,2.428L22,47l-7.63-4.058C6.374,46.896,0,48.213,0,53.442v1.132    c0.973-0.052,2.067,0.752,1.816,2.004c0.198,0.096,0.502,0.127,0.659,0.156c0.674,0.128,1.408,0.085,2.088,0.057    c1.405-0.057,2.79-0.284,4.187-0.414c1.102-0.102,1.609,0.76,1.542,1.622h37.857c0.145-0.656,0.647-1.216,1.518-1.206    c1.297,0.015,2.625,0.233,3.92,0.142c1.339-0.094,2.169-0.844,3.016-1.834c0.422-0.494,0.933-0.611,1.397-0.492v-1.169    C58,48.214,51.625,46.896,43.63,42.942z"/>
	</g>
	<polygon style="fill:#FBCE9D;" points="11,58 0,58 0,54 10,54  "/>
	<polygon style="fill:#FBCE9D;" points="47,58 58,58 58,54 48,54  "/>
	<path style="fill:#B02721;" d="M10,55c-0.256,0-0.512-0.098-0.707-0.293c-0.391-0.391-0.391-1.023,0-1.414l1-1   c0.391-0.391,1.023-0.391,1.414,0s0.391,1.023,0,1.414l-1,1C10.512,54.902,10.256,55,10,55z"/>
	<path style="fill:#B02721;" d="M48,55c-0.256,0-0.512-0.098-0.707-0.293l-1-1c-0.391-0.391-0.391-1.023,0-1.414   s1.023-0.391,1.414,0l1,1c0.391,0.391,0.391,1.023,0,1.414C48.512,54.902,48.256,55,48,55z"/>
	<path style="fill:#B02721;" d="M15.744,39.961c-0.972,0.53-1.935,1.031-2.871,1.483L24.428,53l4.714-4.714L19,42   C18,39,18.408,43.895,15.744,39.961z"/>
	<path style="fill:#B02721;" d="M42.256,39.961C38,42,41.014,42.625,36,43l-8,5l1,0.428L33.572,53l11.556-11.556   C44.194,40.993,43.231,40.492,42.256,39.961z"/>
	<path style="fill:#FBCE9D;" d="M38,7c-2.156,2-10,0-10,0c-5.505,2.198-13.597,3.103-13.536,3c-0.958,0.444-1.774,1.037-2.464,1.69   c-2.17,2.055-1,6.321-1,9.31v2l1,3v2c0,9.615,7.991,20,16.981,20h0.039C38.009,48,46,37.615,46,28v-1l1-6c0-2.75-0.147-5.969-2-8   C42.28,10.018,38,7,38,7z"/>
	<path style="fill:#9E4233;" d="M17,22.6c-0.392,0-0.764-0.232-0.924-0.617c-0.212-0.51,0.03-1.095,0.54-1.307   c2.046-0.85,4.637-0.897,6.3-0.118c0.5,0.234,0.715,0.83,0.481,1.33c-0.234,0.5-0.83,0.715-1.33,0.48   c-1.154-0.541-3.168-0.475-4.684,0.154C17.258,22.575,17.128,22.6,17,22.6z"/>
	<path style="fill:#9E4233;" d="M35,22.6c-0.392,0-0.764-0.232-0.924-0.617c-0.212-0.51,0.03-1.095,0.54-1.307   c2.046-0.85,4.637-0.897,6.3-0.118c0.5,0.234,0.715,0.83,0.481,1.33c-0.234,0.5-0.83,0.715-1.33,0.48   c-1.154-0.541-3.168-0.475-4.684,0.154C35.258,22.575,35.128,22.6,35,22.6z"/>
	<path style="fill:#366DB6;" d="M20.519,27c-1.088,0-2.061-0.497-2.74-1.399c-0.13-0.173-0.201-0.384-0.201-0.601   c0-1.103,0.897-2,2-2c0.552,0,1,0.448,1,1c0,0.399-0.234,0.743-0.571,0.904c0.291,0.118,0.633,0.16,0.983-0.043   c0.478-0.276,1.09-0.114,1.367,0.364c0.277,0.478,0.114,1.09-0.364,1.367C21.525,26.862,21.029,27,20.519,27z"/>
	<path style="fill:#366DB6;" d="M38.492,27c-1.088,0-2.061-0.497-2.74-1.399c-0.13-0.173-0.201-0.384-0.201-0.601   c0-1.103,0.897-2,2-2c0.552,0,1,0.448,1,1c0,0.399-0.234,0.743-0.571,0.904c0.291,0.118,0.633,0.16,0.983-0.043   c0.478-0.276,1.089-0.114,1.367,0.364c0.277,0.478,0.114,1.09-0.364,1.367C39.498,26.862,39.002,27,38.492,27z"/>
	<path style="fill:#D3A87D;" d="M29,32c-0.552,0-1-0.448-1-1s0.448-1,1-1c0.552,0,1-0.449,1-1c0-0.322-0.149-0.616-0.41-0.807   c-1.01-0.741-1.59-1.809-1.59-2.93V25c0-0.552,0.448-1,1-1s1,0.448,1,1v0.263c0,0.653,0.484,1.105,0.772,1.317   C31.541,27.142,32,28.048,32,29C32,30.654,30.654,32,29,32z"/>
	<path style="fill:#D3A87D;" d="M30,43h-2c-0.552,0-1-0.448-1-1s0.448-1,1-1h2c0.552,0,1,0.448,1,1S30.552,43,30,43z"/>
	<path style="fill:#EA6248;" d="M32,40c-0.105,0-0.212-0.017-0.316-0.052L29,39.054l-2.684,0.895   c-0.522,0.175-1.09-0.108-1.265-0.632c-0.175-0.524,0.109-1.09,0.633-1.265l3-1c0.205-0.068,0.427-0.068,0.632,0l3,1   c0.524,0.175,0.807,0.741,0.633,1.265C32.809,39.735,32.419,40,32,40z"/>
	<path style="fill:#D3A87D;" d="M23,32c-0.552,0-1-0.448-1-1v-1c0-0.552,0.448-1,1-1s1,0.448,1,1v1C24,31.552,23.552,32,23,32z"/>
	<path style="fill:#D3A87D;" d="M21,35c-0.552,0-1-0.448-1-1v-1c0-0.552,0.448-1,1-1s1,0.448,1,1v1C22,34.552,21.552,35,21,35z"/>
	<path style="fill:#D3A87D;" d="M35,32c-0.552,0-1-0.448-1-1v-1c0-0.552,0.448-1,1-1s1,0.448,1,1v1C36,31.552,35.552,32,35,32z"/>
	<path style="fill:#D3A87D;" d="M37,35c-0.552,0-1-0.448-1-1v-1c0-0.552,0.448-1,1-1s1,0.448,1,1v1C38,34.552,37.552,35,37,35z"/>
	<path style="fill:#BF5A45;" d="M12,23v-2.326c0-2.989,1.109-5.929,3.279-7.984c0.69-0.653,1.505-1.246,2.463-1.69   c-0.06,0.103,5.274,2.198,10.778,0c0,0,6.467,0,8.623-2c0,0,3.33,1.491,6.05,4.473C45.047,15.504,46,18.201,46,20.951V27   c0,0,0.305-0.5,0.979-1.5C48.345,23.472,49,21.099,49,18.708v-1.708c0-2.068-0.503-4.112-1.52-5.952   C46.153,8.646,43.716,7.561,39.299,5c0,0-0.606-1.688-3.183-2.953c-1.761-0.865-3.794-1.125-5.771-0.901   C29.187,1.278,27.953,1.527,27.443,2c0,0-6.467,0-7.545-2c0,0-2.156,2-2.156,4c0,0-1.078-1-3.234-1c0,0-2.156,3-1.078,5   C13.431,8,9,8,9,16c0,0,0,9,3,10V23z"/>
	<path style="fill:#9E4233;" d="M28.521,12c-0.427,0-0.822-0.276-0.955-0.705c-0.163-0.527,0.132-1.087,0.66-1.251   c2.41-0.745,2.526-2.022,2.53-2.076c0.037-0.538,0.496-0.973,1.033-0.949c0.539,0.019,0.966,0.442,0.966,0.98   c0,0.112-0.045,2.751-3.938,3.956C28.718,11.986,28.619,12,28.521,12z"/>
</g>

</svg>
