<?xml version="1.0" encoding="iso-8859-1"?>
<!-- Generator: Adobe Illustrator 19.0.0, SVG Export Plug-In . SVG Version: 6.00 Build 0)  -->
<svg version="1.1" id="Capa_1" xmlns="http://www.w3.org/2000/svg" xmlns:xlink="http://www.w3.org/1999/xlink" x="0px" y="0px"
	 viewBox="0 0 512 512" style="enable-background:new 0 0 512 512;" xml:space="preserve">
<path style="fill:#E9EFF4;" d="M476.944,171.904C483.552,244.528,384.8,306.656,256,306.656
	c-128.784,0-227.552-62.128-220.976-134.752C47.312,36.48,141.584,19.696,255.968,19.696
	C370.368,19.712,464.624,36.48,476.944,171.904z"/>
<path style="fill:#FFD93B;" d="M79.152,266.672c0,36.416-17.712,65.936-39.568,65.936C16.256,332.608,0,303.088,0,266.672
	s16.256-65.936,39.568-65.936C61.424,200.736,79.152,230.256,79.152,266.672z"/>
<path style="fill:#F4C534;" d="M512,266.672c0,36.416-17.712,65.936-39.584,65.936c-23.312,0-39.568-29.52-39.568-65.936
	s16.256-65.936,39.568-65.936C494.288,200.736,512,230.256,512,266.672z"/>
<path style="fill:#FFD93B;" d="M477.824,256c0,133.872-99.408,242.288-221.824,242.288C133.44,498.288,34.176,389.872,34.176,256
	C34.176,122.288,133.44,13.712,256,13.712C378.416,13.712,477.824,122.288,477.824,256z"/>
<path style="fill:#F4C534;" d="M477.824,256c0,133.872-99.408,242.288-221.824,242.288c-69.872,0-132.256-35.28-172.752-90.4
	c37.984,33.312,86.096,53.152,138.64,53.152c122.416,0,221.824-108.432,221.824-242.304c0-57.392-18.16-109.936-48.8-151.44
	C445.52,111.68,477.824,179.68,477.824,256z"/>
<g>
	<path style="fill:#E9EFF4;" d="M473.568,181.136c0.176,4.992,0.368,10.176,0,15.168c0.176,2.032-0.96-10.48-1.152-8.624
		c-1.856,34.048-16.48,78.928-16.48,78.928c-3.504,14.448-13.088,21.6-13.088,0c0.192-6.656-1.104-14.8-2.96-23.68
		c-0.176-0.368-0.176-0.736-0.368-1.104c-0.56-2.592-1.104-5.36-1.856-7.952c0-0.192-0.192-0.368-0.192-0.56
		c-8.88-33.664-26.08-72.528-27.76-76.416c-0.176-0.192-0.176-0.368-0.176-0.368c-9.072-23.12-20.912-47.552-25.344-71.04
		c-2.768-14.992-6.112-29.968-11.84-44.032l-1.856-4.624l35.152,9.44l5.36,17.2c11.84,13.504,29.968,46.816,44.592,77.152
		C464.496,149.68,472.464,162.816,473.568,181.136z"/>
	<path style="fill:#E9EFF4;" d="M38.4,181.136c-0.176,4.992-0.368,10.176,0,15.168c-0.176,2.032,0.96-10.48,1.152-8.624
		c1.856,34.048,16.48,78.928,16.48,78.928H69.12c-0.176-6.656,1.104-14.8,2.96-23.68c0.176-0.368,0.176-0.736,0.368-1.104
		c0.56-2.592,1.104-5.36,1.856-7.952c0-0.192,0.192-0.368,0.192-0.56c8.88-33.664,26.08-72.528,27.744-76.416
		c0.176-0.192,0.176-0.368,0.176-0.368c9.072-23.12,20.912-47.552,25.344-71.04c2.768-14.992,6.096-29.968,11.84-44.032l1.856-4.624
		l-35.152,9.44l-5.36,17.184c-11.84,13.504-29.968,46.816-44.592,77.152C47.472,149.68,39.52,162.816,38.4,181.136z"/>
</g>
<path style="fill:#3E4347;" d="M256,422.672c-32.464,0-63.328-15.856-82.56-42.416c-4.496-6.208-3.104-14.896,3.104-19.376
	c6.192-4.512,14.864-3.12,19.36,3.104c14.24,19.664,36.128,30.944,60.08,30.944c23.936,0,45.824-11.28,60.048-30.944
	c4.48-6.224,13.184-7.584,19.376-3.104c6.224,4.496,7.6,13.168,3.104,19.376C319.312,406.816,288.448,422.672,256,422.672z"/>
<g>
	<path style="fill:#F4C534;" d="M325.616,115.36c-46.192-15.248-93.008-15.248-139.248,0c-3.632,1.232-7.552-0.768-8.768-4.416
		c-1.2-3.632,0.784-7.568,4.432-8.768c49.056-16.192,98.832-16.208,147.92,0c3.648,1.2,5.616,5.12,4.432,8.768
		C333.136,114.672,329.136,116.544,325.616,115.36z"/>
	<path style="fill:#F4C534;" d="M325.616,85.744c-46.192-15.248-93.008-15.248-139.248,0c-3.632,1.2-7.552-0.784-8.768-4.416
		c-1.2-3.632,0.784-7.568,4.432-8.768c49.056-16.192,98.832-16.208,147.92,0c3.648,1.2,5.616,5.12,4.432,8.768
		C333.136,85.072,329.136,86.928,325.616,85.744z"/>
</g>
<g>
	<path style="fill:#FFFFFF;" d="M235.056,247.184c-3.216,36.432-32.88,69.296-81.776,74.56
		c-48.624,5.36-77.312-28.016-82.464-75.152c-1.216-49.856,47.44-66.304,81.984-60.576
		C187.536,187.456,234.592,208.336,235.056,247.184z"/>
	<path style="fill:#FFFFFF;" d="M276.96,247.184c3.2,36.432,32.88,69.296,81.776,74.56c48.624,5.36,77.312-28.016,82.464-75.152
		c1.216-49.856-47.44-66.304-81.984-60.576C324.48,187.456,277.408,208.336,276.96,247.184z"/>
</g>
<g>
	<path style="fill:#3E4347;" d="M429.12,194.624c-17.92-15.84-45.28-23.2-71.36-19.2c-14.784,0.88-32.224,5.184-47.872,13.12
		c-16.72,8.48-35.152,12.96-53.888,12.96l0,0c-18.736,0-37.184-4.48-53.904-12.96c-15.648-7.936-33.088-12.24-47.856-13.12
		c-26.08-4-53.28,3.36-71.36,19.2c-14.88,13.28-22.56,31.36-21.92,53.28c2.72,28.8,14.4,52.8,32.64,67.52
		c13.6,11.2,30.72,16.96,49.76,16.96c3.52,0,7.2-0.32,11.04-0.64c40.336-4.384,72.272-27.328,84.928-58.96
		c2.592-6.464,8.976-10.976,15.936-11.216c0.304-0.016,0.608-0.016,0.912-0.032c7.248-0.128,13.952,4.624,16.64,11.36
		c12.576,31.504,44.384,54.48,84.784,58.832c3.84,0.32,7.52,0.64,11.04,0.64c19.04,0,36.16-5.76,49.76-16.96
		c18.24-14.72,29.92-38.72,32.64-67.52C451.68,225.984,444,207.904,429.12,194.624z M152.16,311.744
		c-18.24,2.08-33.76-1.92-45.92-11.84c-14.08-11.36-23.04-30.56-25.28-53.28c-0.48-15.2,4.64-27.68,15.2-36.96
		c11.04-9.76,27.52-15.2,44.64-15.2c3.68,0,7.52,0.16,11.36,0.8c29.12,1.76,72,19.36,72.8,51.84
		C222.24,281.024,192.48,307.584,152.16,311.744z M405.76,299.904c-12.16,9.92-27.68,13.92-45.92,11.84
		c-40.32-4.16-70.08-30.72-72.8-64.64c0.8-32.48,43.84-50.08,72.8-51.84c3.84-0.64,7.68-0.8,11.36-0.8c17.12,0,33.6,5.44,44.64,15.2
		c10.56,9.28,15.68,21.76,15.2,36.96C428.8,269.344,419.84,288.544,405.76,299.904z"/>
	<circle style="fill:#3E4347;" cx="339.36" cy="258.56" r="28.432"/>
</g>
<path style="fill:#5A5F63;" d="M354.784,252.768c-2.16,1.264-5.28-0.352-7.232-3.376c-1.824-3.184-1.632-6.656,0.384-7.904
	c2.16-1.264,5.264,0.224,7.216,3.248C356.976,247.92,356.8,251.52,354.784,252.768z"/>
<circle style="fill:#3E4347;" cx="172.608" cy="258.56" r="28.432"/>
<path style="fill:#5A5F63;" d="M188.016,252.768c-2.16,1.264-5.28-0.352-7.232-3.376c-1.824-3.184-1.632-6.656,0.384-7.904
	c2.16-1.264,5.264,0.224,7.216,3.248C190.208,247.92,190.032,251.52,188.016,252.768z"/>
<g>
</g>
<g>
</g>
<g>
</g>
<g>
</g>
<g>
</g>
<g>
</g>
<g>
</g>
<g>
</g>
<g>
</g>
<g>
</g>
<g>
</g>
<g>
</g>
<g>
</g>
<g>
</g>
<g>
</g>
</svg>
