<?xml version="1.0" encoding="iso-8859-1"?>
<!-- Generator: Adobe Illustrator 22.0.0, SVG Export Plug-In . SVG Version: 6.00 Build 0)  -->
<svg xmlns="http://www.w3.org/2000/svg" xmlns:xlink="http://www.w3.org/1999/xlink" version="1.1" x="0px" y="0px" viewBox="0 0 58 56" style="enable-background:new 0 0 58 56;" xml:space="preserve" width="512" height="512">
<g id="_x32_2-Suit">
	<g>
		<path style="fill:#7383BF;" d="M43.63,40.942l-4.612-2.504H18.982l-4.612,2.504C6.374,44.896,0,46.214,0,51.442V56h29h29v-4.558    C58,46.214,51.625,44.896,43.63,40.942z"/>
		<path style="fill:#7383BF;" d="M22.025,40.491"/>
	</g>
	<polygon style="fill:#556080;" points="11,51 15,56 19,56 19,39  "/>
	<polygon style="fill:#556080;" points="47,51 43,56 39,56 39,39  "/>
	<g>
		<path style="fill:#CCD2D6;" d="M35.975,40.491C35.987,40.328,36,40.166,36,40c0,3.85-3.15,7-7,7s-7-3.15-7-7    c0,0.166,0.013,0.328,0.025,0.491c-1.133-0.555-2.132-1.249-3.025-2.037V56h10h10V38.454    C38.107,39.241,37.108,39.936,35.975,40.491z"/>
	</g>
	<g>
		<path style="fill:#D3A87D;" d="M12.075,21.043C10.345,21.255,9,22.713,9,24.5c0,1.933,1.567,3.5,3.5,3.5h0.667    c-0.175-0.679,3.424-2.348,3.296-3c-0.207-1.06-0.356-2.073-0.463-3C15.919,21.292,12.114,21.634,12.075,21.043z"/>
		<path style="fill:#D3A87D;" d="M45.925,21.043c-0.039,0.591-2.381,0.249-2.462,0.957c-0.107,0.927-0.256,1.94-0.463,3    c-0.128,0.652,2.008,2.321,1.833,3H45.5c1.933,0,3.5-1.567,3.5-3.5C49,22.713,47.655,21.255,45.925,21.043z"/>
	</g>
	<path style="fill:#FBCE9D;" d="M45.19,22.25c-0.082-4.298-1.243-9.635-3.091-13.573c-2.167-4.617-6.275-6.418-11.224-6.881   c-4.742-0.444-9.952,0.643-13.373,4.153c-3.393,3.48-3.295,7.842-4.375,12.232c-0.165,0.67-0.617,1.019-1.129,1.121   c0.083,4.104,1.074,16.805,10.027,21.189h13.95c6.847-3.352,9.036-11.569,9.725-17.088C45.402,23.142,45.2,22.759,45.19,22.25z"/>
	<path style="fill:#DC691D;" d="M45.991,18.001C45.991,0.005,30.994,0,28.995,0c-0.002,0-0.004,0-0.006,0s-0.004,0-0.006,0   c-2,0-16.996,0.005-16.996,18.001c0,0-0.225,5.546,1.535,11.306c0.28-0.937,0.467-2.311,0.467-4.306c0,0,0-10,3-12   c1.245-0.83,3.525-0.82,5.761-0.479c4.188,0.639,8.385,0.638,12.479,0c2.235-0.348,4.516-0.351,5.761,0.479c3,2,3,12,3,12   c0,1.996,0.187,3.369,0.467,4.306C46.216,23.547,45.991,18.001,45.991,18.001z"/>
	<path style="fill:#DC691D;" d="M24.999,20c-0.22,0-0.441-0.072-0.626-0.221c-1.287-1.034-3.46-1.034-4.747,0   c-0.431,0.346-1.06,0.278-1.406-0.153c-0.346-0.43-0.278-1.06,0.153-1.406c2.034-1.636,5.22-1.636,7.253,0   c0.43,0.346,0.499,0.976,0.153,1.406C25.582,19.872,25.292,20,24.999,20z"/>
	<path style="fill:#DC691D;" d="M38.999,20c-0.22,0-0.441-0.072-0.626-0.221c-1.287-1.034-3.46-1.034-4.747,0   c-0.431,0.346-1.06,0.278-1.406-0.153c-0.346-0.43-0.278-1.06,0.153-1.406c2.034-1.636,5.22-1.636,7.253,0   c0.43,0.346,0.499,0.976,0.153,1.406C39.582,19.872,39.292,20,38.999,20z"/>
	<path style="fill:#6C4127;" d="M22.027,25c-1.088,0-2.06-0.497-2.739-1.398c-0.13-0.173-0.201-0.385-0.201-0.602   c0-1.103,0.897-2,2-2c0.552,0,1,0.448,1,1c0,0.399-0.233,0.743-0.571,0.904c0.292,0.118,0.633,0.16,0.983-0.043   c0.478-0.276,1.09-0.114,1.367,0.364c0.277,0.478,0.114,1.09-0.364,1.367C23.033,24.862,22.537,25,22.027,25z"/>
	<path style="fill:#6C4127;" d="M36,25c-1.088,0-2.06-0.497-2.739-1.398C33.13,23.428,33.06,23.217,33.06,23c0-1.103,0.897-2,2-2   c0.552,0,1,0.448,1,1c0,0.399-0.233,0.743-0.571,0.904c0.292,0.118,0.633,0.16,0.983-0.043c0.478-0.276,1.089-0.114,1.367,0.364   c0.277,0.478,0.114,1.09-0.364,1.367C37.006,24.862,36.51,25,36,25z"/>
	<path style="fill:#D3A87D;" d="M29,30c-0.552,0-1-0.448-1-1s0.448-1,1-1c0.552,0,1-0.449,1-1c0-0.322-0.15-0.617-0.41-0.808   c-1.01-0.74-1.59-1.808-1.59-2.929V23c0-0.552,0.448-1,1-1s1,0.448,1,1v0.263c0,0.653,0.484,1.105,0.772,1.316   C31.541,25.143,32,26.048,32,27C32,28.654,30.654,30,29,30z"/>
	<path style="fill:#DC691D;" d="M29,47L29,47c-3.85,0-7-3.15-7-7v-1c0-3.85,3.15-7,7-7h0c3.85,0,7,3.15,7,7v1   C36,43.85,32.85,47,29,47z"/>
	<path style="fill:#AF501B;" d="M30,42h-2c-0.552,0-1-0.448-1-1s0.448-1,1-1h2c0.552,0,1,0.448,1,1S30.552,42,30,42z"/>
	<path style="fill:#AF501B;" d="M32,39h-6c-0.552,0-1-0.448-1-1s0.448-1,1-1h6c0.552,0,1,0.448,1,1S32.552,39,32,39z"/>
	<g>
		<path style="fill:#E7ECED;" d="M35.982,40.5l-0.003,0.041c0,0-0.029,0.307-0.051,0.459l0,0c-0.315,2.17-1.637,4.023-3.471,5.074    L39,50v-8v-1.487V39v-0.546c-0.886,0.782-1.877,1.472-3,2.025L35.982,40.5z"/>
	</g>
	<g>
		<path style="fill:#E7ECED;" d="M22,40c0,0.166,0.013,0.328,0.025,0.491c-1.133-0.555-2.132-1.249-3.025-2.037V39v1.513V42v8    l6.543-3.926C23.433,44.865,22,42.594,22,40z"/>
	</g>
	<path style="fill:#DD352E;" d="M29,49c-0.968,0-1.115-0.829-2-1l-2,8h8l-2-8C30.115,48.171,29.968,49,29,49z"/>
	<path style="fill:#B02721;" d="M29,47c-1.154,0-2.242-0.288-3.205-0.788L25,50.446C26.228,50.802,27.578,51,29,51   c1.423,0,2.772-0.198,4-0.554l-0.795-4.234C31.243,46.713,30.154,47,29,47z"/>
</g>

</svg>
