<?xml version="1.0" encoding="iso-8859-1"?>
<!-- Generator: Adobe Illustrator 22.0.0, SVG Export Plug-In . SVG Version: 6.00 Build 0)  -->
<svg xmlns="http://www.w3.org/2000/svg" xmlns:xlink="http://www.w3.org/1999/xlink" version="1.1" x="0px" y="0px" viewBox="0 0 58 58" style="enable-background:new 0 0 58 58;" xml:space="preserve" width="512" height="512">
<g id="_x32_3-Moustache">
	<path style="fill:#EBBA16;" d="M43.481,47.098l-29.13,0.085C5.809,51.535,0,52.54,0,58h28.866H31h1h26   C58,52.504,52.116,51.523,43.481,47.098z"/>
	<path style="fill:#BE6E41;" d="M46,27c3.965-12,0-17,0-17c-1.383-1.679-4.285-3.437-6.914-5c0,0-0.591-1.688-3.104-2.953   c-1.717-0.865-3.699-1.125-5.627-0.901C29.226,1.278,28.024,1.527,27.526,2c0,0-6.305,0-7.356-2c0,0-2.102,2-2.102,4   c0,0-1.051-1-3.153-1c0,0-2.102,3-1.051,5c0,0-0.785,0.5-1.865,2c0,0-3.965,5,0,17c0,0-2.115,3.857-2.31,8.701l0.648,5.233   c0.938,3.026,2.999,6.052,6.998,8.51c1.057,0.65,2.056,1.388,3.045,2.137L28.866,58l8.482-6.418   c0.996-0.754,2.004-1.496,3.067-2.15c3.995-2.459,6.078-5.487,7.047-8.512l0.711-5.252C48.037,30.839,46,27,46,27z"/>
	<g>
		<path style="fill:#FBCE9D;" d="M43.075,15.344c-1.235-1.326-2.58-2.345-3.678-3.063c-2.01,1.668-5.761,2.945-10.331,3.464    C30.388,13.318,29,11,29,11c-1.25,1.875-4.845,3.751-7.365,4.893c-2.38-0.165-4.591-0.525-6.504-1.046    C13.063,16.894,12,19.758,12,22.674V25v3v2c1.113,1.113,2.285,2.303,3.456,3.457c2.334-1.217,4.526-2.64,6.372-3.74    c2.918-1.739,7.115-0.12,7.173,2.782V32.5l0-0.001c0.057-2.902,4.255-4.521,7.173-2.782c1.893,1.128,4.148,2.597,6.548,3.834    C43.769,32.369,44.856,31.144,46,30v-1v-6.049C46,20.141,44.99,17.4,43.075,15.344z"/>
		<path style="fill:#FBCE9D;" d="M21.49,38.687C21.664,38.799,21.834,38.904,22,39c2.176,1.254,4,4,7,4s5.529-2.576,8-4    c0.047-0.027,0.094-0.061,0.142-0.089c-2.434-0.833-4.845-1.995-6.802-3.624c-0.892-0.743-1.349-1.76-1.34-2.787    c0.009,1.028-0.448,2.045-1.34,2.787C25.873,36.775,23.707,37.873,21.49,38.687z"/>
	</g>
	<path style="fill:#A05935;" d="M31.001,48c-0.318,0-0.631-0.151-0.825-0.433C29.932,47.212,29.492,47,29,47h0   c-0.492,0-0.932,0.212-1.176,0.567c-0.313,0.455-0.935,0.57-1.391,0.257c-0.455-0.313-0.57-0.936-0.257-1.391   C26.794,45.536,27.85,45,29,45c0,0,0,0,0,0c1.151,0,2.206,0.536,2.824,1.434c0.313,0.455,0.198,1.078-0.257,1.391   C31.394,47.943,31.196,48,31.001,48z"/>
	<path style="fill:#A05935;" d="M17,22.6c-0.392,0-0.764-0.232-0.924-0.617c-0.212-0.51,0.03-1.095,0.54-1.307   c2.046-0.85,4.637-0.897,6.3-0.118c0.5,0.234,0.715,0.83,0.481,1.33c-0.234,0.5-0.83,0.715-1.33,0.48   c-1.154-0.541-3.168-0.475-4.684,0.154C17.258,22.575,17.128,22.6,17,22.6z"/>
	<path style="fill:#A05935;" d="M35,22.6c-0.392,0-0.764-0.232-0.924-0.617c-0.212-0.51,0.03-1.095,0.54-1.307   c2.046-0.85,4.637-0.897,6.3-0.118c0.5,0.234,0.715,0.83,0.481,1.33c-0.234,0.5-0.83,0.715-1.33,0.48   c-1.154-0.541-3.168-0.475-4.684,0.154C35.258,22.575,35.128,22.6,35,22.6z"/>
	<path style="fill:#366DB6;" d="M20.519,27c-1.088,0-2.06-0.497-2.739-1.398c-0.13-0.173-0.201-0.385-0.201-0.602   c0-1.103,0.897-2,2-2c0.552,0,1,0.448,1,1c0,0.399-0.233,0.743-0.571,0.904c0.292,0.118,0.633,0.16,0.983-0.043   c0.478-0.276,1.089-0.114,1.367,0.364c0.277,0.478,0.114,1.09-0.364,1.367C21.525,26.862,21.029,27,20.519,27z"/>
	<path style="fill:#366DB6;" d="M38.492,27c-1.088,0-2.06-0.497-2.739-1.398c-0.13-0.173-0.201-0.385-0.201-0.602   c0-1.103,0.897-2,2-2c0.552,0,1,0.448,1,1c0,0.399-0.233,0.743-0.571,0.904c0.292,0.118,0.633,0.16,0.983-0.043   c0.478-0.276,1.09-0.114,1.367,0.364c0.277,0.478,0.114,1.09-0.364,1.367C39.498,26.862,39.002,27,38.492,27z"/>
	<path style="fill:#A05935;" d="M50.354,33c0,0,0.42-1.804,2.512-2c2.166-0.203,4.652,1.29,5.024,3c0.516,2.369-0.541,7-8.793,7   c0,0-12.049-0.128-18.758-5.713c-0.892-0.743-1.349-1.76-1.34-2.787c0-0.001,0-0.001,0-0.001c0.058-2.902,4.255-4.522,7.173-2.782   c3.84,2.289,9.171,5.985,14.181,6.283C56.599,36.372,53.994,33.298,50.354,33z"/>
	<path style="fill:#A05935;" d="M7.646,33c0,0-0.42-1.804-2.512-2c-2.166-0.203-4.652,1.29-5.024,3c-0.516,2.369,0.541,7,8.793,7   c0,0,12.049-0.128,18.758-5.713c0.892-0.743,1.349-1.76,1.34-2.787c0-0.001,0-0.001,0-0.001c-0.058-2.902-4.255-4.522-7.173-2.782   c-3.84,2.289-9.171,5.985-14.181,6.283C1.401,36.372,4.006,33.298,7.646,33z"/>
	<path style="fill:#D3A87D;" d="M31,40h-4c-0.552,0-1-0.448-1-1s0.448-1,1-1h4c0.552,0,1,0.448,1,1S31.552,40,31,40z"/>
</g>

</svg>
