<?xml version="1.0" encoding="iso-8859-1"?>
<!-- Generator: Adobe Illustrator 19.0.0, SVG Export Plug-In . SVG Version: 6.00 Build 0)  -->
<svg version="1.1" id="Capa_1" xmlns="http://www.w3.org/2000/svg" xmlns:xlink="http://www.w3.org/1999/xlink" x="0px" y="0px"
	 viewBox="0 0 512 512" style="enable-background:new 0 0 512 512;" xml:space="preserve">
<path style="fill:#8F6D52;" d="M419.648,507.312c-110-36.688-218.224-40.672-324.96-3.968c-37.024,12.736-75.68-13.872-75.68-53.008
	v-213.36C19.024,106.096,125.12,0,256,0l0,0c130.88,0,236.992,106.096,236.992,236.976v216.496
	C492.992,491.568,455.792,519.36,419.648,507.312z"/>
<path style="fill:#FFD93B;" d="M451.536,298.416C451.536,416.416,363.904,512,256,512c-108.032,0-195.536-95.584-195.536-213.584
	c0-117.872,87.504-213.584,195.536-213.584C363.904,84.832,451.536,180.544,451.536,298.416z"/>
<path style="fill:#F4C534;" d="M418.24,303.328c-16.352,99.952-96.192,175.84-192.304,175.84c-46.32,0-88.72-17.488-122.208-46.848
	C139.408,480.896,194.416,512,256,512c106.4,0,192.896-92.96,195.312-208.672H418.24z"/>
<path style="fill:#3E4347;" d="M256,449.68c-25.392,0-49.84-10.448-68.816-29.44c-4.784-4.784-4.784-12.512,0-17.296
	s12.512-4.784,17.296,0c28.704,28.704,74.256,28.736,103.008,0c4.784-4.784,12.512-4.784,17.296,0s4.784,12.528,0,17.296
	C305.792,439.232,281.36,449.68,256,449.68z"/>
<path style="fill:#F4C534;" d="M475.664,307.824c0,32.096-15.04,58.128-33.6,58.128c-19.792,0-33.6-26.016-33.6-58.128
	c0-32.096,13.808-58.128,33.6-58.128C460.608,249.696,475.664,275.728,475.664,307.824z"/>
<path style="fill:#FFD93B;" d="M103.552,307.824c0,32.096-15.04,58.128-33.6,58.128c-19.792,0-33.6-26.016-33.6-58.128
	c0-32.096,13.808-58.128,33.6-58.128C88.496,249.696,103.552,275.728,103.552,307.824z"/>
<path style="fill:#8F6D52;" d="M77.456,338.32c0,0,19.92-57.76,26.272-97.168c6.352-39.408,109.616,9.504,153.12-63.2
	c0,0,36.016,71.344,167.168,61.84l1.232,98.528l0,0c0,0,8.272-61.152,23.904-95.136c15.632-33.968,23.104-35.328,16.32-51.648
	c-6.8-16.304-55.728-95.136-86.976-113.488c-31.264-18.352-55.04-31.936-87.664-35.328s-50.96-13.6-83.584,6.112
	c-32.608,19.712-67.952,54.368-85.616,75.44s-63.872,69.312-65.92,79.504c-2.032,10.192,9.872,45.92,9.872,45.92
	C76.656,269.488,77.552,303.216,77.456,338.32L77.456,338.32z"/>
<circle style="fill:#3E4347;" cx="184.08" cy="313.104" r="32.64"/>
<path style="fill:#5A5F63;" d="M201.76,306.432c-2.48,1.456-6.064-0.4-8.304-3.872c-2.096-3.648-1.872-7.632,0.448-9.072
	c2.48-1.456,6.048,0.256,8.272,3.728C204.288,300.864,204.08,305.008,201.76,306.432z"/>
<circle style="fill:#3E4347;" cx="327.92" cy="313.104" r="32.64"/>
<path style="fill:#5A5F63;" d="M345.6,306.432c-2.48,1.456-6.064-0.4-8.304-3.872c-2.096-3.648-1.872-7.632,0.448-9.072
	c2.48-1.456,6.048,0.256,8.272,3.728C348.128,300.864,347.92,305.008,345.6,306.432z"/>
<g>
</g>
<g>
</g>
<g>
</g>
<g>
</g>
<g>
</g>
<g>
</g>
<g>
</g>
<g>
</g>
<g>
</g>
<g>
</g>
<g>
</g>
<g>
</g>
<g>
</g>
<g>
</g>
<g>
</g>
</svg>
