<?xml version="1.0" encoding="iso-8859-1"?>
<!-- Generator: Adobe Illustrator 19.0.0, SVG Export Plug-In . SVG Version: 6.00 Build 0)  -->
<svg version="1.1" id="Capa_1" xmlns="http://www.w3.org/2000/svg" xmlns:xlink="http://www.w3.org/1999/xlink" x="0px" y="0px"
	 viewBox="0 0 512.048 512.048" style="enable-background:new 0 0 512.048 512.048;" xml:space="preserve">
<path style="fill:#FFD93B;" d="M103.08,311.744c0,31.488-15.328,57.024-34.224,57.024c-20.16,0-34.224-25.536-34.224-57.024
	s14.064-57.024,34.224-57.024C87.752,254.72,103.08,280.256,103.08,311.744z"/>
<path style="fill:#F4C534;" d="M477.416,311.744c0,31.488-15.328,57.024-34.224,57.024c-20.16,0-34.224-25.536-34.224-57.024
	s14.064-57.024,34.224-57.024C462.088,254.72,477.416,280.256,477.416,311.744z"/>
<path style="fill:#FFD93B;" d="M447.864,302.512c0,115.776-85.968,209.536-191.84,209.536c-105.984,0-191.84-93.776-191.84-209.536
	c0-115.632,85.856-209.536,191.84-209.536C361.896,92.976,447.864,186.88,447.864,302.512z"/>
<path style="fill:#F4C534;" d="M447.864,302.512c0,115.776-85.968,209.536-191.84,209.536c-60.432,0-114.384-30.512-149.392-78.176
	c32.848,28.816,74.448,45.968,119.888,45.968c105.872,0,191.84-93.776,191.84-209.536c0-49.632-15.712-95.072-42.208-130.96
	C419.928,177.712,447.864,236.512,447.864,302.512z"/>
<path style="fill:#3E4347;" d="M196.216,375.6c-5.664,8.688-9.152,18.592-9.152,29.28c0,33.104,30.96,59.952,69.136,59.952
	s69.136-26.848,69.136-59.952c0-10.688-3.504-20.592-9.152-29.28H196.216z"/>
<path style="fill:#8F6D52;" d="M404.936,352.88c-1.344-10.8-18.384,73.44-120.88,57.68c-10.704-1.648-20.608-6.976-27.872-15.024
	l-0.16-0.192l-0.144,0.16c-7.248,8.048-17.152,13.392-27.856,15.04c-102.64,15.792-119.568-68.48-120.912-57.776
	c1.2-0.688,18.688,17.44,50.944,17.44c26.576-0.672,34-14.256,65.312-17.44c9.84-1.088,32.656,6.592,32.656,6.592
	s22.816-7.712,32.672-6.576c31.2,3.168,38.72,16.736,65.312,17.44C386.248,370.208,403.752,352.08,404.936,352.88z"/>
<path style="fill:#E24B4B;" d="M252.792,430.656c-3.792,0-7.152-0.656-10.096-1.808c-3.888-1.536-8.32-1.584-11.728,0.848
	c-7.744,5.536-13.44,13.584-16.224,22.896c11.584,7.568,25.824,12.24,41.44,12.24c15.648,0,29.92-4.688,41.52-12.288
	c-1.472-4.912-3.712-9.504-6.72-13.504c-7.152-9.504-19.712-12.16-31.248-9.216C257.608,430.368,255.304,430.656,252.792,430.656z"
	/>
<circle style="fill:#3E4347;" cx="185.464" cy="286.736" r="32"/>
<path style="fill:#5A5F63;" d="M202.808,280.192c-2.432,1.44-5.952-0.4-8.144-3.808c-2.064-3.584-1.84-7.488,0.432-8.896
	c2.432-1.44,5.936,0.24,8.128,3.648C205.288,274.72,205.096,278.784,202.808,280.192z"/>
<circle style="fill:#3E4347;" cx="326.584" cy="286.736" r="32"/>
<path style="fill:#5A5F63;" d="M343.928,280.192c-2.432,1.44-5.952-0.4-8.144-3.808c-2.064-3.584-1.84-7.488,0.432-8.896
	c2.432-1.44,5.936,0.24,8.128,3.648C346.408,274.72,346.2,278.784,343.928,280.192z"/>
<path style="fill:#8F6D52;" d="M457.384,197.92l-9.76,95.52h-19.52l-3.84-49.12c0,0-35.68-9.6-43.36-57.6
	c0,0-147.04,51.52-235.36-22.56c0,0-45.44,19.84-45.44,62.56c0,42.88-22.24,66.72-22.24,66.72h-13.6l-9.76-95.52
	C38.344,38.08,131.784,0.64,253.704,0h4.48C380.104,0.656,473.544,38.08,457.384,197.92z"/>
<g>
</g>
<g>
</g>
<g>
</g>
<g>
</g>
<g>
</g>
<g>
</g>
<g>
</g>
<g>
</g>
<g>
</g>
<g>
</g>
<g>
</g>
<g>
</g>
<g>
</g>
<g>
</g>
<g>
</g>
</svg>
