<?xml version="1.0" encoding="iso-8859-1"?>
<!-- Generator: Adobe Illustrator 22.0.0, SVG Export Plug-In . SVG Version: 6.00 Build 0)  -->
<svg xmlns="http://www.w3.org/2000/svg" xmlns:xlink="http://www.w3.org/1999/xlink" version="1.1" x="0px" y="0px" viewBox="0 0 58 58" style="enable-background:new 0 0 58 58;" xml:space="preserve" width="512" height="512">
<g id="_x32_4-Bearded">
	<path style="fill:#FBCE9D;" d="M50.668,50.219c-0.383-0.216-0.77-0.453-1.156-0.687c-1.828-1.106-3.661-2.393-5.268-3.839   c-0.329,0.247-0.687,0.46-1.089,0.589c-0.34,0.109-0.672,0.169-0.992,0.188c-1.226,0.07-2.326,0.651-2.955,1.629   c-0.557,0.865-1.264,1.642-2.072,2.328c-2.105,1.788-4.96,2.899-8.119,2.899c-3.196,0-6.083-1.134-8.194-2.957c0,0,0,0,0,0   c-0.777-0.672-1.457-1.43-1.997-2.269c-0.629-0.977-1.729-1.559-2.954-1.629c-0.321-0.018-0.654-0.078-0.995-0.188   c-0.317-0.102-0.607-0.256-0.881-0.433c-1.775,1.417-3.756,2.678-5.612,3.761c-0.354,0.207-0.711,0.418-1.052,0.61   C4.027,52.079,1,53.92,1,57h10.248h0.348H29h17.404h0.258H57C57,53.921,53.973,52.079,50.668,50.219z"/>
	<g>
		<path style="fill:#E7ECED;" d="M48.812,56.565c1.727-0.166,3.513-0.021,5.252-0.049c0.434-0.007,0.865-0.002,1.295,0.014    c-0.46-0.505-0.937-0.982-1.302-1.407c-1.069-1.241-2.192-2.422-3.391-3.538c-0.558-0.519-0.604-1.151-0.369-1.678    c-1.911-1.211-3.829-2.625-5.509-4.213c-0.34,0.269-0.711,0.501-1.128,0.641c-0.352,0.119-0.696,0.184-1.028,0.204    c-1.27,0.076-2.409,0.709-3.06,1.773c-0.577,0.942-1.309,1.787-2.146,2.534C35.488,53.967,32.778,56.912,29,58h18.293    C47.418,57.302,47.925,56.65,48.812,56.565z"/>
		<path style="fill:#E7ECED;" d="M7.381,52.588c-1.122,0.834-2.396,1.383-3.6,2.081c-0.599,0.347-1.239,0.72-1.665,1.28    c-0.139,0.183-0.354,0.697-0.487,0.924c0.088,0.033,0.205,0.078,0.338,0.072c0.284-0.012,0.568-0.006,0.852-0.025    c0.647-0.043,1.287-0.155,1.93-0.236c1.431-0.182,2.873-0.118,4.313-0.118c0.965,0,1.478,0.691,1.552,1.435H29    c-3.811-1.098-6.533-4.075-8.47-7.219c-0.805-0.731-1.509-1.556-2.068-2.47c-0.651-1.064-1.79-1.697-3.059-1.773    c-0.333-0.02-0.677-0.085-1.03-0.205c-0.328-0.111-0.629-0.278-0.912-0.471c-1.85,1.551-3.916,2.933-5.849,4.116    C8.204,50.663,8.329,51.884,7.381,52.588z"/>
	</g>
	<path style="fill:#FBCE9D;" d="M51.442,50.62c-0.554-0.327-1.112-0.68-1.671-1.044C48.048,51.7,47,54.454,47,57.472   c0,0.178,0.018,0.352,0.025,0.528H58C58,54.648,54.865,52.643,51.442,50.62z"/>
	<path style="fill:#FBCE9D;" d="M11,57.472c0-3.009-1.042-5.757-2.757-7.879c-0.573,0.358-1.14,0.705-1.685,1.027   C3.135,52.643,0,54.648,0,58h10.975C10.982,57.824,11,57.65,11,57.472z"/>
	<path style="fill:#D3A87D;" d="M29,51c-3.31,0-6.284,1.766-8.47-0.219c1.938,3.144,4.66,6.121,8.47,7.219   c3.778-1.088,6.488-4.033,8.426-7.155C35.246,52.791,32.273,51,29,51z"/>
	<path style="fill:#D3A87D;" d="M49,24h-0.438C48.23,25.231,43.73,23.916,43,25c-0.481,0.714,3.212,3.662,3.084,3.866   C46.271,29.016,46.822,30.951,47,31c0.537,0.148,0.643-1.255,1.065-1H49c1.657,0,3-1.343,3-3S50.657,24,49,24z"/>
	<path style="fill:#D3A87D;" d="M9.643,24H9c-1.657,0-3,1.343-3,3s1.343,3,3,3h0.728c0.408-0.255,0.735,1.148,1.272,1   c0.212-0.058,0.77-1.925,1-2l1-1C11.791,27.597,10.074,25.89,9.643,24z"/>
	<path style="fill:#FBCE9D;" d="M47,32l-0.264-1.896c-0.672-0.484-0.814-1.491-0.425-2.197c-0.038-0.18-0.063-0.299-0.061-0.298   L47,21c0-2.75-2.147-5.969-4-8c-2.72-2.982-7-3-7-3c-2.156,2-10,1-10,1c-5.505,2.198-10.061,1.103-10,1   c-0.958,0.444-1.774,1.037-2.463,1.69C11.366,15.745,11,19.011,11,22v3l1,3l-0.094,2.891c0,0.958-1.058,2.147-0.906,3.109   c0.373,0.747,2.36,0.124,3.318,0.12c0.009,0,0.019,0,0.028,0c2.136,0,3.894,5.519,4.654,6.88c2.189-2.903,6.877-5,11-5   s8.811,1.097,11,4c0.76-1.361,0.55-5.88,2.687-5.88C43.696,34.12,44.991,38,45,38c1.002,0.004,1.671-2.195,2-3   C47.094,34.381,46.968,32.619,47,32z"/>
	<path style="fill:#C49716;" d="M17,21.6c-0.392,0-0.764-0.232-0.924-0.617c-0.212-0.51,0.03-1.095,0.54-1.307   c2.046-0.85,4.637-0.898,6.3-0.118c0.5,0.234,0.715,0.83,0.481,1.33c-0.234,0.5-0.83,0.715-1.33,0.48   c-1.154-0.541-3.168-0.474-4.684,0.154C17.258,21.575,17.128,21.6,17,21.6z"/>
	<path style="fill:#C49716;" d="M35,21.6c-0.392,0-0.764-0.232-0.924-0.617c-0.212-0.51,0.03-1.095,0.54-1.307   c2.046-0.85,4.637-0.898,6.3-0.118c0.5,0.234,0.715,0.83,0.481,1.33c-0.234,0.5-0.829,0.715-1.33,0.48   c-1.154-0.541-3.168-0.474-4.684,0.154C35.258,21.575,35.128,21.6,35,21.6z"/>
	<path style="fill:#366DB6;" d="M20.519,26c-1.088,0-2.06-0.497-2.739-1.398c-0.13-0.173-0.201-0.385-0.201-0.602   c0-1.103,0.897-2,2-2c0.552,0,1,0.448,1,1c0,0.399-0.233,0.743-0.571,0.904c0.292,0.119,0.633,0.161,0.983-0.043   c0.478-0.277,1.09-0.113,1.367,0.364c0.277,0.478,0.114,1.09-0.364,1.367C21.525,25.862,21.029,26,20.519,26z"/>
	<path style="fill:#366DB6;" d="M38.492,26c-1.088,0-2.06-0.497-2.739-1.398c-0.13-0.173-0.201-0.385-0.201-0.602   c0-1.103,0.897-2,2-2c0.552,0,1,0.448,1,1c0,0.399-0.233,0.743-0.571,0.904c0.292,0.119,0.633,0.161,0.983-0.043   c0.478-0.277,1.089-0.113,1.367,0.364c0.277,0.478,0.114,1.09-0.364,1.367C39.498,25.862,39.002,26,38.492,26z"/>
	<path style="fill:#D3A87D;" d="M29,32c-0.552,0-1-0.448-1-1s0.448-1,1-1c0.552,0,1-0.449,1-1c0-0.322-0.15-0.617-0.41-0.808   c-1.01-0.74-1.59-1.808-1.59-2.929V25c0-0.552,0.448-1,1-1s1,0.448,1,1v0.263c0,0.653,0.484,1.105,0.772,1.316   C31.541,27.143,32,28.048,32,29C32,30.654,30.654,32,29,32z"/>
	<path d="M30.995,49c-0.334,0-0.661-0.167-0.85-0.472c-0.412-0.661-0.89-0.661-1.302,0c-0.291,0.469-0.908,0.613-1.377,0.321   c-0.469-0.292-0.613-0.908-0.321-1.377C27.727,46.537,28.583,46,29.494,46s1.768,0.537,2.349,1.472   c0.292,0.469,0.148,1.085-0.321,1.377C31.358,48.951,31.175,49,30.995,49z"/>
	<path style="fill:#C49716;" d="M46.624,29.386c-0.212-0.058-0.394-0.653-0.624-0.727l-0.025,3.132c0,1.338-0.887,2.335-2.26,2.329   c-0.009,0-0.019,0-0.028,0c-2.137,0-3.961,0.961-4.721,2.322C36.777,33.539,33.14,34,29.016,34s-7.76-0.461-9.95,2.442   c-0.76-1.361-2.584-2.322-4.721-2.322c-0.009,0-0.019,0-0.028,0c-1.374,0.006-2.343-0.991-2.343-2.329v-3   c-0.23,0.075-0.617,0.537-0.829,0.595c-2.965,0.817-4.024,3.493-2.432,5.464c0.544,0.673,0.821,1.515,0.611,2.347   c-0.053,0.211-0.081,0.428-0.081,0.65c0,1.18,0.755,2.225,1.928,2.905c0.52,0.301,0.773,0.901,0.673,1.482   c-0.093,0.542-0.062,1.124,0.144,1.734c0.368,1.092,1.269,1.987,2.384,2.365c0.353,0.12,0.697,0.185,1.03,0.205   c1.269,0.076,2.408,0.709,3.059,1.773C20.541,51.707,24.487,54,29.016,54c4.529,0,8.476-2.293,10.555-5.689   c0.651-1.064,1.791-1.697,3.06-1.773c0.332-0.02,0.675-0.085,1.027-0.204c1.115-0.377,2.016-1.271,2.385-2.363   c0.206-0.611,0.238-1.195,0.144-1.737c-0.1-0.581,0.154-1.18,0.673-1.481c1.173-0.68,1.928-1.726,1.928-2.905   c0-0.222-0.028-0.44-0.081-0.65c-0.21-0.832,0.067-1.673,0.611-2.347C50.911,32.88,49.588,30.203,46.624,29.386z"/>
	<path style="fill:#A07918;" d="M29.494,43c1.933,0,3.5-2.527,3.5-4h-7C25.994,40.473,27.561,43,29.494,43z"/>
	<path style="fill:#EBBA16;" d="M12,25v-2.326c0-2.989,1.109-5.929,3.279-7.984c0.69-0.653,1.505-1.246,2.463-1.69   c-0.06,0.103,5.274,2.198,10.778,0c0,0,6.467,0,8.623-2c0,0,3.33,1.491,6.05,4.473C45.047,17.504,46,20.201,46,22.951V29   c0,0,0.305-0.5,0.979-1.5C48.345,25.472,49,23.099,49,20.708v-1.708c0-2.068-0.503-4.112-1.52-5.952   c-1.327-2.401-3.764-5.486-8.18-8.047c0,0-0.606-1.688-3.183-2.953c-1.761-0.865-3.794-1.125-5.771-0.901   C29.187,1.278,27.953,1.527,27.443,2c0,0-6.467,0-7.545-2c0,0-2.156,2-2.156,4c0,0-1.078-1-3.234-1c0,0-2.156,3-1.078,5   C13.431,8,9,10,9,18c0,0,0,9,3,10V25z"/>
	<path style="fill:#C49716;" d="M28.521,14c-0.427,0-0.822-0.276-0.955-0.705c-0.163-0.527,0.132-1.087,0.66-1.251   c2.41-0.745,2.526-2.022,2.53-2.076c0.037-0.538,0.492-0.973,1.033-0.949c0.539,0.019,0.966,0.442,0.966,0.98   c0,0.112-0.045,2.751-3.938,3.956C28.718,13.986,28.619,14,28.521,14z"/>
</g>

</svg>
