<?xml version="1.0" encoding="iso-8859-1"?>
<!-- Generator: Adobe Illustrator 22.0.0, SVG Export Plug-In . SVG Version: 6.00 Build 0)  -->
<svg xmlns="http://www.w3.org/2000/svg" xmlns:xlink="http://www.w3.org/1999/xlink" version="1.1" x="0px" y="0px" viewBox="0 0 58 54.027" style="enable-background:new 0 0 58 54.027;" xml:space="preserve" width="512" height="512">
<g id="_x32_5-Traditional">
	<path style="fill:#E7ECED;" d="M48.692,46.565l-6.658-2.725c-1.214-0.551-2.459-1.159-3.724-1.862l-1.154-0.571   C35.089,43.311,32.407,44.74,29,44.74s-6.089-1.429-8.156-3.333l-1.154,0.571c-1.265,0.703-2.51,1.312-3.724,1.862l-6.658,2.725   C4.97,48.287,2,49.754,2,53.027h6.517h7.448H29h13.034h7.448H56C56,49.754,53.03,48.287,48.692,46.565z"/>
	<path style="fill:#E7ECED;" d="M39,42.027l-1.24-0.62c-2.22,2.068-5.101,3.62-8.76,3.62s-6.54-1.552-8.76-3.62L19,42.027   c-1.358,0.764-2.696,1.425-4,2.022v9.978h14h14v-9.978C41.696,43.452,40.358,42.791,39,42.027z"/>
	<path style="fill:#EDB883;" d="M39,42.027l-1.24-0.62H20.24L19,42.027c-0.619,0.348-1.232,0.669-1.841,0.978   c2.479,4.214,6.849,7.022,11.841,7.022s9.362-2.808,11.841-7.022C40.232,42.696,39.619,42.375,39,42.027z"/>
	<path style="fill:#FBCE9D;" d="M45,17.945c-3.467-2.403-10.445-6.917-16-6.917s-11.533,4.515-15,6.917l1,15.53   c0.624,1.595,1.407,3.126,2.375,4.553c2.375,3.5,6.125,7,11.625,7s9.25-3.5,11.625-7c0.968-1.427,1.751-2.958,2.375-4.553   L45,17.945z"/>
	<g>
		<path style="fill:#BE7C6D;" d="M37,36.027c0,0,2-3-8-3s-8,3-8,3l-6-6.667v4.114c0.624,1.595,1.407,3.126,2.375,4.553    c2.375,3.5,6.125,7,11.625,7s9.25-3.5,11.625-7c0.968-1.427,1.751-2.958,2.375-4.553V29.36L37,36.027z"/>
	</g>
	<path style="fill:#E7ECED;" d="M45.364,17.321c-0.033-0.153-0.066-0.305-0.101-0.456c-5.16-22.487-27.365-22.487-32.525,0   c-0.035,0.151-0.068,0.303-0.101,0.456c-0.24,1.123-0.475,2.282-0.705,3.46c0.805-1.042,1.845-1.998,3.069-2.844h0.012   c3.467-2.398,8.439-3.91,13.988-3.91s10.521,1.512,13.988,3.91H43c1.224,0.847,2.264,1.802,3.069,2.844   C45.839,19.603,45.604,18.444,45.364,17.321z"/>
	<path style="fill:#D39B92;" d="M29.991,42.027h-2c-0.552,0-1-0.448-1-1s0.448-1,1-1h2c0.552,0,1,0.448,1,1   S30.544,42.027,29.991,42.027z"/>
	<path style="fill:#D39B92;" d="M26.379,38.469c-1.702,0-2.761-0.516-2.826-0.548c-0.494-0.247-0.694-0.848-0.447-1.342   c0.246-0.492,0.842-0.69,1.334-0.451c0.084,0.04,1.729,0.789,4.244-0.05c0.523-0.173,1.09,0.108,1.265,0.632   c0.175,0.524-0.109,1.09-0.633,1.265C28.21,38.344,27.217,38.469,26.379,38.469z"/>
	<path style="fill:#D39B92;" d="M31.621,38.469c-0.838,0-1.831-0.125-2.937-0.494c-0.524-0.175-0.807-0.741-0.633-1.265   c0.175-0.523,0.743-0.806,1.265-0.632c2.528,0.843,4.177,0.083,4.245,0.05c0.495-0.234,1.093-0.03,1.333,0.463   s0.043,1.085-0.447,1.331C34.382,37.954,33.322,38.469,31.621,38.469z"/>
	<path style="fill:#D3A87D;" d="M29,31.027c-1.991,0-3-0.673-3-2c0-0.552,0.448-1,1-1c0.518,0,0.943,0.393,0.995,0.897   c0.12,0.041,0.401,0.103,1.005,0.103c0.623,0,0.902-0.065,1.016-0.106c0.095-0.483,0.537-0.867,1.024-0.848   c0.535,0.022,0.96,0.418,0.96,0.955C32,30.354,30.991,31.027,29,31.027z"/>
	<path style="fill:#28384C;" d="M46.999,17.027c-0.191,0-0.385-0.055-0.556-0.169c-9.618-6.444-25.269-6.444-34.887,0   c-0.459,0.307-1.08,0.185-1.387-0.274c-0.307-0.459-0.185-1.08,0.274-1.387c10.232-6.856,26.881-6.856,37.113,0   c0.459,0.307,0.582,0.928,0.274,1.387C47.638,16.872,47.321,17.027,46.999,17.027z"/>
	<path style="fill:#28384C;" d="M46.999,14.027c-0.191,0-0.385-0.055-0.556-0.169c-9.618-6.444-25.269-6.444-34.887,0   c-0.459,0.307-1.08,0.186-1.387-0.274c-0.307-0.459-0.185-1.08,0.274-1.387c10.232-6.856,26.881-6.856,37.113,0   c0.459,0.307,0.582,0.928,0.274,1.387C47.638,13.872,47.321,14.027,46.999,14.027z"/>
	<g>
		<path style="fill:#CACDCE;" d="M11.931,20.782C9.03,35.647,7,54.027,7,54.027h8v-36.09C13.776,18.784,12.736,19.739,11.931,20.782    z"/>
		<path style="fill:#CACDCE;" d="M46.069,20.782c-0.805-1.042-1.845-1.998-3.069-2.845v36.09h8    C51,54.027,48.97,35.647,46.069,20.782z"/>
	</g>
	<path style="fill:#E7ECED;" d="M0,54.027h7c0,0,0.306-2.769,0.849-7.018C3.19,48.879,0,50.472,0,54.027z"/>
	<path style="fill:#E7ECED;" d="M50.151,47.009C50.694,51.258,51,54.027,51,54.027h7C58,50.472,54.81,48.879,50.151,47.009z"/>
	<g>
		<path style="fill:#556080;" d="M15,20.545c0,1.836,0.156,7.036,4,7.381c9.25,0.831,10-5.545,10-7.381    C24.662,18.485,19.338,18.485,15,20.545z"/>
	</g>
	<path style="fill:#556080;" d="M29,20.545c0,1.836,0.75,8.212,10,7.381c3.844-0.345,4-5.545,4-7.381   C38.662,18.485,33.338,18.485,29,20.545z"/>
	<path style="fill:#727FA0;" d="M24.144,19.151l-5.34,4.925c-0.406,0.375-0.432,1.007-0.057,1.413   c0.197,0.214,0.466,0.322,0.735,0.322c0.242,0,0.485-0.087,0.678-0.265l6.392-5.894C25.762,19.429,24.96,19.255,24.144,19.151z"/>
	<path style="fill:#727FA0;" d="M18.831,20.512l-3.515,3.372c0.157,0.715,0.389,1.431,0.742,2.059l4.157-3.988   c0.398-0.382,0.412-1.016,0.029-1.414C19.863,20.144,19.23,20.13,18.831,20.512z"/>
</g>

</svg>
