<?xml version="1.0" encoding="iso-8859-1"?>
<!-- Generator: Adobe Illustrator 19.0.0, SVG Export Plug-In . SVG Version: 6.00 Build 0)  -->
<svg version="1.1" id="Capa_1" xmlns="http://www.w3.org/2000/svg" xmlns:xlink="http://www.w3.org/1999/xlink" x="0px" y="0px"
	 viewBox="0 0 511.995 511.995" style="enable-background:new 0 0 511.995 511.995;" xml:space="preserve">
<g>
	<path style="fill:#846144;" d="M454.461,158.651l17.088,284.832c1.568,26.256,13.376,50.848,32.88,68.512l0,0l0,0
		c-77.536,0-151.424-32.944-203.248-90.624l-4.032-4.48C297.149,416.875,235.213,140.859,454.461,158.651z"/>
	<path style="fill:#846144;" d="M57.533,158.651L40.445,443.483c-1.568,26.256-13.376,50.848-32.88,68.512l0,0l0,0
		c77.536,0,151.424-32.944,203.248-90.624l4.032-4.48C214.845,416.875,276.781,140.859,57.533,158.651z"/>
</g>
<path style="fill:#FFD93B;" d="M96.669,291.691c0,32.816-15.968,59.408-35.648,59.408c-21.008,0-35.648-26.592-35.648-59.408
	c0-32.8,14.64-59.408,35.648-59.408C80.717,232.283,96.669,258.875,96.669,291.691z"/>
<path style="fill:#F4C534;" d="M486.621,291.691c0,32.816-15.968,59.408-35.648,59.408c-21.008,0-35.648-26.592-35.648-59.408
	c0-32.8,14.656-59.408,35.648-59.408C470.669,232.283,486.621,258.875,486.621,291.691z"/>
<path style="fill:#FFD93B;" d="M455.837,282.074c0,120.608-89.552,218.288-199.84,218.288c-110.416,0-199.84-97.68-199.84-218.288
	c0-120.464,89.424-218.288,199.84-218.288C366.285,63.787,455.837,161.611,455.837,282.074z"/>
<path style="fill:#F4C534;" d="M455.837,282.074c0,120.608-89.552,218.288-199.84,218.288c-62.944,0-119.152-31.792-155.632-81.44
	c34.224,30.016,77.568,47.888,124.896,47.888c110.288,0,199.84-97.68,199.84-218.288c0-51.712-16.368-99.04-43.968-136.432
	C426.733,152.059,455.837,213.307,455.837,282.074z"/>
<ellipse style="fill:#3E4347;" cx="184.147" cy="267.179" rx="32.992" ry="32.992"/>
<path style="fill:#5A5F63;" d="M203.181,261.771c-2.336,2.064-6.416,0.992-9.264-2.256c-2.688-3.344-3.072-7.648-0.736-9.696
	c2.336-2.064,6.416-0.992,9.264,2.256C205.133,255.403,205.517,259.707,203.181,261.771z"/>
<ellipse style="fill:#3E4347;" cx="327.828" cy="267.185" rx="32.992" ry="32.992"/>
<path style="fill:#5A5F63;" d="M346.877,261.771c-2.336,2.064-6.416,0.992-9.264-2.256c-2.688-3.344-3.072-7.648-0.736-9.696
	c2.336-2.064,6.416-0.992,9.264,2.256C348.829,255.403,349.213,259.707,346.877,261.771z"/>
<path style="fill:#E24B4B;" d="M252.381,428.987c-37.296,0-72.416-20.672-90.144-54.944c-3.456-6.688-0.832-14.928,5.856-18.384
	c6.72-3.504,14.928-0.848,18.384,5.856c15.568,30.112,49.488,45.856,82.48,38.304c3.184-0.72,6.496-1.792,10.432-3.328
	c7.008-2.752,14.928,0.688,17.68,7.712c2.752,7.008-0.688,14.928-7.712,17.68c-5.248,2.064-9.792,3.504-14.352,4.544
	C267.469,428.139,259.885,428.987,252.381,428.987z"/>
<path style="fill:#846144;" d="M273.277,153.003c0,0,35.728,42.272,101.392,64.064l-17.824-40.288c0,0,26.928,36.976,56.304,52.176
	c29.376,15.184,37.84,62.736,37.84,62.736s29.44-85.2-1.376-179.056c-39.44-120.048-290.816-152.72-287.44-55.952
	c0,0-65.888-23.168-90.304,31.424c-36.256,81.072-4.608,203.584-4.608,203.584s6.032-50.848,26.752-75.936
	s21.968-46.224,21.968-46.224s8.32,10.56,2.224,25.76C118.221,195.275,157.037,100.171,273.277,153.003z"/>
<path style="fill:#E88EA7;" d="M221.389,77.755c-13.76,8.48-33.76,6.72-46.56,4c-5.44,12.32-15.84,29.12-30.72,35.04
	c-19.04,10.24-16.8-1.92-24.64-18.72c-8.96-16.32-20-21.76-0.48-31.04c13.76-8.48,33.92-6.72,46.56-3.84
	c5.28-12.16,15.68-29.28,30.72-35.2c19.04-10.24,16.96,1.92,24.64,18.72C229.869,63.035,240.909,68.475,221.389,77.755z"/>
<circle style="fill:#FC97B2;" cx="170.189" cy="72.395" r="18.848"/>
<g>
</g>
<g>
</g>
<g>
</g>
<g>
</g>
<g>
</g>
<g>
</g>
<g>
</g>
<g>
</g>
<g>
</g>
<g>
</g>
<g>
</g>
<g>
</g>
<g>
</g>
<g>
</g>
<g>
</g>
</svg>
