<?xml version="1.0" encoding="iso-8859-1"?>
<!-- Generator: Adobe Illustrator 19.0.0, SVG Export Plug-In . SVG Version: 6.00 Build 0)  -->
<svg version="1.1" id="Capa_1" xmlns="http://www.w3.org/2000/svg" xmlns:xlink="http://www.w3.org/1999/xlink" x="0px" y="0px"
	 viewBox="0 0 512.004 512.004" style="enable-background:new 0 0 512.004 512.004;" xml:space="preserve">
<path style="fill:#FFD93B;" d="M95.65,301.988c0,33.024-16.064,59.792-35.888,59.792c-21.136,0-35.888-26.768-35.888-59.792
	s14.736-59.792,35.888-59.792C79.586,242.196,95.65,268.964,95.65,301.988z"/>
<path style="fill:#F4C534;" d="M488.13,301.988c0,33.024-16.064,59.792-35.888,59.792c-21.136,0-35.888-26.768-35.888-59.792
	s14.736-59.792,35.888-59.792C472.05,242.196,488.13,268.964,488.13,301.988z"/>
<path style="fill:#FFD93B;" d="M457.138,292.308c0,121.392-90.144,219.696-201.136,219.696
	c-111.12,0-201.136-98.304-201.136-219.696c0-121.248,90.016-219.696,201.136-219.696
	C366.994,72.612,457.138,171.06,457.138,292.308z"/>
<path style="fill:#F4C534;" d="M457.138,292.308c0,121.392-90.144,219.696-201.136,219.696c-63.36,0-119.92-32-156.624-81.968
	c34.448,30.208,78.064,48.192,125.712,48.192c110.992,0,201.12-98.32,201.12-219.696c0-52.048-16.464-99.68-44.24-137.312
	C427.842,161.46,457.138,223.108,457.138,292.308z"/>
<path style="fill:#846144;" d="M63.89,167.892c-3.792,13.68-6.56,27.712-7.44,41.216c-5.12,78.016,4.368,103.056,5.488,107.52l0,0
	c2.64-5.488,22.24-36.768,29.408-79.088c8.096-47.76,71.872-79.216,71.872-79.216s-16.336,13.552-19.632,36.4
	c0,0,51.136-29.28,108.448-33.552l-13.552,23.28c186.096-78.608,193.12,45.824,209.12,132.16l0,0
	c5.984-22.16,39.824-183.12-16.016-239.392c-11.408-11.488-29.76-10.896-44.272-5.408c-1.504,0.56-2.96,1.36-4.432,2.16
	C342.434-42.364,122.386-28.972,63.89,167.892z"/>
<ellipse style="fill:#3E4347;" cx="183.669" cy="277.349" rx="33.198" ry="33.198"/>
<path style="fill:#5A5F63;" d="M202.85,271.876c-2.352,2.08-6.464,1.008-9.328-2.272c-2.704-3.36-3.088-7.696-0.736-9.76
	c2.352-2.08,6.464-1.008,9.312,2.272C204.818,265.476,205.186,269.796,202.85,271.876z"/>
<ellipse style="fill:#3E4347;" cx="328.282" cy="277.357" rx="33.198" ry="33.198"/>
<path style="fill:#5A5F63;" d="M347.474,271.876c-2.352,2.08-6.464,1.008-9.328-2.272c-2.704-3.36-3.088-7.696-0.736-9.76
	c2.352-2.08,6.464-1.008,9.312,2.272C349.442,265.476,349.81,269.796,347.474,271.876z"/>
<path style="fill:#3E4347;" d="M252.354,440.18c-37.536,0-72.88-20.8-90.72-55.296c-3.488-6.736-0.848-15.024,5.888-18.496
	c6.752-3.52,15.024-0.848,18.496,5.888c15.664,30.304,49.808,46.144,83.024,38.56c3.216-0.736,6.544-1.792,10.512-3.36
	c7.056-2.784,15.024,0.704,17.808,7.76c2.784,7.056-0.704,15.024-7.76,17.808c-5.28,2.064-9.856,3.52-14.448,4.56
	C267.554,439.332,259.906,440.18,252.354,440.18z"/>
<g>
</g>
<g>
</g>
<g>
</g>
<g>
</g>
<g>
</g>
<g>
</g>
<g>
</g>
<g>
</g>
<g>
</g>
<g>
</g>
<g>
</g>
<g>
</g>
<g>
</g>
<g>
</g>
<g>
</g>
</svg>
