<?xml version="1.0" encoding="iso-8859-1"?>
<!-- Generator: Adobe Illustrator 22.0.0, SVG Export Plug-In . SVG Version: 6.00 Build 0)  -->
<svg xmlns="http://www.w3.org/2000/svg" xmlns:xlink="http://www.w3.org/1999/xlink" version="1.1" x="0px" y="0px" viewBox="0 0 58 58" style="enable-background:new 0 0 58 58;" xml:space="preserve" width="512" height="512">
<g id="_x32_7-Moustache">
	<path style="fill:#D3A87D;" d="M16,32l-2-6c-1.126-0.375-3.829,0.122-4.269-1.608C8.799,24.981,8,26.434,8,30   c0,1.028,1.802,6,3.333,6c0.508,0,0.98-0.325,1.385-0.879C12.255,33.431,16,33.704,16,32z"/>
	<path style="fill:#D3A87D;" d="M48.414,24.504C48.081,25.554,45.63,25.065,45,26c-0.674,1-3,2-3,2v1   c0,1.704,3.745,4.431,3.282,6.121C45.686,35.675,46.159,36,46.667,36C48.198,36,50,31.028,50,30   C50,26.624,49.282,25.152,48.414,24.504z"/>
	<path style="fill:#DD352E;" d="M29.125,56.336c1.063,0,1.582,0.839,1.563,1.664H58c0-6-10.036-6.606-18.614-12.201   c-0.108-0.079-0.217-0.16-0.325-0.241H18.939c-0.108,0.081-0.216,0.161-0.325,0.241C10.036,51.394,0,52,0,58h27.145   c0.017-0.759,0.495-1.498,1.427-1.567C28.738,56.375,28.918,56.336,29.125,56.336z"/>
	<path style="fill:#FBCE9D;" d="M38,9c-2.156,2-11,1-11,1c-5.505,2.198-10.061-0.587-10-0.69c-0.958,0.444-1.774,1.037-2.464,1.69   C12.366,13.055,12,19.685,12,22.674V25v3v2c0,9.615,7.991,20,16.981,20h0.039C38.009,50,46,39.615,46,30v-1l2-7   c0-2.75-1.147-5.969-3-8C42.28,11.018,38,9,38,9z"/>
	<path style="fill:#9B5D53;" d="M17,24.6c-0.392,0-0.764-0.232-0.924-0.617c-0.212-0.51,0.03-1.095,0.54-1.307   c2.046-0.85,4.637-0.898,6.3-0.118c0.5,0.234,0.715,0.83,0.481,1.33c-0.234,0.5-0.83,0.715-1.33,0.48   c-1.154-0.541-3.168-0.475-4.684,0.154C17.258,24.575,17.128,24.6,17,24.6z"/>
	<path style="fill:#9B5D53;" d="M35,24.6c-0.392,0-0.764-0.232-0.924-0.617c-0.212-0.51,0.03-1.095,0.54-1.307   c2.046-0.85,4.637-0.897,6.301-0.118c0.5,0.234,0.715,0.83,0.48,1.33c-0.234,0.499-0.83,0.714-1.33,0.48   c-1.154-0.542-3.167-0.475-4.684,0.154C35.258,24.575,35.128,24.6,35,24.6z"/>
	<path style="fill:#28384C;" d="M20.519,29c-1.088,0-2.06-0.497-2.739-1.398c-0.13-0.173-0.201-0.385-0.201-0.602   c0-1.103,0.897-2,2-2c0.552,0,1,0.448,1,1c0,0.399-0.233,0.743-0.571,0.904c0.292,0.119,0.633,0.16,0.983-0.043   c0.478-0.276,1.09-0.114,1.367,0.364c0.277,0.478,0.114,1.09-0.364,1.367C21.525,28.862,21.029,29,20.519,29z"/>
	<path style="fill:#28384C;" d="M38.492,29c-1.088,0-2.061-0.497-2.739-1.398c-0.131-0.173-0.201-0.385-0.201-0.602   c0-1.103,0.897-2,2-2c0.552,0,1,0.448,1,1c0,0.399-0.233,0.743-0.571,0.904c0.292,0.117,0.633,0.16,0.982-0.043   c0.478-0.276,1.089-0.116,1.367,0.363c0.277,0.478,0.114,1.09-0.363,1.367C39.498,28.862,39.002,29,38.492,29z"/>
	<path style="fill:#D3A87D;" d="M29,34c-0.552,0-1-0.448-1-1s0.448-1,1-1c0.552,0,1-0.449,1-1c0-0.322-0.15-0.617-0.41-0.808   c-1.01-0.74-1.59-1.808-1.59-2.929V27c0-0.552,0.448-1,1-1s1,0.448,1,1v0.263c0,0.653,0.484,1.105,0.772,1.316   C31.541,29.143,32,30.048,32,31C32,32.654,30.654,34,29,34z"/>
	<path style="fill:#9B5D53;" d="M17.005,41.748c0,0,3.748,4.498,10.495,0.75c0,0,1.499-0.75,1.499-2.249   C29,39.499,28.25,38,26.751,38C24.502,38,21.503,41.748,17.005,41.748z"/>
	<path style="fill:#9B5D53;" d="M40.995,41.748c0,0-3.748,4.498-10.495,0.75c0,0-1.499-0.75-1.499-2.249   C29,39.499,29.75,38,31.249,38C33.498,38,36.497,41.748,40.995,41.748z"/>
	<path style="fill:#B02721;" d="M37.641,46.764c-0.211,0.164-0.422,0.326-0.638,0.479c-0.18,0.128-0.363,0.248-0.546,0.368   c-0.17,0.111-0.34,0.219-0.513,0.323c-0.219,0.132-0.439,0.259-0.662,0.38c-0.127,0.068-0.255,0.132-0.383,0.196   c-0.266,0.135-0.533,0.266-0.804,0.384c-0.027,0.012-0.055,0.021-0.082,0.033c-1.054,0.45-2.145,0.766-3.259,0.93   c0,0-0.001,0-0.001,0C32.295,50.716,36.39,53.17,37,55l5.888-7.197c-1.175-0.596-2.352-1.255-3.502-2.005   c-0.108-0.079-0.217-0.16-0.325-0.241c-0.329,0.311-0.669,0.607-1.014,0.891C37.914,46.558,37.776,46.659,37.641,46.764z"/>
	<path style="fill:#B02721;" d="M21,55c0.61-1.83,4.705-4.284,6.249-5.143c0,0,0,0,0,0c-1.115-0.164-2.206-0.48-3.26-0.93   c-0.027-0.012-0.055-0.021-0.082-0.033c-0.271-0.118-0.538-0.249-0.804-0.384c-0.128-0.065-0.256-0.128-0.383-0.196   c-0.223-0.121-0.444-0.248-0.662-0.38c-0.173-0.104-0.343-0.212-0.513-0.323c-0.183-0.12-0.366-0.24-0.546-0.368   c-0.216-0.153-0.427-0.315-0.638-0.479c-0.135-0.105-0.273-0.206-0.406-0.316c-0.346-0.284-0.685-0.579-1.014-0.891   c-0.108,0.081-0.216,0.161-0.325,0.241c-1.265,0.825-2.562,1.54-3.854,2.182L21,55z"/>
	<path style="fill:#E7ECED;" d="M27,58h2h2v-8.186C30.346,49.924,29.687,50,29.019,50H29h-0.019c-0.668,0-1.327-0.076-1.981-0.186   V58z"/>
	<path style="fill:#BE7C6D;" d="M12,25v-2.326c0-2.989,1.109-5.929,3.279-7.984c0.69-0.653,1.505-1.246,2.463-1.69   c-0.06,0.103,5.274,2.198,10.778,0c0,0,6.467,0,8.623-2c0,0,3.33,1.491,6.05,4.473C45.047,17.504,46,20.201,46,22.951V29   c0,0,0.305-0.5,0.979-1.5C48.345,25.472,49,23.099,49,20.708v-1.708c0-2.068-0.503-4.112-1.52-5.952   c-1.327-2.401-3.764-5.486-8.18-8.047c0,0-0.606-1.688-3.183-2.953c-1.761-0.865-3.794-1.125-5.771-0.901   C29.187,1.278,27.953,1.527,27.443,2c0,0-6.467,0-7.545-2c0,0-2.156,2-2.156,4c0,0-1.078-1-3.234-1c0,0-2.156,3-1.078,5   C13.431,8,9,10,9,18c0,0,0,9,3,10V25z"/>
	<path style="fill:#9B5D53;" d="M27.233,9.004c-1.379,0-2.757-0.401-3.831-1.203c-0.443-0.33-0.534-0.957-0.204-1.399   s0.957-0.534,1.399-0.203c1.429,1.065,3.842,1.066,5.271,0c2.149-1.603,5.514-1.602,7.663,0c0.442,0.33,0.534,0.957,0.203,1.399   c-0.33,0.443-0.956,0.534-1.399,0.203c-1.429-1.065-3.842-1.065-5.271,0C29.991,8.603,28.612,9.004,27.233,9.004z"/>
	<path style="fill:#9B5D53;" d="M28.521,14c-0.427,0-0.822-0.276-0.955-0.705c-0.163-0.527,0.132-1.087,0.66-1.251   c2.41-0.745,2.526-2.022,2.529-2.076c0.038-0.538,0.501-0.971,1.033-0.949c0.539,0.019,0.966,0.442,0.966,0.98   c0,0.112-0.045,2.751-3.938,3.956C28.718,13.986,28.619,14,28.521,14z"/>
</g>

</svg>
