<?xml version="1.0" encoding="iso-8859-1"?>
<!-- Generator: Adobe Illustrator 19.0.0, SVG Export Plug-In . SVG Version: 6.00 Build 0)  -->
<svg version="1.1" id="Capa_1" xmlns="http://www.w3.org/2000/svg" xmlns:xlink="http://www.w3.org/1999/xlink" x="0px" y="0px"
	 viewBox="0 0 511.992 511.992" style="enable-background:new 0 0 511.992 511.992;" xml:space="preserve">
<path style="fill:#7A5B44;" d="M255.992,328.088C55.56,326.264-19.416,181.224,30.616,164.36c14.128-6.432,33.2-6.784,55.6-4.24
	c194.72,20.656,39.728,30.176,340.912-0.128l0.304-0.128c21.632-2.304,40.112-1.824,53.936,4.48
	C531.416,181.224,456.44,326.264,255.992,328.088z"/>
<path style="fill:#FFD93B;" d="M332.968,154.44H178.92c-64.896,29.408-110.096,94.592-110.096,170.4
	c0,103.408,83.744,187.152,187.136,187.152c103.28,0,187.136-83.744,187.136-187.136
	C443.112,249.048,397.848,183.848,332.968,154.44z"/>
<path style="fill:#F4C534;" d="M443.112,324.856c0,103.392-83.872,187.136-187.152,187.136c-58.944,0-111.584-27.248-145.744-69.824
	c32.048,25.728,72.64,41.056,116.96,41.056c103.28,0,187.136-83.744,187.136-187.136c0-44.336-15.328-84.912-41.168-116.96
	C415.848,213.384,443.112,265.896,443.112,324.856z"/>
<g style="opacity:0.3;">
	<path style="fill:#FFFFFF;" d="M105.864,301.464c-0.448,0-0.896-0.048-1.328-0.128c-3.648-0.736-6-4.272-5.264-7.92
		c11.744-58.544,56.624-106.608,114.352-122.464c3.648-0.976,7.296,1.136,8.272,4.704c0.976,3.584-1.136,7.28-4.704,8.272
		c-52.88,14.512-93.984,58.528-104.736,112.128C111.8,299.256,109,301.464,105.864,301.464z"/>
</g>
<path style="fill:#7A5B44;" d="M367.304,14.024c-32.8-63.552-100.832,114.992-152.208,20.736
	c-11.424-20.752-56.784-47.28-70.464-20.736c-25.584,47.952-39.248,98.56-47.472,150.368c34.832,2,68.384,12.048,102.16,21.04
	c5.088-2.672,11.04-4.368,18.144-4.352c124.496,0.24,150.24,0.416,173.344-11.472c8.384-4.304,16.576-5.456,24.096-4.384
	C406.696,113.128,393.032,62.232,367.304,14.024z"/>
<path style="fill:#6B503B;" d="M271.352,181.16c78.096-0.208,99.696-1.376,119.472-11.536c8.384-4.304,16.576-5.456,24.096-4.384
	c-8.208-52.112-21.888-103.008-47.616-151.216c-0.56-1.104-1.472-1.888-2.192-2.832C365.736,20.6,372.04,145.784,271.352,181.16z"/>
<path style="fill:#89664C;" d="M471.096,161.016l-7.248,2.96c-33.936,14.16-62.752,40.688-88.288,72.48
	c-25.536,32.112-69.664,49.584-119.744,49.584s-94.048-17.456-119.744-49.248c-25.696-32.112-54.688-59.136-89.104-73.456l-5.6-2.48
	c4.624-1.152,9.568-1.808,14.832-1.984h0.992c9.872,0.496,19.6,0.992,28.656,1.328h0.496c305.2,13.008,229.936-11.696,367.792-1.488
	c2.464,0.16,5.104,0.496,7.904,0.656h0.16C465.336,159.704,468.296,160.2,471.096,161.016z"/>
<path style="fill:#3E4347;" d="M219.672,315.672c0,16.528-12.336,29.824-27.584,29.824c-15.104,0-27.44-13.296-27.44-29.824
	c0-16.656,12.336-29.952,27.44-29.952C207.352,285.704,219.672,299.016,219.672,315.672z"/>
<path style="fill:#5A5F63;" d="M205.72,312.2c-2.368,1.104-5.52-0.784-7.104-4.096c-1.584-3.472-0.784-7.104,1.584-8.208
	c2.528-1.104,5.68,0.784,7.264,4.256C209.048,307.464,208.248,311.096,205.72,312.2z"/>
<path style="fill:#3E4347;" d="M347.32,315.672c0,16.528-12.336,29.824-27.584,29.824c-15.104,0-27.44-13.296-27.44-29.824
	c0-16.656,12.336-29.952,27.44-29.952C334.984,285.704,347.32,299.016,347.32,315.672z"/>
<path style="fill:#5A5F63;" d="M336.424,312.2c-2.368,1.104-5.52-0.784-7.104-4.096c-1.584-3.472-0.784-7.104,1.584-8.208
	c2.528-1.104,5.68,0.784,7.264,4.256C339.736,307.464,338.936,311.096,336.424,312.2z"/>
<path style="fill:#3E4347;" d="M348.472,393.944c0.432,38.352-37.968,78.096-92.496,77.952c-54.512,0.16-92.944-39.568-92.64-77.968
	c-0.048-6.512,7.808-9.84,13.376-6.256c46.88,31.408,111.632,31.408,158.512-0.032C340.792,384.072,348.648,387.384,348.472,393.944
	z"/>
<path style="fill:#FFFFFF;" d="M184.408,391.992c9.776,24.752,37.184,38.336,71.568,38.208c34.352,0.112,61.776-13.472,71.52-38.208
	C283.96,417.16,227.96,417.16,184.408,391.992z"/>
<path style="fill:#E24B4B;" d="M298.648,462.936c-12.512,5.6-26.848,8.896-42.656,8.896s-30.304-3.296-42.832-9.056
	c0.992-2.144,1.984-4.288,3.296-6.256c4.944-7.248,13.344-10.544,21.744-9.888c0.832,0.16,1.808,0.16,2.8,0.16
	c5.6,0,10.544-1.152,14.656-3.296c10.704-5.104,23.056-4.608,31.952,3.792C292.392,451.576,296.024,457.016,298.648,462.936z"/>
<g style="opacity:0.2;">
	<path style="fill:#FFFFFF;" d="M283.064,454.152c-0.768,1.968-4.464,2.624-8.48,1.152c-3.856-1.472-6.624-4.256-5.856-6.384
		c0.608-2.128,4.32-2.624,8.32-1.152C281.064,449.08,283.688,452.024,283.064,454.152z"/>
</g>
<g>
</g>
<g>
</g>
<g>
</g>
<g>
</g>
<g>
</g>
<g>
</g>
<g>
</g>
<g>
</g>
<g>
</g>
<g>
</g>
<g>
</g>
<g>
</g>
<g>
</g>
<g>
</g>
<g>
</g>
</svg>
