<?xml version="1.0" encoding="iso-8859-1"?>
<!-- Generator: Adobe Illustrator 19.0.0, SVG Export Plug-In . SVG Version: 6.00 Build 0)  -->
<svg version="1.1" id="Capa_1" xmlns="http://www.w3.org/2000/svg" xmlns:xlink="http://www.w3.org/1999/xlink" x="0px" y="0px"
	 viewBox="0 0 512 512" style="enable-background:new 0 0 512 512;" xml:space="preserve">
<path style="fill:#5A5F63;" d="M496.72,318.304c-6.592,49.552-34.784,82.336-49.728,75.744
	c-25.712-10.448-20.112-44.144-14.896-84.432c5.616-40.272,9.104-74.208,36.672-77.52
	C484.928,229.744,503.456,268.752,496.72,318.304z"/>
<path style="fill:#3E4347;" d="M511.888,257.152c0.96,41.984-4.672,83.872-16.688,124.128c-2.688,9.056-10.08,15.328-17.76,15.504
	c-7.056,0.24-14.096-0.928-20.928-3.36c18.544-50.544,25.808-104.544,21.28-158.208c7.424-0.544,14.688,0.208,21.6,2.448
	C506.528,239.904,511.696,247.952,511.888,257.152z"/>
<path style="fill:#E9EFF4;" d="M483.232,230.688c5.456,57.152-2.288,114.784-22.64,168.48c-1.664,4.384-6.096,6.688-9.824,5.184
	c-3.712-1.552-5.328-6.096-3.744-10.32c19.552-51.6,27.008-107.024,21.76-161.952c-0.416-4.512,2.336-8.464,6.336-8.976
	C479.104,222.624,482.784,226,483.232,230.688z"/>
<path style="fill:#5A5F63;" d="M15.28,318.304c6.592,49.552,34.784,82.336,49.728,75.744C90.72,383.6,85.12,349.904,79.904,309.616
	c-5.616-40.272-9.104-74.208-36.672-77.52C27.072,229.744,8.544,268.752,15.28,318.304z"/>
<path style="fill:#3E4347;" d="M0.112,257.152c-0.96,41.984,4.672,83.872,16.688,124.128c2.688,9.056,10.08,15.328,17.76,15.504
	c7.056,0.24,14.096-0.928,20.944-3.36C36.96,342.88,29.696,288.88,34.224,235.216c-7.424-0.544-14.704,0.208-21.6,2.448
	C5.472,239.904,0.304,247.952,0.112,257.152z"/>
<path style="fill:#E9EFF4;" d="M28.768,230.688c-5.456,57.152,2.288,114.784,22.64,168.48c1.664,4.384,6.096,6.688,9.824,5.184
	c3.712-1.552,5.328-6.096,3.744-10.32c-19.552-51.6-27.008-107.024-21.76-161.952c0.416-4.512-2.336-8.464-6.336-8.976
	C32.896,222.624,29.216,226,28.768,230.688z"/>
<g>
	<path style="fill:#FFD93B;" d="M230.56,166.144c-57.968-39.808-112.16-73.616-153.536-87.12c-10.4-3.28-20.816,4.512-20.816,15.328
		v217.824l174.352-56.384V166.144z"/>
	<path style="fill:#FFD93B;" d="M281.488,166.144c57.984-39.808,112.16-73.616,153.552-87.12c10.4-3.28,20.816,4.512,20.816,15.328
		v217.824l-174.352-56.384v-89.648H281.488z"/>
</g>
<g>
	<path style="fill:#F4C534;" d="M157.184,158.4c-27.04-17.552-51.936-31.712-72.32-38.72V224
		C105.344,198.08,130.16,175.312,157.184,158.4z"/>
	<path style="fill:#F4C534;" d="M396.688,200.256c10.512,9.152,21.504,19.008,30.448,30.192V119.696
		c-21.648,7.44-48.4,22.976-77.376,42.032C366.544,172.928,381.408,186.944,396.688,200.256z"/>
</g>
<circle style="fill:#FFD93B;" cx="256" cy="312.144" r="199.856"/>
<path style="fill:#F4C534;" d="M455.84,312.16C455.84,422.56,366.352,512,256,512c-62.832,0-118.912-28.976-155.568-74.384
	c34.288,27.728,77.936,44.272,125.472,44.272c110.352,0,199.84-89.44,199.856-199.856c0-47.52-16.544-91.184-44.272-125.472
	C426.816,193.248,455.84,249.328,455.84,312.16z"/>
<g>
	<path style="fill:#3E4347;" d="M132.608,184.096c0,0,40.784-32.672,88.144-19.616C220.736,164.496,162.272,108.512,132.608,184.096
		z"/>
	<path style="fill:#3E4347;" d="M379.392,184.096c0,0-40.784-32.672-88.128-19.616C291.264,164.496,349.728,108.512,379.392,184.096
		z"/>
	<path style="fill:#3E4347;" d="M374.336,367.088c-17.12,56-62.016,96.112-115.008,96.112c-52.848,0-97.888-40.112-115.008-96.24
		c-1.232-4.384,3.008-8.08,7.248-6.304c41.76,18.208,173.472,18.48,215.504,0.128C371.312,358.88,375.696,362.72,374.336,367.088z"
		/>
</g>
<path style="fill:#E24B4B;" d="M259.328,463.2c20.736,0,40.192-6.208,57.264-17.04c-4.608-22.144-28.768-34.512-49.168-25.712
	c-6.4,2.768-13.504,3.104-20.176,1.104c-19.024-5.648-39.28,5.792-44.592,24.96C219.616,457.136,238.864,463.2,259.328,463.2z"/>
<path style="fill:#FFFFFF;" d="M362.096,362.576c-9.488,15.728-22.496,26.432-37.808,33.76l-4.608,22.768l-7.328-18.16
	c-16,5.28-34.016,7.456-52.992,7.456c-19.104,0-37.136-2.16-53.136-7.584l-7.184,18.288l-4.608-22.912
	c-15.312-7.184-28.336-18.032-37.808-33.744C201.072,378.16,317.36,378.432,362.096,362.576z"/>
<path style="fill:#F4C534;" d="M237.936,264.032c0,34.64-28.064,62.704-62.56,62.704c-34.64,0-62.704-28.064-62.704-62.704
	c0-34.512,28.064-62.576,62.704-62.576C209.888,201.472,237.936,229.536,237.936,264.032z"/>
<path style="fill:#3E4347;" d="M234.88,284.784c-9.424-15.12-32.288-25.808-59.504-25.808c-27.36,0-50.224,10.704-59.648,25.808
	c-0.176-24.512,26-45.232,59.648-45.232C208.88,239.552,235.056,260.272,234.88,284.784z"/>
<path style="fill:#F4C534;" d="M399.328,264.032c0,34.64-28.064,62.704-62.56,62.704c-34.656,0-62.704-28.064-62.704-62.704
	c0-34.512,28.064-62.576,62.704-62.576C371.264,201.472,399.328,229.536,399.328,264.032z"/>
<g>
	<path style="fill:#3E4347;" d="M396.272,284.784c-9.424-15.12-32.288-25.808-59.504-25.808c-27.36,0-50.224,10.704-59.648,25.808
		c-0.176-24.512,26-45.232,59.648-45.232C370.272,239.552,396.448,260.272,396.272,284.784z"/>
	<path style="fill:#3E4347;" d="M6.816,273.584C-9.632,119.632,107.504,4.688,256,0c169.568,10.08,263.6,134.048,249.2,274.016
		h-16.944C481.536,143.584,391.568,45.28,256,41.76C120.352,45.056,30.32,144.032,23.728,274.432L6.816,273.584z"/>
</g>
<g>
</g>
<g>
</g>
<g>
</g>
<g>
</g>
<g>
</g>
<g>
</g>
<g>
</g>
<g>
</g>
<g>
</g>
<g>
</g>
<g>
</g>
<g>
</g>
<g>
</g>
<g>
</g>
<g>
</g>
</svg>
