<?xml version="1.0" encoding="iso-8859-1"?>
<!-- Generator: Adobe Illustrator 22.0.0, SVG Export Plug-In . SVG Version: 6.00 Build 0)  -->
<svg xmlns="http://www.w3.org/2000/svg" xmlns:xlink="http://www.w3.org/1999/xlink" version="1.1" x="0px" y="0px" viewBox="0 0 58 58" style="enable-background:new 0 0 58 58;" xml:space="preserve" width="512" height="512">
<g id="_x32_8-Bearded">
	<path style="fill:#D3A87D;" d="M17,30v-2c-1.126-0.375-6.829-1.878-7.269-3.608C8.799,24.981,8,26.434,8,30   c0,1.028,1.802,6,3.333,6c0.508,0,0.98-0.325,1.385-0.879C12.255,33.431,17,31.704,17,30z"/>
	<path style="fill:#D3A87D;" d="M48.414,24.504c-0.333,1.05-4.805,0.56-5.435,1.496C42.305,27,42,27.5,42,27.5v1   c0,1.704,3.745,4.931,3.282,6.621C45.686,35.675,46.159,36,46.667,36C48.198,36,50,31.028,50,30   C50,26.624,49.282,25.152,48.414,24.504z"/>
	<path style="fill:#366DB6;" d="M44.306,46.231l-30.612,0C6.084,50.089,0,51.241,0,56.442V58h29h29v-1.558   C58,51.241,51.916,50.088,44.306,46.231z"/>
	<path style="fill:#FBCE9D;" d="M29,52c-1.874,0-3.672-0.06-5.356-0.249L29,58l5.356-6.249C32.672,51.94,30.874,52,29,52z"/>
	<path style="fill:#1F436D;" d="M46,58v-3c0-0.553-0.448-1-1-1s-1,0.447-1,1v3H46z"/>
	<path style="fill:#1F436D;" d="M14,58v-3c0-0.553-0.448-1-1-1s-1,0.447-1,1v3H14z"/>
	<path style="fill:#FBCE9D;" d="M43.194,15.473C40.474,12.491,38,9,38,9c-2.156,2-10,1-10,1c-5.505,2.198-11.061-0.587-11-0.69   c-0.958,0.444-1.774,1.037-2.464,1.69C12.366,13.055,12,19.685,12,22.674V25v3v2c0,1.771,0.273,3.567,0.771,5.32   c0.281-0.202,0.62,5.68,0.986,5.68c2.69,0,4.189,4.197,5.521,5.345c0.853,0.735,2.04,0.89,3.081,0.265   c0.152-0.091,0.289-0.204,0.42-0.328C23.097,43.308,25.358,41,28.105,41h1.79c2.748,0,5.009,2.308,5.327,5.284   c0.132,0.124,0.271,0.238,0.424,0.329c1.042,0.622,2.225,0.466,3.077-0.268C40.054,45.197,41.553,41,44.243,41   c0.365,0,0.705-5.882,0.986-5.68C45.727,33.567,46,31.771,46,30v-1l1-7C47,19.25,45.047,17.504,43.194,15.473z"/>
	<path style="fill:#9E5733;" d="M17,24.6c-0.392,0-0.764-0.232-0.924-0.617c-0.212-0.51,0.03-1.095,0.54-1.307   c2.046-0.85,4.637-0.897,6.301-0.118c0.5,0.234,0.715,0.83,0.48,1.33c-0.235,0.499-0.83,0.714-1.33,0.48   c-1.154-0.542-3.168-0.475-4.684,0.154C17.258,24.575,17.128,24.6,17,24.6z"/>
	<path style="fill:#9E5733;" d="M35,24.6c-0.392,0-0.764-0.232-0.924-0.617c-0.212-0.51,0.03-1.095,0.54-1.307   c2.046-0.85,4.637-0.897,6.301-0.118c0.5,0.234,0.715,0.83,0.48,1.33c-0.234,0.499-0.83,0.714-1.33,0.48   c-1.154-0.542-3.168-0.475-4.684,0.154C35.258,24.575,35.128,24.6,35,24.6z"/>
	<path style="fill:#28384C;" d="M20.519,29c-1.088,0-2.061-0.497-2.739-1.398c-0.131-0.173-0.201-0.385-0.201-0.602   c0-1.103,0.897-2,2-2c0.552,0,1,0.448,1,1c0,0.399-0.233,0.743-0.571,0.904c0.292,0.117,0.632,0.16,0.984-0.043   c0.478-0.277,1.09-0.114,1.366,0.364c0.277,0.478,0.114,1.089-0.364,1.366C21.524,28.862,21.029,29,20.519,29z"/>
	<path style="fill:#28384C;" d="M38.492,29c-1.088,0-2.061-0.497-2.739-1.398c-0.131-0.173-0.201-0.385-0.201-0.602   c0-1.103,0.897-2,2-2c0.552,0,1,0.448,1,1c0,0.399-0.233,0.743-0.571,0.904c0.291,0.117,0.633,0.16,0.982-0.043   c0.478-0.276,1.09-0.116,1.367,0.363c0.277,0.478,0.114,1.09-0.363,1.367C39.498,28.862,39.002,29,38.492,29z"/>
	<path style="fill:#D3A87D;" d="M29,33c-0.552,0-1-0.448-1-1s0.448-1,1-1c0.551,0,1-0.449,1-1c0-0.322-0.149-0.617-0.41-0.808   c-1.01-0.74-1.59-1.808-1.59-2.929V26c0-0.552,0.448-1,1-1s1,0.448,1,1v0.263c0,0.653,0.484,1.105,0.772,1.316   C31.541,28.143,32,29.048,32,30C32,31.654,30.654,33,29,33z"/>
	<path style="fill:#BE6E41;" d="M44.243,35c-2.69,0-4.188,4.197-5.521,5.345c-0.852,0.734-2.035,0.89-3.077,0.268   c-0.153-0.091-0.292-0.205-0.424-0.329C34.904,37.308,32.642,35,29.895,35h-1.789c-2.747,0-5.009,2.308-5.326,5.282   c-0.131,0.123-0.268,0.236-0.42,0.328c-1.041,0.626-2.227,0.471-3.081-0.265C17.946,39.197,16.447,35,13.757,35   C12.787,35,12,35.831,12,36.857V38c0,12.608,7.591,14,17,14c9.409,0,17-1.392,17-14v-1.143C46,35.831,45.213,35,44.243,35z"/>
	<path style="fill:#9E5733;" d="M29,41.997c-1.233,0-2.467-0.397-3.543-1.192c-0.444-0.328-0.538-0.954-0.21-1.398   c0.328-0.443,0.954-0.539,1.398-0.21c1.454,1.073,3.259,1.073,4.71,0c0.445-0.33,1.071-0.234,1.398,0.21   c0.328,0.444,0.234,1.07-0.21,1.398C31.467,41.6,30.233,41.997,29,41.997z"/>
	<path style="fill:#9E5733;" d="M30,45h-2c-0.552,0-1-0.448-1-1s0.448-1,1-1h2c0.552,0,1,0.448,1,1S30.552,45,30,45z"/>
	<path style="fill:#BE6E41;" d="M12,25v-2.326c0-2.989,1.109-5.929,3.279-7.984c0.69-0.653,1.505-1.246,2.463-1.69   c-0.06,0.103,5.274,2.198,10.778,0c0,0,6.467,0,8.623-2c0,0,3.33,1.491,6.05,4.473C45.047,17.504,46,20.201,46,22.951V29   c0,0,0.305-0.5,0.979-1.5C48.345,25.472,49,23.099,49,20.708v-1.708c0-2.068-0.503-4.112-1.52-5.952   c-1.327-2.401-3.764-5.486-8.18-8.047c0,0-0.606-1.688-3.183-2.953c-1.761-0.865-3.794-1.125-5.771-0.901   C29.187,1.278,27.953,1.527,27.443,2c0,0-6.467,0-7.545-2c0,0-2.156,2-2.156,4c0,0-1.078-1-3.234-1c0,0-2.156,3-1.078,5   C13.431,8,9,10,9,18c0,0,0,9,3,10V25z"/>
	<path style="fill:#9E5733;" d="M28.521,14c-0.427,0-0.822-0.276-0.955-0.705c-0.163-0.527,0.132-1.087,0.66-1.251   c2.41-0.745,2.526-2.022,2.529-2.076c0.037-0.538,0.499-0.971,1.033-0.949c0.539,0.019,0.966,0.442,0.966,0.98   c0,0.112-0.045,2.751-3.938,3.956C28.718,13.986,28.619,14,28.521,14z"/>
</g>

</svg>
