<?xml version="1.0" encoding="iso-8859-1"?>
<!-- Generator: Adobe Illustrator 19.0.0, SVG Export Plug-In . SVG Version: 6.00 Build 0)  -->
<svg version="1.1" id="Capa_1" xmlns="http://www.w3.org/2000/svg" xmlns:xlink="http://www.w3.org/1999/xlink" x="0px" y="0px"
	 viewBox="0 0 512 512" style="enable-background:new 0 0 512 512;" xml:space="preserve">
<g>
	<path style="fill:#FFD93B;" d="M226.448,106.111C159.072,59.855,96.112,20.559,48.016,4.879
		C35.936,1.071,23.84,10.127,23.84,22.703v253.12l202.608-65.52V106.111z"/>
	<path style="fill:#FFD93B;" d="M285.616,106.111C352.992,59.855,415.952,20.559,464.032,4.879
		c12.096-3.808,24.176,5.248,24.176,17.824v253.12L285.6,210.303V106.111H285.616z"/>
</g>
<g>
	<path style="fill:#F4C534;" d="M141.168,97.119c-31.408-20.4-60.352-36.848-84.032-44.992v121.216
		C80.928,143.231,109.776,116.767,141.168,97.119z"/>
	<path style="fill:#F4C534;" d="M419.488,145.743c12.208,10.624,24.976,22.08,35.392,35.072V52.127
		c-25.152,8.64-56.24,26.704-89.904,48.848C384.448,113.999,401.728,130.271,419.488,145.743z"/>
</g>
<circle style="fill:#FFD93B;" cx="256" cy="275.775" r="232.224"/>
<path style="fill:#F4C534;" d="M488.224,275.775c0,128.304-104,232.224-232.224,232.224c-73.008,0-138.176-33.68-180.768-86.432
	c39.84,32.224,90.56,51.456,145.792,51.456c128.24,0,232.224-103.92,232.224-232.224c0-55.232-19.232-105.952-51.456-145.792
	C454.48,137.599,488.224,202.767,488.224,275.775z"/>
<path style="fill:#3E4347;" d="M396.576,339.103c8.352,67.44-49.296,139.04-136.72,138.816
	c-87.2,0.144-145.072-71.344-136.64-138.96c0.576-5.232,6.944-7.264,10.944-3.52c36.912,50.672,214.16,51.168,251.472,0.16
	C389.568,331.727,396.144,333.823,396.576,339.103z"/>
<path style="fill:#E24B4B;" d="M259.744,464.463c32.272,0.208,65.376-12.768,83.088-33.888
	c-17.296-20.432-50.112-26.832-73.2-16.048c-7.552,3.664-16.56,3.888-24.464,0.912c-21.792-7.984-52.048-1.712-68.544,15.344
	C194.304,451.679,227.904,464.575,259.744,464.463z"/>
<g>
	<path style="fill:#FFFFFF;" d="M376.4,345.023c-47.328,38.336-185.76,37.984-232.944-0.112c5.296,16.544,15.696,30.736,30.512,41.6
		c-0.176,9.104-0.176,18.24-0.048,27.376c4.976-6.112,9.776-12.304,14.4-18.592c20.048,10.592,45.056,16.096,71.584,16.064
		c26.336-0.016,51.344-5.488,71.44-15.888c4.656,6.224,9.504,12.352,14.544,18.416c0.16-9.104,0.16-18.176,0-27.232
		C360.656,375.663,371.088,361.519,376.4,345.023z"/>
	<circle style="fill:#FFFFFF;" cx="250.528" cy="210.239" r="106.336"/>
</g>
<ellipse style="fill:#3E4347;" cx="250.502" cy="210.243" rx="55.199" ry="55.199"/>
<path style="fill:#FFFFFF;" d="M284.544,202.895c-4.224,4.4-13.2,2.576-19.808-4.032c-6.608-6.784-8.624-15.584-4.224-20
	c4.4-4.224,13.2-2.384,19.808,4.224C287.104,189.695,288.944,198.671,284.544,202.895z"/>
<g>
	<path style="fill:#3E4347;" d="M157.664,331.151c-15.936-11.376-37.712-18.16-60-17.744C46.784,314.335,7.008,353.775,0,397.887
		c9.2-76.416,100.224-114.672,161.824-73.424c2.352,1.536,2.56,3.952,1.408,5.664C161.936,332.079,159.28,332.415,157.664,331.151z"
		/>
	<path style="fill:#3E4347;" d="M159.024,298.239c-10.32-8.704-25.52-17.264-41.44-22.4c-16.192-5.2-34-7.104-47.376-6
		c13.104-2.176,31.296-1.792,48.416,2.208c17.04,4,33.92,11.824,44.96,19.776c2.24,1.584,2.4,4.016,1.184,5.712
		C163.488,299.311,160.896,299.791,159.024,298.239z"/>
	<path style="fill:#3E4347;" d="M134.816,299.743c-17.328-5.024-40.816-6.912-63.104-3.92c-22.656,3.072-45.216,11.36-60.448,20.768
		c14.688-10.368,37.008-20.128,59.792-24.656c23.216-4.576,47.984-3.888,65.36,0.096c2.752,0.64,3.792,2.784,3.328,4.8
		C139.216,299.183,136.752,300.399,134.816,299.743z"/>
	<path style="fill:#3E4347;" d="M354.336,331.151c15.936-11.376,37.728-18.16,60-17.744c50.88,0.928,90.64,40.368,97.664,84.496
		c-9.2-76.416-100.224-114.672-161.824-73.424c-2.336,1.536-2.56,3.952-1.408,5.664C350.064,332.079,352.72,332.415,354.336,331.151
		z"/>
	<path style="fill:#3E4347;" d="M352.976,298.239c10.32-8.704,25.52-17.264,41.44-22.4c16.192-5.2,34-7.104,47.376-6
		c-13.104-2.176-31.296-1.792-48.416,2.208c-17.04,4-33.92,11.824-44.96,19.776c-2.24,1.584-2.4,4.016-1.184,5.712
		C348.512,299.311,351.104,299.791,352.976,298.239z"/>
	<path style="fill:#3E4347;" d="M377.184,299.743c17.328-5.024,40.816-6.912,63.104-3.92c22.656,3.072,45.216,11.36,60.448,20.768
		c-14.688-10.368-36.992-20.128-59.792-24.656c-23.216-4.576-47.984-3.888-65.36,0.096c-2.752,0.64-3.792,2.784-3.328,4.8
		C372.784,299.183,375.248,300.399,377.184,299.743z"/>
</g>
<g>
</g>
<g>
</g>
<g>
</g>
<g>
</g>
<g>
</g>
<g>
</g>
<g>
</g>
<g>
</g>
<g>
</g>
<g>
</g>
<g>
</g>
<g>
</g>
<g>
</g>
<g>
</g>
<g>
</g>
</svg>
