<?xml version="1.0" encoding="iso-8859-1"?>
<!-- Generator: Adobe Illustrator 22.0.0, SVG Export Plug-In . SVG Version: 6.00 Build 0)  -->
<svg xmlns="http://www.w3.org/2000/svg" xmlns:xlink="http://www.w3.org/1999/xlink" version="1.1" id="Layer_1" x="0px" y="0px" viewBox="0 0 58 58" style="enable-background:new 0 0 58 58;" xml:space="preserve" width="512" height="512">
<g id="_x32_9-Curly">
	<path style="fill:#EBBA16;" d="M51.442,50.62c-2.393-1.415-4.882-3.191-6.966-5.217L14.389,45.07   c-2.385,2.166-5.306,4.057-7.831,5.55C3.135,52.643,0,54.648,0,58h29h29C58,54.648,54.865,52.643,51.442,50.62z"/>
	<path style="fill:#DC691D;" d="M43.169,40.763c0,0-0.383-0.426-0.519-0.587l-0.33-0.391l-26.015,0.078l-0.551,0.735   c-0.148,0.2-0.295,0.4-0.471,0.621c-0.459,0.596-1.004,1.2-1.638,1.816C15.618,49.939,21.962,55,29.5,55   c7.421,0,13.696-4.901,15.771-11.642C44.483,42.535,43.169,40.763,43.169,40.763z"/>
	<path style="fill:#FBCE9D;" d="M47.21,17.876c0-0.301-0.022-0.596-0.041-0.891v-0.109h-0.005c-0.004-0.061-0.005-0.122-0.008-0.183   c-0.013-0.058-0.036-0.108-0.052-0.165c-0.317-2.599-4.156-1.808-6.825-3.528c-2.878-1.856-6.822,2-11.175,2s-8.294-2.856-11.17-1   c-2.786,1.797-8.594,6.262-8.791,9H9.105v10h0.041v0.132c0,1.858,2.813,1.407,3.959,2.868l4.479,5.631l1.508,1.921l2.573,3.279   c1.57,2.001,3.97,3.169,6.511,3.169h2.7c2.674,0,5.184-1.293,6.738-3.472l2.376-3.331l1.073-1.757l2.519-3.278   c1.003-1.406,5.522-4.434,5.522-6.162L47.21,20c-0.019-0.042,0-0.124,0-0.124V17.876z"/>
	<path style="fill:#6F3315;" d="M53.013,18.571l-1.479-1.816c-0.722-0.887-1.113-1.957-1.116-3.056l-0.008-2.25   c-0.008-2.255-1.63-4.248-4.019-4.937l-2.383-0.687c-1.164-0.336-2.18-0.994-2.902-1.881L39.629,2.13   c-1.481-1.819-4.097-2.574-6.481-1.869L30.77,0.965c-1.166,0.345-2.407,0.35-3.576,0.013L24.808,0.29   c-2.388-0.689-5,0.084-6.468,1.913l-1.465,1.825c-0.716,0.892-1.727,1.557-2.889,1.901l-2.378,0.703   c-2.384,0.705-3.992,2.709-3.984,4.964l0.008,2.25c0.004,1.099-0.38,2.172-1.095,3.063l-1.465,1.825   c-1.437,1.79-1.428,4.34,0.021,6.12l1.478,1.814c0.722,0.887,1.113,1.957,1.117,3.056l0.008,2.25   c0.008,2.255,1.63,4.248,4.019,4.937c1.112,1.489,2.699,2.519,4.467,2.949l-1.263-1.608c-0.329-0.417-0.617-1.024-0.863-1.679   c-0.664-1.774-0.951-3.667-0.951-5.561V23h0.039c0.197-2.738,1.987-5.203,4.777-7c2.88-1.856,6.826,3,11.185,3   s8.307-4.856,11.189-3c2.673,1.721,4.429,4.053,4.746,6.652C45.055,22.709,45.113,26,45.113,26s-0.019,0.082,0,0.124v7.219l0,0   c0,1.728-0.508,3.413-1.512,4.819l-1.129,1.446c1.546-0.501,3.017-1.455,4.009-2.793l0.017-0.022   c2.384-0.705,3.992-2.709,3.984-4.964l-0.008-2.25c-0.004-1.099,0.38-2.172,1.095-3.063l1.465-1.825   C54.471,22.901,54.462,20.351,53.013,18.571z"/>
	<path style="fill:#D3A87D;" d="M29,36c-1.13,0-2.214-0.485-2.974-1.331c-0.369-0.411-0.335-1.043,0.075-1.412   c0.411-0.37,1.043-0.335,1.412,0.075c0.763,0.849,2.211,0.848,2.974,0c0.37-0.412,1.001-0.445,1.412-0.076s0.445,1.001,0.076,1.412   C31.215,35.515,30.13,36,29,36z"/>
	<path style="fill:#D3A87D;" d="M30,45h-2c-0.552,0-1-0.448-1-1s0.448-1,1-1h2c0.552,0,1,0.448,1,1S30.552,45,30,45z"/>
	<path style="fill:#EA6248;" d="M26.94,41.932c-0.395,0-0.791-0.021-1.188-0.064c-0.549-0.059-0.947-0.552-0.888-1.101   c0.059-0.549,0.553-0.948,1.101-0.888c2.721,0.293,5.392-0.651,7.328-2.587c0.391-0.391,1.023-0.391,1.414,0s0.391,1.023,0,1.414   C32.625,40.79,29.845,41.932,26.94,41.932z"/>
	<path style="fill:#839594;" d="M31,25.964h-4c-0.552,0-1-0.448-1-1s0.448-1,1-1h4c0.552,0,1,0.448,1,1S31.552,25.964,31,25.964z"/>
	<path style="fill:#FFFFFF;" d="M14.964,22H24c1.65,0,3,1.35,3,3l0,0c0,3.3-2.7,6-6,6h-2.964C14.716,31,12,28.284,12,24.964l0,0   C12,23.327,13.327,22,14.964,22z"/>
	<path style="fill:#FFFFFF;" d="M33.964,21.964H43c1.65,0,3,1.35,3,3l0,0c0,3.3-2.7,6-6,6h-2.964c-3.32,0-6.036-2.716-6.036-6.036   l0,0C31,23.291,32.327,21.964,33.964,21.964z"/>
	<path style="fill:#366DB6;" d="M20.519,27.964c-1.088,0-2.06-0.497-2.739-1.398c-0.13-0.173-0.201-0.385-0.201-0.602   c0-1.103,0.897-2,2-2c0.552,0,1,0.448,1,1c0,0.399-0.233,0.743-0.571,0.904c0.292,0.119,0.633,0.16,0.983-0.043   c0.478-0.276,1.09-0.114,1.367,0.364s0.114,1.09-0.364,1.367C21.525,27.826,21.029,27.964,20.519,27.964z"/>
	<path style="fill:#366DB6;" d="M38.492,27.964c-1.088,0-2.06-0.497-2.739-1.398c-0.13-0.173-0.201-0.385-0.201-0.602   c0-1.103,0.897-2,2-2c0.552,0,1,0.448,1,1c0,0.399-0.233,0.743-0.571,0.904c0.292,0.119,0.633,0.16,0.983-0.043   c0.478-0.276,1.09-0.114,1.367,0.364s0.114,1.09-0.364,1.367C39.498,27.826,39.002,27.964,38.492,27.964z"/>
</g>

</svg>
