<?xml version="1.0" encoding="iso-8859-1"?>
<!-- Generator: Adobe Illustrator 22.0.0, SVG Export Plug-In . SVG Version: 6.00 Build 0)  -->
<svg xmlns="http://www.w3.org/2000/svg" xmlns:xlink="http://www.w3.org/1999/xlink" version="1.1" x="0px" y="0px" viewBox="0 0 60 58.257" style="enable-background:new 0 0 60 58.257;" xml:space="preserve" width="512" height="512">
<g id="_x33_-Rapper">
	<path style="fill:#DD352E;" d="M40.384,46.06H19.616C11.039,51.655,2,52.257,2,58.257h28h30C60,52.257,48.961,51.655,40.384,46.06z   "/>
	<path style="fill:#B02721;" d="M43.738,47.968c-1.139-0.57-2.267-1.199-3.355-1.909C38.22,51.493,30,54.257,30,54.257   s-8.22-2.764-10.384-8.197c-1.112,0.725-2.231,1.364-3.338,1.944c3.119,6.467,11.467,9.485,12.447,9.819L30,58.257l1.274-0.433   C32.257,57.489,40.633,54.46,43.738,47.968z"/>
	<path style="fill:#EBBA16;" d="M48,56.257h-5c-0.552,0-1-0.448-1-1s0.448-1,1-1h5c0.552,0,1,0.448,1,1S48.552,56.257,48,56.257z"/>
	<path style="fill:#EDB883;" d="M39.309,45.102L20.591,45c-0.537,0.592-0.936,1.026-0.976,1.055C21.775,51.492,30,54.257,30,54.257   s8.225-2.765,10.386-8.201C40.348,46.027,39.911,45.639,39.309,45.102z"/>
	<path style="fill:#198C68;" d="M13,18H1c-0.552,0-1-0.448-1-1s0.448-1,1-1h12c0.552,0,1,0.448,1,1S13.552,18,13,18z"/>
	<path style="fill:#D3A87D;" d="M9.01,27c0-2.206,1.786-3.993,3.99-3.999V23h3v8h-3v-0.001C10.796,30.993,9.01,29.206,9.01,27z"/>
	<path style="fill:#D3A87D;" d="M51,27c0-2.206-1.786-3.993-3.99-3.999V23h-3v8h3v-0.001C49.214,30.993,51,29.206,51,27z"/>
	<path style="fill:#FBCE9D;" d="M13,25v3v2c0,9.615,7.991,20,16.981,20h0.039C39.009,50,47,39.615,47,30v-1V15H13V25z"/>
	<path style="fill:#EA6248;" d="M34.06,42.444c-0.059,0-0.118-0.005-0.177-0.016c-0.739-0.132-1.792-0.537-2.532-1.277   c-0.111-0.11-0.28-0.281-0.598,0.013c-0.395,0.364-1.022,0.367-1.402-0.013c-0.304-0.281-0.473-0.112-0.585,0   c-0.74,0.74-1.793,1.146-2.531,1.277c-0.545,0.097-1.063-0.265-1.16-0.809c-0.097-0.543,0.265-1.063,0.808-1.16   c0.438-0.078,1.085-0.338,1.469-0.723c0.675-0.675,1.549-0.9,2.398-0.617c0.108,0.036,0.21,0.079,0.303,0.124   c0.759-0.365,1.795-0.423,2.712,0.493c0.385,0.385,1.031,0.645,1.469,0.723c0.544,0.097,0.906,0.617,0.808,1.16   C34.957,42.104,34.535,42.444,34.06,42.444z"/>
	<path style="fill:#D3A87D;" d="M31.059,46h-2c-0.552,0-1-0.448-1-1s0.448-1,1-1h2c0.552,0,1,0.448,1,1S31.611,46,31.059,46z"/>
	<path style="fill:#25AE88;" d="M34.091,0h-8.182C18.227,0,12,6.573,12,14.682V17h12.447h15.256H48v-2.318   C48,6.573,41.773,0,34.091,0z"/>
	<path style="fill:#EBBA16;" d="M42,15H26v-3c0-2.209,1.791-4,4-4h8c2.209,0,4,1.791,4,4V15z"/>
	<rect x="26" y="13" style="fill:#198C68;" width="16" height="4"/>
	<path style="fill:#C49716;" d="M18,26.6c-0.392,0-0.764-0.232-0.924-0.617c-0.212-0.51,0.03-1.095,0.54-1.307   c2.046-0.85,4.637-0.898,6.3-0.118c0.5,0.234,0.715,0.83,0.481,1.33c-0.234,0.5-0.83,0.716-1.33,0.48   c-1.154-0.541-3.168-0.475-4.684,0.154C18.258,26.575,18.128,26.6,18,26.6z"/>
	<path style="fill:#C49716;" d="M36,26.6c-0.392,0-0.764-0.232-0.924-0.617c-0.212-0.51,0.03-1.095,0.54-1.307   c2.046-0.85,4.637-0.898,6.3-0.118c0.5,0.234,0.715,0.83,0.481,1.33c-0.234,0.5-0.83,0.716-1.33,0.48   c-1.154-0.541-3.168-0.475-4.684,0.154C36.258,26.575,36.128,26.6,36,26.6z"/>
	<path style="fill:#366DB6;" d="M21.519,31c-1.088,0-2.06-0.497-2.739-1.398c-0.13-0.173-0.201-0.385-0.201-0.602   c0-1.103,0.897-2,2-2c0.552,0,1,0.448,1,1c0,0.399-0.233,0.743-0.571,0.904c0.292,0.118,0.633,0.16,0.983-0.043   c0.478-0.277,1.089-0.114,1.367,0.364c0.277,0.478,0.114,1.09-0.364,1.367C22.525,30.862,22.029,31,21.519,31z"/>
	<path style="fill:#366DB6;" d="M39.492,31c-1.088,0-2.06-0.497-2.739-1.398c-0.13-0.173-0.201-0.385-0.201-0.602   c0-1.103,0.897-2,2-2c0.552,0,1,0.448,1,1c0,0.399-0.233,0.743-0.571,0.904c0.292,0.118,0.633,0.16,0.983-0.043   c0.478-0.277,1.09-0.114,1.367,0.364c0.277,0.478,0.114,1.09-0.364,1.367C40.498,30.862,40.002,31,39.492,31z"/>
	<path style="fill:#D3A87D;" d="M30,35c-0.552,0-1-0.448-1-1s0.448-1,1-1c0.552,0,1-0.449,1-1c0-0.322-0.15-0.617-0.41-0.808   c-1.01-0.74-1.59-1.808-1.59-2.929V28c0-0.552,0.448-1,1-1s1,0.448,1,1v0.263c0,0.653,0.484,1.105,0.772,1.316   C32.541,30.143,33,31.048,33,32C33,33.654,31.654,35,30,35z"/>
	<polygon style="fill:#EBBA16;" points="31.5,17 43,22 42,17  "/>
</g>

</svg>
