<?xml version="1.0" encoding="iso-8859-1"?>
<!-- Generator: Adobe Illustrator 19.0.0, SVG Export Plug-In . SVG Version: 6.00 Build 0)  -->
<svg version="1.1" id="Capa_1" xmlns="http://www.w3.org/2000/svg" xmlns:xlink="http://www.w3.org/1999/xlink" x="0px" y="0px"
	 viewBox="0 0 512.016 512.016" style="enable-background:new 0 0 512.016 512.016;" xml:space="preserve">
<g>
	<path style="fill:#FFD93B;" d="M225.536,109.367C156.112,61.703,91.232,21.207,41.68,5.063
		c-12.464-3.936-24.912,5.408-24.912,18.352v260.832l208.784-67.52v-107.36H225.536z"/>
	<path style="fill:#FFD93B;" d="M286.528,109.367c69.424-47.664,134.304-88.16,183.856-104.304
		c12.464-3.936,24.912,5.408,24.912,18.368v260.832l-208.784-67.52V109.367H286.528z"/>
</g>
<g>
	<path style="fill:#F4C534;" d="M137.664,100.103c-32.368-21.024-62.176-37.968-86.592-46.368v124.912
		C75.584,147.623,105.312,120.343,137.664,100.103z"/>
	<path style="fill:#F4C534;" d="M424.464,150.215c12.576,10.96,25.744,22.752,36.464,36.144V53.735
		c-25.92,8.912-57.952,27.52-92.656,50.336C388.368,117.495,406.16,134.279,424.464,150.215z"/>
</g>
<circle style="fill:#FFD93B;" cx="256" cy="268.151" r="239.712"/>
<path style="fill:#F4C534;" d="M495.712,268.151c0,132.448-107.344,239.712-239.728,239.712c-75.36,0-142.624-34.768-186.608-89.216
	c41.12,33.264,93.488,53.12,150.496,53.12c132.368,0,239.712-107.28,239.712-239.712c0-57.008-19.856-109.376-53.104-150.496
	C460.88,125.511,495.712,192.791,495.712,268.151z"/>
<g>
	<path style="fill:#3E4347;" d="M161.552,96.711c0,0-48.704-6.848-99.84,52.352C61.728,149.063,94.784,43.031,161.552,96.711z"/>
	<path style="fill:#3E4347;" d="M350.432,96.711c0,0,48.704-6.848,99.84,52.352C450.272,149.063,417.216,43.031,350.432,96.711z"/>
</g>
<path style="fill:#7A5B44;" d="M285.584,330.551c0,10.544-11.968,19.68-20.624,24.864c-5.664,3.312-12.272,3.312-17.952,0
	c-8.496-5.2-20.624-14.32-20.624-24.864c0-16.368,13.376-18.096,29.6-18.096C272.368,312.439,285.584,314.183,285.584,330.551z"/>
<path style="fill:#6B503B;" d="M285.584,330.551c0,10.544-11.968,19.68-20.624,24.864c-5.664,3.312-12.272,3.312-17.952,0
	c-5.2-3.152-11.968-7.872-16.208-13.536c2.512,1.888,5.04,3.472,7.248,4.88c6.448,3.776,14.016,3.776,20.464,0
	c9.76-5.824,22.976-16.048,23.456-27.696C284.336,321.735,285.584,325.511,285.584,330.551z"/>
<circle style="fill:#F4C534;" cx="157.936" cy="227.687" r="88.176"/>
<circle style="fill:#FFFFFF;" cx="157.936" cy="227.687" r="72.176"/>
<ellipse style="fill:#3E4347;" cx="142.64" cy="217.783" rx="36.448" ry="36.368"/>
<ellipse transform="matrix(-0.7071 -0.7071 0.7071 -0.7071 75.6833 439.197)" style="fill:#FFFFFF;" cx="128.802" cy="203.924" rx="7.024" ry="11.632"/>
<circle style="fill:#F4C534;" cx="354.08" cy="227.623" r="88.176"/>
<circle style="fill:#FFFFFF;" cx="354.08" cy="227.623" r="72.176"/>
<ellipse style="fill:#3E4347;" cx="369.44" cy="237.527" rx="36.448" ry="36.368"/>
<ellipse transform="matrix(-0.7071 -0.7071 0.7071 -0.7071 476.4034 700.1365)" style="fill:#FFFFFF;" cx="383.205" cy="251.402" rx="7.024" ry="11.632"/>
<g>
	<path style="fill:#3E4347;" d="M140.416,405.783c7.392-16.4,28.4-34.592,40.384-21.248c5.968,5.712,9.296,14.064,14.304,15.92
		c5.168,1.856,8.944-1.776,13.584-10.288c10.336-15.984,22.128-16.048,31.568-7.6c4.4,4.48,6.576,8.992,9.072,12.32
		c8.64,13.008,12.72-1.856,22.352-12.4c9.04-8.576,21.056-8.128,31.568,7.744c4.752,8.512,8.224,12.032,13.568,10.176
		c5.008-1.856,8.32-10.224,14.336-15.92c13.28-12.912,33.008,4.848,40.416,21.296c-8.304-10.688-26.832-26.688-35.344-16.176
		c-4.416,4.16-5.424,12.896-15.392,19.232c-4.592,2.512-11.104,2.688-17.104-0.976c-5.008-3.424-7.472-8.016-9.952-11.504
		c-5.776-9.008-9.568-8.176-13.456-5.008c-6.048,5.984-5.648,11.52-13.952,17.536c-6.784,5.536-19.248,4.992-27.248-6.656
		c-3.056-4.448-5.232-8.576-7.52-10.864c-0.992-1.056-2.464-1.728-2.56-1.856c-3.472-0.624-5.76-1.024-10.896,6.768
		c-7.28,10.304-14.176,18.624-26.992,12.576c-10-6.304-11.008-15.056-15.408-19.248
		C167.328,378.999,148.688,395.111,140.416,405.783z"/>
	<path style="fill:#3E4347;" d="M144.144,360.023c0,0-12.768,2.672-29.568,10.928c-61.024,28.576-83.68,74.848-97.424,128.336
		c14.672-47.696,36.528-94.992,100.576-121.424c16.64-7.184,28.208-9.008,28.208-9.008c2.464-0.384,4.144-2.688,3.76-5.152
		c-0.384-2.464-2.704-4.144-5.152-3.76c-0.064,0.016-0.144,0.032-0.208,0.032L144.144,360.023z"/>
	<path style="fill:#3E4347;" d="M120.848,344.759c-34.272,0.048-79.312,18.544-116.448,63.28c39.2-41.264,84.4-56.512,116.24-54.272
		c2.48,0.176,4.64-1.696,4.816-4.176c0.176-2.496-1.696-4.656-4.176-4.832c-0.112,0-0.208-0.016-0.32,0H120.848z"/>
	<path style="fill:#3E4347;" d="M139.344,327.751c-9.744-1.936-15.392-3.184-25.824-3.888c-17.984-1.68-40.352,1.504-56.304,10.016
		C31.44,346.391,14.704,368.823,0,392.247c11.152-16,29.584-42.336,58.896-54.8c18.464-8.48,39.184-8.96,54-6.976
		c10.128,1.2,15.136,2.576,24.752,4.96c2.112,0.528,4.24-0.768,4.768-2.864c0.528-2.112-0.752-4.24-2.864-4.768
		C139.472,327.783,139.408,327.767,139.344,327.751z"/>
	<path style="fill:#3E4347;" d="M367.856,360.023c0,0,12.768,2.672,29.568,10.928c61.04,28.576,83.68,74.848,97.424,128.336
		c-14.672-47.696-36.528-94.992-100.576-121.424c-16.64-7.184-28.208-9.008-28.208-9.008c-2.464-0.384-4.144-2.688-3.76-5.152
		c0.384-2.464,2.704-4.144,5.152-3.76c0.064,0.016,0.144,0.032,0.208,0.032L367.856,360.023z"/>
	<path style="fill:#3E4347;" d="M391.152,344.759c34.272,0.048,79.312,18.544,116.448,63.28c-39.2-41.264-84.4-56.512-116.24-54.272
		c-2.48,0.176-4.64-1.696-4.816-4.176c-0.176-2.496,1.696-4.656,4.176-4.832c0.112,0,0.208-0.016,0.32,0H391.152z"/>
	<path style="fill:#3E4347;" d="M372.656,327.751c9.744-1.936,15.392-3.184,25.824-3.888c18.112-1.696,40.48,1.568,56.304,10.016
		c25.792,12.512,42.528,34.944,57.232,58.368c-11.168-16-29.584-42.336-58.896-54.8c-18.464-8.48-39.184-8.96-54-6.976
		c-10.128,1.2-15.136,2.576-24.752,4.96c-2.112,0.528-4.24-0.768-4.768-2.864c-0.528-2.112,0.768-4.24,2.864-4.768
		C372.528,327.783,372.592,327.767,372.656,327.751z"/>
</g>
<g>
</g>
<g>
</g>
<g>
</g>
<g>
</g>
<g>
</g>
<g>
</g>
<g>
</g>
<g>
</g>
<g>
</g>
<g>
</g>
<g>
</g>
<g>
</g>
<g>
</g>
<g>
</g>
<g>
</g>
</svg>
