<?xml version="1.0" encoding="iso-8859-1"?>
<!-- Generator: Adobe Illustrator 22.0.0, SVG Export Plug-In . SVG Version: 6.00 Build 0)  -->
<svg xmlns="http://www.w3.org/2000/svg" xmlns:xlink="http://www.w3.org/1999/xlink" version="1.1" x="0px" y="0px" viewBox="0 0 58 58" style="enable-background:new 0 0 58 58;" xml:space="preserve" width="512" height="512">
<g id="_x33_0-Sweater">
	<path style="fill:#57ABC1;" d="M51.442,50.62c-2.393-1.415-4.882-3.191-6.966-5.217L14.389,45.07   c-2.385,2.166-5.306,4.057-7.831,5.55C3.135,52.643,0,54.648,0,58h29h29C58,54.648,54.865,52.643,51.442,50.62z"/>
	<path style="fill:#33636C;" d="M43.257,40.896l-0.088-0.133l-0.108-0.117c-0.139-0.15-0.275-0.309-0.411-0.47l-0.33-0.391   l-26.122,0.214l-0.444,0.599c-0.148,0.2-0.295,0.4-0.471,0.621c-0.459,0.596-1.004,1.2-1.638,1.816   C15.618,49.939,21.962,55,29.5,55c7.421,0,13.696-4.901,15.771-11.642C44.483,42.535,43.797,41.71,43.257,40.896z"/>
	<path style="fill:#D3A87D;" d="M15,32l-1-6c-1.126-0.375-3.829,0.123-4.269-1.608C8.799,24.981,8,26.434,8,30   c0,1.028,1.802,6,3.333,6c0.508,0,0.98-0.325,1.385-0.879C12.255,33.431,15,33.703,15,32z"/>
	<path style="fill:#D3A87D;" d="M48.414,24.504C48.081,25.554,44.63,25.064,44,26c-0.674,1-1,1-1,1v5   c0,1.704,2.745,1.431,2.282,3.121C45.686,35.675,46.159,36,46.667,36C48.198,36,50,31.028,50,30   C50,26.624,49.282,25.152,48.414,24.504z"/>
	<path style="fill:#FBCE9D;" d="M38,9c-2.156,2-10,0-10,0c-5.505,2.198-13.597,3.103-13.536,3c-0.958,0.444-1.774,1.037-2.464,1.69   c-2.17,2.055-1,6.321-1,9.31v2l1,3v2c0,9.615,7.991,20,16.981,20h0.039C38.009,50,46,39.615,46,30v-1l1-6c0-2.75-0.147-5.969-2-8   C42.28,12.018,38,9,38,9z"/>
	<path style="fill:#9B5C54;" d="M17,24.6c-0.392,0-0.764-0.232-0.924-0.617c-0.212-0.51,0.03-1.095,0.54-1.307   c2.046-0.85,4.637-0.897,6.3-0.118c0.5,0.234,0.715,0.83,0.481,1.33c-0.234,0.5-0.83,0.715-1.33,0.48   c-1.154-0.541-3.168-0.475-4.684,0.154C17.258,24.575,17.128,24.6,17,24.6z"/>
	<path style="fill:#9B5C54;" d="M35,24.6c-0.392,0-0.764-0.232-0.924-0.617c-0.212-0.51,0.03-1.095,0.54-1.307   c2.046-0.85,4.637-0.897,6.3-0.118c0.5,0.234,0.715,0.83,0.481,1.33c-0.234,0.5-0.83,0.715-1.33,0.48   c-1.154-0.541-3.168-0.475-4.684,0.154C35.258,24.575,35.128,24.6,35,24.6z"/>
	<path style="fill:#6B4842;" d="M20.519,29c-1.088,0-2.061-0.497-2.74-1.399c-0.13-0.173-0.201-0.384-0.201-0.601   c0-1.103,0.897-2,2-2c0.552,0,1,0.448,1,1c0,0.399-0.234,0.743-0.571,0.904c0.291,0.118,0.633,0.16,0.983-0.043   c0.478-0.276,1.09-0.114,1.367,0.364c0.277,0.478,0.114,1.09-0.364,1.367C21.525,28.862,21.029,29,20.519,29z"/>
	<path style="fill:#6B4842;" d="M38.492,29c-1.088,0-2.061-0.497-2.74-1.399c-0.13-0.173-0.201-0.384-0.201-0.601   c0-1.103,0.897-2,2-2c0.552,0,1,0.448,1,1c0,0.399-0.234,0.743-0.571,0.904c0.291,0.118,0.633,0.16,0.983-0.043   c0.478-0.276,1.089-0.114,1.367,0.364c0.277,0.478,0.114,1.09-0.364,1.367C39.498,28.862,39.002,29,38.492,29z"/>
	<path style="fill:#D3A87D;" d="M29,34c-0.552,0-1-0.448-1-1s0.448-1,1-1c0.552,0,1-0.449,1-1c0-0.322-0.149-0.616-0.41-0.807   c-1.01-0.741-1.59-1.809-1.59-2.93V27c0-0.552,0.448-1,1-1s1,0.448,1,1v0.263c0,0.653,0.484,1.105,0.772,1.317   C31.541,29.142,32,30.048,32,31C32,32.654,30.654,34,29,34z"/>
	<path style="fill:#D3A87D;" d="M30,45h-2c-0.552,0-1-0.448-1-1s0.448-1,1-1h2c0.552,0,1,0.448,1,1S30.552,45,30,45z"/>
	<path style="fill:#EA6248;" d="M32,42c-0.105,0-0.212-0.017-0.316-0.052L29,41.054l-2.684,0.895   c-0.522,0.175-1.09-0.108-1.265-0.632c-0.175-0.524,0.109-1.09,0.633-1.265l3-1c0.205-0.068,0.427-0.068,0.632,0l3,1   c0.524,0.175,0.807,0.741,0.633,1.265C32.809,41.735,32.419,42,32,42z"/>
	<path style="fill:#D3A87D;" d="M23,34c-0.552,0-1-0.448-1-1v-1c0-0.552,0.448-1,1-1s1,0.448,1,1v1C24,33.552,23.552,34,23,34z"/>
	<path style="fill:#D3A87D;" d="M21,37c-0.552,0-1-0.448-1-1v-1c0-0.552,0.448-1,1-1s1,0.448,1,1v1C22,36.552,21.552,37,21,37z"/>
	<path style="fill:#D3A87D;" d="M35,34c-0.552,0-1-0.448-1-1v-1c0-0.552,0.448-1,1-1s1,0.448,1,1v1C36,33.552,35.552,34,35,34z"/>
	<path style="fill:#D3A87D;" d="M37,37c-0.552,0-1-0.448-1-1v-1c0-0.552,0.448-1,1-1s1,0.448,1,1v1C38,36.552,37.552,37,37,37z"/>
	<path style="fill:#6C342A;" d="M12,25v-2.326c0-2.989,1.109-5.929,3.279-7.984c0.69-0.653,1.505-1.246,2.463-1.69   c-0.06,0.103,5.274,2.198,10.778,0c0,0,6.467,0,8.623-2c0,0,3.33,1.491,6.05,4.473C45.047,17.504,46,20.201,46,22.951V29   c0,0,0.305-0.5,0.979-1.5C48.345,25.472,49,23.099,49,20.708v-1.708c0-2.068-0.503-4.112-1.52-5.952   c-1.327-2.401-3.764-5.486-8.18-8.047c0,0-0.606-1.688-3.183-2.953c-1.761-0.865-3.794-1.125-5.771-0.901   C29.187,1.278,27.953,1.527,27.443,2c0,0-6.467,0-7.545-2c0,0-2.156,2-2.156,4c0,0-1.078-1-3.234-1c0,0-2.156,3-1.078,5   C13.431,8,9,10,9,18c0,0,0,9,3,10V25z"/>
	<path style="fill:#9B5C54;" d="M28.521,14c-0.427,0-0.822-0.276-0.955-0.705c-0.163-0.527,0.132-1.087,0.66-1.251   c2.41-0.745,2.526-2.022,2.529-2.076c0.037-0.538,0.495-0.971,1.033-0.949c0.539,0.019,0.966,0.442,0.966,0.98   c0,0.112-0.045,2.751-3.938,3.956C28.718,13.986,28.619,14,28.521,14z"/>
</g>

</svg>
