<?xml version="1.0" encoding="iso-8859-1"?>
<!-- Generator: Adobe Illustrator 19.0.0, SVG Export Plug-In . SVG Version: 6.00 Build 0)  -->
<svg version="1.1" id="Capa_1" xmlns="http://www.w3.org/2000/svg" xmlns:xlink="http://www.w3.org/1999/xlink" x="0px" y="0px"
	 viewBox="0 0 512 512" style="enable-background:new 0 0 512 512;" xml:space="preserve">
<g>
	<path style="fill:#FFD93B;" d="M227.488,106.385C162.496,61.761,101.744,23.841,55.344,8.721
		c-11.664-3.68-23.328,5.072-23.328,17.2v244.208l195.472-63.216V106.385z"/>
	<path style="fill:#FFD93B;" d="M284.576,106.385C349.568,61.761,410.32,23.841,456.72,8.721c11.664-3.68,23.328,5.072,23.328,17.2
		v244.208l-195.472-63.216V106.385z"/>
</g>
<g>
	<path style="fill:#F4C534;" d="M145.216,97.713c-30.304-19.68-58.224-35.552-81.088-43.408v116.96
		C87.088,142.193,114.928,116.657,145.216,97.713z"/>
	<path style="fill:#F4C534;" d="M413.728,144.625c11.776,10.256,24.096,21.296,34.144,33.84V54.304
		c-24.272,8.336-54.256,25.76-86.736,47.136C379.92,114.001,396.592,129.697,413.728,144.625z"/>
</g>
<circle style="fill:#FFD93B;" cx="256" cy="255.041" r="224.48"/>
<path style="fill:#F4C534;" d="M480.432,255.041c0,124-100.496,224.432-224.432,224.432c-70.56,0-133.536-32.544-174.704-83.536
	c38.496,31.136,87.52,49.728,140.896,49.728c123.936,0,224.432-100.432,224.432-224.432c0-53.376-18.592-102.4-49.728-140.896
	C447.824,121.505,480.432,184.481,480.432,255.041z"/>
<path style="fill:#3E4347;" d="M371.744,353.457c-15.856,48.8-61.696,84-115.712,84c-54.112,0-99.856-35.2-115.808-84
	c-1.952-5.824,3.28-11.552,9.216-9.824c42.448,12.48,170.752,12.48,213.104,0C368.464,341.889,373.68,347.617,371.744,353.457z"/>
<path style="fill:#E24B4B;" d="M255.984,397.889c-38.032,0-68.848-16.96-68.848,15.968c0,0.72,0.224,1.392,0.24,2.112
	c19.568,13.424,43.104,21.472,68.656,21.472c25.488,0,48.992-8.032,68.544-21.44c0.032-0.72,0.256-1.408,0.256-2.144
	C324.832,380.945,294,397.889,255.984,397.889z"/>
<g>
	<circle style="fill:#F4C534;" cx="154.768" cy="240.481" r="86.304"/>
	<path style="fill:#F4C534;" d="M228.656,240.417c-2.272,41.056-37.184,74.32-77.968,74.32s-72.144-33.264-69.872-74.32
		c2.272-41.056,37.312-74.448,78.112-74.448S230.928,199.361,228.656,240.417z"/>
</g>
<path style="fill:#3E4347;" d="M167.584,94.529c0,0-45.6-6.416-93.472,49.008C74.112,143.553,105.072,44.273,167.584,94.529z"/>
<g>
	<circle style="fill:#F4C534;" cx="357.232" cy="240.481" r="86.304"/>
	<path style="fill:#F4C534;" d="M283.344,240.417c2.272,41.056,37.184,74.32,77.968,74.32s72.144-33.264,69.872-74.32
		c-2.272-41.056-37.312-74.448-78.112-74.448S281.072,199.361,283.344,240.417z"/>
</g>
<path style="fill:#3E4347;" d="M344.416,94.529c0,0,45.6-6.416,93.472,49.008C437.888,143.553,406.944,44.273,344.416,94.529z"/>
<path style="fill:#7A5B44;" d="M283.712,313.457c0,9.872-11.2,18.416-19.312,23.28c-5.312,3.088-11.504,3.088-16.8,0
	c-7.952-4.864-19.312-13.408-19.312-23.28c0-15.328,12.528-16.944,27.712-16.944C271.328,296.513,283.712,298.129,283.712,313.457z"
	/>
<path style="fill:#6B503B;" d="M283.712,313.457c0,9.872-11.2,18.416-19.312,23.28c-5.312,3.088-11.504,3.088-16.8,0
	c-4.864-2.944-11.2-7.376-15.184-12.672c2.352,1.776,4.72,3.248,6.784,4.56c6.048,3.536,13.12,3.536,19.152,0
	c9.136-5.44,21.52-15.024,21.952-25.936C282.528,305.201,283.712,308.753,283.712,313.457z"/>
<g>
	<path style="fill:#3E4347;" d="M443.52,240.369c0,2.656-0.592,5.312-1.616,7.808c-7.52-16.656-42.592-29.328-84.736-29.328
		c-42,0-77.072,12.672-84.592,29.328c-1.04-2.496-1.616-5.152-1.616-7.808c0-22.688,38.608-41.264,86.208-41.264
		C404.896,199.105,443.52,217.665,443.52,240.369z"/>
	<path style="fill:#3E4347;" d="M241.024,240.369c0,2.656-0.592,5.312-1.616,7.808c-7.52-16.656-42.592-29.328-84.736-29.328
		c-42,0-77.072,12.672-84.592,29.328c-1.04-2.496-1.616-5.152-1.616-7.808c0-22.688,38.608-41.264,86.208-41.264
		C202.416,199.105,241.024,217.665,241.024,240.369z"/>
</g>
<path style="fill:#FFFFFF;" d="M357.6,344.849c-7.376,16.208-20.192,26.24-36.704,32.272c-2.8,15.472-10.32,28.88-20.192,38.32
	c3.536-11.488,3.392-23.136,0.592-33.168c-13.856,2.656-29.184,3.392-45.392,3.392s-31.536-0.736-45.248-3.392
	c-2.8,10.032-2.944,21.664,0.592,33.168c-9.872-9.44-17.392-22.848-20.192-38.32c-16.368-6.032-29.184-16.064-36.704-32.272
	C199.168,355.601,312.8,355.601,357.6,344.849z"/>
<g>
	<path style="fill:#3E4347;" d="M383.184,360.385c0,0,11.568,3.92,26.24,13.488c53.504,33.424,69.344,78.992,76.096,130.256
		c-8.272-45.984-23.264-92.4-79.808-124.176c-14.656-8.56-25.2-11.552-25.2-11.552c-2.24-0.64-3.552-2.976-2.912-5.216
		s2.976-3.552,5.216-2.912c0.064,0.016,0.128,0.048,0.192,0.064L383.184,360.385z"/>
	<path style="fill:#3E4347;" d="M396.272,345.329c31.84,3.904,71.616,26.16,101.104,71.92
		c-31.792-42.768-72.08-62.032-101.936-63.52c-2.336-0.112-4.128-2.096-4.016-4.416c0.112-2.336,2.096-4.128,4.432-4.016
		c0.096,0,0.192,0.016,0.288,0.032L396.272,345.329z"/>
	<path style="fill:#3E4347;" d="M401.296,323.441c0,0,2.4,0.144,6.608,0.416c4.112,0.24,10.512,0.848,17.696,2.24
		c7.28,1.216,15.648,3.632,24.176,7.184c4.272,1.792,8.496,4.032,12.64,6.56c4.048,2.672,8.144,5.424,11.744,8.784
		c15.008,12.896,24.432,30.512,29.984,43.744c2.608,6.752,4.736,12.384,5.888,16.464c1.248,4,1.968,6.304,1.968,6.304
		s-0.832-2.256-2.272-6.224c-1.328-4-3.728-9.52-6.624-16.096c-6.144-12.896-16.304-29.728-31.296-41.376
		c-14.688-12.096-33.328-17.472-47.216-19.232c-7.04-0.992-12.672-1.28-16.976-1.328c-4.208-0.064-6.624-0.096-6.624-0.096
		c-2.032-0.032-3.664-1.712-3.632-3.728c0.032-2.032,1.696-3.664,3.744-3.632C401.168,323.425,401.232,323.425,401.296,323.441z"/>
	<path style="fill:#3E4347;" d="M128.816,360.385c0,0-11.568,3.92-26.256,13.488c-53.504,33.424-69.344,78.992-76.096,130.256
		c8.272-45.984,23.264-92.4,79.808-124.176c14.656-8.56,25.2-11.552,25.2-11.552c2.24-0.64,3.552-2.976,2.912-5.216
		s-2.976-3.552-5.216-2.912c-0.064,0.016-0.128,0.048-0.192,0.064L128.816,360.385z"/>
	<path style="fill:#3E4347;" d="M115.728,345.329c-31.84,3.904-71.632,26.16-101.12,71.92c31.792-42.768,72.08-62.032,101.936-63.52
		c2.336-0.112,4.128-2.096,4.016-4.416c-0.112-2.336-2.096-4.128-4.432-4.016c-0.096,0-0.192,0.016-0.288,0.032L115.728,345.329z"/>
	<path style="fill:#3E4347;" d="M110.704,323.441c0,0-2.4,0.144-6.608,0.416C100,324.081,93.6,324.689,86.4,326.081
		c-7.28,1.216-15.648,3.632-24.176,7.184c-4.272,1.792-8.496,4.032-12.64,6.56c-4.048,2.672-8.144,5.424-11.744,8.784
		c-15.008,12.896-24.416,30.512-29.984,43.744c-2.608,6.752-4.736,12.384-5.888,16.464C0.72,412.833,0,415.137,0,415.137
		s0.832-2.256,2.272-6.224c1.328-4,3.728-9.52,6.64-16.096c6.144-12.896,16.304-29.728,31.296-41.376
		c14.688-12.096,33.328-17.472,47.216-19.232c7.04-0.992,12.672-1.28,16.976-1.328c4.208-0.064,6.608-0.096,6.608-0.096
		c2.032-0.032,3.664-1.712,3.632-3.728c-0.032-2.032-1.712-3.664-3.744-3.632C110.832,323.425,110.768,323.425,110.704,323.441z"/>
</g>
<path style="fill:#65B1EF;" d="M502.128,347.217c-4.672-17.152-49.536-59.408-49.536-59.408s-17.248,59.168-12.576,76.32
	s22.368,27.28,39.52,22.608C496.688,382.065,506.8,364.369,502.128,347.217z"/>
<path style="fill:#FFFFFF;" d="M473.504,375.121c-2.4,3.68-9.28,3.52-15.68-0.32c-6.24-4-9.6-10.08-7.2-13.92
	c2.24-3.68,5.168,3.28,11.408,7.12C468.432,372.001,475.744,371.281,473.504,375.121z"/>
<path style="fill:#65B1EF;" d="M9.872,347.217c4.672-17.152,49.536-59.408,49.536-59.408s17.248,59.168,12.576,76.32
	c-4.672,17.152-22.368,27.28-39.52,22.608C15.312,382.065,5.2,364.369,9.872,347.217z"/>
<path style="fill:#FFFFFF;" d="M38.496,375.121c2.4,3.68,9.28,3.52,15.68-0.32c6.24-4,9.6-10.08,7.2-13.92
	c-2.24-3.68-5.168,3.28-11.408,7.12C43.568,372.001,36.256,371.281,38.496,375.121z"/>
<g>
</g>
<g>
</g>
<g>
</g>
<g>
</g>
<g>
</g>
<g>
</g>
<g>
</g>
<g>
</g>
<g>
</g>
<g>
</g>
<g>
</g>
<g>
</g>
<g>
</g>
<g>
</g>
<g>
</g>
</svg>
