<?xml version="1.0" encoding="iso-8859-1"?>
<!-- Generator: Adobe Illustrator 22.0.0, SVG Export Plug-In . SVG Version: 6.00 Build 0)  -->
<svg xmlns="http://www.w3.org/2000/svg" xmlns:xlink="http://www.w3.org/1999/xlink" version="1.1" x="0px" y="0px" viewBox="0 0 58 57" style="enable-background:new 0 0 58 57;" xml:space="preserve" width="512" height="512">
<g id="_x33_1-Modern">
	<path style="fill:#61B872;" d="M43.067,46.893L37,53c-0.582-1.747-4.334-6.059-6.018-7.013C30.912,45.989,30.843,46,30.771,46h-2.7   c-0.308,0-1.038-0.029-1.054-0.013h0C25.334,46.941,21.582,51.253,21,53l-6.067-6.107C7.407,50.669,0,51.846,0,57h29h29   C58,51.846,50.593,50.669,43.067,46.893z"/>
	<path style="fill:#3D6F44;" d="M30,48c0,0.04,0.983,0.948,0.983,0.987c0,0,0,0,0,0C32.666,49.941,36.418,52.253,37,54l7-8.2   c-1.035-0.583-4.867-3.068-6-3.8C35.499,44.709,33.849,47.524,30,48z"/>
	<path style="fill:#3D6F44;" d="M28,48c-3.868-0.467-5.489-3.28-8-6c-1.133,0.731-4.965,3.216-6,3.8l7,8.2   c0.582-1.747,4.334-4.059,6.018-5.013h0c0.017-0.017,0.034-0.035,0.051-0.052C27.067,48.916,28,48.02,28,48z"/>
	<path style="fill:#FFFFFF;" d="M29,53c-0.552,0-1-0.447-1-1v-3c0-0.553,0.448-1,1-1s1,0.447,1,1v3C30,52.553,29.552,53,29,53z"/>
	<path style="fill:#D3A87D;" d="M12.569,27.043C10.566,27.261,9,28.938,9,31c0,2.209,1.791,4,4,4l3-2v-6   C15.922,26.714,12.766,27.913,12.569,27.043z"/>
	<path style="fill:#D3A87D;" d="M45.433,27.044C45.235,27.918,42.079,26.715,42,27v6l3,2c2.209,0,4-1.791,4-4   C49,28.939,47.435,27.262,45.433,27.044z"/>
	<g>
		<path style="fill:#FBCE9D;" d="M44.943,29C44,27,43.293,21.003,43,19c-3.175,1.483-8.426-1-13-1s-11.825,1.483-15,0    c-0.293,2.003,0.66,11-1.943,11c0,0-0.023-0.082-0.057-0.205V33c0,0.118,0.015,0.233,0.018,0.35l5.632,9.762    c0.374,0.363,0.957,0.292,1.285-0.112c0.66-0.814,2.806-3,9.065-3c6.259,0,8.405,0.9,9.065,1.714    c0.328,0.405,0.911,0.476,1.285,0.112l5.632-8.476C44.985,33.233,45,33.118,45,33v-4.205C44.966,28.918,44.943,29,44.943,29z"/>
	</g>
	<path style="fill:#EBBA16;" d="M47,13c-0.389-4.325-6.291-7.836-14.056-8.754C30.688,1.784,28.486,0,28.486,0   c0,3.064-3.861,5.44-6.293,8.408c1.231-1.504,2.825-2.858,4.103-4.225c-0.481,0.065-0.949,0.152-1.411,0.25   c0.048-0.052,0.107-0.117,0.183-0.199c-7.774,0.916-13.639,4.481-14.03,8.808c0,0-0.03,0.513-0.03,0.542   C11.095,22.299,13.057,29,13.057,29c2.603,0,3.739-6.388,4.031-8.391C20.264,22.092,24.426,23,29,23s8.736-0.908,11.911-2.391   C41.204,22.612,42.34,29,44.943,29C44.943,29,47,22,47,13L47,13z"/>
	<g>
		<path style="fill:#EBBA16;" d="M39.35,38.826c-0.374,0.363-0.957,0.292-1.285-0.112C37.405,37.9,35.259,37,29,37    s-8.405,0.9-9.065,1.714c-0.328,0.405-0.911,0.476-1.285,0.112L13,33.333v4.114c0.713,1.595,1.608,3.126,2.714,4.553    c2.714,3.5,7,7,13.286,7s10.571-3.5,13.286-7c1.107-1.427,2.001-2.958,2.714-4.553v-4.114L39.35,38.826z"/>
	</g>
	<path style="fill:#C49716;" d="M29,24c-3.895,0-7.408-2.607-8.949-6.644c-0.527-1.377-0.793-2.843-0.793-4.356c0-0.553,0.448-1,1-1   s1,0.447,1,1c0,1.269,0.223,2.494,0.662,3.643C23.162,19.897,25.941,22,29,22c2.433,0,4.678-1.294,6.159-3.549   c0.304-0.462,0.924-0.591,1.385-0.287c0.462,0.304,0.59,0.923,0.287,1.385C35,22.336,32.073,24,29,24z"/>
	<g>
		<path style="fill:#C49716;" d="M42.886,14.5c-0.552,0-1-0.447-1-1c0-3.674-3.848-7.153-9.149-8.275    c-0.541-0.114-0.886-0.646-0.771-1.186s0.643-0.885,1.186-0.771C39.471,4.605,43.886,8.812,43.886,13.5    C43.886,14.053,43.438,14.5,42.886,14.5z"/>
		<path style="fill:#C49716;" d="M15.114,14.5c-0.552,0-1-0.447-1-1c0-5.03,5.067-9.365,12.048-10.308    c0.55-0.07,1.051,0.311,1.125,0.857c0.074,0.547-0.31,1.051-0.857,1.125C20.452,5.981,16.114,9.482,16.114,13.5    C16.114,14.053,15.667,14.5,15.114,14.5z"/>
	</g>
	<path style="fill:#C49716;" d="M29.991,46h-2c-0.552,0-1-0.447-1-1s0.448-1,1-1h2c0.552,0,1,0.447,1,1S30.544,46,29.991,46z"/>
	<path style="fill:#C49716;" d="M26.379,42.442c-1.702,0-2.761-0.516-2.826-0.548c-0.494-0.247-0.694-0.848-0.447-1.342   c0.246-0.492,0.842-0.692,1.334-0.451c0.084,0.04,1.729,0.787,4.244-0.05c0.522-0.175,1.09,0.108,1.265,0.632   c0.175,0.524-0.109,1.091-0.633,1.265C28.21,42.317,27.217,42.442,26.379,42.442z"/>
	<path style="fill:#C49716;" d="M31.621,42.442c-0.837,0-1.83-0.125-2.937-0.494c-0.524-0.174-0.807-0.74-0.633-1.265   c0.175-0.523,0.743-0.807,1.265-0.632c2.529,0.842,4.177,0.081,4.245,0.05c0.496-0.237,1.092-0.03,1.333,0.463   c0.24,0.492,0.043,1.085-0.447,1.33C34.382,41.927,33.322,42.442,31.621,42.442z"/>
	<path style="fill:#C49716;" d="M18,28.6c-0.392,0-0.764-0.231-0.924-0.616c-0.212-0.511,0.03-1.096,0.54-1.308   c2.047-0.849,4.637-0.897,6.3-0.118c0.5,0.234,0.715,0.83,0.481,1.33c-0.234,0.499-0.83,0.715-1.33,0.48   c-1.155-0.541-3.168-0.474-4.684,0.155C18.258,28.575,18.128,28.6,18,28.6z"/>
	<path style="fill:#366DB6;" d="M21.027,33c-1.088,0-2.061-0.497-2.739-1.398c-0.13-0.174-0.201-0.385-0.201-0.602   c0-1.103,0.897-2,2-2c0.552,0,1,0.447,1,1c0,0.398-0.234,0.743-0.571,0.903c0.291,0.118,0.631,0.161,0.984-0.044   c0.479-0.274,1.09-0.112,1.366,0.366c0.276,0.478,0.113,1.09-0.365,1.366C22.031,32.862,21.535,33,21.027,33z"/>
	<path style="fill:#D3A87D;" d="M29,35c-0.552,0-1-0.447-1-1s0.448-1,1-1c0.552,0,1-0.448,1-1c0-0.322-0.15-0.616-0.41-0.808   c-1.01-0.74-1.59-1.808-1.59-2.93V28c0-0.553,0.448-1,1-1s1,0.447,1,1v0.263c0,0.653,0.484,1.105,0.772,1.316   C31.541,30.144,32,31.048,32,32C32,33.654,30.654,35,29,35z"/>
	<path style="fill:#C49716;" d="M39.491,28.6c-0.128,0-0.258-0.024-0.383-0.076c-1.516-0.63-3.53-0.697-4.684-0.155   c-0.5,0.235-1.095,0.019-1.33-0.48c-0.235-0.5-0.019-1.096,0.481-1.33c1.663-0.78,4.254-0.73,6.3,0.118   c0.51,0.212,0.752,0.797,0.54,1.308C40.256,28.368,39.884,28.6,39.491,28.6z"/>
	<path style="fill:#366DB6;" d="M37.432,33c-1.088,0-2.061-0.497-2.74-1.399c-0.13-0.173-0.201-0.384-0.201-0.601   c0-1.103,0.897-2,2-2c0.552,0,1,0.447,1,1c0,0.398-0.234,0.743-0.571,0.903c0.291,0.118,0.631,0.161,0.984-0.044   c0.479-0.274,1.09-0.112,1.366,0.366c0.276,0.478,0.113,1.09-0.365,1.366C38.437,32.862,37.941,33,37.432,33z"/>
</g>

</svg>
