<?xml version="1.0" encoding="iso-8859-1"?>
<!-- Generator: Adobe Illustrator 22.0.0, SVG Export Plug-In . SVG Version: 6.00 Build 0)  -->
<svg xmlns="http://www.w3.org/2000/svg" xmlns:xlink="http://www.w3.org/1999/xlink" version="1.1" x="0px" y="0px" viewBox="0 0 58 58" style="enable-background:new 0 0 58 58;" xml:space="preserve" width="512" height="512">
<g id="_x33_2-Moustache">
	<path style="fill:#DD352E;" d="M51.442,50.62c-1.751-1.035-3.554-2.263-5.209-3.641c-0.2,0.007-0.388,0.022-0.6,0.022   C34.92,40.782,39.176,43.936,37,44H21c-3.945,0.963-8.633,3-8.633,3c-0.112,0-0.21-0.009-0.319-0.012   c-1.814,1.373-3.744,2.599-5.49,3.631C3.135,52.643,0,54.648,0,58h29h29C58,54.648,54.865,52.643,51.442,50.62z"/>
	<path style="fill:#EDB883;" d="M38.295,46.004l-18.589,0c-0.496,0.121-0.983,0.227-1.457,0.32C20.096,50.634,23.358,56.375,29,58   c5.636-1.624,8.901-7.363,10.751-11.675C39.278,46.231,38.791,46.125,38.295,46.004z"/>
	<path style="fill:#D3A87D;" d="M12.569,27.043C10.566,27.261,9,28.938,9,31c0,2.209,1.791,4,4,4l3-2v-6   C15.922,26.714,12.766,27.913,12.569,27.043z"/>
	<path style="fill:#D3A87D;" d="M45.433,27.044C45.235,27.918,42.079,26.715,42,27v6l3,2c2.209,0,4-1.791,4-4   C49,28.939,47.435,27.262,45.433,27.044z"/>
	<path style="fill:#FBCE9D;" d="M44.943,29c-2.603,0-0.65-8.997-0.943-11c-3.175,1.483-11.426,1-16,1s-12.825-0.517-16-2   c-0.293,2.003,3.66,12,1.057,12c0,0-0.023-0.082-0.057-0.205V33c0,3.254,0.977,6.276,2.645,8.802l4.058,4.203   C22.325,47.883,25.529,49,29,49s6.675-1.117,9.297-2.995l4.058-4.203C44.023,39.276,45,36.254,45,33v-4.205   C44.966,28.918,44.943,29,44.943,29z"/>
	<path style="fill:#BE6E41;" d="M46.992,13c-0.389-4.325-6.291-7.836-14.056-8.754C30.68,1.784,28.478,0,28.478,0   c0,3.064-3.861,5.44-6.293,8.408c1.231-1.504,2.825-2.858,4.103-4.225c-0.481,0.065-0.949,0.152-1.411,0.25   c0.048-0.052,0.107-0.117,0.183-0.199c-7.774,0.916-13.639,4.481-14.03,8.808c0,0-0.03,0.513-0.03,0.542   C11.087,22.299,13.049,29,13.049,29c2.603,0,3.739-6.388,4.031-8.391C20.256,22.092,24.418,23,28.992,23s8.736-0.908,11.911-2.391   C41.196,22.612,42.332,29,44.935,29C44.935,29,46.992,22,46.992,13L46.992,13z"/>
	<path style="fill:#9E5632;" d="M28.992,24c-3.895,0-7.408-2.607-8.949-6.644c-0.527-1.377-0.793-2.843-0.793-4.356   c0-0.553,0.448-1,1-1s1,0.447,1,1c0,1.269,0.223,2.494,0.662,3.643C23.154,19.897,25.933,22,28.992,22   c2.433,0,4.678-1.294,6.159-3.549c0.304-0.462,0.924-0.591,1.385-0.287c0.462,0.304,0.59,0.923,0.287,1.385   C34.992,22.336,32.065,24,28.992,24z"/>
	<g>
		<path style="fill:#9E5632;" d="M42.878,14.5c-0.552,0-1-0.447-1-1c0-3.674-3.848-7.153-9.149-8.275    c-0.541-0.114-0.886-0.646-0.771-1.186s0.643-0.885,1.186-0.771C39.463,4.605,43.878,8.812,43.878,13.5    C43.878,14.053,43.43,14.5,42.878,14.5z"/>
		<path style="fill:#9E5632;" d="M15.106,14.5c-0.552,0-1-0.447-1-1c0-5.03,5.067-9.365,12.048-10.308    c0.55-0.07,1.051,0.311,1.125,0.857c0.074,0.547-0.31,1.051-0.857,1.125C20.444,5.981,16.106,9.482,16.106,13.5    C16.106,14.053,15.658,14.5,15.106,14.5z"/>
	</g>
	<path style="fill:#9E5632;" d="M19,29.6c-0.392,0-0.764-0.231-0.924-0.616c-0.212-0.51,0.03-1.096,0.54-1.308   c2.046-0.849,4.637-0.897,6.3-0.118c0.5,0.234,0.715,0.83,0.481,1.33c-0.234,0.499-0.83,0.714-1.33,0.48   c-1.154-0.541-3.168-0.474-4.684,0.155C19.258,29.575,19.128,29.6,19,29.6z"/>
	<path style="fill:#28384C;" d="M22.027,34c-1.088,0-2.061-0.497-2.74-1.399c-0.13-0.173-0.201-0.384-0.201-0.601   c0-1.103,0.897-2,2-2c0.552,0,1,0.447,1,1c0,0.398-0.234,0.743-0.571,0.903c0.291,0.118,0.631,0.161,0.984-0.044   c0.479-0.274,1.09-0.112,1.366,0.366c0.276,0.478,0.113,1.09-0.365,1.366C23.031,33.862,22.535,34,22.027,34z"/>
	<path style="fill:#D3A87D;" d="M29,36c-0.552,0-1-0.447-1-1s0.448-1,1-1c0.552,0,1-0.448,1-1c0-0.322-0.15-0.616-0.41-0.808   c-1.01-0.74-1.59-1.808-1.59-2.93V29c0-0.553,0.448-1,1-1s1,0.447,1,1v0.263c0,0.653,0.484,1.105,0.772,1.316   C31.541,31.144,32,32.048,32,33C32,34.654,30.654,36,29,36z"/>
	<path style="fill:#9E5632;" d="M39,29.6c-0.128,0-0.258-0.024-0.383-0.076c-1.516-0.63-3.53-0.697-4.684-0.155   c-0.5,0.235-1.095,0.019-1.33-0.48c-0.235-0.5-0.019-1.096,0.481-1.33c1.663-0.78,4.254-0.73,6.3,0.118   c0.51,0.212,0.752,0.797,0.54,1.308C39.764,29.368,39.392,29.6,39,29.6z"/>
	<path style="fill:#28384C;" d="M36.94,34c-1.088,0-2.061-0.497-2.74-1.399C34.071,32.428,34,32.217,34,32c0-1.103,0.897-2,2-2   c0.552,0,1,0.447,1,1c0,0.398-0.234,0.743-0.571,0.903c0.291,0.118,0.631,0.161,0.984-0.044c0.479-0.274,1.09-0.112,1.366,0.366   c0.276,0.478,0.113,1.09-0.365,1.366C37.945,33.862,37.449,34,36.94,34z"/>
	<path style="fill:#BE6E41;" d="M11.328,40.333c0,0-0.596-1.17-2.328-1.333c-1.792-0.169-3.601,0.741-3.91,2.167   C4.663,43.141,5.538,47,12.367,47c0,0,9.972-0.107,15.524-4.761c0.738-0.619,1.116-1.466,1.109-2.323c0,0,0-0.001,0-0.001   c-0.048-2.418-3.521-3.768-5.936-2.319C19.886,39.504,15.152,42.869,11,43C7.321,43.116,9.455,40.432,11.328,40.333z"/>
	<path style="fill:#BE6E41;" d="M46.672,40.333c0,0,0.596-1.17,2.328-1.333c1.792-0.169,3.601,0.741,3.91,2.167   C53.337,43.141,52.462,47,45.633,47c0,0-9.972-0.107-15.524-4.761c-0.738-0.619-1.116-1.466-1.109-2.323c0,0,0-0.001,0-0.001   c0.048-2.418,3.521-3.768,5.936-2.319C38.114,39.504,42.848,42.869,47,43C50.679,43.116,48.545,40.432,46.672,40.333z"/>
</g>

</svg>
