<?xml version="1.0" encoding="iso-8859-1"?>
<!-- Generator: Adobe Illustrator 19.0.0, SVG Export Plug-In . SVG Version: 6.00 Build 0)  -->
<svg version="1.1" id="Capa_1" xmlns="http://www.w3.org/2000/svg" xmlns:xlink="http://www.w3.org/1999/xlink" x="0px" y="0px"
	 viewBox="0 0 512.011 512.011" style="enable-background:new 0 0 512.011 512.011;" xml:space="preserve">
<g>
	<path style="fill:#FFD93B;" d="M225.046,106.955C154.486,58.507,88.518,17.34,38.166,0.923c-12.656-4-25.328,5.504-25.328,18.672
		v265.12l212.208-68.64L225.046,106.955L225.046,106.955z"/>
	<path style="fill:#FFD93B;" d="M287.03,106.955C357.59,58.507,423.542,17.34,473.91,0.923c12.672-4,25.328,5.504,25.328,18.672
		v265.12l-212.208-68.64V106.955z"/>
</g>
<g>
	<path style="fill:#F4C534;" d="M135.734,97.548c-32.912-21.376-63.216-38.592-88.032-47.136v126.976
		C72.63,145.835,102.838,118.123,135.734,97.548z"/>
	<path style="fill:#F4C534;" d="M427.238,148.475c12.784,11.136,26.16,23.12,37.072,36.736v-134.8
		c-26.336,9.056-58.912,27.984-94.176,51.168C390.55,115.228,408.646,132.267,427.238,148.475z"/>
</g>
<circle style="fill:#FFD93B;" cx="256.006" cy="268.348" r="243.664"/>
<g>
	<path style="fill:#F4C534;" d="M499.67,268.348c0,134.624-109.12,243.664-243.664,243.664c-76.608,0-144.976-35.328-189.68-90.688
		c41.808,33.808,95.024,53.984,152.976,53.984c134.544,0,243.664-109.04,243.664-243.664c0-57.952-20.176-111.168-53.984-152.976
		C464.262,123.371,499.67,191.755,499.67,268.348z"/>
	<circle style="fill:#F4C534;" cx="146.102" cy="252.443" r="93.696"/>
</g>
<path style="fill:#FFFFFF;" d="M226.31,252.475c-2.464,44.56-40.368,80.688-84.656,80.688s-78.32-36.112-75.856-80.688
	s40.512-80.832,84.8-80.832C194.902,171.659,228.79,207.915,226.31,252.475z"/>
<g>
	<path style="fill:#3E4347;" d="M160.006,94.091c0,0-49.504-6.96-101.488,53.216C58.534,147.307,92.134,39.531,160.006,94.091z"/>
	<path style="fill:#3E4347;" d="M352.006,94.091c0,0,49.504-6.96,101.488,53.216C453.478,147.307,419.878,39.531,352.006,94.091z"/>
</g>
<path style="fill:#7A5B44;" d="M286.758,327.836c0,10.96-12.432,20.448-21.44,25.856c-5.888,3.44-12.752,3.44-18.656,0
	c-8.832-5.408-21.424-14.896-21.424-25.856c0-17.008,13.904-18.816,30.752-18.816C273.014,309.02,286.758,310.828,286.758,327.836z"
	/>
<path style="fill:#6B503B;" d="M286.758,327.836c0,10.96-12.432,20.448-21.44,25.856c-5.888,3.44-12.752,3.44-18.656,0
	c-5.392-3.28-12.432-8.176-16.848-14.08c2.624,1.968,5.232,3.6,7.52,5.072c6.704,3.936,14.56,3.936,21.264,0
	c10.144-6.048,23.888-16.688,24.368-28.784C285.462,318.668,286.758,322.604,286.758,327.836z"/>
<path style="fill:#3E4347;" d="M354.198,441.083c0,42.128-43.968,0-98.192,0s-98.192,42.128-98.192,0
	c0-54.576,43.968-76.288,98.192-76.288S354.198,386.508,354.198,441.083z"/>
<path style="fill:#E24B4B;" d="M319.558,455.035c1.856-4.672,2.72-9.776,2-15.168c-2.512-18.976-21.36-33.888-42.512-35.312
	c-12.032-0.8-23.104,2.768-30.928,9.296c-4.096-1.696-8.624-2.752-13.504-3.072c-20.4-1.376-40.464,10.848-45.44,29.136
	c-1.504,5.568-1.28,11.008,0.096,16.112c17.52-5.472,40.928-14.96,66.72-14.96C280.262,441.083,302.422,449.483,319.558,455.035z"/>
<path style="fill:#FFFFFF;" d="M165.574,406.06c22.496-9.488,53.872-22.016,89.392-22.016c36.192,0,68.592,12.992,91.712,22.528
	c-14.784-29.44-49.792-41.792-90.672-41.792C215.366,364.796,180.502,376.988,165.574,406.06z"/>
<g>
	<path style="fill:#3E4347;" d="M334.934,373.243c19.52,4.256,61.504,18.896,95.6,40.864c40.128,25.68,56.16,46.192,73.808,71.712
		c-18.88-25.184-35.536-44.608-75.872-68.304c-33.376-19.712-75.136-32.912-95.168-36.448c-2.176-0.384-3.632-2.464-3.248-4.64
		c0.384-2.176,2.464-3.632,4.64-3.248c0.048,0,0.096,0.016,0.144,0.032L334.934,373.243z"/>
	<path style="fill:#3E4347;" d="M382.374,369.164c16,2.8,42.24,12.08,65.136,25.792c24,14.016,38.656,28.864,52.768,44.864
		c-15.344-15.504-30.48-29.024-54.704-41.376c-22.928-11.984-49.072-19.648-64.4-21.376c-2.192-0.256-3.776-2.224-3.52-4.416
		c0.24-2.208,2.224-3.776,4.432-3.536C382.15,369.116,382.294,369.147,382.374,369.164z"/>
	<path style="fill:#3E4347;" d="M366.598,352.251c19.008-2.016,50.176,2.48,79.456,15.712c26.032,11.728,44.8,27.376,64.64,47.2
		c-20.608-18.64-40.128-33.296-66.208-43.52c-30.336-11.92-60.752-14.064-76.912-11.456c-2.176,0.352-4.24-1.136-4.592-3.312
		c-0.352-2.192,1.136-4.24,3.312-4.592C366.374,352.284,366.534,352.268,366.598,352.251z"/>
	<path style="fill:#3E4347;" d="M177.078,373.243c-19.52,4.256-61.488,18.896-95.6,40.864C41.35,439.788,25.318,460.3,7.67,485.82
		c18.864-25.184,35.536-44.608,75.872-68.304c33.376-19.712,75.12-32.912,95.168-36.448c2.176-0.384,3.632-2.464,3.248-4.64
		c-0.384-2.176-2.464-3.632-4.64-3.248c-0.048,0-0.096,0.016-0.144,0.032L177.078,373.243z"/>
	<path style="fill:#3E4347;" d="M129.638,369.164c-16,2.8-42.24,12.08-65.136,25.792c-24,14.016-38.656,28.864-52.768,44.864
		c15.36-15.504,30.48-29.024,54.704-41.376c22.928-11.984,49.072-19.648,64.4-21.376c2.192-0.256,3.776-2.224,3.52-4.416
		c-0.256-2.208-2.224-3.776-4.432-3.536C129.862,369.116,129.718,369.147,129.638,369.164z"/>
	<path style="fill:#3E4347;" d="M145.414,352.251c-19.008-2.016-50.176,2.48-79.456,15.712c-26.032,11.728-44.8,27.376-64.64,47.2
		c20.608-18.64,40.128-33.296,66.208-43.52c30.336-11.92,60.752-14.064,76.912-11.456c2.176,0.352,4.24-1.136,4.592-3.312
		c0.352-2.192-1.136-4.24-3.312-4.592C145.638,352.284,145.478,352.268,145.414,352.251z"/>
</g>
<circle style="fill:#F4C534;" cx="365.91" cy="252.443" r="93.696"/>
<path style="fill:#E84D88;" d="M285.702,252.475c2.464,44.56,40.368,80.688,84.656,80.688s78.32-36.112,75.856-80.688
	c-2.464-44.576-40.512-80.832-84.8-80.832C317.11,171.659,283.222,207.915,285.702,252.475z"/>
<path style="fill:#FFFFFF;" d="M285.702,252.459c2.464,28.768,40.368,52.08,84.656,52.08s78.32-23.312,75.856-52.08
	c-2.464-28.768-40.512-52.176-84.8-52.176C317.11,200.283,283.222,223.675,285.702,252.459z"/>
<path style="fill:#3E4347;" d="M333.942,252.411c-0.08,17.68,14.32,32.064,32,32c17.68,0.08,32.08-14.32,32-32
	c0.08-17.68-14.32-32.064-32-32C348.278,220.331,333.878,234.731,333.942,252.411z"/>
<ellipse transform="matrix(-0.7071 -0.7071 0.7071 -0.7071 434.5184 661.2733)" style="fill:#FFFFFF;" cx="354.213" cy="240.645" rx="6.128" ry="9.552"/>
<path style="fill:#3E4347;" d="M184.086,252.411c0.08,21.008-17.008,38.096-38.016,38.016c-21.008,0.08-38.112-17.024-38.016-38.016
	c-0.08-21.008,17.008-38.112,38.016-38.016C167.062,214.299,184.166,231.403,184.086,252.411z"/>
<ellipse transform="matrix(-0.7071 -0.7071 0.7071 -0.7071 104.5405 520.2408)" style="fill:#FFFFFF;" cx="160.016" cy="238.469" rx="11.344" ry="7.28"/>
<g>
</g>
<g>
</g>
<g>
</g>
<g>
</g>
<g>
</g>
<g>
</g>
<g>
</g>
<g>
</g>
<g>
</g>
<g>
</g>
<g>
</g>
<g>
</g>
<g>
</g>
<g>
</g>
<g>
</g>
</svg>
