<?xml version="1.0" encoding="iso-8859-1"?>
<!-- Generator: Adobe Illustrator 19.0.0, SVG Export Plug-In . SVG Version: 6.00 Build 0)  -->
<svg version="1.1" id="Capa_1" xmlns="http://www.w3.org/2000/svg" xmlns:xlink="http://www.w3.org/1999/xlink" x="0px" y="0px"
	 viewBox="0 0 512.011 512.011" style="enable-background:new 0 0 512.011 512.011;" xml:space="preserve">
<g>
	<path style="fill:#FFD93B;" d="M225.046,106.955C154.486,58.507,88.534,17.34,38.166,0.923c-12.656-4-25.328,5.504-25.328,18.672
		v265.12l212.208-68.64L225.046,106.955L225.046,106.955z"/>
	<path style="fill:#FFD93B;" d="M287.03,106.955C357.59,58.507,423.542,17.34,473.91,0.923c12.656-4,25.328,5.504,25.328,18.672
		v265.12l-212.208-68.64V106.955z"/>
</g>
<g>
	<path style="fill:#F4C534;" d="M135.734,97.548c-32.912-21.376-63.216-38.592-88.032-47.136v126.976
		C72.63,145.835,102.838,118.123,135.734,97.548z"/>
	<path style="fill:#F4C534;" d="M427.238,148.475c12.784,11.136,26.16,23.12,37.072,36.736v-134.8
		c-26.352,9.056-58.912,27.984-94.176,51.168C390.55,115.228,408.63,132.267,427.238,148.475z"/>
</g>
<circle style="fill:#FFD93B;" cx="256.006" cy="268.348" r="243.664"/>
<g>
	<path style="fill:#F4C534;" d="M499.67,268.348c0,134.624-109.12,243.664-243.664,243.664c-76.608,0-144.976-35.328-189.68-90.688
		c41.808,33.808,95.024,53.984,152.976,53.984c134.544,0,243.664-109.04,243.664-243.664c0-57.952-20.176-111.168-53.984-152.976
		C464.262,123.371,499.67,191.755,499.67,268.348z"/>
	<circle style="fill:#F4C534;" cx="146.102" cy="252.443" r="93.696"/>
</g>
<path style="fill:#FFFFFF;" d="M226.31,252.475c-2.464,44.56-40.368,80.688-84.656,80.688s-78.32-36.112-75.856-80.688
	c2.464-44.576,40.512-80.832,84.8-80.832C194.902,171.659,228.79,207.915,226.31,252.475z"/>
<path style="fill:#3E4347;" d="M160.006,94.091c0,0-49.504-6.96-101.488,53.216C58.534,147.307,92.134,39.531,160.006,94.091z"/>
<circle style="fill:#F4C534;" cx="365.91" cy="252.443" r="93.696"/>
<path style="fill:#FFFFFF;" d="M285.702,252.475c2.464,44.56,40.368,80.688,84.656,80.688s78.32-36.112,75.856-80.688
	c-2.464-44.576-40.512-80.832-84.8-80.832C317.11,171.659,283.222,207.915,285.702,252.475z"/>
<path style="fill:#3E4347;" d="M352.006,94.091c0,0,49.504-6.96,101.488,53.216C453.478,147.307,419.878,39.531,352.006,94.091z"/>
<g>
	<path style="fill:#E24B4B;" d="M368.614,423.068v52.88c0,8.528-7.424,15.408-16.624,15.408c-9.2,0-16.624-6.88-16.624-15.408
		c0-8.432,7.424-15.296,16.624-15.296c2.112,0,4.208,0.336,6.096,1.104v-21.952l-37.808,4.656v39.792
		c0,8.528-7.424,15.408-16.624,15.408c-9.2,0-16.624-6.88-16.624-15.408c0-8.432,7.424-15.296,16.624-15.296
		c2.112,0,4.208,0.336,6.096,1.104v-41.344c0-3.104,2.336-5.76,5.44-6.096l46.56-5.648
		C365.398,416.523,368.614,419.292,368.614,423.068z"/>
	<path style="fill:#E24B4B;" d="M428.246,353.852v38.656c0,6.24-5.424,11.264-12.16,11.264s-12.16-5.024-12.16-11.264
		c0-6.16,5.424-11.184,12.16-11.184c1.536,0,3.072,0.24,4.464,0.816v-16.048l-27.632,3.408v29.088c0,6.24-5.424,11.264-12.16,11.264
		c-6.72,0-12.16-5.024-12.16-11.264c0-6.16,5.424-11.184,12.16-11.184c1.536,0,3.088,0.24,4.448,0.816v-30.224
		c0-2.272,1.696-4.208,3.968-4.448l34.032-4.128C425.894,349.068,428.246,351.083,428.246,353.852z"/>
</g>
<path style="fill:#3E4347;" d="M295.734,413.531c4.32,22.672-10.304,41.056-32.672,41.056c-22.368,0-44-18.384-48.32-41.056
	s10.304-41.056,32.672-41.056S291.414,390.859,295.734,413.531z"/>
<path style="fill:#7A5B44;" d="M286.086,331.772c0,10.72-12.16,20-20.96,25.28c-5.76,3.36-12.48,3.36-18.24,0
	c-8.64-5.28-20.96-14.56-20.96-25.28c0-16.64,13.6-18.4,30.08-18.4C272.646,313.371,286.086,315.132,286.086,331.772z"/>
<path style="fill:#6B503B;" d="M286.086,331.772c0,10.72-12.16,20-20.96,25.28c-5.76,3.36-12.48,3.36-18.24,0
	c-5.28-3.2-12.16-8-16.48-13.76c2.56,1.92,5.12,3.52,7.36,4.96c6.56,3.84,14.24,3.84,20.8,0c9.92-5.92,23.36-16.32,23.84-28.16
	C284.806,322.811,286.086,326.668,286.086,331.772z"/>
<path style="fill:#3E4347;" d="M190.486,220.667c0.08,21.008-17.008,38.112-38.016,38.016
	c-21.008,0.096-38.112-17.024-38.016-38.016c-0.08-21.008,17.008-38.112,38.016-38.016
	C173.462,182.555,190.566,199.659,190.486,220.667z"/>
<ellipse transform="matrix(-0.7071 -0.7072 0.7072 -0.7071 137.9304 470.6166)" style="fill:#FFFFFF;" cx="166.443" cy="206.739" rx="11.345" ry="7.28"/>
<path style="fill:#3E4347;" d="M321.526,220.667c-0.08,21.008,17.008,38.112,38.016,38.016
	c21.008,0.096,38.112-17.024,38.016-38.016c0.08-21.008-17.024-38.112-38.016-38.016
	C338.55,182.555,321.446,199.659,321.526,220.667z"/>
<ellipse transform="matrix(-0.7071 -0.7071 0.7071 -0.7071 443.7257 597.3587)" style="fill:#FFFFFF;" cx="345.58" cy="206.781" rx="7.28" ry="11.344"/>
<g>
	<path style="fill:#3E4347;" d="M317.702,402.652c0,0,11.552,0.816,27.312,6.048c57.104,17.776,82.576,55.728,101.104,101.104
		c-18.64-40.176-43.552-79.12-103.04-94.656c-15.504-4.32-25.888-4.528-25.888-4.528c-2.208-0.032-3.968-1.872-3.92-4.08
		c0.048-2.208,1.872-3.968,4.08-3.92c0.064,0,0.128,0,0.192,0L317.702,402.652z"/>
	<path style="fill:#3E4347;" d="M340.694,388.076c30.384-1.12,70.96,13.76,105.408,52.16
		c-36.16-35.264-76.752-47.248-104.928-44.176c-2.192,0.24-4.176-1.344-4.416-3.536c-0.24-2.208,1.344-4.176,3.552-4.416
		c0.096-0.016,0.192-0.016,0.272-0.016L340.694,388.076z"/>
	<path style="fill:#3E4347;" d="M359.974,371.068c51.6,0.608,113.056,28.656,150.144,89.792
		c-38.592-57.792-100.544-83.536-150.192-81.792c-2.208,0.08-4.064-1.648-4.144-3.856c-0.08-2.208,1.648-4.064,3.856-4.144
		c0.064,0,0.112,0,0.176,0H359.974z"/>
	<path style="fill:#3E4347;" d="M194.822,410.635c-40.864,0.832-97.248,30.896-128.928,99.184
		c27.504-67.392,82.208-103.904,128.416-107.152l0.144-0.016c2.208-0.16,4.112,1.504,4.272,3.712s-1.504,4.112-3.712,4.272
		C194.966,410.635,194.886,410.635,194.822,410.635z"/>
	<path style="fill:#3E4347;" d="M170.822,396.06c-28.4-3.104-68.848,9.008-104.928,44.176c33.936-37.84,74.704-53.296,105.408-52.16
		h0.096c2.208,0.08,3.936,1.936,3.856,4.144s-1.936,3.936-4.144,3.856C171.014,396.091,170.918,396.076,170.822,396.06z"/>
	<path style="fill:#3E4347;" d="M152.086,379.068c-48.8-1.712-111.088,23.232-150.192,81.792
		c37.264-61.44,99.28-89.184,150.144-89.792h0.144c2.208-0.016,4.016,1.744,4.048,3.968c0.032,2.208-1.744,4.016-3.952,4.048
		C152.214,379.083,152.15,379.083,152.086,379.068z"/>
</g>
<g>
</g>
<g>
</g>
<g>
</g>
<g>
</g>
<g>
</g>
<g>
</g>
<g>
</g>
<g>
</g>
<g>
</g>
<g>
</g>
<g>
</g>
<g>
</g>
<g>
</g>
<g>
</g>
<g>
</g>
</svg>
