<?xml version="1.0" encoding="iso-8859-1"?>
<!-- Generator: Adobe Illustrator 22.0.0, SVG Export Plug-In . SVG Version: 6.00 Build 0)  -->
<svg xmlns="http://www.w3.org/2000/svg" xmlns:xlink="http://www.w3.org/1999/xlink" version="1.1" x="0px" y="0px" viewBox="0 0 58 58" style="enable-background:new 0 0 58 58;" xml:space="preserve" width="512" height="512">
<g id="_x33_3-Glasses">
	<g>
		<path style="fill:#D3A87D;" d="M46.892,29.5C46.711,30.807,43.298,28.371,42,30c-0.08,0.861,0,6,2.473,7H45c2.2,0,4-1.8,4-4    C49,31.487,48.139,30.18,46.892,29.5z"/>
		<path style="fill:#D3A87D;" d="M16,33c-1.298-1.629-1-3-4.892-3.5C9.861,30.18,9,31.487,9,33c0,2.2,1.8,4,4,4h0.527    C18,36,16.08,33.861,16,33z"/>
	</g>
	<path style="fill:#D9F1FF;" d="M39.386,45.799c-0.136-0.1-0.354-0.313-0.49-0.414H19.104c-0.136,0.101-0.353,0.315-0.49,0.414   C10.036,51.394,0,52,0,58h29h29C58,52,47.964,51.394,39.386,45.799z"/>
	<path style="fill:#FBCE9D;" d="M44.943,29c-2.603,0-0.65-8.997-0.943-11c-3.175,1.483-11.426,1-16,1s-12.825-0.517-16-2   c-0.293,2.003,3.66,12,1.057,12c0,0-0.023-0.082-0.057-0.205V33c0,3.254,0.977,6.276,2.645,8.802l4.058,4.203   C22.325,47.883,25.529,49,29,49s6.675-1.117,9.297-2.995l4.058-4.203C44.023,39.276,45,36.254,45,33v-4.205   C44.966,28.918,44.943,29,44.943,29z"/>
	<path style="fill:#BE6E41;" d="M46.992,13c-0.389-4.325-6.291-7.836-14.056-8.754C30.68,1.784,28.478,0,28.478,0   c0,3.064-3.861,5.44-6.293,8.408c1.231-1.504,2.825-2.858,4.103-4.225c-0.481,0.065-0.949,0.152-1.411,0.25   c0.048-0.052,0.107-0.117,0.183-0.199c-7.774,0.916-13.639,4.481-14.03,8.808c0,0-0.03,0.513-0.03,0.542   C11.087,22.299,13.049,29,13.049,29c2.603,0,3.739-6.388,4.031-8.391C20.256,22.092,24.418,23,28.992,23s8.736-0.908,11.911-2.391   C41.196,22.612,42.332,29,44.935,29C44.935,29,46.992,22,46.992,13L46.992,13z"/>
	<path style="fill:#9E5632;" d="M28.992,24c-3.895,0-7.408-2.607-8.949-6.644c-0.527-1.377-0.793-2.843-0.793-4.356   c0-0.553,0.448-1,1-1s1,0.447,1,1c0,1.269,0.223,2.494,0.662,3.643C23.154,19.897,25.933,22,28.992,22   c2.433,0,4.678-1.294,6.159-3.549c0.304-0.462,0.924-0.591,1.385-0.287c0.462,0.304,0.59,0.923,0.287,1.385   C34.992,22.336,32.065,24,28.992,24z"/>
	<g>
		<path style="fill:#9E5632;" d="M42.878,14.5c-0.552,0-1-0.447-1-1c0-3.674-3.848-7.153-9.149-8.275    c-0.541-0.114-0.886-0.646-0.771-1.186s0.643-0.885,1.186-0.771C39.463,4.605,43.878,8.812,43.878,13.5    C43.878,14.053,43.43,14.5,42.878,14.5z"/>
		<path style="fill:#9E5632;" d="M15.106,14.5c-0.552,0-1-0.447-1-1c0-5.03,5.067-9.365,12.048-10.308    c0.55-0.07,1.051,0.311,1.125,0.857c0.074,0.547-0.31,1.051-0.857,1.125C20.444,5.981,16.106,9.482,16.106,13.5    C16.106,14.053,15.658,14.5,15.106,14.5z"/>
	</g>
	<path style="fill:#E7ECED;" d="M11,28.208c0,0,3.477-4.27,12.613-1.762c1.333,0.366,2.349,1.406,2.626,2.686   c0.45,2.085,0.52,6.302-4.764,7.519C11,39.062,11,28.208,11,28.208z"/>
	<path style="fill:#ABC9D8;" d="M39.025,45.49c-0.008-0.006-0.121-0.1-0.129-0.105C36.159,47.572,32.776,49,29,49l10,6L39.025,45.49   z"/>
	<path style="fill:#ABC9D8;" d="M18.978,45.488c0.008-0.006,0.119-0.098,0.126-0.103C21.841,47.572,25.224,49,29,49l-10,6   L18.978,45.488z"/>
	<path style="fill:#366DB6;" d="M29,53c-0.607,0-1.176-0.145-1.691-0.387L25,58h8l-2.309-5.387C30.176,52.855,29.607,53,29,53z"/>
	<g>
		<path style="fill:#1F436D;" d="M29,49l-3.418,2.051C26.282,52.214,27.544,53,29,53c1.456,0,2.718-0.786,3.418-1.949L29,49z"/>
	</g>
	<path style="fill:#D3A87D;" d="M29,40c-1.93,0-3.5-1.346-3.5-3c0-0.553,0.448-1,1-1s1,0.447,1,1c0,0.532,0.701,1,1.5,1   s1.5-0.468,1.5-1c0-0.553,0.448-1,1-1s1,0.447,1,1C32.5,38.654,30.93,40,29,40z"/>
	<path style="fill:#D3A87D;" d="M30,47h-2c-0.552,0-1-0.447-1-1s0.448-1,1-1h2c0.552,0,1,0.447,1,1S30.552,47,30,47z"/>
	<path style="fill:#EA6248;" d="M32,44c-0.105,0-0.212-0.017-0.316-0.052L29,43.054l-2.684,0.895   c-0.522,0.176-1.09-0.107-1.265-0.632s0.109-1.091,0.633-1.265l3-1c0.205-0.068,0.427-0.068,0.632,0l3,1   c0.524,0.174,0.807,0.74,0.633,1.265C32.809,43.735,32.419,44,32,44z"/>
	<path style="fill:#6C4127;" d="M21,33.656c-1.088,0-2.061-0.497-2.74-1.399c-0.13-0.173-0.201-0.384-0.201-0.601   c0-1.103,0.897-2,2-2c0.552,0,1,0.447,1,1c0,0.398-0.234,0.743-0.571,0.903c0.291,0.118,0.631,0.161,0.984-0.044   c0.479-0.275,1.09-0.112,1.366,0.366c0.276,0.478,0.113,1.09-0.365,1.366C22.004,33.519,21.509,33.656,21,33.656z"/>
	<path style="fill:#E7ECED;" d="M47,28.208c0,0-3.477-4.27-12.613-1.762c-1.333,0.366-2.349,1.406-2.626,2.686   c-0.45,2.085-0.52,6.302,4.764,7.519C47,39.062,47,28.208,47,28.208z"/>
	<path style="fill:#AFB6BB;" d="M32.957,28.228c-0.226,0-0.453-0.076-0.639-0.231c-2.072-1.727-4.778-1.788-6.892-0.155   c-0.438,0.336-1.065,0.256-1.403-0.182c-0.337-0.437-0.256-1.064,0.181-1.402c2.842-2.192,6.617-2.11,9.394,0.202   c0.425,0.354,0.482,0.984,0.128,1.408C33.528,28.105,33.243,28.228,32.957,28.228z"/>
	<path style="fill:#6C4127;" d="M37.508,33.656c-1.088,0-2.061-0.497-2.74-1.399c-0.13-0.173-0.201-0.384-0.201-0.601   c0-1.103,0.897-2,2-2c0.552,0,1,0.447,1,1c0,0.398-0.234,0.743-0.571,0.903c0.291,0.118,0.631,0.161,0.984-0.044   c0.479-0.275,1.09-0.112,1.366,0.366c0.276,0.478,0.113,1.09-0.365,1.366C38.512,33.519,38.017,33.656,37.508,33.656z"/>
</g>

</svg>
