<?xml version="1.0" encoding="iso-8859-1"?>
<!-- Generator: Adobe Illustrator 19.0.0, SVG Export Plug-In . SVG Version: 6.00 Build 0)  -->
<svg version="1.1" id="Capa_1" xmlns="http://www.w3.org/2000/svg" xmlns:xlink="http://www.w3.org/1999/xlink" x="0px" y="0px"
	 viewBox="0 0 525.248 525.248" style="enable-background:new 0 0 525.248 525.248;" xml:space="preserve">
<g>
	<path style="fill:#FFD93B;" d="M232.592,110.351C164.16,63.359,100.192,23.439,51.344,7.519
		c-12.288-3.872-24.56,5.328-24.56,18.096v257.136l205.824-66.56v-105.84H232.592z"/>
	<path style="fill:#FFD93B;" d="M292.72,110.351c68.432-46.992,132.4-86.912,181.248-102.832c12.288-3.872,24.56,5.328,24.56,18.112
		v257.136l-205.824-66.56V110.351H292.72z"/>
</g>
<g>
	<path style="fill:#F4C534;" d="M145.968,101.215c-31.904-20.72-61.296-37.424-85.376-45.696v123.152
		C84.768,148.063,114.08,121.183,145.968,101.215z"/>
	<path style="fill:#F4C534;" d="M428.704,150.607c12.4,10.8,25.376,22.432,35.952,35.632V55.519
		c-25.552,8.784-57.136,27.136-91.328,49.616C393.12,118.367,410.656,134.895,428.704,150.607z"/>
</g>
<circle style="fill:#FFD93B;" cx="262.624" cy="282.703" r="235.92"/>
<path style="fill:#F4C534;" d="M498.544,282.703c0,130.352-105.648,235.92-235.92,235.92c-74.16,0-140.368-34.208-183.648-87.808
	c40.48,32.736,92,52.272,148.112,52.272c130.272,0,235.92-105.568,235.92-235.92c0-56.096-19.536-107.632-52.272-148.112
	C464.256,142.335,498.544,208.543,498.544,282.703z"/>
<g>
	<path style="fill:#3E4347;" d="M116.96,122.415c0,0,48.144-38.56,104.048-23.152C221.008,99.263,151.984,33.183,116.96,122.415z"/>
	<path style="fill:#3E4347;" d="M408.288,122.415c0,0-48.144-38.56-104.048-23.152C304.24,99.263,373.264,33.183,408.288,122.415z"
		/>
</g>
<path style="fill:#7A5B44;" d="M300.832,333.455c0,13.616-15.44,25.408-26.624,32.112c-7.312,4.272-15.856,4.272-23.168,0
	c-10.976-6.704-26.624-18.496-26.624-32.112c0-21.136,17.28-23.376,38.208-23.376C283.76,310.095,300.832,312.319,300.832,333.455z"
	/>
<path style="fill:#6B503B;" d="M300.832,333.455c0,13.616-15.44,25.408-26.624,32.112c-7.312,4.272-15.856,4.272-23.168,0
	c-6.704-4.064-15.44-10.16-20.928-17.488c3.248,2.448,6.496,4.48,9.344,6.304c8.336,4.88,18.08,4.88,26.416,0
	c12.608-7.504,29.664-20.736,30.288-35.76C299.2,322.079,300.832,326.959,300.832,333.455z"/>
<path style="fill:#3E4347;" d="M396.464,370.943c-0.944,64.016-54.736,122.736-129.92,122.608
	c-75.008,0.144-128.992-58.576-129.872-122.768c-0.08-5.024,5.616-7.616,9.76-4.56c39.536,39.056,200.352,39.488,240.256,0.16
	C390.816,363.183,396.688,365.903,396.464,370.943z"/>
<path style="fill:#E24B4B;" d="M266.544,493.567c28.704,0.048,55.424-8.944,76.56-23.712c-9.792-23.024-40.736-33.008-66.224-23.168
	c-8.096,3.184-17.28,3.488-25.76,1.104c-23.856-6.736-50.256,2.8-60.384,22.544C211.76,484.831,238.208,493.567,266.544,493.567z"/>
<path style="fill:#FFFFFF;" d="M381.68,369.663c-6.4,19.264-19.264,34.096-36.528,44.784c-0.608,8.496-1.296,16.992-2.08,25.488
	c-4-6.128-7.888-12.304-11.68-18.496c-18.768,8.144-41.2,12.208-64.816,12.128c-23.776,0.016-46.208-3.968-64.96-12.304
	c-3.728,6.272-7.584,12.48-11.52,18.672c-0.784-8.56-1.472-17.104-2.064-25.632c-17.28-10.592-30.128-25.472-36.512-44.784
	C195.568,404.383,337.28,404.687,381.68,369.663z"/>
<path style="fill:#F4C534;" d="M252.352,231.615c0,45.12-36.64,81.6-81.6,81.6s-81.44-36.48-81.44-81.6
	c0-44.96,36.48-81.44,81.44-81.44S252.352,186.655,252.352,231.615z"/>
<path style="fill:#FFFFFF;" d="M235.744,231.647c0,35.936-29.168,64.976-64.976,64.976s-64.848-29.04-64.848-64.976
	c0-35.808,29.04-64.848,64.848-64.848S235.744,195.839,235.744,231.647z"/>
<path style="fill:#3E4347;" d="M200.96,231.599c0,16.832-13.472,30.304-30.208,30.208c-16.64,0-30-13.376-30-30.208
	c0-16.64,13.376-30,30-30C187.488,201.503,200.96,214.975,200.96,231.599z"/>
<path style="fill:#FFFFFF;" d="M188.176,225.375c-1.936,1.936-6.112,1.2-9.088-1.792c-3.12-3.12-3.872-7.296-1.936-9.216
	c1.936-2.08,6.112-1.2,9.088,1.936C189.376,219.263,190.256,223.439,188.176,225.375z"/>
<path style="fill:#F4C534;" d="M435.936,231.615c0,45.12-36.64,81.6-81.6,81.6s-81.44-36.48-81.44-81.6
	c0-44.96,36.48-81.44,81.44-81.44C399.296,150.191,435.936,186.655,435.936,231.615z"/>
<path style="fill:#FFFFFF;" d="M419.328,231.647c0,35.936-29.168,64.976-64.976,64.976s-64.848-29.04-64.848-64.976
	c0-35.808,29.04-64.848,64.848-64.848C390.144,166.799,419.328,195.839,419.328,231.647z"/>
<path style="fill:#3E4347;" d="M384.528,231.599c0,16.832-13.472,30.304-30.208,30.208c-16.64,0-30-13.376-30-30.208
	c0-16.64,13.376-30,30-30C371.056,201.503,384.544,214.975,384.528,231.599z"/>
<path style="fill:#FFFFFF;" d="M371.76,225.375c-1.936,1.936-6.112,1.2-9.088-1.792c-3.12-3.12-3.872-7.296-1.936-9.216
	c1.936-2.08,6.096-1.2,9.088,1.936C372.944,219.263,373.84,223.439,371.76,225.375z"/>
<g>
	<path style="fill:#3E4347;" d="M376.96,341.279c22.96,4.4,57.248,20.032,88.64,46.944c27.552,23.872,42.976,47.776,59.648,79.504
		c-17.68-30.56-34.032-53.936-62.224-76.432c-31.488-24.864-65.984-38.96-87.488-42.128c-2.192-0.32-3.696-2.352-3.376-4.544
		c0.32-2.192,2.352-3.696,4.544-3.376C376.752,341.247,376.896,341.279,376.96,341.279z"/>
	<path style="fill:#3E4347;" d="M388.672,327.967c15.04,1.264,40.544,7.808,60.048,17.216c23.12,10.8,36.016,22.48,49.2,37.04
		c-14.288-13.856-27.456-24.256-50.784-33.376c-19.52-7.904-44.784-12.656-58.96-12.896c-2.208-0.048-3.968-1.856-3.936-4.064
		c0.032-2.208,1.856-3.968,4.064-3.936c0.096,0,0.176,0,0.256,0.016H388.672z"/>
	<path style="fill:#3E4347;" d="M414.272,313.599c12.928-2.928,33.872-3.488,50.144,0c30.32,6.848,42.944,23.504,42.944,23.504
		c-0.08,0.096-13.232-15.216-43.616-19.568c-15.952-2.08-35.76,0.112-47.488,3.808c-2.112,0.672-4.352-0.496-5.024-2.608
		s0.496-4.368,2.608-5.024c0.112-0.032,0.208-0.064,0.32-0.08L414.272,313.599z"/>
	<path style="fill:#3E4347;" d="M148.288,341.279c-22.96,4.4-57.248,20.032-88.64,46.944C32.08,412.095,16.672,435.999,0,467.727
		c17.68-30.56,34.032-53.936,62.208-76.432c31.488-24.864,65.984-38.96,87.488-42.128c2.192-0.32,3.696-2.352,3.376-4.544
		c-0.32-2.192-2.352-3.696-4.544-3.376C148.496,341.247,148.352,341.279,148.288,341.279z"/>
	<path style="fill:#3E4347;" d="M136.576,327.967c-15.04,1.264-40.544,7.808-60.048,17.216c-23.12,10.8-36,22.48-49.2,37.04
		c14.288-13.856,27.456-24.256,50.8-33.376c19.52-7.904,44.784-12.656,58.96-12.896c2.208-0.048,3.968-1.856,3.936-4.064
		s-1.856-3.968-4.064-3.936c-0.08,0-0.176,0-0.256,0.016H136.576z"/>
	<path style="fill:#3E4347;" d="M110.976,313.599c-12.928-2.928-33.872-3.488-50.144,0c-30.304,6.848-42.944,23.504-42.944,23.504
		c0.08,0.096,13.232-15.216,43.616-19.568c15.952-2.08,35.76,0.112,47.488,3.808c2.112,0.672,4.368-0.496,5.024-2.608
		c0.672-2.112-0.496-4.368-2.608-5.024c-0.112-0.032-0.208-0.064-0.32-0.08L110.976,313.599z"/>
</g>
<g>
</g>
<g>
</g>
<g>
</g>
<g>
</g>
<g>
</g>
<g>
</g>
<g>
</g>
<g>
</g>
<g>
</g>
<g>
</g>
<g>
</g>
<g>
</g>
<g>
</g>
<g>
</g>
<g>
</g>
</svg>
