<?xml version="1.0" encoding="iso-8859-1"?>
<!-- Generator: Adobe Illustrator 22.0.0, SVG Export Plug-In . SVG Version: 6.00 Build 0)  -->
<svg xmlns="http://www.w3.org/2000/svg" xmlns:xlink="http://www.w3.org/1999/xlink" version="1.1" x="0px" y="0px" viewBox="0 0 58 59" style="enable-background:new 0 0 58 59;" xml:space="preserve" width="512" height="512">
<g id="_x33_4-Dandy">
	<path style="fill:#D3A87D;" d="M13,29c-2.209,0-4,1.791-4,4c0,2.209,1.791,4,4,4l4-1v-6L13,29z"/>
	<path style="fill:#D3A87D;" d="M45,29c2.209,0,4,1.791,4,4c0,2.209-1.791,4-4,4l-7-2v-4L45,29z"/>
	<path style="fill:#61B872;" d="M43.067,48.893L37,55c-0.582-1.747-4.334-6.059-6.018-7.013C30.912,47.989,30.843,48,30.771,48h-2.7   c-0.308,0-1.038-0.029-1.054-0.013h0C25.334,48.941,21.582,53.253,21,55l-6.067-6.107C7.407,52.669,0,53.846,0,59h29h29   C58,53.846,50.593,52.669,43.067,48.893z"/>
	<path style="fill:#3D6F44;" d="M30,50c0,0.04,0.983,0.948,0.983,0.987c0,0,0,0,0,0C32.666,51.941,36.418,54.253,37,56l7-8.2   c-1.035-0.583-4.867-3.068-6-3.8C35.499,46.709,33.849,49.524,30,50z"/>
	<path style="fill:#3D6F44;" d="M28,50c-3.868-0.467-5.489-3.28-8-6c-1.133,0.731-4.965,3.216-6,3.8l7,8.2   c0.582-1.747,4.334-4.059,6.018-5.013h0c0.017-0.017,0.034-0.035,0.051-0.052C27.067,50.916,28,50.02,28,50z"/>
	<path style="fill:#FFFFFF;" d="M29,55c-0.552,0-1-0.447-1-1v-3c0-0.553,0.448-1,1-1s1,0.447,1,1v3C30,54.553,29.552,55,29,55z"/>
	<path style="fill:#FBCE9D;" d="M46,25c0-0.399,0.023-2.607,0-3c-0.897-3.875-7.303-6-7.303-6c-0.013,0.008-0.026,0.013-0.039,0.021   C34.02,18.704,29.907,20.323,26.645,20l-8.882-2c-0.061,0.001-0.032,0.033-0.093,0.037c-0.015,0-0.031-0.001-0.046,0   c-0.292,0.017-0.58,0.074-0.865,0.142c-0.197,0.05-0.39,0.118-0.581,0.193c-0.073,0.028-0.146,0.055-0.219,0.086   c-0.228,0.102-0.451,0.216-0.664,0.354c-0.006,0.004-0.012,0.008-0.018,0.012C14.807,19.13,14.374,19.522,14,20   c-1.847,2.361-1,7-1,7v7.132c0,1.858,0.624,3.662,1.772,5.122l6.739,8.576C23.082,49.832,25.486,51,28.03,51h2.703   c2.677,0,5.19-1.293,6.747-3.472l5.976-8.366C44.46,37.756,45,36.071,45,34.343v-7.219C44.981,27.082,45,27,45,27L46,25z"/>
	<path style="fill:#DC691D;" d="M42.996,7.724c0.014-0.405-0.01-0.82-0.075-1.242c-0.416-2.696-2.562-4.903-5.247-5.378   c-1.935-0.342-3.741,0.183-5.119,1.238C26.209,0.688,19,1,19,1c1.53,1.147,2.17,2.877,2.391,4.579   c-1.006-0.421-2.124-0.63-3.296-0.568c-3.78,0.201-6.912,3.356-7.086,7.137c-0.054,1.175,0.165,2.293,0.594,3.299   c-0.892,0.441-1.765,1.255-2.249,2.747c-0.573,1.765-0.434,3.742,0.304,5.429c0.509,1.165,1.8,2.474,3.307,3.377   c0,0,0.388-2.639,2.228-5c0.993-1.275,2.405-1.944,3.86-1.97c0.01,0.002,0.021,0.004,0.031,0.006C24.031,22.047,27,26,27,26   c0-1.647-0.136-2.987-0.355-4.086c0.525,0.052,1.066,0.088,1.634,0.09c1.503-0.003,3.153-0.207,4.919-0.701   c0.001,0.007,0.001,0.013,0.003,0.02c1.716-0.466,3.538-1.192,5.457-2.302c0.013-0.008,0.025-0.013,0.039-0.021   c0,0,5.352,0.942,6.249,4.817C44.969,24.21,45,24.601,45,25v2c0,0-0.02,0.082,0,0.124v0.116c2.946-1.335,5-4.295,5-7.74   c0-3.955-2.226-6.111-4.33-7.266C44.027,11.331,42.932,9.598,42.996,7.724z"/>
	<path style="fill:#D3A87D;" d="M28,42.614c-0.552,0-1-0.447-1-1s0.448-1,1-1c0.552,0,1-0.448,1-1c0-0.322-0.15-0.616-0.41-0.808   c-0.445-0.327-0.542-0.953-0.215-1.398c0.327-0.444,0.953-0.541,1.398-0.215C30.541,37.758,31,38.662,31,39.614   C31,41.269,29.654,42.614,28,42.614z"/>
	<path style="fill:#AF501B;" d="M19,21c-0.552,0-1-0.447-1-1s0.448-1,1-1c2.206,0,4-1.346,4-3c0-0.553,0.448-1,1-1s1,0.447,1,1   C25,18.757,22.308,21,19,21z"/>
	<path style="fill:#AF501B;" d="M38.555,20c-0.315,0-0.625-0.148-0.82-0.427c-0.317-0.451-0.207-1.075,0.245-1.393   c0.013-0.009,1.348-0.951,2.371-2.12c0.364-0.415,0.995-0.458,1.411-0.095c0.416,0.364,0.458,0.996,0.094,1.411   c-1.187,1.357-2.667,2.398-2.729,2.442C38.953,19.941,38.753,20,38.555,20z"/>
	<path style="fill:#AF501B;" d="M31,7.5c-0.552,0-1-0.447-1-1C30,2.916,32.916,0,36.5,0c0.552,0,1,0.447,1,1s-0.448,1-1,1   C34.019,2,32,4.019,32,6.5C32,7.053,31.552,7.5,31,7.5z"/>
	<g>
		<path style="fill:#556080;" d="M13,28.06c0,2.448,0.179,9.381,4.571,9.841C28.143,39.009,29,30.507,29,28.06    C24.043,25.313,17.957,25.313,13,28.06z"/>
	</g>
	<path style="fill:#EA6248;" d="M27.083,46.933c-0.395,0-0.792-0.021-1.19-0.064c-0.549-0.059-0.947-0.552-0.888-1.101   c0.059-0.549,0.554-0.946,1.101-0.888c2.721,0.294,5.392-0.651,7.328-2.587c0.39-0.391,1.023-0.391,1.414,0s0.391,1.023,0,1.414   C32.766,45.79,29.987,46.933,27.083,46.933z"/>
	<path style="fill:#556080;" d="M29,28.06c0,2.448,0.857,10.949,11.429,9.841C44.821,37.441,45,30.507,45,28.06   C40.043,25.313,33.957,25.313,29,28.06z"/>
	<path style="fill:#727FA0;" d="M23.912,26.261L17.4,33.056c-0.382,0.399-0.369,1.032,0.03,1.414   c0.194,0.187,0.443,0.278,0.692,0.278c0.263,0,0.526-0.104,0.722-0.308l7.304-7.621C25.415,26.58,24.667,26.396,23.912,26.261z"/>
	<path style="fill:#727FA0;" d="M17.448,28.286l-4.083,4.251c0.145,0.764,0.35,1.523,0.634,2.227l4.891-5.093   c0.383-0.398,0.37-1.031-0.029-1.414C18.464,27.875,17.831,27.888,17.448,28.286z"/>
</g>

</svg>
