<?xml version="1.0" encoding="iso-8859-1"?>
<!-- Generator: Adobe Illustrator 19.0.0, SVG Export Plug-In . SVG Version: 6.00 Build 0)  -->
<svg version="1.1" id="Capa_1" xmlns="http://www.w3.org/2000/svg" xmlns:xlink="http://www.w3.org/1999/xlink" x="0px" y="0px"
	 viewBox="0 0 512 512" style="enable-background:new 0 0 512 512;" xml:space="preserve">
<g>
	<path style="fill:#FFD93B;" d="M227.488,118.689C162.48,74.065,101.728,36.161,55.344,21.041
		c-11.664-3.68-23.328,5.056-23.328,17.184v244.208l195.472-63.216V118.689z"/>
	<path style="fill:#FFD93B;" d="M284.576,118.689C349.568,74.065,410.32,36.161,456.72,21.025c11.664-3.68,23.328,5.072,23.328,17.2
		v244.208l-195.472-63.216V118.689z"/>
</g>
<g>
	<path style="fill:#F4C534;" d="M145.216,110.017c-30.304-19.68-58.224-35.552-81.088-43.408v116.96
		C87.088,154.513,114.928,128.977,145.216,110.017z"/>
	<path style="fill:#F4C534;" d="M413.728,156.929c11.776,10.256,24.096,21.296,34.144,33.84V66.609
		C423.6,74.961,393.6,92.385,361.12,113.745C379.92,126.305,396.592,142.017,413.728,156.929z"/>
</g>
<circle style="fill:#FFD93B;" cx="256" cy="267.345" r="224.48"/>
<g>
	<path style="fill:#F4C534;" d="M480.432,267.345c0,124-100.496,224.432-224.432,224.432c-70.56,0-133.536-32.544-174.704-83.536
		c38.496,31.136,87.52,49.728,140.896,49.728c123.936,0,224.432-100.432,224.432-224.432c0-53.376-18.592-102.4-49.728-140.896
		C447.824,133.809,480.432,196.801,480.432,267.345z"/>
	<circle style="fill:#F4C534;" cx="154.768" cy="252.705" r="86.304"/>
	<path style="fill:#F4C534;" d="M283.312,252.609c2.272-41.056,37.184-74.32,77.968-74.32s72.144,33.264,69.872,74.32
		c-2.272,41.056-37.312,74.448-78.112,74.448C312.24,327.057,281.04,293.649,283.312,252.609z"/>
</g>
<path style="fill:#3E4347;" d="M167.584,106.849c0,0-45.6-6.416-93.472,49.008C74.112,155.857,105.056,56.577,167.584,106.849z"/>
<g>
	<circle style="fill:#F4C534;" cx="357.232" cy="252.705" r="86.304"/>
	<path style="fill:#F4C534;" d="M228.608,252.609c-2.272-41.056-37.184-74.32-77.968-74.32s-72.144,33.264-69.872,74.32
		c2.272,41.056,37.312,74.448,78.112,74.448S230.896,293.649,228.608,252.609z"/>
</g>
<path style="fill:#3E4347;" d="M344.416,106.849c0,0,45.6-6.416,93.472,49.008C437.888,155.857,406.928,56.577,344.416,106.849z"/>
<path style="fill:#7A5B44;" d="M283.712,325.777c0,9.872-11.2,18.416-19.312,23.28c-5.312,3.088-11.488,3.088-16.8,0
	c-7.952-4.864-19.312-13.408-19.312-23.28c0-15.328,12.528-16.944,27.712-16.944C271.328,308.833,283.712,310.449,283.712,325.777z"
	/>
<path style="fill:#6B503B;" d="M283.712,325.777c0,9.872-11.2,18.416-19.312,23.28c-5.312,3.088-11.488,3.088-16.8,0
	c-4.864-2.944-11.2-7.36-15.184-12.672c2.352,1.776,4.72,3.248,6.784,4.576c6.048,3.536,13.12,3.536,19.152,0
	c9.136-5.44,21.52-15.04,21.952-25.936C282.528,317.521,283.712,321.057,283.712,325.777z"/>
<g>
	<path style="fill:#3E4347;" d="M68.448,252.657c0-2.64,0.592-5.312,1.616-7.808c7.52,16.656,42.592,29.328,84.736,29.328
		c42,0,77.072-12.672,84.592-29.328c1.024,2.496,1.616,5.168,1.616,7.808c0,22.688-38.608,41.264-86.208,41.264
		C107.056,293.921,68.448,275.361,68.448,252.657z"/>
	<path style="fill:#3E4347;" d="M270.944,252.657c0-2.64,0.592-5.312,1.616-7.808c7.52,16.656,42.592,29.328,84.736,29.328
		c42,0,77.072-12.672,84.592-29.328c1.024,2.496,1.616,5.168,1.616,7.808c0,22.688-38.608,41.264-86.208,41.264
		C309.552,293.921,270.944,275.361,270.944,252.657z"/>
	<path style="fill:#3E4347;" d="M344.016,388.897c0,0,40.272,6.256,77.792,34.288c35.312,25.648,50.256,58.992,50.256,58.992
		c-13.312-21.44-27.68-39.344-52.928-55.84c-16.72-11.104-35.984-19.456-51.168-23.84c-15.232-4.56-25.792-5.664-25.76-5.712
		c-2.528-0.4-4.304-2.288-3.92-4.512c0.384-2.208,2.816-3.728,5.408-3.424C343.776,388.849,343.936,388.865,344.016,388.897z"/>
	<path style="fill:#3E4347;" d="M369.056,377.393c-0.016,0.016,8.832,0.64,21.344,3.168c12.544,2.528,28.912,7.152,43.888,14
		c15.04,6.832,28.4,15.904,36.896,23.824c0.88,0.848,13.52,14.224,12.72,14.16c0.08-0.96-12.768-12.512-13.696-13.28
		c-8.992-7.36-22.736-15.392-37.872-21.104c-32.656-12.512-63.968-12.768-63.968-12.768c-2.624-0.064-4.72-1.84-4.656-4.08
		c0.048-2.224,2.256-3.968,4.912-3.936C368.752,377.345,368.96,377.425,369.056,377.393z"/>
	<path style="fill:#3E4347;" d="M348.416,362.817c0,0,42.576-9.072,89.92,4.08C487.056,379.729,512,408.449,512,408.449
		c-19.616-16.8-40.624-30.24-74.896-37.696c-21.28-4.912-43.504-5.44-59.744-4.112c-16.4,1.216-26.592,3.952-26.592,3.952
		c-2.576,0.624-5.296-0.512-6.08-2.624c-0.784-2.128,0.704-4.4,3.328-5.04c0.08,0,0.176-0.016,0.256-0.064
		C348.32,362.833,348.368,362.817,348.416,362.817z"/>
	<path style="fill:#3E4347;" d="M167.984,388.897c0,0-40.256,6.256-77.792,34.288c-35.312,25.648-50.256,58.992-50.256,58.992
		c13.312-21.44,27.68-39.344,52.928-55.84c38.304-25.456,76.928-29.552,76.928-29.552c2.528-0.4,4.304-2.288,3.92-4.512
		c-0.384-2.208-2.816-3.728-5.408-3.424C168.224,388.849,168.064,388.865,167.984,388.897z"/>
	<path style="fill:#3E4347;" d="M142.928,377.393c0.016,0.016-8.832,0.64-21.344,3.168c-12.544,2.528-28.896,7.152-43.888,14
		c-16,7.264-36.16,20.208-46.384,33.936c-2.08,2.576-3.248,4.048-3.248,4.048s1.28-1.344,3.552-3.84
		c10.96-12.816,31.584-24.32,48.016-30.544c32.656-12.512,63.968-12.768,63.968-12.768c2.624-0.064,4.72-1.84,4.656-4.08
		c-0.048-2.224-2.256-3.968-4.912-3.936C143.248,377.345,143.04,377.425,142.928,377.393z"/>
	<path style="fill:#3E4347;" d="M163.584,362.817c0,0-42.576-9.072-89.92,4.08C24.944,379.729,0,408.449,0,408.449
		c19.616-16.8,40.624-30.24,74.896-37.696c21.28-4.912,43.504-5.44,59.744-4.112c16.416,1.216,26.592,3.952,26.592,3.952
		c2.576,0.624,5.296-0.512,6.08-2.624c0.768-2.128-0.704-4.4-3.328-5.04c-0.08,0-0.176-0.016-0.256-0.064
		C163.68,362.833,163.632,362.817,163.584,362.817z"/>
	<path style="fill:#3E4347;" d="M297.52,407.905c0,22.896-18.528,41.44-41.44,41.44c-23.088,0-41.616-18.528-41.616-41.44
		c0-23.072,18.528-41.616,41.616-41.616C278.976,366.289,297.52,384.833,297.52,407.905z"/>
</g>
<g>
	<path style="fill:#E24B4B;" d="M297.52,474.337v-9.744c3.328-3.824,20.656-23.904,24.144-27.392
		c-3.952,0.24-18.16,0.24-22.416,0.272v-10.352h39.04v8.848c-21.2,24.432-16.288,18.896-24.416,27.696
		c7.44-0.448,4.608-0.32,25.792-0.32v10.976H297.52V474.337z"/>
	<path style="fill:#E24B4B;" d="M357.232,446.785v-13.392c4.576-5.248,28.4-32.864,33.2-37.664
		c-5.44,0.336-24.976,0.336-30.816,0.368v-14.24h53.68v12.16c-29.152,33.6-22.4,26-33.568,38.096
		c10.224-0.608,6.336-0.432,35.456-0.432v15.104L357.232,446.785L357.232,446.785z"/>
	<path style="fill:#E24B4B;" d="M428.24,376.737v-17.952c6.128-7.04,38.08-44.064,44.528-50.512
		c-7.296,0.448-33.504,0.448-41.328,0.496v-19.104h72v16.32c-39.104,45.072-30.048,34.864-45.024,51.088
		c13.712-0.816,8.496-0.576,47.568-0.576v20.256H428.24V376.737z"/>
</g>
<g>
</g>
<g>
</g>
<g>
</g>
<g>
</g>
<g>
</g>
<g>
</g>
<g>
</g>
<g>
</g>
<g>
</g>
<g>
</g>
<g>
</g>
<g>
</g>
<g>
</g>
<g>
</g>
<g>
</g>
</svg>
