<?xml version="1.0" encoding="iso-8859-1"?>
<!-- Generator: Adobe Illustrator 22.0.0, SVG Export Plug-In . SVG Version: 6.00 Build 0)  -->
<svg xmlns="http://www.w3.org/2000/svg" xmlns:xlink="http://www.w3.org/1999/xlink" version="1.1" x="0px" y="0px" viewBox="0 0 58 59" style="enable-background:new 0 0 58 59;" xml:space="preserve" width="512" height="512">
<g id="_x33_5-Moustache">
	<path style="fill:#DD352E;" d="M41.519,46.711C40.6,46.577,40.063,44.251,39,44l-19,1c-1.063,0.251-2.6,1.577-3.519,1.711   C8.589,51.604,0,52.784,0,59h29h29C58,52.784,49.411,51.604,41.519,46.711z"/>
	<path style="fill:#EDB883;" d="M38.426,46.119C35.687,48.497,32.408,48,29,48l0,0c-3.408,0-6.687,0.497-9.426-1.881   c-0.031,0.007-0.062,0.015-0.093,0.022C22.123,51.806,29,56,29,56s6.877-4.194,9.519-9.859   C38.488,46.134,38.457,46.127,38.426,46.119z"/>
	<path style="fill:#D3A87D;" d="M16,29v-2c-1.126-0.375-5.829-0.878-6.269-2.608C8.799,24.981,8,26.434,8,30   c0,1.028,1.802,6,3.333,6c0.508,0,0.98-0.325,1.385-0.879C12.255,33.431,16,30.704,16,29z"/>
	<path style="fill:#D3A87D;" d="M48.414,24.504c-0.333,1.05-3.805,0.56-4.435,1.496C43.305,27,43,27.5,43,27.5v1   c0,1.704,2.745,4.931,2.282,6.621C45.686,35.675,46.159,36,46.667,36C48.198,36,50,31.028,50,30   C50,26.624,49.282,25.152,48.414,24.504z"/>
	<path style="fill:#FBCE9D;" d="M38,10c-2.156,2-9,0-9,0c-5.505,2.198-11.061,1.103-11,1c-4.312,2-8,4-8,4l1,10l1,3v2   c0,9.615,7.991,20,16.981,20h0.039C38.009,50,46,39.615,46,30v-1l1-12C44.844,11,38,10,38,10z"/>
	<path style="fill:#6F3315;" d="M12,25v-5c0,0,1.431-5,5.743-7c-0.06,0.103,5.274,2.198,10.778,0c0,0,6.467,0,8.623-2   c0,0,6.701,3,8.856,9v9c0,0,0.305-0.5,0.979-1.5C48.345,25.472,49,23.099,49,20.708v-1.708c0-2.068-0.503-4.112-1.52-5.952   c-1.327-2.401-3.764-5.486-8.18-8.047c0,0-0.606-1.688-3.183-2.953c-1.761-0.865-3.794-1.125-5.771-0.901   C29.187,1.278,27.953,1.527,27.443,2c0,0-6.467,0-7.545-2c0,0-2.156,2-2.156,4c0,0-1.078-1-3.234-1c0,0-2.156,3-1.078,5   C13.431,8,9,10,9,18c0,0,0,9,3,10V25z"/>
	<path style="fill:#A35D3E;" d="M28.521,14c-0.427,0-0.822-0.276-0.955-0.705c-0.163-0.527,0.132-1.087,0.66-1.251   c2.41-0.745,2.526-2.022,2.53-2.076c0.037-0.538,0.502-0.979,1.033-0.949c0.539,0.019,0.966,0.442,0.966,0.98   c0,0.112-0.045,2.751-3.938,3.956C28.718,13.986,28.619,14,28.521,14z"/>
	<path style="fill:#D3A87D;" d="M29,36c-0.552,0-1-0.448-1-1s0.448-1,1-1c0.552,0,1-0.449,1-1c0-0.322-0.15-0.617-0.41-0.808   c-1.01-0.74-1.59-1.808-1.59-2.929V29c0-0.552,0.448-1,1-1s1,0.448,1,1v0.263c0,0.653,0.484,1.105,0.772,1.316   C31.541,31.143,32,32.048,32,33C32,34.654,30.654,36,29,36z"/>
	<path style="fill:#839594;" d="M31,25h-4c-0.552,0-1-0.448-1-1s0.448-1,1-1h4c0.552,0,1,0.448,1,1S31.552,25,31,25z"/>
	<path style="fill:#FFFFFF;" d="M14.964,21.036H24c1.65,0,3,1.35,3,3v0c0,3.3-2.7,6-6,6h-2.964C14.716,30.036,12,27.32,12,24v0   C12,22.363,13.327,21.036,14.964,21.036z"/>
	<path style="fill:#FFFFFF;" d="M33.964,21H43c1.65,0,3,1.35,3,3v0c0,3.3-2.7,6-6,6h-2.964C33.716,30,31,27.284,31,23.964v0   C31,22.327,32.327,21,33.964,21z"/>
	<path style="fill:#6C4127;" d="M20.519,27c-1.088,0-2.06-0.497-2.739-1.398c-0.13-0.173-0.201-0.385-0.201-0.602   c0-1.103,0.897-2,2-2c0.552,0,1,0.448,1,1c0,0.399-0.233,0.743-0.571,0.904c0.292,0.119,0.633,0.16,0.983-0.043   c0.478-0.276,1.09-0.114,1.367,0.364c0.277,0.478,0.114,1.09-0.364,1.367C21.525,26.862,21.029,27,20.519,27z"/>
	<path style="fill:#6C4127;" d="M38.492,27c-1.088,0-2.06-0.497-2.739-1.398c-0.13-0.173-0.201-0.385-0.201-0.602   c0-1.103,0.897-2,2-2c0.552,0,1,0.448,1,1c0,0.399-0.233,0.743-0.571,0.904c0.292,0.119,0.633,0.16,0.983-0.043   c0.478-0.276,1.09-0.114,1.367,0.364c0.277,0.478,0.114,1.09-0.364,1.367C39.498,26.862,39.002,27,38.492,27z"/>
	<path style="fill:#D3A87D;" d="M30,47h-2c-0.552,0-1-0.447-1-1s0.448-1,1-1h2c0.552,0,1,0.447,1,1S30.552,47,30,47z"/>
	<path style="fill:#A35D3E;" d="M11.328,40.417c0,0-0.596-1.17-2.328-1.333c-1.792-0.169-3.601,0.741-3.91,2.167   c-0.427,1.974,0.448,5.833,7.277,5.833c0,0,9.972-0.107,15.524-4.761C28.63,41.704,29.007,40.856,29,40l0-0.001   c-0.048-2.418-3.521-3.768-5.936-2.319c-3.178,1.907-7.912,5.271-12.064,5.403C7.321,43.2,9.455,40.515,11.328,40.417z"/>
	<path style="fill:#A35D3E;" d="M46.672,40.417c0,0,0.596-1.17,2.328-1.333c1.792-0.169,3.601,0.741,3.91,2.167   c0.427,1.974-0.448,5.833-7.277,5.833c0,0-9.972-0.107-15.524-4.761C29.37,41.704,28.993,40.856,29,40l0-0.001   c0.048-2.418,3.521-3.768,5.936-2.319c3.178,1.907,7.912,5.271,12.064,5.403C50.679,43.2,48.545,40.515,46.672,40.417z"/>
</g>

</svg>
