<?xml version="1.0" encoding="iso-8859-1"?>
<!-- Generator: Adobe Illustrator 19.0.0, SVG Export Plug-In . SVG Version: 6.00 Build 0)  -->
<svg version="1.1" id="Capa_1" xmlns="http://www.w3.org/2000/svg" xmlns:xlink="http://www.w3.org/1999/xlink" x="0px" y="0px"
	 viewBox="0 0 512 512" style="enable-background:new 0 0 512 512;" xml:space="preserve">
<g>
	<path style="fill:#FFD93B;" d="M227.472,118.689c-65.008-44.64-125.76-82.544-172.16-97.68c-11.664-3.664-23.328,5.072-23.328,17.2
		v244.24l195.488-63.232V118.689z"/>
	<path style="fill:#FFD93B;" d="M284.576,118.689c65.008-44.64,125.76-82.544,172.16-97.68c11.664-3.68,23.328,5.072,23.328,17.2
		v244.24L284.56,219.217V118.689H284.576z"/>
</g>
<g>
	<path style="fill:#F4C534;" d="M145.2,110.017c-30.32-19.68-58.24-35.552-81.088-43.408v116.976
		C87.072,154.513,114.912,128.977,145.2,110.017z"/>
	<path style="fill:#F4C534;" d="M413.744,156.929c11.776,10.256,24.096,21.312,34.144,33.84V66.609
		c-24.272,8.336-54.272,25.776-86.752,47.136C379.952,126.305,396.608,142.017,413.744,156.929z"/>
</g>
<circle style="fill:#FFD93B;" cx="256" cy="267.361" r="224.48"/>
<path style="fill:#F4C534;" d="M480.464,267.361c0,124.016-100.512,224.464-224.464,224.464c-70.56,0-133.552-32.544-174.736-83.552
	C119.776,439.424,168.8,458,222.192,458c123.952,0,224.464-100.448,224.464-224.464c0-53.376-18.592-102.416-49.728-140.928
	C447.856,133.809,480.464,196.801,480.464,267.361z"/>
<path style="fill:#3E4347;" d="M357.28,372.097c-13.872,42.704-53.984,73.488-101.248,73.488c-47.36,0-87.376-30.8-101.328-73.488
	c-1.696-5.104,2.864-10.112,8.064-8.592c37.152,10.912,149.408,10.912,186.464,0C354.4,361.985,358.976,366.993,357.28,372.097z"/>
<path style="fill:#E24B4B;" d="M255.984,410.977c-33.264,0-60.24-14.832-60.24,13.968c0,0.624,0.192,1.216,0.208,1.84
	c17.12,11.744,37.712,18.784,60.08,18.784c22.304,0,42.864-7.04,59.984-18.752c0.032-0.64,0.224-1.232,0.224-1.872
	C316.224,396.145,289.248,410.977,255.984,410.977z"/>
<g>
	<circle style="fill:#F4C534;" cx="154.752" cy="252.721" r="86.32"/>
	<path style="fill:#F4C534;" d="M228.656,252.753c-2.272,41.056-37.184,74.336-77.984,74.336S78.528,293.825,80.8,252.753
		c2.272-41.056,37.312-74.464,78.112-74.464C199.712,178.289,230.928,211.697,228.656,252.753z"/>
</g>
<path style="fill:#3E4347;" d="M167.568,106.849c0,0-45.6-6.416-93.488,49.024C74.08,155.857,105.04,56.577,167.568,106.849z"/>
<g>
	<circle style="fill:#F4C534;" cx="357.248" cy="252.721" r="86.32"/>
	<path style="fill:#F4C534;" d="M283.344,252.753c2.272,41.056,37.184,74.336,77.984,74.336s72.144-33.264,69.872-74.336
		c-2.272-41.056-37.312-74.464-78.112-74.464C312.288,178.289,281.072,211.697,283.344,252.753z"/>
</g>
<path style="fill:#3E4347;" d="M344.432,106.849c0,0,45.6-6.416,93.488,49.024C437.92,155.857,406.96,56.577,344.432,106.849z"/>
<path style="fill:#7A5B44;" d="M283.712,325.793c0,9.872-11.2,18.432-19.312,23.296c-5.312,3.088-11.504,3.088-16.8,0
	c-7.968-4.864-19.312-13.408-19.312-23.296c0-15.328,12.528-16.944,27.712-16.944C271.328,308.849,283.712,310.465,283.712,325.793z
	"/>
<path style="fill:#6B503B;" d="M283.712,325.793c0,9.872-11.2,18.432-19.312,23.296c-5.312,3.088-11.504,3.088-16.8,0
	c-4.864-2.944-11.2-7.376-15.184-12.688c2.352,1.776,4.72,3.248,6.784,4.576c6.048,3.536,13.12,3.536,19.168,0
	c9.136-5.44,21.52-15.04,21.968-25.936C282.528,317.537,283.712,321.089,283.712,325.793z"/>
<g>
	<path style="fill:#3E4347;" d="M443.536,252.689c0,2.656-0.592,5.312-1.616,7.808c-7.52-16.656-42.592-29.328-84.752-29.328
		c-42.016,0-77.088,12.672-84.608,29.328c-1.024-2.512-1.616-5.152-1.616-7.808c0-22.704,38.624-41.264,86.224-41.264
		C404.928,211.425,443.536,229.985,443.536,252.689z"/>
	<path style="fill:#3E4347;" d="M241.024,252.689c0,2.656-0.592,5.312-1.616,7.808c-7.52-16.656-42.592-29.328-84.752-29.328
		c-42,0-77.088,12.672-84.608,29.328c-1.024-2.512-1.616-5.152-1.616-7.808c0-22.704,38.624-41.264,86.224-41.264
		C202.4,211.425,241.024,229.985,241.024,252.689z"/>
</g>
<path style="fill:#FFFFFF;" d="M344.896,364.577c-6.448,14.192-17.664,22.96-32.112,28.24c-2.448,13.552-9.024,25.28-17.664,33.536
	c3.088-10.048,2.96-20.24,0.512-29.008c-12.128,2.32-25.536,2.96-39.712,2.96s-27.6-0.64-39.584-2.96
	c-2.448,8.768-2.576,18.96,0.512,29.008c-8.64-8.256-15.216-19.984-17.664-33.536c-14.32-5.28-25.536-14.048-32.112-28.24
	C206.272,373.985,305.696,373.985,344.896,364.577z"/>
<g>
	<path style="fill:#3E4347;" d="M365.008,376.337c0,0,35.232,5.472,68.064,30c30.896,22.448,43.984,51.616,43.984,51.616
		c-11.648-18.768-24.224-34.432-46.32-48.864c-14.624-9.728-31.488-17.024-44.768-20.864c-13.328-4-22.56-4.96-22.544-4.992
		c-2.224-0.352-3.76-2-3.44-3.952c0.336-1.936,2.464-3.248,4.72-2.992C364.8,376.305,364.944,376.321,365.008,376.337z"/>
	<path style="fill:#3E4347;" d="M386.928,366.273c-0.016,0.016,7.728,0.56,18.672,2.768c10.976,2.208,25.296,6.256,38.4,12.256
		c13.168,5.984,24.848,13.92,32.288,20.848c0.768,0.736,11.824,12.448,11.136,12.384c0.08-0.832-11.168-10.944-11.984-11.616
		c-7.872-6.432-19.904-13.472-33.136-18.464c-28.576-10.944-55.968-11.184-55.968-11.184c-2.288-0.048-4.128-1.616-4.08-3.568
		c0.032-1.952,1.984-3.472,4.304-3.456C386.656,366.225,386.832,366.305,386.928,366.273z"/>
	<path style="fill:#3E4347;" d="M368.864,353.521c0,0,37.248-7.936,78.672,3.568C490.176,368.321,512,393.441,512,393.441
		c-17.168-14.704-35.536-26.464-65.536-32.992c-18.624-4.288-38.064-4.752-52.272-3.6c-14.352,1.056-23.264,3.456-23.264,3.456
		c-2.256,0.544-4.64-0.448-5.328-2.304c-0.672-1.856,0.624-3.856,2.912-4.4c0.064,0,0.144-0.016,0.224-0.064
		C368.784,353.537,368.816,353.521,368.864,353.521z"/>
	<path style="fill:#3E4347;" d="M146.992,376.337c0,0-35.232,5.472-68.064,30c-30.896,22.448-43.968,51.616-43.968,51.616
		c11.648-18.768,24.224-34.432,46.32-48.864c33.52-22.272,67.312-25.856,67.312-25.856c2.224-0.352,3.76-2,3.44-3.952
		c-0.336-1.936-2.464-3.248-4.736-2.992C147.2,376.305,147.056,376.321,146.992,376.337z"/>
	<path style="fill:#3E4347;" d="M125.072,366.273c0.016,0.016-7.728,0.56-18.672,2.768c-10.976,2.208-25.296,6.256-38.4,12.256
		c-14,6.368-31.648,17.68-40.592,29.696c-1.808,2.256-2.848,3.536-2.848,3.536s1.12-1.184,3.104-3.36
		c9.6-11.2,27.632-21.28,42.016-26.72c28.576-10.944,55.968-11.184,55.968-11.184c2.288-0.048,4.128-1.616,4.08-3.568
		c-0.032-1.952-1.984-3.472-4.304-3.456C125.344,366.225,125.168,366.305,125.072,366.273z"/>
	<path style="fill:#3E4347;" d="M143.136,353.521c0,0-37.248-7.936-78.688,3.568C21.824,368.321,0,393.441,0,393.441
		c17.168-14.704,35.536-26.464,65.536-32.992c18.624-4.288,38.064-4.752,52.272-3.6c14.352,1.056,23.264,3.456,23.264,3.456
		c2.256,0.544,4.64-0.448,5.328-2.304c0.672-1.856-0.624-3.856-2.912-4.4c-0.064,0-0.144-0.016-0.224-0.064
		C143.216,353.537,143.184,353.521,143.136,353.521z"/>
</g>
<g>
</g>
<g>
</g>
<g>
</g>
<g>
</g>
<g>
</g>
<g>
</g>
<g>
</g>
<g>
</g>
<g>
</g>
<g>
</g>
<g>
</g>
<g>
</g>
<g>
</g>
<g>
</g>
<g>
</g>
</svg>
