<?xml version="1.0" encoding="iso-8859-1"?>
<!-- Generator: Adobe Illustrator 22.0.0, SVG Export Plug-In . SVG Version: 6.00 Build 0)  -->
<svg xmlns="http://www.w3.org/2000/svg" xmlns:xlink="http://www.w3.org/1999/xlink" version="1.1" x="0px" y="0px" viewBox="0 0 58 57.988" style="enable-background:new 0 0 58 57.988;" xml:space="preserve" width="512" height="512">
<g id="_x33_6-Punk">
	<g>
		<path style="fill:#D3A87D;" d="M12.075,24.048C10.345,24.26,9,25.718,9,27.505c0,1.933,1.567,3.5,3.5,3.5h0.667    c-0.176-0.68,2.526-1.352,2.398-2.005c-0.285-1.456-0.459-2.822-0.565-4C14.97,24.667,12.094,24.349,12.075,24.048z"/>
		<path style="fill:#D3A87D;" d="M45.925,24.048c-0.039,0.59-6.382,0.246-6.463,0.952c-0.106,0.927-0.255,1.94-0.463,3    c-0.128,0.653,6.009,2.324,5.833,3.005H45.5c1.933,0,3.5-1.567,3.5-3.5C49,25.718,47.655,24.26,45.925,24.048z"/>
	</g>
	<path style="fill:#EBBA16;" d="M40.632,44.229c-0.115-0.075-0.231-0.152-0.346-0.229c-0.765-0.554-1.434-1.067-2.045-1.553   c-0.143,0.105-0.313,0.183-0.538,0.183c-0.371,0-0.616-0.181-0.764-0.423c-0.227-0.263-0.291-0.654-0.185-0.987   c-0.025-0.022-0.054-0.045-0.078-0.066l-15.296,0.058c-0.023,0.021-0.051,0.044-0.074,0.065c0.831,0.353,0.703,1.838-0.384,1.838   c-0.016,0-0.027-0.007-0.043-0.008c-0.04,0.005-0.07,0.023-0.114,0.023c-0.331,0-0.562-0.145-0.713-0.347   c-0.12-0.053-0.219-0.13-0.298-0.223c-0.598,0.463-1.257,0.941-2.041,1.44c-0.115,0.077-0.23,0.153-0.346,0.229   C7.761,49.824,0,50.43,0,56.43v1.558h58V56.43C58,50.43,50.239,49.824,40.632,44.229z"/>
	<path style="fill:#FBCE9D;" d="M46,21.005c0-10.017-4.645-14.457-9.11-16.429H21.12c-4.465,1.972-9.11,6.412-9.11,16.429   c0,0-0.249,5.999,1.753,11.997c0.252,0.756,1.526,1.757,2.769,2.728l1.937,1.623C18.701,37.584,18.889,37.803,19,38   c1.511,2.679,3.687,4.76,5.833,5.933C26.112,44.633,27.541,45,29,45s2.888-0.367,4.167-1.067C35.313,42.76,37.489,40.679,39,38   c0.111-0.197,0.3-0.416,0.532-0.648l1.94-1.622c1.245-0.971,2.522-1.973,2.775-2.729C46.249,27.003,46,21.005,46,21.005z"/>
	<path style="fill:#D3A87D;" d="M29,30c-0.552,0-1-0.447-1-1s0.448-1,1-1c0.552,0,1-0.448,1-1c0-0.322-0.15-0.616-0.41-0.808   c-1.01-0.74-1.59-1.808-1.59-2.93V23c0-0.553,0.448-1,1-1s1,0.447,1,1v0.263c0,0.653,0.484,1.105,0.772,1.316   C31.541,25.144,32,26.048,32,27C32,28.654,30.654,30,29,30z"/>
	<path style="fill:#D3A87D;" d="M30,42h-2c-0.552,0-1-0.447-1-1s0.448-1,1-1h2c0.552,0,1,0.447,1,1S30.552,42,30,42z"/>
	<path style="fill:#61B872;" d="M16,35.755c0,0,4.062,4.506,11.375,0.751c0,0,1.625-0.751,1.625-2.253   C29,33.502,28.188,32,26.562,32C24.125,32,20.875,35.755,16,35.755z"/>
	<path style="fill:#61B872;" d="M42,35.755c0,0-4.062,4.506-11.375,0.751c0,0-1.625-0.751-1.625-2.253   C29,33.502,29.812,32,31.438,32C33.875,32,37.125,35.755,42,35.755z"/>
	<path style="fill:#61B872;" d="M22.999,21c-0.22,0-0.441-0.072-0.626-0.221c-1.287-1.033-3.46-1.033-4.747,0   c-0.43,0.346-1.06,0.277-1.406-0.152c-0.346-0.431-0.278-1.061,0.153-1.406c2.033-1.635,5.22-1.635,7.253,0   c0.43,0.346,0.499,0.976,0.153,1.406C23.582,20.872,23.292,21,22.999,21z"/>
	<path style="fill:#61B872;" d="M40.999,21c-0.22,0-0.441-0.072-0.626-0.221c-1.287-1.033-3.46-1.033-4.747,0   c-0.43,0.346-1.06,0.277-1.406-0.152c-0.346-0.431-0.278-1.061,0.153-1.406c2.033-1.635,5.22-1.635,7.253,0   c0.43,0.346,0.499,0.976,0.153,1.406C41.582,20.872,41.292,21,40.999,21z"/>
	<path style="fill:#28384C;" d="M20.027,26c-1.088,0-2.061-0.497-2.74-1.399c-0.13-0.173-0.201-0.384-0.201-0.601   c0-1.103,0.897-2,2-2c0.552,0,1,0.447,1,1c0,0.398-0.234,0.743-0.571,0.903c0.291,0.118,0.631,0.161,0.984-0.044   c0.479-0.275,1.09-0.112,1.366,0.366c0.276,0.478,0.113,1.09-0.365,1.366C21.031,25.862,20.535,26,20.027,26z"/>
	<path style="fill:#28384C;" d="M38,26c-1.088,0-2.061-0.497-2.74-1.399C35.13,24.428,35.06,24.217,35.06,24c0-1.103,0.897-2,2-2   c0.552,0,1,0.447,1,1c0,0.398-0.234,0.743-0.571,0.903c0.291,0.118,0.631,0.161,0.984-0.044c0.479-0.275,1.09-0.112,1.366,0.366   c0.276,0.478,0.113,1.09-0.365,1.366C39.004,25.862,38.509,26,38,26z"/>
	<path style="fill:#61B872;" d="M31.529,0h-5.071c-1.2,0-2.383,0.413-3.259,1.233c-1.744,1.632-2.72,3.652-1.912,5.732   c0.595,1.531,2.114,2.766,3.984,3.524L29,12l3.729-1.511c1.871-0.758,3.39-1.993,3.984-3.524c0.774-1.993-0.091-3.932-1.699-5.526   C34.087,0.52,32.834,0,31.529,0z"/>
	<path style="fill:#DC691D;" d="M35,53.988c-0.237,0-0.475-0.084-0.666-0.254c-0.412-0.368-0.448-1-0.08-1.412   c0.144-0.161,3.578-3.972,9.06-7.229c0.476-0.284,1.089-0.126,1.371,0.349c0.282,0.475,0.126,1.088-0.349,1.37   c-5.22,3.103-8.557,6.806-8.59,6.843C35.548,53.876,35.274,53.988,35,53.988z"/>
	<path style="fill:#DC691D;" d="M23,53.988c-0.275,0-0.548-0.112-0.746-0.333c-0.033-0.037-3.386-3.751-8.591-6.844   c-0.475-0.282-0.631-0.896-0.349-1.37c0.282-0.475,0.895-0.634,1.371-0.349c5.482,3.258,8.917,7.068,9.06,7.229   c0.368,0.411,0.332,1.043-0.079,1.411C23.476,53.904,23.238,53.988,23,53.988z"/>
	<path style="fill:#C49716;" d="M23.846,43.323c-0.256-0.173-0.51-0.356-0.762-0.553c-0.018-0.014-0.036-0.03-0.055-0.045   c-0.567-0.447-1.12-0.954-1.65-1.514l0,0c-0.474,0.432-1.011,0.877-1.632,1.355L29,52.988l9.315-10.479   c-0.61-0.483-1.153-0.934-1.64-1.356c0,0.001-0.001,0.001-0.002,0.002c-0.271,0.29-0.549,0.565-0.832,0.826   c-0.005,0.005-0.01,0.01-0.015,0.014c-0.267,0.245-0.537,0.477-0.812,0.695c-0.027,0.021-0.053,0.044-0.079,0.065   c-0.25,0.196-0.501,0.378-0.755,0.55c-0.047,0.032-0.093,0.068-0.14,0.099c-0.291,0.192-0.582,0.371-0.873,0.53   C31.888,44.633,30.459,45,29,45s-2.888-0.367-4.167-1.067c-0.288-0.158-0.577-0.334-0.864-0.524   C23.927,43.382,23.887,43.351,23.846,43.323z"/>
	<path style="fill:#D3A87D;" d="M40,11h3.836c-0.387-0.731-0.814-1.397-1.273-2H40c-0.552,0-1,0.447-1,1S39.448,11,40,11z"/>
	<path style="fill:#D3A87D;" d="M45.323,15c-0.172-0.705-0.369-1.376-0.598-2H42c-0.552,0-1,0.447-1,1s0.448,1,1,1H45.323z"/>
	<path style="fill:#D3A87D;" d="M14.174,11H18c0.552,0,1-0.447,1-1s-0.448-1-1-1h-2.554C14.987,9.603,14.561,10.269,14.174,11z"/>
	<path style="fill:#D3A87D;" d="M16,15c0.552,0,1-0.447,1-1s-0.448-1-1-1h-2.716c-0.229,0.624-0.426,1.295-0.598,2H16z"/>
	<path style="fill:#DC691D;" d="M30,52.988c0-0.553-0.448-1-1-1s-1,0.447-1,1v5h2V52.988z"/>
</g>

</svg>
