<?xml version="1.0" encoding="iso-8859-1"?>
<!-- Generator: Adobe Illustrator 19.0.0, SVG Export Plug-In . SVG Version: 6.00 Build 0)  -->
<svg version="1.1" id="Capa_1" xmlns="http://www.w3.org/2000/svg" xmlns:xlink="http://www.w3.org/1999/xlink" x="0px" y="0px"
	 viewBox="0 0 511.998 511.998" style="enable-background:new 0 0 511.998 511.998;" xml:space="preserve">
<g>
	<path style="fill:#FFD93B;" d="M128.095,194.206c25.504-35.792,53.664-70.368,63.696-113.504
		C136.431,44.03,85.311,14.126,44.719,0.894c-12.288-3.872-24.56,5.328-24.56,18.096v257.136l66.928-21.648
		C100.543,234.254,113.983,213.998,128.095,194.206z"/>
	<path style="fill:#FFD93B;" d="M467.343,0.894C420.159,16.27,358.831,54.11,293.039,99.022
		c28.24,26.176,48.416,61.056,70.976,92.064c14.048,19.312,29.472,38.416,44.224,57.984l83.68,27.056V18.99
		C491.919,6.222,479.631-2.978,467.343,0.894z"/>
</g>
<g>
	<path style="fill:#F4C534;" d="M139.343,94.59c-31.904-20.72-61.296-37.424-85.376-45.696v123.152
		C78.143,141.438,107.455,114.558,139.343,94.59z"/>
	<path style="fill:#F4C534;" d="M422.079,143.982c12.4,10.8,25.376,22.432,35.952,35.632V48.894
		c-25.552,8.784-57.136,27.136-91.328,49.632C386.495,111.742,404.031,128.27,422.079,143.982z"/>
</g>
<circle style="fill:#FFD93B;" cx="255.999" cy="276.078" r="235.92"/>
<path style="fill:#F4C534;" d="M491.919,276.078c0,130.352-105.648,235.92-235.92,235.92c-74.16,0-140.368-34.208-183.648-87.808
	c40.48,32.736,92,52.272,148.112,52.272c130.272,0,235.92-105.568,235.92-235.92c0-56.112-19.536-107.632-52.272-148.112
	C457.631,135.71,491.919,201.918,491.919,276.078z"/>
<g>
	<path style="fill:#3E4347;" d="M110.335,115.79c0,0,48.144-38.56,104.048-23.152C214.383,92.638,145.359,26.558,110.335,115.79z"/>
	<path style="fill:#3E4347;" d="M401.663,115.79c0,0-48.144-38.56-104.048-23.152C297.615,92.638,366.655,26.558,401.663,115.79z"/>
</g>
<path style="fill:#7A5B44;" d="M294.207,326.83c0,13.616-15.44,25.408-26.624,32.112c-7.312,4.272-15.856,4.272-23.168,0
	c-10.976-6.704-26.624-18.496-26.624-32.112c0-21.136,17.28-23.376,38.208-23.376C277.135,303.47,294.207,305.694,294.207,326.83z"
	/>
<path style="fill:#6B503B;" d="M294.207,326.83c0,13.616-15.44,25.408-26.624,32.112c-7.312,4.272-15.856,4.272-23.168,0
	c-6.704-4.064-15.44-10.16-20.928-17.488c3.248,2.448,6.512,4.48,9.344,6.304c8.336,4.88,18.08,4.88,26.416,0
	c12.592-7.504,29.664-20.736,30.288-35.76C292.575,315.454,294.207,320.334,294.207,326.83z"/>
<g>
	<path style="fill:#3E4347;" d="M360.111,456.846c-1.232-21.36-26-39.696-52.08-49.728c-32.24-13.52-71.472-13.6-104.048,0.016
		c-40.08,17.712-50.88,37.104-52.096,49.728c-4.608-23.136,13.424-50.384,44.608-65.44c31.344-17.024,84.88-18.304,119.024,0
		C346.511,406.398,364.735,433.902,360.111,456.846z"/>
	<path style="fill:#3E4347;" d="M352.911,373.054c22.96,4.4,57.248,20.032,88.64,46.944c27.568,23.872,42.976,47.776,59.648,79.504
		c-17.68-30.56-34.032-53.936-62.208-76.432c-31.504-24.864-65.984-38.96-87.488-42.128c-2.192-0.32-3.696-2.352-3.376-4.544
		c0.32-2.192,2.352-3.696,4.544-3.376C352.719,373.022,352.863,373.054,352.911,373.054z"/>
	<path style="fill:#3E4347;" d="M364.623,359.742c15.04,1.264,40.544,7.808,60.048,17.216c23.12,10.8,36.016,22.48,49.2,37.04
		c-14.288-13.856-27.456-24.256-50.8-33.376c-19.52-7.904-44.784-12.656-58.96-12.896c-2.208-0.032-3.968-1.856-3.936-4.064
		c0.032-2.208,1.856-3.984,4.08-3.936c0.08,0,0.176,0,0.256,0.016H364.623z"/>
	<path style="fill:#3E4347;" d="M390.239,345.374c12.928-2.928,33.872-3.488,50.144-0.016c30.32,6.848,42.944,23.504,42.944,23.504
		c-0.08,0.096-13.216-15.216-43.616-19.568c-15.952-2.08-35.76,0.112-47.488,3.808c-2.112,0.672-4.352-0.496-5.024-2.608
		s0.496-4.352,2.608-5.024c0.112-0.032,0.208-0.064,0.32-0.08L390.239,345.374z"/>
	<path style="fill:#3E4347;" d="M159.087,373.054c-22.976,4.4-57.248,20.032-88.64,46.944
		c-27.568,23.872-42.976,47.776-59.648,79.504c17.68-30.56,34.032-53.936,62.208-76.432c31.504-24.864,65.984-38.96,87.488-42.128
		c2.192-0.32,3.696-2.352,3.376-4.544c-0.32-2.192-2.352-3.696-4.544-3.376C159.279,373.022,159.135,373.054,159.087,373.054z"/>
	<path style="fill:#3E4347;" d="M147.375,359.742c-15.04,1.264-40.544,7.808-60.048,17.216c-23.12,10.8-36.016,22.48-49.2,37.04
		c14.288-13.856,27.456-24.256,50.784-33.376c19.52-7.904,44.784-12.656,58.96-12.896c2.208-0.032,3.968-1.856,3.936-4.064
		s-1.856-3.984-4.064-3.936c-0.08,0-0.176,0-0.256,0.016H147.375z"/>
	<path style="fill:#3E4347;" d="M121.759,345.374c-12.928-2.928-33.872-3.488-50.144-0.016
		c-30.32,6.848-42.944,23.504-42.944,23.504c0.08,0.096,13.216-15.216,43.616-19.568c15.952-2.08,35.76,0.112,47.488,3.808
		c2.112,0.672,4.368-0.496,5.024-2.608c0.672-2.112-0.496-4.352-2.608-5.024c-0.112-0.032-0.208-0.064-0.32-0.08L121.759,345.374z"
		/>
</g>
<path style="fill:#F4C534;" d="M444.895,227.486c-0.256,48.16-40.864,86-90.448,84.656s-89.616-41.376-89.36-89.536
	c0.256-47.984,40.688-85.824,90.272-84.48C404.943,139.454,445.151,179.486,444.895,227.486z"/>
<path style="fill:#FFFFFF;" d="M426.287,225.006c0,39.424-32.016,71.296-71.296,71.296s-71.152-31.872-71.152-71.296
	c0-39.28,31.872-71.152,71.152-71.152S426.287,185.726,426.287,225.006z"/>
<path style="fill:#3E4347;" d="M388.127,224.974c0,18.48-14.784,33.264-33.152,33.136c-18.256,0-32.912-14.672-32.912-33.152
	c0-18.256,14.672-32.912,32.912-32.912C373.343,191.934,388.127,206.718,388.127,224.974z"/>
<path style="fill:#FFFFFF;" d="M374.095,218.142c-2.128,2.128-6.704,1.312-9.968-1.968c-3.424-3.424-4.24-8-2.128-10.128
	c2.128-2.288,6.704-1.312,9.968,2.128C375.407,211.438,376.383,216.014,374.095,218.142z"/>
<g>
	<path style="fill:#F4C534;" d="M440.287,245.502c5.952-27.408-1.392-57.376-22.528-79.088c-21.712-22.32-52.224-30-80.016-23.456
		C365.599,183.454,399.791,217.646,440.287,245.502z"/>
	<path style="fill:#F4C534;" d="M67.103,227.486c0.256,48.16,40.864,86,90.448,84.656s89.616-41.376,89.36-89.536
		c-0.256-47.984-40.688-85.824-90.272-84.48C107.055,139.454,66.847,179.486,67.103,227.486z"/>
</g>
<path style="fill:#FFFFFF;" d="M85.711,225.006c0,39.424,32.016,71.296,71.296,71.296s71.152-31.872,71.152-71.296
	c0-39.28-31.872-71.152-71.152-71.152S85.711,185.726,85.711,225.006z"/>
<path style="fill:#3E4347;" d="M123.871,224.974c0,18.48,14.784,33.264,33.152,33.136c18.256,0,32.912-14.672,32.912-33.152
	c0-18.256-14.672-32.912-32.912-32.912C138.655,191.934,123.871,206.718,123.871,224.974z"/>
<path style="fill:#FFFFFF;" d="M137.903,218.142c2.128,2.128,6.704,1.312,9.968-1.968c3.44-3.424,4.256-8,2.128-10.128
	c-2.128-2.288-6.704-1.312-9.968,2.128C136.591,211.438,135.615,216.014,137.903,218.142z"/>
<path style="fill:#F4C534;" d="M71.711,245.502c-5.968-27.408,1.392-57.376,22.528-79.088c21.712-22.32,52.24-30,80.016-23.456
	C146.399,183.454,112.207,217.646,71.711,245.502z"/>
<g>
	<path style="fill:#65B1EF;" d="M475.215,368.91c0-18.992-34.384-76.832-34.384-76.832s-34.384,57.84-34.384,76.832
		s15.392,34.384,34.384,34.384S475.215,387.902,475.215,368.91z"/>
	<path style="fill:#65B1EF;" d="M120.655,444.814c0-16.464-29.824-66.64-29.824-66.64s-29.824,50.16-29.824,66.64
		s13.344,29.824,29.824,29.824S120.655,461.278,120.655,444.814z"/>
</g>
<g>
</g>
<g>
</g>
<g>
</g>
<g>
</g>
<g>
</g>
<g>
</g>
<g>
</g>
<g>
</g>
<g>
</g>
<g>
</g>
<g>
</g>
<g>
</g>
<g>
</g>
<g>
</g>
<g>
</g>
</svg>
