<?xml version="1.0" encoding="iso-8859-1"?>
<!-- Generator: Adobe Illustrator 22.0.0, SVG Export Plug-In . SVG Version: 6.00 Build 0)  -->
<svg xmlns="http://www.w3.org/2000/svg" xmlns:xlink="http://www.w3.org/1999/xlink" version="1.1" x="0px" y="0px" viewBox="0 0 58 59" style="enable-background:new 0 0 58 59;" xml:space="preserve" width="512" height="512">
<g id="_x33_8-Naked">
	<path style="fill:#D3A87D;" d="M13.746,21.6c-0.439-0.149-0.919-0.244-1.434-0.244c-2.573,0-0.858,8.496,0.857,9.269   c0.661,0.298,1.321-0.095,1.884-0.732L19,26.79L18.403,23L13.746,21.6z"/>
	<path style="fill:#D3A87D;" d="M45.688,21.355c-0.456,0-0.884,0.075-1.282,0.195L39,22l-0.753,5l4.875,3.074   c0.523,0.523,1.115,0.817,1.709,0.55C46.546,29.851,48.261,21.355,45.688,21.355z"/>
	<line style="fill:#EDB883;" x1="36.034" y1="41.663" x2="36.028" y2="41.668"/>
	<path style="fill:#EDB883;" d="M43.63,42.942l-5.607-3.044l-17.261-0.426l-6.391,3.47C6.374,46.896,0,48.214,0,53.442V58h29h29   v-4.558C58,48.214,51.625,46.896,43.63,42.942z"/>
	<path style="fill:#EA7F5F;" d="M22,59c-0.552,0-1-0.447-1-1s0.448-1,1-1c1.936,0,3-0.751,3-1c0-0.553,0.448-1,1-1s1,0.447,1,1   C27,57.71,24.851,59,22,59z"/>
	<path style="fill:#EA7F5F;" d="M36,59c-2.851,0-5-1.29-5-3c0-0.553,0.448-1,1-1s1,0.447,1,1c0,0.249,1.064,1,3,1   c0.552,0,1,0.447,1,1S36.552,59,36,59z"/>
	<path style="fill:#EA7F5F;" d="M40,56h-1c-0.552,0-1-0.447-1-1s0.448-1,1-1h1c0.552,0,1,0.447,1,1S40.552,56,40,56z"/>
	<path style="fill:#EA7F5F;" d="M19,56h-1c-0.552,0-1-0.447-1-1s0.448-1,1-1h1c0.552,0,1,0.447,1,1S19.552,56,19,56z"/>
	<path style="fill:#FBCE9D;" d="M42.678,33.019l1.41-9.358L43,16c-0.741-1.747-3.063-5-5-5c-12.8,0-22-2-22-2   c-0.33,4.191,0.039,9.821-1.996,14.235l1.339,8.494c0.297,1.885,1.202,3.628,2.584,4.977l4.783,4.668   C24.432,43.055,26.769,44,29.205,44h0.643c2.285,0,4.489-0.831,6.179-2.332l3.741-3.319C41.341,36.954,42.369,35.07,42.678,33.019z   "/>
	<path style="fill:#D3A87D;" d="M28,30.614c-0.552,0-1-0.447-1-1s0.448-1,1-1c0.551,0,1-0.448,1-1c0-0.322-0.149-0.616-0.41-0.808   c-0.445-0.327-0.542-0.953-0.215-1.398c0.326-0.444,0.952-0.541,1.397-0.215C30.541,25.758,31,26.662,31,27.614   C31,29.269,29.654,30.614,28,30.614z"/>
	<path style="fill:#D3A87D;" d="M30,42h-2c-0.552,0-1-0.447-1-1s0.448-1,1-1h2c0.552,0,1,0.447,1,1S30.552,42,30,42z"/>
	<path style="fill:#C94D3D;" d="M24.297,34c0.526,1.458,1.848,4,4.703,4c2.453,0,3.775-2.255,4.432-4H24.297z"/>
	<path style="fill:#6F3315;" d="M19,20.6c-0.392,0-0.764-0.231-0.924-0.616c-0.212-0.511,0.03-1.096,0.54-1.308   c2.046-0.849,4.637-0.898,6.301-0.118c0.5,0.234,0.715,0.83,0.48,1.33c-0.234,0.499-0.83,0.714-1.33,0.48   c-1.154-0.541-3.167-0.474-4.684,0.155C19.258,20.575,19.128,20.6,19,20.6z"/>
	<path style="fill:#6C4127;" d="M22.027,25c-1.088,0-2.061-0.497-2.739-1.399c-0.13-0.173-0.201-0.384-0.201-0.601   c0-1.103,0.897-2,2-2c0.552,0,1,0.447,1,1c0,0.398-0.233,0.743-0.571,0.903c0.291,0.118,0.631,0.159,0.984-0.043   c0.477-0.278,1.089-0.114,1.366,0.364c0.276,0.479,0.113,1.09-0.365,1.366C23.032,24.862,22.536,25,22.027,25z"/>
	<path style="fill:#6F3315;" d="M34,20.6c-0.392,0-0.764-0.231-0.924-0.616c-0.212-0.511,0.03-1.096,0.54-1.308   c2.046-0.849,4.637-0.898,6.301-0.118c0.5,0.234,0.715,0.83,0.48,1.33c-0.235,0.499-0.83,0.714-1.33,0.48   c-1.153-0.541-3.167-0.474-4.684,0.155C34.258,20.575,34.128,20.6,34,20.6z"/>
	<path style="fill:#6C4127;" d="M37.027,25c-1.088,0-2.061-0.497-2.739-1.399c-0.13-0.173-0.201-0.384-0.201-0.601   c0-1.103,0.897-2,2-2c0.552,0,1,0.447,1,1c0,0.398-0.233,0.743-0.571,0.903c0.291,0.118,0.632,0.159,0.984-0.043   c0.477-0.278,1.089-0.114,1.366,0.364c0.276,0.479,0.113,1.09-0.365,1.366C38.032,24.862,37.536,25,37.027,25z"/>
	<path style="fill:#EA6248;" d="M35,35H23c-0.552,0-1-0.447-1-1s0.448-1,1-1h12c0.552,0,1,0.447,1,1S35.552,35,35,35z"/>
	<path style="fill:#EA7F5F;" d="M12,58v-4c0-0.553-0.448-1-1-1s-1,0.447-1,1v4H12z"/>
	<path style="fill:#EA7F5F;" d="M48,58v-4c0-0.553-0.448-1-1-1s-1,0.447-1,1v4H48z"/>
	<g>
		<path style="fill:#6F3315;" d="M43.095,6.536C43.063,6.532,43.032,6.524,43,6.519c0,0,1.6-5.466-10.4-6.247    c-12-0.781-12.8,0-15.2,3.904c0,0-3.675-1.393-4.594,6.278c-0.246,2.056-0.165,4.138,0.158,6.184l1.04,6.596    c2.035-4.414,3.866-9.402,4.196-13.592c0,0,5.6,3.904,18.4,3.904c1.937,0,3.683,1.139,4.423,2.886l3.064,7.228l1.949-12.938    C46.747,8.498,45.163,6.832,43.095,6.536z"/>
	</g>
</g>

</svg>
