<?xml version="1.0" encoding="iso-8859-1"?>
<!-- Generator: Adobe Illustrator 19.0.0, SVG Export Plug-In . SVG Version: 6.00 Build 0)  -->
<svg version="1.1" id="Capa_1" xmlns="http://www.w3.org/2000/svg" xmlns:xlink="http://www.w3.org/1999/xlink" x="0px" y="0px"
	 viewBox="0 0 511.998 511.998" style="enable-background:new 0 0 511.998 511.998;" xml:space="preserve">
<g>
	<path style="fill:#FFD93B;" d="M128.095,194.206c25.504-35.792,53.664-70.368,63.696-113.504
		C136.415,44.046,85.311,14.126,44.719,0.894c-12.288-3.872-24.56,5.328-24.56,18.096v257.136l66.928-21.648
		C100.543,234.254,113.983,213.998,128.095,194.206z"/>
	<path style="fill:#FFD93B;" d="M467.343,0.894C420.159,16.27,358.831,54.11,293.039,99.022
		c28.24,26.176,48.416,61.056,70.976,92.064c14.048,19.312,29.472,38.416,44.224,57.984l83.68,27.056V18.99
		C491.919,6.222,479.631-2.978,467.343,0.894z"/>
</g>
<g>
	<path style="fill:#F4C534;" d="M139.343,94.59c-31.904-20.72-61.296-37.424-85.376-45.696v123.152
		C78.143,141.438,107.455,114.558,139.343,94.59z"/>
	<path style="fill:#F4C534;" d="M422.079,143.982c12.4,10.8,25.376,22.432,35.952,35.632V48.894
		c-25.552,8.784-57.136,27.136-91.328,49.632C386.495,111.742,404.031,128.27,422.079,143.982z"/>
</g>
<circle style="fill:#FFD93B;" cx="255.999" cy="276.078" r="235.92"/>
<path style="fill:#F4C534;" d="M491.919,276.078c0,130.352-105.648,235.92-235.92,235.92c-74.16,0-140.368-34.208-183.648-87.808
	c40.48,32.736,92,52.272,148.112,52.272c130.272,0,235.92-105.568,235.92-235.92c0-56.112-19.536-107.632-52.272-148.112
	C457.631,135.71,491.919,201.918,491.919,276.078z"/>
<g>
	<path style="fill:#3E4347;" d="M110.335,115.79c0,0,48.144-38.56,104.048-23.152C214.383,92.638,145.343,26.558,110.335,115.79z"/>
	<path style="fill:#3E4347;" d="M401.663,115.79c0,0-48.144-38.56-104.048-23.152C297.615,92.638,366.639,26.558,401.663,115.79z"/>
</g>
<path style="fill:#7A5B44;" d="M294.207,326.83c0,13.616-15.44,25.408-26.624,32.112c-7.312,4.272-15.856,4.272-23.168,0
	c-10.976-6.704-26.624-18.496-26.624-32.112c0-21.136,17.28-23.376,38.208-23.376C277.135,303.47,294.207,305.694,294.207,326.83z"
	/>
<path style="fill:#6B503B;" d="M294.207,326.83c0,13.616-15.44,25.408-26.624,32.112c-7.312,4.272-15.856,4.272-23.168,0
	c-6.704-4.064-15.44-10.16-20.928-17.488c3.248,2.448,6.512,4.48,9.344,6.304c8.336,4.88,18.08,4.88,26.416,0
	c12.592-7.504,29.664-20.736,30.272-35.76C292.575,315.454,294.207,320.334,294.207,326.83z"/>
<path style="fill:#F4C534;" d="M244.735,224.99c0,49.504-40.208,89.536-89.536,89.536s-89.36-40.016-89.36-89.536
	c0-49.328,40.032-89.36,89.36-89.36S244.735,175.662,244.735,224.99z"/>
<path style="fill:#FFFFFF;" d="M226.511,225.006c0,39.424-32.016,71.296-71.296,71.296s-71.152-31.872-71.152-71.296
	c0-39.28,31.872-71.152,71.152-71.152S226.511,185.726,226.511,225.006z"/>
<path style="fill:#3E4347;" d="M188.335,224.974c0,18.48-14.784,33.264-33.152,33.136c-18.256,0-32.912-14.672-32.912-33.152
	c0-18.256,14.672-32.912,32.928-32.912C173.551,191.934,188.335,206.718,188.335,224.974z"/>
<path style="fill:#FFFFFF;" d="M174.319,218.142c-2.128,2.128-6.704,1.312-9.968-1.968c-3.44-3.424-4.256-8-2.128-10.128
	c2.128-2.288,6.704-1.312,9.968,2.128C175.631,211.438,176.607,216.014,174.319,218.142z"/>
<path style="fill:#F4C534;" d="M446.159,224.99c0,49.504-40.208,89.536-89.536,89.536s-89.36-40.016-89.36-89.536
	c0-49.328,40.032-89.36,89.36-89.36S446.159,175.662,446.159,224.99z"/>
<path style="fill:#FFFFFF;" d="M427.935,225.006c0,39.424-32.016,71.296-71.296,71.296s-71.152-31.872-71.152-71.296
	c0-39.28,31.872-71.152,71.152-71.152C395.919,153.854,427.935,185.726,427.935,225.006z"/>
<path style="fill:#3E4347;" d="M389.759,224.974c0,18.48-14.784,33.264-33.152,33.136c-18.256,0-32.912-14.672-32.912-33.152
	c0-18.256,14.672-32.912,32.912-32.912C374.975,191.934,389.759,206.718,389.759,224.974z"/>
<path style="fill:#FFFFFF;" d="M375.743,218.142c-2.128,2.128-6.704,1.312-9.968-1.968c-3.424-3.424-4.24-8-2.128-10.128
	c2.128-2.288,6.688-1.312,9.968,2.128C377.055,211.438,378.031,216.014,375.743,218.142z"/>
<g>
	<path style="fill:#3E4347;" d="M373.695,437.166c-18.832-15.152-49.008-23.792-72.736-27.824
		c-30.016-4.752-59.584-4.736-89.904,0.016c-37.024,6.336-60.608,18.112-72.752,27.808c17.216-22.512,42.496-34.784,69.904-41.6
		c28.304-7.232,65.104-7.696,95.6,0.016C331.007,402.366,356.591,414.798,373.695,437.166z"/>
	<path style="fill:#3E4347;" d="M352.911,373.054c22.976,4.4,57.248,20.032,88.64,46.944c27.568,23.872,42.976,47.776,59.648,79.504
		c-17.68-30.56-34.032-53.936-62.224-76.432c-31.488-24.864-65.984-38.96-87.488-42.128c-2.192-0.32-3.696-2.352-3.376-4.544
		c0.32-2.192,2.352-3.696,4.544-3.376C352.719,373.022,352.863,373.054,352.911,373.054z"/>
	<path style="fill:#3E4347;" d="M364.623,359.742c15.04,1.264,40.544,7.808,60.048,17.216c23.12,10.8,36.016,22.48,49.2,37.04
		c-14.288-13.856-27.44-24.256-50.784-33.376c-19.52-7.904-44.784-12.656-58.96-12.896c-2.208-0.032-3.968-1.856-3.936-4.064
		c0.032-2.208,1.856-3.984,4.08-3.936c0.08,0,0.176,0,0.256,0.016H364.623z"/>
	<path style="fill:#3E4347;" d="M390.239,345.374c12.928-2.928,33.872-3.488,50.144-0.016c30.304,6.848,42.944,23.504,42.944,23.504
		c-0.08,0.096-13.232-15.216-43.616-19.568c-15.952-2.08-35.76,0.112-47.488,3.808c-2.112,0.672-4.352-0.496-5.024-2.608
		s0.496-4.352,2.608-5.024c0.112-0.032,0.208-0.064,0.32-0.08L390.239,345.374z"/>
	<path style="fill:#3E4347;" d="M159.087,373.054c-22.976,4.4-57.248,20.032-88.64,46.944
		c-27.568,23.872-42.976,47.776-59.648,79.504c17.68-30.56,34.032-53.936,62.208-76.432c31.488-24.864,65.984-38.96,87.488-42.128
		c2.192-0.32,3.696-2.352,3.376-4.544c-0.32-2.192-2.352-3.696-4.544-3.376C159.279,373.022,159.135,373.054,159.087,373.054z"/>
	<path style="fill:#3E4347;" d="M147.375,359.742c-15.04,1.264-40.544,7.808-60.048,17.216c-23.12,10.8-36.016,22.48-49.2,37.04
		c14.288-13.856,27.456-24.256,50.784-33.376c19.52-7.904,44.784-12.656,58.96-12.896c2.208-0.032,3.968-1.856,3.936-4.064
		s-1.856-3.984-4.064-3.936c-0.08,0-0.176,0-0.256,0.016H147.375z"/>
	<path style="fill:#3E4347;" d="M121.759,345.374c-12.928-2.928-33.872-3.488-50.144-0.016
		c-30.32,6.848-42.944,23.504-42.944,23.504c0.08,0.096,13.232-15.216,43.616-19.568c15.952-2.08,35.76,0.112,47.488,3.808
		c2.112,0.672,4.368-0.496,5.024-2.608c0.672-2.112-0.496-4.352-2.608-5.024c-0.112-0.032-0.208-0.064-0.32-0.08L121.759,345.374z"
		/>
</g>
<g>
</g>
<g>
</g>
<g>
</g>
<g>
</g>
<g>
</g>
<g>
</g>
<g>
</g>
<g>
</g>
<g>
</g>
<g>
</g>
<g>
</g>
<g>
</g>
<g>
</g>
<g>
</g>
<g>
</g>
</svg>
