<?xml version="1.0" encoding="iso-8859-1"?>
<!-- Generator: Adobe Illustrator 19.0.0, SVG Export Plug-In . SVG Version: 6.00 Build 0)  -->
<svg version="1.1" id="Capa_1" xmlns="http://www.w3.org/2000/svg" xmlns:xlink="http://www.w3.org/1999/xlink" x="0px" y="0px"
	 viewBox="0 0 512.011 512.011" style="enable-background:new 0 0 512.011 512.011;" xml:space="preserve">
<g>
	<path style="fill:#FFD93B;" d="M225.046,106.955C154.486,58.507,88.534,17.34,38.166,0.923c-12.656-4-25.328,5.504-25.328,18.672
		v265.12l212.208-68.64L225.046,106.955L225.046,106.955z"/>
	<path style="fill:#FFD93B;" d="M287.03,106.955C357.59,58.507,423.542,17.34,473.91,0.923c12.672-4,25.328,5.504,25.328,18.672
		v265.12l-212.208-68.64V106.955z"/>
</g>
<g>
	<path style="fill:#F4C534;" d="M135.734,97.548c-32.912-21.376-63.216-38.592-88.032-47.136v126.976
		C72.63,145.835,102.838,118.123,135.734,97.548z"/>
	<path style="fill:#F4C534;" d="M427.238,148.475c12.784,11.136,26.16,23.12,37.072,36.736v-134.8
		c-26.336,9.056-58.912,27.984-94.176,51.168C390.55,115.228,408.646,132.267,427.238,148.475z"/>
</g>
<circle style="fill:#FFD93B;" cx="256.006" cy="268.348" r="243.664"/>
<g>
	<path style="fill:#F4C534;" d="M499.67,268.348c0,134.624-109.12,243.664-243.664,243.664c-76.608,0-144.976-35.328-189.68-90.688
		c41.808,33.808,95.024,53.984,152.976,53.984c134.544,0,243.664-109.04,243.664-243.664c0-57.952-20.176-111.168-53.984-152.976
		C464.262,123.371,499.67,191.755,499.67,268.348z"/>
	<circle style="fill:#F4C534;" cx="159.654" cy="222.491" r="87.232"/>
</g>
<path style="fill:#FFFFFF;" d="M234.326,222.507c-2.304,41.488-37.568,75.104-78.8,75.104s-72.912-33.616-70.608-75.104
	s37.712-75.248,78.944-75.248S236.63,181.019,234.326,222.507z"/>
<g>
	<path style="fill:#3E4347;" d="M160.006,94.091c0,0-49.504-6.96-101.488,53.216C58.534,147.307,92.134,39.531,160.006,94.091z"/>
	<path style="fill:#3E4347;" d="M352.006,94.091c0,0,49.504-6.96,101.488,53.216C453.478,147.307,419.878,39.531,352.006,94.091z"/>
</g>
<path style="fill:#7A5B44;" d="M290.23,318.556c0,12.192-13.824,22.752-23.84,28.752c-6.56,3.824-14.192,3.824-20.752,0
	c-9.824-6-23.84-16.56-23.84-28.752c0-18.928,15.472-20.928,34.208-20.928C274.934,297.628,290.23,299.628,290.23,318.556z"/>
<path style="fill:#6B503B;" d="M290.23,318.556c0,12.192-13.824,22.752-23.84,28.752c-6.56,3.824-14.192,3.824-20.752,0
	c-6-3.648-13.84-9.104-18.752-15.664c2.912,2.192,5.824,4,8.368,5.648c7.456,4.368,16.192,4.368,23.664,0
	c11.28-6.72,26.576-18.56,27.12-32.032C288.774,308.363,290.23,312.732,290.23,318.556z"/>
<g>
	<path style="fill:#3E4347;" d="M334.934,373.243c19.52,4.256,61.504,18.896,95.6,40.864c40.128,25.68,56.16,46.192,73.808,71.712
		c-18.88-25.184-35.536-44.608-75.872-68.304c-33.376-19.712-75.12-32.912-95.168-36.448c-2.176-0.384-3.632-2.464-3.248-4.64
		c0.384-2.176,2.464-3.632,4.64-3.248c0.048,0,0.096,0.016,0.144,0.032L334.934,373.243z"/>
	<path style="fill:#3E4347;" d="M382.374,369.164c16,2.8,42.24,12.08,65.136,25.792c24,14.016,38.656,28.864,52.768,44.864
		c-15.344-15.504-30.48-29.024-54.704-41.376c-22.928-11.984-49.072-19.648-64.4-21.376c-2.192-0.256-3.776-2.224-3.52-4.416
		c0.256-2.208,2.224-3.776,4.432-3.536C382.15,369.116,382.294,369.147,382.374,369.164z"/>
	<path style="fill:#3E4347;" d="M366.598,352.251c19.008-2.016,50.176,2.48,79.456,15.712c26.032,11.728,44.8,27.376,64.64,47.2
		c-20.608-18.64-40.128-33.296-66.208-43.52c-30.336-11.92-60.752-14.064-76.912-11.456c-2.176,0.352-4.24-1.136-4.592-3.312
		c-0.352-2.192,1.136-4.24,3.312-4.592C366.374,352.284,366.534,352.268,366.598,352.251z"/>
	<path style="fill:#3E4347;" d="M177.078,373.243c-19.52,4.256-61.488,18.896-95.6,40.864C41.35,439.788,25.334,460.3,7.67,485.82
		c18.864-25.184,35.536-44.608,75.872-68.304c33.376-19.712,75.12-32.912,95.168-36.448c2.176-0.384,3.632-2.464,3.248-4.64
		c-0.384-2.176-2.464-3.632-4.64-3.248c-0.048,0-0.096,0.016-0.144,0.032L177.078,373.243z"/>
	<path style="fill:#3E4347;" d="M129.638,369.164c-16,2.8-42.24,12.08-65.136,25.792c-24,14.016-38.656,28.864-52.768,44.864
		c15.344-15.504,30.496-29.024,54.704-41.376c22.928-11.984,49.072-19.648,64.4-21.376c2.192-0.256,3.776-2.224,3.52-4.416
		c-0.24-2.208-2.224-3.776-4.432-3.536C129.862,369.116,129.718,369.147,129.638,369.164z"/>
	<path style="fill:#3E4347;" d="M145.414,352.251c-18.992-2.016-50.176,2.48-79.456,15.712c-26.032,11.728-44.8,27.376-64.64,47.2
		c20.608-18.64,40.128-33.296,66.208-43.52c30.336-11.92,60.752-14.064,76.912-11.456c2.176,0.352,4.24-1.136,4.592-3.312
		c0.352-2.192-1.136-4.24-3.312-4.592C145.638,352.284,145.478,352.268,145.414,352.251z"/>
	<path style="fill:#3E4347;" d="M195.014,222.443c0.08,19.552-15.84,35.472-35.392,35.392c-19.552,0.08-35.472-15.84-35.392-35.392
		c-0.08-19.552,15.84-35.472,35.392-35.392C179.158,186.971,195.094,202.891,195.014,222.443z"/>
</g>
<ellipse transform="matrix(-0.7071 -0.7071 0.7071 -0.7071 146.5334 479.623)" style="fill:#FFFFFF;" cx="172.6" cy="209.463" rx="10.56" ry="6.784"/>
<circle style="fill:#F4C534;" cx="352.486" cy="222.491" r="87.232"/>
<path style="fill:#FFFFFF;" d="M427.094,222.507c-2.304,41.488-37.568,75.104-78.8,75.104s-72.912-33.616-70.608-75.104
	s37.712-75.248,78.944-75.248S429.398,181.019,427.094,222.507z"/>
<path style="fill:#3E4347;" d="M387.782,222.443c0.08,19.552-15.84,35.472-35.392,35.392c-19.552,0.08-35.472-15.84-35.392-35.392
	c-0.08-19.552,15.84-35.472,35.392-35.392C371.942,186.971,387.862,202.891,387.782,222.443z"/>
<ellipse transform="matrix(-0.7071 -0.7071 0.7071 -0.7071 475.5984 615.8896)" style="fill:#FFFFFF;" cx="365.354" cy="209.445" rx="10.56" ry="6.784"/>
<path style="fill:#3E4347;" d="M308.198,411.932c0,28.96-23.36,52.32-52.16,52.32c-28.96,0-52.32-23.36-52.32-52.32
	c0-28.8,23.36-52.16,52.32-52.16C284.838,359.772,308.198,383.132,308.198,411.932z"/>
<path style="fill:#E24B4B;" d="M212.406,440.78c9.344,14.144,25.36,23.472,43.632,23.472c18.672,0,34.928-9.904,44.144-24.688
	c-7.968-16.736-30.32-23.744-46.272-10.8C239.126,420.012,220.31,426.46,212.406,440.78z"/>
<g>
</g>
<g>
</g>
<g>
</g>
<g>
</g>
<g>
</g>
<g>
</g>
<g>
</g>
<g>
</g>
<g>
</g>
<g>
</g>
<g>
</g>
<g>
</g>
<g>
</g>
<g>
</g>
<g>
</g>
</svg>
