<?xml version="1.0" encoding="iso-8859-1"?>
<!-- Generator: Adobe Illustrator 22.0.0, SVG Export Plug-In . SVG Version: 6.00 Build 0)  -->
<svg xmlns="http://www.w3.org/2000/svg" xmlns:xlink="http://www.w3.org/1999/xlink" version="1.1" id="Layer_1" x="0px" y="0px" viewBox="0 0 58 55.995" style="enable-background:new 0 0 58 55.995;" xml:space="preserve" width="512" height="512">
<g id="_x33_9-Suit">
	<g>
		<path style="fill:#D3A87D;" d="M12.075,21.043C10.345,21.255,9,22.713,9,24.5c0,1.933,1.567,3.5,3.5,3.5h0.667    c-0.176-0.68,1.961-2.351,1.833-3.004c-0.207-1.06,0.106-2.073,0-3C14.919,21.289,12.114,21.633,12.075,21.043z"/>
		<path style="fill:#D3A87D;" d="M45.925,21.043c-0.02,0.301-4.331,0.619-4.36,0.953c-0.106,1.178-0.28,2.544-0.565,4    c-0.128,0.653,4.009,1.324,3.833,2.004H45.5c1.933,0,3.5-1.567,3.5-3.5C49,22.713,47.655,21.255,45.925,21.043z"/>
	</g>
	<path style="fill:#366DB6;" d="M43.63,40.937l-4.609-2.502H18.979l-4.609,2.502C6.374,44.892,0,46.209,0,51.437v4.558h29h29v-4.558   C58,46.209,51.625,44.891,43.63,40.937z"/>
	<path style="fill:#CCD2D6;" d="M35.975,40.491c-3.343,4.676-10.712,4.669-13.95,0c-1.133-0.555-2.132-1.249-3.025-2.037v17.541h10   h10V38.454C38.107,39.241,37.108,39.936,35.975,40.491z"/>
	<polygon style="fill:#1F436D;" points="11,50.995 15,55.995 19,55.995 19,38.995  "/>
	<polygon style="fill:#1F436D;" points="47,50.995 43,55.995 39,55.995 39,38.995  "/>
	<path style="fill:#DD352E;" d="M29,47.996c-0.968,0-1.898,2.901-2.783,2.73L25,55.995h8l-1.217-5.269   C30.898,50.897,29.968,47.996,29,47.996z"/>
	<path style="fill:#B02721;" d="M29,43.995l-3.67,2.202L25,50.441c1.228,0.356,2.578,0.554,4,0.554c1.423,0,2.772-0.198,4-0.554   l-0.33-4.244L29,43.995z"/>
	<path style="fill:#E7ECED;" d="M33.059,38.995c-1.663,2.326-1.407,4.987-4.059,4.998v0.002l10,6v-8v-1.487v-1.513v-0.541   C38.107,39.241,34.192,38.44,33.059,38.995z"/>
	<path style="fill:#E7ECED;" d="M22.875,39.001c-1.133-0.555-2.982,0.241-3.875-0.547v0.541v1.513v1.487v8l10-6v-0.002   C28,41.875,24.502,41.347,22.875,39.001z"/>
	<path style="fill:#FBCE9D;" d="M45.103,25.981c0.676-4.179-0.276-9.255-1.514-13.304c-1.111-3.632-5.142-9.208-9.103-10.367   C30.982,1.285,23.61,1.985,20.698,3.747c-4.896,2.962-6.931,7.82-7.755,13.146c0.305,1.579-0.009,3.057-0.014,4.658   c-0.006,1.814,0.05,3.626,0.027,5.445c0,0.027-0.007,0.05-0.009,0.077c1.142,5.014,3.633,10.753,9.078,13.418   c3.238,4.669,10.607,4.676,13.95,0c5.573-2.728,8.058-8.68,9.162-13.776C45.077,26.492,45.06,26.247,45.103,25.981z"/>
	<path style="fill:#EA6248;" d="M45.991,18.001C45.991,0.005,30.994,0,28.995,0c-0.002,0-0.004,0-0.006,0s-0.004,0-0.006,0   c-2,0-16.996,0.005-16.996,18.001c0,0-0.225,5.546,1.535,11.306c0.28-0.937,0.467-2.311,0.467-4.306c0,0,0-10,3-12   c1.245-0.83,3.525-0.82,5.761-0.479c4.188,0.639,8.385,0.638,12.479,0c2.235-0.348,4.516-0.351,5.761,0.479c3,2,3,12,3,12   c0,1.996,0.187,3.369,0.467,4.306C46.216,23.547,45.991,18.001,45.991,18.001z"/>
	<path style="fill:#C44939;" d="M25,20.001c-0.22,0-0.441-0.072-0.626-0.221c-1.286-1.035-3.46-1.035-4.746,0   c-0.431,0.346-1.06,0.277-1.406-0.152c-0.346-0.431-0.278-1.06,0.152-1.406c2.034-1.637,5.22-1.637,7.254,0   c0.43,0.347,0.499,0.976,0.152,1.406C25.582,19.873,25.292,20.001,25,20.001z"/>
	<path style="fill:#C44939;" d="M39,20.001c-0.22,0-0.441-0.072-0.626-0.221c-1.286-1.035-3.46-1.035-4.746,0   c-0.431,0.346-1.06,0.277-1.406-0.152c-0.346-0.431-0.278-1.06,0.152-1.406c2.034-1.637,5.22-1.637,7.254,0   c0.43,0.347,0.499,0.976,0.152,1.406C39.582,19.873,39.292,20.001,39,20.001z"/>
	<path style="fill:#6C4127;" d="M22.027,25.001c-1.086,0-2.059-0.496-2.739-1.397c-0.131-0.174-0.202-0.386-0.202-0.603   c0-1.103,0.897-2,2-2c0.552,0,1,0.447,1,1c0,0.398-0.233,0.743-0.571,0.903c0.291,0.118,0.631,0.162,0.982-0.044   c0.478-0.275,1.09-0.114,1.367,0.363s0.115,1.089-0.362,1.367C23.033,24.863,22.537,25.001,22.027,25.001z"/>
	<path style="fill:#6C4127;" d="M36,25.001c-1.086,0-2.059-0.496-2.739-1.397c-0.131-0.174-0.202-0.386-0.202-0.603   c0-1.103,0.897-2,2-2c0.552,0,1,0.447,1,1c0,0.398-0.233,0.743-0.571,0.903c0.291,0.118,0.631,0.162,0.982-0.044   c0.478-0.275,1.09-0.114,1.367,0.363s0.115,1.089-0.362,1.367C37.006,24.863,36.51,25.001,36,25.001z"/>
	<path style="fill:#D3A87D;" d="M29,30.001c-0.552,0-1-0.447-1-1s0.448-1,1-1c0.551,0,1-0.448,1-1c0-0.322-0.149-0.617-0.409-0.808   C28.58,25.451,28,24.383,28,23.262V23c0-0.553,0.448-1,1-1s1,0.447,1,1v0.262c0,0.653,0.484,1.106,0.773,1.317   C31.541,25.142,32,26.047,32,27.001C32,28.655,30.654,30.001,29,30.001z"/>
	<path style="fill:#D3A87D;" d="M30,40.001h-2c-0.552,0-1-0.447-1-1s0.448-1,1-1h2c0.552,0,1,0.447,1,1S30.552,40.001,30,40.001z"/>
	<path style="fill:#EA6248;" d="M32,37.001h-6c-0.552,0-1-0.447-1-1s0.448-1,1-1h6c0.552,0,1,0.447,1,1S32.552,37.001,32,37.001z"/>
</g>

</svg>
