<?xml version="1.0" encoding="iso-8859-1"?>
<!-- Generator: Adobe Illustrator 19.0.0, SVG Export Plug-In . SVG Version: 6.00 Build 0)  -->
<svg version="1.1" id="Capa_1" xmlns="http://www.w3.org/2000/svg" xmlns:xlink="http://www.w3.org/1999/xlink" x="0px" y="0px"
	 viewBox="0 0 512 512" style="enable-background:new 0 0 512 512;" xml:space="preserve">
<g>
	<path style="fill:#FFD93B;" d="M227.136,100.231C161.36,55.047,99.872,16.679,52.912,1.383
		c-11.808-3.728-23.616,5.12-23.616,17.392v247.168l197.84-63.984V100.231z"/>
	<path style="fill:#FFD93B;" d="M284.928,100.231c65.792-45.168,127.28-83.536,174.224-98.848
		c11.808-3.728,23.616,5.136,23.616,17.408v247.168l-197.84-63.984V100.231z"/>
</g>
<g>
	<path style="fill:#F4C534;" d="M143.872,91.447C113.2,71.527,84.944,55.463,61.808,47.511v118.368
		C85.04,136.471,113.216,110.631,143.872,91.447z"/>
	<path style="fill:#F4C534;" d="M415.632,138.919c11.92,10.384,24.4,21.552,34.56,34.256V47.511
		c-24.56,8.448-54.912,26.08-87.792,47.696C381.424,107.927,398.288,123.815,415.632,138.919z"/>
</g>
<circle style="fill:#FFD93B;" cx="256" cy="250.679" r="227.152"/>
<path style="fill:#F4C534;" d="M483.152,250.679c0,125.504-101.728,227.152-227.152,227.152
	c-71.408,0-135.168-32.944-176.832-84.544c38.976,31.52,88.592,50.336,142.608,50.336c125.44,0,227.168-101.648,227.168-227.152
	c0-54.016-18.816-103.632-50.336-142.608C450.144,115.527,483.152,179.271,483.152,250.679z"/>
<path style="fill:#7A5B44;" d="M284.048,309.815c0,10-11.328,18.64-19.536,23.568c-5.376,3.136-11.632,3.136-17.008,0
	c-8.048-4.928-19.536-13.568-19.536-23.568c0-15.52,12.672-17.152,28.048-17.152C271.52,292.663,284.048,294.295,284.048,309.815z"
	/>
<path style="fill:#6B503B;" d="M284.048,309.815c0,10-11.328,18.64-19.536,23.568c-5.376,3.136-11.632,3.136-17.008,0
	c-4.928-2.992-11.344-7.456-15.36-12.832c2.384,1.792,4.768,3.28,6.864,4.624c6.112,3.584,13.28,3.584,19.392,0
	c9.248-5.52,21.776-15.216,22.224-26.256C282.848,301.463,284.048,305.047,284.048,309.815z"/>
<g>
	<path style="fill:#3E4347;" d="M148,410.455c10.8-27.024,33.36-44.688,60-54.224c31.904-11.408,65.472-10.864,95.936-0.016
		c26.656,9.504,49.264,27.328,60.016,54.224c-14.592-18.512-40.304-32.288-64.912-38.72c-24.144-6.896-60.496-7.36-86.16-0.032
		C182.736,379.543,159.584,395.591,148,410.455z"/>
	<path style="fill:#3E4347;" d="M369.184,365.991c0,0,11.712,3.968,26.56,13.648c54.16,33.84,70.192,79.952,77.024,131.84
		c-8.368-46.544-23.536-93.52-80.768-125.68c-14.832-8.656-25.504-11.696-25.504-11.696c-2.272-0.64-3.584-3.008-2.944-5.28
		s3.008-3.584,5.28-2.944c0.064,0.016,0.128,0.048,0.192,0.064L369.184,365.991z"/>
	<path style="fill:#3E4347;" d="M369.344,342.071c32.24,3.952,72.496,26.48,102.336,72.8c-32.176-43.28-72.96-62.784-103.168-64.288
		c-2.352-0.112-4.176-2.128-4.064-4.48c0.112-2.368,2.128-4.176,4.48-4.064c0.096,0,0.192,0.016,0.288,0.032L369.344,342.071z"/>
	<path style="fill:#3E4347;" d="M399.952,332.039c9.392,0.592,14.88,0.8,24.592,2.688c17.008,2.832,36.704,11.232,49.152,22.8
		c20.56,17.664,30.48,42.208,38.304,67.328c-8.592-23.504-19.344-47.872-40.688-64.464c-14.864-12.24-33.728-17.696-47.792-19.456
		c-9.568-1.344-14.496-1.296-23.872-1.44c-2.064-0.032-3.712-1.728-3.68-3.776c0.032-2.064,1.728-3.712,3.776-3.68
		C399.824,332.039,399.888,332.039,399.952,332.039z"/>
	<path style="fill:#3E4347;" d="M142.816,365.991c0,0-11.712,3.968-26.56,13.648c-54.16,33.84-70.192,79.952-77.024,131.84
		c8.368-46.544,23.536-93.52,80.768-125.68c14.832-8.656,25.504-11.696,25.504-11.696c2.272-0.64,3.584-3.008,2.944-5.28
		s-3.008-3.584-5.28-2.944c-0.064,0.016-0.128,0.048-0.192,0.064L142.816,365.991z"/>
	<path style="fill:#3E4347;" d="M142.656,342.071c-32.24,3.952-72.496,26.48-102.336,72.8c32.176-43.28,72.96-62.784,103.168-64.288
		c2.352-0.112,4.176-2.128,4.064-4.48c-0.112-2.368-2.128-4.176-4.48-4.064c-0.096,0-0.192,0.016-0.304,0.032L142.656,342.071z"/>
	<path style="fill:#3E4347;" d="M112.048,332.039c-9.392,0.592-14.88,0.8-24.592,2.688c-16.88,2.8-36.608,11.136-49.152,22.8
		C17.744,375.191,7.824,399.735,0,424.855c8.592-23.504,19.344-47.872,40.688-64.464c14.864-12.24,33.728-17.696,47.792-19.456
		c9.568-1.344,14.496-1.296,23.872-1.44c2.064-0.032,3.712-1.728,3.68-3.776c-0.032-2.064-1.728-3.712-3.792-3.68
		C112.192,332.039,112.112,332.039,112.048,332.039z"/>
	<path style="fill:#3E4347;" d="M234.288,165.847c0,0-4.528-18.48-82.688-53.424C151.6,112.407,256.08,107.783,234.288,165.847z"/>
	<path style="fill:#3E4347;" d="M277.712,165.847c0,0,4.528-18.48,82.688-53.424C360.4,112.407,255.92,107.783,277.712,165.847z"/>
</g>
<circle style="fill:#F4C534;" cx="354.4" cy="230.055" r="83.888"/>
<path style="fill:#FFFFFF;" d="M418.24,254.663c-14.8,38.16-62.832,59.872-108.384,29.28c-4.608-3.12-8.56-7.408-11.52-12.176
	c-27.472-45.392-5.6-91.936,32.4-105.76c2.464-0.832,5.424-0.496,7.728,1.152c29.6,19.904,55.92,46.048,78.624,79.44
	C418.736,248.903,419.216,252.039,418.24,254.663z"/>
<ellipse style="fill:#3E4347;" cx="354.393" cy="230.058" rx="31.52" ry="31.52"/>
<path style="fill:#FFFFFF;" d="M361.968,211.015c-2.016,2.096-1.2,6.368,2.128,9.552c3.2,3.072,7.616,3.856,9.632,1.76
	c2.176-2.256,1.216-6.64-1.968-9.728C368.432,209.399,364.016,208.631,361.968,211.015z"/>
<circle style="fill:#F4C534;" cx="157.664" cy="230.055" r="83.888"/>
<path style="fill:#FFFFFF;" d="M93.76,254.663c14.8,38.16,62.832,59.872,108.384,29.28c4.608-3.12,8.56-7.408,11.52-12.176
	c27.472-45.392,5.6-91.936-32.4-105.76c-2.464-0.832-5.424-0.496-7.728,1.152c-29.6,19.904-55.92,46.048-78.624,79.44
	C93.264,248.903,92.784,252.039,93.76,254.663z"/>
<ellipse style="fill:#3E4347;" cx="157.593" cy="230.08" rx="31.52" ry="31.52"/>
<path style="fill:#FFFFFF;" d="M150.032,211.015c2.016,2.096,1.2,6.368-2.128,9.552c-3.2,3.072-7.616,3.856-9.632,1.76
	c-2.176-2.256-1.216-6.64,1.968-9.728C143.568,209.399,147.984,208.631,150.032,211.015z"/>
<g>
</g>
<g>
</g>
<g>
</g>
<g>
</g>
<g>
</g>
<g>
</g>
<g>
</g>
<g>
</g>
<g>
</g>
<g>
</g>
<g>
</g>
<g>
</g>
<g>
</g>
<g>
</g>
<g>
</g>
</svg>
