<?xml version="1.0" encoding="iso-8859-1"?>
<!-- Generator: Adobe Illustrator 22.0.0, SVG Export Plug-In . SVG Version: 6.00 Build 0)  -->
<svg xmlns="http://www.w3.org/2000/svg" xmlns:xlink="http://www.w3.org/1999/xlink" version="1.1" x="0px" y="0px" viewBox="0 0 57.059 58" style="enable-background:new 0 0 57.059 58;" xml:space="preserve" width="512" height="512">
<g id="_x34_-Hoodie">
	<path style="fill:#366DB6;" d="M50,51.703V47h-5v1.223l-26-0.018V47h-6l-3,4.765C7.196,53.645,4.183,55.731,3.059,58h54   C55.922,55.706,52.837,53.599,50,51.703z"/>
	<path style="fill:#B02721;" d="M13,18H1c-0.552,0-1-0.448-1-1s0.448-1,1-1h12c0.552,0,1,0.448,1,1S13.552,18,13,18z"/>
	<path style="fill:#EDB883;" d="M34.406,50.78v-0.003c0-0.51,0.224-0.984,0.594-1.325C33.838,49.804,31.294,47,30.078,47h-0.039   c-1.216,0-3.471,2.804-4.633,2.452C25.776,49.793,26,50.266,26,50.777c0,0.707,0.659,1.301,0.091,1.603   C27.289,52.773,28.632,55,30.059,55c1.425,0,2.767-2.227,3.965-2.62C33.457,52.078,34.406,51.485,34.406,50.78z"/>
	<path style="fill:#1F436D;" d="M46.059,36.067c-0.118,0.364-13.197,9.144-15.733,12.605c0.239,0.129,0.488,0.24,0.739,0.346   c0.091-0.075,0.201-0.128,0.323-0.167c0.009-0.009,0.01-0.019,0.019-0.028c0.014-0.014,0.028-0.028,0.042-0.042   c0.126-0.127,0.263-0.192,0.4-0.234c0.076-0.125,0.18-0.232,0.312-0.308c0.111-0.187,0.28-0.338,0.518-0.401   c0.13-0.073,0.278-0.126,0.463-0.126c1.043,0,1.193,1.357,0.474,1.781c-0.345,0.338-0.557,0.792-0.557,1.283v0.003   c0,1.148,1.052,2.008,2.177,1.778c1.012-0.207,2.19-0.462,3.12-0.707c0.447-0.125,0.777-0.22,0.911-0.264   c2.222-0.738,4.268-1.894,6.062-3.364c0.147,0.153,0.313,0.308,0.49,0.465c0.056,0.05,0.117,0.1,0.175,0.151   c0.129,0.111,0.263,0.222,0.404,0.335c0.069,0.055,0.139,0.11,0.21,0.166c0.152,0.118,0.31,0.236,0.472,0.356   c0.062,0.046,0.122,0.091,0.185,0.137c0.474,0.344,0.986,0.696,1.521,1.057c0.031,0.021,0.062,0.042,0.093,0.062   c0.366,0.246,0.742,0.497,1.122,0.751C52.747,48.432,49.634,40.771,46.059,36.067z"/>
	<path style="fill:#1F436D;" d="M26.465,49.468c-0.24-0.301-0.269-0.781-0.084-1.097c0.281-0.481,0.838-0.553,1.311-0.344   c0.141,0.063,0.549,0.091,0.304,0.208c0.042-0.02,0.088-0.024,0.132-0.039C25.137,44.788,14.35,37.151,14,36.067   c-3.576,4.704-6.689,12.365-3.941,15.636c0.38-0.254,0.756-0.505,1.122-0.751c0.031-0.021,0.062-0.042,0.093-0.062   c0.535-0.361,1.047-0.713,1.521-1.057c0.063-0.046,0.123-0.091,0.185-0.137c0.163-0.12,0.32-0.239,0.472-0.356   c0.072-0.055,0.141-0.111,0.21-0.166c0.141-0.113,0.275-0.224,0.404-0.335c0.059-0.05,0.119-0.101,0.175-0.151   c0.176-0.157,0.343-0.312,0.49-0.465c1.794,1.469,3.84,2.626,6.062,3.364c0.133,0.044,0.464,0.139,0.911,0.264   c0.929,0.244,2.108,0.5,3.12,0.707C25.948,52.788,27,51.928,27,50.78v-0.003c0-0.51-0.224-0.984-0.594-1.325   C26.428,49.458,26.444,49.462,26.465,49.468z"/>
	<path style="fill:#D3A87D;" d="M9.01,27c0-2.206,1.786-3.993,3.99-3.999V23h3v8h-3v-0.001C10.796,30.993,9.01,29.206,9.01,27z"/>
	<path style="fill:#D3A87D;" d="M51,27c0-2.206-1.786-3.993-3.99-3.999V23h-3v8h3v-0.001C49.214,30.993,51,29.206,51,27z"/>
	<path style="fill:#FBCE9D;" d="M13,25v3v2c0,9.615,7.991,20,16.981,20h0.039C39.009,50,47,39.615,47,30v-1V15H13V25z"/>
	<path style="fill:#E7ECED;" d="M23.059,56c-0.552,0-1-0.448-1-1v-4c0-0.552,0.448-1,1-1s1,0.448,1,1v4   C24.059,55.552,23.611,56,23.059,56z"/>
	<path style="fill:#E7ECED;" d="M37.059,56c-0.552,0-1-0.448-1-1v-4c0-0.552,0.448-1,1-1s1,0.448,1,1v4   C38.059,55.552,37.611,56,37.059,56z"/>
	<path style="fill:#EA6248;" d="M34.06,42.444c-0.059,0-0.118-0.005-0.177-0.016c-0.739-0.132-1.792-0.537-2.532-1.277   c-0.111-0.11-0.28-0.281-0.598,0.013c-0.395,0.364-1.022,0.367-1.402-0.013c-0.304-0.281-0.473-0.112-0.585,0   c-0.74,0.74-1.793,1.146-2.531,1.277c-0.545,0.097-1.063-0.265-1.16-0.809c-0.097-0.543,0.265-1.063,0.808-1.16   c0.438-0.078,1.085-0.338,1.469-0.723c0.675-0.675,1.549-0.9,2.398-0.617c0.108,0.036,0.21,0.079,0.303,0.124   c0.759-0.365,1.795-0.423,2.712,0.493c0.385,0.385,1.031,0.645,1.469,0.723c0.544,0.097,0.906,0.617,0.808,1.16   C34.957,42.104,34.535,42.444,34.06,42.444z"/>
	<path style="fill:#D3A87D;" d="M29,36.614c-0.552,0-1-0.448-1-1s0.448-1,1-1c0.552,0,1-0.449,1-1c0-0.322-0.149-0.617-0.41-0.808   c-0.445-0.326-0.542-0.952-0.216-1.397c0.326-0.446,0.952-0.542,1.398-0.216C31.541,31.756,32,32.662,32,33.614   C32,35.269,30.654,36.614,29,36.614z"/>
	<path style="fill:#D3A87D;" d="M31.059,46h-2c-0.552,0-1-0.448-1-1s0.448-1,1-1h2c0.552,0,1,0.448,1,1S31.611,46,31.059,46z"/>
	<g>
		<path style="fill:#556080;" d="M13,23.06c0,2.448,0.19,9.381,4.857,9.841C29.089,34.009,30,25.507,30,23.06    C24.733,20.313,18.267,20.313,13,23.06z"/>
	</g>
	<path style="fill:#556080;" d="M30,23.06c0,2.448,0.911,10.949,12.143,9.841C46.81,32.441,47,25.507,47,23.06   C41.733,20.313,35.267,20.313,30,23.06z"/>
	<path style="fill:#7383BF;" d="M24.185,21.249l-7.113,6.775c-0.4,0.381-0.415,1.014-0.034,1.414c0.197,0.206,0.46,0.31,0.724,0.31   c0.248,0,0.496-0.091,0.689-0.276l8.102-7.717C25.775,21.539,24.984,21.372,24.185,21.249z"/>
	<path style="fill:#7383BF;" d="M17.124,23.256l-3.846,3.684c0.122,0.751,0.302,1.513,0.556,2.237l4.674-4.477   c0.399-0.382,0.413-1.015,0.031-1.414S17.523,22.874,17.124,23.256z"/>
	<path style="fill:#DD352E;" d="M34.091,0h-8.182C18.227,0,12,6.573,12,14.682V17h12.447h15.256H48v-2.318   C48,6.573,41.773,0,34.091,0z"/>
	<path style="fill:#EBBA16;" d="M42,15H26v-3c0-2.209,1.791-4,4-4h8c2.209,0,4,1.791,4,4V15z"/>
	<rect x="26" y="13" style="fill:#B02721;" width="16" height="4"/>
	<polygon style="fill:#EBBA16;" points="31.559,17 43,25 42.059,17  "/>
</g>

</svg>
