<?xml version="1.0" encoding="iso-8859-1"?>
<!-- Generator: Adobe Illustrator 22.0.0, SVG Export Plug-In . SVG Version: 6.00 Build 0)  -->
<svg xmlns="http://www.w3.org/2000/svg" xmlns:xlink="http://www.w3.org/1999/xlink" version="1.1" x="0px" y="0px" viewBox="0 0 58 58" style="enable-background:new 0 0 58 58;" xml:space="preserve" width="512" height="512">
<g id="_x34_0-Hairy">
	<path style="fill:#D3A87D;" d="M18,28.014V20.73c0-0.913-0.065-1.822-0.161-2.729c-0.184,0.001-3.312,0.002-3.339,0.002   c-1.933,0-3.5,2.239-3.5,5s1.567,5,3.5,5C14.565,28.003,17.755,28.008,18,28.014z"/>
	<path style="fill:#D3A87D;" d="M43.5,18.003c-0.035,0-1.228-0.001-1.5-0.003v10.014c0.245-0.006,1.435-0.011,1.5-0.011   c1.933,0,3.5-2.239,3.5-5S45.433,18.003,43.5,18.003z"/>
	<path style="fill:#E7ECED;" d="M43.63,42.942l-2.409-1.308l-24.476,0.019l-2.375,1.289C6.374,46.896,0,48.213,0,53.442V58h29h29   v-4.558C58,48.213,51.625,46.896,43.63,42.942z"/>
	<path style="fill:#BE6E41;" d="M44.084,30.72C43.528,30.067,43,28.898,43,28.041V17.533c0-0.706,0.244-1.417,0.766-1.892   C44.56,14.917,45,13.874,45,12.713c0-1.631-1.057-3.011-2.553-3.618c0.622-0.771,0.989-1.709,0.989-2.722   c0-2.626-2.45-4.755-5.474-4.755c-1.426,0-2.721,0.478-3.696,1.255c-2.07-1.742-4.976-2.84-8.214-2.84   c0,0-7.639-0.793-11.549,5.548c0,0,4.692-1.585,7.038-0.793c0,0-7.82,1.585-7.82,6.34l0.898,5.184   C14.873,17.771,15,19.249,15,20.73L15,29c0,0.497-0.238,0.96-0.629,1.267C13.443,30.992,13,32.085,13,33.319   c0,0.878,0.308,1.684,0.824,2.338c0.682,0.863,1.272,1.79,1.602,2.819c0.061,0.189,0.099,0.332,0.099,0.391   c0,2.189,1.885,3.963,4.211,3.963c0.571,0,1.114-0.109,1.611-0.303C22.678,44.575,25.6,46,29,46s6.322-1.425,7.652-3.473   c0.711,0.277,1.517,0.382,2.364,0.24c2.033-0.34,3.457-2.098,3.457-4.041v-0.651V37.95c0-0.587,0.334-1.108,0.834-1.459   C44.334,35.769,45,34.618,45,33.319C45,32.323,44.677,31.415,44.084,30.72z"/>
	<path style="fill:#FBCE9D;" d="M37.231,11.669c-2.271,1.568-6.585,2.629-11.543,2.629c-3.135,0-5.42-0.426-7.688-1.134v10.687   c0,1.334-0.158,2.643,0.662,3.786l2.108,2.939c0.65,0.907,1.936,1.347,3.158,1.08l1.006-0.219c2.679-0.583,5.458-0.584,8.131,0   l1.006,0.219c1.222,0.266,2.508-0.174,3.158-1.08l2.108-2.939C40.158,26.494,40,25.185,40,23.851v-8.073   C38.395,14.767,37.788,13.332,37.231,11.669z"/>
	<path style="fill:#CB465F;" d="M29,51.269c-0.968,0-1.898-0.098-2.783-0.269L25,58h8l-1.217-7   C30.898,51.17,29.968,51.269,29,51.269z"/>
	<path style="fill:#9B344A;" d="M29,46l-3.67,2.202L25,52.445C26.228,52.801,27.578,53,29,53c1.423,0,2.772-0.198,4-0.554   l-0.33-4.244L29,46z"/>
	<path style="fill:#6C4127;" d="M25.409,19.274c-0.239,0-0.479-0.085-0.67-0.259L23.615,18H21c-0.552,0-1-0.447-1-1s0.448-1,1-1h3   c0.248,0,0.487,0.092,0.671,0.259l1.409,1.274c0.41,0.37,0.441,1.002,0.071,1.412C25.954,19.163,25.682,19.274,25.409,19.274z"/>
	<path style="fill:#D3A87D;" d="M29.209,28h-0.418c-0.717,0-1.409-0.287-2.056-0.854C26.719,27.131,26.553,27,26,27   c-0.552,0-1-0.447-1-1s0.448-1,1-1c0.875,0,1.566,0.216,2.053,0.641C28.24,25.804,28.52,26,28.791,26h0.418   c0.271,0,0.551-0.195,0.737-0.358C30.434,25.215,31.125,25,32,25c0.552,0,1,0.447,1,1s-0.448,1-1,1   c-0.553,0-0.719,0.132-0.736,0.146C30.618,27.712,29.926,28,29.209,28z"/>
	<path style="fill:#96512F;" d="M32.864,7.373c-0.552,0-1-0.447-1-1c0-3.174,2.875-5.756,6.409-5.756c0.552,0,1,0.447,1,1   s-0.448,1-1,1c-2.431,0-4.409,1.685-4.409,3.756C33.864,6.925,33.416,7.373,32.864,7.373z"/>
	<path style="fill:#28384C;" d="M23.027,23c-1.087,0-2.061-0.497-2.739-1.398c-0.13-0.174-0.201-0.385-0.201-0.602   c0-1.103,0.897-2,2-2c0.552,0,1,0.447,1,1c0,0.398-0.233,0.743-0.571,0.903c0.292,0.118,0.635,0.159,0.982-0.042   c0.478-0.278,1.09-0.115,1.367,0.362s0.115,1.089-0.362,1.367C24.034,22.862,23.538,23,23.027,23z"/>
	<path style="fill:#6C4127;" d="M32.41,19.274c-0.273,0-0.545-0.111-0.742-0.329c-0.371-0.41-0.339-1.042,0.071-1.412l1.409-1.274   C33.332,16.091,33.57,16,33.818,16c0,0,0,0,0,0l3,0.001c0.552,0,1,0.448,1,1c0,0.553-0.448,1-1,1c0,0,0,0,0,0L34.203,18   l-1.123,1.016C32.889,19.189,32.648,19.274,32.41,19.274z"/>
	<path style="fill:#28384C;" d="M36.027,23c-1.087,0-2.061-0.497-2.739-1.398c-0.13-0.174-0.201-0.385-0.201-0.602   c0-1.103,0.897-2,2-2c0.552,0,1,0.447,1,1c0,0.398-0.233,0.743-0.571,0.903c0.292,0.118,0.635,0.159,0.982-0.042   c0.478-0.278,1.09-0.115,1.367,0.362s0.115,1.089-0.362,1.367C37.034,22.862,36.538,23,36.027,23z"/>
	<path style="fill:#96512F;" d="M31,40.999c-0.287,0-0.572-0.123-0.77-0.361c-0.683-0.824-1.778-0.824-2.461,0   c-0.352,0.426-0.983,0.484-1.408,0.131c-0.425-0.353-0.484-0.982-0.131-1.408c0.728-0.878,1.711-1.361,2.77-1.361   s2.042,0.483,2.77,1.361c0.353,0.426,0.294,1.056-0.131,1.408C31.452,40.923,31.226,40.999,31,40.999z"/>
	<path style="fill:#96512F;" d="M32.171,37.001c-0.593,0-1.284-0.183-1.965-0.727C29.978,36.092,29.685,36,29.335,36h-0.671   c-0.35,0-0.643,0.093-0.87,0.274c-1.336,1.068-2.708,0.744-3.309,0.383c-0.474-0.284-0.627-0.898-0.343-1.372   s0.897-0.628,1.372-0.343c0.056,0.027,0.483,0.21,1.031-0.229C27.127,34.247,27.861,34,28.665,34h0.671   c0.804,0,1.537,0.247,2.12,0.714c0.579,0.462,1.025,0.231,1.03,0.229c0.473-0.285,1.088-0.131,1.372,0.343   c0.284,0.474,0.13,1.088-0.343,1.372C33.22,36.833,32.741,37.001,32.171,37.001z"/>
	<path style="fill:#CCD2D6;" d="M36.652,42.527C35.323,44.574,32.401,46,29.001,46L39,52v-8v-1.231   C38.159,42.906,37.358,42.802,36.652,42.527z"/>
	<path style="fill:#CCD2D6;" d="M21.348,42.527c-0.497,0.194-1.04,0.303-1.611,0.303c-0.252,0-0.497-0.03-0.737-0.07V44v8l9.999-6   C25.599,46,22.677,44.574,21.348,42.527z"/>
</g>

</svg>
