<?xml version="1.0" encoding="iso-8859-1"?>
<!-- Generator: Adobe Illustrator 22.0.0, SVG Export Plug-In . SVG Version: 6.00 Build 0)  -->
<svg xmlns="http://www.w3.org/2000/svg" xmlns:xlink="http://www.w3.org/1999/xlink" version="1.1" x="0px" y="0px" viewBox="0 0 58 58" style="enable-background:new 0 0 58 58;" xml:space="preserve" width="512" height="512">
<g id="_x34_1-Bald">
	<rect x="28" y="47" style="fill:#61B872;" width="2" height="11"/>
	<path style="fill:#4EA05C;" d="M58,56c0-6-7.761-6.606-17.368-12.201c-0.016-0.01-0.032-0.021-0.048-0.032   C36,44,35.134,42.837,31,43c-0.231,0.011-1.746,5-1.978,5L29,44v14h29V56z"/>
	<path style="fill:#61B872;" d="M28.978,48c-0.233,0,1.254-3.989,1.022-4c-4.133-0.163-9,0-12.585-0.233   c-0.016,0.01-0.032,0.021-0.048,0.032C7.761,49.394,0,50,0,56v2h29V48H28.978z"/>
	<path style="fill:#D3A87D;" d="M11,29h1v-8h-1c-2.209,0-4,1.791-4,4C7,27.209,8.791,29,11,29z"/>
	<path style="fill:#D3A87D;" d="M47,21h-1v8h1c2.209,0,4-1.791,4-4C51,22.791,49.209,21,47,21z"/>
	<path style="fill:#FBCE9D;" d="M29,48L29,48c-9.941,0-18-8.059-18-18V18c0-9.941,8.059-18,18-18h0c9.941,0,18,8.059,18,18v12   C47,39.941,38.941,48,29,48z"/>
	<path style="fill:#6C4127;" d="M29,5c-0.552,0-1-0.447-1-1V3c0-0.553,0.448-1,1-1s1,0.447,1,1v1C30,4.553,29.552,5,29,5z"/>
	<path style="fill:#6C4127;" d="M31,8c-0.552,0-1-0.447-1-1V6c0-0.553,0.448-1,1-1s1,0.447,1,1v1C32,7.553,31.552,8,31,8z"/>
	<path style="fill:#6C4127;" d="M39,9c-0.552,0-1-0.447-1-1V7c0-0.553,0.448-1,1-1s1,0.447,1,1v1C40,8.553,39.552,9,39,9z"/>
	<path style="fill:#6C4127;" d="M35,7c-0.552,0-1-0.447-1-1V5c0-0.553,0.448-1,1-1s1,0.447,1,1v1C36,6.553,35.552,7,35,7z"/>
	<path style="fill:#6C4127;" d="M36,10h-1c-0.552,0-1-0.447-1-1s0.448-1,1-1h1c0.552,0,1,0.447,1,1S36.552,10,36,10z"/>
	<path style="fill:#6C4127;" d="M29,5c-0.552,0-1-0.447-1-1V3c0-0.553,0.448-1,1-1s1,0.447,1,1v1C30,4.553,29.552,5,29,5z"/>
	<path style="fill:#6C4127;" d="M27,8c-0.552,0-1-0.447-1-1V6c0-0.553,0.448-1,1-1s1,0.447,1,1v1C28,7.553,27.552,8,27,8z"/>
	<path style="fill:#6C4127;" d="M19,9c-0.552,0-1-0.447-1-1V7c0-0.553,0.448-1,1-1s1,0.447,1,1v1C20,8.553,19.552,9,19,9z"/>
	<path style="fill:#6C4127;" d="M23,7c-0.552,0-1-0.447-1-1V5c0-0.553,0.448-1,1-1s1,0.447,1,1v1C24,6.553,23.552,7,23,7z"/>
	<path style="fill:#6C4127;" d="M23,10h-1c-0.552,0-1-0.447-1-1s0.448-1,1-1h1c0.552,0,1,0.447,1,1S23.552,10,23,10z"/>
	<path style="fill:#D3A87D;" d="M29,31c-2.206,0-4-1.477-4-3.291c0-0.985,0.523-1.908,1.435-2.532   c0.456-0.312,1.078-0.194,1.39,0.261c0.312,0.455,0.195,1.078-0.26,1.39C27.354,26.972,27,27.278,27,27.709   C27,28.396,27.935,29,29,29s2-0.604,2-1.291c0-0.315-0.207-0.638-0.566-0.883c-0.456-0.312-0.574-0.934-0.263-1.39   c0.312-0.457,0.933-0.572,1.39-0.263C32.475,25.798,33,26.722,33,27.709C33,29.523,31.206,31,29,31z"/>
	<path style="fill:#D3A87D;" d="M30,42h-2c-0.552,0-1-0.447-1-1s0.448-1,1-1h2c0.552,0,1,0.447,1,1S30.552,42,30,42z"/>
	<path style="fill:#6C4127;" d="M18,21.6c-0.392,0-0.764-0.231-0.924-0.616c-0.212-0.511,0.03-1.096,0.54-1.308   c2.047-0.849,4.637-0.897,6.3-0.118c0.5,0.234,0.715,0.83,0.481,1.33c-0.234,0.499-0.83,0.716-1.33,0.48   c-1.155-0.541-3.168-0.475-4.684,0.155C18.258,21.575,18.128,21.6,18,21.6z"/>
	<path style="fill:#28384C;" d="M21.519,26c-1.088,0-2.061-0.497-2.74-1.399c-0.13-0.173-0.201-0.384-0.201-0.601   c0-1.103,0.897-2,2-2c0.552,0,1,0.447,1,1c0,0.398-0.234,0.743-0.571,0.903c0.291,0.117,0.631,0.161,0.984-0.044   c0.479-0.274,1.09-0.112,1.366,0.366c0.276,0.478,0.113,1.09-0.365,1.366C22.523,25.862,22.027,26,21.519,26z"/>
	<path style="fill:#6C4127;" d="M34.509,21.6c-0.392,0-0.764-0.231-0.924-0.616c-0.212-0.511,0.03-1.096,0.54-1.308   c2.047-0.849,4.637-0.897,6.3-0.118c0.5,0.234,0.715,0.83,0.481,1.33c-0.234,0.499-0.83,0.716-1.33,0.48   c-1.154-0.541-3.168-0.475-4.684,0.155C34.766,21.575,34.636,21.6,34.509,21.6z"/>
	<path style="fill:#28384C;" d="M38.027,26c-1.088,0-2.061-0.497-2.74-1.399c-0.13-0.173-0.201-0.384-0.201-0.601   c0-1.103,0.897-2,2-2c0.552,0,1,0.447,1,1c0,0.398-0.234,0.743-0.571,0.903c0.291,0.117,0.631,0.161,0.984-0.044   c0.479-0.274,1.09-0.112,1.366,0.366c0.276,0.478,0.113,1.09-0.365,1.366C39.031,25.862,38.535,26,38.027,26z"/>
	<path style="fill:#6C4127;" d="M16,36.755c0,0,4.062,4.506,11.375,0.751c0,0,1.625-0.751,1.625-2.253   C29,34.502,28.188,33,26.562,33C24.125,33,20.875,36.755,16,36.755z"/>
	<path style="fill:#6C4127;" d="M42,36.755c0,0-4.062,4.506-11.375,0.751c0,0-1.625-0.751-1.625-2.253   C29,34.502,29.812,33,31.438,33C33.875,33,37.125,36.755,42,36.755z"/>
	<path style="fill:#3D6F44;" d="M40.585,43.767c-2.649,2.231-5.948,3.711-9.575,4.114c1.762,0.878,6.273,3.305,6.95,5.119   l6.555-7.107c-1.232-0.621-2.525-1.304-3.882-2.094C40.616,43.788,40.601,43.777,40.585,43.767z"/>
	<path style="fill:#3D6F44;" d="M17.415,43.767c-0.016,0.01-0.032,0.021-0.048,0.032c-1.357,0.79-2.65,1.474-3.882,2.094L20.04,53   c0.677-1.814,5.189-4.241,6.95-5.119C23.363,47.478,20.064,45.998,17.415,43.767z"/>
</g>

</svg>
