<?xml version="1.0" encoding="iso-8859-1"?>
<!-- Generator: Adobe Illustrator 19.0.0, SVG Export Plug-In . SVG Version: 6.00 Build 0)  -->
<svg version="1.1" id="Capa_1" xmlns="http://www.w3.org/2000/svg" xmlns:xlink="http://www.w3.org/1999/xlink" x="0px" y="0px"
	 viewBox="0 0 512.016 512.016" style="enable-background:new 0 0 512.016 512.016;" xml:space="preserve">
<g>
	<path style="fill:#FFD93B;" d="M227.136,100.239C161.36,55.055,99.872,16.687,52.912,1.391
		c-11.808-3.728-23.616,5.12-23.616,17.392v247.168l197.84-63.984V100.239z"/>
	<path style="fill:#FFD93B;" d="M284.928,100.239c65.776-45.168,127.28-83.536,174.224-98.848
		c11.808-3.728,23.616,5.136,23.616,17.408v247.168l-197.84-63.984V100.239z"/>
</g>
<g>
	<path style="fill:#F4C534;" d="M143.872,91.455C113.2,71.535,84.944,55.471,61.808,47.519v118.368
		C85.04,136.479,113.216,110.639,143.872,91.455z"/>
	<path style="fill:#F4C534;" d="M415.632,138.927c11.92,10.384,24.4,21.552,34.56,34.256V47.519
		c-24.56,8.448-54.912,26.08-87.792,47.696C381.424,107.935,398.288,123.823,415.632,138.927z"/>
</g>
<circle style="fill:#FFD93B;" cx="256" cy="250.687" r="227.152"/>
<path style="fill:#F4C534;" d="M483.152,250.687c0,125.504-101.728,227.152-227.152,227.152
	c-71.408,0-135.168-32.944-176.832-84.544c38.976,31.52,88.592,50.336,142.608,50.336c125.44,0,227.152-101.648,227.152-227.152
	c0-54.016-18.816-103.632-50.336-142.608C450.144,115.535,483.152,179.279,483.152,250.687z"/>
<path style="fill:#7A5B44;" d="M284.048,309.823c0,10-11.328,18.64-19.536,23.568c-5.376,3.136-11.632,3.136-17.008,0
	c-8.048-4.928-19.536-13.568-19.536-23.568c0-15.52,12.672-17.152,28.048-17.152C271.52,292.671,284.048,294.303,284.048,309.823z"
	/>
<path style="fill:#6B503B;" d="M284.048,309.823c0,10-11.328,18.64-19.536,23.568c-5.376,3.136-11.632,3.136-17.008,0
	c-4.928-2.992-11.344-7.456-15.36-12.832c2.384,1.792,4.768,3.28,6.864,4.624c6.112,3.584,13.28,3.584,19.392,0
	c9.248-5.52,21.776-15.216,22.224-26.256C282.848,301.471,284.048,305.055,284.048,309.823z"/>
<g>
	<path style="fill:#3E4347;" d="M148,410.463c10.8-27.024,33.36-44.688,60-54.224c31.904-11.408,65.472-10.864,95.936-0.016
		c26.656,9.504,49.264,27.328,60.016,54.224c-14.592-18.512-40.304-32.288-64.912-38.72c-24.128-6.896-60.496-7.36-86.16-0.032
		C182.736,379.551,159.584,395.599,148,410.463z"/>
	<path style="fill:#3E4347;" d="M369.184,365.999c0,0,11.712,3.968,26.56,13.648c54.16,33.84,70.192,79.952,77.024,131.84
		c-8.368-46.544-23.536-93.52-80.768-125.68c-14.832-8.656-25.504-11.696-25.504-11.696c-2.272-0.64-3.584-3.008-2.944-5.28
		s3.008-3.584,5.28-2.944c0.064,0.016,0.128,0.048,0.192,0.064L369.184,365.999z"/>
	<path style="fill:#3E4347;" d="M369.344,342.079c32.24,3.952,72.496,26.48,102.336,72.8c-32.176-43.28-72.96-62.784-103.168-64.288
		c-2.352-0.112-4.176-2.128-4.064-4.48c0.112-2.368,2.128-4.176,4.48-4.064c0.096,0,0.192,0.016,0.288,0.032L369.344,342.079z"/>
	<path style="fill:#3E4347;" d="M399.952,332.047c18.864,1.184,39.856,3.152,61.872,16.608c29.456,19.52,40.496,45.12,50.192,76.208
		c-24.912-68.144-57.808-84.544-112.352-85.36c-2.064-0.032-3.712-1.728-3.68-3.776c0.032-2.064,1.728-3.712,3.776-3.68
		C399.824,332.047,399.888,332.047,399.952,332.047z"/>
	<path style="fill:#3E4347;" d="M142.816,365.999c0,0-11.712,3.968-26.56,13.648c-54.16,33.84-70.192,79.952-77.024,131.84
		c8.368-46.544,23.536-93.52,80.768-125.68c14.832-8.656,25.504-11.696,25.504-11.696c2.272-0.64,3.584-3.008,2.944-5.28
		s-3.008-3.584-5.28-2.944c-0.064,0.016-0.128,0.048-0.192,0.064L142.816,365.999z"/>
	<path style="fill:#3E4347;" d="M142.656,342.079c-32.24,3.952-72.496,26.48-102.336,72.8c32.176-43.28,72.96-62.784,103.168-64.288
		c2.368-0.112,4.176-2.128,4.064-4.48c-0.112-2.368-2.128-4.176-4.48-4.064c-0.096,0-0.192,0.016-0.288,0.032L142.656,342.079z"/>
	<path style="fill:#3E4347;" d="M112.048,332.047c-9.392,0.592-14.88,0.8-24.592,2.688c-16.88,2.8-36.608,11.136-49.152,22.8
		C17.616,375.311,7.792,399.823,0,424.863c5.856-16,16.4-45.584,40.688-64.464c14.864-12.24,33.728-17.696,47.792-19.456
		c9.568-1.344,14.496-1.296,23.872-1.44c2.064-0.032,3.712-1.728,3.68-3.776c-0.032-2.064-1.728-3.712-3.792-3.68
		C112.192,332.047,112.112,332.047,112.048,332.047z"/>
</g>
<circle style="fill:#F4C534;" cx="158" cy="230.127" r="81.6"/>
<circle style="fill:#FFFFFF;" cx="158" cy="230.111" r="66.496"/>
<ellipse transform="matrix(-0.707 -0.7072 0.7072 -0.707 106.9474 504.485)" style="fill:#3E4347;" cx="157.977" cy="230.089" rx="30.672" ry="30.656"/>
<path style="fill:#F4C534;" d="M227.376,272.703c-45.744-29.856-83.024-67.136-112.016-112.016
	c31.408-19.168,73.184-15.536,100.464,11.728C242.912,199.695,246.528,241.295,227.376,272.703z"/>
<path style="fill:#FFFFFF;" d="M150.624,211.535c1.968,2.032,1.168,6.192-2.064,9.296c-3.104,2.992-7.408,3.744-9.376,1.712
	c-2.112-2.192-1.184-6.464,1.92-9.456C144.336,209.983,148.64,209.215,150.624,211.535z"/>
<circle style="fill:#F4C534;" cx="353.92" cy="230.127" r="81.6"/>
<circle style="fill:#FFFFFF;" cx="353.92" cy="230.111" r="66.496"/>
<ellipse transform="matrix(-0.7072 -0.707 0.707 -0.7072 441.8197 643.0109)" style="fill:#3E4347;" cx="354.055" cy="230.02" rx="30.656" ry="30.672"/>
<path style="fill:#F4C534;" d="M284.624,272.703c45.744-29.856,83.024-67.136,112.016-112.016
	c-31.408-19.168-73.184-15.536-100.448,11.728C269.088,199.695,265.456,241.295,284.624,272.703z"/>
<path style="fill:#FFFFFF;" d="M361.376,211.535c-1.968,2.032-1.168,6.192,2.064,9.296c3.104,2.992,7.408,3.744,9.376,1.712
	c2.112-2.192,1.184-6.464-1.92-9.456C367.664,209.983,363.36,209.215,361.376,211.535z"/>
<g>
	<path style="fill:#3E4347;" d="M234.288,165.855c0,0-4.528-18.48-82.688-53.424C151.6,112.415,256.08,107.791,234.288,165.855z"/>
	<path style="fill:#3E4347;" d="M277.712,165.855c0,0,4.528-18.48,82.688-53.424C360.4,112.415,255.92,107.791,277.712,165.855z"/>
</g>
<g>
</g>
<g>
</g>
<g>
</g>
<g>
</g>
<g>
</g>
<g>
</g>
<g>
</g>
<g>
</g>
<g>
</g>
<g>
</g>
<g>
</g>
<g>
</g>
<g>
</g>
<g>
</g>
<g>
</g>
</svg>
