<?xml version="1.0" encoding="iso-8859-1"?>
<!-- Generator: Adobe Illustrator 22.0.0, SVG Export Plug-In . SVG Version: 6.00 Build 0)  -->
<svg xmlns="http://www.w3.org/2000/svg" xmlns:xlink="http://www.w3.org/1999/xlink" version="1.1" x="0px" y="0px" viewBox="0 0 58 58" style="enable-background:new 0 0 58 58;" xml:space="preserve" width="512" height="512">
<g id="_x34_2-Bald">
	<path style="fill:#71C3A9;" d="M51.442,50.62c-2.605-1.54-5.323-3.508-7.506-5.763l-29.658,0.309   c-2.365,2.125-5.233,3.983-7.72,5.453C3.135,52.643,0,54.648,0,58h29h29C58,54.648,54.865,52.643,51.442,50.62z"/>
	<path style="fill:#D3A87D;" d="M11,29h1v-8h-1c-2.209,0-4,1.791-4,4C7,27.209,8.791,29,11,29z"/>
	<path style="fill:#D3A87D;" d="M47,21h-1v8h1c2.209,0,4-1.791,4-4C51,22.791,49.209,21,47,21z"/>
	<path style="fill:#FBCE9D;" d="M29,48L29,48c-9.941,0-18-8.059-18-18V18c0-9.941,8.059-18,18-18h0c9.941,0,18,8.059,18,18v12   C47,39.941,38.941,48,29,48z"/>
	<path style="fill:#EA6248;" d="M44.243,33c-2.69,0-4.188,4.197-5.521,5.345c-0.852,0.734-2.035,0.89-3.077,0.268   c-0.153-0.091-0.292-0.205-0.424-0.329C34.904,35.308,32.642,33,29.895,33h-1.789c-2.747,0-5.009,2.308-5.326,5.282   c-0.131,0.123-0.268,0.236-0.42,0.328c-1.041,0.626-2.227,0.471-3.081-0.265C17.946,37.197,16.447,33,13.757,33   C12.787,33,12,33.831,12,34.857V36c0,12.608,7.591,14,17,14c9.409,0,17-1.392,17-14v-1.143C46,33.831,45.213,33,44.243,33z"/>
	<path style="fill:#EA6248;" d="M29,5c-0.552,0-1-0.447-1-1V3c0-0.553,0.448-1,1-1s1,0.447,1,1v1C30,4.553,29.552,5,29,5z"/>
	<path style="fill:#EA6248;" d="M31,8c-0.552,0-1-0.447-1-1V6c0-0.553,0.448-1,1-1s1,0.447,1,1v1C32,7.553,31.552,8,31,8z"/>
	<path style="fill:#EA6248;" d="M39,9c-0.552,0-1-0.447-1-1V7c0-0.553,0.448-1,1-1s1,0.447,1,1v1C40,8.553,39.552,9,39,9z"/>
	<path style="fill:#EA6248;" d="M35,7c-0.552,0-1-0.447-1-1V5c0-0.553,0.448-1,1-1s1,0.447,1,1v1C36,6.553,35.552,7,35,7z"/>
	<path style="fill:#EA6248;" d="M36,10h-1c-0.552,0-1-0.447-1-1s0.448-1,1-1h1c0.552,0,1,0.447,1,1S36.552,10,36,10z"/>
	<path style="fill:#EA6248;" d="M29,5c-0.552,0-1-0.447-1-1V3c0-0.553,0.448-1,1-1s1,0.447,1,1v1C30,4.553,29.552,5,29,5z"/>
	<path style="fill:#EA6248;" d="M27,8c-0.552,0-1-0.447-1-1V6c0-0.553,0.448-1,1-1s1,0.447,1,1v1C28,7.553,27.552,8,27,8z"/>
	<path style="fill:#EA6248;" d="M19,9c-0.552,0-1-0.447-1-1V7c0-0.553,0.448-1,1-1s1,0.447,1,1v1C20,8.553,19.552,9,19,9z"/>
	<path style="fill:#EA6248;" d="M23,7c-0.552,0-1-0.447-1-1V5c0-0.553,0.448-1,1-1s1,0.447,1,1v1C24,6.553,23.552,7,23,7z"/>
	<path style="fill:#EA6248;" d="M23,10h-1c-0.552,0-1-0.447-1-1s0.448-1,1-1h1c0.552,0,1,0.447,1,1S23.552,10,23,10z"/>
	<path style="fill:#D3A87D;" d="M29,31c-2.206,0-4-1.477-4-3.291c0-0.985,0.523-1.908,1.435-2.532   c0.456-0.312,1.079-0.194,1.39,0.261c0.312,0.455,0.195,1.078-0.26,1.39C27.354,26.972,27,27.278,27,27.709   C27,28.396,27.935,29,29,29s2-0.604,2-1.291c0-0.315-0.207-0.638-0.566-0.883c-0.456-0.312-0.574-0.934-0.263-1.39   c0.312-0.457,0.934-0.572,1.39-0.263C32.475,25.798,33,26.722,33,27.709C33,29.523,31.206,31,29,31z"/>
	<path style="fill:#BF4332;" d="M30,43h-2c-0.552,0-1-0.447-1-1s0.448-1,1-1h2c0.552,0,1,0.447,1,1S30.552,43,30,43z"/>
	<path style="fill:#BF4332;" d="M32,40c-0.105,0-0.212-0.017-0.316-0.052L29,39.054l-2.684,0.895   c-0.523,0.175-1.09-0.107-1.265-0.632s0.109-1.091,0.633-1.265l3-1c0.205-0.068,0.427-0.068,0.632,0l3,1   c0.524,0.174,0.807,0.74,0.633,1.265C32.809,39.735,32.419,40,32,40z"/>
	<path style="fill:#EA6248;" d="M18,21.6c-0.392,0-0.764-0.231-0.924-0.616c-0.212-0.511,0.03-1.096,0.54-1.308   c2.047-0.849,4.637-0.897,6.3-0.118c0.5,0.234,0.715,0.83,0.481,1.33c-0.234,0.499-0.829,0.716-1.33,0.48   c-1.155-0.541-3.168-0.475-4.684,0.155C18.258,21.575,18.128,21.6,18,21.6z"/>
	<path style="fill:#366DB6;" d="M21.519,26c-1.088,0-2.061-0.497-2.74-1.399c-0.13-0.173-0.201-0.384-0.201-0.601   c0-1.103,0.897-2,2-2c0.552,0,1,0.447,1,1c0,0.398-0.234,0.743-0.571,0.903c0.291,0.117,0.631,0.161,0.984-0.044   c0.479-0.274,1.09-0.112,1.366,0.366c0.276,0.478,0.113,1.09-0.365,1.366C22.523,25.862,22.027,26,21.519,26z"/>
	<path style="fill:#EA6248;" d="M34.509,21.6c-0.392,0-0.764-0.231-0.924-0.616c-0.212-0.511,0.03-1.096,0.54-1.308   c2.047-0.849,4.637-0.897,6.3-0.118c0.5,0.234,0.715,0.83,0.481,1.33c-0.234,0.499-0.829,0.716-1.33,0.48   c-1.154-0.541-3.168-0.475-4.684,0.155C34.766,21.575,34.636,21.6,34.509,21.6z"/>
	<path style="fill:#366DB6;" d="M38.027,26c-1.088,0-2.061-0.497-2.74-1.399c-0.13-0.173-0.201-0.384-0.201-0.601   c0-1.103,0.897-2,2-2c0.552,0,1,0.447,1,1c0,0.398-0.234,0.743-0.571,0.903c0.291,0.117,0.631,0.161,0.984-0.044   c0.479-0.274,1.09-0.112,1.366,0.366c0.276,0.478,0.113,1.09-0.365,1.366C39.031,25.862,38.535,26,38.027,26z"/>
	<path style="fill:#EDB883;" d="M31.435,49.96c-0.22,0.018-0.44,0.04-0.664,0.04h-2.7c-0.043,0-0.086-0.007-0.129-0.007   c-3.135-0.04-6.036-0.282-8.481-1.107C21.424,52.66,24.43,56.683,29,58c4.568-1.316,7.574-5.339,9.537-9.114   C36.455,49.588,34.042,49.867,31.435,49.96z"/>
</g>

</svg>
