<?xml version="1.0" encoding="iso-8859-1"?>
<!-- Generator: Adobe Illustrator 19.0.0, SVG Export Plug-In . SVG Version: 6.00 Build 0)  -->
<svg version="1.1" id="Capa_1" xmlns="http://www.w3.org/2000/svg" xmlns:xlink="http://www.w3.org/1999/xlink" x="0px" y="0px"
	 viewBox="0 0 512.001 512.001" style="enable-background:new 0 0 512.001 512.001;" xml:space="preserve">
<g>
	<path style="fill:#FFD93B;" d="M231.016,86.346c-56.96-39.12-110.208-72.336-150.88-85.6C69.912-2.47,59.688,5.194,59.688,15.818
		V229.85L231,174.442V86.346H231.016z"/>
	<path style="fill:#FFD93B;" d="M281.048,86.346c56.96-39.12,110.208-72.336,150.88-85.6c10.224-3.232,20.448,4.448,20.448,15.072
		V229.85l-171.328-55.408V86.346z"/>
</g>
<g>
	<path style="fill:#F4C534;" d="M158.904,78.746c-26.56-17.248-51.024-31.152-71.056-38.048V143.21
		C107.96,117.738,132.36,95.354,158.904,78.746z"/>
	<path style="fill:#F4C534;" d="M394.248,119.866c10.32,8.992,21.12,18.672,29.92,29.664V40.698
		c-21.264,7.312-47.552,22.592-76.016,41.312C364.632,93.018,379.224,106.794,394.248,119.866z"/>
</g>
<circle style="fill:#FFD93B;" cx="256.008" cy="216.634" r="196.704"/>
<path style="fill:#F4C534;" d="M452.712,216.65c0,108.688-88.096,196.704-196.704,196.704c-61.84,0-117.04-28.528-153.12-73.216
	c33.744,27.296,76.72,43.584,123.504,43.584c108.624,0,196.704-88.032,196.704-196.704c0-46.784-16.288-89.744-43.584-123.504
	C424.136,99.594,452.712,154.794,452.712,216.65z"/>
<path style="fill:#3E4347;" d="M357.448,302.89c-13.904,42.768-54.064,73.616-101.408,73.616c-47.44,0-87.52-30.848-101.504-73.616
	c-1.696-5.104,2.864-10.128,8.064-8.608c37.216,10.944,149.648,10.944,186.784,0C354.584,292.762,359.16,297.786,357.448,302.89z"/>
<path style="fill:#E24B4B;" d="M262.008,445.21c1.344,12.688,0.304,26.016,5.504,37.664c12.576,28.176,59.92,40.32,93.344,16.288
	c26.816-19.28,42.56-61.456,11.808-104.752c-10.816-15.216-50.032-57.6-77.088-48.336c-7.456,2.56-13.744,9.2-14.48,17.056
	c-8.8-9.024-21.632-13.984-34.208-13.248c-11.088,0.656-31.936,10.272-30.624,18.96c8.88,5.904,31.808,33.008,38.48,48.64
	C258.504,426.314,261,435.674,262.008,445.21z"/>
<g>
	<circle style="fill:#F4C534;" cx="167.288" cy="203.802" r="75.648"/>
	<path style="fill:#F4C534;" d="M232.04,203.834c-2,35.984-32.592,65.136-68.336,65.136c-35.76,0-63.232-29.152-61.232-65.136
		s32.704-65.248,68.464-65.248C206.68,138.586,234.024,167.85,232.04,203.834z"/>
</g>
<path style="fill:#3E4347;" d="M178.504,75.962c0,0-39.968-5.632-81.92,42.96C96.584,118.922,123.72,31.914,178.504,75.962z"/>
<g>
	<circle style="fill:#F4C534;" cx="344.728" cy="203.802" r="75.648"/>
	<path style="fill:#F4C534;" d="M279.976,203.834c2,35.984,32.592,65.136,68.336,65.136c35.76,0,63.232-29.152,61.232-65.136
		s-32.704-65.248-68.464-65.248C305.336,138.586,277.976,167.85,279.976,203.834z"/>
</g>
<path style="fill:#3E4347;" d="M333.496,75.962c0,0,39.968-5.632,81.92,42.96C415.432,118.922,388.296,31.914,333.496,75.962z"/>
<path style="fill:#7A5B44;" d="M280.296,267.85c0,8.656-9.808,16.144-16.928,20.416c-4.656,2.704-10.08,2.704-14.72,0
	c-6.976-4.272-16.928-11.76-16.928-20.416c0-13.44,10.976-14.848,24.288-14.848C269.448,252.986,280.296,254.41,280.296,267.85z"/>
<path style="fill:#6B503B;" d="M280.296,267.85c0,8.656-9.808,16.144-16.928,20.416c-4.656,2.704-10.08,2.704-14.72,0
	c-4.256-2.592-9.808-6.464-13.312-11.12c2.064,1.552,4.128,2.848,5.936,4c5.296,3.104,11.488,3.104,16.784,0
	c8.016-4.768,18.864-13.168,19.248-22.736C279.256,260.618,280.296,263.722,280.296,267.85z"/>
<g>
	<path style="fill:#3E4347;" d="M420.36,203.786c0,2.32-0.512,4.656-1.424,6.848c-6.592-14.592-37.328-25.696-74.272-25.696
		c-36.816,0-67.552,11.104-74.144,25.696c-0.896-2.192-1.424-4.528-1.424-6.848c0-19.888,33.84-36.16,75.568-36.16
		C386.52,167.61,420.36,183.882,420.36,203.786z"/>
	<path style="fill:#3E4347;" d="M242.888,203.786c0,2.32-0.512,4.656-1.424,6.848c-6.592-14.592-37.328-25.696-74.272-25.696
		c-36.816,0-67.552,11.104-74.144,25.696c-0.896-2.192-1.424-4.528-1.424-6.848c0-19.888,33.84-36.16,75.568-36.16
		C209.032,167.61,242.888,183.882,242.888,203.786z"/>
</g>
<path style="fill:#FFFFFF;" d="M345.048,295.354c-6.464,14.208-17.696,22.992-32.16,28.288c-2.448,13.568-9.04,25.312-17.696,33.584
	c3.104-10.08,2.976-20.272,0.512-29.056c-12.144,2.32-25.584,2.976-39.792,2.976c-14.208,0-27.648-0.64-39.648-2.976
	c-2.448,8.784-2.576,18.992,0.512,29.056c-8.656-8.272-15.248-20.016-17.696-33.584c-14.336-5.296-25.568-14.08-32.16-28.288
	C206.2,304.794,305.784,304.794,345.048,295.354z"/>
<g>
	<path style="fill:#3E4347;" d="M367.48,308.986c0,0,10.144,3.44,23.008,11.824c46.896,29.296,60.784,69.232,66.704,114.16
		c-7.248-40.304-20.384-80.992-69.936-108.832c-12.848-7.504-22.096-10.128-22.096-10.128c-1.968-0.56-3.104-2.608-2.544-4.56
		c0.56-1.968,2.608-3.104,4.576-2.544c0.048,0.016,0.112,0.032,0.16,0.048L367.48,308.986z"/>
	<path style="fill:#3E4347;" d="M378.952,295.77c27.92,3.424,62.784,22.928,88.624,63.04c-27.856-37.472-63.168-54.368-89.344-55.68
		c-2.048-0.096-3.616-1.84-3.52-3.872c0.096-2.048,1.84-3.616,3.888-3.52c0.08,0,0.176,0.016,0.256,0.032L378.952,295.77z"/>
	<path style="fill:#3E4347;" d="M383.352,276.586c0,0,2.112,0.128,5.792,0.368c3.6,0.208,9.216,0.736,15.504,1.968
		c6.384,1.056,13.712,3.184,21.184,6.304c3.744,1.568,7.456,3.536,11.088,5.76c3.536,2.352,7.136,4.768,10.288,7.696
		c13.152,11.312,21.408,26.736,26.288,38.336c2.288,5.92,4.16,10.864,5.152,14.432c1.104,3.52,1.728,5.536,1.728,5.536
		s-0.72-1.984-1.984-5.456c-1.168-3.504-3.264-8.336-5.808-14.096c-5.392-11.296-14.288-26.064-27.424-36.272
		c-12.88-10.592-29.216-15.328-41.376-16.848c-6.16-0.864-11.104-1.12-14.88-1.168c-3.696-0.064-5.808-0.08-5.808-0.08
		c-1.776-0.032-3.216-1.504-3.184-3.28c0.032-1.792,1.488-3.216,3.28-3.184C383.24,276.586,383.304,276.586,383.352,276.586z"/>
	<path style="fill:#3E4347;" d="M144.536,308.986c0,0-10.144,3.44-23.008,11.824c-46.896,29.296-60.784,69.232-66.704,114.16
		c7.248-40.304,20.384-80.992,69.936-108.832c12.848-7.504,22.096-10.128,22.096-10.128c1.968-0.56,3.104-2.608,2.544-4.56
		c-0.56-1.968-2.608-3.104-4.576-2.544c-0.064,0.016-0.112,0.032-0.16,0.048L144.536,308.986z"/>
	<path style="fill:#3E4347;" d="M133.064,295.77c-27.92,3.424-62.768,22.928-88.624,63.04c27.872-37.472,63.184-54.368,89.344-55.68
		c2.048-0.096,3.616-1.84,3.52-3.872c-0.096-2.048-1.84-3.616-3.888-3.52c-0.08,0-0.176,0.016-0.256,0.032L133.064,295.77z"/>
	<path style="fill:#3E4347;" d="M128.664,276.586c0,0-2.112,0.128-5.792,0.368c-3.6,0.208-9.216,0.736-15.52,1.968
		c-6.384,1.056-13.712,3.184-21.184,6.304c-3.744,1.568-7.456,3.536-11.088,5.76c-3.536,2.352-7.136,4.768-10.288,7.696
		c-13.152,11.312-21.408,26.736-26.288,38.336c-2.288,5.92-4.16,10.864-5.152,14.432c-1.104,3.52-1.728,5.536-1.728,5.536
		s0.72-1.984,1.984-5.456c1.168-3.504,3.264-8.336,5.808-14.096c5.392-11.296,14.288-26.064,27.424-36.272
		c12.88-10.592,29.216-15.328,41.376-16.848c6.16-0.864,11.104-1.12,14.88-1.168c3.696-0.064,5.808-0.08,5.808-0.08
		c1.776-0.032,3.2-1.504,3.184-3.28c-0.032-1.792-1.488-3.216-3.28-3.184C128.776,276.586,128.712,276.586,128.664,276.586z"/>
</g>
<path style="fill:#65B1EF;" d="M471.736,297.434c-4.096-15.04-43.424-52.08-43.424-52.08s-15.12,51.872-11.024,66.896
	c4.096,15.04,19.6,23.904,34.64,19.808C466.952,327.978,475.832,312.474,471.736,297.434z"/>
<path style="fill:#FFFFFF;" d="M446.632,321.898c-2.112,3.232-8.128,3.088-13.744-0.288c-5.472-3.504-8.416-8.832-6.304-12.208
	c1.968-3.232,4.528,2.88,10,6.24C442.2,319.162,448.6,318.522,446.632,321.898z"/>
<path style="fill:#65B1EF;" d="M40.28,297.434c4.096-15.04,43.424-52.08,43.424-52.08s15.12,51.872,11.024,66.896
	c-4.096,15.04-19.6,23.904-34.64,19.808C45.064,327.978,36.184,312.474,40.28,297.434z"/>
<path style="fill:#FFFFFF;" d="M65.368,321.898c2.096,3.232,8.128,3.088,13.744-0.288c5.472-3.504,8.416-8.832,6.304-12.208
	c-1.968-3.232-4.528,2.88-10,6.24C69.816,319.162,63.416,318.522,65.368,321.898z"/>
<path style="fill:#D03F3F;" d="M292.856,486.106c-14.544-12.272-21.92-30.72-33.952-56.512c1.44,5.12,2.56,10.32,3.12,15.616
	c1.344,12.672,0.304,26.016,5.504,37.664c12.576,28.176,59.92,40.32,93.344,16.288c11.584-8.32,21.072-20.928,25.664-36.048
	C365.912,504.746,317.88,507.21,292.856,486.106z"/>
<g>
</g>
<g>
</g>
<g>
</g>
<g>
</g>
<g>
</g>
<g>
</g>
<g>
</g>
<g>
</g>
<g>
</g>
<g>
</g>
<g>
</g>
<g>
</g>
<g>
</g>
<g>
</g>
<g>
</g>
</svg>
