<?xml version="1.0" encoding="iso-8859-1"?>
<!-- Generator: Adobe Illustrator 22.0.0, SVG Export Plug-In . SVG Version: 6.00 Build 0)  -->
<svg xmlns="http://www.w3.org/2000/svg" xmlns:xlink="http://www.w3.org/1999/xlink" version="1.1" x="0px" y="0px" viewBox="0 0 58 58" style="enable-background:new 0 0 58 58;" xml:space="preserve" width="512" height="512">
<g id="_x34_4-Curly">
	<path style="fill:#E7ECED;" d="M43.63,42.942l-4.307-2.338l-20.668,0.012l-4.284,2.326C6.374,46.896,0,48.214,0,53.442V58h29h29   v-4.558C58,48.214,51.625,46.896,43.63,42.942z"/>
	<path style="fill:#366DB6;" d="M29,51.269c-0.968,0-1.898-0.098-2.783-0.269L25,58h8l-1.217-7   C30.898,51.171,29.968,51.269,29,51.269z"/>
	<path style="fill:#FBCE9D;" d="M41.75,18c-2.591-1.655-4.25-4.69-4.25-4.69c0-1.828-1.547-3.31-3.454-3.31   c-1.361,0-2.527,0.761-3.09,1.857c-0.471-0.621-1.23-1.029-2.092-1.029c-0.801,0-1.508,0.356-1.984,0.903   c-0.196-0.045-0.397-0.076-0.607-0.076c-0.751,0-1.421,0.311-1.895,0.8c-0.365-0.948-1.308-1.628-2.424-1.628   c-1.116,0-2.059,0.68-2.423,1.628c-0.473-0.489-1.144-0.8-1.895-0.8c-1.431,0-2.636,0.984-2.636,2.356L13,20l2,11.159v0   c0,1.299,0.254,2.585,0.761,3.781C17.473,38.985,21.807,48,28.826,48c6.984,0,11.671-8.787,13.4-12.859   c0.516-1.216,0.786-2.52,0.786-3.841L43,29.325v-3.451c0-1.621,0.579-7.433-1-7.8C41.844,18.039,41.75,18,41.75,18z"/>
	<path style="fill:#EA6248;" d="M26.634,40.627c-0.588,0-1.007-0.195-1.082-0.232c-0.494-0.247-0.694-0.848-0.447-1.342   c0.247-0.494,0.848-0.692,1.342-0.447c0.019,0.006,0.287,0.097,0.625-0.129C27.54,38.165,28.12,38,28.748,38h0.503   c0.628,0,1.208,0.165,1.676,0.477c0.344,0.229,0.623,0.131,0.625,0.129c0.493-0.246,1.094-0.048,1.342,0.447   c0.247,0.494,0.047,1.095-0.447,1.342c-0.132,0.065-1.323,0.617-2.629-0.254C29.682,40.05,29.481,40,29.252,40h-0.503   c-0.229,0-0.431,0.05-0.567,0.141C27.619,40.516,27.078,40.627,26.634,40.627z"/>
	<path style="fill:#EA6248;" d="M26,41c-0.552,0-1-0.447-1-1v-1c0-0.553,0.448-1,1-1s1,0.447,1,1v1C27,40.553,26.552,41,26,41z"/>
	<path style="fill:#EA6248;" d="M32,41c-0.552,0-1-0.447-1-1v-1c0-0.553,0.448-1,1-1s1,0.447,1,1v1C33,40.553,32.552,41,32,41z"/>
	<path style="fill:#D8AD82;" d="M30,45h-2c-0.552,0-1-0.447-1-1s0.448-1,1-1h2c0.552,0,1,0.447,1,1S30.552,45,30,45z"/>
	<path style="fill:#D8AD82;" d="M29,35c-0.657,0-1.292-0.278-1.743-0.765c0.004,0.012-0.091-0.035-0.342-0.035   c-0.894,0-1.364-0.398-1.601-0.733c-0.524-0.74-0.25-1.629-0.189-1.8c0.184-0.52,0.755-0.79,1.276-0.61   c0.478,0.169,0.747,0.663,0.646,1.146c0.894,0.031,1.403,0.379,1.674,0.672c0.149,0.16,0.409,0.159,0.555,0.001   c0.273-0.295,0.782-0.642,1.679-0.673c-0.089-0.486,0.188-0.982,0.668-1.141c0.518-0.166,1.071,0.093,1.251,0.605   c0.06,0.171,0.334,1.06-0.189,1.8c-0.237,0.335-0.707,0.733-1.601,0.733c-0.271,0-0.362,0.053-0.363,0.054   C30.296,34.72,29.659,35,29,35z"/>
	<path style="fill:#BE6E41;" d="M24.999,24c-0.22,0-0.441-0.072-0.626-0.221c-1.287-1.033-3.46-1.033-4.747,0   c-0.43,0.346-1.06,0.277-1.406-0.152c-0.346-0.431-0.278-1.061,0.153-1.406c2.033-1.635,5.22-1.635,7.253,0   c0.43,0.346,0.499,0.976,0.153,1.406C25.582,23.872,25.292,24,24.999,24z"/>
	<path style="fill:#BE6E41;" d="M38.999,24c-0.22,0-0.441-0.072-0.626-0.221c-1.287-1.033-3.46-1.033-4.747,0   c-0.43,0.346-1.06,0.277-1.406-0.152c-0.346-0.431-0.278-1.061,0.153-1.406c2.033-1.635,5.22-1.635,7.253,0   c0.43,0.346,0.499,0.976,0.153,1.406C39.582,23.872,39.292,24,38.999,24z"/>
	<path style="fill:#28384C;" d="M22.027,29c-1.088,0-2.061-0.497-2.74-1.399c-0.13-0.173-0.201-0.384-0.201-0.601   c0-1.103,0.897-2,2-2c0.552,0,1,0.447,1,1c0,0.398-0.234,0.743-0.571,0.903c0.291,0.118,0.631,0.161,0.984-0.044   c0.479-0.275,1.09-0.112,1.366,0.366c0.276,0.478,0.113,1.09-0.365,1.366C23.031,28.862,22.535,29,22.027,29z"/>
	<path style="fill:#28384C;" d="M36,29c-1.088,0-2.061-0.497-2.74-1.399C33.13,27.428,33.06,27.217,33.06,27c0-1.103,0.897-2,2-2   c0.552,0,1,0.447,1,1c0,0.398-0.234,0.743-0.571,0.903c0.291,0.118,0.631,0.161,0.984-0.044c0.479-0.275,1.09-0.112,1.366,0.366   c0.276,0.478,0.113,1.09-0.365,1.366C37.004,28.862,36.509,29,36,29z"/>
	<path style="fill:#AFB6BB;" d="M31.552,47.531L39,52v-8v-1.488v-1.417C37.124,43.85,34.616,46.494,31.552,47.531z"/>
	<path style="fill:#AFB6BB;" d="M19,41.155v1.358V44v8l7.324-4.394C23.26,46.625,20.825,43.95,19,41.155z"/>
	<path style="fill:#1F436D;" d="M31.552,47.531C30.686,47.824,29.78,48,28.826,48c-0.876,0-1.71-0.141-2.502-0.394l-0.994,0.596   L25,52.446C26.228,52.802,27.578,53,29,53c1.423,0,2.772-0.198,4-0.554l-0.33-4.244L31.552,47.531z"/>
	<path style="fill:#BE6E41;" d="M47,16.999c0-1.069-0.524-2.012-1.326-2.635c0.273-0.482,0.442-1.027,0.442-1.615   c0-1.878-1.583-3.4-3.535-3.4c-0.044,0-0.086,0.011-0.129,0.012c0.076-0.277,0.129-0.563,0.129-0.862   c0-1.616-1.175-2.963-2.747-3.308c-0.36-1.511-1.759-2.642-3.44-2.642c-0.159,0-0.311,0.025-0.465,0.045   c-0.606-1.036-1.746-1.745-3.07-1.745c-0.872,0-1.659,0.315-2.276,0.818C29.968,0.673,28.85,0,27.558,0   c-1.112,0-2.092,0.504-2.739,1.275c-0.502-0.263-1.068-0.425-1.68-0.425c-1.824,0-3.308,1.334-3.497,3.041   C19.112,3.586,18.5,3.4,17.837,3.4c-1.952,0-3.535,1.522-3.535,3.4c0,0.153,0.026,0.299,0.046,0.447   c-1.077,0.582-1.814,1.679-1.814,2.953c0,0.637,0.194,1.226,0.511,1.736c-1.775,0.182-3.162,1.609-3.162,3.364   c0,0.588,0.169,1.133,0.442,1.615C9.524,17.537,9,18.48,9,19.549c0,1.348,0.822,2.502,2.005,3.052   c-0.147,0.374-0.237,0.774-0.237,1.198c0,1.348,0.823,2.502,2.005,3.052c-0.147,0.374-0.237,0.774-0.237,1.198   c0,1.533,1.016,2.686,2.465,3.11V18.08c0-1.371,1.206-2.356,2.636-2.356c0.751,0,1.422,0.311,1.895,0.8   c0.365-0.948,1.308-1.628,2.423-1.628c1.116,0,2.059,0.68,2.423,1.628c0.473-0.489,1.144-0.8,1.895-0.8   c0.21,0,0.412,0.031,0.607,0.076c0.475-0.547,1.182-0.903,1.984-0.903c0.862,0,1.621,0.408,2.092,1.029   c0.563-1.096,1.729-1.857,3.09-1.857c1.908,0,3.455,1.482,3.455,3.31c0,0,0,3.31,2.591,4.966c0,0,0.094,0.039,0.25,0.075   C41.92,22.787,43,24.253,43,25.874v3.451c0.396-0.482,0.486-1.07,0.566-1.713c1.075-0.583,1.667-1.692,1.667-2.964   c0-0.423-0.09-0.824-0.237-1.198C46.178,22.901,47,21.747,47,20.399c0-0.622-0.186-1.198-0.49-1.7   C46.814,18.197,47,17.621,47,16.999z"/>
</g>

</svg>
