<?xml version="1.0" encoding="iso-8859-1"?>
<!-- Generator: Adobe Illustrator 19.0.0, SVG Export Plug-In . SVG Version: 6.00 Build 0)  -->
<svg version="1.1" id="Capa_1" xmlns="http://www.w3.org/2000/svg" xmlns:xlink="http://www.w3.org/1999/xlink" x="0px" y="0px"
	 viewBox="0 0 512 512" style="enable-background:new 0 0 512 512;" xml:space="preserve">
<g>
	<path style="fill:#FFD93B;" d="M225.072,107.14C154.608,58.74,88.72,17.636,38.432,1.236c-12.64-3.984-25.296,5.488-25.296,18.64
		v264.8l211.952-68.544V107.14H225.072z"/>
	<path style="fill:#FFD93B;" d="M286.992,107.14c70.48-48.4,136.352-89.504,186.656-105.904c12.656-3.984,25.296,5.488,25.296,18.64
		v264.8l-211.952-68.544V107.14z"/>
</g>
<g>
	<path style="fill:#F4C534;" d="M135.872,97.732c-32.864-21.344-63.136-38.544-87.92-47.072v126.816
		C72.848,145.972,103.024,118.276,135.872,97.732z"/>
	<path style="fill:#F4C534;" d="M427.024,148.596c12.784,11.12,26.128,23.104,37.024,36.688V50.66
		c-26.32,9.04-58.832,27.936-94.064,51.104C390.384,115.38,408.448,132.42,427.024,148.596z"/>
</g>
<circle style="fill:#FFD93B;" cx="256" cy="268.324" r="243.36"/>
<path style="fill:#F4C534;" d="M499.36,268.324c0,134.464-108.976,243.36-243.36,243.36c-76.512,0-144.8-35.296-189.44-90.576
	c41.744,33.76,94.912,53.92,152.784,53.92c134.384,0,243.36-108.896,243.36-243.36c0-57.872-20.144-111.04-53.92-152.784
	C464,123.524,499.36,191.828,499.36,268.324z"/>
<path style="fill:#7A5B44;" d="M290.352,334.324c0,12.24-13.888,22.848-23.936,28.88c-6.576,3.84-14.256,3.84-20.832,0
	c-9.872-6.032-23.936-16.64-23.936-28.88c0-19.008,15.536-21.024,34.352-21.024C275.008,313.3,290.352,315.316,290.352,334.324z"/>
<path style="fill:#6B503B;" d="M290.352,334.324c0,12.24-13.888,22.848-23.936,28.88c-6.576,3.84-14.256,3.84-20.832,0
	c-6.032-3.664-13.888-9.136-18.832-15.728c2.928,2.192,5.856,4.016,8.4,5.664c7.488,4.384,16.272,4.384,23.76,0
	c11.328-6.752,26.688-18.64,27.232-32.16C288.896,324.084,290.352,328.468,290.352,334.324z"/>
<g>
	<path style="fill:#3E4347;" d="M331.248,90.644c0,0,46.352,2.064,84.784,55.424C416.016,146.068,395.504,54.132,331.248,90.644z"/>
	<path style="fill:#3E4347;" d="M180.752,90.644c0,0-46.352,2.064-84.784,55.424C95.984,146.068,116.512,54.132,180.752,90.644z"/>
</g>
<circle style="fill:#F4C534;" cx="158.736" cy="231.716" r="80.992"/>
<circle style="fill:#FFFFFF;" cx="158.736" cy="231.7" r="66"/>
<ellipse style="fill:#3E4347;" cx="158.705" cy="231.685" rx="30.432" ry="30.432"/>
<path style="fill:#F4C534;" d="M227.584,273.988c-45.392-29.632-82.4-66.64-111.184-111.184
	c31.184-19.024,72.64-15.424,99.712,11.648C243.008,201.524,246.608,242.804,227.584,273.988z"/>
<path style="fill:#FFFFFF;" d="M151.408,213.268c1.952,2.032,1.152,6.144-2.048,9.232c-3.088,2.976-7.36,3.728-9.312,1.696
	c-2.096-2.176-1.184-6.416,1.904-9.392C145.168,211.732,149.44,210.98,151.408,213.268z"/>
<circle style="fill:#F4C534;" cx="353.28" cy="231.716" r="80.992"/>
<circle style="fill:#FFFFFF;" cx="353.28" cy="231.7" r="66"/>
<ellipse style="fill:#3E4347;" cx="353.266" cy="231.662" rx="30.432" ry="30.432"/>
<path style="fill:#F4C534;" d="M284.416,273.988c45.392-29.632,82.4-66.64,111.184-111.184
	c-31.184-19.024-72.64-15.424-99.712,11.648C268.992,201.524,265.392,242.804,284.416,273.988z"/>
<path style="fill:#FFFFFF;" d="M360.592,213.268c-1.952,2.032-1.152,6.144,2.048,9.232c3.088,2.976,7.36,3.728,9.296,1.696
	c2.096-2.176,1.184-6.416-1.904-9.392C366.832,211.732,362.56,210.98,360.592,213.268z"/>
<g>
	<path style="fill:#3E4347;" d="M349.616,363.732c30.448-5.872,53.04,4.432,71.456,24.912
		c23.392,27.44,30.976,64.032,37.328,104.176c-7.824-38.16-17.056-75.056-41.12-100.784c-17.792-18-38.048-26.544-66.176-19.856
		c-2.304,0.544-4.624-0.88-5.168-3.184s0.88-4.624,3.184-5.168c0.048,0,0.112-0.032,0.16-0.032L349.616,363.732z"/>
	<path style="fill:#3E4347;" d="M337.392,350.068c23.424-6.832,66.128-3.488,107.344,22.976c11.152,7.44,17.552,11.92,39.024,32.928
		c-22.256-19.616-29.024-23.824-40.448-30.624c-42.112-23.968-83.344-24.288-103.36-17.104c-2.224,0.8-4.688-0.368-5.488-2.592
		c-0.8-2.224,0.352-4.688,2.592-5.488c0.08-0.032,0.16-0.048,0.24-0.08L337.392,350.068z"/>
	<path style="fill:#3E4347;" d="M369.376,331.412c17.152-2.784,47.328-2.48,74.688,3.744c27.76,5.904,47.184,15.92,67.936,29.008
		c-20.032-11.024-39.808-20.368-68.752-24.8c-26.416-4.416-56-3.216-72.32,0.48c-2.32,0.528-4.608-0.928-5.136-3.232
		c-0.528-2.32,0.928-4.608,3.232-5.136c0.08-0.016,0.16-0.032,0.24-0.048L369.376,331.412z"/>
	<path style="fill:#3E4347;" d="M162.384,363.732c-30.448-5.872-53.04,4.432-71.456,24.912
		C67.536,416.084,59.952,452.676,53.6,492.82c7.824-38.16,17.056-75.056,41.12-100.784c17.792-18,38.064-26.544,66.176-19.856
		c2.304,0.544,4.624-0.88,5.168-3.184s-0.88-4.624-3.184-5.168c-0.048,0-0.112-0.032-0.16-0.032L162.384,363.732z"/>
	<path style="fill:#3E4347;" d="M174.608,350.068c-23.424-6.832-66.128-3.488-107.344,22.976
		c-11.136,7.44-17.552,11.92-39.024,32.928c22.256-19.616,29.024-23.824,40.448-30.624c42.096-23.968,83.344-24.288,103.36-17.104
		c2.224,0.8,4.688-0.368,5.488-2.592s-0.352-4.688-2.592-5.488c-0.08-0.032-0.16-0.048-0.24-0.08L174.608,350.068z"/>
	<path style="fill:#3E4347;" d="M142.624,331.412c-17.152-2.784-47.328-2.48-74.688,3.744C40.192,341.06,20.752,351.076,0,364.164
		c20.032-11.024,39.808-20.368,68.736-24.8c26.416-4.416,56-3.216,72.336,0.48c2.32,0.528,4.608-0.928,5.136-3.232
		c0.528-2.32-0.928-4.608-3.248-5.136c-0.08-0.016-0.16-0.032-0.24-0.048L142.624,331.412z"/>
	<path style="fill:#3E4347;" d="M369.248,403.86C346.56,443.524,304.304,440.116,256,462.292
		c-48.464,22.192-90.56-28.656-113.248-59.344c-3.92-4.256,2.448-15.232,10.272-17.264c68.544-5.648,137.392,44.32,205.936,11.28
		C366.8,392.036,373.168,395.78,369.248,403.86z"/>
</g>
<path style="fill:#E24B4B;" d="M254.64,428.372c-5.52,1.792-11.616,2.608-17.68,1.648c-19.92-3.456-40.304,7.232-44.256,24.768
	c21.04,6.288,40.256,4.864,63.296-0.432c18.416-4.032,31.456-7.248,51.84-10.448c0.192-0.592,0.608-1.104,0.64-1.728
	C309.152,431.172,278.16,422.18,254.64,428.372z"/>
<g>
	<path style="fill:#FFFFFF;" d="M165.136,385.284c12.416,29.168,48.928,38.4,92.192,38.48c44.016,0.048,81.104,0.848,92.88-22.544
		c-0.256-0.112-0.512-0.224-0.768-0.336C288.096,423.828,226.496,385.652,165.136,385.284z"/>
	<path style="fill:#FFFFFF;" d="M256,462.292c20.8-9.552,40.464-14.352,57.936-19.904c-0.16-0.16-0.224-0.368-0.416-0.528
		c-17.136,0.8-36.72,4.608-57.52,4.672c-26.72-0.192-51.344-0.032-71.424,1.984C205.088,464.74,229.584,474.388,256,462.292z"/>
</g>
<g>
</g>
<g>
</g>
<g>
</g>
<g>
</g>
<g>
</g>
<g>
</g>
<g>
</g>
<g>
</g>
<g>
</g>
<g>
</g>
<g>
</g>
<g>
</g>
<g>
</g>
<g>
</g>
<g>
</g>
</svg>
