<?xml version="1.0" encoding="iso-8859-1"?>
<!-- Generator: Adobe Illustrator 22.0.0, SVG Export Plug-In . SVG Version: 6.00 Build 0)  -->
<svg xmlns="http://www.w3.org/2000/svg" xmlns:xlink="http://www.w3.org/1999/xlink" version="1.1" id="Layer_1" x="0px" y="0px" viewBox="0 0 58 58" style="enable-background:new 0 0 58 58;" xml:space="preserve" width="512" height="512">
<g id="_x34_5-Bald">
	<path style="fill:#7383BF;" d="M46.41,49.838c-0.673-0.045-1.464-0.301-2.403-0.838l-5.308-3.852   c0.192-0.123,0.367-0.269,0.555-0.4C36.339,46.782,32.814,48,28.99,48c-3.604,0-6.947-1.078-9.76-2.905L13.993,49   c-0.956,0.547-1.758,0.801-2.438,0.839C7.812,52.182,1.524,54.924,0,58h58C56.476,54.924,50.147,52.181,46.41,49.838z"/>
	<g>
		<path style="fill:#556080;" d="M11.151,32.22C11.82,37.651,18.603,38.178,23,41l2.225,8.29C25.711,49.629,26,50.185,26,50.777    v0.003c0,1.148-1.052,2.008-2.177,1.778c-1.387-0.283-3.093-0.659-4.03-0.971c-2.222-0.738-5.799-2.586-5.8-2.587    C7,53,8,41.781,8,39C8,36.432,9.222,34.117,11.151,32.22z"/>
	</g>
	<g>
		<path style="fill:#556080;" d="M46.849,32.22C46.18,37.651,38.397,40.178,34,43l-1.225,6.29C32.289,49.629,32,50.185,32,50.777    v0.003c0,1.148,1.052,2.008,2.177,1.778c1.387-0.283,3.093-0.659,4.03-0.971c2.222-0.738,5.799-2.586,5.8-2.587    C51,53,50,41.781,50,39C50,36.432,48.778,34.117,46.849,32.22z"/>
	</g>
	<path style="fill:#EDB883;" d="M28.606,42.408c-3.191,0-5.791,4.745-8.385,3.284c-0.009,0.026-0.021,0.05-0.03,0.076l5.034,3.522   C25.711,49.629,26,50.184,26,50.777c0,0.707-0.4,1.301-0.968,1.603C26.23,52.773,27.574,55,29,55c1.425,0,2.767-2.227,3.965-2.62   C32.398,52.078,32,51.485,32,50.78v-0.003c0-0.592,0.289-1.148,0.775-1.487l5.034-3.52c-0.01-0.031-0.024-0.06-0.035-0.09   C35.175,47.146,31.804,42.408,28.606,42.408z"/>
	<path style="fill:#FFFFFF;" d="M23,56c-0.552,0-1-0.448-1-1v-4c0-0.552,0.448-1,1-1s1,0.448,1,1v4C24,55.552,23.552,56,23,56z"/>
	<path style="fill:#FFFFFF;" d="M35,56c-0.552,0-1-0.448-1-1v-4c0-0.552,0.448-1,1-1s1,0.448,1,1v4C36,55.552,35.552,56,35,56z"/>
	<path style="fill:#D3A87D;" d="M11,29h1v-8h-1c-2.209,0-4,1.791-4,4S8.791,29,11,29z"/>
	<path style="fill:#D3A87D;" d="M47,21h-1v8h1c2.209,0,4-1.791,4-4S49.209,21,47,21z"/>
	<path style="fill:#FBCE9D;" d="M29,48L29,48c-9.941,0-18-8.059-18-18V18c0-9.941,8.059-18,18-18l0,0c9.941,0,18,8.059,18,18v12   C47,39.941,38.941,48,29,48z"/>
	<path style="fill:#6B4842;" d="M29,5c-0.552,0-1-0.447-1-1V3c0-0.553,0.448-1,1-1s1,0.447,1,1v1C30,4.553,29.552,5,29,5z"/>
	<path style="fill:#6B4842;" d="M31,8c-0.552,0-1-0.447-1-1V6c0-0.553,0.448-1,1-1s1,0.447,1,1v1C32,7.553,31.552,8,31,8z"/>
	<path style="fill:#6B4842;" d="M39,9c-0.552,0-1-0.447-1-1V7c0-0.553,0.448-1,1-1s1,0.447,1,1v1C40,8.553,39.552,9,39,9z"/>
	<path style="fill:#6B4842;" d="M35,7c-0.552,0-1-0.447-1-1V5c0-0.553,0.448-1,1-1s1,0.447,1,1v1C36,6.553,35.552,7,35,7z"/>
	<path style="fill:#6B4842;" d="M36,10h-1c-0.552,0-1-0.447-1-1s0.448-1,1-1h1c0.552,0,1,0.447,1,1S36.552,10,36,10z"/>
	<path style="fill:#6B4842;" d="M29,5c-0.552,0-1-0.447-1-1V3c0-0.553,0.448-1,1-1s1,0.447,1,1v1C30,4.553,29.552,5,29,5z"/>
	<path style="fill:#6B4842;" d="M27,8c-0.552,0-1-0.447-1-1V6c0-0.553,0.448-1,1-1s1,0.447,1,1v1C28,7.553,27.552,8,27,8z"/>
	<path style="fill:#6B4842;" d="M19,9c-0.552,0-1-0.447-1-1V7c0-0.553,0.448-1,1-1s1,0.447,1,1v1C20,8.553,19.552,9,19,9z"/>
	<path style="fill:#6B4842;" d="M23,7c-0.552,0-1-0.447-1-1V5c0-0.553,0.448-1,1-1s1,0.447,1,1v1C24,6.553,23.552,7,23,7z"/>
	<path style="fill:#6B4842;" d="M23,10h-1c-0.552,0-1-0.447-1-1s0.448-1,1-1h1c0.552,0,1,0.447,1,1S23.552,10,23,10z"/>
	<path style="fill:#D3A87D;" d="M29,35c-2.206,0-4-1.477-4-3.291c0-0.985,0.523-1.908,1.435-2.532   c0.456-0.312,1.078-0.194,1.39,0.261s0.195,1.078-0.26,1.39C27.354,30.972,27,31.278,27,31.709C27,32.396,27.935,33,29,33   s2-0.604,2-1.291c0-0.315-0.207-0.638-0.566-0.883c-0.456-0.312-0.574-0.934-0.263-1.39c0.312-0.457,0.934-0.573,1.39-0.263   C32.475,29.798,33,30.722,33,31.709C33,33.523,31.206,35,29,35z"/>
	<g>
		<path style="fill:#28384C;" d="M11,19.169c0,2.611,0.201,10.009,5.143,10.5C28.036,30.851,29,21.78,29,19.169    C23.423,16.239,16.577,16.239,11,19.169z"/>
	</g>
	<path style="fill:#D3A87D;" d="M30,42.971h-2c-0.552,0-1-0.447-1-1s0.448-1,1-1h2c0.552,0,1,0.447,1,1S30.552,42.971,30,42.971z"/>
	<path style="fill:#EA6248;" d="M32,39.971c-0.105,0-0.212-0.017-0.316-0.052L29,39.024l-2.684,0.895   c-0.522,0.175-1.09-0.107-1.265-0.632c-0.175-0.524,0.109-1.091,0.633-1.265l3-1c0.205-0.068,0.427-0.068,0.632,0l3,1   c0.524,0.174,0.807,0.74,0.633,1.265C32.809,39.706,32.419,39.971,32,39.971z"/>
	<path style="fill:#28384C;" d="M29,19.169c0,2.611,0.964,11.682,12.857,10.5C46.799,29.177,47,21.78,47,19.169   C41.423,16.239,34.577,16.239,29,19.169z"/>
	<path style="fill:#46596D;" d="M23.328,17.258l-7.273,7.273c-0.391,0.391-0.391,1.023,0,1.414c0.195,0.195,0.451,0.293,0.707,0.293   s0.512-0.098,0.707-0.293l8.15-8.15C24.866,17.569,24.101,17.391,23.328,17.258z"/>
	<path style="fill:#46596D;" d="M16.109,19.441l-4.665,4.665c0.157,0.744,0.372,1.48,0.66,2.168l5.419-5.419   c0.391-0.391,0.391-1.023,0-1.414S16.499,19.051,16.109,19.441z"/>
</g>

</svg>
