<?xml version="1.0" encoding="iso-8859-1"?>
<!-- Generator: Adobe Illustrator 19.0.0, SVG Export Plug-In . SVG Version: 6.00 Build 0)  -->
<svg version="1.1" id="Capa_1" xmlns="http://www.w3.org/2000/svg" xmlns:xlink="http://www.w3.org/1999/xlink" x="0px" y="0px"
	 viewBox="0 0 512.018 512.018" style="enable-background:new 0 0 512.018 512.018;" xml:space="preserve">
<g>
	<path style="fill:#FFD93B;" d="M227.161,99.645C161.433,54.509,99.977,16.173,53.065,0.877c-11.792-3.728-23.6,5.12-23.6,17.392
		v246.992l197.696-63.936V99.645z"/>
	<path style="fill:#FFD93B;" d="M284.921,99.645c65.744-45.136,127.184-83.488,174.112-98.784c11.792-3.728,23.6,5.12,23.6,17.392
		v246.992l-197.712-63.936V99.645z"/>
</g>
<g>
	<path style="fill:#F4C534;" d="M143.961,90.877c-30.656-19.904-58.896-35.952-82.016-43.904v118.288
		C85.177,135.869,113.321,110.045,143.961,90.877z"/>
	<path style="fill:#F4C534;" d="M415.529,138.317c11.92,10.368,24.384,21.552,34.528,34.224V46.973
		c-24.544,8.432-54.88,26.064-87.728,47.664C381.353,107.341,398.201,123.229,415.529,138.317z"/>
</g>
<circle style="fill:#FFD93B;" cx="256.009" cy="249.997" r="227.008"/>
<path style="fill:#F4C534;" d="M483.017,249.997c0,125.424-101.648,227.008-227.008,227.008c-71.36,0-135.072-32.912-176.704-84.496
	c38.944,31.504,88.528,50.304,142.512,50.304c125.344,0,227.008-101.584,227.008-227.008c0-53.984-18.8-103.568-50.304-142.512
	C450.025,114.941,483.017,178.637,483.017,249.997z"/>
<path style="fill:#7A5B44;" d="M288.057,311.565c0,11.424-12.96,21.312-22.336,26.944c-6.144,3.584-13.296,3.584-19.44,0
	c-9.2-5.632-22.336-15.52-22.336-26.944c0-17.728,14.496-19.6,32.048-19.6C273.737,291.949,288.057,293.821,288.057,311.565z"/>
<path style="fill:#6B503B;" d="M288.057,311.565c0,11.424-12.96,21.312-22.336,26.944c-6.144,3.584-13.296,3.584-19.44,0
	c-5.632-3.408-12.96-8.528-17.552-14.672c2.72,2.048,5.456,3.76,7.84,5.28c6.992,4.096,15.168,4.096,22.16,0
	c10.576-6.304,24.896-17.392,25.392-30C286.697,302.013,288.057,306.109,288.057,311.565z"/>
<g>
	<path style="fill:#3E4347;" d="M326.185,84.269c0,0,43.232,1.92,79.072,51.696C405.273,135.965,386.121,50.205,326.185,84.269z"/>
	<path style="fill:#3E4347;" d="M185.833,84.269c0,0-43.248,1.92-79.088,51.696C106.745,135.965,125.897,50.205,185.833,84.269z"/>
	<path style="fill:#3E4347;" d="M367.753,341.517c0,0,11.696,3.968,26.544,13.632c54.128,33.808,70.144,79.888,76.976,131.744
		c-8.368-46.512-23.52-93.456-80.72-125.6c-14.832-8.656-25.488-11.696-25.488-11.696c-2.272-0.64-3.584-3.008-2.944-5.264
		c0.64-2.272,3.008-3.584,5.28-2.944c0.064,0.016,0.128,0.048,0.192,0.064L367.753,341.517z"/>
	<path style="fill:#3E4347;" d="M357.129,321.629c32.208,3.952,72.448,26.464,102.272,72.752
		c-32.16-43.248-72.912-62.736-103.104-64.256c-2.352-0.112-4.176-2.128-4.048-4.48c0.112-2.368,2.128-4.176,4.48-4.064
		c0.096,0,0.192,0.016,0.288,0.032L357.129,321.629z"/>
	<path style="fill:#3E4347;" d="M387.577,316.605c25.856,1.632,53.728,6.896,73.696,25.472c20.672,17.76,30.512,42.336,38.272,67.28
		c-8.56-23.392-19.264-47.792-40.656-64.416c-20.784-17.12-45.824-20.496-71.6-20.896c-2.064-0.032-3.712-1.728-3.68-3.776
		c0.032-2.064,1.728-3.712,3.776-3.68C387.449,316.605,387.513,316.605,387.577,316.605z"/>
	<path style="fill:#3E4347;" d="M144.281,341.517c0,0-11.696,3.968-26.544,13.632c-54.128,33.808-70.144,79.888-76.976,131.744
		c8.368-46.512,23.52-93.456,80.72-125.6c14.832-8.656,25.488-11.696,25.488-11.696c2.272-0.64,3.584-3.008,2.944-5.264
		c-0.64-2.272-3.008-3.584-5.28-2.944c-0.064,0.016-0.128,0.048-0.192,0.064L144.281,341.517z"/>
	<path style="fill:#3E4347;" d="M154.889,321.629c-32.208,3.952-72.448,26.464-102.272,72.752
		c32.16-43.248,72.912-62.736,103.104-64.256c2.352-0.112,4.176-2.128,4.064-4.48c-0.112-2.368-2.128-4.176-4.48-4.064
		c-0.096,0-0.192,0.016-0.304,0.032L154.889,321.629z"/>
	<path style="fill:#3E4347;" d="M124.441,316.605c-25.856,1.632-53.712,6.896-73.696,25.472
		c-20.656,17.76-30.512,42.336-38.272,67.28c8.56-23.392,19.264-47.792,40.656-64.416c20.784-17.12,45.824-20.496,71.616-20.896
		c2.064-0.032,3.696-1.728,3.68-3.776c-0.032-2.064-1.728-3.712-3.776-3.68C124.569,316.605,124.505,316.605,124.441,316.605z"/>
</g>
<path style="fill:#F4C534;" d="M420.265,215.821c0,43.744-34.704,79.232-77.808,79.232c-42.944,0-77.968-35.504-77.968-79.232
	c0-43.744,35.024-79.232,77.968-79.232C385.561,136.589,420.265,172.077,420.265,215.821z"/>
<path style="fill:#FFFFFF;" d="M405.465,215.821c0,35.392-28.096,64.256-63.024,64.256c-34.768,0-63.168-28.88-63.168-64.256
	c0-35.392,28.4-64.096,63.168-64.096C377.369,151.725,405.465,180.429,405.465,215.821z"/>
<path style="fill:#3E4347;" d="M372.409,215.821c0,16.8-13.472,30.592-29.952,30.592c-16.64,0-30.112-13.792-30.112-30.592
	s13.472-30.432,30.112-30.432C358.937,185.389,372.409,199.021,372.409,215.821z"/>
<ellipse transform="matrix(-0.7072 -0.7071 0.7071 -0.7072 461.2335 598.583)" style="fill:#FFFFFF;" cx="354.575" cy="203.776" rx="8.161" ry="5.264"/>
<path style="fill:#F4C534;" d="M247.529,215.821c0,43.744-34.704,79.232-77.808,79.232c-42.944,0-77.968-35.504-77.968-79.232
	c0-43.744,35.024-79.232,77.968-79.232C212.825,136.589,247.529,172.077,247.529,215.821z"/>
<path style="fill:#FFFFFF;" d="M232.745,215.821c0,35.392-28.096,64.256-63.024,64.256c-34.768,0-63.168-28.88-63.168-64.256
	c0-35.392,28.4-64.096,63.168-64.096C204.649,151.725,232.745,180.429,232.745,215.821z"/>
<path style="fill:#3E4347;" d="M199.673,215.821c0,16.8-13.472,30.592-29.952,30.592c-16.64,0-30.112-13.792-30.112-30.592
	s13.472-30.432,30.112-30.432C186.201,185.389,199.673,199.021,199.673,215.821z"/>
<ellipse transform="matrix(-0.7071 -0.7071 0.7071 -0.7071 166.1747 476.5094)" style="fill:#FFFFFF;" cx="181.776" cy="203.839" rx="8.16" ry="5.264"/>
<path style="fill:#3E4347;" d="M361.641,370.285c-21.152,41.536-60.576,69.504-105.632,69.504c-45.2,0-84.48-27.968-105.632-69.504
	c-3.648-7.296,2.288-15.984,9.584-14.24c63.936,16.16,128.16,16.16,192.096,0C359.369,354.301,365.305,362.989,361.641,370.285z"/>
<path style="fill:#E24B4B;" d="M235.177,402.253c-17.312-0.496-32.368,13.168-25.664,27.072
	c33.344,24.688,24.912,80.736,71.648,82.64c37.536,1.52,45.312-29.488,49.616-102.704c1.408-23.824-18.656-33.552-34.496-22.528
	C277.001,397.389,255.513,402.381,235.177,402.253z"/>
<path style="fill:#FFFFFF;" d="M170.793,358.445c11.2,30.672,45.664,35.824,86.464,35.824c41.056,0,75.648-5.248,86.64-36.432
	C286.265,371.165,228.425,371.357,170.793,358.445z"/>
<g>
</g>
<g>
</g>
<g>
</g>
<g>
</g>
<g>
</g>
<g>
</g>
<g>
</g>
<g>
</g>
<g>
</g>
<g>
</g>
<g>
</g>
<g>
</g>
<g>
</g>
<g>
</g>
<g>
</g>
</svg>
