<?xml version="1.0" encoding="iso-8859-1"?>
<!-- Generator: Adobe Illustrator 19.0.0, SVG Export Plug-In . SVG Version: 6.00 Build 0)  -->
<svg version="1.1" id="Capa_1" xmlns="http://www.w3.org/2000/svg" xmlns:xlink="http://www.w3.org/1999/xlink" x="0px" y="0px"
	 viewBox="0 0 541.924 541.924" style="enable-background:new 0 0 541.924 541.924;" xml:space="preserve">
<g>
	<path style="fill:#FFD93B;" d="M240.642,104.74C171.538,57.3,106.946,16.996,57.634,0.916c-12.4-3.904-24.8,5.392-24.8,18.272
		V278.82l207.824-67.216V104.74H240.642z"/>
	<path style="fill:#FFD93B;" d="M301.346,104.74C370.45,57.284,435.042,16.98,484.354,0.9c12.4-3.904,24.8,5.392,24.8,18.272
		v259.632L301.33,211.588V104.74H301.346z"/>
</g>
<g>
	<path style="fill:#F4C534;" d="M153.186,95.524c-32.24-20.928-61.904-37.792-86.208-46.144v124.336
		C91.378,142.82,120.978,115.684,153.186,95.524z"/>
	<path style="fill:#F4C534;" d="M438.658,145.396c12.528,10.896,25.616,22.64,36.304,35.984v-132
		c-25.792,8.864-57.696,27.392-92.224,50.112C402.722,112.836,420.434,129.54,438.658,145.396z"/>
</g>
<circle style="fill:#FFD93B;" cx="270.962" cy="262.788" r="238.624"/>
<path style="fill:#F4C534;" d="M509.586,262.788c0,131.84-106.848,238.624-238.624,238.624c-75.008,0-141.984-34.592-185.744-88.816
	c40.944,33.104,93.056,52.864,149.808,52.864c131.76,0,238.608-106.784,238.608-238.624c0-56.752-19.76-108.864-52.864-149.808
	C474.914,120.82,509.586,187.78,509.586,262.788z"/>
<path style="fill:#7A5B44;" d="M300.418,324.916c0,10.496-11.904,19.584-20.528,24.752c-5.632,3.296-12.224,3.296-17.856,0
	c-8.464-5.168-20.528-14.256-20.528-24.752c0-16.288,13.312-18.016,29.456-18.016C287.25,306.884,300.418,308.612,300.418,324.916z"
	/>
<path style="fill:#6B503B;" d="M300.418,324.916c0,10.496-11.904,19.584-20.528,24.752c-5.632,3.296-12.224,3.296-17.856,0
	c-5.168-3.136-11.904-7.84-16.144-13.488c2.512,1.888,5.008,3.456,7.216,4.864c6.416,3.76,13.936,3.76,20.368,0
	c9.712-5.792,22.88-15.984,23.344-27.568C299.17,316.132,300.418,319.892,300.418,324.916z"/>
<g>
	<path style="fill:#3E4347;" d="M397.282,381.028c-68.064,64.848-188.176,60.88-253.184-1.152
		C188.018,402.5,356.594,402.34,397.282,381.028z"/>
	<path style="fill:#3E4347;" d="M344.738,88.58c0,0,45.456,2.016,83.12,54.352C427.858,142.916,407.746,52.788,344.738,88.58z"/>
	<path style="fill:#3E4347;" d="M197.186,88.58c0,0-45.456,2.016-83.12,54.352C114.066,142.916,134.194,52.788,197.186,88.58z"/>
	<path style="fill:#3E4347;" d="M388.418,358.996c0,0,12.288,4.16,27.904,14.336c56.896,35.536,73.728,83.984,80.912,138.48
		c-8.784-48.896-24.72-98.24-84.848-132.016c-15.584-9.104-26.8-12.288-26.8-12.288c-2.384-0.672-3.776-3.152-3.088-5.536
		c0.672-2.384,3.168-3.776,5.552-3.088c0.064,0.016,0.128,0.048,0.208,0.064L388.418,358.996z"/>
	<path style="fill:#3E4347;" d="M377.25,338.084c33.856,4.144,76.144,27.808,107.504,76.464
		c-33.792-45.456-76.64-65.952-108.368-67.536c-2.48-0.128-4.384-2.224-4.272-4.704c0.128-2.48,2.224-4.384,4.704-4.272
		c0.112,0.016,0.208,0.016,0.32,0.032L377.25,338.084z"/>
	<path style="fill:#3E4347;" d="M409.25,332.804c27.184,1.712,56.464,7.248,77.472,26.768c21.728,18.672,32.064,44.512,40.24,70.72
		c-8.992-24.592-20.256-50.24-42.736-67.712c-21.856-17.984-48.16-21.552-75.28-21.952c-2.16-0.032-3.888-1.808-3.856-3.968
		c0.032-2.16,1.808-3.888,3.984-3.856C409.122,332.804,409.202,332.804,409.25,332.804z"/>
	<path style="fill:#3E4347;" d="M153.506,358.996c0,0-12.304,4.16-27.904,14.336c-56.896,35.536-73.728,83.984-80.912,138.48
		c8.784-48.896,24.72-98.24,84.848-132.016c15.584-9.104,26.8-12.288,26.8-12.288c2.384-0.672,3.776-3.152,3.088-5.536
		c-0.672-2.384-3.168-3.776-5.552-3.088c-0.064,0.016-0.128,0.048-0.208,0.064L153.506,358.996z"/>
	<path style="fill:#3E4347;" d="M164.674,338.084c-33.856,4.144-76.16,27.808-107.504,76.464
		c33.792-45.456,76.64-65.952,108.368-67.536c2.48-0.128,4.384-2.224,4.272-4.704c-0.128-2.48-2.224-4.384-4.704-4.272
		c-0.112,0.016-0.208,0.016-0.304,0.032L164.674,338.084z"/>
	<path style="fill:#3E4347;" d="M132.674,332.804c-27.184,1.712-56.464,7.248-77.472,26.768
		c-21.728,18.672-32.08,44.512-40.24,70.736c8.992-24.592,20.256-50.24,42.736-67.712c21.856-17.984,48.16-21.552,75.28-21.952
		c2.16-0.032,3.888-1.808,3.856-3.968c-0.032-2.16-1.808-3.888-3.968-3.856C132.802,332.804,132.722,332.804,132.674,332.804z"/>
</g>
<ellipse style="fill:#F4C534;" cx="178.178" cy="223.124" rx="78.64" ry="83.744"/>
<path style="fill:#3E4347;" d="M228.738,159.524l-50.528,50.608l-50.592-50.592c-3.008-2.688-15.36,11.168-12.352,13.856
	l49.84,49.84l-49.808,49.728c-3.872,3.456,8.496,17.312,12.368,13.856l50.544-50.464l50.48,50.48
	c3.328,2.976,15.68-10.896,12.352-13.872l-49.728-49.728l49.76-49.84C244.306,170.516,231.97,156.644,228.738,159.524z"/>
<ellipse style="fill:#F4C534;" cx="363.826" cy="223.124" rx="78.64" ry="83.744"/>
<path style="fill:#3E4347;" d="M414.386,159.524l-50.528,50.608l-50.592-50.592c-3.008-2.688-15.376,11.168-12.352,13.856
	l49.84,49.84l-49.808,49.728c-3.872,3.456,8.496,17.312,12.368,13.856l50.56-50.464l50.48,50.48
	c3.328,2.976,15.68-10.896,12.352-13.872l-49.728-49.728l49.76-49.84C429.954,170.516,417.618,156.644,414.386,159.524z"/>
<path style="fill:#E24B4B;" d="M278.082,428.052c8.928,1.424,19.296,15.616,22.032,28.16c2.72,12.528,1.856,25.536,2.832,38.32
	c2.464,32.224,17.872,47.392,51.936,47.392c32.864,0,49.792-18.08,50.784-47.632c0,0-0.352-93.392-41.872-108.944
	c-37.104-13.888-46.544,13.504-46.544,13.504S278.082,393.076,278.082,428.052z"/>
<path style="fill:#D03F3F;" d="M300.114,456.196c2.72,12.528,1.856,25.536,2.832,38.32c2.464,32.224,17.872,47.392,51.936,47.392
	c27.68,0,43.936-12.96,48.992-34.672c-9.152,17.904-30.864,24.48-56.384,17.616c-21.664-5.84-30.256-34.752-39.248-65.504
	c-9.008-30.752-30.144-31.312-30.144-31.312C287.01,429.476,297.394,443.668,300.114,456.196z"/>
<path style="opacity:0.15;fill:#FFFFFF;enable-background:new    ;" d="M361.122,397.956c-1.984,2.576-7.488,1.76-13.12,1.28
	c-5.504-0.576-11.12-0.944-12.528-3.744c-1.632-2.816,4.448-8.672,13.696-7.728C358.322,388.708,363.122,395.508,361.122,397.956z"
	/>
<g>
</g>
<g>
</g>
<g>
</g>
<g>
</g>
<g>
</g>
<g>
</g>
<g>
</g>
<g>
</g>
<g>
</g>
<g>
</g>
<g>
</g>
<g>
</g>
<g>
</g>
<g>
</g>
<g>
</g>
</svg>
