<?xml version="1.0" encoding="iso-8859-1"?>
<!-- Generator: Adobe Illustrator 22.0.0, SVG Export Plug-In . SVG Version: 6.00 Build 0)  -->
<svg xmlns="http://www.w3.org/2000/svg" xmlns:xlink="http://www.w3.org/1999/xlink" version="1.1" id="Layer_1" x="0px" y="0px" viewBox="0 0 58 58" style="enable-background:new 0 0 58 58;" xml:space="preserve" width="512" height="512">
<g id="_x34_6-Bald">
	<path style="fill:#61B872;" d="M40.632,44.241c-0.115-0.075-0.231-0.152-0.346-0.229C35,42,33.276,41,29,41h-3   c-4.276,0-5,2-8.286,3.012c-0.115,0.077-0.23,0.153-0.346,0.229C7.761,49.836,0,50.442,0,56.442V58h29h29v-1.558   C58,50.442,50.239,49.836,40.632,44.241z"/>
	<path style="fill:#FFFFFF;" d="M23.884,47.244L29,53l5.116-5.756c-1.623,0.483-3.336-1.816-5.116-1.816   C27.22,45.428,25.507,47.727,23.884,47.244z"/>
	<path style="fill:#D3A87D;" d="M11,29h1v-8h-1c-2.209,0-4,1.791-4,4S8.791,29,11,29z"/>
	<path style="fill:#D3A87D;" d="M47,21h-1v8h1c2.209,0,4-1.791,4-4S49.209,21,47,21z"/>
	<path style="fill:#FBCE9D;" d="M29,48L29,48c-9.941,0-18-8.059-18-18V18c0-9.941,8.059-18,18-18l0,0c9.941,0,18,8.059,18,18v12   C47,39.941,38.941,48,29,48z"/>
	<path style="fill:#E7ECED;" d="M11,20.552c0,0,3.477-4.27,12.613-1.762c1.333,0.366,2.349,1.406,2.626,2.686   c0.45,2.085,0.52,6.302-4.764,7.519C11,31.406,11,20.552,11,20.552z"/>
	<path style="fill:#E7ECED;" d="M47,20.552c0,0-3.477-4.27-12.613-1.762c-1.333,0.366-2.349,1.406-2.626,2.686   c-0.45,2.085-0.52,6.302,4.764,7.519C47,31.406,47,20.552,47,20.552z"/>
	<path style="fill:#28384C;" d="M21,26c-1.088,0-2.061-0.497-2.74-1.399c-0.13-0.173-0.2-0.384-0.2-0.601c0-1.103,0.897-2,2-2   c0.552,0,1,0.447,1,1c0,0.398-0.234,0.743-0.571,0.903c0.291,0.117,0.631,0.161,0.984-0.044c0.479-0.274,1.09-0.112,1.366,0.366   c0.276,0.478,0.113,1.09-0.365,1.366C22.004,25.862,21.509,26,21,26z"/>
	<path style="fill:#28384C;" d="M37.508,26c-1.088,0-2.061-0.497-2.74-1.399c-0.13-0.173-0.201-0.384-0.201-0.601   c0-1.103,0.897-2,2-2c0.552,0,1,0.447,1,1c0,0.398-0.234,0.743-0.571,0.903c0.291,0.117,0.631,0.161,0.984-0.044   c0.479-0.274,1.09-0.112,1.366,0.366c0.276,0.478,0.113,1.09-0.365,1.366C38.512,25.862,38.017,26,37.508,26z"/>
	<path style="fill:#D3A87D;" d="M29,35c-2.206,0-4-1.477-4-3.291c0-0.985,0.523-1.908,1.435-2.532   c0.456-0.312,1.078-0.194,1.39,0.261s0.195,1.078-0.26,1.39C27.354,30.972,27,31.278,27,31.709C27,32.396,27.935,33,29,33   s2-0.604,2-1.291c0-0.315-0.207-0.638-0.566-0.883c-0.456-0.312-0.574-0.934-0.263-1.39c0.312-0.457,0.934-0.573,1.39-0.263   C32.475,29.798,33,30.722,33,31.709C33,33.523,31.206,35,29,35z"/>
	<path style="fill:#6B4842;" d="M29,5c-0.552,0-1-0.447-1-1V3c0-0.553,0.448-1,1-1s1,0.447,1,1v1C30,4.553,29.552,5,29,5z"/>
	<path style="fill:#6B4842;" d="M31,8c-0.552,0-1-0.447-1-1V6c0-0.553,0.448-1,1-1s1,0.447,1,1v1C32,7.553,31.552,8,31,8z"/>
	<path style="fill:#6B4842;" d="M39,9c-0.552,0-1-0.447-1-1V7c0-0.553,0.448-1,1-1s1,0.447,1,1v1C40,8.553,39.552,9,39,9z"/>
	<path style="fill:#6B4842;" d="M35,7c-0.552,0-1-0.447-1-1V5c0-0.553,0.448-1,1-1s1,0.447,1,1v1C36,6.553,35.552,7,35,7z"/>
	<path style="fill:#6B4842;" d="M36,10h-1c-0.552,0-1-0.447-1-1s0.448-1,1-1h1c0.552,0,1,0.447,1,1S36.552,10,36,10z"/>
	<path style="fill:#6B4842;" d="M29,5c-0.552,0-1-0.447-1-1V3c0-0.553,0.448-1,1-1s1,0.447,1,1v1C30,4.553,29.552,5,29,5z"/>
	<path style="fill:#6B4842;" d="M27,8c-0.552,0-1-0.447-1-1V6c0-0.553,0.448-1,1-1s1,0.447,1,1v1C28,7.553,27.552,8,27,8z"/>
	<path style="fill:#6B4842;" d="M19,9c-0.552,0-1-0.447-1-1V7c0-0.553,0.448-1,1-1s1,0.447,1,1v1C20,8.553,19.552,9,19,9z"/>
	<path style="fill:#6B4842;" d="M23,7c-0.552,0-1-0.447-1-1V5c0-0.553,0.448-1,1-1s1,0.447,1,1v1C24,6.553,23.552,7,23,7z"/>
	<path style="fill:#6B4842;" d="M23,10h-1c-0.552,0-1-0.447-1-1s0.448-1,1-1h1c0.552,0,1,0.447,1,1S23.552,10,23,10z"/>
	<path style="fill:#AFB6BB;" d="M32.957,20.571c-0.226,0-0.453-0.076-0.639-0.231c-2.072-1.726-4.778-1.787-6.892-0.155   c-0.438,0.336-1.065,0.256-1.403-0.182c-0.337-0.437-0.256-1.064,0.181-1.402c2.842-2.191,6.618-2.109,9.394,0.202   c0.425,0.354,0.482,0.984,0.128,1.408C33.528,20.449,33.243,20.571,32.957,20.571z"/>
	<path style="fill:#EA6248;" d="M25,40c-0.552,0-1-0.447-1-1c0-0.552,0.446-0.998,0.997-1l0,0c0.414-0.002,1.726-0.137,2.296-0.707   c0.227-0.228,0.55-0.332,0.867-0.28s0.591,0.253,0.734,0.54c0.029,0.052,0.203,0.306,0.396,0.333   c0.083,0.018,0.404,0.006,1.002-0.593c0.337-0.338,0.865-0.391,1.262-0.125c0.271,0.177,1.191,0.646,1.794,0.433   c0.111-0.038,0.449-0.156,0.703-0.917c0.175-0.523,0.743-0.807,1.265-0.632c0.524,0.174,0.807,0.74,0.633,1.265   c-0.469,1.406-1.322,1.96-1.955,2.178c-1.067,0.364-2.167,0.029-2.858-0.285c-0.725,0.549-1.454,0.769-2.171,0.65   c-0.47-0.076-0.845-0.285-1.132-0.52C26.625,39.978,25.196,40,25,40z"/>
	<path style="fill:#D3A87D;" d="M32,44c-0.256,0-0.512-0.098-0.707-0.293c-0.756-0.756-2.072-0.756-2.828,0   c-0.391,0.391-1.024,0.391-1.414,0s-0.391-1.023,0-1.414c0.756-0.756,1.761-1.173,2.829-1.173s2.073,0.417,2.829,1.173   c0.39,0.391,0.39,1.023,0,1.414C32.512,43.902,32.256,44,32,44z"/>
	<path style="fill:#EBBA16;" d="M35,54c0.275,0,0.549-0.112,0.746-0.334c0.033-0.037,3.37-3.74,8.59-6.843   c0.173-0.103,0.286-0.256,0.369-0.424c-0.627-0.306-1.266-0.628-1.918-0.971c-5.171,3.182-8.394,6.75-8.533,6.906   c-0.368,0.412-0.332,1.044,0.08,1.412C34.525,53.916,34.762,54,35,54z"/>
	<path style="fill:#EBBA16;" d="M15.213,45.428c-0.652,0.344-1.29,0.666-1.917,0.971c0.083,0.167,0.196,0.321,0.369,0.423   c5.204,3.093,8.557,6.807,8.591,6.844C22.452,53.888,22.726,54,23,54c0.237,0,0.476-0.084,0.666-0.255   c0.411-0.368,0.447-1,0.079-1.411C23.607,52.178,20.384,48.61,15.213,45.428z"/>
	<path style="fill:#E7ECED;" d="M29,58h1v-5c0-0.553-0.448-1-1-1s-1,0.447-1,1v5H29z"/>
</g>

</svg>
