<?xml version="1.0" encoding="iso-8859-1"?>
<!-- Generator: Adobe Illustrator 19.0.0, SVG Export Plug-In . SVG Version: 6.00 Build 0)  -->
<svg version="1.1" id="Capa_1" xmlns="http://www.w3.org/2000/svg" xmlns:xlink="http://www.w3.org/1999/xlink" x="0px" y="0px"
	 viewBox="0 0 512 512" style="enable-background:new 0 0 512 512;" xml:space="preserve">
<g>
	<path style="fill:#FFD93B;" d="M225.68,104.837C156.576,57.381,91.984,17.093,42.672,1.013c-12.4-3.92-24.8,5.392-24.8,18.288
		v259.632l207.824-67.216v-106.88H225.68z"/>
	<path style="fill:#FFD93B;" d="M286.384,104.837c69.104-47.456,133.696-87.76,183.008-103.84c12.4-3.92,24.8,5.392,24.8,18.288
		v259.632l-207.824-67.216V104.837H286.384z"/>
</g>
<g>
	<path style="fill:#F4C534;" d="M138.208,95.605C105.984,74.693,76.32,57.813,52.016,49.461v124.336
		C76.416,142.917,106.016,115.765,138.208,95.605z"/>
	<path style="fill:#F4C534;" d="M423.68,145.493c12.528,10.896,25.616,22.64,36.304,35.984v-132
		c-25.792,8.864-57.696,27.392-92.224,50.112C387.76,112.933,405.472,129.621,423.68,145.493z"/>
</g>
<circle style="fill:#FFD93B;" cx="256" cy="262.885" r="238.624"/>
<path style="fill:#F4C534;" d="M494.608,262.885c0,131.84-106.848,238.608-238.624,238.608c-75.008,0-141.968-34.608-185.744-88.816
	c40.944,33.104,93.056,52.864,149.808,52.864c131.76,0,238.624-106.784,238.624-238.624c0-56.752-19.76-108.864-52.864-149.808
	C459.936,120.917,494.608,187.877,494.608,262.885z"/>
<path style="fill:#7A5B44;" d="M285.456,324.997c0,10.496-11.904,19.584-20.528,24.752c-5.648,3.296-12.224,3.296-17.856,0
	c-8.464-5.168-20.528-14.256-20.528-24.752c0-16.304,13.312-18.016,29.456-18.016C272.288,306.981,285.456,308.709,285.456,324.997z
	"/>
<path style="fill:#6B503B;" d="M285.456,324.997c0,10.496-11.904,19.584-20.528,24.752c-5.648,3.296-12.224,3.296-17.856,0
	c-5.168-3.136-11.904-7.84-16.144-13.488c2.512,1.888,5.008,3.456,7.216,4.864c6.416,3.76,13.952,3.76,20.368,0
	c9.712-5.792,22.88-15.984,23.344-27.568C284.208,316.229,285.456,319.989,285.456,324.997z"/>
<path style="fill:#3E4347;" d="M353.04,375.061c-9.712,32.032-29.984,52.896-53.936,64.048
	c-28.688,13.376-58.864,12.528-86.256-0.544c-23.968-11.44-44.288-32.752-53.952-64.768c13.12,22.08,36.224,29.76,58.352,37.536
	c21.696,8.336,54.384,9.088,77.456,0.528C321.824,402.741,342.624,392.661,353.04,375.061z"/>
<circle style="fill:#F4C534;" cx="153.056" cy="241.285" r="85.728"/>
<circle style="fill:#FFFFFF;" cx="153.056" cy="241.285" r="69.856"/>
<ellipse style="fill:#3E4347;" cx="153.071" cy="241.287" rx="32.16" ry="32.16"/>
<path style="fill:#F4C534;" d="M225.936,286.021c-48.048-31.36-87.216-70.528-117.664-117.664
	c32.992-20.128,76.88-16.32,105.52,12.32C242.256,209.317,246.064,253.013,225.936,286.021z"/>
<path style="fill:#FFFFFF;" d="M145.312,221.749c2.064,2.144,1.216,6.496-2.176,9.776c-3.264,3.136-7.776,3.936-9.84,1.792
	c-2.224-2.304-1.248-6.784,2.016-9.936C138.704,220.117,143.216,219.317,145.312,221.749z"/>
<circle style="fill:#F4C534;" cx="358.944" cy="241.285" r="85.728"/>
<circle style="fill:#FFFFFF;" cx="358.944" cy="241.285" r="69.856"/>
<ellipse style="fill:#3E4347;" cx="358.994" cy="241.245" rx="32.16" ry="32.16"/>
<path style="fill:#F4C534;" d="M286.064,286.021c48.048-31.36,87.216-70.528,117.664-117.664
	c-32.992-20.128-76.88-16.32-105.52,12.32C269.744,209.317,265.936,253.013,286.064,286.021z"/>
<path style="fill:#FFFFFF;" d="M366.688,221.749c-2.064,2.144-1.216,6.496,2.176,9.776c3.264,3.136,7.776,3.936,9.84,1.792
	c2.224-2.304,1.248-6.784-2.016-9.936C373.296,220.117,368.784,219.317,366.688,221.749z"/>
<g>
	<path style="fill:#3E4347;" d="M329.776,88.661c0,0,45.456,2.016,83.12,54.352C412.896,143.013,392.784,52.869,329.776,88.661z"/>
	<path style="fill:#3E4347;" d="M182.224,88.661c0,0-45.456,2.016-83.12,54.352C99.104,143.013,119.216,52.869,182.224,88.661z"/>
	<path style="fill:#3E4347;" d="M373.456,359.093c0,0,12.304,4.176,27.904,14.336c56.896,35.552,73.728,83.984,80.912,138.48
		c-8.784-48.896-24.72-98.24-84.848-132.032c-15.584-9.104-26.8-12.288-26.8-12.288c-2.384-0.672-3.776-3.152-3.088-5.536
		c0.672-2.384,3.168-3.776,5.552-3.088c0.064,0.016,0.128,0.048,0.208,0.064L373.456,359.093z"/>
	<path style="fill:#3E4347;" d="M362.288,338.181c33.856,4.144,76.144,27.808,107.504,76.464
		c-33.808-45.456-76.64-65.952-108.368-67.536c-2.48-0.128-4.384-2.224-4.272-4.704c0.128-2.48,2.24-4.384,4.704-4.272
		c0.112,0.016,0.208,0.016,0.32,0.032L362.288,338.181z"/>
	<path style="fill:#3E4347;" d="M394.288,332.901c27.184,1.712,56.464,7.248,77.472,26.768c21.728,18.672,32.064,44.512,40.24,70.72
		c-8.992-24.592-20.256-50.24-42.752-67.712c-21.856-17.984-48.16-21.552-75.264-21.952c-2.16-0.032-3.888-1.808-3.856-3.968
		c0.032-2.16,1.808-3.888,3.968-3.872C394.16,332.901,394.24,332.901,394.288,332.901z"/>
	<path style="fill:#3E4347;" d="M138.544,359.093c0,0-12.304,4.176-27.904,14.336c-56.896,35.552-73.728,83.984-80.912,138.48
		c8.784-48.896,24.72-98.24,84.848-132.032c15.584-9.104,26.8-12.288,26.8-12.288c2.384-0.672,3.776-3.152,3.088-5.536
		c-0.672-2.384-3.168-3.776-5.552-3.088c-0.064,0.016-0.128,0.048-0.208,0.064L138.544,359.093z"/>
	<path style="fill:#3E4347;" d="M149.712,338.181c-33.856,4.144-76.144,27.808-107.504,76.464
		c33.808-45.456,76.64-65.952,108.368-67.536c2.48-0.128,4.384-2.224,4.272-4.704c-0.128-2.48-2.24-4.384-4.704-4.272
		c-0.112,0.016-0.208,0.016-0.304,0.032L149.712,338.181z"/>
	<path style="fill:#3E4347;" d="M117.712,332.901c-27.184,1.712-56.464,7.248-77.472,26.768C18.512,378.341,8.16,404.181,0,430.389
		c8.992-24.592,20.24-50.24,42.736-67.712c21.856-17.984,48.16-21.552,75.264-21.952c2.16-0.032,3.888-1.808,3.856-3.968
		c-0.032-2.16-1.808-3.888-3.968-3.872C117.84,332.901,117.76,332.901,117.712,332.901z"/>
</g>
<g>
</g>
<g>
</g>
<g>
</g>
<g>
</g>
<g>
</g>
<g>
</g>
<g>
</g>
<g>
</g>
<g>
</g>
<g>
</g>
<g>
</g>
<g>
</g>
<g>
</g>
<g>
</g>
<g>
</g>
</svg>
