<?xml version="1.0" encoding="iso-8859-1"?>
<!-- Generator: Adobe Illustrator 22.0.0, SVG Export Plug-In . SVG Version: 6.00 Build 0)  -->
<svg xmlns="http://www.w3.org/2000/svg" xmlns:xlink="http://www.w3.org/1999/xlink" version="1.1" id="Layer_1" x="0px" y="0px" viewBox="0 0 58 58" style="enable-background:new 0 0 58 58;" xml:space="preserve" width="512" height="512">
<g id="_x34_7-Curly">
	<path style="fill:#FC3952;" d="M46.41,49.838c-0.673-0.045-1.464-0.301-2.403-0.838l-5.308-3.852   c0.192-0.123,0.367-0.269,0.555-0.4C36.339,46.783,32.814,48,28.99,48c-3.604,0-6.947-1.078-9.76-2.905L13.993,49   c-0.956,0.547-1.758,0.801-2.438,0.839C7.812,52.182,1.524,54.924,0,58h58C56.476,54.924,50.147,52.181,46.41,49.838z"/>
	<g>
		<path style="fill:#AD2740;" d="M11.151,32.22C11.82,37.651,18.603,38.178,23,41l2.225,8.29C25.711,49.629,26,50.185,26,50.777    v0.003c0,1.148-1.052,2.008-2.177,1.778c-1.387-0.283-3.093-0.659-4.03-0.971c-2.222-0.738-5.799-2.586-5.8-2.587    C7,53,8,41.781,8,39C8,36.432,9.222,34.117,11.151,32.22z"/>
	</g>
	<g>
		<path style="fill:#AD2740;" d="M46.849,32.22C46.18,37.651,38.397,40.178,34,43l-1.225,6.29C32.289,49.629,32,50.185,32,50.777    v0.003c0,1.148,1.052,2.008,2.177,1.778c1.387-0.283,3.093-0.659,4.03-0.971c2.222-0.738,5.799-2.586,5.8-2.587    C51,53,50,41.781,50,39C50,36.432,48.778,34.117,46.849,32.22z"/>
	</g>
	<path style="fill:#EDB883;" d="M28.99,48c-3.191,0-5.396-1.539-7.99-3c-0.009,0.026-0.992-1.026-1-1l5.226,5.29   C25.711,49.629,26,50.184,26,50.777c0,0.707-0.4,1.301-0.968,1.603C26.23,52.773,27.574,55,29,55c1.425,0,2.767-2.227,3.965-2.62   C32.398,52.078,32,51.485,32,50.78v-0.003c0-0.592,0.289-1.148,0.775-1.487l5.034-3.52c-0.01-0.031-0.024-0.06-0.035-0.09   C35.175,47.146,32.188,48,28.99,48z"/>
	<path style="fill:#FBCE9D;" d="M47.21,17.876c0-0.301-0.022-0.596-0.041-0.891v-0.109h-0.005c-0.004-0.061-0.005-0.122-0.008-0.183   c-0.013-0.058-0.036-0.108-0.052-0.165c-0.317-2.599-4.156-1.808-6.825-3.528c-2.878-1.856-6.822,2-11.175,2s-8.294-2.856-11.17-1   c-2.786,1.797-8.594,6.262-8.791,9H9.105v10h0.041v0.132c0,1.858,2.708,1.407,3.855,2.868l4.584,5.631l1.508,1.921l2.573,3.279   c1.57,2.001,3.97,3.169,6.511,3.169h2.7c2.674,0,5.184-1.293,6.738-3.472l2.376-3.331l1.073-1.757l2.519-3.278   c1.003-1.406,5.522-4.434,5.522-6.162L47.21,20c-0.019-0.042,0-0.124,0-0.124V17.876z"/>
	<path style="fill:#ED8A19;" d="M53.014,18.572l-1.48-1.817c-0.722-0.887-1.113-1.957-1.116-3.056l-0.008-2.25   c-0.008-2.255-1.63-4.248-4.019-4.937l-2.383-0.687c-1.164-0.336-2.18-0.994-2.902-1.881L39.629,2.13   c-1.481-1.819-4.097-2.574-6.481-1.869L30.77,0.965c-1.166,0.345-2.407,0.35-3.576,0.013L24.808,0.29   c-2.388-0.689-5,0.084-6.468,1.913l-1.465,1.825c-0.716,0.892-1.727,1.557-2.889,1.901l-2.378,0.703   c-2.384,0.705-3.992,2.709-3.984,4.964l0.008,2.25c0.004,1.099-0.38,2.172-1.095,3.063l-1.465,1.825   c-1.437,1.79-1.428,4.34,0.021,6.12l1.478,1.814c0.722,0.887,1.113,1.957,1.117,3.056l0.008,2.25   c0.008,2.255,1.63,4.248,4.019,4.937c1.112,1.489,2.664,2.519,4.432,2.949l-1.228-1.608c-0.329-0.417-0.617-1.024-0.863-1.679   c-0.666-1.78-0.951-3.68-0.944-5.581L13.144,23c0.197-2.738,1.987-5.203,4.777-7c2.88-1.856,6.826,3,11.185,3s8.307-4.856,11.189-3   c2.673,1.721,4.429,4.053,4.746,6.652c0.015,0.056,0.054,3.43,0.074,3.472v7.219l0,0c0,1.728-0.508,3.413-1.512,4.819l-1.132,1.449   c1.546-0.501,3.019-1.458,4.011-2.796l0.017-0.022c2.384-0.705,3.992-2.709,3.984-4.964l-0.008-2.25   c-0.004-1.099,0.38-2.172,1.095-3.063l1.465-1.825C54.472,22.901,54.463,20.351,53.014,18.572z"/>
	<path style="fill:#FFFFFF;" d="M23,56c-0.552,0-1-0.448-1-1v-4c0-0.552,0.448-1,1-1s1,0.448,1,1v4C24,55.552,23.552,56,23,56z"/>
	<path style="fill:#FFFFFF;" d="M35,56c-0.552,0-1-0.448-1-1v-4c0-0.552,0.448-1,1-1s1,0.448,1,1v4C36,55.552,35.552,56,35,56z"/>
	<path style="fill:#EA6248;" d="M29,41.997c-1.233,0-2.467-0.396-3.543-1.191c-0.444-0.328-0.539-0.954-0.21-1.398   c0.328-0.445,0.955-0.539,1.398-0.211c1.453,1.073,3.258,1.073,4.71-0.001c0.444-0.328,1.07-0.232,1.398,0.21   c0.328,0.444,0.234,1.07-0.21,1.399C31.468,41.6,30.234,41.997,29,41.997z"/>
	<path style="fill:#D3A87D;" d="M28,38c-0.552,0-1-0.447-1-1s0.448-1,1-1s1-0.448,1-1c0-0.322-0.15-0.616-0.41-0.808   c-0.445-0.327-0.542-0.953-0.215-1.398c0.327-0.444,0.952-0.542,1.398-0.215C30.541,33.144,31,34.048,31,35   C31,36.654,29.654,38,28,38z"/>
	<path style="fill:#D3A87D;" d="M30,45h-2c-0.552,0-1-0.447-1-1s0.448-1,1-1h2c0.552,0,1,0.447,1,1S30.552,45,30,45z"/>
	<g>
		<path style="fill:#28384C;" d="M13,24.06c0,2.448,0.179,9.381,4.571,9.841C28.143,35.009,29,26.507,29,24.06    C24.043,21.313,17.957,21.313,13,24.06z"/>
	</g>
	<path style="fill:#28384C;" d="M29,24.06c0,2.448,0.857,10.949,11.429,9.841C44.821,33.441,45,26.507,45,24.06   C40.043,21.313,33.957,21.313,29,24.06z"/>
	<path style="fill:#46596D;" d="M23.925,22.264L17.4,29.056c-0.383,0.397-0.37,1.031,0.028,1.413   c0.194,0.187,0.444,0.279,0.693,0.279c0.263,0,0.525-0.103,0.721-0.308l7.317-7.617C25.427,22.583,24.68,22.399,23.925,22.264z"/>
	<path style="fill:#46596D;" d="M17.451,24.283l-4.091,4.225c0.144,0.763,0.346,1.523,0.627,2.227l4.901-5.062   c0.384-0.396,0.374-1.029-0.023-1.414C18.469,23.877,17.836,23.886,17.451,24.283z"/>
</g>

</svg>
