<?xml version="1.0" encoding="iso-8859-1"?>
<!-- Generator: Adobe Illustrator 22.0.0, SVG Export Plug-In . SVG Version: 6.00 Build 0)  -->
<svg xmlns="http://www.w3.org/2000/svg" xmlns:xlink="http://www.w3.org/1999/xlink" version="1.1" x="0px" y="0px" viewBox="0 0 58 59" style="enable-background:new 0 0 58 59;" xml:space="preserve" width="512" height="512">
<g id="_x34_8-Polo">
	<rect x="16" y="38" style="fill:#D3A87D;" width="26" height="16"/>
	<g>
		<path style="fill:#366DB6;" d="M43.63,43.942L36,47l-7,2.428L22,48l-7.63-4.058C6.374,47.896,0,49.214,0,54.442v1.132    c0.973-0.052,2.067,0.752,1.816,2.004c0.198,0.096,0.502,0.127,0.659,0.156c0.674,0.128,1.408,0.085,2.088,0.057    c1.405-0.057,2.79-0.284,4.187-0.414c1.102-0.102,1.609,0.76,1.542,1.622h37.857c0.145-0.656,0.647-1.216,1.518-1.206    c1.297,0.015,2.625,0.233,3.92,0.142c1.339-0.094,2.169-0.844,3.016-1.834c0.422-0.494,0.933-0.611,1.397-0.492v-1.169    C58,49.214,51.625,47.896,43.63,43.942z"/>
	</g>
	<polygon style="fill:#FBCE9D;" points="11,59 0,59 0,55 10,55  "/>
	<polygon style="fill:#FBCE9D;" points="47,59 58,59 58,55 48,55  "/>
	<path style="fill:#1F436D;" d="M10,56c-0.256,0-0.512-0.098-0.707-0.293c-0.391-0.391-0.391-1.023,0-1.414l1-1   c0.391-0.391,1.023-0.391,1.414,0s0.391,1.023,0,1.414l-1,1C10.512,55.902,10.256,56,10,56z"/>
	<path style="fill:#1F436D;" d="M48,56c-0.256,0-0.512-0.098-0.707-0.293l-1-1c-0.391-0.391-0.391-1.023,0-1.414   s1.023-0.391,1.414,0l1,1c0.391,0.391,0.391,1.023,0,1.414C48.512,55.902,48.256,56,48,56z"/>
	<path d="M22.027,31c-1.087,0-2.061-0.497-2.739-1.398c-0.13-0.174-0.201-0.385-0.201-0.602c0-1.103,0.897-2,2-2   c0.552,0,1,0.447,1,1c0,0.398-0.233,0.743-0.571,0.903c0.292,0.119,0.634,0.159,0.982-0.042c0.478-0.279,1.09-0.115,1.367,0.362   s0.115,1.089-0.362,1.367C23.034,30.862,22.538,31,22.027,31z"/>
	<g>
		<path style="fill:#D3A87D;" d="M17,35v-4v-6c0,0-3.994,2.271-3.989,1H13c-2.209,0-4,1.791-4,4c0,2.209,1.791,4,4,4h0.138    C13.056,33.344,17,35.679,17,35z"/>
		<path style="fill:#D3A87D;" d="M45.433,26.044C45.235,26.918,42.079,24.715,42,25v6v3c0,0.679,2.944-0.656,2.862,0H45    c2.209,0,4-1.791,4-4C49,27.94,47.436,26.263,45.433,26.044z"/>
	</g>
	<path style="fill:#1F436D;" d="M15.744,40.961c-0.972,0.53-1.935,1.031-2.871,1.483L24.428,54l4.714-4.714L19,43   C18,40,18.408,44.895,15.744,40.961z"/>
	<path style="fill:#1F436D;" d="M42.256,40.961C38,43,41.014,43.625,36,44l-7,5.241v0.187L33.572,54l11.556-11.556   C44.194,41.993,43.231,41.492,42.256,40.961z"/>
	<g>
		<path style="fill:#FBCE9D;" d="M44.943,28c-2.604,0,0.35-6.997,0.057-9c-3.175,1.483-8.426-3-13-3s-13.825-1.517-17-3    c-0.292,2.003,0.604,15-2,15v3v1c0,8.837,7.164,16,16,16s16-7.163,16-16v-1v-3.205C44.966,27.918,44.943,28,44.943,28z"/>
	</g>
	<path style="fill:#C49716;" d="M19,26.6c-0.392,0-0.764-0.231-0.924-0.616c-0.212-0.511,0.03-1.096,0.54-1.308   c2.046-0.849,4.636-0.896,6.3-0.117c0.5,0.234,0.715,0.83,0.48,1.33s-0.832,0.714-1.33,0.48c-1.155-0.542-3.168-0.477-4.683,0.154   C19.258,26.575,19.128,26.6,19,26.6z"/>
	<path style="fill:#366DB6;" d="M22.027,31c-1.087,0-2.061-0.497-2.739-1.398c-0.13-0.174-0.201-0.385-0.201-0.602   c0-1.103,0.897-2,2-2c0.552,0,1,0.447,1,1c0,0.398-0.233,0.743-0.571,0.903c0.292,0.119,0.634,0.159,0.982-0.042   c0.478-0.279,1.09-0.115,1.367,0.362s0.115,1.089-0.362,1.367C23.034,30.862,22.538,31,22.027,31z"/>
	<path style="fill:#C49716;" d="M39,26.6c-0.128,0-0.258-0.024-0.383-0.076c-1.515-0.631-3.53-0.695-4.684-0.154   c-0.5,0.234-1.096,0.02-1.33-0.48s-0.02-1.096,0.48-1.33c1.665-0.78,4.255-0.732,6.301,0.117c0.51,0.212,0.751,0.797,0.54,1.308   C39.764,26.368,39.392,26.6,39,26.6z"/>
	<path style="fill:#366DB6;" d="M36.94,31c-1.088,0-2.061-0.497-2.739-1.399C34.07,29.428,34,29.217,34,29c0-1.103,0.897-2,2-2   c0.552,0,1,0.447,1,1c0,0.398-0.233,0.743-0.571,0.903c0.292,0.119,0.636,0.158,0.981-0.042c0.477-0.277,1.089-0.116,1.367,0.361   s0.116,1.09-0.361,1.367C37.948,30.862,37.452,31,36.94,31z"/>
	<path style="fill:#D3A87D;" d="M29.142,37c-1.13,0-2.214-0.485-2.974-1.331c-0.369-0.411-0.335-1.043,0.076-1.412   c0.411-0.37,1.042-0.335,1.412,0.076c0.762,0.849,2.212,0.848,2.973-0.001c0.368-0.41,1-0.446,1.412-0.076   c0.411,0.369,0.445,1.001,0.076,1.412C31.358,36.515,30.273,37,29.142,37z"/>
	<path style="fill:#D3A87D;" d="M30.142,46h-2c-0.552,0-1-0.447-1-1s0.448-1,1-1h2c0.552,0,1,0.447,1,1S30.694,46,30.142,46z"/>
	<path style="fill:#EA6248;" d="M27.083,42.933c-0.395,0-0.792-0.021-1.19-0.064c-0.549-0.059-0.946-0.552-0.887-1.101   c0.059-0.55,0.554-0.947,1.101-0.888c2.719,0.291,5.392-0.651,7.328-2.587c0.391-0.391,1.023-0.391,1.414,0s0.391,1.023,0,1.414   C32.767,41.79,29.987,42.933,27.083,42.933z"/>
	<path style="fill:#EBBA16;" d="M34.9,3.547C29.871,1.003,21,1,21,1c0.905,0.453,1.398,1.314,1.669,2.122   c-2.473,0.344-4.796,1.428-6.513,3.262C14.623,8.022,13.176,10.051,13,12c0,0-0.03,0.513-0.03,0.542C13.057,21.256,13,28,13,28   c2.604,0,3.796-6.388,4.088-8.391C20.264,21.093,24.426,22,29,22s8.736-0.908,11.912-2.391C41.204,21.612,42.339,28,44.943,28   c0,0,2.057-7,2.057-16C46.645,8.048,41.679,4.782,34.9,3.547z"/>
	<path style="fill:#C49716;" d="M29,23c-3.896,0-7.408-2.607-8.95-6.644c-0.526-1.377-0.793-2.843-0.793-4.356c0-0.553,0.448-1,1-1   s1,0.447,1,1c0,1.269,0.223,2.494,0.661,3.644C23.162,18.897,25.941,21,29,21c2.433,0,4.678-1.294,6.159-3.549   c0.304-0.462,0.924-0.59,1.385-0.287c0.462,0.304,0.59,0.923,0.287,1.385C35,21.336,32.073,23,29,23z"/>
	<path style="fill:#C49716;" d="M40,9c-0.256,0-0.512-0.098-0.707-0.293l-3-3c-2.473-2.474-8.921-3.376-12.971-3.626   C23.988,3.449,24,4.905,24,5c0,0.553-0.448,1-1,1c-0.551,0-0.999-0.446-1-0.997c0-0.046-0.062-2.416-1.447-3.108   c-0.415-0.207-0.632-0.673-0.526-1.124S20.536,0,21,0c0.507,0,12.463,0.049,16.707,4.293l3,3c0.391,0.391,0.391,1.023,0,1.414   C40.512,8.902,40.256,9,40,9z"/>
</g>

</svg>
