<?xml version="1.0" encoding="iso-8859-1"?>
<!-- Generator: Adobe Illustrator 19.0.0, SVG Export Plug-In . SVG Version: 6.00 Build 0)  -->
<svg version="1.1" id="Capa_1" xmlns="http://www.w3.org/2000/svg" xmlns:xlink="http://www.w3.org/1999/xlink" x="0px" y="0px"
	 viewBox="0 0 511.954 511.954" style="enable-background:new 0 0 511.954 511.954;" xml:space="preserve">
<g>
	<path style="fill:#FFD93B;" d="M227.465,98.514C162.457,53.874,101.705,15.97,55.321,0.85C43.657-2.83,31.993,5.906,31.993,18.034
		v244.208l195.472-63.216V98.514z"/>
	<path style="fill:#FFD93B;" d="M284.553,98.514C349.545,53.874,410.297,15.97,456.697,0.85c11.664-3.68,23.328,5.072,23.328,17.2
		v244.208l-195.472-63.216V98.514z"/>
</g>
<g>
	<path style="fill:#F4C534;" d="M145.193,89.826c-30.304-19.68-58.224-35.552-81.088-43.408v116.96
		C87.065,134.322,114.905,108.786,145.193,89.826z"/>
	<path style="fill:#F4C534;" d="M413.705,136.738c11.776,10.256,24.096,21.296,34.144,33.84V46.418
		c-24.272,8.336-54.256,25.76-86.736,47.136C379.897,106.114,396.569,121.826,413.705,136.738z"/>
</g>
<circle style="fill:#FFD93B;" cx="255.977" cy="247.154" r="224.48"/>
<g>
	<path style="fill:#F4C534;" d="M480.409,247.17c0,124-100.512,224.432-224.432,224.432c-70.56,0-133.536-32.544-174.704-83.536
		c38.512,31.136,87.536,49.728,140.896,49.728c123.936,0,224.432-100.432,224.432-224.432c0-53.376-18.592-102.4-49.728-140.896
		C447.801,113.618,480.409,176.61,480.409,247.17z"/>
	<circle style="fill:#F4C534;" cx="154.745" cy="232.514" r="86.304"/>
	<path style="fill:#F4C534;" d="M228.633,232.546c-2.272,41.056-37.184,74.32-77.968,74.32c-40.8,0-72.144-33.264-69.872-74.32
		c2.272-41.056,37.312-74.448,78.112-74.448C199.689,158.098,230.905,191.49,228.633,232.546z"/>
</g>
<path style="fill:#3E4347;" d="M167.561,86.658c0,0-45.6-6.416-93.472,49.008C74.089,135.666,105.033,36.402,167.561,86.658z"/>
<g>
	<circle style="fill:#F4C534;" cx="357.209" cy="232.514" r="86.304"/>
	<path style="fill:#F4C534;" d="M283.321,232.546c2.272,41.056,37.184,74.32,77.968,74.32c40.8,0,72.144-33.264,69.872-74.32
		c-2.272-41.056-37.312-74.448-78.112-74.448S281.049,191.49,283.321,232.546z"/>
</g>
<path style="fill:#3E4347;" d="M344.393,86.658c0,0,45.6-6.416,93.472,49.008C437.865,135.666,406.905,36.402,344.393,86.658z"/>
<path style="fill:#7A5B44;" d="M283.689,305.586c0,9.872-11.2,18.416-19.312,23.28c-5.312,3.088-11.488,3.088-16.8,0
	c-7.952-4.864-19.312-13.408-19.312-23.28c0-15.328,12.528-16.944,27.712-16.944C271.305,288.642,283.689,290.258,283.689,305.586z"
	/>
<path style="fill:#6B503B;" d="M283.689,305.586c0,9.872-11.2,18.416-19.312,23.28c-5.312,3.088-11.488,3.088-16.8,0
	c-4.864-2.944-11.2-7.376-15.184-12.672c2.352,1.776,4.72,3.248,6.784,4.576c6.048,3.536,13.12,3.536,19.152,0
	c9.136-5.44,21.52-15.024,21.952-25.936C282.505,297.33,283.689,300.866,283.689,305.586z"/>
<g>
	<path style="fill:#3E4347;" d="M443.497,232.482c0,2.64-0.592,5.312-1.616,7.808c-7.52-16.656-42.592-29.328-84.736-29.328
		c-42,0-77.072,12.672-84.592,29.328c-1.04-2.496-1.616-5.168-1.616-7.808c0-22.688,38.608-41.264,86.208-41.264
		C404.873,191.218,443.497,209.794,443.497,232.482z"/>
	<path style="fill:#3E4347;" d="M241.001,232.482c0,2.64-0.592,5.312-1.616,7.808c-7.52-16.656-42.592-29.328-84.736-29.328
		c-42,0-77.072,12.672-84.592,29.328c-1.024-2.496-1.616-5.168-1.616-7.808c0-22.688,38.608-41.264,86.208-41.264
		C202.393,191.218,241.001,209.794,241.001,232.482z"/>
</g>
<path style="fill:#E24B4B;" d="M326.713,395.09c0,14.544-31.68,39.824-70.704,39.824s-70.704-25.28-70.704-39.824
	C232.425,377.538,279.561,377.554,326.713,395.09z"/>
<path style="fill:#BF3333;" d="M326.729,395.09c-15.92,3.584-47.616,8.368-62.08,0.96c-5.28-3.2-12-3.04-17.44,0
	c0,0-5.168,2.976-16.16,3.68c-8.24,0.736-25.936-0.176-45.76-4.64c12,0.56,48.592,2.384,59.04-3.52h0.16
	c3.408-3.52,14.768-5.28,22.72-0.16c0.16,0,0.16,0.16,0.32,0.16C278.585,397.554,314.121,395.682,326.729,395.09z"/>
<ellipse style="fill:#3E4347;" cx="255.977" cy="393.634" rx="19.008" ry="10.192"/>
<path style="fill:#E24B4B;" d="M326.697,395.106c0,0-46.528,6.608-60.416-1.184c-0.08-0.08-0.16-0.128-0.24-0.16
	c-6.32-3.776-13.92-3.664-20.288,0.08c-0.032,0-0.08,0.048-0.128,0.08c-13.84,7.808-60.416,1.184-60.416,1.184
	s18.352-33.712,32.16-39.872c8.16-3.664,17.68-3.792,25.696-1.008c8.304,2.896,17.52,2.88,25.824-0.016
	c7.984-2.784,17.504-2.64,25.68,1.008C308.345,361.394,326.697,395.106,326.697,395.106z"/>
<g>
	<path style="fill:#3E4347;" d="M347.945,368.21c0,0,11.568,3.92,26.24,13.488c53.504,33.424,69.344,78.992,76.096,130.256
		c-8.272-45.984-23.264-92.4-79.808-124.176c-14.656-8.56-25.2-11.552-25.2-11.552c-2.24-0.624-3.552-2.96-2.912-5.216
		c0.64-2.24,2.976-3.552,5.216-2.912c0.064,0.016,0.128,0.048,0.192,0.064L347.945,368.21z"/>
	<path style="fill:#3E4347;" d="M361.033,353.138c31.84,3.904,71.632,26.16,101.12,71.92c-31.792-42.768-72.08-62.032-101.936-63.52
		c-2.336-0.112-4.128-2.096-4.016-4.416c0.112-2.336,2.096-4.128,4.432-4.016c0.096,0,0.192,0.016,0.288,0.032L361.033,353.138z"/>
	<path style="fill:#3E4347;" d="M366.041,331.25c0,0,2.4,0.144,6.608,0.416c4.096,0.24,10.512,0.848,17.696,2.24
		c7.28,1.2,15.648,3.632,24.176,7.184c4.272,1.792,8.496,4.032,12.64,6.56c4.048,2.672,8.144,5.44,11.744,8.784
		c15.008,12.896,24.432,30.512,29.984,43.744c2.608,6.752,4.736,12.384,5.888,16.464c1.248,4.016,1.968,6.32,1.968,6.32
		s-0.832-2.256-2.272-6.224c-1.328-4-3.728-9.52-6.624-16.096c-6.144-12.896-16.304-29.728-31.296-41.376
		c-14.688-12.096-33.328-17.488-47.216-19.232c-7.04-0.992-12.672-1.28-16.976-1.328c-4.208-0.064-6.624-0.096-6.624-0.096
		c-2.032-0.032-3.664-1.712-3.632-3.728c0.032-2.032,1.696-3.664,3.744-3.632C365.913,331.25,365.993,331.25,366.041,331.25z"/>
	<path style="fill:#3E4347;" d="M164.009,368.21c0,0-11.568,3.92-26.256,13.488c-53.504,33.424-69.344,78.992-76.096,130.256
		c8.272-45.984,23.248-92.4,79.808-124.176c14.656-8.56,25.2-11.552,25.2-11.552c2.24-0.624,3.552-2.96,2.912-5.216
		c-0.64-2.24-2.976-3.552-5.216-2.912c-0.064,0.016-0.128,0.048-0.192,0.064L164.009,368.21z"/>
	<path style="fill:#3E4347;" d="M150.921,353.138c-31.84,3.904-71.632,26.16-101.12,71.92c31.792-42.768,72.08-62.032,101.936-63.52
		c2.336-0.112,4.128-2.096,4.016-4.416c-0.112-2.336-2.096-4.128-4.432-4.016c-0.096,0-0.192,0.016-0.288,0.032L150.921,353.138z"/>
	<path style="fill:#3E4347;" d="M145.913,331.25c0,0-2.4,0.144-6.608,0.416c-4.112,0.24-10.512,0.848-17.696,2.24
		c-7.28,1.2-15.648,3.632-24.176,7.184c-4.272,1.792-8.496,4.032-12.64,6.56c-4.048,2.672-8.144,5.44-11.744,8.784
		c-15.008,12.896-24.416,30.512-29.984,43.744c-2.608,6.752-4.736,12.384-5.872,16.464c-1.248,4.016-1.968,6.32-1.968,6.32
		s0.832-2.256,2.272-6.224c1.328-4,3.728-9.52,6.64-16.096c6.144-12.896,16.304-29.728,31.296-41.376
		c14.688-12.096,33.328-17.488,47.216-19.232c7.04-0.992,12.672-1.28,16.976-1.328c4.208-0.064,6.608-0.096,6.608-0.096
		c2.032-0.032,3.664-1.712,3.632-3.728c-0.032-2.032-1.696-3.664-3.744-3.632C146.041,331.25,145.961,331.25,145.913,331.25z"/>
</g>
<g>
</g>
<g>
</g>
<g>
</g>
<g>
</g>
<g>
</g>
<g>
</g>
<g>
</g>
<g>
</g>
<g>
</g>
<g>
</g>
<g>
</g>
<g>
</g>
<g>
</g>
<g>
</g>
<g>
</g>
</svg>
