<?xml version="1.0" encoding="iso-8859-1"?>
<!-- Generator: Adobe Illustrator 19.0.0, SVG Export Plug-In . SVG Version: 6.00 Build 0)  -->
<svg version="1.1" id="Capa_1" xmlns="http://www.w3.org/2000/svg" xmlns:xlink="http://www.w3.org/1999/xlink" x="0px" y="0px"
	 viewBox="0 0 511.998 511.998" style="enable-background:new 0 0 511.998 511.998;" xml:space="preserve">
<g>
	<path style="fill:#FFD93B;" d="M225.967,103.726C157.535,56.734,93.567,16.814,44.719,0.894
		c-12.288-3.872-24.56,5.328-24.56,18.096v257.136l205.824-66.56v-105.84H225.967z"/>
	<path style="fill:#FFD93B;" d="M286.095,103.726c68.432-46.992,132.4-86.912,181.248-102.832
		c12.288-3.872,24.56,5.328,24.56,18.112v257.136l-205.824-66.56V103.726H286.095z"/>
</g>
<g>
	<path style="fill:#F4C534;" d="M139.343,94.59c-31.904-20.72-61.296-37.424-85.376-45.696v123.152
		C78.143,141.438,107.455,114.558,139.343,94.59z"/>
	<path style="fill:#F4C534;" d="M422.079,143.982c12.4,10.8,25.376,22.432,35.952,35.632V48.894
		c-25.552,8.784-57.136,27.136-91.328,49.616C386.495,111.742,404.031,128.27,422.079,143.982z"/>
</g>
<circle style="fill:#FFD93B;" cx="255.999" cy="276.078" r="235.92"/>
<path style="fill:#F4C534;" d="M491.919,276.078c0,130.352-105.648,235.92-235.92,235.92c-74.16,0-140.368-34.208-183.648-87.808
	c40.48,32.736,92,52.272,148.112,52.272c130.272,0,235.92-105.568,235.92-235.92c0-56.096-19.536-107.632-52.272-148.112
	C457.631,135.71,491.919,201.918,491.919,276.078z"/>
<g>
	<path style="fill:#3E4347;" d="M110.335,124.926c0,0,48.144-38.56,104.048-23.152C214.383,101.774,145.359,35.694,110.335,124.926z
		"/>
	<path style="fill:#3E4347;" d="M401.663,124.926c0,0-48.144-38.56-104.048-23.152C297.615,101.774,366.639,35.694,401.663,124.926z
		"/>
	<path style="fill:#3E4347;" d="M395.679,341.118c-20.208,78.976-73.216,77.968-135.76,113.28
		c-62.384,35.36-115.552-60.432-135.76-113.776c-1.456-4.064,3.552-12.272,8.56-12.992c49.28-16.992,204.768,71.616,254.384,11.616
		C392.127,334.19,397.295,334.75,395.679,341.118z"/>
</g>
<path style="fill:#E24B4B;" d="M259.919,454.398c24.624-13.904,47.728-22.192,67.968-31.936c-0.144-0.16-0.208-0.336-0.368-0.496
	c-5.44-17.04-33.952-28.752-58.032-18.608c-7.552,3.536-15.936,4.88-23.824,2.864c-22.304-6.48-46.032,10.304-52.48,40.368
	C213.151,462.046,235.839,468.046,259.919,454.398z"/>
<g>
	<path style="fill:#FFFFFF;" d="M138.719,326.462c-0.016,0.128-0.032,0.24-0.048,0.352c11.2,15.872,26.56,31.552,44.64,42.752
		c1.808,11.824,3.632,23.664,5.44,35.424c2.832-9.44,5.648-18.816,8.48-28.064c18.88,8.928,40.16,12.288,62.72,12.736
		c22.4,0.432,43.68-1.28,62.56-5.056c2.88,5.136,5.76,10.096,8.64,15.008c1.808-6.208,3.632-12.384,5.44-18.544
		c17.808-5.744,32.96-15.36,44.112-36.016C327.583,390.494,191.167,317.454,138.719,326.462z"/>
	<path style="fill:#FFFFFF;" d="M241.679,225.358c0,37.152-30.272,67.28-67.424,67.28s-67.28-30.128-67.28-67.28
		c0-37.296,30.128-67.424,67.28-67.424S241.679,188.078,241.679,225.358z"/>
</g>
<path style="fill:#3E4347;" d="M208.783,225.358c0,18.864-15.648,34.368-34.512,34.368s-34.224-15.504-34.224-34.368
	c0-19.008,15.36-34.368,34.224-34.368S208.783,206.35,208.783,225.358z"/>
<ellipse transform="matrix(-0.7071 -0.7071 0.7071 -0.7071 167.6198 495.9308)" style="fill:#FFFFFF;" cx="186.521" cy="213.25" rx="9.952" ry="6.8"/>
<g>
	<path style="fill:#3E4347;" d="M411.871,237.038c-17.456,46.224-55.44,78.112-89.968,65.664
		c-34.24-13.168-55.984-58.896-55.04-97.232c0.096-38.32,39.072-71.296,90.928-66.848
		C409.583,144.078,430.351,190.942,411.871,237.038z"/>
	<path style="fill:#3E4347;" d="M476.143,360.366c-17.52-54.768-59.68-108.496-120.688-152.096
		C305.583,172.622,247.343,87.502,219.039,43.342c-4.672-6.768-23.616-1.248-21.04,4.32c26.976,42.8,89.952,136.944,145.84,176.896
		c66.288,47.376,108.816,106.736,119.008,165.008C462.831,399.582,482.767,375.326,476.143,360.366z"/>
</g>
<g>
</g>
<g>
</g>
<g>
</g>
<g>
</g>
<g>
</g>
<g>
</g>
<g>
</g>
<g>
</g>
<g>
</g>
<g>
</g>
<g>
</g>
<g>
</g>
<g>
</g>
<g>
</g>
<g>
</g>
</svg>
