<?xml version="1.0" encoding="iso-8859-1"?>
<!-- Generator: Adobe Illustrator 22.0.0, SVG Export Plug-In . SVG Version: 6.00 Build 0)  -->
<svg xmlns="http://www.w3.org/2000/svg" xmlns:xlink="http://www.w3.org/1999/xlink" version="1.1" id="Layer_1" x="0px" y="0px" viewBox="0 0 58 58" style="enable-background:new 0 0 58 58;" xml:space="preserve" width="512" height="512">
<g id="_x34_9-Moustache">
	<path style="fill:#DD352E;" d="M51.442,50.62c-3.628-2.145-7.491-5.108-9.794-8.54c-0.339,0.292-0.93,0.729-1.762,1.117   l-20.899,0.355c-0.928-0.31-1.643-0.727-2.143-1.083c-2.532,3.269-6.794,6.087-10.286,8.151C3.135,52.643,0,54.648,0,58h29h29   C58,54.648,54.865,52.643,51.442,50.62z"/>
	<path style="fill:#DBA779;" d="M39.886,43.197l-20.899,0.355c-0.928-0.31-1.643-0.727-2.143-1.083   c-0.022,0.026-0.045,0.051-0.065,0.077C18.088,46.084,21.381,55.805,29,58c7.744-2.231,11.022-12.248,12.287-15.632   C40.944,42.624,40.473,42.923,39.886,43.197z"/>
	<path style="fill:#FBCE9D;" d="M47.106,17.876c0-0.301-0.022-0.596-0.041-0.891v-0.109H47.06c-0.004-0.061-0.005-0.122-0.008-0.183   c-0.013-0.058-0.036-0.108-0.052-0.165c-0.317-2.599-4.156-1.808-6.825-3.528c-2.878-1.856-6.822,2-11.175,2s-8.294-2.856-11.17-1   c-2.786,1.797-8.594,6.262-8.791,9H9v10h0.041v0.132c0,1.858,2.813,1.407,3.959,2.868l4.479,5.631l1.508,1.921l2.573,3.279   C23.13,48.832,25.53,50,28.072,50h2.7c2.674,0,5.184-1.293,6.738-3.472l2.376-3.331l1.073-1.757l2.519-3.278   C44.481,36.756,49,33.728,49,32l-1.894-12c-0.019-0.042,0-0.124,0-0.124V17.876z"/>
	<path style="fill:#6F3315;" d="M18.508,25.6c-0.392,0-0.764-0.231-0.924-0.616c-0.212-0.511,0.03-1.096,0.54-1.308   c2.046-0.849,4.637-0.899,6.301-0.118c0.5,0.234,0.715,0.83,0.48,1.33c-0.235,0.499-0.83,0.714-1.33,0.48   c-1.154-0.54-3.167-0.475-4.684,0.155C18.766,25.575,18.636,25.6,18.508,25.6z"/>
	<path style="fill:#6F3315;" d="M40,25.6c-0.128,0-0.258-0.024-0.383-0.076c-1.516-0.63-3.531-0.696-4.684-0.155   c-0.5,0.234-1.096,0.019-1.33-0.48c-0.234-0.5-0.02-1.096,0.48-1.33c1.664-0.78,4.255-0.73,6.301,0.118   c0.51,0.212,0.751,0.797,0.54,1.308C40.764,25.368,40.392,25.6,40,25.6z"/>
	<path style="fill:#6C4127;" d="M21.575,32c-1.088,0-2.061-0.497-2.739-1.399c-0.13-0.173-0.201-0.384-0.201-0.601   c0-1.103,0.897-2,2-2c0.552,0,1,0.447,1,1c0,0.398-0.233,0.743-0.571,0.903c0.291,0.118,0.631,0.16,0.984-0.043   c0.477-0.279,1.089-0.113,1.366,0.364c0.276,0.479,0.113,1.09-0.365,1.366C22.58,31.862,22.084,32,21.575,32z"/>
	<path style="fill:#6C4127;" d="M37.981,32c-1.088,0-2.061-0.497-2.74-1.399c-0.13-0.173-0.201-0.384-0.201-0.601   c0-1.103,0.897-2,2-2c0.552,0,1,0.447,1,1c0,0.398-0.233,0.743-0.571,0.903c0.29,0.118,0.63,0.161,0.984-0.043   c0.477-0.279,1.089-0.113,1.366,0.364c0.276,0.479,0.113,1.09-0.365,1.366C38.985,31.862,38.49,32,37.981,32z"/>
	<path style="fill:#D3A87D;" d="M29,36c-0.552,0-1-0.447-1-1s0.448-1,1-1c0.551,0,1-0.448,1-1c0-0.322-0.149-0.616-0.41-0.808   c-1.01-0.74-1.59-1.808-1.59-2.93V29c0-0.553,0.448-1,1-1s1,0.447,1,1v0.263c0,0.653,0.484,1.105,0.772,1.316   C31.541,31.144,32,32.048,32,33C32,34.654,30.654,36,29,36z"/>
	<path style="fill:#D3A87D;" d="M30,47h-2c-0.552,0-1-0.447-1-1s0.448-1,1-1h2c0.552,0,1,0.447,1,1S30.552,47,30,47z"/>
	<path style="fill:#6F3315;" d="M15.995,41.755c0,0,4.062,4.506,11.375,0.751c0,0,1.625-0.751,1.625-2.253   c0-0.751-0.812-2.253-2.438-2.253C24.12,38,20.87,41.755,15.995,41.755z"/>
	<path style="fill:#6F3315;" d="M41.995,41.755c0,0-4.062,4.506-11.375,0.751c0,0-1.625-0.751-1.625-2.253   c0-0.751,0.812-2.253,2.438-2.253C33.87,38,37.12,41.755,41.995,41.755z"/>
	<path style="fill:#6F3315;" d="M52.907,18.57l-1.478-1.815c-0.722-0.887-1.113-1.957-1.116-3.056l-0.008-2.25   c-0.008-2.255-1.63-4.248-4.019-4.937l-2.383-0.687c-1.164-0.336-2.18-0.994-2.902-1.881L39.524,2.13   c-1.481-1.819-4.097-2.574-6.481-1.869l-2.378,0.703c-1.167,0.345-2.409,0.35-3.579,0.012L24.703,0.29   c-2.388-0.689-5,0.084-6.468,1.913L16.77,4.028c-0.716,0.892-1.727,1.557-2.889,1.901l-2.378,0.703   C9.12,7.339,7.511,9.343,7.519,11.598l0.008,2.25c0.004,1.099-0.38,2.172-1.095,3.063l-1.465,1.825   c-1.436,1.79-1.427,4.339,0.021,6.119l1.478,1.815c0.722,0.887,1.113,1.957,1.117,3.056l0.008,2.25   c0.008,2.255,1.63,4.248,4.019,4.937c1.112,1.489,2.699,2.519,4.467,2.949l-1.263-1.608C13.665,36.794,13,33,13,33l0.039-10   c0.197-2.738,1.987-5.203,4.777-7c2.88-1.856,6.826,3,11.185,3s8.307-4.856,11.189-3c2.673,1.721,4.429,4.053,4.746,6.652   c0.015,0.056,0.074,10.691,0.074,10.691c0,1.728-0.508,3.413-1.512,4.819l-1.152,1.475c1.546-0.501,3.04-1.485,4.031-2.822   l0.017-0.022c2.384-0.705,3.992-2.709,3.984-4.964l-0.008-2.25c-0.004-1.099,0.38-2.172,1.095-3.063l1.465-1.825   C54.365,22.9,54.356,20.35,52.907,18.57z"/>
</g>

</svg>
