<?xml version="1.0" encoding="iso-8859-1"?>
<!-- Generator: Adobe Illustrator 19.0.0, SVG Export Plug-In . SVG Version: 6.00 Build 0)  -->
<svg version="1.1" id="Capa_1" xmlns="http://www.w3.org/2000/svg" xmlns:xlink="http://www.w3.org/1999/xlink" x="0px" y="0px"
	 viewBox="0 0 512 512" style="enable-background:new 0 0 512 512;" xml:space="preserve">
<g>
	<path style="fill:#FFD93B;" d="M225.968,103.727C157.536,56.735,93.568,16.815,44.72,0.895C32.432-2.977,20.16,6.223,20.16,18.991
		v257.136l205.824-66.56v-105.84H225.968z"/>
	<path style="fill:#FFD93B;" d="M286.096,103.727c68.432-46.992,132.4-86.912,181.248-102.832
		c12.288-3.872,24.56,5.328,24.56,18.112v257.136l-205.824-66.56V103.727H286.096z"/>
</g>
<g>
	<path style="fill:#F4C534;" d="M139.344,94.591c-31.904-20.72-61.296-37.424-85.376-45.696v123.152
		C78.144,141.439,107.456,114.559,139.344,94.591z"/>
	<path style="fill:#F4C534;" d="M422.08,143.983c12.4,10.8,25.376,22.432,35.952,35.632V48.895
		c-25.552,8.784-57.136,27.136-91.328,49.616C386.496,111.743,404.032,128.271,422.08,143.983z"/>
</g>
<circle style="fill:#FFD93B;" cx="256" cy="276.079" r="235.92"/>
<path style="fill:#F4C534;" d="M491.92,276.079c0,130.352-105.648,235.92-235.92,235.92c-74.16,0-140.368-34.208-183.648-87.808
	c40.48,32.736,92,52.272,148.112,52.272c130.272,0,235.92-105.568,235.92-235.92c0-56.096-19.536-107.632-52.272-148.112
	C457.632,135.711,491.92,201.919,491.92,276.079z"/>
<g>
	<path style="fill:#3E4347;" d="M110.336,124.927c0,0,48.144-38.56,104.048-23.152C214.384,101.775,145.36,35.695,110.336,124.927z"
		/>
	<path style="fill:#3E4347;" d="M401.664,124.927c0,0-48.144-38.56-104.048-23.152C297.616,101.775,366.656,35.695,401.664,124.927z
		"/>
</g>
<path style="fill:#E24B4B;" d="M286.464,183.711c-10.064,28.512,16.752,82.304,29.36,105.12c3.472,6.272,10.976,8.944,17.632,6.256
	c24.24-9.792,79.248-34.768,89.312-63.312c6.88-19.52-3.312-40.816-22.832-47.712c-15.088-5.312-31.152-0.4-40.96,11.12
	c-0.304-15.072-9.728-28.992-24.928-34.352C314.64,153.999,293.344,164.191,286.464,183.711z"/>
<path style="fill:#D03F3F;" d="M422.832,231.711c-10.08,28.64-65.12,53.6-89.44,63.36c-6.56,2.72-14.08,0-17.6-6.24
	c-1.6-2.88-3.36-6.24-5.28-9.92c0.16,0,20.96,8.48,65.76-27.52c43.36-34.72,28.32-63.68,27.2-65.6
	C420.608,193.951,429.232,213.471,422.832,231.711z"/>
<ellipse style="opacity:0.2;fill:#FFFFFF;enable-background:new    ;" cx="321.76" cy="182.591" rx="15.2" ry="10.56"/>
<path style="fill:#E24B4B;" d="M225.536,183.711c10.048,28.512-16.752,82.304-29.36,105.12c-3.472,6.272-10.976,8.944-17.632,6.256
	c-24.24-9.792-79.248-34.768-89.312-63.312c-6.88-19.52,3.312-40.816,22.832-47.712c15.088-5.312,31.168-0.4,40.96,11.12
	c0.304-15.072,9.728-28.992,24.928-34.352C197.36,153.999,218.656,164.191,225.536,183.711z"/>
<path style="fill:#D03F3F;" d="M89.168,231.711c10.08,28.64,65.12,53.6,89.44,63.36c6.56,2.72,14.08,0,17.6-6.24
	c1.6-2.88,3.36-6.24,5.28-9.92c-0.16,0-20.96,8.48-65.76-27.52c-43.36-34.72-28.32-63.68-27.2-65.6
	C91.408,193.951,82.768,213.471,89.168,231.711z"/>
<ellipse style="opacity:0.2;fill:#FFFFFF;enable-background:new    ;" cx="190.288" cy="182.591" rx="15.2" ry="10.56"/>
<path style="fill:#3E4347;" d="M395.68,359.967c-20.208,66.112-73.216,113.456-135.76,113.456
	c-62.384,0-115.552-47.344-135.76-113.616c-1.456-5.184,3.552-9.536,8.56-7.44c49.296,21.488,204.768,21.824,254.384,0.16
	C392.128,350.271,397.296,354.799,395.68,359.967z"/>
<path style="fill:#E24B4B;" d="M259.92,473.439c24.464,0,47.44-7.328,67.6-20.112c-5.44-26.144-33.952-40.736-58.032-30.352
	c-7.552,3.264-15.936,3.648-23.824,1.312c-22.448-6.672-46.368,6.848-52.64,29.456C213.04,466.271,235.776,473.439,259.92,473.439z"
	/>
<path style="fill:#FFFFFF;" d="M381.232,354.655c-11.2,18.56-26.56,31.2-44.64,39.84l-5.44,26.88l-8.64-21.44
	c-18.88,6.24-40.16,8.8-62.56,8.8c-22.56,0-43.84-2.56-62.72-8.944l-8.48,21.6l-5.44-27.04c-18.08-8.48-33.44-21.28-44.64-39.84
	C191.152,373.055,328.432,373.375,381.232,354.655z"/>
<g>
	<path style="fill:#3E4347;" d="M157.664,351.807c-15.936-11.376-37.728-18.16-60-17.744C46.784,334.975,7.008,374.415,0,418.543
		c9.2-76.416,100.224-114.672,161.824-73.424c2.352,1.536,2.56,3.952,1.408,5.664C161.936,352.735,159.28,353.055,157.664,351.807z"
		/>
	<path style="fill:#3E4347;" d="M159.024,318.895c-10.32-8.704-25.52-17.264-41.44-22.4c-16.192-5.2-34-7.104-47.376-6
		c13.104-2.176,31.296-1.792,48.416,2.208c17.04,4,33.92,11.824,44.96,19.776c2.24,1.584,2.4,4.016,1.184,5.712
		C163.488,319.967,160.896,320.431,159.024,318.895z"/>
	<path style="fill:#3E4347;" d="M134.816,320.399c-17.328-5.024-40.816-6.912-63.104-3.92c-22.656,3.072-45.216,11.36-60.448,20.768
		c14.688-10.368,36.992-20.128,59.792-24.656c23.216-4.576,47.984-3.888,65.36,0.096c2.752,0.64,3.792,2.784,3.328,4.8
		C139.216,319.839,136.752,321.055,134.816,320.399z"/>
	<path style="fill:#3E4347;" d="M354.336,351.807c15.936-11.376,37.712-18.16,60-17.744c50.88,0.928,90.64,40.368,97.664,84.496
		c-9.2-76.416-100.224-114.672-161.824-73.424c-2.352,1.536-2.56,3.952-1.408,5.664C350.064,352.735,352.72,353.055,354.336,351.807
		z"/>
	<path style="fill:#3E4347;" d="M352.976,318.895c10.32-8.704,25.52-17.264,41.44-22.4c16.192-5.2,34-7.104,47.376-6
		c-13.104-2.176-31.296-1.792-48.416,2.208c-17.04,4-33.92,11.824-44.96,19.776c-2.24,1.584-2.4,4.016-1.184,5.712
		C348.512,319.967,351.104,320.431,352.976,318.895z"/>
	<path style="fill:#3E4347;" d="M377.184,320.399c17.328-5.024,40.816-6.912,63.104-3.92c22.656,3.072,45.216,11.36,60.448,20.768
		c-14.688-10.368-37.008-20.128-59.792-24.656c-23.216-4.576-47.984-3.888-65.36,0.096c-2.752,0.64-3.792,2.784-3.328,4.8
		C372.784,319.839,375.248,321.055,377.184,320.399z"/>
</g>
<g>
</g>
<g>
</g>
<g>
</g>
<g>
</g>
<g>
</g>
<g>
</g>
<g>
</g>
<g>
</g>
<g>
</g>
<g>
</g>
<g>
</g>
<g>
</g>
<g>
</g>
<g>
</g>
<g>
</g>
</svg>
