<?xml version="1.0" encoding="iso-8859-1"?>
<!-- Generator: Adobe Illustrator 22.0.0, SVG Export Plug-In . SVG Version: 6.00 Build 0)  -->
<svg xmlns="http://www.w3.org/2000/svg" xmlns:xlink="http://www.w3.org/1999/xlink" version="1.1" x="0px" y="0px" viewBox="0 0 58 58" style="enable-background:new 0 0 58 58;" xml:space="preserve" width="512" height="512">
<g id="_x35_-Rapper">
	<path style="fill:#61B872;" d="M38.384,45.803H17.616C9.039,51.399,0,52,0,58h28h30C58,52,46.961,51.399,38.384,45.803z"/>
	<path style="fill:#3D6F44;" d="M41.738,47.712c-1.139-0.57-2.267-1.199-3.355-1.909C36.22,51.236,28,54,28,54   s-8.22-2.764-10.384-8.197c-1.112,0.725-2.231,1.364-3.338,1.944c3.119,6.467,11.467,9.485,12.447,9.819L28,58l1.274-0.433   C30.257,57.232,38.633,54.203,41.738,47.712z"/>
	<path style="fill:#EBBA16;" d="M46,56h-5c-0.552,0-1-0.448-1-1s0.448-1,1-1h5c0.552,0,1,0.448,1,1S46.552,56,46,56z"/>
	<path style="fill:#EDB883;" d="M37.309,44.845l-18.719-0.102c-0.537,0.592-0.936,1.026-0.976,1.055C19.775,51.235,28,54,28,54   s8.225-2.765,10.386-8.201C38.348,45.771,37.911,45.383,37.309,44.845z"/>
	<path style="fill:#D3A87D;" d="M12,22c0.079,0,0.153,0.023,0.231,0.031c-0.023,0.196,3.789,0.405,3.769,0.613   c-0.705,0.55,0,1.397,0,2.356c0,1.306,0.143,2.514,0.858,3.502c0.046,0.501,0.095,1.012,0.142,1.541   c0.125,1.408-2,3.957-4.019,4.168C12.673,34.696,12.344,35,12,35c-1.657,0-4-6.791-4-9C8,23.791,10.343,22,12,22z"/>
	<path style="fill:#D3A87D;" d="M44,22c-0.079,0-0.153,0.023-0.231,0.031c0.023,0.196-3.789,0.405-3.769,0.613   c0.705,0.55,0,1.397,0,2.356c0,1.306-0.143,2.514-0.858,3.502c-0.046,0.501-0.095,1.012-0.142,1.541   c-0.125,1.408,2,3.957,4.019,4.168C43.327,34.696,43.656,35,44,35c1.657,0,4-6.791,4-9C48,23.791,45.657,22,44,22z"/>
	<path style="fill:#FBCE9D;" d="M43.835,22.647C43.551,19.71,43,18,43,18H13c0,0-0.553,1.715-0.836,4.66l-0.019,5.855   c0.046,0.497,0.094,1.003,0.141,1.528c0.378,4.26,1.689,8.418,4.09,11.957C18.75,45.5,22.5,49,28,49s9.25-3.5,11.625-7   c2.401-3.539,3.712-7.697,4.09-11.957c0.047-0.529,0.096-1.04,0.142-1.541L43.835,22.647z"/>
	<path style="fill:#BE7C6D;" d="M43,18h-3c0.844,5.185,2.291,8.396,3.888,10.158C43.953,27.406,44.002,26.683,44,26   C43.983,21.05,43,18,43,18z"/>
	<path style="fill:#BE7C6D;" d="M13.333,18l-0.528,0.719C12.518,19.894,12.012,22.456,12,26c-0.002,0.683,0.047,1.405,0.112,2.157   C13.709,26.396,15.156,23.185,16,18H13.333z"/>
	<path style="fill:#57ABC1;" d="M45,18H11v-7.884C11,4.529,15.529,0,21.116,0h13.769C40.471,0,45,4.529,45,10.116V18z"/>
	<path style="fill:#3E899B;" d="M41,18H15v-7.884C15,4.529,19.529,0,25.116,0h5.769C36.471,0,41,4.529,41,10.116V18z"/>
	<path style="fill:#FFFFFF;" d="M26.902,12.994c-1.198,0-2.425-0.395-3.497-1.19c-0.444-0.329-0.536-0.956-0.208-1.399   c0.329-0.444,0.956-0.536,1.399-0.208c1.469,1.089,3.276,1.069,4.498-0.053l3.241-2.89c0.412-0.369,1.044-0.332,1.412,0.081   c0.367,0.412,0.331,1.044-0.081,1.412l-3.23,2.881C29.446,12.536,28.191,12.994,26.902,12.994z"/>
	<path style="fill:#33636C;" d="M49,19H7c-0.552,0-1-0.448-1-1s0.448-1,1-1h42c0.552,0,1,0.448,1,1S49.552,19,49,19z"/>
	<path style="fill:#BE7C6D;" d="M17.509,23.6c-0.392,0-0.764-0.232-0.924-0.617c-0.212-0.51,0.03-1.095,0.54-1.307   c2.046-0.85,4.637-0.897,6.3-0.118c0.5,0.234,0.715,0.83,0.481,1.33c-0.234,0.5-0.83,0.716-1.33,0.48   c-1.154-0.541-3.168-0.475-4.684,0.154C17.766,23.575,17.636,23.6,17.509,23.6z"/>
	<path style="fill:#28384C;" d="M20.535,28c-1.087,0-2.06-0.497-2.739-1.398c-0.131-0.173-0.201-0.385-0.201-0.602   c0-1.103,0.897-2,2-2c0.552,0,1,0.448,1,1c0,0.399-0.233,0.743-0.571,0.904c0.292,0.118,0.633,0.16,0.983-0.043   c0.478-0.276,1.089-0.114,1.367,0.364c0.277,0.478,0.114,1.09-0.364,1.367C21.541,27.862,21.045,28,20.535,28z"/>
	<path style="fill:#BE7C6D;" d="M32.509,23.6c-0.392,0-0.764-0.232-0.924-0.617c-0.212-0.51,0.03-1.095,0.54-1.307   c2.046-0.85,4.637-0.897,6.3-0.118c0.5,0.234,0.715,0.83,0.481,1.33c-0.234,0.5-0.83,0.716-1.33,0.48   c-1.155-0.541-3.168-0.475-4.684,0.154C32.766,23.575,32.636,23.6,32.509,23.6z"/>
	<path style="fill:#28384C;" d="M35.535,28c-1.087,0-2.06-0.497-2.739-1.398c-0.131-0.173-0.201-0.385-0.201-0.602   c0-1.103,0.897-2,2-2c0.552,0,1,0.448,1,1c0,0.399-0.233,0.743-0.571,0.904c0.292,0.118,0.633,0.16,0.983-0.043   c0.478-0.276,1.09-0.114,1.367,0.364c0.277,0.478,0.114,1.09-0.364,1.367C36.541,27.862,36.045,28,35.535,28z"/>
	<path style="fill:#D3A87D;" d="M28,35c-1.991,0-3-0.673-3-2c0-0.552,0.448-1,1-1c0.518,0,0.943,0.393,0.995,0.897   C27.115,32.938,27.396,33,28,33c0.623,0,0.902-0.065,1.016-0.106c0.095-0.483,0.538-0.851,1.024-0.848   C30.575,32.068,31,32.464,31,33C31,34.327,29.991,35,28,35z"/>
	<path style="fill:#EA6248;" d="M32.001,42c-0.059,0-0.118-0.005-0.178-0.016c-0.738-0.133-1.791-0.538-2.531-1.277   c-0.112-0.111-0.28-0.28-0.599,0.013c-0.395,0.364-1.022,0.367-1.402-0.013c-0.305-0.28-0.474-0.112-0.585,0   c-0.74,0.74-1.792,1.145-2.531,1.277c-0.545,0.097-1.064-0.265-1.161-0.808c-0.097-0.543,0.264-1.063,0.808-1.161   c0.438-0.079,1.086-0.338,1.47-0.723c0.675-0.675,1.548-0.899,2.398-0.617c0.108,0.036,0.21,0.079,0.303,0.124   c0.758-0.366,1.795-0.423,2.712,0.493c0.385,0.384,1.032,0.644,1.47,0.723c0.543,0.098,0.905,0.618,0.808,1.161   C32.897,41.661,32.476,42,32.001,42z"/>
</g>

</svg>
