<?xml version="1.0" encoding="iso-8859-1"?>
<!-- Generator: Adobe Illustrator 22.0.0, SVG Export Plug-In . SVG Version: 6.00 Build 0)  -->
<svg xmlns="http://www.w3.org/2000/svg" xmlns:xlink="http://www.w3.org/1999/xlink" version="1.1" x="0px" y="0px" viewBox="0 0 58 58" style="enable-background:new 0 0 58 58;" xml:space="preserve" width="512" height="512">
<g id="_x35_0-Curly">
	<path style="fill:#FBCE9D;" d="M11,33.132c0,0.658,2.143,1.309,2.295,1.941C13.443,35.03,13.839,39,14,39   c2.69,0,3.946,4.915,5.278,6.063c0.854,0.735,2.04,0.89,3.081,0.265c0.152-0.091,0.289-0.204,0.42-0.328   c0.318-2.975,2.579-8,5.326-8h1.79c2.748,0,5.009,2.308,5.327,5.284c0.132,0.124,0.271,0.238,0.424,0.329   c1.042,0.622,2.225,0.466,3.077-0.268C40.054,41.197,41.31,40,44,40c0.198,0,0.629-4.958,0.807-4.893   C44.933,34.528,48,33.941,48,33.343v-8.219C47.981,25.082,48,25,48,25v-2c0-0.301-0.022-0.596-0.041-0.891V22h-0.005   c-0.004-0.061-0.005-0.122-0.008-0.183c-0.013-0.058-0.037-0.108-0.052-0.165c-0.317-2.599-2.071-4.931-4.74-6.652   c-2.879-1.856-9.801,1-14.154,1c-4.353,0-8.294-4.856-11.17-3c-2.786,1.797-6.635,4.262-6.832,7H10.96v13H11V33.132z"/>
	<path style="fill:#EBBA16;" d="M44.306,46.231l-30.612,0C6.084,50.089,0,51.241,0,56.442V58h29h29v-1.558   C58,51.241,51.916,50.088,44.306,46.231z"/>
	<path style="fill:#ED8A19;" d="M52.907,18.57l-1.478-1.815c-0.722-0.887-1.113-1.957-1.116-3.056l-0.008-2.25   c-0.008-2.255-1.63-4.248-4.019-4.937l-2.383-0.687c-1.164-0.336-2.18-0.994-2.902-1.881L39.524,2.13   c-1.481-1.819-4.097-2.574-6.481-1.869l-2.378,0.703c-1.167,0.345-2.409,0.35-3.579,0.012L24.703,0.29   c-2.388-0.689-5,0.084-6.468,1.913l-1.465,1.825c-0.716,0.892-1.727,1.557-2.889,1.901l-2.378,0.703   C9.12,7.339,7.511,9.343,7.519,11.598l0.008,2.25c0.004,1.099-0.38,2.172-1.095,3.063l-1.465,1.825   c-1.436,1.79-1.427,4.339,0.021,6.119l1.478,1.815c0.722,0.887,1.113,1.957,1.117,3.056l0.008,2.25   c0.008,2.255,1.63,4.248,4.019,4.937c0.118,0.159,0.263,0.29,0.392,0.438v-0.495c0-0.848,0.541-1.555,1.276-1.777   C13.123,34.445,13,33,13,33l0.039-10c0.197-2.738,1.987-5.203,4.777-7c2.88-1.856,6.826,3,11.185,3c4.359,0,8.307-4.856,11.189-3   c2.673,1.721,4.429,4.053,4.746,6.652c0.015,0.056,0.074,1.046,0.074,1.348v9.343v0c0,0.598-0.083,1.185-0.204,1.763   C45.498,35.354,46,36.04,46,36.857v0.388c0.125-0.144,0.261-0.276,0.375-0.43l0.017-0.022c2.384-0.705,3.992-2.709,3.984-4.964   l-0.008-2.25c-0.004-1.099,0.38-2.172,1.095-3.063l1.465-1.825C54.365,22.9,54.356,20.35,52.907,18.57z"/>
	<path style="fill:#DC691D;" d="M44.243,35c-2.69,0-4.188,4.197-5.521,5.345c-0.852,0.734-2.035,0.89-3.077,0.268   c-0.153-0.091-0.292-0.205-0.424-0.329C34.904,37.308,32.642,35,29.895,35h-1.789c-2.747,0-5.009,2.308-5.326,5.282   c-0.131,0.123-0.268,0.236-0.42,0.328c-1.041,0.626-2.227,0.471-3.081-0.265C17.946,39.197,16.447,35,13.757,35   C12.787,35,12,35.831,12,36.857V38c0,12.608,7.591,14,17,14c9.409,0,17-1.392,17-14v-1.143C46,35.831,45.213,35,44.243,35z"/>
	<path style="fill:#D3A87D;" d="M29,33c-0.552,0-1-0.447-1-1s0.448-1,1-1c0.551,0,1-0.448,1-1c0-0.322-0.149-0.616-0.41-0.808   c-1.01-0.74-1.59-1.808-1.59-2.93V26c0-0.553,0.448-1,1-1s1,0.447,1,1v0.263c0,0.653,0.484,1.105,0.772,1.316   C31.541,28.144,32,29.048,32,30C32,31.654,30.654,33,29,33z"/>
	<path style="fill:#AA4D1A;" d="M30,46h-2c-0.552,0-1-0.447-1-1s0.448-1,1-1h2c0.552,0,1,0.447,1,1S30.552,46,30,46z"/>
	<path style="fill:#DC691D;" d="M18.508,24.6c-0.392,0-0.764-0.231-0.924-0.616c-0.212-0.511,0.03-1.096,0.54-1.308   c2.046-0.849,4.637-0.898,6.301-0.118c0.5,0.234,0.715,0.83,0.48,1.33s-0.831,0.715-1.33,0.48   c-1.154-0.541-3.167-0.475-4.684,0.155C18.766,24.575,18.636,24.6,18.508,24.6z"/>
	<path style="fill:#DC691D;" d="M40,24.6c-0.128,0-0.258-0.024-0.383-0.076c-1.516-0.63-3.531-0.697-4.684-0.155   c-0.5,0.235-1.096,0.02-1.33-0.48s-0.02-1.096,0.48-1.33c1.664-0.78,4.255-0.731,6.301,0.118c0.51,0.212,0.751,0.797,0.54,1.308   C40.764,24.368,40.392,24.6,40,24.6z"/>
	<path style="fill:#28384C;" d="M21.575,31c-1.088,0-2.061-0.497-2.739-1.399c-0.13-0.173-0.201-0.384-0.201-0.601   c0-1.103,0.897-2,2-2c0.552,0,1,0.447,1,1c0,0.398-0.233,0.743-0.571,0.903c0.291,0.118,0.631,0.159,0.984-0.043   c0.477-0.278,1.089-0.113,1.366,0.364c0.276,0.479,0.113,1.09-0.365,1.366C22.58,30.862,22.084,31,21.575,31z"/>
	<path style="fill:#28384C;" d="M37.981,31c-1.088,0-2.061-0.497-2.74-1.399c-0.13-0.173-0.201-0.384-0.201-0.601   c0-1.103,0.897-2,2-2c0.552,0,1,0.447,1,1c0,0.398-0.233,0.743-0.571,0.903c0.29,0.118,0.631,0.161,0.984-0.043   c0.477-0.278,1.089-0.113,1.366,0.364c0.276,0.479,0.113,1.09-0.365,1.366C38.985,30.862,38.49,31,37.981,31z"/>
	<path style="fill:#FBCE9D;" d="M29,52c-1.874,0-3.672-0.06-5.356-0.249L29,58l5.356-6.249C32.672,51.94,30.874,52,29,52z"/>
	<path style="fill:#9E7612;" d="M46,58v-3c0-0.553-0.448-1-1-1s-1,0.447-1,1v3H46z"/>
	<path style="fill:#9E7612;" d="M14,58v-3c0-0.553-0.448-1-1-1s-1,0.447-1,1v3H14z"/>
	<path style="fill:#AA4D1A;" d="M28.959,42.997c-1.233,0-2.467-0.397-3.543-1.191c-0.444-0.328-0.538-0.954-0.21-1.398   c0.328-0.444,0.953-0.539,1.398-0.211c1.453,1.073,3.257,1.073,4.71-0.001c0.444-0.328,1.07-0.232,1.398,0.21   c0.328,0.444,0.234,1.07-0.21,1.399C31.427,42.6,30.193,42.997,28.959,42.997z"/>
</g>

</svg>
