<?xml version="1.0" encoding="iso-8859-1"?>
<!-- Generator: Adobe Illustrator 19.0.0, SVG Export Plug-In . SVG Version: 6.00 Build 0)  -->
<svg version="1.1" id="Capa_1" xmlns="http://www.w3.org/2000/svg" xmlns:xlink="http://www.w3.org/1999/xlink" x="0px" y="0px"
	 viewBox="0 0 511.994 511.994" style="enable-background:new 0 0 511.994 511.994;" xml:space="preserve">
<g>
	<ellipse style="fill:#FFD93B;" cx="255.974" cy="250.778" rx="228.88" ry="228.8"/>
	<path style="fill:#FFD93B;" d="M500.918,275.29l-20.832,69.872c-14.88,49.504-45.12,91.168-84.432,120.464
		c-39.488,29.456-88.048,46.368-139.584,46.368c-103.392,0-194.4-67.824-224.16-166.832L11.078,275.29
		c-2.816-9.392,4.224-18.96,14.096-18.96h461.648C496.678,256.346,503.734,265.898,500.918,275.29z"/>
</g>
<path style="fill:#FFFFFF;" d="M374.694,365.05c0,65.552-53.136,125.68-118.688,125.68s-118.688-60.144-118.688-125.68
	c0-65.552,53.136-99.616,118.688-99.616S374.694,299.514,374.694,365.05z"/>
<path style="fill:#E18823;" d="M295.878,307.562c0,14.704-17.52,27.472-29.408,34.464c-6.528,3.712-14.4,3.712-20.944,0
	c-11.728-6.976-29.408-19.76-29.408-34.464c0-21.984,17.824-30.592,39.952-30.592C278.07,276.97,295.878,285.594,295.878,307.562z"
	/>
<path style="fill:#FFD93B;" d="M197.83,49.482l11.104,115.536l-177.536,65.92v-207.6c0-16.864,17.36-28.144,32.768-21.312
	L176.95,52.09L197.83,49.482z"/>
<path style="fill:#E18823;" d="M151.046,92.25L75.958,52.49c-3.12-1.648-6.864,0.608-6.864,4.128v91.664
	c0,3.776,4.24,5.984,7.328,3.84l75.104-51.904C154.406,98.234,154.15,93.898,151.046,92.25z"/>
<path style="fill:#FFD93B;" d="M314.182,49.482l-11.104,115.536l177.536,65.92v-207.6c0-16.864-17.36-28.144-32.768-21.312
	L335.062,52.09L314.182,49.482z"/>
<path style="fill:#E18823;" d="M360.966,92.25l75.104-39.76c3.12-1.648,6.864,0.608,6.864,4.128v91.664
	c0,3.776-4.24,5.984-7.328,3.84l-75.104-51.904C357.606,98.234,357.862,93.898,360.966,92.25z"/>
<path style="fill:#3E4347;" d="M351.302,380.058c-6.08,48-46.4,89.44-95.36,89.44c-48.8,0-89.12-41.28-95.2-89.44
	c-0.48-3.84,3.04-7.04,7.04-6.4c55.84,8.96,114.72,8.96,176.48-0.16C348.262,372.858,351.782,376.058,351.302,380.058z"/>
<path style="fill:#FFFFFF;" d="M255.942,456.81c-37.84,0-71.76-29.472-80.352-68.4c24.864,3.616,51.232,5.472,77.856,5.472l0,0
	c26.976,0,54.88-1.904,83.024-5.664C327.974,427.21,293.926,456.81,255.942,456.81z"/>
<g>
	<path style="fill:#3E4347;" d="M299.846,427.354c6.144-0.448,12.288-1.04,18.416-1.68c2.832-3.472,5.44-7.12,7.744-11.024
		l-2.576-25.12c-1.872,0.208-3.712,0.368-5.584,0.56l3.056,29.728c-7.136,0.768-14.256,1.44-21.408,1.952l-1.824-29.632
		c-1.872,0.144-3.728,0.288-5.6,0.4l1.824,29.568c-7.168,0.448-14.336,0.784-21.504,0.976l-0.608-29.84
		c-1.856,0.064-3.744,0.16-5.6,0.192l0.608,29.76c-7.184,0.128-14.368,0.128-21.552,0l0.608-29.584
		c-1.872-0.032-3.712-0.144-5.584-0.192l-0.608,29.664c-7.168-0.192-14.336-0.528-21.504-0.976l1.808-29.392
		c-1.856-0.112-3.76-0.064-5.6-0.192l-1.792,29.248c-7.136-0.512-14.272-1.184-21.408-1.952l3.024-29.424
		c-1.856-0.192-3.728-0.384-5.584-0.592l-2.56,24.928c2.288,3.856,4.88,7.488,7.68,10.928c6.16,0.64,12.32,1.232,18.496,1.68
		l-0.896,14.592c1.792,1.264,3.504,2.656,5.376,3.776l1.104-18.032c7.248,0.448,14.496,0.8,21.744,0.992l-0.528,25.936
		c1.856,0.432,3.696,0.816,5.568,1.104l0.544-26.944c3.632,0.064,7.264,0.224,10.896,0.224s7.264-0.16,10.896-0.224l0.544,26.912
		c1.888-0.304,3.728-0.688,5.568-1.136l-0.528-25.888c7.248-0.192,14.496-0.528,21.744-0.992l1.104,17.952
		c1.888-1.12,3.584-2.512,5.376-3.776L299.846,427.354z"/>
	<path style="fill:#3E4347;" d="M226.55,206.426c1.728,5.328,2.64,10.752,2.544,16.16c-13.168-17.264-38.496-24.864-63.008-16.912
		c-24.352,7.888-40.416,28.912-40.944,50.608c-3.248-4.32-5.696-9.248-7.424-14.576c-9.424-29.072,7.28-60.56,37.264-70.272
		C185.126,161.658,217.126,177.354,226.55,206.426z"/>
	<path style="fill:#3E4347;" d="M285.43,206.426c-1.728,5.328-2.64,10.752-2.544,16.16c13.168-17.264,38.496-24.864,63.008-16.912
		c24.352,7.888,40.416,28.912,40.944,50.608c3.248-4.32,5.696-9.248,7.424-14.576c9.424-29.072-7.28-60.56-37.264-70.272
		C326.854,161.658,294.838,177.354,285.43,206.426z"/>
</g>
<g>
</g>
<g>
</g>
<g>
</g>
<g>
</g>
<g>
</g>
<g>
</g>
<g>
</g>
<g>
</g>
<g>
</g>
<g>
</g>
<g>
</g>
<g>
</g>
<g>
</g>
<g>
</g>
<g>
</g>
</svg>
