<?xml version="1.0" encoding="iso-8859-1"?>
<!-- Generator: Adobe Illustrator 22.0.0, SVG Export Plug-In . SVG Version: 6.00 Build 0)  -->
<svg xmlns="http://www.w3.org/2000/svg" xmlns:xlink="http://www.w3.org/1999/xlink" version="1.1" x="0px" y="0px" viewBox="0 0 58 58" style="enable-background:new 0 0 58 58;" xml:space="preserve" width="512" height="512">
<g id="_x36_-Rapper">
	<path style="fill:#D3A87D;" d="M12,22c0.079,0,0.153,0.023,0.231,0.031c-0.023,0.196,3.789,0.405,3.769,0.613   c-0.705,0.55,0,1.397,0,2.356c0,1.306,0.143,2.514,0.858,3.502c0.046,0.501,0.095,1.012,0.142,1.541   c0.125,1.408-2,3.957-4.019,4.168C12.673,34.696,12.344,35,12,35c-1.657,0-4-6.791-4-9C8,23.791,10.343,22,12,22z"/>
	<path style="fill:#75348B;" d="M38.384,45.803H17.616C9.039,51.399,0,52,0,58h28h30C58,52,46.961,51.399,38.384,45.803z"/>
	<path style="fill:#EDB883;" d="M37.309,44.845l-18.719-0.102c-0.537,0.592-0.936,1.026-0.976,1.055C19.775,51.235,28,58,28,58   s8.225-6.765,10.386-12.201C38.348,45.771,37.911,45.383,37.309,44.845z"/>
	<path style="fill:#D3A87D;" d="M44,22c-0.079,0-0.153,0.023-0.231,0.031c0.023,0.196-3.789,0.405-3.769,0.613   c0.705,0.55,0,1.397,0,2.356c0,1.306-0.143,2.514-0.858,3.502c-0.046,0.501-0.095,1.012-0.142,1.541   c-0.125,1.408,2,3.957,4.019,4.168C43.327,34.696,43.656,35,44,35c1.657,0,4-6.791,4-9C48,23.791,45.657,22,44,22z"/>
	<path style="fill:#FBCE9D;" d="M43.835,22.647C43.551,19.71,43,18,43,18H13c0,0-0.553,1.715-0.836,4.66l-0.019,5.855   c0.046,0.497,0.094,1.003,0.141,1.528c0.378,4.26,1.689,8.418,4.09,11.957C18.75,45.5,22.5,49,28,49s9.25-3.5,11.625-7   c2.401-3.539,3.712-7.697,4.09-11.957c0.047-0.529,0.096-1.04,0.142-1.541L43.835,22.647z"/>
	<path style="fill:#D3A87D;" d="M27,34.614c-0.552,0-1-0.448-1-1s0.448-1,1-1c0.552,0,1-0.449,1-1c0-0.322-0.149-0.617-0.41-0.808   c-0.445-0.326-0.542-0.952-0.216-1.397c0.326-0.446,0.952-0.542,1.398-0.216C29.541,29.756,30,30.662,30,31.614   C30,33.269,28.654,34.614,27,34.614z"/>
	<path style="fill:#6F3315;" d="M42,22c0.693,0,1.325,0.248,1.835,0.647C43.551,19.71,43,18,43,18h-3c0.244,1.5,0.544,2.817,0.878,4   H42z"/>
	<path style="fill:#6F3315;" d="M13.964,22.036h1.147C15.45,20.844,15.753,19.516,16,18h-2.667l-0.528,0.719   c-0.186,0.762-0.463,2.118-0.639,3.939C12.666,22.274,13.285,22.036,13.964,22.036z"/>
	<path style="fill:#EBBA16;" d="M45,18H11v-7.884C11,4.529,15.529,0,21.116,0h13.769C40.471,0,45,4.529,45,10.116V18z"/>
	<path style="fill:#DC691D;" d="M41,18H15v-7.884C15,4.529,19.529,0,25.116,0h5.769C36.471,0,41,4.529,41,10.116V18z"/>
	<path style="fill:#FFFFFF;" d="M26.902,12.994c-1.198,0-2.425-0.395-3.497-1.19c-0.444-0.329-0.536-0.956-0.208-1.399   c0.329-0.444,0.956-0.536,1.399-0.208c1.469,1.089,3.276,1.069,4.498-0.053l3.241-2.89c0.412-0.369,1.044-0.332,1.412,0.081   c0.367,0.412,0.331,1.044-0.081,1.412l-3.23,2.881C29.446,12.536,28.191,12.994,26.902,12.994z"/>
	<path style="fill:#C5411E;" d="M49,19H7c-0.552,0-1-0.448-1-1s0.448-1,1-1h42c0.552,0,1,0.448,1,1S49.552,19,49,19z"/>
	<path style="fill:#839594;" d="M30,25.964h-4c-0.552,0-1-0.448-1-1s0.448-1,1-1h4c0.552,0,1,0.448,1,1S30.552,25.964,30,25.964z"/>
	<path style="fill:#FFFFFF;" d="M13.964,22H23c1.65,0,3,1.35,3,3v0c0,3.3-2.7,6-6,6h-2.964C13.716,31,11,28.284,11,24.964v0   C11,23.327,12.327,22,13.964,22z"/>
	<path style="fill:#FFFFFF;" d="M32.964,21.964H42c1.65,0,3,1.35,3,3v0c0,3.3-2.7,6-6,6h-2.964c-3.32,0-6.036-2.716-6.036-6.036v0   C30,23.291,31.327,21.964,32.964,21.964z"/>
	<path style="fill:#6C4127;" d="M19.519,27.964c-1.088,0-2.06-0.497-2.739-1.398c-0.13-0.173-0.201-0.385-0.201-0.602   c0-1.103,0.897-2,2-2c0.552,0,1,0.448,1,1c0,0.399-0.233,0.743-0.571,0.904c0.292,0.119,0.633,0.16,0.983-0.043   c0.478-0.276,1.09-0.114,1.367,0.364c0.277,0.478,0.114,1.09-0.364,1.367C20.525,27.826,20.029,27.964,19.519,27.964z"/>
	<path style="fill:#6C4127;" d="M37.492,27.964c-1.088,0-2.06-0.497-2.739-1.398c-0.13-0.173-0.201-0.385-0.201-0.602   c0-1.103,0.897-2,2-2c0.552,0,1,0.448,1,1c0,0.399-0.233,0.743-0.571,0.904c0.292,0.119,0.633,0.16,0.983-0.043   c0.478-0.276,1.09-0.114,1.367,0.364c0.277,0.478,0.114,1.09-0.364,1.367C38.498,27.826,38.002,27.964,37.492,27.964z"/>
	<path style="fill:#D3A87D;" d="M29,46h-2c-0.552,0-1-0.448-1-1s0.448-1,1-1h2c0.552,0,1,0.448,1,1S29.552,46,29,46z"/>
	<path style="fill:#C94D3D;" d="M23.297,38c0.526,1.458,1.848,4,4.703,4c2.453,0,3.775-2.255,4.432-4H23.297z"/>
	<path style="fill:#EA6248;" d="M34,39H22c-0.552,0-1-0.447-1-1s0.448-1,1-1h12c0.552,0,1,0.447,1,1S34.552,39,34,39z"/>
</g>

</svg>
