<?xml version="1.0" encoding="iso-8859-1"?>
<!-- Generator: Adobe Illustrator 19.0.0, SVG Export Plug-In . SVG Version: 6.00 Build 0)  -->
<svg version="1.1" id="Capa_1" xmlns="http://www.w3.org/2000/svg" xmlns:xlink="http://www.w3.org/1999/xlink" x="0px" y="0px"
	 viewBox="0 0 511.994 511.994" style="enable-background:new 0 0 511.994 511.994;" xml:space="preserve">
<g>
	<path style="fill:#FFD93B;" d="M484.774,250.778c0,126.24-102.4,228.64-228.8,228.64s-228.8-102.4-228.8-228.64
		c0-126.4,102.4-228.8,228.8-228.8S484.774,124.378,484.774,250.778z"/>
	<path style="fill:#FFD93B;" d="M500.918,275.29l-20.832,69.872c-14.88,49.504-45.12,91.168-84.432,120.464
		c-39.488,29.456-88.048,46.368-139.584,46.368c-103.392,0-194.4-67.824-224.16-166.832L11.078,275.29
		c-2.816-9.392,4.224-18.96,14.096-18.96h461.648C496.678,256.346,503.734,265.898,500.918,275.29z"/>
</g>
<path style="fill:#FFFFFF;" d="M374.694,365.05c0,65.552-53.136,125.68-118.688,125.68s-118.688-60.144-118.688-125.68
	c0-65.552,53.136-99.616,118.688-99.616S374.694,299.514,374.694,365.05z"/>
<path style="fill:#E18823;" d="M297.062,308.97c0,15.136-18.048,28.288-30.272,35.472c-6.72,3.824-14.832,3.824-21.552,0
	c-12.08-7.184-30.272-20.336-30.272-35.472c0-22.624,18.352-31.488,41.12-31.488C278.71,277.466,297.062,286.346,297.062,308.97z"/>
<path style="fill:#FFD93B;" d="M197.83,49.482l11.104,115.536l-177.536,65.92v-207.6c0-16.864,17.36-28.144,32.768-21.312
	L176.95,52.09"/>
<path style="fill:#E18823;" d="M151.046,92.25L75.958,52.49c-3.12-1.648-6.864,0.608-6.864,4.128v91.664
	c0,3.776,4.24,5.984,7.328,3.84l75.104-51.904C154.406,98.234,154.15,93.898,151.046,92.25z"/>
<path style="fill:#FFD93B;" d="M314.182,49.482l-11.104,115.536l177.536,65.92v-207.6c0-16.864-17.36-28.144-32.768-21.312
	L335.062,52.09"/>
<g>
	<path style="fill:#E18823;" d="M360.966,92.25l75.104-39.76c3.12-1.648,6.864,0.608,6.864,4.128v91.664
		c0,3.776-4.24,5.984-7.328,3.84l-75.104-51.904C357.606,98.234,357.862,93.898,360.966,92.25z"/>
	<path style="fill:#E18823;" d="M285.798,188.954c-2.448-4.944-0.448-10.944,4.48-13.408l81.136-40.464
		c4.96-2.464,10.944-0.448,13.424,4.48c2.448,4.944,0.448,10.944-4.48,13.408l-81.136,40.464
		C294.31,195.882,288.278,193.93,285.798,188.954z"/>
</g>
<path style="fill:#3E4347;" d="M380.646,221.178c0,19.52-15.84,35.36-35.36,35.36c-19.36,0-35.2-15.84-35.2-35.36
	c0-19.36,15.84-35.2,35.2-35.2C364.806,185.978,380.646,201.818,380.646,221.178z"/>
<path style="fill:#5A5F63;" d="M364.47,215.674c-2.72,1.76-6.72,0-8.96-3.68s-1.92-8,0.8-9.76c2.88-1.6,6.88,0,9.12,3.68
	C367.67,209.594,367.35,214.074,364.47,215.674z"/>
<path style="fill:#E18823;" d="M212.774,193.434l-81.136-40.464c-4.928-2.464-6.928-8.464-4.48-13.408
	c2.448-4.944,8.448-6.976,13.424-4.48l81.136,40.464c4.944,2.464,6.944,8.464,4.48,13.408
	C223.718,193.93,217.67,195.882,212.774,193.434z"/>
<path style="fill:#3E4347;" d="M131.334,221.178c0,19.52,15.84,35.36,35.36,35.36c19.36,0,35.2-15.84,35.2-35.36
	c0-19.36-15.84-35.2-35.2-35.2C147.174,185.978,131.334,201.818,131.334,221.178z"/>
<path style="fill:#5A5F63;" d="M147.51,215.674c2.72,1.76,6.72,0,8.96-3.68s1.92-8-0.8-9.76c-2.88-1.6-6.88,0-9.12,3.68
	C144.31,209.594,144.63,214.074,147.51,215.674z"/>
<path style="fill:#DEE4E9;" d="M192.47,430.618c-5.088-3.76-6.192-10.944-2.416-16.048c15.712-21.296,39.744-33.52,65.936-33.52
	c26.224,0,50.272,12.224,65.936,33.52c3.76,5.104,2.672,12.288-2.432,16.048c-5.12,3.76-12.304,2.64-16.032-2.432
	c-11.312-15.376-28.624-24.176-47.472-24.176c-18.832,0-36.128,8.816-47.472,24.192C204.838,433.21,197.67,434.426,192.47,430.618z"
	/>
<g>
</g>
<g>
</g>
<g>
</g>
<g>
</g>
<g>
</g>
<g>
</g>
<g>
</g>
<g>
</g>
<g>
</g>
<g>
</g>
<g>
</g>
<g>
</g>
<g>
</g>
<g>
</g>
<g>
</g>
</svg>
