<?xml version="1.0" encoding="iso-8859-1"?>
<!-- Generator: Adobe Illustrator 22.0.0, SVG Export Plug-In . SVG Version: 6.00 Build 0)  -->
<svg xmlns="http://www.w3.org/2000/svg" xmlns:xlink="http://www.w3.org/1999/xlink" version="1.1" x="0px" y="0px" viewBox="0 0 58 57" style="enable-background:new 0 0 58 57;" xml:space="preserve" width="512" height="512">
<g id="_x37_-Hoodie">
	<path style="fill:#DD352E;" d="M46.41,48.838c-0.673-0.045-1.464-0.301-2.403-0.838l-5.308-3.852   c0.192-0.123,0.367-0.269,0.555-0.4C36.339,45.782,32.814,47,28.99,47c-3.604,0-6.947-1.078-9.76-2.905L13.993,48   c-0.956,0.547-1.758,0.801-2.438,0.839C7.812,51.182,1.524,53.924,0,57h58C56.476,53.924,50.147,51.181,46.41,48.838z"/>
	<g>
		<path style="fill:#B02721;" d="M11.151,31.22C14,35,18.603,34.178,23,37l2.225,11.29C25.711,48.629,26,49.185,26,49.777v0.003    c0,1.148-1.052,2.008-2.177,1.778c-1.387-0.283-3.093-0.659-4.03-0.971c-2.222-0.738-5.799-2.586-5.8-2.587C7,52,8,40.781,8,38    C8,35.432,9.222,33.117,11.151,31.22z"/>
	</g>
	<g>
		<path style="fill:#B02721;" d="M46.849,31.22C42,35,35,37,34,42l-1.225,6.29C32.289,48.629,32,49.185,32,49.777v0.003    c0,1.148,1.052,2.008,2.177,1.778c1.387-0.283,3.093-0.659,4.03-0.971c2.222-0.738,5.799-2.586,5.8-2.587C51,52,50,40.781,50,38    C50,35.432,48.778,33.117,46.849,31.22z"/>
	</g>
	<path style="fill:#EDB883;" d="M28.99,47c-3.191,0-5.396-1.539-7.99-3c-0.009,0.026-0.992-1.026-1-1l5.226,5.29   C25.711,48.629,26,49.184,26,49.777c0,0.707-0.4,1.301-0.968,1.603C26.23,51.773,27.574,54,29,54c1.425,0,2.767-2.227,3.965-2.62   C32.398,51.078,32,50.485,32,49.78v-0.003c0-0.592,0.289-1.148,0.775-1.487l5.034-3.52c-0.01-0.031-0.024-0.06-0.035-0.09   C35.175,46.146,32.188,47,28.99,47z"/>
	<path style="fill:#FFFFFF;" d="M23,55c-0.552,0-1-0.448-1-1v-4c0-0.552,0.448-1,1-1s1,0.448,1,1v4C24,54.552,23.552,55,23,55z"/>
	<path style="fill:#FFFFFF;" d="M35,55c-0.552,0-1-0.448-1-1v-4c0-0.552,0.448-1,1-1s1,0.448,1,1v4C36,54.552,35.552,55,35,55z"/>
	<path style="fill:#D3A87D;" d="M19.285,30.043C19.156,28.589,18.996,27.235,19,26c0.005-1.512-5.899-2.844-5.769-3.969   C13.153,22.023,13.079,22,13,22c-1.657,0-4,1.791-4,4c0,2.209,2.343,9,4,9c0.344,0,0.674-0.304,0.981-0.789   C16,33,19.41,31.451,19.285,30.043z"/>
	<path style="fill:#D3A87D;" d="M37.715,30.043C37.844,28.589,38.004,27.235,38,26c-0.005-1.512,6.899-2.844,6.769-3.969   C44.847,22.023,44.921,22,45,22c1.657,0,4,1.791,4,4c0,2.209-2.343,9-4,9c-0.344,0-0.674-0.304-0.981-0.789   C41,33,37.59,31.451,37.715,30.043z"/>
	<g>
		<path style="fill:#FBCE9D;" d="M44,18H14c0,0-0.983,3.05-1,8c-0.004,1.235,0.156,2.589,0.285,4.043    c0.257,2.892,1.842,7.729,1.715,7.404C15,36,16.784,39.925,17.752,41L21,44.609c0,0-2-4.609,8-4.609s8,4.609,8,4.609L40.248,41    C41.216,39.925,43,36,43,37.447c-0.127,0.325,1.458-4.513,1.715-7.404C44.844,28.589,45.004,27.235,45,26    C44.983,21.05,44,18,44,18z"/>
	</g>
	<path style="fill:#895A3F;" d="M18.509,25.6c-0.392,0-0.764-0.232-0.924-0.617c-0.212-0.51,0.03-1.095,0.54-1.307   c2.046-0.85,4.637-0.898,6.3-0.118c0.5,0.234,0.715,0.83,0.481,1.33c-0.234,0.5-0.83,0.716-1.33,0.48   c-1.155-0.541-3.168-0.475-4.684,0.154C18.766,25.575,18.636,25.6,18.509,25.6z"/>
	<path style="fill:#28384C;" d="M21.535,30c-1.087,0-2.06-0.497-2.739-1.398c-0.131-0.173-0.201-0.385-0.201-0.602   c0-1.103,0.897-2,2-2c0.552,0,1,0.448,1,1c0,0.399-0.233,0.743-0.571,0.904c0.292,0.118,0.633,0.16,0.983-0.043   c0.479-0.277,1.09-0.114,1.367,0.364c0.277,0.478,0.114,1.09-0.364,1.367C22.541,29.862,22.045,30,21.535,30z"/>
	<path style="fill:#895A3F;" d="M33.508,25.6c-0.392,0-0.764-0.232-0.924-0.617c-0.212-0.51,0.03-1.095,0.54-1.307   c2.046-0.85,4.636-0.898,6.301-0.118c0.5,0.234,0.715,0.83,0.48,1.33c-0.234,0.5-0.83,0.714-1.33,0.48   c-1.154-0.542-3.168-0.476-4.684,0.154C33.766,25.575,33.636,25.6,33.508,25.6z"/>
	<path style="fill:#28384C;" d="M36.535,30c-1.088,0-2.061-0.497-2.739-1.398c-0.131-0.173-0.201-0.385-0.201-0.602   c0-1.103,0.897-2,2-2c0.552,0,1,0.448,1,1c0,0.399-0.233,0.743-0.571,0.904c0.292,0.117,0.632,0.16,0.984-0.043   c0.479-0.277,1.09-0.114,1.366,0.364c0.277,0.478,0.114,1.089-0.364,1.366C37.541,29.862,37.045,30,36.535,30z"/>
	<path style="fill:#895A3F;" d="M44,18h-3c0.844,5.185,2.291,8.396,3.888,10.158C44.953,27.406,45.002,26.683,45,26   C44.983,21.05,44,18,44,18z"/>
	<path style="fill:#895A3F;" d="M14.333,18l-0.528,0.719C13.518,19.894,13.012,22.456,13,26c-0.002,0.683,0.047,1.405,0.112,2.157   C14.709,26.396,16.156,23.185,17,18H14.333z"/>
	<path style="fill:#D3A87D;" d="M29,34c-1.991,0-3-0.673-3-2c0-0.552,0.448-1,1-1c0.518,0,0.943,0.393,0.995,0.897   C28.115,31.938,28.396,32,29,32c0.623,0,0.902-0.065,1.016-0.106c0.095-0.483,0.512-0.874,1.024-0.848   C31.576,31.068,32,31.464,32,32C32,33.327,30.991,34,29,34z"/>
	<path style="fill:#DD352E;" d="M46,18H12v-7.884C12,4.529,16.529,0,22.116,0h13.769C41.471,0,46,4.529,46,10.116V18z"/>
	<path style="fill:#B02721;" d="M42,18H16v-7.884C16,4.529,20.529,0,26.116,0h5.769C37.471,0,42,4.529,42,10.116V18z"/>
	<path style="fill:#FFFFFF;" d="M27.902,12.994c-1.198,0-2.425-0.395-3.497-1.19c-0.444-0.329-0.536-0.956-0.208-1.399   c0.329-0.444,0.956-0.536,1.399-0.208c1.469,1.089,3.276,1.069,4.498-0.053l3.241-2.89c0.412-0.369,1.044-0.332,1.412,0.081   c0.367,0.412,0.331,1.044-0.081,1.412l-3.23,2.881C30.446,12.536,29.191,12.994,27.902,12.994z"/>
	<path style="fill:#871B1B;" d="M50,19H8c-0.552,0-1-0.448-1-1s0.448-1,1-1h42c0.552,0,1,0.448,1,1S50.552,19,50,19z"/>
	<g>
		<path style="fill:#895A3F;" d="M37,40c0,0,2-3-8-3s-8,3-8,3l-3.248-3.609C16.784,35.316,15,36,15,37.447v0    c0.624,1.595,1.407,3.126,2.375,4.553C19.75,45.5,23.5,49,29,49s9.25-3.5,11.625-7c0.968-1.427,1.751-2.958,2.375-4.553v0    c0-1.447-1.784-2.132-2.752-1.056L37,40z"/>
	</g>
	<path style="fill:#B78A74;" d="M30,46h-2c-0.552,0-1-0.448-1-1s0.448-1,1-1h2c0.552,0,1,0.448,1,1S30.552,46,30,46z"/>
	<path style="fill:#B78A74;" d="M25.989,43.004c-1.066,0-1.771-0.36-2.059-0.542c-0.644-0.408-0.99-0.997-0.924-1.576   c0.062-0.548,0.558-0.943,1.107-0.88c0.425,0.048,0.757,0.357,0.856,0.749c0.307,0.215,1.514,0.631,3.502-0.604   c0.469-0.291,1.086-0.147,1.377,0.321c0.292,0.469,0.148,1.085-0.321,1.377C28.103,42.735,26.911,43.004,25.989,43.004z"/>
	<path style="fill:#B78A74;" d="M31.426,43.027c-1.142,0-2.212-0.446-3.114-1.302c-0.401-0.38-0.417-1.013-0.037-1.414   c0.38-0.4,1.013-0.417,1.414-0.037c0.553,0.525,1.147,0.764,1.806,0.752c0.932-0.027,1.641-0.563,1.733-0.661   c0.367-0.391,0.997-0.448,1.402-0.099s0.487,0.93,0.157,1.351c-0.406,0.518-1.616,1.294-3.035,1.398   C31.643,43.023,31.534,43.027,31.426,43.027z"/>
</g>

</svg>
