<?xml version="1.0" encoding="iso-8859-1"?>
<!-- Generator: Adobe Illustrator 19.0.0, SVG Export Plug-In . SVG Version: 6.00 Build 0)  -->
<svg version="1.1" id="Capa_1" xmlns="http://www.w3.org/2000/svg" xmlns:xlink="http://www.w3.org/1999/xlink" x="0px" y="0px"
	 viewBox="0 0 512.06 512.06" style="enable-background:new 0 0 512.06 512.06;" xml:space="preserve">
<path style="fill:#FFD93B;" d="M500.91,275.26l-20.8,69.92c-14.88,49.44-45.12,91.2-84.48,120.48c-39.36,29.44-88,46.4-139.52,46.4
	c-103.36,0-194.4-67.84-224.16-166.88l-20.8-69.92c-2.88-9.28,4.16-18.88,14.08-18.88h2.56c-0.48-5.28-0.64-10.56-0.64-16
	c0-14.56,1.44-28.64,4.32-42.4V23.26c0-16.8,17.28-28,32.8-21.28l93.12,41.44c29.92-13.76,63.36-21.44,98.72-21.44
	s68.8,7.68,98.72,21.44l93.12-41.44c15.36-6.72,32.8,4.48,32.8,21.28v175.52c2.72,13.44,4.16,27.36,4.16,41.6
	c0,5.44-0.16,10.72-0.64,16h2.56C496.75,256.38,503.79,265.98,500.91,275.26z"/>
<path style="fill:#FFFFFF;" d="M374.75,365.068c0,65.552-53.136,125.68-118.688,125.68s-118.688-60.144-118.688-125.68
	c0-65.552,53.136-99.632,118.688-99.632C321.614,265.436,374.75,299.516,374.75,365.068z"/>
<path style="fill:#89664C;" d="M298.91,307.292c0,15.808-18.832,29.52-31.6,37.024c-7.024,3.984-15.472,3.984-22.496,0
	c-12.608-7.504-31.6-21.232-31.6-37.024c0-23.616,19.152-32.88,42.928-32.88C279.758,274.412,298.91,283.676,298.91,307.292z"/>
<path style="fill:#3E4347;" d="M335.854,394.22c-6.256,38.624-39.392,68.16-79.712,68.16c-40.528,0-73.664-29.536-79.904-68.16
	c-0.752-3.984,3.024-7.392,7.008-7.008c48.672,6.064,97.136,6.064,145.616,0C332.83,386.828,336.606,390.236,335.854,394.22z"/>
<path style="fill:#E24B4B;" d="M256.142,462.38c15.52,0,29.92-4.448,42.176-12.016c-0.88-9.424-4.64-17.984-10.656-24.608
	c-5.264-5.792-15.52-7.776-22.336-3.952c-4.32,2.4-9.504,3.824-15.6,3.824c-1.696,0-3.312-0.112-4.88-0.304
	c-13.792-1.872-27.344,6.128-30.384,19.712c-0.4,1.744-0.368,3.616-0.544,5.424C226.19,457.98,240.606,462.38,256.142,462.38z"/>
<g>
	<path style="fill:#F29A2E;" d="M151.102,92.252l-75.104-39.76c-3.104-1.648-6.864,0.608-6.864,4.144V148.3
		c0,3.776,4.24,6,7.328,3.856l75.104-51.904C154.462,98.236,154.206,93.9,151.102,92.252z"/>
	<path style="fill:#F29A2E;" d="M361.022,92.252l75.104-39.76c3.12-1.648,6.864,0.608,6.864,4.128v91.664
		c0,3.776-4.24,6-7.328,3.856l-75.104-51.904C357.662,98.236,357.918,93.9,361.022,92.252z"/>
</g>
<circle style="fill:#3E4347;" cx="162.078" cy="210.412" r="33.28"/>
<path style="fill:#5A5F63;" d="M179.55,207.788c-2.976,1.872-7.52-0.16-10.336-4.544c-2.672-4.384-2.512-9.392,0.464-11.28
	s7.52,0.16,10.336,4.544C182.686,200.732,182.526,205.9,179.55,207.788z"/>
<circle style="fill:#3E4347;" cx="350.046" cy="210.412" r="33.28"/>
<path style="fill:#5A5F63;" d="M367.534,207.788c-2.976,1.872-7.52-0.16-10.336-4.544c-2.656-4.384-2.512-9.392,0.464-11.28
	c2.976-1.888,7.52,0.16,10.336,4.544C370.67,200.732,370.51,205.9,367.534,207.788z"/>
<g>
</g>
<g>
</g>
<g>
</g>
<g>
</g>
<g>
</g>
<g>
</g>
<g>
</g>
<g>
</g>
<g>
</g>
<g>
</g>
<g>
</g>
<g>
</g>
<g>
</g>
<g>
</g>
<g>
</g>
</svg>
