<?xml version="1.0" encoding="iso-8859-1"?>
<!-- Generator: Adobe Illustrator 22.0.0, SVG Export Plug-In . SVG Version: 6.00 Build 0)  -->
<svg xmlns="http://www.w3.org/2000/svg" xmlns:xlink="http://www.w3.org/1999/xlink" version="1.1" x="0px" y="0px" viewBox="0 0 58 58" style="enable-background:new 0 0 58 58;" xml:space="preserve" width="512" height="512">
<g id="_x38_-Hoodie">
	<path style="fill:#AFB6BB;" d="M42.989,48.018H15.011C6.757,51.803,0,52.817,0,58h33.143H35h23   C58,52.817,51.243,51.803,42.989,48.018z"/>
	<path style="fill:#E7ECED;" d="M54.372,19.067c-0.159-0.354-0.331-0.71-0.516-1.067c0,0-4.699-9.636-12.563-14.925   C38.272,1.043,34.655,0,30.973,0H29h-1.973c-3.682,0-7.3,1.043-10.321,3.075C8.843,8.364,4.144,18,4.144,18   c-0.185,0.357-0.357,0.713-0.516,1.067c-3.313,7.37-1.419,15.972,4.32,21.789L24.857,58H29h4.143l16.91-17.144   C55.791,35.039,57.685,26.437,54.372,19.067z"/>
	<path style="fill:#DBDDDD;" d="M33.143,58l16.91-17.144c3.824-3.876,5.928-8.989,5.935-14.149C55.723,18.006,43.746,11,29,11   S2.277,18.006,2.012,26.707c0.007,5.16,2.111,10.273,5.935,14.149L24.857,58H29H33.143z"/>
	<path style="fill:#AFB6BB;" d="M37.836,16.04c-0.059,0.419-0.349,0.788-0.898,0.762c-5.237-0.254-10.384-0.253-15.594,0.125   c-0.64,0.046-0.938-0.448-0.911-0.947c-7.681,1.746-14.216,5.699-14.419,10.79c0.024,4.112,1.765,8.219,4.782,11.278L26.53,58   h4.939l15.735-19.952c3.017-3.06,4.758-7.166,4.782-11.278C51.786,21.737,45.4,17.816,37.836,16.04z"/>
	<path style="fill:#EDB883;" d="M19,28.885L18.836,27c-0.007-0.082-5.333-2.355-5.914-2.95c-1.005,0.633-2.072,1.557-2.635,2.611   c-0.388,0.726-0.383,1.62,0.017,2.339c0.966,1.735,2.754,3,3.496,3c0.327,0,0.64-0.304,0.932-0.789C19,31,19.118,30.293,19,28.885z   "/>
	<path style="fill:#EDB883;" d="M45.065,24.042c-0.552,0.566-4.861,1.849-4.902,1.958c-0.049,0.617-0.107,1.253-0.163,1.915   c-0.118,1.408,3.585,1.929,3.268,3.296C43.56,31.696,43.873,32,44.2,32c0.742,0,2.53-1.265,3.496-3   c0.4-0.719,0.405-1.613,0.017-2.339C47.147,25.602,46.074,24.675,45.065,24.042z"/>
	<path style="fill:#D3A87D;" d="M38,41.678C35.811,44.088,32.86,46,29,46s-6.811-1.912-9-4.322v8.042L26.53,58h4.939L38,49.72   V41.678z"/>
	<path style="fill:#EDB883;" d="M20,41.678v6.912c2.509,0.881,5.618,3.41,9,3.41s6.491-2.529,9-3.41v-6.912H20z"/>
	<g>
		<path style="fill:#FBCE9D;" d="M44.082,25.147c-0.714-2.062-4.018-5.712-6.457-9.144C34.819,15.359,31.864,15,29,15    c-2.865,0-5.822,0.36-8.629,1.004c-2.44,3.435-5.749,7.089-6.464,9.154l0,0c0.05,0.609,0.11,1.235,0.164,1.886    c0.359,4.26,1.604,8.418,3.885,11.957c2.256,3.5,5.819,7,11.044,7s8.788-3.5,11.044-7c2.281-3.539,3.527-7.697,3.885-11.957    c0.056-0.664,0.117-1.305,0.168-1.926C44.092,25.127,44.083,25.141,44.082,25.147z"/>
	</g>
	<path style="fill:#6F3315;" d="M18,24.6c-0.385,0-0.752-0.224-0.917-0.6c-0.221-0.506,0.01-1.095,0.516-1.317   c1.966-0.859,4.458-0.907,6.061-0.116c0.495,0.244,0.698,0.844,0.454,1.339c-0.245,0.494-0.843,0.699-1.339,0.454   c-1.076-0.532-2.956-0.464-4.374,0.156C18.27,24.573,18.134,24.6,18,24.6z"/>
	<path style="fill:#6C4127;" d="M20.875,29c-1.059,0-2.002-0.503-2.657-1.418c-0.121-0.17-0.187-0.374-0.187-0.582   c0-1.103,0.875-2,1.95-2c0.552,0,1,0.448,1,1c0,0.399-0.234,0.743-0.572,0.904c0.257,0.113,0.551,0.162,0.869-0.032   c0.472-0.291,1.087-0.139,1.374,0.333c0.288,0.471,0.139,1.086-0.333,1.374C21.863,28.858,21.377,29,20.875,29z"/>
	<path style="fill:#6F3315;" d="M34.783,24.6c-0.385,0-0.752-0.224-0.917-0.6c-0.221-0.506,0.01-1.095,0.516-1.317   c1.966-0.859,4.458-0.907,6.061-0.116c0.495,0.244,0.698,0.844,0.454,1.339c-0.245,0.494-0.843,0.699-1.339,0.454   c-1.076-0.532-2.956-0.464-4.374,0.156C35.053,24.573,34.917,24.6,34.783,24.6z"/>
	<path style="fill:#6C4127;" d="M37.658,29c-1.059,0-2.002-0.503-2.657-1.418c-0.121-0.17-0.187-0.374-0.187-0.582   c0-1.103,0.875-2,1.95-2c0.552,0,1,0.448,1,1c0,0.399-0.234,0.743-0.572,0.904c0.257,0.114,0.55,0.163,0.869-0.032   c0.471-0.291,1.087-0.139,1.374,0.333c0.288,0.471,0.139,1.086-0.333,1.374C38.646,28.858,38.159,29,37.658,29z"/>
	<path style="fill:#28384C;" d="M47,56c-0.552,0-1-0.448-1-1V43.951c0-0.552,0.448-1,1-1s1,0.448,1,1V55C48,55.552,47.552,56,47,56z   "/>
	<path style="fill:#28384C;" d="M11,56c-0.552,0-1-0.448-1-1V43.951c0-0.552,0.448-1,1-1s1,0.448,1,1V55C12,55.552,11.552,56,11,56z   "/>
	<path style="fill:#D3A87D;" d="M29,34c-0.552,0-1-0.448-1-1s0.448-1,1-1c0.551,0,1-0.449,1-1c0-0.322-0.149-0.617-0.41-0.808   c-1.01-0.74-1.59-1.808-1.59-2.929V27c0-0.552,0.448-1,1-1s1,0.448,1,1v0.263c0,0.653,0.484,1.105,0.772,1.316   C31.541,29.143,32,30.048,32,31C32,32.654,30.654,34,29,34z"/>
	<path style="fill:#D3A87D;" d="M29.991,43h-2c-0.552,0-1-0.448-1-1s0.448-1,1-1h2c0.552,0,1,0.448,1,1S30.543,43,29.991,43z"/>
	<path style="fill:#EA6248;" d="M26.379,39.442c-1.702,0-2.762-0.516-2.827-0.548c-0.494-0.247-0.694-0.848-0.447-1.342   c0.246-0.491,0.841-0.691,1.334-0.451c0.083,0.04,1.728,0.79,4.244-0.05c0.525-0.176,1.09,0.108,1.265,0.632   s-0.108,1.09-0.632,1.265C28.21,39.317,27.217,39.442,26.379,39.442z"/>
	<path style="fill:#EA6248;" d="M31.621,39.442c-0.837,0-1.83-0.125-2.937-0.494c-0.524-0.175-0.807-0.741-0.632-1.265   c0.174-0.524,0.74-0.809,1.265-0.632c2.528,0.843,4.176,0.083,4.245,0.05c0.496-0.235,1.092-0.03,1.333,0.463   c0.24,0.493,0.043,1.085-0.447,1.331C34.382,38.927,33.322,39.442,31.621,39.442z"/>
	<path style="fill:#6F3315;" d="M13.907,25.158c0.715-2.064,4.024-5.719,6.464-9.154c-0.057,0.013-0.138,0.023-0.205,0.035   c-4.153,0.975-7.946,2.597-10.56,4.695C11.349,22.485,13.889,24.948,13.907,25.158z"/>
	<path style="fill:#6F3315;" d="M44.082,25.147c-0.715-2.064-4.024-5.719-6.464-9.154c0.057,0.013,0.138,0.023,0.205,0.035   c4.153,0.975,7.946,2.597,10.56,4.695C46.64,22.474,44.099,24.938,44.082,25.147z"/>
</g>

</svg>
