<?xml version="1.0" encoding="iso-8859-1"?>
<!-- Generator: Adobe Illustrator 19.0.0, SVG Export Plug-In . SVG Version: 6.00 Build 0)  -->
<svg version="1.1" id="Capa_1" xmlns="http://www.w3.org/2000/svg" xmlns:xlink="http://www.w3.org/1999/xlink" x="0px" y="0px"
	 viewBox="0 0 511.994 511.994" style="enable-background:new 0 0 511.994 511.994;" xml:space="preserve">
<g>
	<path style="fill:#FFD93B;" d="M484.774,250.778c0,126.24-102.4,228.64-228.8,228.64s-228.8-102.4-228.8-228.64
		c0-126.4,102.4-228.8,228.8-228.8C382.374,21.978,484.774,124.378,484.774,250.778z"/>
	<path style="fill:#FFD93B;" d="M500.918,275.29l-20.832,69.872c-14.88,49.504-45.12,91.168-84.432,120.464
		c-39.488,29.456-88.048,46.368-139.584,46.368c-103.392,0-194.4-67.824-224.16-166.832L11.078,275.29
		c-2.816-9.392,4.224-18.96,14.096-18.96h461.648C496.678,256.346,503.734,265.898,500.918,275.29z"/>
</g>
<path style="fill:#FFFFFF;" d="M374.694,365.05c0,65.552-53.136,125.68-118.688,125.68s-118.688-60.144-118.688-125.68
	c0-65.552,53.136-99.632,118.688-99.632S374.694,299.514,374.694,365.05z"/>
<path style="fill:#E18823;" d="M297.062,308.97c0,15.136-18.048,28.288-30.272,35.472c-6.72,3.824-14.832,3.824-21.552,0
	c-12.08-7.184-30.272-20.336-30.272-35.472c0-22.624,18.352-31.504,41.12-31.504C278.71,277.466,297.062,286.346,297.062,308.97z"/>
<path style="fill:#FFD93B;" d="M197.83,49.482l11.104,115.536l-177.536,65.92v-207.6c0-16.864,17.36-28.144,32.768-21.312
	L176.95,52.09"/>
<path style="fill:#E18823;" d="M151.046,92.25L75.958,52.49c-3.12-1.648-6.864,0.608-6.864,4.128v91.664c0,3.776,4.24,6,7.328,3.856
	l75.104-51.904C154.406,98.234,154.15,93.882,151.046,92.25z"/>
<path style="fill:#FFD93B;" d="M314.182,49.482l-11.104,115.536l177.536,65.92v-207.6c0-16.864-17.36-28.144-32.768-21.312
	L335.062,52.09"/>
<path style="fill:#E18823;" d="M360.966,92.25l75.104-39.76c3.12-1.648,6.864,0.608,6.864,4.128v91.664c0,3.776-4.24,6-7.328,3.856
	l-75.104-51.904C357.606,98.234,357.862,93.882,360.966,92.25z"/>
<path style="fill:#3E4347;" d="M172.886,246.634c-18.08,0-34.816-11.184-41.376-28.496c-1.968-5.168,0.624-10.944,5.792-12.896
	c5.152-1.936,10.928,0.624,12.896,5.808c4.08,10.688,15.088,17.12,26.56,15.28c11.216-1.84,19.696-11.472,20.144-22.912
	c0.24-5.504,4.624-10.016,10.384-9.6c5.52,0.224,9.808,4.864,9.616,10.384c-0.832,20.912-16.368,38.512-36.928,41.872
	C177.606,246.442,175.238,246.634,172.886,246.634z"/>
<path style="fill:#E18823;" d="M199.654,156.058c0-5.04-4.24-9.136-9.28-8.896c-49.136,2.272-67.712,31.952-68.544,33.328
	c-2.48,4.144-1.136,9.472,2.992,12c1.408,0.88,2.992,1.28,4.544,1.28c2.96,0,5.84-1.488,7.52-4.16
	c0.64-1.024,15.04-22.72,54.208-24.688C195.846,164.682,199.654,160.826,199.654,156.058L199.654,156.058z"/>
<path style="fill:#3E4347;" d="M339.094,246.634c-2.368,0-4.72-0.192-7.088-0.576c-20.592-3.36-36.112-20.976-36.928-41.872
	c-0.208-5.52,4.096-10.16,9.632-10.384c5.76-0.208,10.16,4.096,10.368,9.616c0.432,11.44,8.912,21.072,20.144,22.912
	c11.328,1.84,22.464-4.592,26.544-15.28c1.952-5.184,7.728-7.76,12.896-5.808c5.168,1.968,7.76,7.728,5.792,12.896
	C373.894,235.434,357.174,246.634,339.094,246.634z"/>
<path style="fill:#E18823;" d="M390.15,180.49c-0.816-1.36-18.624-29.888-65.52-33.2c-5.104-0.368-9.456,3.76-9.456,8.88v0.144
	c0,4.656,3.648,8.48,8.288,8.832c37.168,2.784,51.008,23.456,51.632,24.464c1.68,2.688,4.56,4.16,7.52,4.16
	c1.552,0,3.136-0.416,4.544-1.28C391.302,189.962,392.646,184.634,390.15,180.49z"/>
<path style="fill:#DEE4E9;" d="M192.47,423.738c-5.088-3.76-6.192-10.944-2.416-16.048c15.712-21.296,39.744-33.52,65.936-33.52
	c26.224,0,50.272,12.224,65.936,33.52c3.76,5.104,2.672,12.288-2.432,16.048c-5.136,3.76-12.304,2.64-16.032-2.432
	c-11.312-15.376-28.624-24.192-47.472-24.192c-18.832,0-36.128,8.816-47.472,24.192C204.838,426.33,197.67,427.546,192.47,423.738z"
	/>
<g>
	<path style="fill:#45CBEA;" d="M423.334,289.114c-2.16-12.752-32.144-49.744-32.144-49.744s-16.192,44.784-14.048,57.536
		c2.144,12.752,14.224,21.344,26.992,19.2C416.886,313.946,425.494,301.866,423.334,289.114z"/>
	<path style="fill:#45CBEA;" d="M443.558,424.666c0-18.384-33.296-77.36-33.296-77.36s-33.296,58.976-33.296,77.36
		c0,18.384,14.912,33.296,33.296,33.296S443.558,443.05,443.558,424.666z"/>
	<path style="fill:#45CBEA;" d="M88.646,289.114c2.144-12.752,32.144-49.744,32.144-49.744s16.192,44.784,14.032,57.536
		c-2.144,12.752-14.224,21.344-26.976,19.2C95.094,313.946,86.486,301.866,88.646,289.114z"/>
	<path style="fill:#45CBEA;" d="M68.422,424.666c0-18.384,33.296-77.36,33.296-77.36s33.296,58.976,33.296,77.36
		c0,18.384-14.912,33.296-33.296,33.296S68.422,443.05,68.422,424.666z"/>
</g>
<g>
	<path style="fill:#FFFFFF;" d="M429.75,438.298c-2.56,4.32-7.2,6.4-10.24,4.8c-3.04-1.76-3.36-6.56-0.8-10.88
		c2.72-4.32,7.36-6.56,10.4-4.8C432.15,429.018,432.47,433.978,429.75,438.298z"/>
	<path style="fill:#FFFFFF;" d="M413.078,298.794c-2.56,4.32-7.2,6.4-10.24,4.8c-3.04-1.76-3.36-6.56-0.8-10.88
		c2.72-4.32,7.36-6.56,10.4-4.8C415.478,289.514,415.798,294.474,413.078,298.794z"/>
	<path style="fill:#FFFFFF;" d="M124.998,302.842c-2.608,4.288-7.264,6.32-10.288,4.704c-3.024-1.792-3.296-6.592-0.688-10.896
		c2.768-4.288,7.424-6.48,10.448-4.688C127.494,293.594,127.766,298.554,124.998,302.842z"/>
	<path style="fill:#FFFFFF;" d="M119.75,437.482c-2.608,4.288-7.264,6.32-10.288,4.704c-3.024-1.792-3.296-6.592-0.688-10.896
		c2.768-4.288,7.424-6.48,10.448-4.704C122.246,428.234,122.518,433.194,119.75,437.482z"/>
</g>
<g>
</g>
<g>
</g>
<g>
</g>
<g>
</g>
<g>
</g>
<g>
</g>
<g>
</g>
<g>
</g>
<g>
</g>
<g>
</g>
<g>
</g>
<g>
</g>
<g>
</g>
<g>
</g>
<g>
</g>
</svg>
