<?xml version="1.0" encoding="iso-8859-1"?>
<!-- Generator: Adobe Illustrator 19.0.0, SVG Export Plug-In . SVG Version: 6.00 Build 0)  -->
<svg version="1.1" id="Capa_1" xmlns="http://www.w3.org/2000/svg" xmlns:xlink="http://www.w3.org/1999/xlink" x="0px" y="0px"
	 viewBox="0 0 511.994 511.994" style="enable-background:new 0 0 511.994 511.994;" xml:space="preserve">
<g>
	<ellipse style="fill:#FFD93B;" cx="255.982" cy="250.778" rx="228.88" ry="228.8"/>
	<path style="fill:#FFD93B;" d="M500.926,275.29l-20.832,69.872c-14.88,49.504-45.12,91.168-84.432,120.464
		c-39.488,29.456-88.048,46.368-139.584,46.368c-103.392,0-194.4-67.824-224.176-166.832L11.07,275.29
		c-2.816-9.392,4.224-18.96,14.096-18.96h461.648C496.686,256.346,503.742,265.898,500.926,275.29z"/>
</g>
<path style="fill:#FFFFFF;" d="M374.702,365.05c0,65.552-53.136,125.68-118.688,125.68s-118.688-60.144-118.688-125.68
	c0-65.552,53.136-99.632,118.688-99.632C321.566,265.434,374.702,299.514,374.702,365.05z"/>
<path style="fill:#E18823;" d="M295.886,307.562c0,14.704-17.52,27.472-29.408,34.448c-6.528,3.712-14.4,3.712-20.944,0
	c-11.728-6.976-29.408-19.76-29.408-34.448c0-21.984,17.824-30.592,39.952-30.592C278.078,276.97,295.886,285.594,295.886,307.562z"
	/>
<path style="fill:#FFD93B;" d="M197.838,49.482l11.104,115.536l-177.536,65.92v-207.6c0-16.864,17.36-28.144,32.768-21.312
	L176.958,52.09L197.838,49.482z"/>
<path style="fill:#E18823;" d="M151.054,92.25L75.966,52.49c-3.12-1.648-6.864,0.608-6.864,4.128v91.664c0,3.776,4.24,6,7.328,3.856
	l75.104-51.904C154.414,98.234,154.158,93.882,151.054,92.25z"/>
<path style="fill:#FFD93B;" d="M314.19,49.482l-11.088,115.536l177.536,65.92v-207.6c0-16.864-17.36-28.144-32.768-21.312
	L335.086,52.09L314.19,49.482z"/>
<path style="fill:#E18823;" d="M360.974,92.25l75.104-39.76c3.12-1.648,6.864,0.608,6.864,4.128v91.664c0,3.776-4.24,6-7.328,3.856
	l-75.104-51.904C357.614,98.234,357.87,93.882,360.974,92.25z"/>
<g>
	<path style="fill:#3E4347;" d="M226.558,206.426c1.728,5.328,2.64,10.752,2.544,16.16c-13.168-17.264-38.496-24.864-63.008-16.912
		c-24.352,7.888-40.416,28.912-40.944,50.608c-3.248-4.32-5.696-9.248-7.424-14.576c-9.424-29.072,7.28-60.56,37.264-70.272
		C185.134,161.658,217.134,177.354,226.558,206.426z"/>
	<path style="fill:#3E4347;" d="M285.438,206.426c-1.728,5.328-2.64,10.752-2.544,16.16c13.168-17.264,38.496-24.864,63.008-16.912
		c24.352,7.888,40.416,28.912,40.944,50.608c3.248-4.32,5.696-9.248,7.424-14.576c9.424-29.072-7.28-60.56-37.264-70.272
		C326.862,161.658,294.846,177.354,285.438,206.426z"/>
</g>
<path style="fill:#DEE4E9;" d="M316.99,457.978c-8.992,7.088-21.552,7.28-32.96,6.24c-10.56-1.6-20.8-4.32-30.4-8.64
	c15.136,2.336,46.128,5.872,56.96-4.96c3.408-3.408,1.232-2.784,2.56-5.44c0-13.152-19.84-21.12-32.8-23.36
	c-3.52-0.48-5.92-3.84-5.28-7.36c0.48-2.72,2.72-4.64,5.28-5.12c12.432-2.352,32.8-10.336,32.8-23.04c0.512,0-1.056-3.504-1.12-3.84
	c-2.272-3.024-4.096-5.504-13.12-7.68c-13.552-3.744-32.192-1.376-45.28,0.64c13.392-6.016,31.04-10.432,46.72-8.64
	c31.024,4.432,32.144,33.44,1.44,48.8C322.414,425.082,331.934,446.554,316.99,457.978z"/>
<g>
</g>
<g>
</g>
<g>
</g>
<g>
</g>
<g>
</g>
<g>
</g>
<g>
</g>
<g>
</g>
<g>
</g>
<g>
</g>
<g>
</g>
<g>
</g>
<g>
</g>
<g>
</g>
<g>
</g>
</svg>
