<?xml version="1.0" encoding="iso-8859-1"?>
<!-- Generator: Adobe Illustrator 19.0.0, SVG Export Plug-In . SVG Version: 6.00 Build 0)  -->
<svg version="1.1" id="Capa_1" xmlns="http://www.w3.org/2000/svg" xmlns:xlink="http://www.w3.org/1999/xlink" x="0px" y="0px"
	 viewBox="0 0 511.994 511.994" style="enable-background:new 0 0 511.994 511.994;" xml:space="preserve">
<g>
	<path style="fill:#FFD93B;" d="M484.774,250.778c0,126.24-102.4,228.64-228.8,228.64s-228.8-102.4-228.8-228.64
		c0-126.4,102.4-228.8,228.8-228.8S484.774,124.378,484.774,250.778z"/>
	<path style="fill:#FFD93B;" d="M500.918,275.29l-20.832,69.872c-14.88,49.504-45.12,91.168-84.432,120.464
		c-39.488,29.456-88.048,46.368-139.584,46.368c-103.392,0-194.4-67.824-224.16-166.832L11.078,275.29
		c-2.816-9.392,4.224-18.96,14.096-18.96h461.648C496.678,256.346,503.734,265.898,500.918,275.29z"/>
</g>
<path style="fill:#FFFFFF;" d="M374.694,365.05c0,65.552-53.136,125.68-118.688,125.68s-118.688-60.144-118.688-125.68
	c0-65.552,53.136-99.632,118.688-99.632C321.558,265.434,374.694,299.514,374.694,365.05z"/>
<path style="fill:#E18823;" d="M298.854,307.29c0,15.792-18.832,29.52-31.6,37.024c-7.024,3.984-15.472,3.984-22.496,0
	c-12.608-7.504-31.6-21.232-31.6-37.024c0-23.616,19.152-32.88,42.928-32.88C279.702,274.41,298.854,283.658,298.854,307.29z"/>
<path style="fill:#3E4347;" d="M335.798,394.218c-6.24,38.624-39.392,68.16-79.712,68.16c-40.528,0-73.664-29.536-79.904-68.16
	c-0.752-3.984,3.024-7.376,7.008-7.008c48.672,6.064,97.136,6.064,145.616,0C332.774,386.826,336.55,390.234,335.798,394.218z"/>
<path style="fill:#E24B4B;" d="M256.086,462.378c15.52,0,29.92-4.448,42.176-12.016c-0.88-9.424-4.64-17.984-10.656-24.608
	c-5.264-5.792-15.52-7.776-22.336-3.952c-4.32,2.4-9.504,3.824-15.6,3.824c-1.696,0-3.312-0.112-4.864-0.304
	c-13.792-1.872-27.344,6.128-30.384,19.712c-0.4,1.744-0.368,3.616-0.528,5.424C226.15,457.978,240.55,462.378,256.086,462.378z"/>
<path style="fill:#FFD93B;" d="M197.83,49.482l11.088,115.536l-177.536,65.92v-207.6c0-16.864,17.36-28.144,32.768-21.312
	L176.934,52.09"/>
<path style="fill:#E18823;" d="M151.046,92.25L75.958,52.49c-3.12-1.648-6.88,0.608-6.88,4.128v91.664c0,3.776,4.24,6,7.344,3.856
	l75.104-51.904C154.406,98.234,154.15,93.882,151.046,92.25z"/>
<path style="fill:#FFD93B;" d="M314.182,49.482l-11.104,115.536l177.536,65.92v-207.6c0-16.864-17.36-28.144-32.768-21.312
	L335.062,52.09"/>
<path style="fill:#E18823;" d="M360.966,92.25l75.104-39.76c3.12-1.648,6.864,0.608,6.864,4.128v91.664c0,3.776-4.24,6-7.328,3.856
	l-75.104-51.904C357.606,98.234,357.862,93.882,360.966,92.25z"/>
<path style="fill:#E24B4B;" d="M175.926,288.282c-1.392,2.064-3.984,2.784-6.256,1.776c-16.976-7.04-85.488-37.6-94.832-71.008
	c-5.92-21.104,6.368-43.056,27.488-48.976c15.216-4.288,30.832,0.944,40.704,12.272c2.416-14.752,13.12-27.344,28.352-31.52
	c21.136-5.92,42.944,6.368,48.864,27.504C229.59,211.738,186.79,273.37,175.926,288.282z"/>
<path style="fill:#D03F3F;" d="M182.038,279.626c-2.448,3.616-4.608,6.592-6.112,8.672c-1.392,2.064-3.984,2.784-6.256,1.776
	c-16.976-7.04-85.488-37.6-94.832-71.008c-5.36-19.008,3.984-38.608,21.296-46.608c-8.32,9.712-11.792,23.344-8.048,36.56
	C97.254,241.962,163.798,272.09,182.038,279.626z"/>
<g style="opacity:0.2;">
	
		<ellipse transform="matrix(-0.4484 -0.8938 0.8938 -0.4484 117.7614 432.9495)" style="fill:#FFFFFF;" cx="192.469" cy="180.139" rx="15.664" ry="10.56"/>
</g>
<path style="fill:#E24B4B;" d="M336.054,288.282c1.392,2.064,3.984,2.784,6.256,1.776c16.976-7.04,85.488-37.6,94.832-71.008
	c5.92-21.136-6.368-43.072-27.488-48.992c-15.216-4.288-30.832,0.944-40.704,12.272c-2.416-14.752-13.12-27.344-28.352-31.52
	c-21.12-5.92-42.944,6.368-48.864,27.504C282.39,211.738,325.19,273.37,336.054,288.282z"/>
<path style="fill:#D03F3F;" d="M329.942,279.626c2.448,3.616,4.608,6.592,6.112,8.672c1.392,2.064,3.984,2.784,6.256,1.776
	c16.976-7.04,85.488-37.6,94.832-71.008c5.36-19.008-3.984-38.608-21.296-46.608c8.32,9.712,11.792,23.344,8.048,36.56
	C414.726,241.962,348.182,272.09,329.942,279.626z"/>
<g style="opacity:0.2;">
	
		<ellipse transform="matrix(-0.8938 -0.4484 0.4484 -0.8938 524.2218 484.497)" style="fill:#FFFFFF;" cx="319.47" cy="180.187" rx="10.56" ry="15.664"/>
</g>
<g>
</g>
<g>
</g>
<g>
</g>
<g>
</g>
<g>
</g>
<g>
</g>
<g>
</g>
<g>
</g>
<g>
</g>
<g>
</g>
<g>
</g>
<g>
</g>
<g>
</g>
<g>
</g>
<g>
</g>
</svg>
