<?xml version="1.0" encoding="iso-8859-1"?>
<!-- Generator: Adobe Illustrator 19.0.0, SVG Export Plug-In . SVG Version: 6.00 Build 0)  -->
<svg version="1.1" id="Capa_1" xmlns="http://www.w3.org/2000/svg" xmlns:xlink="http://www.w3.org/1999/xlink" x="0px" y="0px"
	 viewBox="0 0 512 512" style="enable-background:new 0 0 512 512;" xml:space="preserve">
<circle style="fill:#FFD93B;" cx="256" cy="256" r="256"/>
<path style="fill:#F4C534;" d="M512,256c0,141.44-114.64,256-256,256c-80.48,0-152.32-37.12-199.28-95.28
	c43.92,35.52,99.84,56.72,160.72,56.72c141.36,0,256-114.56,256-256c0-60.88-21.2-116.8-56.72-160.72
	C474.8,103.68,512,175.52,512,256z"/>
<g>
	<path style="fill:#FFFFFF;" d="M397.936,254.544c0,41.6-28.304,75.472-62.96,75.472c-34.784,0-62.96-33.872-62.96-75.472
		s28.176-75.472,62.96-75.472C369.632,179.072,397.936,212.944,397.936,254.544z"/>
	<path style="fill:#FFFFFF;" d="M239.968,254.544c0,41.6-28.304,75.472-62.96,75.472c-34.784,0-62.96-33.872-62.96-75.472
		s28.176-75.472,62.96-75.472C211.664,179.072,239.968,212.944,239.968,254.544z"/>
</g>
<path style="fill:#3E4347;" d="M208.048,266.992c0,17.136-13.824,30.96-31.104,30.96c-17.136,0-30.96-13.824-30.96-30.96
	s13.824-30.96,30.96-30.96C194.224,236.032,208.048,249.856,208.048,266.992z"/>
<ellipse transform="matrix(-0.7072 -0.7071 0.7071 -0.7072 140.8004 569.7905)" style="fill:#FFFFFF;" cx="188.396" cy="255.737" rx="8.913" ry="5.392"/>
<path style="fill:#3E4347;" d="M367.136,266.992c0,17.136-13.824,30.96-31.104,30.96c-17.136,0-30.96-13.824-30.96-30.96
	s13.824-30.96,30.96-30.96C353.312,236.032,367.136,249.856,367.136,266.992z"/>
<ellipse transform="matrix(-0.7071 -0.7071 0.7071 -0.7071 412.3009 682.2711)" style="fill:#FFFFFF;" cx="347.453" cy="255.745" rx="8.912" ry="5.392"/>
<g>
	<path style="fill:#3E4347;" d="M396.256,160.144c-3.04,3.728-8.704,4.736-12.992,1.52c-29.584-23.36-56.816-26.672-83.072-10.224
		c-4.416,2.768-10.224,1.392-12.848-2.896c-2.768-4.432-1.52-10.224,2.896-12.992c33.312-20.88,68.56-17.008,104.496,11.472
		C398.736,150.192,399.44,156,396.256,160.144z"/>
	<path style="fill:#3E4347;" d="M115.744,160.144c3.04,3.728,8.704,4.736,12.992,1.52c29.584-23.36,56.816-26.672,83.072-10.224
		c4.416,2.768,10.224,1.392,12.848-2.896c2.768-4.432,1.52-10.224-2.896-12.992c-33.312-20.88-68.56-17.008-104.496,11.472
		C113.264,150.192,112.576,156,115.744,160.144z"/>
	<path style="fill:#3E4347;" d="M437.776,286.784c21.664-12.896-20.88,150.928-180.752,154.112
		C96.992,438.432,54.96,273.568,77.2,286.272c4.416-4.944,55.984,121.28,180.08,119.568
		C381.2,407.536,433.664,281.936,437.776,286.784z"/>
</g>
<g>
	<path style="fill:#FFFFFF;" d="M318.128,395.6c-0.752,9.232-1.744,18.496-2.992,27.76c-0.336,2.256-4.064,4.656-8.64,5.36
		c-12.16,1.888-24.416,3.072-36.688,3.568c-4.384,0.176-8.288-1.456-8.496-3.504c-0.8-7.664-1.536-15.312-2.224-22.976
		C280.208,405.936,300.304,402.096,318.128,395.6z"/>
	<path style="fill:#FFFFFF;" d="M255.36,405.808c-0.8,7.664-1.664,15.328-2.576,22.976c-0.224,2.032-4.128,3.696-8.512,3.52
		c-12.192-0.48-24.368-1.632-36.464-3.488c-4.8-0.72-8.528-3.136-8.848-5.392c-1.104-9.328-1.968-18.64-2.592-27.952
		C214.16,402,234.256,405.952,255.36,405.808z"/>
</g>
<g>
</g>
<g>
</g>
<g>
</g>
<g>
</g>
<g>
</g>
<g>
</g>
<g>
</g>
<g>
</g>
<g>
</g>
<g>
</g>
<g>
</g>
<g>
</g>
<g>
</g>
<g>
</g>
<g>
</g>
</svg>
