<?xml version="1.0" encoding="iso-8859-1"?>
<!-- Generator: Adobe Illustrator 19.0.0, SVG Export Plug-In . SVG Version: 6.00 Build 0)  -->
<svg version="1.1" id="Capa_1" xmlns="http://www.w3.org/2000/svg" xmlns:xlink="http://www.w3.org/1999/xlink" x="0px" y="0px"
	 viewBox="0 0 512 512" style="enable-background:new 0 0 512 512;" xml:space="preserve">
<circle style="fill:#FFD93B;" cx="256" cy="256" r="256"/>
<path style="fill:#F4C534;" d="M512,256c0,141.44-114.64,256-256,256c-80.48,0-152.32-37.12-199.28-95.28
	c43.92,35.52,99.84,56.72,160.72,56.72c141.36,0,256-114.56,256-256c0-60.88-21.2-116.8-56.72-160.72
	C474.8,103.68,512,175.52,512,256z"/>
<path style="fill:#E24B4B;" d="M280.512,182.608c-21.536,44.704-6,92.592,48.384,107.328c48.032,13.024,103.952-6.976,116.704-44.72
	c12.128-35.888-16.576-81.984-56.72-101.424C344.032,122.08,300.752,140.624,280.512,182.608z"/>
<circle style="fill:#3E4347;" cx="320.32" cy="223.552" r="29.104"/>
<ellipse transform="matrix(-0.7071 -0.7071 0.7071 -0.7071 415.0938 597.3033)" style="fill:#FFFFFF;" cx="331.252" cy="212.683" rx="8.336" ry="5.504"/>
<path style="fill:#E24B4B;" d="M231.488,182.608c21.536,44.704,6,92.592-48.384,107.328C135.072,302.96,79.152,282.96,66.4,245.216
	c-12.128-35.888,16.592-81.984,56.72-101.424C167.968,122.08,211.248,140.624,231.488,182.608z"/>
<circle style="fill:#3E4347;" cx="191.6" cy="223.552" r="29.104"/>
<ellipse transform="matrix(-0.7072 -0.7071 0.7071 -0.7072 195.2998 506.25)" style="fill:#FFFFFF;" cx="202.487" cy="212.681" rx="8.337" ry="5.504"/>
<path style="fill:#3E4347;" d="M362.496,415.856c-8.208,13.312-31.344,22.912-51.296,27.76
	c-35.856,8.528-172.064,13.936-168.256-42.224c1.376-19.136,22.128-40.976,49.328-54.896
	C276.608,303.312,398.96,356.752,362.496,415.856z"/>
<path style="fill:#E24B4B;" d="M311.216,443.616c6.96-1.696,14.304-4,21.264-6.816c-4.56-21.152-18.528-38.848-37.552-48.096
	c-7.968-3.888-17.232-2.72-25.152,1.424c-5.904,3.04-12.912,4.8-21.104,4.688c-2.896-0.032-5.696-0.32-8.336-0.832
	c-8.48-1.568-17.36,0.88-23.696,6.816c-11.76,11.088-19.296,26.256-21.12,43.232C236.816,452.336,290.592,448.528,311.216,443.616z"
	/>
<g>
	<path style="fill:#FFFFFF;" d="M200.304,342.72l-2.56,26.8c-0.112,1.12,0.464,2.224,1.488,2.752l6.432,3.424
		c0.848,0.464,1.904,0.416,2.752-0.064l14.864-9.088c0.672-0.384,1.168-1.088,1.312-1.872l5.664-30.992
		C220.048,335.632,209.968,338.56,200.304,342.72z"/>
	<path style="fill:#FFFFFF;" d="M322.832,374.176l19.76-20.672c-7.584-5.136-16.448-9.584-26.256-13.152l-18.592,23.12
		c-0.72,0.896-0.848,2.112-0.272,3.12l3.488,6.4c0.464,0.848,1.36,1.408,2.352,1.456l17.408,0.576
		C321.488,375.072,322.288,374.752,322.832,374.176z"/>
	<path style="fill:#FFFFFF;" d="M282.624,416.976c-0.128-1.136-0.896-2.096-2.016-2.4l-6.992-2.064
		c-0.928-0.272-1.952-0.032-2.688,0.64l-12.704,11.904c-0.576,0.512-0.928,1.312-0.912,2.096l0.496,21.712
		c10.128-0.176,19.616-0.736,28.112-1.536L282.624,416.976z"/>
</g>
<g>
</g>
<g>
</g>
<g>
</g>
<g>
</g>
<g>
</g>
<g>
</g>
<g>
</g>
<g>
</g>
<g>
</g>
<g>
</g>
<g>
</g>
<g>
</g>
<g>
</g>
<g>
</g>
<g>
</g>
</svg>
