<?xml version="1.0" encoding="iso-8859-1"?>
<!-- Generator: Adobe Illustrator 19.0.0, SVG Export Plug-In . SVG Version: 6.00 Build 0)  -->
<svg version="1.1" id="Capa_1" xmlns="http://www.w3.org/2000/svg" xmlns:xlink="http://www.w3.org/1999/xlink" x="0px" y="0px"
	 viewBox="0 0 512 512" style="enable-background:new 0 0 512 512;" xml:space="preserve">
<g>
	<circle style="fill:#FFD93B;" cx="256" cy="256" r="256"/>
	<circle style="fill:#FFD93B;" cx="256" cy="256" r="256"/>
</g>
<path style="fill:#F4C534;" d="M512,256c0,141.44-114.64,256-256,256c-80.48,0-152.32-37.12-199.28-95.28
	c43.92,35.52,99.84,56.72,160.72,56.72c141.36,0,256-114.56,256-256c0-60.88-21.2-116.8-56.72-160.72
	C474.8,103.68,512,175.52,512,256z"/>
<path style="fill:#E24B4B;" d="M253.536,385.504c-14.432,0-27.376-2.272-38.96-6.256c-22.992-1.12-42.272-7.808-57.568-18.56
	c-12.096,65.168,5.344,106.16,36.832,113.472c32.432,7.536,67.408-23.184,84.816-91.12
	C270.816,384.64,262.464,385.504,253.536,385.504z"/>
<path style="fill:#F4C534;" d="M439.44,200.112c0-47.84-39.04-86.88-86.88-86.88c-48,0-87.04,39.04-87.04,86.88
	c0,48,39.04,87.04,87.04,87.04C400.4,287.152,439.44,248.112,439.44,200.112z"/>
<path style="fill:#FFFFFF;" d="M419.504,200.096c0,37.12-29.92,67.04-66.88,67.04c-37.12,0-67.04-29.92-67.04-67.04
	c0-36.96,29.92-66.88,67.04-66.88C389.584,133.216,419.504,163.136,419.504,200.096z"/>
<circle style="fill:#3E4347;" cx="369.28" cy="189.856" r="34.08"/>
<path style="fill:#FFFFFF;" d="M387.36,182.96c-2.208,2.032-6.24,0.976-9.28-2.16c-2.864-3.312-3.568-7.408-1.36-9.44
	s6.416-1.136,9.296,2C389.04,176.656,389.568,180.928,387.36,182.96z"/>
<path style="fill:#F4C534;" d="M246.48,226.592c0-47.84-39.04-86.88-86.88-86.88c-48,0-87.04,39.04-87.04,86.88
	c0,48,39.04,87.04,87.04,87.04C207.44,313.632,246.48,274.592,246.48,226.592z"/>
<path style="fill:#FFFFFF;" d="M226.416,226.576c0,37.12-29.92,67.04-66.88,67.04c-37.12,0-67.04-29.92-67.04-67.04
	c0-36.96,29.92-66.88,67.04-66.88C196.496,159.696,226.416,189.616,226.416,226.576z"/>
<path style="fill:#3E4347;" d="M210.176,216.336c0,18.72-15.2,34.08-34.08,34.08c-18.72,0-34.08-15.36-34.08-34.08
	s15.36-34.08,34.08-34.08C194.976,182.256,210.176,197.616,210.176,216.336z"/>
<path style="fill:#FFFFFF;" d="M194.272,209.44c-2.208,2.032-6.24,0.976-9.28-2.16c-2.864-3.312-3.568-7.408-1.36-9.44
	s6.416-1.136,9.296,2C195.952,203.136,196.48,207.408,194.272,209.44z"/>
<g>
	<path style="fill:#3E4347;" d="M269.12,106.56c-4.128-3.664-4.48-9.984-0.816-14.112C270.496,90,322.4,33.136,406.576,62.32
		c5.216,1.808,7.968,7.504,6.176,12.72c-1.808,5.232-7.504,8-12.736,6.176c-71.712-24.88-116.32,24.048-116.768,24.544
		C279.6,109.84,273.264,110.24,269.12,106.56z"/>
	<path style="fill:#3E4347;" d="M217.408,136.16c-57.984-48.912-117.184-19.312-117.792-18.992
		c-4.896,2.544-10.944,0.576-13.472-4.304c-2.528-4.912-0.608-10.944,4.32-13.472c2.896-1.488,71.712-35.984,139.856,21.504
		c4.224,3.552,4.752,9.872,1.184,14.08C227.952,139.2,221.616,139.728,217.408,136.16z"/>
	<path style="fill:#3E4347;" d="M114.544,327.744c16,10,52.752,37.728,113.264,45.04c48.624,7.152,102.56,1.776,124.736,1.968
		c-35.024,15.2-81.216,23.552-127.52,17.824C179.76,385.728,140.672,366.128,114.544,327.744z"/>
</g>
<g>
</g>
<g>
</g>
<g>
</g>
<g>
</g>
<g>
</g>
<g>
</g>
<g>
</g>
<g>
</g>
<g>
</g>
<g>
</g>
<g>
</g>
<g>
</g>
<g>
</g>
<g>
</g>
<g>
</g>
</svg>
