<?xml version="1.0" encoding="iso-8859-1"?>
<!-- Generator: Adobe Illustrator 19.0.0, SVG Export Plug-In . SVG Version: 6.00 Build 0)  -->
<svg version="1.1" id="Capa_1" xmlns="http://www.w3.org/2000/svg" xmlns:xlink="http://www.w3.org/1999/xlink" x="0px" y="0px"
	 viewBox="0 0 512 512" style="enable-background:new 0 0 512 512;" xml:space="preserve">
<g>
	<circle style="fill:#FFD93B;" cx="256" cy="256" r="256"/>
	<circle style="fill:#FFD93B;" cx="256" cy="256" r="256"/>
</g>
<g>
	<path style="fill:#F4C534;" d="M512,256c0,141.44-114.64,256-256,256c-80.48,0-152.32-37.12-199.28-95.28
		c43.92,35.52,99.84,56.72,160.72,56.72c141.36,0,256-114.56,256-256c0-60.88-21.2-116.8-56.72-160.72
		C474.8,103.68,512,175.52,512,256z"/>
	<path style="fill:#F4C534;" d="M439.44,226.752c0,47.84-39.04,86.88-86.88,86.88c-48,0-87.04-39.04-87.04-86.88
		c0-48,39.04-87.04,87.04-87.04C400.4,139.712,439.44,178.752,439.44,226.752z"/>
	<path style="fill:#F4C534;" d="M246.48,226.752c0,47.84-39.04,86.88-86.88,86.88c-48,0-87.04-39.04-87.04-86.88
		c0-48,39.04-87.04,87.04-87.04C207.44,139.712,246.48,178.752,246.48,226.752z"/>
</g>
<path style="fill:#FFFFFF;" d="M226.416,226.768c0-37.12-29.92-67.04-66.88-67.04c-37.12,0-67.04,29.92-67.04,67.04
	c0,36.96,29.92,66.88,67.04,66.88C196.496,293.648,226.416,263.728,226.416,226.768z"/>
<path style="fill:#3E4347;" d="M205.328,240.24c0-14.48-11.632-26.112-25.968-26.112c-14.48,0-26.112,11.632-26.112,26.112
	c0,14.352,11.632,25.984,26.112,25.984C193.696,266.224,205.328,254.576,205.328,240.24z"/>
<g>
	<path style="fill:#FFFFFF;" d="M194.272,243.904c-2.208-2.032-6.24-0.976-9.28,2.16c-2.864,3.312-3.568,7.408-1.36,9.44
		s6.416,1.136,9.296-1.984C195.952,250.208,196.48,245.936,194.272,243.904z"/>
	<path style="fill:#FFFFFF;" d="M419.504,226.768c0-37.12-29.92-67.04-66.88-67.04c-37.12,0-67.04,29.92-67.04,67.04
		c0,36.96,29.92,66.88,67.04,66.88C389.584,293.648,419.504,263.728,419.504,226.768z"/>
</g>
<path style="fill:#3E4347;" d="M398.432,240.24c0-14.48-11.632-26.112-25.968-26.112c-14.48,0-26.112,11.632-26.112,26.112
	c0,14.352,11.632,25.984,26.112,25.984C386.8,266.224,398.432,254.576,398.432,240.24z"/>
<path style="fill:#FFFFFF;" d="M387.36,243.904c-2.208-2.032-6.24-0.976-9.28,2.16c-2.864,3.312-3.568,7.408-1.36,9.44
	s6.416,1.136,9.296-1.984C389.04,250.208,389.568,245.936,387.36,243.904z"/>
<g>
	<path style="fill:#3E4347;" d="M418.496,131.872c-44.816-44.32-100.784-35.312-103.088-34.88
		c-5.456,0.976-10.592-2.688-11.568-8.128c-0.944-5.424,2.672-10.608,8.096-11.568c2.768-0.496,68.304-11.392,120.624,40.352
		c3.92,3.888,3.968,10.224,0.08,14.144C428.816,135.664,422.48,135.808,418.496,131.872z"/>
	<path style="fill:#3E4347;" d="M79.376,131.808c-3.904-3.936-3.856-10.272,0.064-14.144c52.32-51.76,117.872-40.88,120.624-40.352
		c5.424,0.96,9.024,6.128,8.096,11.568c-0.976,5.424-6.112,9.04-11.568,8.128c-2.368-0.432-58.304-9.44-103.088,34.88
		C89.52,135.808,83.2,135.664,79.376,131.808z"/>
	<path style="fill:#3E4347;" d="M343.584,401.952c-4.784,9.008-16.272,13.04-26.592,8.912h-0.128
		c-39.28-16.192-82.464-16.192-121.744,0c-10.256,4.048-21.872,0.128-26.72-8.912c-5.552-10.192,0.816-22.928,11.744-27.408
		c48.992-20.112,102.848-20.112,151.712,0C343.072,379.136,349.12,391.776,343.584,401.952z"/>
</g>
<g>
</g>
<g>
</g>
<g>
</g>
<g>
</g>
<g>
</g>
<g>
</g>
<g>
</g>
<g>
</g>
<g>
</g>
<g>
</g>
<g>
</g>
<g>
</g>
<g>
</g>
<g>
</g>
<g>
</g>
</svg>
