<?xml version="1.0" encoding="iso-8859-1"?>
<!-- Generator: Adobe Illustrator 19.0.0, SVG Export Plug-In . SVG Version: 6.00 Build 0)  -->
<svg version="1.1" id="Capa_1" xmlns="http://www.w3.org/2000/svg" xmlns:xlink="http://www.w3.org/1999/xlink" x="0px" y="0px"
	 viewBox="0 0 512 512" style="enable-background:new 0 0 512 512;" xml:space="preserve">
<g>
	<circle style="fill:#FFD93B;" cx="220.592" cy="291.408" r="220.592"/>
	<circle style="fill:#FFD93B;" cx="220.592" cy="291.408" r="220.592"/>
</g>
<path style="fill:#F4C534;" d="M441.2,291.408C441.2,413.28,342.416,512,220.592,512c-69.344,0-131.248-31.984-171.728-82.112
	c37.84,30.608,86.032,48.88,138.496,48.88c121.808,0,220.592-98.72,220.592-220.592c0-52.464-18.272-100.64-48.88-138.496
	C409.136,160.144,441.2,222.048,441.2,291.408z"/>
<g>
	<path style="fill:#E9EFF4;" d="M512,63.776c0,35.136-33.136,63.776-73.76,63.776c-40.832,0-73.76-28.656-73.76-63.776
		C364.464,28.48,397.408,0,438.24,0C478.864,0,512,28.48,512,63.776z"/>
	<ellipse style="fill:#E9EFF4;" cx="412.987" cy="101.344" rx="42.175" ry="42.175"/>
	<ellipse style="fill:#E9EFF4;" cx="365.586" cy="154.736" rx="13.072" ry="13.072"/>
	<ellipse style="fill:#E9EFF4;" cx="345.464" cy="184.955" rx="10.16" ry="10.16"/>
</g>
<path style="fill:#E24B4B;" d="M443.952,81.216h-12.256c-0.192-10.112,0.544-14.16,9.808-21.696
	c4.208-3.424,8.848-6.416,8.848-11.488c0-4.88-4-9.568-11.632-9.568c-6.624,0-11.584,3.616-13.376,11.872l-12.4-1.536
	c0.672-10.8,9.568-20.624,25.2-20.624c16.544,0,25.392,10.24,25.392,20.24c0,8.32-6.768,13.888-13.328,19.328
	C444.56,72.448,443.84,73.968,443.952,81.216z M431.696,99.392V85.888h13.52v13.52h-13.52V99.392z"/>
<path style="fill:#FFFFFF;" d="M205.808,267.072c0,37.12-29.92,67.04-66.88,67.04c-37.12,0-67.04-29.92-67.04-67.04
	c0-36.96,29.92-66.88,67.04-66.88C175.888,200.192,205.808,230.112,205.808,267.072z"/>
<path style="fill:#3E4347;" d="M184.736,253.6c0,14.48-11.632,26.112-25.984,26.112c-14.48,0-26.112-11.632-26.112-26.112
	c0-14.352,11.632-25.984,26.112-25.984C173.104,227.632,184.736,239.264,184.736,253.6z"/>
<g>
	<path style="fill:#FFFFFF;" d="M173.664,249.936c-2.208,2.032-6.24,0.976-9.28-2.16c-2.864-3.312-3.568-7.408-1.36-9.44
		s6.416-1.136,9.296,1.984C175.344,243.632,175.872,247.904,173.664,249.936z"/>
	<path style="fill:#FFFFFF;" d="M369.312,267.072c0,37.12-29.92,67.04-66.88,67.04c-37.12,0-67.04-29.92-67.04-67.04
		c0-36.96,29.92-66.88,67.04-66.88C339.392,200.192,369.312,230.112,369.312,267.072z"/>
</g>
<path style="fill:#3E4347;" d="M348.224,253.6c0,14.48-11.632,26.112-25.984,26.112c-14.48,0-26.112-11.632-26.112-26.112
	c0-14.352,11.632-25.984,26.112-25.984C336.592,227.632,348.224,239.264,348.224,253.6z"/>
<path style="fill:#FFFFFF;" d="M337.152,249.936c-2.208,2.032-6.24,0.976-9.28-2.16c-2.864-3.312-3.568-7.408-1.36-9.44
	s6.416-1.136,9.296,1.984C338.848,243.632,339.376,247.904,337.152,249.936z"/>
<path style="fill:#3E4347;" d="M309.424,419.456c-3.28,7.776-17.616,8.112-22.976,3.968c-27.12-10.544-81.168-2.592-116.064,15.888
	c-13.12,6.912-29.712,3.456-36.96-9.504c-0.688-1.216-1.216-2.24-1.728-3.28c-13.984-39.376,25.904-101.552,88.944-63.392
	C283.504,401.84,323.584,395.968,309.424,419.456z"/>
<path style="fill:#E24B4B;" d="M244.72,416.112c-0.816-13.44-8.176-25.12-19.184-31.552c-5.568-3.232-12.352-2.864-18.16-0.048
	c-4.096,1.984-8.896,3.136-14.48,3.136c0,0-0.048,0-0.096,0c-8.72,0-17.008,4.144-21.296,11.76
	c-2.768,5.008-4.352,10.688-4.72,16.72h77.936V416.112z"/>
<g>
	<path style="fill:#FFFFFF;" d="M286.448,423.424c5.024,3.888,17.808,3.744,22.112-2.688c-16.4-11.76-50.64-10.384-90.368-10.384
		c-38.128,0-71.296-1.344-88.4,8.96c0.464,2.464,1.056,4.88,1.888,7.216c0.512,1.04,1.04,2.064,1.728,3.28
		c7.264,12.96,23.84,16.4,36.96,9.504C205.28,420.832,259.328,412.896,286.448,423.424z"/>
	<path style="fill:#FFFFFF;" d="M208.336,372.8c9.856,0,19.344-0.144,28.336-0.496c-5.184-2.768-10.48-5.728-16.032-9.152
		c-33.552-20.32-60.432-12.096-76.24,5.872C161.76,371.984,184.032,372.8,208.336,372.8z"/>
</g>
<g>
</g>
<g>
</g>
<g>
</g>
<g>
</g>
<g>
</g>
<g>
</g>
<g>
</g>
<g>
</g>
<g>
</g>
<g>
</g>
<g>
</g>
<g>
</g>
<g>
</g>
<g>
</g>
<g>
</g>
</svg>
