<?xml version="1.0" encoding="iso-8859-1"?>
<!-- Generator: Adobe Illustrator 19.0.0, SVG Export Plug-In . SVG Version: 6.00 Build 0)  -->
<svg version="1.1" id="Capa_1" xmlns="http://www.w3.org/2000/svg" xmlns:xlink="http://www.w3.org/1999/xlink" x="0px" y="0px"
	 viewBox="0 0 512 512" style="enable-background:new 0 0 512 512;" xml:space="preserve">
<g>
	<circle style="fill:#FFD93B;" cx="256" cy="256" r="256"/>
	<circle style="fill:#FFD93B;" cx="256" cy="256" r="256"/>
</g>
<path style="fill:#F4C534;" d="M512,256c0,141.44-114.64,256-256,256c-80.48,0-152.32-37.12-199.28-95.28
	c43.92,35.52,99.84,56.72,160.72,56.72c141.36,0,256-114.56,256-256c0-60.88-21.2-116.8-56.72-160.72
	C474.8,103.68,512,175.52,512,256z"/>
<path style="fill:#3E4347;" d="M105.728,381.872c-2.192,20.528,50.576,60.608,146.416,38.144
	c95.856-21.328,148.592-8.752,146.416-38.144c2.16-29.408-50.56-16.816-146.416-38.144
	C156.304,321.28,103.552,361.344,105.728,381.872z"/>
<g>
	<path style="fill:#FFFFFF;" d="M131.536,370.368c13.888-13.856,55.648-24.64,120.608-14.496
		c64.96,9.552,106.736,10.32,120.624,18.064C293.84,380.752,213.472,374.848,131.536,370.368z"/>
	<path style="fill:#FFFFFF;" d="M376.72,386.496c-7.776,11.264-51.6,10.528-124.576,21.376
		c-72.96,11.552-116.784-3.856-124.576-19.584C210.624,404.176,293.664,388.816,376.72,386.496z"/>
</g>
<path style="fill:#F4C534;" d="M238.944,231.088c0,44.08-35.904,79.984-79.984,79.984c-44.24,0-79.984-35.904-79.984-79.984
	c0-44.24,35.744-79.984,79.984-79.984C203.04,151.104,238.944,186.848,238.944,231.088z"/>
<path style="fill:#FFFFFF;" d="M222.144,231.088c0,34.912-28.272,63.184-63.184,63.184c-35.088,0-63.36-28.272-63.36-63.184
	s28.272-63.36,63.36-63.36C193.872,167.728,222.144,196.176,222.144,231.088z"/>
<circle style="fill:#3E4347;" cx="178.928" cy="224.96" r="33.552"/>
<path style="fill:#FFFFFF;" d="M198.224,218.576c-2.08,2.08-6.416,1.44-9.616-1.6c-3.04-3.2-3.68-7.376-1.6-9.616
	c2.24-2.24,6.576-1.6,9.616,1.6C199.824,212,200.464,216.32,198.224,218.576z"/>
<path style="fill:#F4C534;" d="M433.024,231.088c0,44.08-35.904,79.984-79.984,79.984c-44.24,0-79.984-35.904-79.984-79.984
	c0-44.24,35.744-79.984,79.984-79.984C397.12,151.104,433.024,186.848,433.024,231.088z"/>
<path style="fill:#FFFFFF;" d="M416.24,231.088c0,34.912-28.272,63.184-63.184,63.184c-35.088,0-63.36-28.272-63.36-63.184
	s28.272-63.36,63.36-63.36C387.968,167.728,416.24,196.176,416.24,231.088z"/>
<circle style="fill:#3E4347;" cx="373.024" cy="224.96" r="33.552"/>
<path style="fill:#FFFFFF;" d="M392.304,218.576c-2.08,2.08-6.416,1.44-9.616-1.6c-3.04-3.2-3.68-7.376-1.6-9.616
	c2.24-2.24,6.576-1.6,9.616,1.6C393.904,212,394.56,216.32,392.304,218.576z"/>
<g>
	<path style="fill:#3E4347;" d="M266.416,146.912c-2.336-3.76-1.168-8.704,2.576-11.04c25.056-15.584,64.72-35.36,119.792-27.184
		c4.384,0.656,7.408,4.72,6.752,9.104c-0.624,4.368-4.816,7.392-9.088,6.752c-49.312-7.376-84.128,9.472-108.992,24.944
		C273.68,151.824,268.752,150.688,266.416,146.912z"/>
	<path style="fill:#3E4347;" d="M91.936,146.912c-2.336-3.744-1.2-8.688,2.576-11.024c25.04-15.584,64.704-35.408,119.776-27.184
		c4.384,0.656,7.408,4.72,6.752,9.104c-0.64,4.368-4.784,7.392-9.088,6.752c-49.296-7.344-84.128,9.472-108.976,24.944
		C99.216,151.84,94.256,150.672,91.936,146.912z"/>
</g>
<g>
</g>
<g>
</g>
<g>
</g>
<g>
</g>
<g>
</g>
<g>
</g>
<g>
</g>
<g>
</g>
<g>
</g>
<g>
</g>
<g>
</g>
<g>
</g>
<g>
</g>
<g>
</g>
<g>
</g>
</svg>
