<?xml version="1.0" encoding="iso-8859-1"?>
<!-- Generator: Adobe Illustrator 19.0.0, SVG Export Plug-In . SVG Version: 6.00 Build 0)  -->
<svg version="1.1" id="Capa_1" xmlns="http://www.w3.org/2000/svg" xmlns:xlink="http://www.w3.org/1999/xlink" x="0px" y="0px"
	 viewBox="0 0 512 512" style="enable-background:new 0 0 512 512;" xml:space="preserve">
<g>
	<circle style="fill:#FFD93B;" cx="256" cy="256" r="256"/>
	<circle style="fill:#FFD93B;" cx="256" cy="256" r="256"/>
</g>
<path style="fill:#F4C534;" d="M512,256c0,141.44-114.64,256-256,256c-80.48,0-152.32-37.12-199.28-95.28
	c43.92,35.52,99.84,56.72,160.72,56.72c141.36,0,256-114.56,256-256c0-60.88-21.2-116.8-56.72-160.72
	C474.8,103.68,512,175.52,512,256z"/>
<g>
	<path style="fill:#FFFFFF;" d="M73.584,238.64c-0.56,40.704,34.352,73.696,77.968,73.696s79.424-32.992,79.968-73.696
		c0.56-40.704-34.352-73.696-77.968-73.696S74.128,197.936,73.584,238.64z"/>
	<path style="fill:#FFFFFF;" d="M278.544,386.304l-3.52,35.2c-0.32,2.4-2.24,4.16-4.64,4.16h-28.8c-2.4,0-4.32-1.76-4.64-4.16
		l-3.52-35.2c7.36,1.28,14.88,1.92,22.56,1.92C263.664,388.224,271.184,387.584,278.544,386.304z"/>
	<path style="fill:#FFFFFF;" d="M226.848,380.176c-17.536,0-31.92-1.888-43.296-9.76l0.272,41.328c0,2.4,1.76,4.32,4.16,4.64
		l28.64,2.88c2.4,0.16,4.48-1.44,4.96-3.68l7.168-35.504C228.096,380.096,227.504,380.176,226.848,380.176z"/>
	<path style="fill:#FFFFFF;" d="M287.2,381.76c-1.264,0-2.448-0.128-3.68-0.176l6.864,34.016c0.48,2.24,2.72,3.84,4.96,3.68
		l28.64-2.88c2.4-0.32,4.16-2.24,4.16-4.64l0.256-41.328C317.36,377.472,303.664,381.76,287.2,381.76z"/>
</g>
<path style="fill:#3E4347;" d="M130.368,335.296c36.48,32.064,77.6,42.032,125.456,42.256
	c47.392,0.272,90.016-10.944,125.808-42.256c-30.128,43.312-73.648,57.04-125.456,58.24
	C203.744,392.304,160.576,378.672,130.368,335.296z"/>
<path style="fill:#FFFFFF;" d="M276.88,238.64c-0.56,40.704,34.352,73.696,77.968,73.696s79.424-32.992,79.968-73.696
	s-34.352-73.696-77.968-73.696C313.248,164.944,277.44,197.936,276.88,238.64z"/>
<circle style="fill:#3E4347;" cx="152.544" cy="238.608" r="35.52"/>
<path style="fill:#FFFFFF;" d="M172.528,233.296c-3.04,3.04-8.848,2.272-12.896-1.776c-4.048-4.048-4.8-9.856-1.776-12.896
	c3.168-3.152,8.976-2.4,13.024,1.648C174.928,224.32,175.68,230.144,172.528,233.296z"/>
<circle style="fill:#3E4347;" cx="355.84" cy="238.608" r="35.52"/>
<path style="fill:#FFFFFF;" d="M335.888,233.296c3.04,3.04,8.848,2.272,12.896-1.776s4.8-9.856,1.776-12.896
	c-3.168-3.152-8.976-2.4-13.008,1.648C333.488,224.32,332.72,230.144,335.888,233.296z"/>
<g>
	<path style="fill:#3E4347;" d="M427.296,169.984c-36.8-48.432-105.296-61.728-105.984-61.856c-5.424-1.008-9.008-6.24-8-11.648
		c1.024-5.424,6.32-8.944,11.648-8.016c3.12,0.576,76.704,14.736,118.288,69.408c3.328,4.4,2.48,10.672-1.92,14.016
		C437.008,175.184,430.688,174.432,427.296,169.984z"/>
	<path style="fill:#3E4347;" d="M70.688,171.888c-4.4-3.344-5.248-9.616-1.92-14.016c41.584-54.688,115.152-68.832,118.288-69.408
		c5.312-0.944,10.624,2.576,11.632,8.016c1.008,5.424-2.576,10.64-8,11.648c-0.688,0.128-69.184,13.424-105.984,61.856
		C81.312,174.432,75.008,175.184,70.688,171.888z"/>
</g>
<g>
</g>
<g>
</g>
<g>
</g>
<g>
</g>
<g>
</g>
<g>
</g>
<g>
</g>
<g>
</g>
<g>
</g>
<g>
</g>
<g>
</g>
<g>
</g>
<g>
</g>
<g>
</g>
<g>
</g>
</svg>
