<?xml version="1.0" encoding="iso-8859-1"?>
<!-- Generator: Adobe Illustrator 19.0.0, SVG Export Plug-In . SVG Version: 6.00 Build 0)  -->
<svg version="1.1" id="Capa_1" xmlns="http://www.w3.org/2000/svg" xmlns:xlink="http://www.w3.org/1999/xlink" x="0px" y="0px"
	 viewBox="0 0 512 512" style="enable-background:new 0 0 512 512;" xml:space="preserve">
<circle style="fill:#FFD93B;" cx="256" cy="256" r="256"/>
<path style="fill:#F4C534;" d="M512,256c0,141.44-114.64,256-256,256c-80.48,0-152.32-37.12-199.28-95.28
	c43.92,35.52,99.84,56.72,160.72,56.72c141.36,0,256-114.56,256-256c0-60.88-21.2-116.8-56.72-160.72
	C474.8,103.68,512,175.52,512,256z"/>
<g>
	<path style="fill:#FFFFFF;" d="M233.312,244.464c-4.976,39.472-44.352,71.472-87.968,71.472s-74.944-32-69.968-71.472
		s44.352-71.472,87.968-71.472S238.288,204.992,233.312,244.464z"/>
	<path style="fill:#FFFFFF;" d="M278.72,244.464c4.976,39.472,44.352,71.472,87.968,71.472s74.944-32,69.968-71.472
		c-4.976-39.472-44.352-71.472-87.968-71.472S273.744,204.992,278.72,244.464z"/>
</g>
<circle style="fill:#3E4347;" cx="154.384" cy="244.432" r="35.52"/>
<path style="fill:#FFFFFF;" d="M174.352,239.12c-3.04,3.04-8.848,2.272-12.896-1.76c-4.048-4.048-4.8-9.856-1.776-12.896
	c3.152-3.152,8.976-2.4,13.008,1.648C176.752,230.144,177.52,235.968,174.352,239.12z"/>
<circle style="fill:#3E4347;" cx="357.68" cy="244.432" r="35.52"/>
<path style="fill:#FFFFFF;" d="M337.712,239.12c3.04,3.04,8.848,2.272,12.896-1.76c4.048-4.048,4.8-9.856,1.776-12.896
	c-3.152-3.152-8.976-2.4-13.008,1.648C335.312,230.144,334.56,235.968,337.712,239.12z"/>
<g>
	<path style="fill:#3E4347;" d="M118.304,390.544c0,10.624,28.144,4.544,40.512,9.088c8.672,3.184,8.448,15.312,21.552,17.36
		c10.704,1.664,28.336-7.232,41.168-6.304c11.456,0.816,21.872,11.616,34.464,11.616c12.608,0,23.024-10.8,34.496-11.616
		c12.832-0.928,30.464,7.968,41.168,6.304c13.088-2.048,12.848-14.16,21.52-17.36c12.368-4.544,40.528,1.536,40.528-9.088
		c0-29.584-61.648-53.568-137.696-53.568C179.952,336.976,118.304,360.96,118.304,390.544z"/>
	<path style="fill:#3E4347;" d="M282.576,115.328c-4.336-4.096-4.544-10.928-0.448-15.264c4.112-4.352,10.944-4.528,15.264-0.432
		C322.064,122.896,360.8,131.2,403.776,122.4c5.824-1.168,11.552,2.56,12.752,8.4c1.2,5.84-2.56,11.552-8.4,12.752
		C363.664,152.672,315.536,146.448,282.576,115.328z"/>
	<path style="fill:#3E4347;" d="M77.808,143.552c-5.856-1.184-9.616-6.912-8.416-12.752c1.184-5.84,6.864-9.568,12.752-8.4
		c42.976,8.8,81.712,0.496,106.384-22.768c4.32-4.096,11.184-3.888,15.264,0.432c4.096,4.352,3.888,11.184-0.448,15.264
		C170.416,146.416,122.32,152.672,77.808,143.552z"/>
</g>
<g>
</g>
<g>
</g>
<g>
</g>
<g>
</g>
<g>
</g>
<g>
</g>
<g>
</g>
<g>
</g>
<g>
</g>
<g>
</g>
<g>
</g>
<g>
</g>
<g>
</g>
<g>
</g>
<g>
</g>
</svg>
