<?xml version="1.0" encoding="iso-8859-1"?>
<!-- Generator: Adobe Illustrator 19.0.0, SVG Export Plug-In . SVG Version: 6.00 Build 0)  -->
<svg version="1.1" id="Capa_1" xmlns="http://www.w3.org/2000/svg" xmlns:xlink="http://www.w3.org/1999/xlink" x="0px" y="0px"
	 viewBox="0 0 512 512" style="enable-background:new 0 0 512 512;" xml:space="preserve">
<circle style="fill:#FFD93B;" cx="256" cy="256" r="256"/>
<path style="fill:#F4C534;" d="M512,256c0,141.44-114.64,256-256,256c-80.48,0-152.32-37.12-199.28-95.28
	c43.92,35.52,99.84,56.72,160.72,56.72c141.36,0,256-114.56,256-256c0-60.88-21.2-116.8-56.72-160.72
	C474.8,103.68,512,175.52,512,256z"/>
<g>
	<path style="fill:#3E4347;" d="M129.568,390.592c0,9.76,25.84,4.16,37.2,8.352c7.968,2.928,7.76,14.064,19.776,15.936
		c9.824,1.536,26.016-6.64,37.792-5.792c10.528,0.752,20.08,10.672,31.648,10.672c11.584,0,21.136-9.92,31.664-10.672
		c11.776-0.848,27.968,7.328,37.792,5.792c12.016-1.872,11.792-13.008,19.76-15.936c11.36-4.176,37.216,1.408,37.216-8.352
		c0-27.168-56.608-49.184-126.432-49.184C186.176,341.408,129.568,363.424,129.568,390.592z"/>
	<path style="fill:#3E4347;" d="M282.576,91.856c-4.336-4.096-4.544-10.928-0.448-15.264c4.112-4.336,10.96-4.528,15.264-0.432
		c24.672,23.264,63.408,31.568,106.368,22.768c5.824-1.168,11.552,2.56,12.752,8.4c1.2,5.84-2.56,11.552-8.4,12.752
		C363.664,129.184,315.536,122.976,282.576,91.856z"/>
	<path style="fill:#3E4347;" d="M77.808,120.08c-5.856-1.2-9.616-6.912-8.416-12.752c1.184-5.84,6.864-9.584,12.752-8.4
		c42.976,8.8,81.712,0.496,106.384-22.768c4.336-4.096,11.184-3.888,15.264,0.432c4.096,4.336,3.888,11.184-0.448,15.264
		C170.416,122.928,122.32,129.2,77.808,120.08z"/>
</g>
<circle style="fill:#F4C534;" cx="154.096" cy="220.992" r="78.976"/>
<path style="fill:#FFFFFF;" d="M214.944,221.024c-4.144,33.264-34.8,60.144-68.4,60.144s-57.408-26.88-53.264-60.144
	c4.144-33.264,34.672-60.288,68.272-60.288S219.088,187.76,214.944,221.024z"/>
<circle style="fill:#3E4347;" cx="154.128" cy="220.96" r="35.52"/>
<path style="fill:#FFFFFF;" d="M174.096,215.648c-3.04,3.04-8.848,2.272-12.896-1.776c-4.048-4.048-4.8-9.856-1.76-12.896
	c3.152-3.152,8.976-2.4,13.008,1.648C176.496,206.672,177.264,212.48,174.096,215.648z"/>
<circle style="fill:#F4C534;" cx="357.904" cy="220.992" r="78.976"/>
<path style="fill:#FFFFFF;" d="M297.056,221.024c4.144,33.264,34.8,60.144,68.4,60.144s57.408-26.88,53.264-60.144
	c-4.144-33.264-34.672-60.288-68.272-60.288S292.912,187.76,297.056,221.024z"/>
<circle style="fill:#3E4347;" cx="357.936" cy="220.96" r="35.52"/>
<path style="fill:#FFFFFF;" d="M377.92,215.648c-3.04,3.04-8.848,2.272-12.896-1.776s-4.8-9.856-1.776-12.896
	c3.152-3.152,8.976-2.4,13.008,1.648C380.32,206.672,381.072,212.48,377.92,215.648z"/>
<g>
</g>
<g>
</g>
<g>
</g>
<g>
</g>
<g>
</g>
<g>
</g>
<g>
</g>
<g>
</g>
<g>
</g>
<g>
</g>
<g>
</g>
<g>
</g>
<g>
</g>
<g>
</g>
<g>
</g>
</svg>
