<?xml version="1.0" encoding="iso-8859-1"?>
<!-- Generator: Adobe Illustrator 19.0.0, SVG Export Plug-In . SVG Version: 6.00 Build 0)  -->
<svg version="1.1" id="Capa_1" xmlns="http://www.w3.org/2000/svg" xmlns:xlink="http://www.w3.org/1999/xlink" x="0px" y="0px"
	 viewBox="0 0 512 512" style="enable-background:new 0 0 512 512;" xml:space="preserve">
<circle style="fill:#FFD93B;" cx="256" cy="256" r="256"/>
<path style="fill:#F4C534;" d="M512,256c0,141.44-114.64,256-256,256c-80.48,0-152.32-37.12-199.28-95.28
	c43.92,35.52,99.84,56.72,160.72,56.72c141.36,0,256-114.56,256-256c0-60.88-21.2-116.8-56.72-160.72
	C474.8,103.68,512,175.52,512,256z"/>
<circle style="fill:#FFFFFF;" cx="154.352" cy="223.392" r="78.976"/>
<circle style="fill:#3E4347;" cx="154.384" cy="223.36" r="35.52"/>
<g>
	<path style="fill:#FFFFFF;" d="M174.352,218.048c-3.04,3.04-8.848,2.272-12.896-1.776c-4.048-4.048-4.8-9.856-1.776-12.896
		c3.152-3.168,8.976-2.4,13.008,1.648C176.752,209.072,177.52,214.88,174.352,218.048z"/>
	<circle style="fill:#FFFFFF;" cx="357.648" cy="223.392" r="78.976"/>
</g>
<circle style="fill:#3E4347;" cx="357.68" cy="223.36" r="35.52"/>
<path style="fill:#FFFFFF;" d="M377.664,218.048c-3.04,3.04-8.848,2.272-12.896-1.776s-4.8-9.856-1.776-12.896
	c3.168-3.168,8.976-2.4,13.008,1.648C380.064,209.072,380.816,214.88,377.664,218.048z"/>
<g>
	<path style="fill:#3E4347;" d="M384.512,407.92c0,34.144-27.68,61.84-61.84,61.84s-58.496-22.672-61.84-61.84
		c-2.896-34.032-0.704-78.16,19.328-84.736C326.896,307.856,384.512,373.76,384.512,407.92z"/>
	<path style="fill:#3E4347;" d="M424.272,139.04c-62.864-51.424-117.104-45.6-117.632-45.584c-5.68,0.656-10.464-3.248-11.136-8.688
		c-0.672-5.472,3.168-10.448,8.64-11.152c2.544-0.288,62.864-7.28,132.8,49.936c4.288,3.504,4.912,9.792,1.408,14.08
		C434.88,141.872,428.592,142.56,424.272,139.04z"/>
	<path style="fill:#3E4347;" d="M73.664,137.632c-3.504-4.288-2.88-10.576,1.408-14.08c69.904-57.2,130.272-50.24,132.8-49.936
		c5.488,0.704,9.36,5.712,8.656,11.2c-0.72,5.472-5.76,9.312-11.152,8.656c-1.024-0.128-55.088-5.6-117.648,45.584
		C83.408,142.56,77.104,141.872,73.664,137.632z"/>
</g>
<g>
</g>
<g>
</g>
<g>
</g>
<g>
</g>
<g>
</g>
<g>
</g>
<g>
</g>
<g>
</g>
<g>
</g>
<g>
</g>
<g>
</g>
<g>
</g>
<g>
</g>
<g>
</g>
<g>
</g>
</svg>
