<?xml version="1.0" encoding="iso-8859-1"?>
<!-- Generator: Adobe Illustrator 19.0.0, SVG Export Plug-In . SVG Version: 6.00 Build 0)  -->
<svg version="1.1" id="Capa_1" xmlns="http://www.w3.org/2000/svg" xmlns:xlink="http://www.w3.org/1999/xlink" x="0px" y="0px"
	 viewBox="0 0 512 512" style="enable-background:new 0 0 512 512;" xml:space="preserve">
<circle style="fill:#FFD93B;" cx="256" cy="256" r="256"/>
<path style="fill:#F4C534;" d="M512,256c0,141.44-114.64,256-256,256c-80.48,0-152.32-37.12-199.28-95.28
	c43.92,35.52,99.84,56.72,160.72,56.72c141.36,0,256-114.56,256-256c0-60.88-21.2-116.8-56.72-160.72
	C474.8,103.68,512,175.52,512,256z"/>
<g>
	<path style="fill:#3E4347;" d="M351.664,287.504c-38.096,0-69.072-30.976-69.072-69.072c0-5.744,4.656-10.384,10.384-10.384
		s10.384,4.656,10.384,10.384c0,26.64,21.664,48.304,48.304,48.304c14.624,0,28.304-6.528,37.52-17.888
		c3.6-4.464,10.192-5.12,14.608-1.52c4.464,3.616,5.152,10.16,1.52,14.608C392.144,278.176,372.576,287.504,351.664,287.504z"/>
	<path style="fill:#3E4347;" d="M283.296,160.544c-3.872-4.208-3.616-10.72,0.56-14.608c1.584-1.456,39.904-35.952,123.168-29.776
		c5.712,0.416,10,5.408,9.568,11.12c-0.416,5.728-5.088,10.016-11.136,9.584c-73.52-5.456-107.184,24.048-107.52,24.352
		C293.808,164.976,287.216,164.8,283.296,160.544z"/>
	<path style="fill:#3E4347;" d="M159.552,287.504c-20.928,0-40.48-9.328-53.664-25.584c-3.616-4.448-2.944-10.992,1.52-14.608
		c4.416-3.6,10.992-2.944,14.608,1.52c9.216,11.376,22.896,17.888,37.52,17.888c26.64,0,48.304-21.664,48.304-48.304
		c0-5.744,4.656-10.384,10.384-10.384s10.384,4.656,10.384,10.384C228.624,256.528,197.632,287.504,159.552,287.504z"/>
	<path style="fill:#3E4347;" d="M212.064,163.856c-0.528-0.512-33.136-31.456-106.08-30c-0.08,0-0.16,0-0.224,0
		c-5.632,0-10.256-4.496-10.384-10.176c-0.112-5.728,4.432-10.48,10.16-10.592c84.224-1.664,119.904,34.72,121.424,36.272
		c4,4.112,3.872,10.688-0.24,14.688C222.608,168.016,216.048,167.936,212.064,163.856z"/>
	<path style="fill:#3E4347;" d="M317.376,395.216c0,43.04-27.584,77.952-61.824,77.952c-34.064,0-61.824-34.896-61.824-77.952
		c0-43.04,27.76-77.952,61.824-77.952C289.792,317.28,317.376,352.176,317.376,395.216z"/>
</g>
<g>
</g>
<g>
</g>
<g>
</g>
<g>
</g>
<g>
</g>
<g>
</g>
<g>
</g>
<g>
</g>
<g>
</g>
<g>
</g>
<g>
</g>
<g>
</g>
<g>
</g>
<g>
</g>
<g>
</g>
</svg>
