<?xml version="1.0" encoding="iso-8859-1"?>
<!-- Generator: Adobe Illustrator 19.0.0, SVG Export Plug-In . SVG Version: 6.00 Build 0)  -->
<svg version="1.1" id="Capa_1" xmlns="http://www.w3.org/2000/svg" xmlns:xlink="http://www.w3.org/1999/xlink" x="0px" y="0px"
	 viewBox="0 0 512 512" style="enable-background:new 0 0 512 512;" xml:space="preserve">
<circle style="fill:#FFD93B;" cx="256.002" cy="256" r="237.904"/>
<ellipse transform="matrix(-0.7071 -0.7071 0.7071 -0.7071 435.0427 643.3528)" style="fill:#F4C534;" cx="350.764" cy="231.576" rx="84.239" ry="84.319"/>
<circle style="fill:#FFFFFF;" cx="350.738" cy="231.536" r="66.832"/>
<path style="fill:#3E4347;" d="M308.738,250.128c0,19.408,15.792,35.184,35.36,35.184c19.408,0,35.2-15.792,35.2-35.2
	s-15.776-35.36-35.184-35.36C324.53,214.752,308.738,230.72,308.738,250.128z"/>
<path style="fill:#FFFFFF;" d="M325.89,260.752c3.712,0,6.56-4.816,6.56-10.704c0-5.904-2.848-10.704-6.56-10.704
	c-3.504,0-6.56,4.8-6.56,10.704C319.33,255.952,322.274,260.864,325.89,260.752z"/>
<path style="fill:#F4C534;" d="M74.242,224.08c-4.128,46.384,30.128,87.344,76.336,91.456c46.368,4.128,87.344-30.128,91.472-76.512
	s-30.128-87.344-76.496-91.472C119.33,143.44,78.37,177.712,74.242,224.08z"/>
<circle style="fill:#FFFFFF;" cx="158.114" cy="231.536" r="66.832"/>
<path style="fill:#3E4347;" d="M140.77,241.744c0,19.296,15.696,34.976,35.152,34.976c19.296,0,34.992-15.712,34.992-34.992
	c0-19.296-15.696-35.152-34.992-35.152C156.466,206.576,140.77,222.448,140.77,241.744z"/>
<path style="fill:#FFFFFF;" d="M157.778,252.32c3.696,0,6.512-4.784,6.512-10.64c0-5.872-2.832-10.656-6.512-10.656
	c-3.472,0-6.512,4.784-6.512,10.656C151.266,247.552,154.194,252.432,157.778,252.32z"/>
<g>
	<path style="fill:#F4C534;" d="M237.682,225.76c-2.736-38.72-32.56-70.976-72.464-74.544c-39.776-3.552-74.816,22.928-84.352,60.56
		C130.738,230.48,183.074,234.768,237.682,225.76z"/>
	<path style="fill:#F4C534;" d="M415.49,278.144c22.752-31.456,20.56-75.328-7.776-103.664
		c-28.24-28.24-72.096-30.416-103.552-7.664C330.402,213.152,367.81,250,415.49,278.144z"/>
	<path style="fill:#F4C534;" d="M493.906,256c0,131.44-106.544,237.904-237.904,237.904c-74.8,0-141.552-34.496-185.2-88.544
		c40.816,33.008,92.784,52.72,149.36,52.72c131.376,0,237.904-106.464,237.904-237.904c0-56.576-19.696-108.544-52.72-149.36
		C459.33,114.448,493.906,181.216,493.906,256z"/>
</g>
<path style="fill:#FFD93B;" d="M503.314,349.552c-60.064,81.04-152.56,129.504-247.28,129.504
	c-94.864,0-187.344-48.464-247.28-129.504c-14.72-19.92-10.4-47.872,9.376-62.448s47.728-10.416,62.304,9.36
	c43.264,58.432,108.992,93.376,175.6,93.376s132.192-34.944,175.456-93.376c14.72-19.776,42.672-23.936,62.448-9.36
	C513.714,301.68,517.874,329.632,503.314,349.552z"/>
<g>
	<path style="fill:#3E4347;" d="M482.338,334.08c-55.168,74.496-139.776,118.96-226.304,118.96
		c-86.688,0-171.296-44.448-226.304-118.96c-6.24-8.32-4.464-19.92,3.872-26.016c8.176-6.096,19.92-4.304,26.016,3.872
		c48.032,65.12,121.488,103.936,196.416,103.936c74.784,0,148.24-38.8,196.416-103.936c6.096-8.336,17.696-10.112,26.016-3.872
		C486.658,314.16,488.434,325.76,482.338,334.08z"/>
	<path style="fill:#3E4347;" d="M399.25,125.536c-19.968-55.776-75.088-46.8-77.424-46.384c-6.064,1.072-11.856-2.976-12.912-9.04
		c-1.072-6.064,2.976-11.856,9.04-12.912c26.192-4.576,81.296,2.16,102.288,60.816c2.08,5.808-0.944,12.176-6.736,14.256
		C407.81,134.32,401.346,131.408,399.25,125.536z"/>
	<path style="fill:#3E4347;" d="M98.498,132.272c-5.792-2.08-8.816-8.448-6.736-14.256C112.754,59.344,167.89,52.528,194.05,57.2
		c6.064,1.056,10.128,6.832,9.04,12.912c-1.04,6.048-6.8,10-12.864,9.056l0,0c-2.384-0.4-57.648-9.072-77.472,46.368
		C110.658,131.408,104.194,134.32,98.498,132.272z"/>
</g>
<g>
</g>
<g>
</g>
<g>
</g>
<g>
</g>
<g>
</g>
<g>
</g>
<g>
</g>
<g>
</g>
<g>
</g>
<g>
</g>
<g>
</g>
<g>
</g>
<g>
</g>
<g>
</g>
<g>
</g>
</svg>
