<?xml version="1.0" encoding="iso-8859-1"?>
<!-- Generator: Adobe Illustrator 19.0.0, SVG Export Plug-In . SVG Version: 6.00 Build 0)  -->
<svg version="1.1" id="Capa_1" xmlns="http://www.w3.org/2000/svg" xmlns:xlink="http://www.w3.org/1999/xlink" x="0px" y="0px"
	 viewBox="0 0 512 512" style="enable-background:new 0 0 512 512;" xml:space="preserve">
<circle style="fill:#FFD93B;" cx="256" cy="256" r="256"/>
<path style="fill:#F4C534;" d="M512,256c0,141.44-114.64,256-256,256c-80.48,0-152.32-37.12-199.28-95.28
	c43.92,35.52,99.84,56.72,160.72,56.72c141.36,0,256-114.56,256-256c0-60.88-21.2-116.8-56.72-160.72
	C474.8,103.68,512,175.52,512,256z"/>
<ellipse style="fill:#FFFFFF;" cx="162.224" cy="212.976" rx="80.48" ry="80.48"/>
<g>
	<path style="fill:#3E4347;" d="M162.208,273.648c-33.504,0-60.752-27.2-60.752-60.64c0-33.504,27.248-60.752,60.752-60.752
		s60.768,27.248,60.768,60.752C222.976,246.448,195.728,273.648,162.208,273.648z M162.208,165.424
		c-26.24,0-47.584,21.344-47.584,47.584c0,26.176,21.344,47.456,47.584,47.456s47.584-21.296,47.584-47.456
		C209.808,186.768,188.464,165.424,162.208,165.424z"/>
	<path style="fill:#3E4347;" d="M162.208,244.624c-17.488,0-31.712-14.192-31.712-31.648c0-17.488,14.224-31.712,31.712-31.712
		s31.712,14.224,31.712,31.712C193.936,230.432,179.712,244.624,162.208,244.624z M162.208,194.432
		c-10.208,0-18.528,8.32-18.528,18.544c0,10.176,8.32,18.48,18.528,18.48c10.224,0,18.528-8.288,18.528-18.48
		C180.752,202.752,172.432,194.432,162.208,194.432z"/>
</g>
<path style="fill:#F4C534;" d="M193.936,67.52c-23.28,5.12-56.816,14.88-77.216,27.2c-24.704,11.84-50.128,41.6-63.312,52.928
	c7.936-30.56,30.912-56.784,54.016-68.64C139.52,60.8,176.16,60.304,193.936,67.52z"/>
<ellipse style="fill:#FFFFFF;" cx="349.776" cy="212.976" rx="80.48" ry="80.48"/>
<g>
	<path style="fill:#3E4347;" d="M289.024,213.008c0-33.504,27.264-60.752,60.768-60.752s60.752,27.248,60.752,60.752
		c0,33.44-27.248,60.64-60.752,60.64S289.024,246.448,289.024,213.008z M302.192,213.008c0,26.176,21.344,47.456,47.584,47.456
		c26.24,0,47.584-21.296,47.584-47.456c0-26.24-21.344-47.584-47.584-47.584S302.192,186.768,302.192,213.008z"/>
	<path style="fill:#3E4347;" d="M318.064,212.976c0-17.488,14.224-31.712,31.712-31.712s31.712,14.224,31.712,31.712
		c0,17.456-14.224,31.648-31.712,31.648S318.064,230.432,318.064,212.976z M331.248,212.976c0,10.176,8.32,18.48,18.528,18.48
		s18.528-8.288,18.528-18.48c0-10.224-8.32-18.544-18.528-18.544C339.568,194.432,331.248,202.752,331.248,212.976z"/>
</g>
<path style="fill:#F4C534;" d="M318.064,67.52c23.28,5.12,56.816,14.88,77.216,27.2c24.704,11.84,50.128,41.6,63.312,52.928
	c-7.936-30.56-30.912-56.784-54.016-68.64C372.48,60.8,335.84,60.304,318.064,67.52z"/>
<path style="fill:#3E4347;" d="M212.848,433.44c-32-10.16-51.68-19.584-63.52-27.392c-12.48-8.16-11.84-28.464,1.12-35.536
	c41.28-22.304,142.08-69.632,198.4-31.904C420.848,386.832,307.728,464.096,212.848,433.44z"/>
<path style="fill:#E24B4B;" d="M212.848,433.44c39.456,12.736,82.032,6.8,113.168-7.936c-6.336-27.936-29.6-52.72-59.44-39.296
	c-28.56,12.752-51.136-4.208-65.296,20.704c-3.52,6.144-5.952,12.928-7.392,20.048C199.696,429.088,205.936,431.248,212.848,433.44z
	"/>
<g>
</g>
<g>
</g>
<g>
</g>
<g>
</g>
<g>
</g>
<g>
</g>
<g>
</g>
<g>
</g>
<g>
</g>
<g>
</g>
<g>
</g>
<g>
</g>
<g>
</g>
<g>
</g>
<g>
</g>
</svg>
