<?xml version="1.0" encoding="iso-8859-1"?>
<!-- Generator: Adobe Illustrator 19.0.0, SVG Export Plug-In . SVG Version: 6.00 Build 0)  -->
<svg version="1.1" id="Capa_1" xmlns="http://www.w3.org/2000/svg" xmlns:xlink="http://www.w3.org/1999/xlink" x="0px" y="0px"
	 viewBox="0 0 512 512" style="enable-background:new 0 0 512 512;" xml:space="preserve">
<circle style="fill:#FFD93B;" cx="256" cy="256" r="256"/>
<path style="fill:#F4C534;" d="M512,256c0,141.44-114.64,256-256,256c-80.48,0-152.32-37.12-199.28-95.28
	c43.92,35.52,99.84,56.72,160.72,56.72c141.36,0,256-114.56,256-256c0-60.88-21.2-116.8-56.72-160.72
	C474.8,103.68,512,175.52,512,256z"/>
<path style="fill:#3E4347;" d="M355.984,427.808c-2.32,2.128-5.76,2.368-8.176,0.56l-0.16,0.016
	c-25.312-19.152-62.48-46.032-111.072-40.24c-11.904,1.472-26.416,5.584-40.88,17.584c-9.808,7.904-23.888,6.4-31.776-3.248
	c-17.536-20.992,6.896-45.84,55.328-48.976c59.728-3.904,100.32,25.04,137.088,65.104
	C358.832,421.216,358.624,425.328,355.984,427.808z"/>
<path style="fill:#FFFFFF;" d="M433.648,242.304c0,49.584-35.344,89.744-79.008,89.744s-79.008-40.144-79.008-89.744
	c0-49.584,35.344-89.92,79.008-89.92S433.648,192.72,433.648,242.304z"/>
<path style="fill:#3E4347;" d="M396,266.608c0,22.72-18.4,41.28-41.28,41.28s-41.44-18.56-41.44-41.28
	c0-22.88,18.56-41.44,41.44-41.44S396,243.728,396,266.608z"/>
<g>
	
		<ellipse transform="matrix(-0.7071 -0.7071 0.7071 -0.7071 454.6041 690.0682)" style="fill:#FFFFFF;" cx="370.22" cy="250.882" rx="12.24" ry="6.72"/>
	<path style="fill:#FFFFFF;" d="M78.352,242.304c0,49.584,35.344,89.744,79.008,89.744s79.008-40.144,79.008-89.744
		c0-49.584-35.344-89.92-79.008-89.92S78.352,192.72,78.352,242.304z"/>
</g>
<path style="fill:#3E4347;" d="M116,266.608c0,22.72,18.4,41.28,41.28,41.28s41.44-18.56,41.44-41.28
	c0-22.88-18.56-41.44-41.44-41.44S116,243.728,116,266.608z"/>
<ellipse transform="matrix(-0.7071 -0.7071 0.7071 -0.7071 64.684 528.6398)" style="fill:#FFFFFF;" cx="141.827" cy="250.923" rx="6.72" ry="12.24"/>
<g>
	<path style="fill:#3E4347;" d="M417.648,122.976c-82.272,37.616-102.88,62.464-118.88,76.16c-3.36,3.04-8.64,2.72-11.68-0.64
		c-9.408-10.752,8.656-51.456,20.16-64c-3.28,12.928-5.376,23.552-6.24,36.64C342.128,134.752,384.176,121.248,417.648,122.976z"/>
	<path style="fill:#3E4347;" d="M226.928,193.856c-0.48,4.48-4.48,7.84-8.96,7.36c-1.92-0.16-3.52-0.96-4.8-2.08
		c-7.952-6.8-18.512-17.216-27.2-23.52c-27.472-21.216-60.192-38.24-91.68-52.64c40.992-2.096,87.84,22.224,103.84,37.12
		c4.48,3.36,8.8,7.2,12.8,11.04c-0.576-8.688-0.96-15.136-6.08-36.64C220.96,152.48,228.32,177.856,226.928,193.856z"/>
</g>
<g>
</g>
<g>
</g>
<g>
</g>
<g>
</g>
<g>
</g>
<g>
</g>
<g>
</g>
<g>
</g>
<g>
</g>
<g>
</g>
<g>
</g>
<g>
</g>
<g>
</g>
<g>
</g>
<g>
</g>
</svg>
