<?xml version="1.0" encoding="iso-8859-1"?>
<!-- Generator: Adobe Illustrator 19.0.0, SVG Export Plug-In . SVG Version: 6.00 Build 0)  -->
<svg version="1.1" id="Capa_1" xmlns="http://www.w3.org/2000/svg" xmlns:xlink="http://www.w3.org/1999/xlink" x="0px" y="0px"
	 viewBox="0 0 512 512" style="enable-background:new 0 0 512 512;" xml:space="preserve">
<circle style="fill:#FFD93B;" cx="256" cy="256" r="256"/>
<path style="fill:#F4C534;" d="M512,256c0,141.44-114.64,256-256,256c-80.48,0-152.32-37.12-199.28-95.28
	c43.92,35.52,99.84,56.72,160.72,56.72c141.36,0,256-114.56,256-256c0-60.88-21.2-116.8-56.72-160.72
	C474.8,103.68,512,175.52,512,256z"/>
<path style="fill:#FFFFFF;" d="M243.632,220.656c0,39.552-32.08,71.616-71.616,71.616c-39.552,0-71.616-32.08-71.616-71.616
	c0-39.68,32.08-71.744,71.616-71.744S243.632,180.976,243.632,220.656z"/>
<g>
	<path style="fill:#3E4347;" d="M233.456,150.208c-51.536-21.136-91.072-19.488-141.216,21.488
		C105.536,110.064,205.76,97.104,233.456,150.208z"/>
	<path style="fill:#3E4347;" d="M203.776,220.64c0,17.584-14.192,31.776-31.776,31.888c-17.584,0-31.776-14.192-31.776-31.888
		s14.192-31.888,31.776-32C189.6,188.64,203.776,202.832,203.776,220.64z"/>
</g>
<g>
	
		<ellipse transform="matrix(-0.7071 -0.7071 0.7071 -0.7071 164.4198 488.5881)" style="fill:#FFFFFF;" cx="183.4" cy="210.242" rx="9.936" ry="6.352"/>
	<path style="fill:#FFFFFF;" d="M268.368,220.656c0,39.552,32.08,71.616,71.616,71.616c39.552,0,71.616-32.08,71.616-71.616
		c0-39.68-32.08-71.744-71.616-71.744S268.368,180.976,268.368,220.656z"/>
</g>
<g>
	<path style="fill:#3E4347;" d="M278.544,150.208c28.032-53.744,127.792-40.736,141.216,21.488
		C377.856,137.44,338.8,125.488,278.544,150.208z"/>
	<path style="fill:#3E4347;" d="M308.224,220.64c0,17.584,14.192,31.776,31.776,31.888c17.584,0,31.776-14.192,31.776-31.888
		s-14.192-31.888-31.776-32C322.4,188.64,308.224,202.832,308.224,220.64z"/>
</g>
<ellipse transform="matrix(-0.7071 -0.7071 0.7071 -0.7071 412.2297 591.2404)" style="fill:#FFFFFF;" cx="328.565" cy="210.245" rx="6.352" ry="9.936"/>
<path id="SVGCleanerId_0" style="fill:#3E4347;" d="M456.848,284.672c-12.064,100.24-97.424,177.936-200.8,177.936
	c-103.536,0-188.896-77.68-200.8-177.936c-1.104-8.928,9.248-15.04,16.448-9.712c122.944,88.8,245.744,88.8,368.544,0
	C447.6,269.648,457.936,275.744,456.848,284.672z"/>
<g>
	<path id="SVGCleanerId_0_1_" style="fill:#3E4347;" d="M456.848,284.672c-12.064,100.24-97.424,177.936-200.8,177.936
		c-103.536,0-188.896-77.68-200.8-177.936c-1.104-8.928,9.248-15.04,16.448-9.712c122.944,88.8,245.744,88.8,368.544,0
		C447.6,269.648,457.936,275.744,456.848,284.672z"/>
</g>
<path style="fill:#E24B4B;" d="M256.048,462.608c34.88,0,67.6-9.008,96.24-24.576C336.032,404.416,300.8,382.72,253.6,396.56
	c-7.36,2.256-14.96,3.328-22.448,3.44c-33.504,0.512-57.216,16.304-70.112,38.768C189.392,453.888,221.68,462.608,256.048,462.608z"
	/>
<g>
	<path style="fill:#FFFFFF;" d="M260.768,376.8c-0.16,3.68,2.4,7.04,5.92,8c16.96,3.84,33.76,4.48,50.56,1.76
		c4-0.64,6.88-4.64,6.4-8.8l-5.136-44.064c-18.816,4.608-37.632,7.152-56.448,7.6L260.768,376.8z"/>
	<path style="fill:#FFFFFF;" d="M194.752,386.56c16.8,2.72,33.6,2.08,50.56-1.76c3.52-0.96,6.08-4.32,5.92-8l-1.296-35.504
		c-18.816-0.448-37.632-2.992-56.448-7.6l-5.136,44.08C187.888,381.92,190.752,385.92,194.752,386.56z"/>
	<path style="fill:#FFFFFF;" d="M271.792,417.536c-4.32,0-7.68,3.36-7.84,7.52l-1.36,37.248c18.752-0.608,36.848-3.712,53.984-9.088
		l-3.344-28.64c-0.48-4-3.84-7.04-7.84-7.04L271.792,417.536L271.792,417.536z"/>
	<path style="fill:#FFFFFF;" d="M249.392,462.288l-1.36-37.248c-0.16-4.16-3.52-7.52-7.84-7.52h-33.6c-4,0-7.36,3.04-7.84,7.04
		l-3.344,28.64C212.544,458.576,230.64,461.68,249.392,462.288z"/>
	<path style="fill:#FFFFFF;" d="M334.432,370.048c1.152,3.872,4.992,6.304,8.928,5.632l33.104-5.712
		c4.256-0.736,6.992-4.624,6.448-8.768l-6.544-48.24c-17.664,8.336-35.328,14.96-52.992,19.632L334.432,370.048z"/>
	<path style="fill:#FFFFFF;" d="M135.536,369.984l33.104,5.712c3.936,0.672,7.776-1.76,8.928-5.632l11.056-37.472
		c-17.664-4.672-35.328-11.28-52.992-19.632l-6.544,48.256C128.528,365.36,131.28,369.248,135.536,369.984z"/>
</g>
<g>
</g>
<g>
</g>
<g>
</g>
<g>
</g>
<g>
</g>
<g>
</g>
<g>
</g>
<g>
</g>
<g>
</g>
<g>
</g>
<g>
</g>
<g>
</g>
<g>
</g>
<g>
</g>
<g>
</g>
</svg>
