<?xml version="1.0" encoding="iso-8859-1"?>
<!-- Generator: Adobe Illustrator 19.0.0, SVG Export Plug-In . SVG Version: 6.00 Build 0)  -->
<svg version="1.1" id="Capa_1" xmlns="http://www.w3.org/2000/svg" xmlns:xlink="http://www.w3.org/1999/xlink" x="0px" y="0px"
	 viewBox="0 0 512 512" style="enable-background:new 0 0 512 512;" xml:space="preserve">
<circle style="fill:#FFD93B;" cx="256" cy="256" r="256"/>
<path style="fill:#F4C534;" d="M512,256c0,141.44-114.64,256-256,256c-80.48,0-152.32-37.12-199.28-95.28
	c43.92,35.52,99.84,56.72,160.72,56.72c141.36,0,256-114.56,256-256c0-60.88-21.2-116.8-56.72-160.72
	C474.8,103.68,512,175.52,512,256z"/>
<path style="fill:#3E4347;" d="M247.744,451.728c-122.88,0-198.432-85.136-157.04-158.624c5.792-10.192,15.232-14.064,23.312-11.056
	c88.384,31.28,178.912,31.28,267.296,0c8.08-3.008,17.52,0.864,23.312,11.056C446.016,366.592,370.464,451.728,247.744,451.728z"/>
<path style="fill:#E24B4B;" d="M368.544,410.672c-0.896-2.224-1.712-4.48-2.72-6.64c-20.336-44.16-69.712-62.464-110.992-43.904
	c-17.2,7.76-36.16,11.52-55.424,10.24c-21.344-1.376-42.736,9.504-52.8,30.16c-1.6,3.248-2.832,6.72-4.176,10.144
	C212.416,436.32,288.784,435.648,368.544,410.672z"/>
<g>
	<path style="fill:#FFFFFF;" d="M89.856,294.944c19.408,37.824,82.448,49.824,157.824,49.824c75.36,0,138.416-12,157.824-49.824
		c-0.32-0.608-0.512-1.232-0.848-1.84c-5.792-10.192-15.232-14.064-23.312-11.056c-88.384,31.28-178.928,31.28-267.296,0
		c-8.08-3.008-17.52,0.864-23.312,11.056C90.352,293.712,90.176,294.32,89.856,294.944z"/>
	<path style="fill:#FFFFFF;" d="M247.664,408.96c-63.536,0-148.448-19.488-148.448-19.488s0.528,0.832,1.328,2.08
		c27.6,34.864,80.288,60.176,147.184,60.176c66.816,0,119.456-25.328,147.04-60.176c0.8-1.248,1.328-2.08,1.328-2.08
		S311.216,408.96,247.664,408.96z"/>
</g>
<g>
	<path style="fill:#3E4347;" d="M211.952,114.512c-24.848-10-66.24,5.424-100.976,88.288c-2.384,5.68-11.152,3.056-9.84-3.056
		c15.296-69.712,51.36-180.96,117.36-99.216C223.104,106.208,218.448,117.12,211.952,114.512z"/>
	<path style="fill:#3E4347;" d="M300.048,114.512c27.44-6.288,67.616,9.28,100.96,88.288c2.384,5.664,11.152,3.056,9.84-3.056
		c-15.296-69.712-51.36-180.96-117.36-99.216C288.896,106.208,293.216,116.08,300.048,114.512z"/>
</g>
<g>
</g>
<g>
</g>
<g>
</g>
<g>
</g>
<g>
</g>
<g>
</g>
<g>
</g>
<g>
</g>
<g>
</g>
<g>
</g>
<g>
</g>
<g>
</g>
<g>
</g>
<g>
</g>
<g>
</g>
</svg>
