<?xml version="1.0" encoding="iso-8859-1"?>
<!-- Generator: Adobe Illustrator 19.0.0, SVG Export Plug-In . SVG Version: 6.00 Build 0)  -->
<svg version="1.1" id="Capa_1" xmlns="http://www.w3.org/2000/svg" xmlns:xlink="http://www.w3.org/1999/xlink" x="0px" y="0px"
	 viewBox="0 0 512 512" style="enable-background:new 0 0 512 512;" xml:space="preserve">
<circle style="fill:#FFD93B;" cx="256" cy="256" r="256"/>
<path style="fill:#3E4347;" d="M383.248,352.208c-29.92,50.24-75.68,82.4-127.2,82.4s-97.44-32.16-127.36-82.24
	c-7.36-12.48,5.12-27.68,18.72-23.2c72.32,24,144.8,24,217.12,0C378.128,324.688,390.608,339.888,383.248,352.208z"/>
<path style="fill:#F4C534;" d="M512,256c0,141.44-114.64,256-256,256c-80.48,0-152.32-37.12-199.28-95.28
	c43.92,35.52,99.84,56.72,160.72,56.72c141.36,0,256-114.56,256-256c0-60.88-21.2-116.8-56.72-160.72
	C474.8,103.68,512,175.52,512,256z"/>
<ellipse style="fill:#FFFFFF;" cx="330.128" cy="219.696" rx="60.8" ry="73.488"/>
<ellipse style="fill:#3E4347;" cx="330.128" cy="241.92" rx="27.232" ry="27.296"/>
<g>
	
		<ellipse transform="matrix(-0.7071 -0.7071 0.7071 -0.7071 382.3573 621.8992)" style="fill:#FFFFFF;" cx="319.978" cy="231.761" rx="5.008" ry="8.464"/>
	<ellipse style="fill:#FFFFFF;" cx="181.92" cy="219.696" rx="60.8" ry="73.488"/>
</g>
<g>
	<path style="fill:#3E4347;" d="M224.304,117.36c-40.208,0-80.416-10.656-124.688,55.696
		C108.336,94.64,205.52,77.744,224.304,117.36z"/>
	<path style="fill:#3E4347;" d="M412.384,173.056c-44.096-56.08-79.968-48.624-124.688-55.696
		C311.696,87.376,394.768,98.272,412.384,173.056z"/>
	<ellipse style="fill:#3E4347;" cx="181.92" cy="241.92" rx="27.232" ry="27.296"/>
</g>
<g>
	
		<ellipse transform="matrix(-0.7071 -0.7072 0.7072 -0.7071 164.1717 531.4176)" style="fill:#FFFFFF;" cx="192.157" cy="231.704" rx="8.465" ry="5.008"/>
	<path style="fill:#FFFFFF;" d="M364.528,329.168c-72.32,24-144.8,24-217.12,0c-1.808-0.592-3.568-0.8-5.296-0.752
		c24.304,41.84,48.528,47.024,113.952,47.024c65.328,0,89.52-5.168,113.728-47.024C368.08,328.368,366.32,328.576,364.528,329.168z"
		/>
</g>
<path style="fill:#E24B4B;" d="M256.048,434.608c21.328,0,41.568-5.776,60.192-15.792c-0.048-0.608-0.016-1.232-0.08-1.84
	c-3.2-26.416-33.168-38.768-56.528-26.064c-9.84,5.36-21.232,7.024-32.464,5.312c-11.632-1.776-22.272,6.96-23.648,18.64
	c-0.336,2.624-0.304,5.216-0.304,7.824C219.808,430.32,237.552,434.608,256.048,434.608z"/>
<g>
</g>
<g>
</g>
<g>
</g>
<g>
</g>
<g>
</g>
<g>
</g>
<g>
</g>
<g>
</g>
<g>
</g>
<g>
</g>
<g>
</g>
<g>
</g>
<g>
</g>
<g>
</g>
<g>
</g>
</svg>
