<?xml version="1.0" encoding="iso-8859-1"?>
<!-- Generator: Adobe Illustrator 19.0.0, SVG Export Plug-In . SVG Version: 6.00 Build 0)  -->
<svg version="1.1" id="Capa_1" xmlns="http://www.w3.org/2000/svg" xmlns:xlink="http://www.w3.org/1999/xlink" x="0px" y="0px"
	 viewBox="0 0 512 512" style="enable-background:new 0 0 512 512;" xml:space="preserve">
<circle style="fill:#FFD93B;" cx="256" cy="256" r="256"/>
<path style="fill:#F4C534;" d="M512,256c0,141.44-114.64,256-256,256c-80.48,0-152.32-37.12-199.28-95.28
	c43.92,35.52,99.84,56.72,160.72,56.72c141.36,0,256-114.56,256-256c0-60.88-21.2-116.8-56.72-160.72
	C474.8,103.68,512,175.52,512,256z"/>
<ellipse style="fill:#FFFFFF;" cx="169.216" cy="197.392" rx="70.288" ry="78.784"/>
<circle style="fill:#3E4347;" cx="169.248" cy="221.728" r="33.712"/>
<g>
	
		<ellipse transform="matrix(-0.7071 -0.7071 0.7071 -0.7071 159.8777 486.6681)" style="fill:#FFFFFF;" cx="180.731" cy="210.222" rx="10.736" ry="7.12"/>
	<ellipse style="fill:#FFFFFF;" cx="342.72" cy="197.392" rx="70.288" ry="78.784"/>
</g>
<circle style="fill:#3E4347;" cx="342.752" cy="221.728" r="33.728"/>
<ellipse transform="matrix(-0.7071 -0.7071 0.7071 -0.7071 456.0708 609.33)" style="fill:#FFFFFF;" cx="354.232" cy="210.21" rx="10.736" ry="7.12"/>
<path style="fill:#3E4347;" d="M416.32,337.488c-29.76,58.4-90.24,98.4-160.16,98.4s-130.56-40-160.16-98.4
	c-5.28-10.4,6.08-21.44,16.48-16c95.84,48.32,191.52,48.32,287.2,0C410.08,316.048,421.6,327.088,416.32,337.488z"/>
<path style="fill:#E24B4B;" d="M256.16,435.888c22.656,0,44.272-4.256,64.224-11.92c-8.128-34.528-40.304-50.144-69.216-40.256
	c-16.208,5.552-55.04-2.176-70.336,35.584C203.744,429.92,229.248,435.888,256.16,435.888z"/>
<g>
	<path style="fill:#F4C534;" d="M439.936,333.04c0.08,0.048,0.016-1.088-0.768-1.936c-2.352-5.2-28.24-33.568-28.24-33.568
		C430.688,294.32,450.032,325.264,439.936,333.04z"/>
	<path style="fill:#F4C534;" d="M72.048,333.04c-9.744-7.504,8.96-38.768,28.992-35.504c0,0-25.616,27.776-28.24,33.568
		C72.032,331.952,71.984,333.088,72.048,333.04z"/>
</g>
<g>
</g>
<g>
</g>
<g>
</g>
<g>
</g>
<g>
</g>
<g>
</g>
<g>
</g>
<g>
</g>
<g>
</g>
<g>
</g>
<g>
</g>
<g>
</g>
<g>
</g>
<g>
</g>
<g>
</g>
</svg>
