<?xml version="1.0" encoding="iso-8859-1"?>
<!-- Generator: Adobe Illustrator 19.0.0, SVG Export Plug-In . SVG Version: 6.00 Build 0)  -->
<svg version="1.1" id="Capa_1" xmlns="http://www.w3.org/2000/svg" xmlns:xlink="http://www.w3.org/1999/xlink" x="0px" y="0px"
	 viewBox="0 0 512 512" style="enable-background:new 0 0 512 512;" xml:space="preserve">
<circle style="fill:#FFD93B;" cx="256" cy="256" r="256"/>
<path style="fill:#F4C534;" d="M512,256c0,141.44-114.64,256-256,256c-80.48,0-152.32-37.12-199.28-95.28
	c43.92,35.52,99.84,56.72,160.72,56.72c141.36,0,256-114.56,256-256c0-60.88-21.2-116.8-56.72-160.72
	C474.8,103.68,512,175.52,512,256z"/>
<path style="fill:#3E4347;" d="M268.4,390.672c-14.448-14.096-22.096-12.656-30-8.112c-20.912,11.952-40.688,4.448-53.888-16.752
	c-8.384-13.408-14.432-13.552-28.144-6.112c-7.632,4.144-17.088,9.28-31.856,8.256c-5.296-0.384-9.264-4.976-8.896-10.272
	c0.384-5.28,4.8-9.264,10.272-8.896c20.032,1.472,27.456-17.28,51.504-12.288c13.728,3.632,19.104,12.24,23.408,19.152
	c7.088,11.36,15.472,17.424,28.064,10.24c20.24-11.568,37.056-4.416,52.928,11.024c12,11.696,22.432,15.424,33.872,1.808
	c13.264-15.792,29.168-21.664,48.992-17.072c6.56,1.536,9.28,2.144,15.776-3.616c3.968-3.52,10.032-3.136,13.552,0.8
	c3.52,3.968,3.152,10.032-0.8,13.552c-13.936,12.352-24.88,9.792-32.848,7.968c-13.008-2.992-21.728,0.928-29.968,10.704
	C311.92,413.056,288.544,410.288,268.4,390.672z"/>
<ellipse style="fill:#FFFFFF;" cx="157.248" cy="206.608" rx="80.32" ry="88.96"/>
<path style="fill:#3E4347;" d="M160.304,272.848c-19.744,0-35.856-16.112-35.856-35.856c0-19.888,16.112-36,35.856-36
	c19.888,0,36,16.112,36,36C196.304,256.736,180.192,272.848,160.304,272.848z"/>
<g>
	
		<ellipse transform="matrix(-0.7071 -0.7071 0.7071 -0.7071 119.6326 550.3179)" style="fill:#FFFFFF;" cx="173.791" cy="250.382" rx="6.256" ry="10.72"/>
	<ellipse style="fill:#FFFFFF;" cx="354.72" cy="206.608" rx="80.32" ry="88.96"/>
</g>
<circle style="fill:#3E4347;" cx="345.376" cy="178.72" r="35.92"/>
<ellipse transform="matrix(-0.7071 -0.7071 0.7071 -0.7071 495.6452 535.9696)" style="fill:#FFFFFF;" cx="358.826" cy="165.333" rx="10.72" ry="6.256"/>
<g>
</g>
<g>
</g>
<g>
</g>
<g>
</g>
<g>
</g>
<g>
</g>
<g>
</g>
<g>
</g>
<g>
</g>
<g>
</g>
<g>
</g>
<g>
</g>
<g>
</g>
<g>
</g>
<g>
</g>
</svg>
