<?xml version="1.0" encoding="iso-8859-1"?>
<!-- Generator: Adobe Illustrator 19.0.0, SVG Export Plug-In . SVG Version: 6.00 Build 0)  -->
<svg version="1.1" id="Capa_1" xmlns="http://www.w3.org/2000/svg" xmlns:xlink="http://www.w3.org/1999/xlink" x="0px" y="0px"
	 viewBox="0 0 512 512" style="enable-background:new 0 0 512 512;" xml:space="preserve">
<circle style="fill:#FFD93B;" cx="256" cy="256" r="256"/>
<path style="fill:#F4C534;" d="M512,256c0,141.44-114.64,256-256,256c-80.48,0-152.32-37.12-199.28-95.28
	c43.92,35.52,99.84,56.72,160.72,56.72c141.36,0,256-114.56,256-256c0-60.88-21.2-116.8-56.72-160.72
	C474.8,103.68,512,175.52,512,256z"/>
<g>
	<path style="fill:#3E4347;" d="M404,224.016c-32.592-51.584-87.488-41.28-89.824-40.848c-5.328,1.056-10.56-2.384-11.648-7.728
		s2.336-10.56,7.68-11.664c0.704-0.144,70.448-13.728,110.528,49.664c2.928,4.624,1.536,10.736-3.072,13.664
		C413.056,230,406.944,228.64,404,224.016z"/>
	<path style="fill:#3E4347;" d="M94.336,224.784c-4.624-2.928-6-9.024-3.072-13.664c40.064-63.376,109.792-49.808,110.528-49.664
		c5.36,1.104,8.8,6.336,7.696,11.696c-1.104,5.344-6.32,8.832-11.664,7.696l0,0c-2.32-0.448-57.216-10.736-89.824,40.848
		C105.056,226.336,98.944,227.696,94.336,224.784z"/>
	<path style="fill:#3E4347;" d="M318.768,433.792c-41.664-11.888-84.416-11.728-128.288,0.32c-8.4,2.224-15.52-6.176-12.512-14.256
		c11.872-30.88,41.504-53.056,76.656-53.056c35.008,0,64.784,22.016,76.656,52.736C334.288,427.616,327.008,436.16,318.768,433.792z
		"/>
</g>
<ellipse style="fill:#FFFFFF;" cx="331.968" cy="278.704" rx="61.312" ry="68.768"/>
<circle style="fill:#3E4347;" cx="331.968" cy="297.232" r="29.856"/>
<g>
	
		<ellipse transform="matrix(-0.7071 -0.7071 0.7071 -0.7071 382.1083 731.5124)" style="fill:#FFFFFF;" cx="342.555" cy="286.619" rx="9.376" ry="6.08"/>
	<ellipse style="fill:#FFFFFF;" cx="177.44" cy="278.704" rx="61.312" ry="68.768"/>
</g>
<circle style="fill:#3E4347;" cx="177.44" cy="297.232" r="29.856"/>
<ellipse transform="matrix(-0.7071 -0.7071 0.7071 -0.7071 118.4085 622.2953)" style="fill:#FFFFFF;" cx="188.086" cy="286.624" rx="9.376" ry="6.08"/>
<path style="fill:#E9EFF4;" d="M430.752,74.976c-3.376,1.392-6.752,2.768-10.144,4.16c3.296,0.896,6.592,1.792,9.904,2.752
	c-4.96,0.224-9.92,0.464-14.896,0.688c4.88,1.488,9.776,3.024,14.672,4.608c-2.624,2.048-5.232,4.064-7.84,6.08
	c2.592,0.48,5.184,1.008,7.776,1.504c-1.088,1.072-2.176,2.128-3.264,3.2c1.104,0.576,2.208,1.152,3.296,1.728
	c-5.216,1.728-10.416,3.36-15.584,4.96c0.016-0.032,14.784,3.264,15.824,4.416c1.04,1.168-9.808,3.088-9.808,3.056
	c3.392,1.616,6.784,3.248,10.128,4.832c-52.384-3.152-109.008-2.88-161.056,0.992c5.824-2.304,11.776-4.672,17.744-6.976
	c-5.872,0.256-11.712,0.496-17.504,0.688c3.744-1.408,7.536-2.816,11.328-4.208c-3.712-0.944-7.408-1.952-11.12-2.976
	c0-0.064,0-0.128,0-0.192c5.504-0.128,11.024-0.24,16.544-0.4c-5.472-1.616-10.96-3.312-16.464-5.088
	c2.944-2.064,5.872-4.096,8.784-6.08c-2.928-0.592-5.856-1.184-8.784-1.792c1.248-1.104,2.48-2.208,3.728-3.296
	c-1.264-0.672-2.528-1.344-3.792-2.016c5.84-1.6,11.664-3.136,17.504-4.576c0,0.032-16.608-3.968-17.76-5.184
	c-1.088-1.248,11.04-2.832,11.056-2.8c-3.824-1.872-7.648-3.76-11.392-5.632c52.256,4.112,108.88,4.368,161.456,0.976
	c-5.28,2.448-10.656,4.976-16.016,7.456C420.32,75.536,425.536,75.232,430.752,74.976z"/>
<path style="fill:#FFFFFF;" d="M420.768,140.336c-3.152-1.488-6.432-3.104-9.776-4.768c2.032,3.056,4.016,6.016,5.936,8.816
	c-3.728-3.232-7.68-6.768-11.664-10.384c2.944,4.64,5.904,9.184,8.672,13.344c-3.04-0.544-6.176-1.168-9.376-1.824
	c1.76,2.112,3.488,4.16,5.168,6.096c-1.424-0.096-2.88-0.208-4.336-0.32c0.528,1.04,1.04,2.08,1.552,3.088
	c-5.008-2.32-10.32-4.976-15.68-7.712c0.032,0.16,10.192,12.032,10.192,13.072c0.224,1.424-10.032-4.544-10.096-4.624
	c1.776,3.216,3.536,6.352,5.2,9.296c-46.816-37.328-78.336-72.992-120.576-117.024c5.344,3.12,11.056,6.576,16.816,9.984
	c-4.576-4.704-9.168-9.392-13.408-13.712c3.392,2.016,6.96,4.144,10.592,6.352c-2.32-3.584-4.608-7.104-6.752-10.432
	c0.032-0.048,0.064-0.08,0.096-0.112c4.032,3.984,8.4,8.304,12.752,12.672c-3.344-5.44-6.736-10.784-9.84-15.712
	c3.232,0.944,6.576,1.984,10,3.056c-1.984-2.544-3.936-4.992-5.808-7.344c1.536,0.272,3.088,0.544,4.672,0.832
	c-0.608-1.248-1.216-2.48-1.808-3.712c5.376,3.104,11.152,6.624,16.944,10.144c-0.032-0.112-11.44-14.336-11.488-15.456
	c-0.272-1.456,10.88,6.064,10.96,6.176c-2.048-3.76-4.08-7.424-5.984-10.88c46.816,39.904,78.496,75.536,120.768,117.024
	c-5.088-2.224-10.48-4.688-15.92-7.184C412.736,133.024,416.88,136.848,420.768,140.336z"/>
<g>
</g>
<g>
</g>
<g>
</g>
<g>
</g>
<g>
</g>
<g>
</g>
<g>
</g>
<g>
</g>
<g>
</g>
<g>
</g>
<g>
</g>
<g>
</g>
<g>
</g>
<g>
</g>
<g>
</g>
</svg>
