<?xml version="1.0" encoding="iso-8859-1"?>
<!-- Generator: Adobe Illustrator 19.0.0, SVG Export Plug-In . SVG Version: 6.00 Build 0)  -->
<svg version="1.1" id="Capa_1" xmlns="http://www.w3.org/2000/svg" xmlns:xlink="http://www.w3.org/1999/xlink" x="0px" y="0px"
	 viewBox="0 0 512 512" style="enable-background:new 0 0 512 512;" xml:space="preserve">
<circle style="fill:#FFD93B;" cx="256" cy="256" r="256"/>
<path style="fill:#F4C534;" d="M512,256c0,141.44-114.64,256-256,256c-80.48,0-152.32-37.12-199.28-95.28
	c43.92,35.52,99.84,56.72,160.72,56.72c141.36,0,256-114.56,256-256c0-60.88-21.2-116.8-56.72-160.72
	C474.8,103.68,512,175.52,512,256z"/>
<g>
	<path style="fill:#3E4347;" d="M236.448,261.568c1.456,5.856-2.192,11.856-8.192,13.168c-4.224,1.696-11.616-1.44-13.168-8.048
		c-4.096-17.12-19.152-29.104-36.56-29.104c-17.552,0-32.464,12-36.56,29.104c-1.456,5.856-7.312,9.504-13.312,8.048
		c-5.856-1.312-9.504-7.312-8.048-13.168c6.432-27.056,30.272-45.92,57.92-45.92S230,234.512,236.448,261.568z"/>
	<path style="fill:#3E4347;" d="M115.632,164.304c-0.432-5.408,3.664-10.24,9.072-10.672c57.776-4.976,99.904,18.432,101.648,19.456
		c4.688,2.784,6.432,8.784,3.664,13.456c-2.64,4.864-8.88,6.304-13.456,3.808c-0.288-0.288-38.768-21.504-90.24-17.12
		C120.896,173.808,116.064,169.712,115.632,164.304z"/>
	<path style="fill:#3E4347;" d="M454.448,320.048c-8.416-7.088-12.832-9.952-16.32-12.16c-29.12,77.6-103.2,131.2-182.08,131.2
		s-152.96-53.6-182.24-131.2c-6.032,3.808-10.704,7.664-16.32,12.16c-7.632-21.392,26.512-45.104,46.08-28
		c1.28,1.28,2.08,2.24,2.08,2.24s-17.568,5.904-17.6,5.92c26.4,72.48,95.04,122.88,168,122.88s141.6-50.4,168-122.88h-0.16
		c-13.376-4.72-17.6-5.92-17.6-5.92C423.344,273.776,463.344,297.392,454.448,320.048z"/>
	<path style="fill:#3E4347;" d="M275.648,261.568c6.432-27.056,30.272-45.92,57.92-45.92s51.488,18.864,57.92,45.92
		c1.312,5.856-2.336,11.856-8.192,13.168c-4.704,1.568-11.664-1.632-13.168-8.048c-4.096-17.12-19.168-29.104-36.56-29.104
		c-17.552,0-32.624,12-36.72,29.104c-1.312,5.856-7.312,9.504-13.168,8.048C277.84,273.424,274.176,267.424,275.648,261.568z"/>
	<path style="fill:#3E4347;" d="M281.936,186.544c-2.64-4.672-1.024-10.672,3.648-13.456c1.76-1.024,43.888-24.432,101.808-19.456
		c5.408,0.432,9.36,5.264,8.928,10.672c-0.432,5.408-5.264,9.504-10.672,8.912c-51.488-4.384-89.952,16.816-90.24,17.12
		C290.912,192.784,284.608,191.44,281.936,186.544z"/>
</g>
<g>
</g>
<g>
</g>
<g>
</g>
<g>
</g>
<g>
</g>
<g>
</g>
<g>
</g>
<g>
</g>
<g>
</g>
<g>
</g>
<g>
</g>
<g>
</g>
<g>
</g>
<g>
</g>
<g>
</g>
</svg>
