<?xml version="1.0" encoding="iso-8859-1"?>
<!-- Generator: Adobe Illustrator 19.0.0, SVG Export Plug-In . SVG Version: 6.00 Build 0)  -->
<svg version="1.1" id="Capa_1" xmlns="http://www.w3.org/2000/svg" xmlns:xlink="http://www.w3.org/1999/xlink" x="0px" y="0px"
	 viewBox="0 0 512 512" style="enable-background:new 0 0 512 512;" xml:space="preserve">
<circle style="fill:#FFD93B;" cx="256" cy="256" r="256"/>
<path style="fill:#F4C534;" d="M512,256c0,141.44-114.64,256-256,256c-80.48,0-152.32-37.12-199.28-95.28
	c43.92,35.52,99.84,56.72,160.72,56.72c141.36,0,256-114.56,256-256c0-60.88-21.2-116.8-56.72-160.72
	C474.8,103.68,512,175.52,512,256z"/>
<path style="fill:#FFFFFF;" d="M76.848,207.024c4.512-43.408,57.632-86.608,101.872-85.04s76.384,37.968,71.872,81.376
	s-44,77.424-88.224,75.856C118.128,277.648,72.336,250.448,76.848,207.024z"/>
<ellipse style="fill:#3E4347;" cx="180.144" cy="202.16" rx="41.536" ry="41.584"/>
<ellipse transform="matrix(-0.707 -0.7073 0.7073 -0.707 203.7495 456.274)" style="fill:#FFFFFF;" cx="196.401" cy="185.926" rx="10.961" ry="6.608"/>
<g>
	<path style="fill:#F4C534;" d="M214.912,108.304c-16.08-13.584-49.056-51.216-138.496-43.536
		C110.736,41.056,190.08,33.648,214.912,108.304z"/>
	<path style="fill:#F4C534;" d="M288.496,157.328c12.416-15.376,36.416-56.992,118.176-57.056
		C374.688,82.304,302.832,82.736,288.496,157.328z"/>
</g>
<path style="fill:#3E4347;" d="M440.72,195.952c-38.8,0-106.8-9.312-140.48,25.92C307.696,184.624,385.808,162.16,440.72,195.952z"
	/>
<g>
	<path style="fill:#F4C534;" d="M401.2,221.856c-16,0-39.072-9.568-91.52,5.44C325.728,211.168,372.352,203.888,401.2,221.856z"/>
	<path style="fill:#F4C534;" d="M298.64,211.312c-7.968-22.144,11.984-55.84,27.52-55.84
		C316.64,171.456,311.904,165.824,298.64,211.312z"/>
</g>
<path style="fill:#3E4347;" d="M372.672,329.312c-44.88,82.048-133.968,198.8-217.248,37.216c-2.992-6.032,2-12.56,8.64-11.216
	c36.896,7.104,129.648,18.16,196.144-36.224C366.864,313.408,376.832,321.616,372.672,329.312z"/>
<g>
</g>
<g>
</g>
<g>
</g>
<g>
</g>
<g>
</g>
<g>
</g>
<g>
</g>
<g>
</g>
<g>
</g>
<g>
</g>
<g>
</g>
<g>
</g>
<g>
</g>
<g>
</g>
<g>
</g>
</svg>
