<?xml version="1.0" encoding="iso-8859-1"?>
<!-- Generator: Adobe Illustrator 19.0.0, SVG Export Plug-In . SVG Version: 6.00 Build 0)  -->
<svg version="1.1" id="Capa_1" xmlns="http://www.w3.org/2000/svg" xmlns:xlink="http://www.w3.org/1999/xlink" x="0px" y="0px"
	 viewBox="0 0 512 512" style="enable-background:new 0 0 512 512;" xml:space="preserve">
<circle style="fill:#FFD93B;" cx="256" cy="256" r="256"/>
<path style="fill:#F4C534;" d="M512,255.984c0,141.44-114.56,256-256,256c-81.12,0-153.44-37.76-200.48-96.64
	c43.68,34.88,99.2,55.68,159.52,55.68c141.44,0,256-114.56,256-256c0-60.32-20.8-115.84-55.68-159.52
	C474.24,102.544,512,174.864,512,255.984z"/>
<g>
	<ellipse style="fill:#3E4347;" cx="161.28" cy="224.64" rx="47.584" ry="55.12"/>
	<ellipse style="fill:#3E4347;" cx="350.72" cy="224.64" rx="47.584" ry="55.12"/>
</g>
<g>
	<path style="fill:#FFFFFF;" d="M369.296,195.296c4.112-1.456,9.28,2.912,11.664,9.68c2.384,6.896,1.056,13.52-3.056,14.992
		c-4.112,1.328-9.408-2.912-11.808-9.808C363.728,203.376,365.184,196.752,369.296,195.296z"/>
	<path style="fill:#FFFFFF;" d="M186.496,219.92c-4.112,1.456-9.28-2.912-11.664-9.68c-2.384-6.896-1.056-13.52,3.056-14.992
		c4.112-1.328,9.408,2.912,11.808,9.808C192.064,211.824,190.608,218.464,186.496,219.92z"/>
</g>
<g>
	<path style="fill:#3E4347;" d="M257.552,397.616c-78.8,1.984-113.872-49.36-122.192-43.856
		c-10.56,3.776,10.56,91.808,122.192,91.264c111.632,0.544,132.752-87.488,122.192-91.264
		C371.408,348.256,336.368,399.6,257.552,397.616z"/>
	<path style="fill:#3E4347;" d="M395.856,332.8c-9.168-9.168-24.768-10.768-33.312-7.104c0,0,16.64,4.48,26.944,14.208
		c7.056,6.272,13.6,16.592,18.064,24.88C409.616,356.192,405.68,341.584,395.856,332.8z"/>
	<path style="fill:#3E4347;" d="M116.048,332.784c-9.696,8.672-13.728,22.944-11.552,31.984c3.84-7.696,11.072-18.832,18.064-24.88
		c9.648-9.392,26.8-14.208,26.8-14.208C140.912,322.048,125.232,323.6,116.048,332.784z"/>
</g>
<g>
</g>
<g>
</g>
<g>
</g>
<g>
</g>
<g>
</g>
<g>
</g>
<g>
</g>
<g>
</g>
<g>
</g>
<g>
</g>
<g>
</g>
<g>
</g>
<g>
</g>
<g>
</g>
<g>
</g>
</svg>
