<?xml version="1.0" encoding="iso-8859-1"?>
<!-- Generator: Adobe Illustrator 19.0.0, SVG Export Plug-In . SVG Version: 6.00 Build 0)  -->
<svg version="1.1" id="Capa_1" xmlns="http://www.w3.org/2000/svg" xmlns:xlink="http://www.w3.org/1999/xlink" x="0px" y="0px"
	 viewBox="0 0 512 512" style="enable-background:new 0 0 512 512;" xml:space="preserve">
<circle style="fill:#FFD93B;" cx="256" cy="256" r="256"/>
<ellipse transform="matrix(-0.986 -0.1665 0.1665 -0.986 265.4479 476.4553)" style="fill:#F4C534;" cx="152.697" cy="227.1" rx="93.5" ry="93.516"/>
<circle style="fill:#FFFFFF;" cx="152.72" cy="227.088" r="72.304"/>
<circle style="fill:#3E4347;" cx="152.72" cy="227.088" r="40.784"/>
<path style="fill:#FFFFFF;" d="M175.152,219.6c-2.672,2.672-8.368,1.6-12.464-2.496c-4.096-4.096-5.168-9.792-2.496-12.464
	c2.848-2.848,8.544-1.776,12.64,2.32C176.944,211.056,178,216.752,175.152,219.6z"/>
<path style="fill:#F4C534;" d="M155.216,212.272c35.952,6.064,68.544,1.168,87.12-10.848c-9.632-33.488-37.376-60.352-74.048-66.544
	s-71.696,10.064-91.792,38.544C90.096,190.864,119.28,206.192,155.216,212.272z"/>
<path style="fill:#FFD93B;" d="M265.568,172.976c-3.296,26.352-48.256,41.04-100.416,32.784s-91.76-36.304-88.464-62.656
	C80,116.752,124.944,102.08,177.12,110.32S268.864,146.624,265.568,172.976z"/>
<ellipse transform="matrix(-0.1665 -0.986 0.986 -0.1665 195.2033 619.1333)" style="fill:#F4C534;" cx="359.276" cy="227.065" rx="93.516" ry="93.5"/>
<circle style="fill:#FFFFFF;" cx="359.28" cy="227.088" r="72.304"/>
<circle style="fill:#3E4347;" cx="359.28" cy="227.088" r="40.784"/>
<path style="fill:#FFFFFF;" d="M336.848,219.6c2.672,2.672,8.368,1.6,12.464-2.496c4.096-4.096,5.168-9.792,2.496-12.464
	c-2.848-2.848-8.544-1.776-12.64,2.32C335.056,211.056,334,216.752,336.848,219.6z"/>
<path style="fill:#F4C534;" d="M356.784,212.272c-35.952,6.064-68.544,1.168-87.104-10.848
	c9.632-33.488,37.376-60.352,74.048-66.544s71.696,10.064,91.792,38.544C421.904,190.864,392.72,206.192,356.784,212.272z"/>
<path style="fill:#FFD93B;" d="M246.432,172.976c3.296,26.352,48.256,41.04,100.416,32.784s91.76-36.304,88.464-62.656
	C432,116.752,387.056,102.08,334.896,110.32C282.72,118.576,243.136,146.624,246.432,172.976z"/>
<path style="fill:#F4C534;" d="M512,256c0,141.44-114.64,256-256,256c-80.48,0-152.32-37.12-199.28-95.28
	c43.92,35.52,99.84,56.72,160.72,56.72c141.36,0,256-114.56,256-256c0-60.88-21.2-116.8-56.72-160.72
	C474.8,103.68,512,175.52,512,256z"/>
<path style="fill:#3E4347;" d="M373.28,383.088c0,14.176-52.48,58.144-117.28,32.688c-64.8-25.392-117.28-10.72-117.28-32.688
	c0-22.048,52.48-7.312,117.28-32.704S373.28,368.88,373.28,383.088z"/>
<g>
	<path style="fill:#FFFFFF;" d="M256,350.384c-37.472,14.672-70.736,15.952-92.208,18.672c23.36,10.688,55.984,7.376,92.208,3.776
		c35.04-3.504,78.192-7.312,104.176-7.824C340.688,348.816,301.408,332.592,256,350.384z"/>
	<path style="fill:#FFFFFF;" d="M256,415.776c38.832,15.248,73.12,5.552,94.464-7.712c-23.392,1.2-60.32-3.312-94.464-9.024
		c-31.904-5.392-60.992-8.896-83.44-0.944C193.808,400.368,223.328,402.976,256,415.776z"/>
</g>
<g>
</g>
<g>
</g>
<g>
</g>
<g>
</g>
<g>
</g>
<g>
</g>
<g>
</g>
<g>
</g>
<g>
</g>
<g>
</g>
<g>
</g>
<g>
</g>
<g>
</g>
<g>
</g>
<g>
</g>
</svg>
