<?xml version="1.0" encoding="iso-8859-1"?>
<!-- Generator: Adobe Illustrator 19.0.0, SVG Export Plug-In . SVG Version: 6.00 Build 0)  -->
<svg version="1.1" id="Capa_1" xmlns="http://www.w3.org/2000/svg" xmlns:xlink="http://www.w3.org/1999/xlink" x="0px" y="0px"
	 viewBox="0 0 512 512" style="enable-background:new 0 0 512 512;" xml:space="preserve">
<circle style="fill:#FFD93B;" cx="256" cy="256" r="256"/>
<path style="fill:#3E4347;" d="M421.216,343.776c-26.72,65.04-90.576,110.752-165.2,110.752s-138.48-45.712-165.36-110.752
	c-2.528-6.048,1.68-13.104,8.24-14.448c104.704-19.504,209.568-19.504,314.096,0C419.536,330.672,423.744,337.728,421.216,343.776z"
	/>
<g>
	<path style="fill:#F4C534;" d="M512,256c0,141.44-114.64,256-256,256c-80.48,0-152.32-37.12-199.28-95.28
		c43.92,35.52,99.84,56.72,160.72,56.72c141.36,0,256-114.56,256-256c0-60.88-21.2-116.8-56.72-160.72
		C474.8,103.68,512,175.52,512,256z"/>
	<path style="fill:#F4C534;" d="M376.016,110.24c-25.392,27.216-56.976,48.496-92.24,61.376c-2.448,8.064-3.792,16.64-3.792,25.536
		c0,48.16,39.04,87.2,87.2,87.2c48.32,0,87.36-39.04,87.36-87.2C454.528,151.824,420.16,114.672,376.016,110.24z"/>
</g>
<path style="fill:#FFFFFF;" d="M376.432,130.848c-20.24,14.304-42.8,25.28-66.88,32.304c-5.872,10-9.472,21.52-9.472,34.016
	c0,37.104,29.984,67.104,67.104,67.104c37.264,0,67.248-29.984,67.248-67.104C434.432,163.088,409.232,135.376,376.432,130.848z"/>
<g>
	<path style="fill:#3E4347;" d="M413.104,125.488l-142.512,55.136c10.736-7.296,76.992-56.208,115.44-96.16
		c11.824-12.256,33.088-9.456,39.744,6.016c0.64,1.072,1.072,2.144,1.296,3.216C431.792,106.368,425.36,120.336,413.104,125.488z"/>
	<path style="fill:#3E4347;" d="M401.664,197.632c0,18.992-15.328,34.496-34.496,34.496c-18.992,0-34.32-15.488-34.32-34.48
		c0-19.152,15.328-34.496,34.32-34.496C386.336,163.152,401.664,178.48,401.664,197.632z"/>
</g>
<ellipse transform="matrix(-0.7071 -0.7071 0.7071 -0.7071 519.617 583.7252)" style="fill:#FFFFFF;" cx="380.702" cy="184.246" rx="9.6" ry="6"/>
<path style="fill:#F4C534;" d="M135.984,110.24c25.408,27.216,56.976,48.496,92.24,61.376c2.464,8.064,3.792,16.64,3.792,25.536
	c0,48.16-39.04,87.2-87.2,87.2c-48.32,0-87.36-39.04-87.36-87.2C57.472,151.824,91.84,114.672,135.984,110.24z"/>
<path style="fill:#FFFFFF;" d="M135.568,130.848c20.24,14.304,42.8,25.28,66.88,32.304c5.872,10,9.472,21.52,9.472,34.016
	c0,37.104-29.984,67.104-67.104,67.104c-37.264,0-67.248-29.984-67.248-67.104C77.568,163.088,102.768,135.376,135.568,130.848z"/>
<g>
	<path style="fill:#3E4347;" d="M98.896,125.488l142.512,55.136c-10.736-7.296-76.992-56.208-115.44-96.16
		c-11.824-12.256-33.088-9.456-39.744,6c-0.64,1.072-1.072,2.144-1.296,3.216C80.208,106.368,86.656,120.336,98.896,125.488z"/>
	<path style="fill:#3E4347;" d="M110.336,197.632c0,18.992,15.328,34.496,34.48,34.496c18.992,0,34.32-15.488,34.32-34.48
		c0-19.152-15.328-34.496-34.32-34.496C125.68,163.152,110.352,178.48,110.336,197.632z"/>
</g>
<g>
	
		<ellipse transform="matrix(-0.7071 -0.7071 0.7071 -0.7071 93.9129 407.2735)" style="fill:#FFFFFF;" cx="131.306" cy="184.187" rx="6" ry="9.6"/>
	<path style="fill:#FFFFFF;" d="M102.704,328.704c19.824,32.288,81.888,35.744,155.936,35.744c73.072,0,135.264-3.456,155.936-34.4
		c-0.56-0.208-1.008-0.608-1.6-0.72C309.728,310.064,206.144,309.904,102.704,328.704z"/>
</g>
<g>
</g>
<g>
</g>
<g>
</g>
<g>
</g>
<g>
</g>
<g>
</g>
<g>
</g>
<g>
</g>
<g>
</g>
<g>
</g>
<g>
</g>
<g>
</g>
<g>
</g>
<g>
</g>
<g>
</g>
</svg>
