<?xml version="1.0" encoding="iso-8859-1"?>
<!-- Generator: Adobe Illustrator 19.0.0, SVG Export Plug-In . SVG Version: 6.00 Build 0)  -->
<svg version="1.1" id="Capa_1" xmlns="http://www.w3.org/2000/svg" xmlns:xlink="http://www.w3.org/1999/xlink" x="0px" y="0px"
	 viewBox="0 0 512.003 512.003" style="enable-background:new 0 0 512.003 512.003;" xml:space="preserve">
<circle style="fill:#FFD93B;" cx="256.002" cy="243.728" r="243.728"/>
<g>
	<path style="fill:#F4C534;" d="M499.73,243.728c0,134.656-109.152,243.728-243.728,243.728c-76.624,0-145.024-35.344-189.728-90.72
		c41.808,33.824,95.056,54,153.008,54c134.592,0,243.728-109.072,243.728-243.728c0-57.968-20.176-111.2-54-153.024
		C464.322,98.704,499.73,167.104,499.73,243.728z"/>
	<path style="fill:#F4C534;" d="M370.258,104.96c-24.176,25.92-54.24,46.176-87.824,58.448c-2.336,7.68-3.616,15.84-3.616,24.304
		c0,45.856,37.168,83.024,83.024,83.024c46,0,83.168-37.168,83.168-83.024C445.01,144.544,412.306,109.168,370.258,104.96z"/>
</g>
<path style="fill:#FFFFFF;" d="M370.658,124.576c-19.28,13.616-40.752,24.064-63.664,30.752c-5.6,9.52-9.024,20.496-9.024,32.384
	c0,35.328,28.544,63.888,63.888,63.888c35.472,0,64.016-28.56,64.016-63.888C425.874,155.264,401.89,128.88,370.658,124.576z"/>
<g>
	<path style="fill:#3E4347;" d="M405.57,119.472l-135.68,52.496c10.224-6.944,73.296-53.504,109.904-91.552
		c11.248-11.664,31.504-8.992,37.84,5.728c0.608,1.024,1.024,2.048,1.232,3.072C423.378,101.28,417.234,114.56,405.57,119.472z"/>
	<path style="fill:#3E4347;" d="M394.674,188.16c0,18.08-14.592,32.832-32.832,32.832c-18.08,0-32.672-14.752-32.672-32.832
		c0-18.24,14.592-32.832,32.672-32.832C380.082,155.328,394.674,169.92,394.674,188.16z"/>
</g>
<ellipse transform="matrix(-0.7072 -0.7071 0.7071 -0.7072 515.761 564.3079)" style="fill:#FFFFFF;" cx="374.741" cy="175.347" rx="9.137" ry="5.712"/>
<path style="fill:#F4C534;" d="M141.746,104.96c24.176,25.92,54.24,46.176,87.824,58.448c2.336,7.68,3.616,15.84,3.616,24.304
	c0,45.856-37.168,83.024-83.024,83.024c-46,0-83.168-37.168-83.168-83.024C66.994,144.544,99.698,109.168,141.746,104.96z"/>
<path style="fill:#FFFFFF;" d="M141.346,124.576c19.28,13.616,40.752,24.064,63.664,30.752c5.6,9.52,9.024,20.496,9.024,32.384
	c0,35.328-28.544,63.888-63.888,63.888c-35.472,0-64.032-28.56-64.032-63.888C86.13,155.264,110.114,128.88,141.346,124.576z"/>
<g>
	<path style="fill:#3E4347;" d="M106.434,119.472l135.68,52.496c-10.224-6.944-73.296-53.504-109.904-91.552
		c-11.264-11.664-31.504-9.008-37.856,5.712c-0.608,1.024-1.024,2.048-1.216,3.072C88.626,101.28,94.77,114.56,106.434,119.472z"/>
	<path style="fill:#3E4347;" d="M117.33,188.16c0,18.08,14.592,32.832,32.832,32.832c18.08,0,32.672-14.752,32.672-32.832
		c0-18.24-14.592-32.832-32.672-32.832C131.922,155.328,117.33,169.92,117.33,188.16z"/>
</g>
<ellipse transform="matrix(-0.7071 -0.7072 0.7072 -0.7071 110.3569 396.4357)" style="fill:#FFFFFF;" cx="137.291" cy="175.36" rx="5.712" ry="9.137"/>
<path style="fill:#3E4347;" d="M395.234,331.888c-28.208,52.944-79.936,88.432-139.28,88.432s-111.056-35.488-139.12-88.432
	c-5.68-10.448,5.024-22.336,14.912-16.752c82.848,47.008,165.712,47.008,248.56,0C390.05,309.568,400.754,321.44,395.234,331.888z"
	/>
<path style="fill:#E24B4B;" d="M231.282,371.872c-19.648-6.432-43.2,4.08-42.032,26.528c11.248,67.008,40.192,114.064,66.8,113.6
	c26.656-0.416,55.488-47.36,66.704-112.8c1.216-21.92-22.24-32.528-41.936-26.752C264.578,376.544,247.522,376.464,231.282,371.872z
	"/>
<g>
</g>
<g>
</g>
<g>
</g>
<g>
</g>
<g>
</g>
<g>
</g>
<g>
</g>
<g>
</g>
<g>
</g>
<g>
</g>
<g>
</g>
<g>
</g>
<g>
</g>
<g>
</g>
<g>
</g>
</svg>
