<?xml version="1.0" encoding="iso-8859-1"?>
<!-- Generator: Adobe Illustrator 19.0.0, SVG Export Plug-In . SVG Version: 6.00 Build 0)  -->
<svg version="1.1" id="Capa_1" xmlns="http://www.w3.org/2000/svg" xmlns:xlink="http://www.w3.org/1999/xlink" x="0px" y="0px"
	 viewBox="0 0 512 512" style="enable-background:new 0 0 512 512;" xml:space="preserve">
<circle style="fill:#FFD93B;" cx="256" cy="256" r="256"/>
<path style="fill:#65B1EF;" d="M454.032,253.808c0,52-42.08,94.08-94.24,94.08c-52,0-94.08-42.08-94.08-94.08
	c0-52.16,42.08-94.24,94.08-94.24C411.952,159.568,454.032,201.648,454.032,253.808z"/>
<path style="fill:#F4C534;" d="M510.784,256c0,141.44-114.64,256-256,256c-80.48,0-152.32-37.12-199.28-95.28
	c43.92,35.52,99.84,56.72,160.72,56.72c141.36,0,256-114.56,256-256c0-60.88-21.2-116.8-56.72-160.72
	C473.584,103.68,510.784,175.52,510.784,256z"/>
<circle style="fill:#3E4347;" cx="256" cy="408.592" r="46.688"/>
<path style="fill:#FFFFFF;" d="M243.84,223.776c0,46.112-37.312,83.424-83.408,83.424c-46.256,0-83.552-37.312-83.552-83.424
	c0-46.256,37.312-83.552,83.552-83.552C206.528,140.224,243.84,177.52,243.84,223.776z"/>
<path style="fill:#3E4347;" d="M198.432,223.776c0,21.104-16.912,38.144-38,38.144c-21.232,0-38.288-17.04-38.288-38.144
	c0-21.232,17.056-38.272,38.288-38.288C181.52,185.504,198.432,202.544,198.432,223.776z"/>
<ellipse transform="matrix(-0.7071 -0.7071 0.7071 -0.7071 148.9452 481.5055)" style="fill:#FFFFFF;" cx="174.196" cy="209.905" rx="11.28" ry="7.472"/>
<path style="fill:#3E4347;" d="M216.544,91.856c0,0-83.84,55.888-147.872,73.072C68.672,164.912,233.728,167.248,216.544,91.856z"/>
<path style="fill:#FFFFFF;" d="M268.16,223.776c0,46.112,37.312,83.424,83.408,83.424c46.256,0,83.552-37.312,83.552-83.424
	c0-46.256-37.312-83.552-83.552-83.552C305.472,140.224,268.16,177.52,268.16,223.776z"/>
<path style="fill:#DEE4E9;" d="M279.04,264.24c14.256,25.52,41.2,42.96,72.544,42.96c31.44,0,58.4-17.44,72.672-42.96H279.04z"/>
<path style="fill:#F4C534;" d="M234.352,263.392l-0.64,1.28c-15.04,26.72-43.04,43.36-73.28,43.36s-58.4-16.64-73.44-43.36
	l-0.64-1.28H234.352z"/>
<path style="fill:#3E4347;" d="M313.568,223.776c0,21.104,16.912,38.144,38,38.144c21.232,0,38.288-17.04,38.288-38.144
	c0-21.232-17.056-38.272-38.288-38.288C330.48,185.504,313.568,202.544,313.568,223.776z"/>
<ellipse transform="matrix(-0.7071 -0.7071 0.7071 -0.7071 428.5528 597.1667)" style="fill:#FFFFFF;" cx="337.954" cy="209.827" rx="7.472" ry="11.28"/>
<path style="fill:#3E4347;" d="M295.456,59.52c0,0,83.84,55.888,147.872,73.072C443.328,132.592,278.288,134.912,295.456,59.52z"/>
<g>
</g>
<g>
</g>
<g>
</g>
<g>
</g>
<g>
</g>
<g>
</g>
<g>
</g>
<g>
</g>
<g>
</g>
<g>
</g>
<g>
</g>
<g>
</g>
<g>
</g>
<g>
</g>
<g>
</g>
</svg>
