<?xml version="1.0" encoding="iso-8859-1"?>
<!-- Generator: Adobe Illustrator 19.0.0, SVG Export Plug-In . SVG Version: 6.00 Build 0)  -->
<svg version="1.1" id="Capa_1" xmlns="http://www.w3.org/2000/svg" xmlns:xlink="http://www.w3.org/1999/xlink" x="0px" y="0px"
	 viewBox="0 0 512 512" style="enable-background:new 0 0 512 512;" xml:space="preserve">
<circle style="fill:#FFD93B;" cx="256" cy="256" r="256"/>
<g>
	<path style="fill:#F4C534;" d="M512,256c0,141.44-114.64,256-256,256c-80.48,0-152.32-37.12-199.28-95.28
		c43.92,35.52,99.84,56.72,160.72,56.72c141.36,0,256-114.56,256-256c0-60.88-21.2-116.8-56.72-160.72
		C474.8,103.68,512,175.52,512,256z"/>
	<path style="fill:#F4C534;" d="M416,300.88c6.208,84.672-60.288,164.144-160,164.256c-99.712-0.096-166.096-79.648-160-164.384
		c0.528-8.256,8.928-13.424,16.736-10.608c92.976,35.216,193.552,35.952,286.432,0.224C406.944,287.328,415.472,292.624,416,300.88z
		"/>
</g>
<path style="fill:#3E4347;" d="M256,450.928c-86.032,0.016-149.648-66.72-145.856-146.672c47.328,17.728,97.376,26.832,146.944,26.8
	c49.136,0,98.256-9.024,144.8-26.528C405.712,384.352,342.128,450.944,256,450.928z"/>
<path style="fill:#FFFFFF;" d="M401.92,304.56c0.304,9.168-0.224,18.208-1.584,26.944c-26.48,15.392-46.832,26.272-71.184,33.232
	c-1.072-8.288-2.144-16.576-3.2-24.848c-1.808,9.04-3.648,18.08-5.504,27.12c-17.792,4.08-38.192,6.208-64.448,6.24
	c-24.144-0.016-43.344-1.856-59.888-5.328c0.384-9.936,0.752-19.872,1.136-29.808c-2.032,9.552-4.08,19.104-6.144,28.672
	c-28.24-6.752-50.032-18.352-79.52-35.84c-1.264-8.592-1.776-17.488-1.472-26.704c47.312,17.76,97.456,26.896,146.928,26.896
	C306.176,331.104,355.376,322.048,401.92,304.56z"/>
<path style="fill:#E24B4B;" d="M249.728,396.4c-52.576-0.08-92.752-22-100.096,8.16c-0.224,0.944-0.272,1.92-0.432,2.912
	c26.128,26.72,64.08,43.504,106.8,43.472c36.112,0,68.768-11.984,93.776-31.792c0.736-4.608,0.672-9.328-0.448-14.096
	C342.112,374.832,302.32,396.496,249.728,396.4z"/>
<g>
	<path style="fill:#3E4347;" d="M228.864,229.888c-18.064-20.24-44.096-35.568-72.864-40.8
		c-28.752-5.232-54.784,0.624-72.848,14.304c7.28-37.76,37.168-61.728,72.848-55.232
		C191.696,154.656,221.584,189.504,228.864,229.888z"/>
	<path style="fill:#3E4347;" d="M283.152,229.888c18.064-20.24,44.096-35.568,72.848-40.8c28.752-5.232,54.784,0.624,72.848,14.304
		c-7.28-37.76-37.168-61.728-72.848-55.232C320.304,154.656,290.416,189.504,283.152,229.888z"/>
</g>
<g>
</g>
<g>
</g>
<g>
</g>
<g>
</g>
<g>
</g>
<g>
</g>
<g>
</g>
<g>
</g>
<g>
</g>
<g>
</g>
<g>
</g>
<g>
</g>
<g>
</g>
<g>
</g>
<g>
</g>
</svg>
