<?xml version="1.0" encoding="iso-8859-1"?>
<!-- Generator: Adobe Illustrator 19.0.0, SVG Export Plug-In . SVG Version: 6.00 Build 0)  -->
<svg version="1.1" id="Capa_1" xmlns="http://www.w3.org/2000/svg" xmlns:xlink="http://www.w3.org/1999/xlink" x="0px" y="0px"
	 viewBox="0 0 512 512" style="enable-background:new 0 0 512 512;" xml:space="preserve">
<circle style="fill:#FFD93B;" cx="256" cy="236.832" r="236.832"/>
<g>
	<path style="fill:#F4C534;" d="M492.832,236.832c0,130.848-106.048,236.832-236.832,236.832
		c-74.448,0-140.912-34.336-184.352-88.144C112.272,418.384,164.016,438,220.336,438c130.784,0,236.832-105.984,236.832-236.832
		c0-56.32-19.616-108.048-52.48-148.688C458.416,95.92,492.832,162.384,492.832,236.832z"/>
	<path style="fill:#F4C534;" d="M230.448,204.656c0,40.416-32.864,73.264-73.424,73.264c-40.416,0-73.264-32.864-73.264-73.264
		c0-40.56,32.864-73.424,73.264-73.424C197.584,131.232,230.448,164.096,230.448,204.656z"/>
</g>
<path style="fill:#FFFFFF;" d="M218.864,204.64c-2.352,34.032-31.952,61.696-66.096,61.696c-34.032,0-59.776-27.664-57.424-61.696
	c2.368-34.16,31.952-61.824,65.984-61.824C195.472,142.816,221.232,170.48,218.864,204.64z"/>
<path style="fill:#3E4347;" d="M205.888,213.536c0,20.272-16.432,36.848-36.864,36.848c-20.272,0-36.864-16.576-36.864-37.008
	c0-20.272,16.576-36.704,36.864-36.704C189.456,176.672,205.888,193.104,205.888,213.536z"/>
<ellipse transform="matrix(-0.7071 -0.7071 0.7071 -0.7071 169.846 470.373)" style="fill:#FFFFFF;" cx="182.34" cy="200.01" rx="9.6" ry="6.768"/>
<path style="fill:#F4C534;" d="M418.256,204.656c0,40.416-32.864,73.264-73.424,73.264c-40.416,0-73.264-32.864-73.264-73.264
	c0-40.56,32.864-73.424,73.264-73.424C385.392,131.232,418.256,164.096,418.256,204.656z"/>
<path style="fill:#FFFFFF;" d="M406.672,204.64c-2.352,34.032-31.952,61.696-66.096,61.696c-34.032,0-59.776-27.664-57.424-61.696
	c2.368-34.16,31.952-61.824,65.984-61.824C383.28,142.816,409.024,170.48,406.672,204.64z"/>
<path style="fill:#3E4347;" d="M367.04,210.576c0,20.288-16.432,36.848-36.864,36.848c-20.272,0-36.848-16.576-36.848-37.008
	c0-20.272,16.576-36.704,36.848-36.704C350.608,173.712,367.04,190.144,367.04,210.576z"/>
<ellipse transform="matrix(-0.7071 -0.7071 0.7071 -0.7071 447.0422 579.2802)" style="fill:#FFFFFF;" cx="343.494" cy="197.055" rx="9.6" ry="6.768"/>
<path style="fill:#3E4347;" d="M391.504,310.608c-3.696,47.968-62.912,86.144-135.44,86.144
	c-72.672,0-131.888-38.192-135.584-86.144c25.008,24.128,76.224,40.56,135.584,40.56
	C315.28,351.168,366.496,334.736,391.504,310.608z"/>
<path style="fill:#E24B4B;" d="M320.976,426.256c-18.72,50.784-37.232,85.6-64.928,85.744c-27.776-0.048-46.304-34.96-65.008-85.744
	c-5.664-19.872-3.024-39.392,7.024-54.144c7.52-10.704,22.416-12.672,34.704-8.32c14.912,5.232,31.552,5.232,46.48,0
	c12.304-4.336,27.168-2.464,34.704,8.32C324,386.896,326.656,406.368,320.976,426.256z"/>
<g>
</g>
<g>
</g>
<g>
</g>
<g>
</g>
<g>
</g>
<g>
</g>
<g>
</g>
<g>
</g>
<g>
</g>
<g>
</g>
<g>
</g>
<g>
</g>
<g>
</g>
<g>
</g>
<g>
</g>
</svg>
