<?xml version="1.0" encoding="iso-8859-1"?>
<!-- Generator: Adobe Illustrator 19.0.0, SVG Export Plug-In . SVG Version: 6.00 Build 0)  -->
<svg version="1.1" id="Capa_1" xmlns="http://www.w3.org/2000/svg" xmlns:xlink="http://www.w3.org/1999/xlink" x="0px" y="0px"
	 viewBox="0 0 512 512" style="enable-background:new 0 0 512 512;" xml:space="preserve">
<circle style="fill:#FFD93B;" cx="256" cy="256" r="256"/>
<path style="fill:#F4C534;" d="M512,256c0,141.44-114.64,256-256,256c-80.48,0-152.32-37.12-199.28-95.28
	c43.92,35.52,99.84,56.72,160.72,56.72c141.36,0,256-114.56,256-256c0-60.88-21.2-116.8-56.72-160.72
	C474.8,103.68,512,175.52,512,256z"/>
<path style="fill:#D23F77;" d="M430.912,241.856c0,41.808-33.808,75.6-75.6,75.6s-75.6-33.808-75.6-75.6
	c0-41.664,33.808-75.6,75.6-75.6S430.912,200.192,430.912,241.856z"/>
<ellipse style="fill:#E84D88;" cx="355.36" cy="241.92" rx="75.6" ry="55.152"/>
<ellipse style="fill:#FFFFFF;" cx="355.36" cy="241.92" rx="75.6" ry="32.16"/>
<path style="fill:#3E4347;" d="M333.328,211.088c-9.6,6.88-15.92,18.064-15.92,30.768c0,12.704,6.32,23.888,15.936,30.768
	c6.96,0.896,14.336,1.392,21.984,1.392s15.024-0.496,21.984-1.392c9.6-6.88,15.936-18.08,15.936-30.768
	c0-12.704-6.32-23.888-15.92-30.768c-6.96-0.912-14.336-1.392-21.984-1.392C347.664,209.696,340.288,210.192,333.328,211.088z"/>
<path style="fill:#FFFFFF;" d="M378.384,235.504c-2.896,2.896-8.832,1.52-13.52-3.04c-4.56-4.56-5.936-10.624-3.04-13.52
	c2.896-2.896,8.832-1.376,13.376,3.168C379.904,226.672,381.296,232.608,378.384,235.504z"/>
<path style="fill:#F4C534;" d="M244.864,241.856c0,41.808-33.808,75.6-75.6,75.6c-41.808,0-75.6-33.808-75.6-75.6
	c0-41.664,33.808-75.6,75.6-75.6C211.072,166.256,244.864,200.192,244.864,241.856z"/>
<circle style="fill:#FFFFFF;" cx="169.264" cy="241.92" r="62.72"/>
<circle style="fill:#3E4347;" cx="169.264" cy="241.92" r="34.208"/>
<path style="fill:#FFFFFF;" d="M189.392,235.504c-2.896,2.896-8.832,1.52-13.52-3.04c-4.56-4.56-5.936-10.624-3.04-13.52
	c2.896-2.896,8.832-1.376,13.376,3.168C190.912,226.672,192.288,232.608,189.392,235.504z"/>
<g>
	<path style="fill:#3E4347;" d="M332.64,383.616c0,12.16-9.92,21.92-22.08,21.92H201.28c-12.16,0-21.92-9.76-21.92-21.92
		s9.76-22.08,21.92-22.08h109.28C322.72,361.536,332.64,371.456,332.64,383.616z"/>
	<path style="fill:#3E4347;" d="M316.656,97.232c38.496-23.968,95.136,8.432,96.416,52.304
		C350.368,98.368,361.168,110.656,316.656,97.232z"/>
	<path style="fill:#3E4347;" d="M195.344,97.232c-62.336,18.784-46.208,11.312-96.416,52.304
		C100.192,106,157.44,73.664,195.344,97.232z"/>
</g>
<g>
</g>
<g>
</g>
<g>
</g>
<g>
</g>
<g>
</g>
<g>
</g>
<g>
</g>
<g>
</g>
<g>
</g>
<g>
</g>
<g>
</g>
<g>
</g>
<g>
</g>
<g>
</g>
<g>
</g>
</svg>
