<?xml version="1.0" encoding="iso-8859-1"?>
<!-- Generator: Adobe Illustrator 19.0.0, SVG Export Plug-In . SVG Version: 6.00 Build 0)  -->
<svg version="1.1" id="Capa_1" xmlns="http://www.w3.org/2000/svg" xmlns:xlink="http://www.w3.org/1999/xlink" x="0px" y="0px"
	 viewBox="0 0 512 512" style="enable-background:new 0 0 512 512;" xml:space="preserve">
<circle style="fill:#FFD93B;" cx="256" cy="256" r="256"/>
<g>
	<path style="fill:#F4C534;" d="M512,256c0,141.44-114.64,256-256,256c-80.48,0-152.32-37.12-199.28-95.28
		c43.92,35.52,99.84,56.72,160.72,56.72c141.36,0,256-114.56,256-256c0-60.88-21.2-116.8-56.72-160.72
		C474.8,103.68,512,175.52,512,256z"/>
	<path style="fill:#F4C534;" d="M52.032,240.336c8.464,51.872,43.968,58.08,84.384,46.304
		c41.632-16.528,86.064-27.136,100.496-46.32c14.496-18.16-19.472-57.36-80.24-74.384C94.56,152.416,43.792,188.96,52.032,240.336z"
		/>
</g>
<path style="fill:#FFFFFF;" d="M64.544,240.016c10.656,39.44,42.672,42.032,79.008,33.744
	c36.896-12.032,73.392-17.072,80.816-33.728c7.616-16-25.472-50.112-78.112-61.888C93.024,169.168,53.792,201.072,64.544,240.016z"
	/>
<path style="fill:#3E4347;" d="M193.776,224.928c-0.112,17.552-14.912,31.28-32.96,30.912c-18.048-0.48-32.592-15.04-32.592-32.592
	c0.112-17.68,14.8-31.392,32.832-31.024C179.104,192.688,193.776,207.248,193.776,224.928z"/>
<ellipse transform="matrix(-0.7072 -0.707 0.707 -0.7072 144.0018 484.8914)" style="fill:#FFFFFF;" cx="172.405" cy="212.628" rx="10.16" ry="6.848"/>
<path style="fill:#3E4347;" d="M227.024,177.28c-9.12-10.224-29.712-26.096-48.512-35.056c-28.32-13.584-46.672-13.584-59.6-13.92
	c12.928-1.68,31.52-4.64,63.136,4.896c33.296,9.936,58.064,29.76,58.064,29.76c3.952,3.616,4.224,9.744,0.608,13.696
	C237.104,180.624,230.976,180.896,227.024,177.28z"/>
<path style="fill:#F4C534;" d="M459.968,240.336c-8.464,51.872-43.984,58.064-84.384,46.304
	c-41.632-16.528-86.064-27.136-100.496-46.32c-14.496-18.16,19.472-57.36,80.24-74.384
	C417.44,152.416,468.192,188.96,459.968,240.336z"/>
<path style="fill:#FFFFFF;" d="M447.44,240.016c-10.656,39.44-42.672,42.032-79.008,33.744
	c-36.896-12.032-73.392-17.072-80.816-33.728c-7.616-16,25.472-50.112,78.112-61.888
	C418.976,169.168,458.208,201.072,447.44,240.016z"/>
<path style="fill:#3E4347;" d="M318.224,224.928c0.112,17.552,14.912,31.28,32.96,30.912c18.048-0.48,32.592-15.04,32.592-32.592
	c-0.112-17.68-14.8-31.392-32.832-31.024C332.896,192.688,318.224,207.248,318.224,224.928z"/>
<ellipse transform="matrix(-0.707 -0.7072 0.7072 -0.707 429.1691 603.1839)" style="fill:#FFFFFF;" cx="339.533" cy="212.69" rx="6.848" ry="10.16"/>
<g>
	<path style="fill:#3E4347;" d="M284.976,177.28c9.12-10.224,29.712-26.096,48.512-35.056c28.304-13.584,46.672-13.584,59.6-13.92
		c-12.928-1.68-31.52-4.64-63.136,4.896c-33.296,9.936-58.064,29.76-58.064,29.76c-3.952,3.616-4.224,9.744-0.608,13.696
		C274.896,180.624,281.024,180.896,284.976,177.28z"/>
	<path style="fill:#3E4347;" d="M357.12,411.584c-10.928,50.576-21.6,14.672-101.184-5.312
		c-79.456-15.424-90.128,37.424-101.056,2.144c-5.52-18.848-5.52-45.008,0-63.984c10.928-35.024,21.6,17.584,101.056,2.272
		c79.584-19.984,90.256-55.888,101.184-5.44C362.64,366.448,362.64,386.544,357.12,411.584z"/>
</g>
<path style="fill:#FFFFFF;" d="M348.24,377.696c0,11.136-1.152,22.384-3.6,34.016c-1.024,5.056-2.048,8.352-2.576,10.24
	c-2.448-0.384-5.792-1.504-8.608-2.784c-14.4-5.568-38.448-20.48-77.136-25.536c-39.344-2.784-63.376,3.408-77.776,10.624
	c-2.832,1.264-6.176,3.168-8.48,4.432c-0.768-1.008-1.664-3.04-2.704-6.32c-2.448-7.712-3.6-16.304-3.728-24.912
	c1.28,0.128,2.576,0.256,3.856,0.384c12.864,0.88,25.328,0.128,26.992,0.128c-1.408-0.512-13.504-3.168-24.176-8.224
	c-2.192-1.008-4.112-2.032-6.048-3.168c0.512-5.568,1.408-11.008,3.088-15.92c1.024-3.296,1.936-5.184,2.704-6.32
	c2.192,1.136,5.664,3.024,8.48,4.416c14.4,7.216,38.448,13.408,77.008,10.624c39.472-5.056,63.504-20.112,77.904-25.792
	c2.832-1.008,6.176-2.144,8.48-2.656c0.64,1.888,1.664,5.312,2.704,10.368c1.552,7.456,2.448,14.928,2.96,22.128
	c-1.936,1.136-3.856,2.272-5.92,3.536c-11.44,6.448-24.048,11.888-24.304,11.888c0,0,13.248,1.264,27.136-0.512
	C345.808,378.08,346.96,377.824,348.24,377.696z"/>
<g>
</g>
<g>
</g>
<g>
</g>
<g>
</g>
<g>
</g>
<g>
</g>
<g>
</g>
<g>
</g>
<g>
</g>
<g>
</g>
<g>
</g>
<g>
</g>
<g>
</g>
<g>
</g>
<g>
</g>
</svg>
