<?xml version="1.0" encoding="iso-8859-1"?>
<!-- Generator: Adobe Illustrator 19.0.0, SVG Export Plug-In . SVG Version: 6.00 Build 0)  -->
<svg version="1.1" id="Capa_1" xmlns="http://www.w3.org/2000/svg" xmlns:xlink="http://www.w3.org/1999/xlink" x="0px" y="0px"
	 viewBox="0 0 512 512" style="enable-background:new 0 0 512 512;" xml:space="preserve">
<circle style="fill:#FFD93B;" cx="256" cy="256" r="256"/>
<path style="fill:#F4C534;" d="M512,256c0,141.44-114.64,256-256,256c-80.48,0-152.32-37.12-199.28-95.28
	c43.92,35.52,99.84,56.72,160.72,56.72c141.36,0,256-114.56,256-256c0-60.88-21.2-116.8-56.72-160.72
	C474.8,103.68,512,175.52,512,256z"/>
<path style="fill:#3E4347;" d="M256.032,448.976c-109.136,0-184.592-70.72-163.936-139.904c4.288-14.384,21.744-19.888,33.52-10.56
	c65.36,51.744,194.848,52.048,260.832,0c11.792-9.328,29.232-3.68,33.52,10.72C440.48,379.024,364.256,448.976,256.032,448.976z"/>
<path style="fill:#E24B4B;" d="M256.032,448.976c40.128,0,75.808-9.648,103.84-25.312c-7.84-15.488-22.448-28.752-41.536-37.888
	c-15.84-7.584-33.808-7.408-50.832-3.184c-4.272,1.056-8.896,1.632-13.904,1.632c-7.2,0-13.584-1.216-19.248-3.328
	c-10.496-3.936-22.272-2.8-32.688,1.328c-22.96,9.088-40.56,23.84-49.456,41.456C180.16,439.296,215.776,448.976,256.032,448.976z"
	/>
<path style="fill:#FFFFFF;" d="M378.512,176.416c0,67.696-54.88,122.4-122.4,122.4c-67.84,0-122.72-54.72-122.72-122.4
	c0-67.664,54.88-122.56,122.72-122.56C323.632,53.856,378.512,108.736,378.512,176.416z"/>
<path style="fill:#3E4347;" d="M326.032,175.456c0,39.36-31.2,71.52-69.76,72c-39.04,0.64-70.4-30.72-70.4-70.08
	s31.2-71.52,70.08-72C294.672,104.736,326.032,136.096,326.032,175.456z"/>
<g>
	<path style="fill:#FFFFFF;" d="M298.192,159.456c-4.64,4.64-14.24,2.72-21.12-4.16c-7.04-7.04-8.8-16.48-4.16-21.12
		c4.64-4.64,14.08-2.88,21.12,4.16C300.912,145.216,302.832,154.816,298.192,159.456z"/>
	<path style="fill:#FFFFFF;" d="M267.536,364.544l3.984-27.632c-44.4,2.512-90.016-5.888-125.008-24.944l-3.536,24.576
		c-0.992,6.912,2.544,13.984,8.48,16.56c34.496,15.024,69.088,23.008,103.76,23.312C261.392,376.48,266.544,371.36,267.536,364.544z
		"/>
	<path style="fill:#FFFFFF;" d="M296.544,364.624c0.224,6.352,4.896,12.192,11.216,12.688c31.616,2.432,23.888,0.944,51.344-3.504
		c6.192-1.008,10.304-7.12,10.096-13.376l-1.696-49.552c-20.96,11.792-45.776,19.664-72,23.568L296.544,364.624z"/>
</g>
<g>
</g>
<g>
</g>
<g>
</g>
<g>
</g>
<g>
</g>
<g>
</g>
<g>
</g>
<g>
</g>
<g>
</g>
<g>
</g>
<g>
</g>
<g>
</g>
<g>
</g>
<g>
</g>
<g>
</g>
</svg>
