<?xml version="1.0" encoding="iso-8859-1"?>
<!-- Generator: Adobe Illustrator 19.0.0, SVG Export Plug-In . SVG Version: 6.00 Build 0)  -->
<svg version="1.1" id="Capa_1" xmlns="http://www.w3.org/2000/svg" xmlns:xlink="http://www.w3.org/1999/xlink" x="0px" y="0px"
	 viewBox="0 0 512 512" style="enable-background:new 0 0 512 512;" xml:space="preserve">
<circle style="fill:#FFD93B;" cx="256" cy="256" r="256"/>
<g>
	<path style="fill:#F4C534;" d="M512,256c0,141.44-114.64,256-256,256c-80.48,0-152.32-37.12-199.28-95.28
		c43.92,35.52,99.84,56.72,160.72,56.72c141.36,0,256-114.56,256-256c0-60.88-21.2-116.8-56.72-160.72
		C474.8,103.68,512,175.52,512,256z"/>
	<path style="fill:#F4C534;" d="M387.744,311.2c-42.096,13.232-86.912-10.208-100-52.336
		c-13.232-41.936-25.632-122.384,16.48-135.472c41.936-13.232,122.592,45.872,135.824,87.808
		C453.152,253.328,429.872,298.112,387.744,311.2z"/>
</g>
<path style="fill:#FFFFFF;" d="M377.28,297.472c-35.408,11.2-70.896-8.96-79.2-44.976c-8.432-35.872-13.952-104.64,21.472-115.712
	c35.28-11.2,98.176,39.52,106.608,75.392C434.464,248.192,412.688,286.384,377.28,297.472z"/>
<ellipse style="fill:#3E4347;" cx="344.832" cy="216.272" rx="41.216" ry="41.136"/>
<ellipse transform="matrix(-0.7071 -0.7071 0.7071 -0.7071 470.9498 598.3376)" style="fill:#FFFFFF;" cx="359.395" cy="201.632" rx="13.344" ry="8.32"/>
<path style="fill:#F4C534;" d="M124.256,311.2c42.096,13.232,86.896-10.208,100-52.336c13.232-41.936,25.632-122.384-16.48-135.472
	C165.84,110.16,85.184,169.264,71.952,211.2C58.848,253.328,82.128,298.112,124.256,311.2z"/>
<path style="fill:#FFFFFF;" d="M134.72,297.472c35.408,11.2,70.896-8.96,79.2-44.976c8.432-35.872,13.952-104.64-21.472-115.712
	c-35.28-11.2-98.176,39.52-106.608,75.392C77.536,248.192,99.312,286.384,134.72,297.472z"/>
<ellipse style="fill:#3E4347;" cx="167.168" cy="216.272" rx="41.216" ry="41.136"/>
<ellipse transform="matrix(-0.7071 -0.7071 0.7071 -0.7071 167.6497 472.759)" style="fill:#FFFFFF;" cx="181.736" cy="201.658" rx="13.344" ry="8.32"/>
<path style="fill:#3E4347;" d="M358.272,409.472C358.272,452.224,312.48,468,256,468s-102.272-15.776-102.272-58.528
	S199.52,332.048,256,332.048C312.48,332.048,358.272,366.72,358.272,409.472z"/>
<path style="fill:#E24B4B;" d="M327.76,437.424c-18.624,12.816-50.048,15.264-71.728,15.264c-21.824,0-53.408-2.448-71.872-15.408
	c6.4-23.504,36.16-41.36,71.872-41.36C291.744,395.904,321.504,413.776,327.76,437.424z"/>
<g>
</g>
<g>
</g>
<g>
</g>
<g>
</g>
<g>
</g>
<g>
</g>
<g>
</g>
<g>
</g>
<g>
</g>
<g>
</g>
<g>
</g>
<g>
</g>
<g>
</g>
<g>
</g>
<g>
</g>
</svg>
