<?xml version="1.0" encoding="iso-8859-1"?>
<!-- Generator: Adobe Illustrator 19.0.0, SVG Export Plug-In . SVG Version: 6.00 Build 0)  -->
<svg version="1.1" id="Capa_1" xmlns="http://www.w3.org/2000/svg" xmlns:xlink="http://www.w3.org/1999/xlink" x="0px" y="0px"
	 viewBox="0 0 512 512" style="enable-background:new 0 0 512 512;" xml:space="preserve">
<circle style="fill:#FFD93B;" cx="256" cy="256" r="256"/>
<path style="fill:#F4C534;" d="M512,256c0,141.44-114.64,256-256,256c-80.48,0-152.32-37.12-199.28-95.28
	c43.92,35.52,99.84,56.72,160.72,56.72c141.36,0,256-114.56,256-256c0-60.88-21.2-116.8-56.72-160.72
	C474.8,103.68,512,175.52,512,256z"/>
<path style="fill:#E24B4B;" d="M282.944,427.456c-15.296,12.272-35.776,14.032-37.92,11.84c-14.4-1.28-26.72-9.76-35.36-21.28
	c-0.16,0-0.16-0.16-0.16-0.16c-17.808-24.016-37.904-43.344-16.8-64.48c30.208-28.88,48.016,4.256,73.92,6.736
	c13.92,1.264,33.44,9.92,50.08,17.44C338.24,388.768,310.832,405.216,282.944,427.456z"/>
<path style="fill:#BF3333;" d="M315.424,394.384c-5.232,2.448-20.528,7.696-32.944,9.968c-8.336,1.776-16.608,3.696-24.032,6.192
	c-0.464,0.208-0.928,0.288-1.392,0.48c-3.392,1.248-6.784,1.136-9.776-0.144c-7.904-3.488-16.448-7.168-24.976-11.2
	c-11.088-4.592-24.976-14.992-28.256-18.4c-5.808-5.696-3.488-7.904-3.504-7.888c18.432,12.688,32.864,14.064,41.136,14.64
	c6.272,0.48,14.128,1.856,21.072,3.552c0.816,0.16,0.304,0.112,1.136,0.256c6.288,1.328,12.592,2.848,18.576,4.272
	c12.416,4.16,40.992-1.488,48.944-5.792C321.424,390.256,322.704,391.168,315.424,394.384z"/>
<path style="fill:#E24B4B;" d="M415.376,405.12c0,23.184-38.544,47.28-38.544,47.28s-38.544-24.096-38.544-47.28
	c0-11.488,9.296-20.848,20.768-20.848c7.536,0,14.192,4.016,17.776,10.096c3.504-6.064,10.16-10.096,17.696-10.096
	C406.08,384.272,415.376,393.632,415.376,405.12z"/>
<path style="fill:#F4C534;" d="M244.96,219.968c-3.92,29.408-42.912,51.952-86.144,59.488c-43.04,7.232-81.296-15.216-86.992-59.488
	c-5.728-43.952,33.248-82.864,86.16-75.328C210.704,152.048,248.928,190.832,244.96,219.968z"/>
<path style="fill:#FFFFFF;" d="M236,218.8c-0.912,24.944-33.6,44.08-71.36,50.48c-37.632,6.144-73.6-12.912-82.528-50.48
	c-8.944-37.296,22.288-70.32,69.984-63.92C199.6,161.152,236.976,194.08,236,218.8z"/>
<path style="fill:#3E4347;" d="M180.128,224.896c0,17.856-14.512,32.368-32.512,32.368c-17.856,0-32.368-14.512-32.368-32.368
	c0-18,14.528-32.512,32.368-32.512C165.616,192.384,180.128,206.896,180.128,224.896z"/>
<ellipse transform="matrix(-0.7071 -0.7071 0.7071 -0.7071 123.5754 475.6425)" style="fill:#FFFFFF;" cx="160.296" cy="212.228" rx="9.92" ry="6.384"/>
<path style="fill:#3E4347;" d="M210,164.464c0.848,4.256-13.104-1.728-17.28-2.88c-53.376-13.36-58.272,18.144-80.96,28
	c-15.84,6.464-38.048,1.872-44.64,18.88c-2.88-12.32,1.92-26.08,11.84-33.92c-7.2,2.08-15.04,1.92-22.08-0.48
	c8.48-0.32,16.8-3.52,23.2-9.12c-6.56,0.48-13.28-1.12-18.88-4.8c23.68-4.48,45.44-16.64,69.28-20.16
	c23.168-3.2,47.312,2.336,66.08,14.24C197.744,154.96,209.76,163.088,210,164.464z"/>
<path style="fill:#F4C534;" d="M285.68,217.04c11.488,27.344,55.04,38.864,98.752,34.8c43.44-4.32,74.448-36.032,68.32-80.24
	c-6-43.92-53.824-71.216-102.896-50.064C300.912,142.496,274.208,189.968,285.68,217.04z"/>
<path style="fill:#FFFFFF;" d="M294.016,213.552c7.424,23.84,43.984,33.712,82.112,29.984c37.92-3.952,67.632-31.776,66.384-70.384
	c-1.168-38.336-39.968-62-84.304-43.312C314.016,148.384,286.592,189.952,294.016,213.552z"/>
<path style="fill:#3E4347;" d="M320.256,171.2c-17.232,4.688-27.424,22.512-22.704,39.872c4.688,17.232,22.496,27.424,39.728,22.736
	c17.36-4.72,27.568-22.544,22.88-39.776C355.44,176.672,337.616,166.48,320.256,171.2z"/>
<ellipse transform="matrix(-0.8679 -0.4968 0.4968 -0.8679 537.6874 517.2736)" style="fill:#FFFFFF;" cx="337.631" cy="187.134" rx="9.92" ry="6.384"/>
<path style="fill:#3E4347;" d="M304.848,154.304c0.288,4.32,12.192-5.104,15.92-7.312c48-26.896,60.992,2.208,85.472,5.76
	c16.992,2.064,37.2-8.176,48.032,6.496c-0.448-12.64-8.704-24.656-20.32-29.616c7.488,0.112,15.008-2.096,21.184-6.256
	c-8.272,1.92-17.136,1.024-24.784-2.704c6.448-1.264,12.512-4.576,16.96-9.6c-24.032,1.904-48.208-4.128-72.144-1.264
	c-23.2,2.992-45.04,14.672-60.032,31.088C314.176,141.92,304.72,152.912,304.848,154.304z"/>
<g>
</g>
<g>
</g>
<g>
</g>
<g>
</g>
<g>
</g>
<g>
</g>
<g>
</g>
<g>
</g>
<g>
</g>
<g>
</g>
<g>
</g>
<g>
</g>
<g>
</g>
<g>
</g>
<g>
</g>
</svg>
