<?xml version="1.0" encoding="iso-8859-1"?>
<!-- Generator: Adobe Illustrator 19.0.0, SVG Export Plug-In . SVG Version: 6.00 Build 0)  -->
<svg version="1.1" id="Capa_1" xmlns="http://www.w3.org/2000/svg" xmlns:xlink="http://www.w3.org/1999/xlink" x="0px" y="0px"
	 viewBox="0 0 512 512" style="enable-background:new 0 0 512 512;" xml:space="preserve">
<circle style="fill:#FFD93B;" cx="256" cy="256" r="256"/>
<path style="fill:#F4C534;" d="M512,256c0,141.44-114.64,256-256,256c-80.48,0-152.32-37.12-199.28-95.28
	c43.92,35.52,99.84,56.72,160.72,56.72c141.36,0,256-114.56,256-256c0-60.88-21.2-116.8-56.72-160.72
	C474.8,103.68,512,175.52,512,256z"/>
<g>
	<path style="fill:#3E4347;" d="M235.728,254.272c-44.272-38.512-128.992-27.36-165.248,23.408
		C53.696,165.776,190.4,146.24,235.728,254.272z"/>
	<path style="fill:#3E4347;" d="M441.664,277.104c-36.496-50.48-121.28-60.992-165.424-22.144
		C320.736,146.576,457.6,165.072,441.664,277.104z"/>
	<path style="fill:#3E4347;" d="M415.904,320.816C398.224,395.328,333.248,439.312,256,439.312
		c-76.928,0-142.24-43.808-159.92-118.496c-3.344-13.616,10.192-25.136,20.72-17.28c30.576,22.864,82.352,32.992,139.2,32.992
		c56.864,0,108.624-10.128,139.2-32.992C405.712,295.68,419.264,307.2,415.904,320.816z"/>
</g>
<path style="fill:#E24B4B;" d="M256,439.312c36.176,0,69.568-9.76,96.768-27.664C352.336,359.472,309.2,381.76,256,381.76
	s-96.336-22.288-96.768,29.872C186.48,429.568,219.92,439.312,256,439.312z"/>
<g>
	<path style="fill:#FFFFFF;" d="M288.992,335.184l4.608,26.752c0.576,3.648,3.552,6.384,7.2,6.576
		c13.552,0.752,26.896-1.216,40.016-5.872c3.68-1.264,6.144-4.784,6.144-8.528l0.256-28.64
		C329.648,330.4,309.968,333.6,288.992,335.184z"/>
	<path style="fill:#FFFFFF;" d="M160.24,324.272l5.792,27.68c0.72,3.664,3.936,5.68,7.408,6.752
		c13.792,4.256,82.928,14.688,95.808,10.448c3.6-1.136,5.936-4.576,5.792-8.304l-0.672-24.752c-6.048,0.24-12.16,0.416-18.352,0.416
		C220.848,336.512,187.68,332.624,160.24,324.272z"/>
</g>
<g>
</g>
<g>
</g>
<g>
</g>
<g>
</g>
<g>
</g>
<g>
</g>
<g>
</g>
<g>
</g>
<g>
</g>
<g>
</g>
<g>
</g>
<g>
</g>
<g>
</g>
<g>
</g>
<g>
</g>
</svg>
