<?xml version="1.0" encoding="iso-8859-1"?>
<!-- Generator: Adobe Illustrator 19.0.0, SVG Export Plug-In . SVG Version: 6.00 Build 0)  -->
<svg version="1.1" id="Capa_1" xmlns="http://www.w3.org/2000/svg" xmlns:xlink="http://www.w3.org/1999/xlink" x="0px" y="0px"
	 viewBox="0 0 512 512" style="enable-background:new 0 0 512 512;" xml:space="preserve">
<circle style="fill:#FFD93B;" cx="256" cy="256" r="256"/>
<path style="fill:#F4C534;" d="M512,256c0,141.44-114.64,256-256,256c-80.48,0-152.32-37.12-199.28-95.28
	c43.92,35.52,99.84,56.72,160.72,56.72c141.36,0,256-114.56,256-256c0-60.88-21.2-116.8-56.72-160.72
	C474.8,103.68,512,175.52,512,256z"/>
<path style="fill:#FFFFFF;" d="M266.128,206.64c0,59.936-48.64,108.576-108.432,108.576c-59.936,0-108.576-48.64-108.576-108.576
	S97.76,98.208,157.696,98.208C217.488,98.192,266.128,146.688,266.128,206.64z"/>
<ellipse style="fill:#3E4347;" cx="157.6" cy="206.672" rx="59.296" ry="59.232"/>
<ellipse transform="matrix(-0.7071 -0.7071 0.7071 -0.7071 169.7773 444.8375)" style="fill:#5A5F63;" cx="177.018" cy="187.257" rx="23.552" ry="15.728"/>
<circle style="fill:#FFFFFF;" cx="371.52" cy="206.672" r="91.392"/>
<ellipse style="fill:#3E4347;" cx="371.52" cy="206.672" rx="49.952" ry="49.888"/>
<ellipse transform="matrix(-0.7071 -0.7071 0.7071 -0.7071 527.5204 599.1055)" style="fill:#5A5F63;" cx="387.839" cy="190.3" rx="19.84" ry="13.248"/>
<path style="fill:#3E4347;" d="M368.704,422.912c0.912,6.4-3.2,12.496-9.6,13.408c-68.736,10.816-137.456,10.816-206.192,0
	c-6.4-0.912-10.512-7.008-9.6-13.408c7.92-55.168,55.328-97.696,112.624-97.696C313.376,325.232,360.768,367.744,368.704,422.912z"
	/>
<path style="fill:#FFFFFF;" d="M159.696,437.264c64.208,9.44,128.416,9.44,192.624,0c-16.224-35.728-53.2-44.88-96.32-44.88
	S175.92,401.536,159.696,437.264z"/>
<g>
</g>
<g>
</g>
<g>
</g>
<g>
</g>
<g>
</g>
<g>
</g>
<g>
</g>
<g>
</g>
<g>
</g>
<g>
</g>
<g>
</g>
<g>
</g>
<g>
</g>
<g>
</g>
<g>
</g>
</svg>
