<?xml version="1.0" encoding="iso-8859-1"?>
<!-- Generator: Adobe Illustrator 19.0.0, SVG Export Plug-In . SVG Version: 6.00 Build 0)  -->
<svg version="1.1" id="Capa_1" xmlns="http://www.w3.org/2000/svg" xmlns:xlink="http://www.w3.org/1999/xlink" x="0px" y="0px"
	 viewBox="0 0 512 512" style="enable-background:new 0 0 512 512;" xml:space="preserve">
<circle style="fill:#FFD93B;" cx="256" cy="256" r="256"/>
<path style="fill:#F4C534;" d="M510.784,256c0,141.44-114.64,256-256,256c-80.48,0-152.32-37.12-199.28-95.28
	c43.92,35.52,99.84,56.72,160.72,56.72c141.36,0,256-114.56,256-256c0-60.88-21.2-116.8-56.72-160.72
	C473.584,103.68,510.784,175.52,510.784,256z"/>
<g>
	<path style="fill:#FFFFFF;" d="M235.408,218.16c0,43.808-35.424,79.376-79.376,79.376c-43.792,0-79.376-35.584-79.376-79.376
		c0-43.952,35.584-79.52,79.376-79.52C199.984,138.64,235.408,174.224,235.408,218.16z"/>
	<path style="fill:#FFFFFF;" d="M435.344,208.528c0,43.808-35.424,79.376-79.376,79.376c-43.792,0-79.376-35.568-79.376-79.376
		c0-43.952,35.568-79.52,79.376-79.52C399.92,129.008,435.344,164.592,435.344,208.528z"/>
</g>
<path style="fill:#65B1EF;" d="M444.96,208.544c0,49.104-39.728,88.992-88.992,88.992c-49.104,0-88.992-39.888-88.992-88.992
	c0-49.28,39.888-89.168,88.992-89.168C405.248,119.376,444.96,159.264,444.96,208.544z"/>
<g>
	<path style="fill:#3E4347;" d="M355.984,309.552c-55.68,0-100.992-45.312-100.992-101.008c0-55.776,45.312-101.168,100.992-101.168
		s100.992,45.392,100.992,101.168C456.96,264.24,411.664,309.552,355.984,309.552z M355.984,131.376
		c-42.448,0-77.008,34.624-77.008,77.168c0,42.448,34.544,77.008,77.008,77.008c42.448,0,76.992-34.544,76.992-77.008
		C432.96,166,398.432,131.376,355.984,131.376z"/>
	<path style="fill:#3E4347;" d="M366.32,208.496c0,16.688-13.424,30.432-30.32,30.432c-16.688,0-30.32-13.744-30.32-30.432
		c0-16.784,13.648-30.544,30.32-30.544C352.896,177.968,366.32,191.712,366.32,208.496z"/>
</g>
<ellipse transform="matrix(-0.7071 -0.7071 0.7071 -0.7071 451.6213 582.8356)" style="fill:#FFFFFF;" cx="346.52" cy="197.884" rx="10" ry="6.912"/>
<path style="fill:#3E4347;" d="M206.32,218.128c0,16.688-13.424,30.432-30.32,30.432c-16.688,0-30.32-13.744-30.32-30.432
	c0-16.784,13.648-30.544,30.32-30.544C192.896,187.584,206.32,201.344,206.32,218.128z"/>
<ellipse transform="matrix(-0.7071 -0.7071 0.7071 -0.7071 171.7068 486.1128)" style="fill:#FFFFFF;" cx="186.531" cy="207.495" rx="10" ry="6.912"/>
<g>
	<path style="fill:#3E4347;" d="M385.84,290c-6.992,2.544-13.712,3.84-20.096,4.144L409.44,414.32
		c3.808,10.448,15.376,15.84,25.712,12.096c10.448-3.792,15.84-15.36,12.048-25.808l-43.664-120.08
		C398.528,284.272,392.688,287.504,385.84,290z"/>
	<path style="fill:#3E4347;" d="M419.072,57.632c-0.48,6.56-6.08,11.36-12.96,11.04c-58.88-4.64-116,30.56-116.64,31.04
		c-4.944,3.312-12.896,2.048-16.48-3.84c-3.52-5.6-1.92-12.96,3.68-16.48c2.56-1.6,64-39.84,131.36-34.56
		C414.592,45.312,419.552,51.056,419.072,57.632z"/>
	<path style="fill:#3E4347;" d="M226.272,157.776c-20.432,10.32-59.504,10.32-91.2-18.08c-34.88-30.88-65.28-30.08-66.72-29.92
		c-6.08,0.16-11.36-4.32-11.68-10.56c-0.32-6.08,4.32-11.36,10.4-11.68c1.76-0.16,40.48-2.08,82.88,35.52
		c32.96,29.28,65.44,15.04,66.88,14.4c5.6-2.56,12.16,0,14.72,5.44C234.112,148.496,231.872,155.232,226.272,157.776z"/>
	<path style="fill:#3E4347;" d="M349.216,394.384c-52.288,22.64-185.264,74.96-184.272,18.592c0,0-0.96-83.088,56-60.16
		c49.856,20.176,77.776,32.496,126.304,32.736C352.256,385.696,353.728,392.352,349.216,394.384z"/>
</g>
<g>
	<path style="fill:#FFFFFF;" d="M167.104,390.88c37.616-18.432,81.824,21.184,166.544-3.104c2.384-0.736,4.768-1.584,7.12-2.448
		c-44.512-1.424-72.288-13.312-119.824-32.512C183.712,337.824,171.28,368.08,167.104,390.88z"/>
	<path style="fill:#FFFFFF;" d="M305.024,412.256c-27.344,5.488-55.936,5.328-83.328-1.024c-18.592-4.32-37.392-11.328-56.08-10.272
		c-0.72,7.072-0.688,12-0.688,12C164.16,456.896,244.672,434.88,305.024,412.256z"/>
</g>
<g>
</g>
<g>
</g>
<g>
</g>
<g>
</g>
<g>
</g>
<g>
</g>
<g>
</g>
<g>
</g>
<g>
</g>
<g>
</g>
<g>
</g>
<g>
</g>
<g>
</g>
<g>
</g>
<g>
</g>
</svg>
