<?xml version="1.0" encoding="iso-8859-1"?>
<!-- Generator: Adobe Illustrator 19.0.0, SVG Export Plug-In . SVG Version: 6.00 Build 0)  -->
<svg version="1.1" id="Capa_1" xmlns="http://www.w3.org/2000/svg" xmlns:xlink="http://www.w3.org/1999/xlink" x="0px" y="0px"
	 viewBox="0 0 512 512" style="enable-background:new 0 0 512 512;" xml:space="preserve">
<circle style="fill:#FFD93B;" cx="256" cy="256" r="256"/>
<g>
	<path style="fill:#F4C534;" d="M512,256c0,141.44-114.64,256-256,256c-80.48,0-152.32-37.12-199.28-95.28
		c43.92,35.52,99.84,56.72,160.72,56.72c141.36,0,256-114.56,256-256c0-60.88-21.2-116.8-56.72-160.72
		C474.8,103.68,512,175.52,512,256z"/>
	<path style="fill:#F4C534;" d="M218.368,226.592l16,6.24c-38.992,9.2-82.8,12.448-137.6-6.88c39.888,1.264,74.176,3.632,103.68,1.6
		c-13.264-10.864-23.68-28.8-28.8-45.6C183.072,199.52,198.864,218.64,218.368,226.592z"/>
	<path style="fill:#F4C534;" d="M415.328,225.952c-42.128,14.736-86.448,18.864-137.76,6.88c17.168-6.624,37.536-11.104,62.72-50.88
		c-5.008,16.432-15.312,34.96-28.8,45.6C340.896,229.584,379.36,227.072,415.328,225.952z"/>
</g>
<g>
	<path style="fill:#3E4347;" d="M92.448,150.912c2.224,1.728,27.936,24.032,39.84,33.44c13.36,10.56,29.392,22.048,41.44,31.68
		C145.856,218.496,99.232,188.096,92.448,150.912z"/>
	<path style="fill:#3E4347;" d="M419.488,150.912c-6.816,37.536-53.328,67.552-81.28,65.12c16.416-13.12,47.824-34.72,77.44-62.08
		C418.048,152.032,419.488,150.912,419.488,150.912z"/>
	<path style="fill:#3E4347;" d="M303.696,150.656c6.432-23.552,69.792-74.496,111.632-53.808
		c-57.872-1.904-81.92,63.248-111.744,61.856C301.744,158.608,303.2,152.416,303.696,150.656z"/>
	<path style="fill:#3E4347;" d="M208.304,150.656c-6.432-23.552-69.792-74.496-111.632-53.792
		c57.872-1.904,81.92,63.248,111.744,61.856C210.256,158.608,208.8,152.416,208.304,150.656z"/>
	<path style="fill:#3E4347;" d="M383.424,318.176c-18.944-17.312-40.88-32.288-67.6-43.216c-5.376-2.192-11.296-3.68-17.424-4.272
		c-27.008-2.576-54.464,0.144-80.096,6.976c-12.032,3.216-23.76,9.12-34.352,16.944c-21.12,15.6-38.032,30.688-51.712,45.312
		c-30.464,32.576-35.168,77.584-9.92,102.224c22.608,22.064,60.432,36.016,106.368,36.016c56.48,0,109.296-20.8,142.672-50.8
		C407.76,394.656,411.968,344.256,383.424,318.176z"/>
</g>
<path style="fill:#E24B4B;" d="M155.936,464.112c20.272,8.912,44.992,14.064,72.752,14.064c49.84,0,96.768-16.224,130.064-40.64
	c-0.208-3.664-0.496-7.376-1.136-11.184c-5.776-34.816-28.672-59.04-55.536-57.472c-12.624,0.848-23.648,6.64-32.416,15.856
	c-13.808,14.304-31.776,20.384-49.12,16.144c-11.024-2.688-23.008-0.992-34.352,6.512
	C168.656,418.528,157.888,440.064,155.936,464.112z"/>
<g>
	<path style="fill:#FFFFFF;" d="M218.304,277.664c-12.032,3.216-23.76,9.12-34.352,16.96c-0.224,0.16-0.416,0.32-0.624,0.48
		l1.28,30.816c0.16,3.2,2.72,5.76,5.92,5.92l16.64,1.12c3.04,0.16,5.92-1.92,6.56-4.96l12.016-51.984
		C223.264,276.608,220.752,277.024,218.304,277.664z"/>
	<path style="fill:#FFFFFF;" d="M315.824,274.96c-5.376-2.208-11.296-3.68-17.424-4.272c-7.36-0.704-14.768-0.944-22.144-0.88
		l-1.472,46.992c-0.192,3.696,2.496,6.96,6.048,7.696l19.488,3.776c3.728,0.784,7.456-1.376,8.608-5.024l13.92-45.04
		C320.464,277.168,318.256,275.968,315.824,274.96z"/>
	<path style="fill:#FFFFFF;" d="M330.16,418.112c-1.392-3.44-5.216-5.264-8.736-4.416l-19.248,4.848
		c-3.712,0.864-6.16,4.4-5.664,8.192L302,466.16c14.72-4.88,28.592-10.96,41.024-18.24L330.16,418.112z"/>
	<path style="fill:#FFFFFF;" d="M228.688,478.176c6.112,0,12.144-0.352,18.144-0.816l0.608-32.368
		c0.144-3.696-2.576-6.944-6.128-7.616l-19.536-3.536c-3.744-0.736-7.44,1.472-8.544,5.12l-11.056,37.44
		C210.672,477.472,219.472,478.176,228.688,478.176z"/>
</g>
<g>
</g>
<g>
</g>
<g>
</g>
<g>
</g>
<g>
</g>
<g>
</g>
<g>
</g>
<g>
</g>
<g>
</g>
<g>
</g>
<g>
</g>
<g>
</g>
<g>
</g>
<g>
</g>
<g>
</g>
</svg>
