<?xml version="1.0" encoding="iso-8859-1"?>
<!-- Generator: Adobe Illustrator 19.0.0, SVG Export Plug-In . SVG Version: 6.00 Build 0)  -->
<svg version="1.1" id="Capa_1" xmlns="http://www.w3.org/2000/svg" xmlns:xlink="http://www.w3.org/1999/xlink" x="0px" y="0px"
	 viewBox="0 0 512 512" style="enable-background:new 0 0 512 512;" xml:space="preserve">
<circle style="fill:#FFD93B;" cx="255.991" cy="281.072" r="230.928"/>
<path style="fill:#F4C534;" d="M486.919,281.072C486.919,408.656,383.511,512,255.991,512c-72.592,0-137.408-33.488-179.76-85.952
	c39.616,32.048,90.064,51.168,144.976,51.168c127.52,0,230.928-103.344,230.928-230.928c0-54.912-19.12-105.36-51.168-144.976
	C453.367,143.68,486.919,208.48,486.919,281.072z"/>
<g>
	<path style="fill:#9A795F;" d="M423.815,288.496c-4.144,46.368-45.648,83.872-92.8,83.872s-82.128-37.504-77.984-83.872
		c4.144-46.368,45.808-84.016,92.976-84.016C393.159,204.48,427.943,242.144,423.815,288.496z"/>
	<path style="fill:#9A795F;" d="M467.543,375.376c-93.44-67.296-168.048-156.896-214.304-220.4h-30.096
		c45.856,65.568,126.016,166.032,230.016,240.24c6.08,4.48,14.72,2.24,18.08-4.48c0.16,0,0.16-0.16,0.16-0.16
		C474.103,385.296,472.343,378.736,467.543,375.376z"/>
</g>
<path style="fill:#3E4347;" d="M507.911,112.416c-52.304,60.112-128.688,68.08-251.84,68.08s-199.888-7.968-252.016-68.24
	c-9.184-10.56-1.728-27.024,12.128-27.024h9.184c45.04,0,86.944-19.216,120.56-49.184C170.327,14.192,210.503,0,256.055,0
	s85.744,14.192,110.16,36.032c33.6,29.968,75.52,49.184,120.56,49.184h9.008C509.815,85.216,517.095,101.84,507.911,112.416z"/>
<circle style="fill:#FFD93B;" cx="144.151" cy="288.48" r="89.52"/>
<circle style="fill:#FFFFFF;" cx="144.151" cy="288.48" r="69.376"/>
<path style="fill:#3E4347;" d="M180.135,288.496c0,19.92-16.048,35.968-35.952,35.968c-20.064,0-36.096-16.048-36.096-35.968
	c0-20.048,16.048-36.096,36.096-36.096C163.943,252.256,180.135,268.432,180.135,288.496z"/>
<path style="fill:#FFFFFF;" d="M166.615,281.28c-2.4,2.272-7.456,1.072-11.328-2.8c-3.856-3.856-5.056-8.928-2.8-11.328
	c2.4-2.4,7.456-1.072,11.328,2.8C167.687,273.824,169.015,278.88,166.615,281.28z"/>
<path style="fill:#FFD93B;" d="M221.655,257.76c-10.88-32.432-41.392-55.856-77.472-55.856s-66.688,23.424-77.6,55.856
	C118.263,268.72,169.959,268.72,221.655,257.76z"/>
<path style="fill:#3E4347;" d="M326.951,416.304c0,10.56-8.48,19.04-18.88,19.04h-104.16c-10.4,0-18.88-8.48-18.88-19.04
	s8.48-19.04,18.88-19.04h104.16C318.471,397.264,326.951,405.744,326.951,416.304z"/>
<path style="fill:#5A5F63;" d="M4.007,112.192c0.016,0.016,0.016,0.032,0.032,0.048c52.144,60.272,128.864,68.24,252.016,68.24
	s199.536-7.968,251.84-68.08c0.08-0.08,0.112-0.192,0.176-0.288c-74.432,43.616-139.904,32.928-196.8,14.88
	c-35.888-11.376-74.656-11.424-110.528-0.048C143.687,145.056,78.375,155.712,4.007,112.192z"/>
<g>
	<path style="fill:#FFFFFF;" d="M246.359,80.064l-9.68,9.68c-3.36,3.36-4.944,7.904-5.232,12.656
		c-0.096,1.376-0.592,2.672-1.584,3.664c-4.144,4.144-11.168-0.304-9.184-5.728c-5.536,1.872-9.984-5.04-5.728-9.2
		c0.992-0.992,2.272-1.584,3.552-1.68c4.736-0.192,9.392-1.776,12.752-5.136l9.184-9.2
		C242.007,77.104,244.087,78.784,246.359,80.064z"/>
	<path style="fill:#FFFFFF;" d="M297.047,38.752c-0.896,0.992-2.272,1.584-3.552,1.68c-4.736,0.192-9.296,1.776-12.656,5.136
		l-6.816,6.816c-1.184-2.272-2.864-4.256-4.848-6.032l6.224-6.224c3.36-3.36,4.848-7.904,5.136-12.656
		c0.096-1.392,0.592-2.672,1.584-3.664c4.144-4.144,11.168,0.304,9.184,5.728C296.855,27.68,301.303,34.592,297.047,38.752z"/>
	<path style="fill:#FFFFFF;" d="M236.663,40.128l6.224,6.224c-1.984,1.68-3.664,3.648-4.944,5.92l-6.72-6.72
		c-3.36-3.36-8-4.848-12.752-5.136c-1.28-0.096-2.576-0.688-3.552-1.68c-4.256-4.16,0.192-11.072,5.728-9.2
		c-1.984-5.44,5.04-9.888,9.184-5.728c0.992,0.992,1.584,2.272,1.584,3.664C231.719,32.224,233.303,36.768,236.663,40.128z"/>
	<path style="fill:#FFFFFF;" d="M291.415,100.32c1.872,5.44-5.136,9.888-9.296,5.728c-0.992-0.992-1.488-2.272-1.584-3.664
		c-0.304-4.752-1.776-9.296-5.136-12.656l-9.792-9.776c2.272-1.184,4.352-2.864,6.032-4.848l9.184,9.2
		c3.36,3.36,7.904,4.848,12.656,5.136c1.28,0.096,2.672,0.688,3.664,1.68C301.303,95.28,296.855,102.208,291.415,100.32z"/>
	<path style="fill:#FFFFFF;" d="M282.167,56.592c-1.872-10.4-10.128-18.912-20.512-21.056c-17.152-3.568-32.288,9.488-32.288,26.064
		c0,8.784,4.256,16.624,10.928,21.424v7.184c0,2.608,2.08,4.736,4.688,4.736h22.064c2.608,0,4.688-2.128,4.688-4.736v-7.2
		C279.607,77.312,284.151,67.344,282.167,56.592z M248.103,89.376c0,0.96-0.8,1.76-1.76,1.76c-0.96,0-1.696-0.8-1.696-1.76v-5.2
		c0-0.96,0.736-1.744,1.696-1.744s1.76,0.784,1.76,1.744V89.376z M249.015,67.216c-3.504,1.04-9.696-1.84-10.272-5.312
		c-0.56-3.456,1.792-7.2,5.296-8.288c3.504-1.04,6.816,0.848,7.392,4.304C251.943,61.44,252.519,66.128,249.015,67.216z
		 M254.519,89.376c0,0.96-0.8,1.76-1.744,1.76c-0.96,0-1.696-0.8-1.696-1.76v-5.2c0-0.96,0.736-1.744,1.696-1.744
		s1.744,0.784,1.744,1.744V89.376z M260.935,89.376c0,0.96-0.784,1.76-1.76,1.76s-1.696-0.8-1.696-1.76v-5.2
		c0-0.96,0.736-1.744,1.696-1.744s1.76,0.784,1.76,1.744V89.376z M267.335,89.376c0,0.96-0.784,1.76-1.76,1.76
		c-0.96,0-1.696-0.8-1.696-1.76v-5.2c0-0.96,0.736-1.744,1.696-1.744c0.96,0,1.76,0.784,1.76,1.744V89.376z M262.999,67.216
		c-3.504-1.088-2.976-5.776-2.464-9.28c0.56-3.456,3.888-5.344,7.392-4.304c3.504,1.088,5.872,4.832,5.344,8.288
		C272.695,65.376,266.503,68.256,262.999,67.216z"/>
</g>
<g>
</g>
<g>
</g>
<g>
</g>
<g>
</g>
<g>
</g>
<g>
</g>
<g>
</g>
<g>
</g>
<g>
</g>
<g>
</g>
<g>
</g>
<g>
</g>
<g>
</g>
<g>
</g>
<g>
</g>
</svg>
