<?xml version="1.0" encoding="iso-8859-1"?>
<!-- Generator: Adobe Illustrator 19.0.0, SVG Export Plug-In . SVG Version: 6.00 Build 0)  -->
<svg version="1.1" id="Capa_1" xmlns="http://www.w3.org/2000/svg" xmlns:xlink="http://www.w3.org/1999/xlink" x="0px" y="0px"
	 viewBox="0 0 512 512" style="enable-background:new 0 0 512 512;" xml:space="preserve">
<circle style="fill:#FFD93B;" cx="256" cy="256" r="256"/>
<path style="fill:#F4C534;" d="M512,256c0,141.44-114.64,256-256,256c-80.48,0-152.32-37.12-199.28-95.28
	c43.92,35.52,99.84,56.72,160.72,56.72c141.36,0,256-114.56,256-256c0-60.88-21.2-116.8-56.72-160.72
	C474.8,103.68,512,175.52,512,256z"/>
<g>
	<path style="fill:#3E4347;" d="M224.16,250.576c0,4.72-0.304,9.328-1.056,13.84c-13.584-10.688-36.496-16.144-62.608-16.144
		c-26.096,0-49.024,5.456-62.608,16.144c-0.752-4.512-1.056-9.12-1.056-13.84c0-44.896,28.512-81.28,63.664-81.28
		C195.648,169.296,224.16,205.696,224.16,250.576z"/>
	<path style="fill:#3E4347;" d="M415.152,250.576c0,4.72-0.304,9.328-1.056,13.84c-13.568-10.688-36.496-16.144-62.608-16.144
		c-26.096,0-49.024,5.456-62.608,16.144c-0.752-4.512-1.056-9.12-1.056-13.84c0-44.896,28.512-81.28,63.664-81.28
		S415.152,205.696,415.152,250.576z"/>
	<path style="fill:#3E4347;" d="M255.936,429.36c-102.4,0.16-153.76-82.56-140.8-87.84c9.44-7.36,64,34.24,140.8,32.16
		c76.8,2.08,131.52-39.52,140.96-32.16C409.696,346.784,358.336,429.52,255.936,429.36z"/>
</g>
<g>
	<path style="fill:#F4C534;" d="M432.768,342.96c-3.168-9.504-3.984-18.72-11.84-25.6c-4.768-6.224-17.792-10.544-25.6-11.84
		c7.888-2.736,21.104-0.432,29.6,7.84C432.896,321.328,434.608,331.92,432.768,342.96z"/>
	<path style="fill:#F4C534;" d="M91.008,317.36c-6.096,5.328-10.384,17.824-11.68,25.6c-2.224-13.328,1.104-23.008,7.68-29.6
		c8.496-8.272,21.712-10.576,29.6-7.84C108.432,306.864,96.048,311.232,91.008,317.36z"/>
	<path style="fill:#F4C534;" d="M121.888,320.56c-5.792,1.6-15.536,4.832-19.2,9.6c-4.992,4.16-7.472,12.976-9.44,19.2
		c-2.336-6.976-0.624-16.976,5.6-23.2C105.216,319.792,115.488,318.064,121.888,320.56z"/>
	<path style="fill:#F4C534;" d="M413.248,326.16c5.936,5.936,8,15.52,5.44,23.2c-1.568-5.952-4.688-15.248-9.44-19.2
		c-3.712-4.832-13.28-8.048-19.2-9.6C396.48,318.048,406.656,319.792,413.248,326.16z"/>
</g>
<g>
	<path style="fill:#E24B4B;" d="M324.608,123.152c0,28.256-45.808,52.048-45.808,52.048s-45.744-23.792-45.744-52.048
		c0-13.232,10.688-23.92,23.92-23.92c9.728,0,18.144,5.824,21.824,14.256c3.68-8.416,12.096-14.256,21.888-14.256
		C313.872,99.232,324.608,109.92,324.608,123.152z"/>
	<path style="fill:#E24B4B;" d="M494.576,70.08c-13.92,41.088-92.24,53.104-92.24,53.104s-54.784-57.152-40.864-98.24
		C367.984,5.712,388.8-4.56,408.032,1.968c14.144,4.8,23.52,17.424,24.72,31.472c9.488-10.432,24.608-14.752,38.832-9.936
		C490.736,30,501.104,50.848,494.576,70.08z"/>
</g>
<g>
</g>
<g>
</g>
<g>
</g>
<g>
</g>
<g>
</g>
<g>
</g>
<g>
</g>
<g>
</g>
<g>
</g>
<g>
</g>
<g>
</g>
<g>
</g>
<g>
</g>
<g>
</g>
<g>
</g>
</svg>
