<?xml version="1.0" encoding="iso-8859-1"?>
<!-- Generator: Adobe Illustrator 19.0.0, SVG Export Plug-In . SVG Version: 6.00 Build 0)  -->
<svg version="1.1" id="Capa_1" xmlns="http://www.w3.org/2000/svg" xmlns:xlink="http://www.w3.org/1999/xlink" x="0px" y="0px"
	 viewBox="0 0 512.003 512.003" style="enable-background:new 0 0 512.003 512.003;" xml:space="preserve">
<circle style="fill:#FFD93B;" cx="256.002" cy="242.56" r="242.56"/>
<path style="fill:#F4C534;" d="M497.442,242.592c0,134.032-108.64,242.592-242.592,242.592c-76.272,0-144.352-35.168-188.848-90.288
	c41.616,33.664,94.608,53.744,152.304,53.76c133.952,0,242.592-108.56,242.592-242.592c0-57.696-20.096-110.688-53.744-152.304
	C462.194,98.256,497.442,166.336,497.442,242.592z"/>
<path style="fill:#3E4347;" d="M401.378,322.672c-11.52,47.456-72.32,83.696-145.712,83.696c-73.536,0-134.336-36.24-145.856-83.696
	c-1.216-5.616,4.544-10.16,9.712-7.888c91.888,38.512,182.56,38.064,272.16,0C396.978,312.512,402.738,317.056,401.378,322.672z"/>
<path style="fill:#E24B4B;" d="M331.81,390.032C312.274,467.088,276.658,511.776,253.634,512
	c-22.928,0.448-58.624-44.096-78.448-123.168c-2.064-24.848,26.08-33.888,49.568-25.568c19.024,5.696,38.992,6,57.776,0.784
	C305.97,356.608,333.842,365.904,331.81,390.032z"/>
<ellipse style="fill:#FFFFFF;" cx="256.002" cy="182.896" rx="121.776" ry="121.712"/>
<ellipse style="fill:#3E4347;" cx="256.002" cy="182.912" rx="71.584" ry="71.648"/>
<ellipse transform="matrix(-0.7071 -0.7071 0.7071 -0.7071 379.7105 467.3099)" style="fill:#FFFFFF;" cx="286.638" cy="155.014" rx="19.376" ry="13.056"/>
<g>
</g>
<g>
</g>
<g>
</g>
<g>
</g>
<g>
</g>
<g>
</g>
<g>
</g>
<g>
</g>
<g>
</g>
<g>
</g>
<g>
</g>
<g>
</g>
<g>
</g>
<g>
</g>
<g>
</g>
</svg>
