<?xml version="1.0" encoding="iso-8859-1"?>
<!-- Generator: Adobe Illustrator 19.0.0, SVG Export Plug-In . SVG Version: 6.00 Build 0)  -->
<svg version="1.1" id="Capa_1" xmlns="http://www.w3.org/2000/svg" xmlns:xlink="http://www.w3.org/1999/xlink" x="0px" y="0px"
	 viewBox="0 0 512.004 512.004" style="enable-background:new 0 0 512.004 512.004;" xml:space="preserve">
<circle style="fill:#FFD93B;" cx="256.002" cy="234.544" r="234.544"/>
<path style="fill:#F4C534;" d="M489.426,234.544c0,129.584-105.024,234.544-234.544,234.544c-73.728,0-139.552-34-182.576-87.296
	c40.24,32.544,91.472,51.968,147.248,51.968c129.504,0,234.544-104.96,234.544-234.544c0-55.776-19.424-107.008-51.968-147.248
	C455.346,94.992,489.426,160.8,489.426,234.544z"/>
<ellipse style="fill:#FFFFFF;" cx="360.722" cy="199.024" rx="73.92" ry="73.872"/>
<ellipse style="fill:#3E4347;" cx="360.706" cy="199.04" rx="40.288" ry="40.336"/>
<g>
	
		<ellipse transform="matrix(-0.707 -0.7072 0.7072 -0.707 515.4502 580.3441)" style="fill:#FFFFFF;" cx="377.942" cy="183.397" rx="10.896" ry="7.344"/>
	<ellipse style="fill:#FFFFFF;" cx="151.314" cy="199.024" rx="73.92" ry="73.872"/>
</g>
<ellipse style="fill:#3E4347;" cx="151.298" cy="199.04" rx="40.288" ry="40.336"/>
<ellipse transform="matrix(-0.707 -0.7072 0.7072 -0.707 157.9661 432.0867)" style="fill:#FFFFFF;" cx="168.489" cy="183.321" rx="10.896" ry="7.344"/>
<path style="fill:#3E4347;" d="M397.282,329.232c-28.624,53.728-81.104,89.744-141.328,89.744s-112.704-36-141.168-89.744
	c-5.76-10.608,5.104-22.656,15.136-17.008c84.08,47.712,168.144,47.712,252.224,0C392.018,306.576,402.882,318.64,397.282,329.232z"
	/>
<path style="fill:#E24B4B;" d="M230.914,369.808c-19.952-6.528-43.84,4.128-42.656,26.912c11.424,68,40.784,115.76,67.792,115.28
	c27.04-0.432,56.304-48.064,67.68-114.464c1.232-22.24-22.576-33.008-42.56-27.152C264.706,374.56,247.394,374.464,230.914,369.808z
	"/>
<g>
</g>
<g>
</g>
<g>
</g>
<g>
</g>
<g>
</g>
<g>
</g>
<g>
</g>
<g>
</g>
<g>
</g>
<g>
</g>
<g>
</g>
<g>
</g>
<g>
</g>
<g>
</g>
<g>
</g>
</svg>
