<?xml version="1.0" encoding="iso-8859-1"?>
<!-- Generator: Adobe Illustrator 19.0.0, SVG Export Plug-In . SVG Version: 6.00 Build 0)  -->
<svg version="1.1" id="Capa_1" xmlns="http://www.w3.org/2000/svg" xmlns:xlink="http://www.w3.org/1999/xlink" x="0px" y="0px"
	 viewBox="0 0 512 512" style="enable-background:new 0 0 512 512;" xml:space="preserve">
<circle style="fill:#FFD93B;" cx="256" cy="256" r="256"/>
<path style="fill:#F4C534;" d="M510.784,256c0,141.44-114.64,256-256,256c-80.48,0-152.32-37.12-199.28-95.28
	c43.92,35.52,99.84,56.72,160.72,56.72c141.36,0,256-114.56,256-256c0-60.88-21.2-116.8-56.72-160.72
	C473.584,103.68,510.784,175.52,510.784,256z"/>
<path style="fill:#3E4347;" d="M256.272,424.416c-24.48,0-44.416-17.92-44.56-40.064c-0.144-22.144,19.552-40.128,44.016-40.128
	c24.48,0,44.416,18,44.56,40.144C300.448,406.496,280.752,424.416,256.272,424.416z"/>
<ellipse style="fill:#FFFFFF;" cx="365.024" cy="238.096" rx="76.944" ry="76.896"/>
<ellipse style="fill:#3E4347;" cx="364.992" cy="238.112" rx="41.952" ry="41.984"/>
<g>
	
		<ellipse transform="matrix(-0.7071 -0.7072 0.7072 -0.7071 496.9292 649.3773)" style="fill:#FFFFFF;" cx="382.968" cy="221.761" rx="11.345" ry="7.648"/>
	<ellipse style="fill:#FFFFFF;" cx="147.024" cy="238.096" rx="76.944" ry="76.896"/>
</g>
<ellipse style="fill:#3E4347;" cx="146.992" cy="238.112" rx="41.952" ry="41.984"/>
<ellipse transform="matrix(-0.7071 -0.7072 0.7072 -0.7071 124.799 495.2055)" style="fill:#FFFFFF;" cx="164.97" cy="221.753" rx="11.345" ry="7.648"/>
<g>
</g>
<g>
</g>
<g>
</g>
<g>
</g>
<g>
</g>
<g>
</g>
<g>
</g>
<g>
</g>
<g>
</g>
<g>
</g>
<g>
</g>
<g>
</g>
<g>
</g>
<g>
</g>
<g>
</g>
</svg>
