<?xml version="1.0" encoding="iso-8859-1"?>
<!-- Generator: Adobe Illustrator 19.0.0, SVG Export Plug-In . SVG Version: 6.00 Build 0)  -->
<svg version="1.1" id="Capa_1" xmlns="http://www.w3.org/2000/svg" xmlns:xlink="http://www.w3.org/1999/xlink" x="0px" y="0px"
	 viewBox="0 0 512 512" style="enable-background:new 0 0 512 512;" xml:space="preserve">
<circle style="fill:#FFD93B;" cx="256" cy="256" r="256"/>
<path style="fill:#F4C534;" d="M510.784,256c0,141.44-114.64,256-256,256c-80.48,0-152.32-37.12-199.28-95.28
	c43.92,35.52,99.84,56.72,160.72,56.72c141.36,0,256-114.56,256-256c0-60.88-21.2-116.8-56.72-160.72
	C473.584,103.68,510.784,175.52,510.784,256z"/>
<path style="fill:#3E4347;" d="M256.272,438.224c-24.48,0-44.416-17.92-44.56-40.064c-0.144-22.144,19.552-40.128,44.016-40.128
	c24.48,0,44.416,18,44.56,40.144C300.448,420.304,280.752,438.224,256.272,438.224z"/>
<ellipse style="fill:#FFFFFF;" cx="160.32" cy="192.96" rx="128.48" ry="128.48"/>
<ellipse style="fill:#3E4347;" cx="160.32" cy="192.96" rx="75.536" ry="75.616"/>
<g>
	
		<ellipse transform="matrix(-0.707 -0.7072 0.7072 -0.707 213.1388 415.5069)" style="fill:#FFFFFF;" cx="192.641" cy="163.602" rx="20.448" ry="13.776"/>
	<ellipse style="fill:#FFFFFF;" cx="365.12" cy="192.96" rx="98.8" ry="98.736"/>
</g>
<ellipse style="fill:#3E4347;" cx="365.088" cy="192.96" rx="58.08" ry="58.128"/>
<ellipse transform="matrix(-0.707 -0.7072 0.7072 -0.707 545.1354 566.6467)" style="fill:#FFFFFF;" cx="389.948" cy="170.4" rx="15.712" ry="10.592"/>
<g>
</g>
<g>
</g>
<g>
</g>
<g>
</g>
<g>
</g>
<g>
</g>
<g>
</g>
<g>
</g>
<g>
</g>
<g>
</g>
<g>
</g>
<g>
</g>
<g>
</g>
<g>
</g>
<g>
</g>
</svg>
