<?xml version="1.0" encoding="iso-8859-1"?>
<!-- Generator: Adobe Illustrator 19.0.0, SVG Export Plug-In . SVG Version: 6.00 Build 0)  -->
<svg version="1.1" id="Capa_1" xmlns="http://www.w3.org/2000/svg" xmlns:xlink="http://www.w3.org/1999/xlink" x="0px" y="0px"
	 viewBox="0 0 512 512" style="enable-background:new 0 0 512 512;" xml:space="preserve">
<circle style="fill:#FFD93B;" cx="256" cy="256" r="256"/>
<path style="fill:#F4C534;" d="M510.784,256c0,141.44-114.64,256-256,256c-80.48,0-152.32-37.12-199.28-95.28
	c43.92,35.52,99.84,56.72,160.72,56.72c141.36,0,256-114.56,256-256c0-60.88-21.2-116.8-56.72-160.72
	C473.584,103.68,510.784,175.52,510.784,256z"/>
<ellipse style="fill:#FFFFFF;" cx="256" cy="180.8" rx="114.416" ry="114.352"/>
<g>
	<ellipse style="fill:#3E4347;" cx="256" cy="180.816" rx="67.264" ry="67.312"/>
	<path style="fill:#3E4347;" d="M256.272,438.224c-24.48,0-44.416-17.92-44.56-40.064c-0.144-22.144,19.552-40.128,44.016-40.128
		c24.48,0,44.416,18,44.56,40.144C300.448,420.304,280.752,438.224,256.272,438.224z"/>
</g>
<ellipse transform="matrix(-0.707 -0.7072 0.7072 -0.707 376.7849 465.3416)" style="fill:#FFFFFF;" cx="284.787" cy="154.62" rx="18.192" ry="12.272"/>
<g>
</g>
<g>
</g>
<g>
</g>
<g>
</g>
<g>
</g>
<g>
</g>
<g>
</g>
<g>
</g>
<g>
</g>
<g>
</g>
<g>
</g>
<g>
</g>
<g>
</g>
<g>
</g>
<g>
</g>
</svg>
