<?xml version="1.0" encoding="iso-8859-1"?>
<!-- Generator: Adobe Illustrator 19.0.0, SVG Export Plug-In . SVG Version: 6.00 Build 0)  -->
<svg version="1.1" id="Capa_1" xmlns="http://www.w3.org/2000/svg" xmlns:xlink="http://www.w3.org/1999/xlink" x="0px" y="0px"
	 viewBox="0 0 512 512" style="enable-background:new 0 0 512 512;" xml:space="preserve">
<circle style="fill:#FFD93B;" cx="256" cy="256" r="256"/>
<path style="fill:#F4C534;" d="M510.784,256c0,141.44-114.64,256-256,256c-80.48,0-152.32-37.12-199.28-95.28
	c43.92,35.52,99.84,56.72,160.72,56.72c141.36,0,256-114.56,256-256c0-60.88-21.2-116.8-56.72-160.72
	C473.584,103.68,510.784,175.52,510.784,256z"/>
<g>
	<path style="fill:#FFFFFF;" d="M235.408,208.688c0,43.808-35.424,79.376-79.376,79.376c-43.808,0-79.376-35.568-79.376-79.376
		c0-43.952,35.568-79.52,79.376-79.52C199.984,129.168,235.408,164.752,235.408,208.688z"/>
	<path style="fill:#FFFFFF;" d="M435.344,208.688c0,43.808-35.424,79.376-79.376,79.376c-43.792,0-79.376-35.568-79.376-79.376
		c0-43.952,35.584-79.52,79.376-79.52C399.92,129.168,435.344,164.752,435.344,208.688z"/>
</g>
<g>
	<path style="fill:#3E4347;" d="M485.232,196.624h-39.504c-5.92-44.336-43.888-78.656-89.76-78.656
		c-33.952,0-63.552,18.816-79.04,46.56c-4.208,7.536-12.16,11.92-20.784,11.872c-0.048,0-0.096,0-0.16,0c-0.08,0-0.144,0-0.224,0
		c-8.592,0.064-16.512-4.336-20.688-11.84c-15.488-27.76-45.088-46.592-79.04-46.592c-45.856,0-83.744,34.336-89.68,78.656H26.72v24
		h39.904c5.568,41.408,39.216,74.736,81.6,78.32c53.632,4.544,99.44-38.224,98.304-92.144c0.912-4.512,4.72-7.968,9.472-7.968
		c4.864,0,9.376,3.504,9.376,9.872c0,52.288,44.56,94.384,97.696,90.304c42.528-3.264,76.832-36.528,82.368-78.384h39.776v-24
		H485.232z M156.048,276.848c-37.584,0-68.176-30.592-68.176-68.16c0-37.664,30.576-68.304,68.176-68.304
		c37.584,0,68.16,30.64,68.16,68.304C224.192,246.272,193.616,276.848,156.048,276.848z M355.968,276.848
		c-37.584,0-68.176-30.592-68.176-68.16c0-37.664,30.576-68.304,68.176-68.304c37.584,0,68.16,30.64,68.16,68.304
		C424.128,246.272,393.552,276.848,355.968,276.848z"/>
	<path style="fill:#3E4347;" d="M366.32,208.656c0,16.688-13.44,30.432-30.32,30.432c-16.688,0-30.32-13.744-30.32-30.432
		c0-16.784,13.648-30.544,30.32-30.544C352.896,178.128,366.32,191.872,366.32,208.656z"/>
</g>
<ellipse transform="matrix(-0.7071 -0.7071 0.7071 -0.7071 451.514 583.1774)" style="fill:#FFFFFF;" cx="346.537" cy="198.077" rx="10" ry="6.912"/>
<path style="fill:#3E4347;" d="M206.32,208.656c0,16.688-13.44,30.432-30.32,30.432c-16.688,0-30.32-13.744-30.32-30.432
	c0-16.784,13.648-30.544,30.32-30.544C192.896,178.128,206.32,191.872,206.32,208.656z"/>
<ellipse transform="matrix(-0.7071 -0.7071 0.7071 -0.7071 178.3769 470.0403)" style="fill:#FFFFFF;" cx="186.537" cy="198.077" rx="10" ry="6.912"/>
<g>
	<path style="fill:#3E4347;" d="M322.464,76.8c0,0,60-15.504,104,34C426.464,110.8,396.464,10.8,322.464,76.8z"/>
	<path style="fill:#3E4347;" d="M189.536,76.8c0,0-60-15.504-104,34C85.536,110.8,115.536,10.8,189.536,76.8z"/>
	<path style="fill:#3E4347;" d="M338.176,389.472c0,40.832-38.528,73.904-86.128,73.904c-47.728,0-86.272-33.072-86.272-73.904
		s38.528-73.904,86.272-73.904C299.648,315.568,338.176,348.64,338.176,389.472z"/>
</g>
<path style="fill:#FFFFFF;" d="M186.832,341.552c18.864,1.52,41.328,1.744,65.12,1.808c23.696-0.224,46.096-0.56,64.896-2.096
	c-15.792-15.616-38.8-25.696-64.816-25.696C225.808,315.568,202.64,325.776,186.832,341.552z"/>
<g>
</g>
<g>
</g>
<g>
</g>
<g>
</g>
<g>
</g>
<g>
</g>
<g>
</g>
<g>
</g>
<g>
</g>
<g>
</g>
<g>
</g>
<g>
</g>
<g>
</g>
<g>
</g>
<g>
</g>
</svg>
