<?xml version="1.0" encoding="iso-8859-1"?>
<!-- Generator: Adobe Illustrator 19.0.0, SVG Export Plug-In . SVG Version: 6.00 Build 0)  -->
<svg version="1.1" id="Capa_1" xmlns="http://www.w3.org/2000/svg" xmlns:xlink="http://www.w3.org/1999/xlink" x="0px" y="0px"
	 viewBox="0 0 512 512" style="enable-background:new 0 0 512 512;" xml:space="preserve">
<circle style="fill:#FFD93B;" cx="256" cy="256" r="256"/>
<path style="fill:#F4C534;" d="M510.784,256c0,141.44-114.64,256-256,256c-80.48,0-152.32-37.12-199.28-95.28
	c43.92,35.52,99.84,56.72,160.72,56.72c141.36,0,256-114.56,256-256c0-60.88-21.2-116.8-56.72-160.72
	C473.584,103.68,510.784,175.52,510.784,256z"/>
<g>
	<path style="fill:#FFFFFF;" d="M235.408,211.888c0,43.808-35.424,79.376-79.376,79.376c-43.792,0-79.376-35.568-79.376-79.376
		c0-43.952,35.584-79.52,79.376-79.52C199.984,132.368,235.408,167.952,235.408,211.888z"/>
	<path style="fill:#FFFFFF;" d="M435.344,211.888c0,43.808-35.424,79.376-79.376,79.376c-43.792,0-79.376-35.568-79.376-79.376
		c0-43.952,35.584-79.52,79.376-79.52C399.92,132.368,435.344,167.952,435.344,211.888z"/>
</g>
<g>
	<path style="fill:#3E4347;" d="M485.232,199.824h-39.504c-5.92-44.336-43.888-78.64-89.744-78.64
		c-33.952,0-63.552,18.816-79.04,46.56c-4.208,7.536-12.16,11.92-20.784,11.872c-0.048,0-0.096,0-0.16,0c-0.08,0-0.144,0-0.224,0
		c-8.592,0.064-16.512-4.336-20.688-11.84c-15.488-27.76-45.088-46.592-79.04-46.592c-45.856,0-83.744,34.336-89.68,78.64H26.72v24
		h39.904c5.568,41.408,39.216,74.736,81.6,78.32c53.632,4.544,99.44-38.224,98.288-92.144c0.912-4.512,4.72-7.968,9.472-7.968
		c4.864,0,9.376,3.504,9.376,9.872c0,52.288,44.56,94.384,97.696,90.304c42.528-3.264,76.832-36.528,82.368-78.384H485.2v-24
		H485.232z M156.048,280.048c-37.584,0-68.176-30.592-68.176-68.16c0-37.664,30.576-68.304,68.176-68.304
		c37.584,0,68.16,30.64,68.16,68.304C224.192,249.472,193.632,280.048,156.048,280.048z M355.984,280.048
		c-37.584,0-68.176-30.592-68.176-68.16c0-37.664,30.576-68.304,68.176-68.304c37.584,0,68.16,30.64,68.16,68.304
		C424.128,249.472,393.552,280.048,355.984,280.048z"/>
	<path style="fill:#3E4347;" d="M351.6,419.664c-5.44,2.912-12.656,1.072-15.856-5.104c-15.456-29.952-46.08-48.64-79.808-48.64
		s-64.224,18.672-79.808,48.64c-2.96,5.776-10.08,8.064-15.856,5.104c-5.648-2.96-7.92-10.08-4.976-15.856
		c19.488-37.888,58.176-61.408,100.64-61.408c42.592,0,81.152,23.52,100.768,61.408C359.664,409.6,357.376,416.704,351.6,419.664z"
		/>
	<path style="fill:#3E4347;" d="M366.32,211.856c0,16.688-13.424,30.432-30.32,30.432c-16.688,0-30.32-13.744-30.32-30.432
		c0-16.784,13.632-30.544,30.32-30.544C352.896,181.328,366.32,195.072,366.32,211.856z"/>
</g>
<ellipse transform="matrix(-0.7071 -0.7071 0.7071 -0.7071 449.2533 588.5905)" style="fill:#FFFFFF;" cx="346.528" cy="201.252" rx="10" ry="6.912"/>
<path style="fill:#3E4347;" d="M206.32,211.856c0,16.688-13.424,30.432-30.32,30.432c-16.688,0-30.32-13.744-30.32-30.432
	c0-16.784,13.632-30.544,30.32-30.544C192.896,181.328,206.32,195.072,206.32,211.856z"/>
<ellipse transform="matrix(-0.7071 -0.7071 0.7071 -0.7071 176.1162 475.4534)" style="fill:#FFFFFF;" cx="186.528" cy="201.252" rx="10" ry="6.912"/>
<g>
</g>
<g>
</g>
<g>
</g>
<g>
</g>
<g>
</g>
<g>
</g>
<g>
</g>
<g>
</g>
<g>
</g>
<g>
</g>
<g>
</g>
<g>
</g>
<g>
</g>
<g>
</g>
<g>
</g>
</svg>
