<?xml version="1.0" encoding="iso-8859-1"?>
<!-- Generator: Adobe Illustrator 19.0.0, SVG Export Plug-In . SVG Version: 6.00 Build 0)  -->
<svg version="1.1" id="Capa_1" xmlns="http://www.w3.org/2000/svg" xmlns:xlink="http://www.w3.org/1999/xlink" x="0px" y="0px"
	 viewBox="0 0 512 512" style="enable-background:new 0 0 512 512;" xml:space="preserve">
<circle style="fill:#FFD93B;" cx="256" cy="256" r="256"/>
<path style="fill:#F4C534;" d="M510.784,256c0,141.44-114.64,256-256,256c-80.48,0-152.32-37.12-199.28-95.28
	c43.92,35.52,99.84,56.72,160.72,56.72c141.36,0,256-114.56,256-256c0-60.88-21.2-116.8-56.72-160.72
	C473.584,103.68,510.784,175.52,510.784,256z"/>
<g>
	<path style="fill:#FFFFFF;" d="M235.408,211.888c0,43.808-35.424,79.376-79.376,79.376c-43.808,0-79.376-35.568-79.376-79.376
		c0-43.952,35.584-79.52,79.376-79.52C199.984,132.368,235.408,167.952,235.408,211.888z"/>
	<path style="fill:#FFFFFF;" d="M435.344,211.888c0,43.808-35.424,79.376-79.376,79.376c-43.792,0-79.376-35.568-79.376-79.376
		c0-43.952,35.584-79.52,79.376-79.52C399.92,132.368,435.344,167.952,435.344,211.888z"/>
</g>
<g>
	<path style="fill:#3E4347;" d="M202.24,211.888c0,25.44-20.48,46.4-46.24,46.4c-25.44,0-46.08-20.96-46.08-46.4
		c0-25.6,20.64-46.56,46.08-46.56C181.76,165.328,202.24,186.288,202.24,211.888z"/>
	<path style="fill:#3E4347;" d="M402.24,211.888c0,25.44-20.48,46.4-46.24,46.4c-25.44,0-46.24-20.96-46.24-46.4
		c0-25.6,20.8-46.56,46.24-46.56C381.76,165.328,402.24,186.288,402.24,211.888z"/>
</g>
<ellipse transform="matrix(-0.7071 -0.7071 0.7071 -0.7071 496.7026 597.3266)" style="fill:#FFFFFF;" cx="372.062" cy="195.793" rx="15.248" ry="10.544"/>
<path style="fill:#3E4347;" d="M485.232,199.824h-39.504c-5.92-44.336-43.888-78.64-89.76-78.64
	c-33.952,0-63.552,18.816-79.04,46.56c-4.208,7.536-12.16,11.92-20.784,11.872c-0.048,0-0.096,0-0.16,0c-0.08,0-0.144,0-0.224,0
	c-8.592,0.064-16.512-4.336-20.688-11.84c-15.488-27.76-45.088-46.592-79.04-46.592c-45.856,0-83.744,34.336-89.68,78.64H26.72v24
	h39.904c5.568,41.408,39.216,74.736,81.6,78.32c53.632,4.544,99.44-38.224,98.304-92.144c0.912-4.512,4.72-7.968,9.472-7.968
	c4.864,0,9.376,3.504,9.376,9.872c0,52.288,44.56,94.384,97.696,90.304c42.528-3.264,76.816-36.528,82.368-78.384h39.776v-24
	H485.232z M156.048,280.048c-37.584,0-68.176-30.592-68.176-68.16c0-37.664,30.576-68.304,68.176-68.304
	c37.584,0,68.16,30.64,68.16,68.304C224.192,249.472,193.616,280.048,156.048,280.048z M355.968,280.048
	c-37.584,0-68.176-30.592-68.176-68.16c0-37.664,30.576-68.304,68.176-68.304c37.584,0,68.16,30.64,68.16,68.304
	C424.128,249.472,393.552,280.048,355.968,280.048z"/>
<ellipse transform="matrix(-0.7071 -0.7071 0.7071 -0.7071 155.4388 455.84)" style="fill:#FFFFFF;" cx="172.127" cy="195.728" rx="15.248" ry="10.544"/>
<g>
	<path style="fill:#3E4347;" d="M410.272,88.064c-33.76,3.904-97.04,14.672-118.224-12.064c-9.28-11.648-6.416-21.28-2.288-33.152
		l4.272,6.112C314.24,78.272,385.008,84.88,410.272,88.064z"/>
	<path style="fill:#3E4347;" d="M219.952,76c-21.168,26.736-84.416,15.984-118.224,12.064c44.208-5.584,96.128-10.4,120.512-45.216
		C226.368,54.72,229.248,64.352,219.952,76z"/>
	<path style="fill:#3E4347;" d="M356.608,446.176c-67.072-23.936-133.936-23.936-201.008,0
		c-11.184,4.016-23.024-6.032-20.128-17.664C151.12,366.352,199.2,320.96,255.984,320.96c57.008,0,105.088,45.392,120.512,107.552
		C379.424,440.128,367.792,450.192,356.608,446.176z"/>
</g>
<path style="fill:#E24B4B;" d="M326.528,437.216c0.624-3.024,0.976-6.16,0.976-9.376c0-25.376-20.592-45.952-45.952-45.952
	c-11.952,0-22.848,4.512-30.944,12.08c-6.24-3.312-13.408-5.184-21.12-5.184c-25.36,0-45.824,20.576-45.824,45.952
	c0,0.976,0.224,1.888,0.288,2.848C231.504,425.408,278.976,425.312,326.528,437.216z"/>
<g>
</g>
<g>
</g>
<g>
</g>
<g>
</g>
<g>
</g>
<g>
</g>
<g>
</g>
<g>
</g>
<g>
</g>
<g>
</g>
<g>
</g>
<g>
</g>
<g>
</g>
<g>
</g>
<g>
</g>
</svg>
