<?xml version="1.0" encoding="iso-8859-1"?>
<!-- Generator: Adobe Illustrator 19.0.0, SVG Export Plug-In . SVG Version: 6.00 Build 0)  -->
<svg version="1.1" id="Capa_1" xmlns="http://www.w3.org/2000/svg" xmlns:xlink="http://www.w3.org/1999/xlink" x="0px" y="0px"
	 viewBox="0 0 511.994 511.994" style="enable-background:new 0 0 511.994 511.994;" xml:space="preserve">
<circle style="fill:#FFD93B;" cx="255.997" cy="233.936" r="233.936"/>
<path style="fill:#F4C534;" d="M489.933,233.936c0,129.248-104.768,233.936-233.936,233.936c-73.552,0-139.2-33.92-182.112-87.072
	c40.128,32.464,91.232,51.84,146.864,51.84c129.184,0,233.936-104.688,233.936-233.936c0-55.632-19.376-106.736-51.84-146.864
	C455.949,94.752,489.933,160.4,489.933,233.936z"/>
<path style="fill:#3E4347;" d="M372.605,395.296c-0.992,7.456-8.944,11.808-15.904,8.944
	c-65.712-26.336-133.024-24.848-201.712,0.624c-6.96,2.608-14.656-1.728-15.52-9.072c-7.456-58.864,22.24-130.16,116.496-130.16
	C350.749,265.616,379.677,337.424,372.605,395.296z"/>
<path style="fill:#E24B4B;" d="M306.669,379.952c0,2.912-0.448,6.144-1.168,9.36c-27.776-1.456-33.632,10.224-35.824,35.52
	c-0.592,5.12-1.024,10.672-2.048,15.936c-6,28.8-28.08,54.24-58.048,65.648c-39.04,14.912-76.032-1.168-77.056-35.232
	c-0.88-20.896,13.312-31.584,32.608-38.896c12.72-4.688,24.56-9.072,33.344-37.584c7.024-23.104,16.816-55.552,52.192-55.552
	c6.576,0,11.104,1.168,17.392,9.216c7.456-2.912,16.96-2.048,25.152,3.664C302.141,358.16,306.813,369.12,306.669,379.952z"/>
<path style="fill:#F4C534;" d="M281.373,90c-23.44,30.896-5.136,104.976,25.872,128.496c30.896,23.44,75.024,17.392,98.448-13.504
	c23.44-30.896,17.376-75.024-13.504-98.464C361.165,83.008,304.797,59.104,281.373,90z"/>
<path style="fill:#FFFFFF;" d="M290.717,100.496c17.488-27.44,63.184-8.496,88.608,10.784c25.408,19.28,31.84,57.152,14.352,84.608
	c-17.488,27.44-52.256,34.064-77.664,14.784C290.605,191.376,273.229,127.936,290.717,100.496z"/>
<path style="fill:#3E4347;" d="M366.269,154.224c0,18.32-14.848,33.184-33.184,33.184c-18.192,0-33.04-14.864-33.04-33.184
	c0-18.336,14.848-33.184,33.04-33.184C351.405,121.04,366.269,135.888,366.269,154.224z"/>
<path style="fill:#5A5F63;" d="M353.773,149.504c-3.056,3.056-9.168,2.08-13.472-2.368c-4.448-4.304-5.28-10.416-2.224-13.328
	c2.912-3.056,9.024-2.208,13.328,2.224C355.709,140.336,356.813,146.448,353.773,149.504z"/>
<path style="fill:#F4C534;" d="M230.621,90c23.44,30.896,5.136,104.976-25.872,128.496c-30.896,23.44-75.008,17.392-98.448-13.504
	s-17.376-75.024,13.504-98.464C150.829,83.008,207.181,59.104,230.621,90z"/>
<path style="fill:#FFFFFF;" d="M221.277,100.496c-17.488-27.44-63.2-8.496-88.608,10.784s-31.84,57.152-14.368,84.608
	c17.488,27.44,52.256,34.064,77.664,14.784C221.389,191.376,238.765,127.936,221.277,100.496z"/>
<path style="fill:#3E4347;" d="M214.109,154.224c0,18.32-14.848,33.184-33.184,33.184c-18.192,0-33.04-14.864-33.04-33.184
	c0-18.336,14.848-33.184,33.04-33.184C199.261,121.04,214.109,135.888,214.109,154.224z"/>
<path style="fill:#5A5F63;" d="M201.613,149.504c-3.056,3.056-9.168,2.08-13.472-2.368c-4.448-4.304-5.28-10.416-2.224-13.328
	c2.912-3.056,9.024-2.208,13.328,2.224C203.565,140.336,204.669,146.448,201.613,149.504z"/>
<g>
</g>
<g>
</g>
<g>
</g>
<g>
</g>
<g>
</g>
<g>
</g>
<g>
</g>
<g>
</g>
<g>
</g>
<g>
</g>
<g>
</g>
<g>
</g>
<g>
</g>
<g>
</g>
<g>
</g>
</svg>
