<?xml version="1.0" encoding="iso-8859-1"?>
<!-- Generator: Adobe Illustrator 19.0.0, SVG Export Plug-In . SVG Version: 6.00 Build 0)  -->
<svg version="1.1" id="Capa_1" xmlns="http://www.w3.org/2000/svg" xmlns:xlink="http://www.w3.org/1999/xlink" x="0px" y="0px"
	 viewBox="0 0 512 512" style="enable-background:new 0 0 512 512;" xml:space="preserve">
<circle style="fill:#FFD93B;" cx="256" cy="256" r="256"/>
<path style="fill:#F4C534;" d="M512,256c0,141.44-114.64,256-256,256c-80.48,0-152.32-37.12-199.28-95.28
	c43.92,35.52,99.84,56.72,160.72,56.72c141.36,0,256-114.56,256-256c0-60.88-21.2-116.8-56.72-160.72
	C474.8,103.68,512,175.52,512,256z"/>
<path style="fill:#3E4347;" d="M185.472,334.496c-2.656,6.912-4.208,14.304-4.208,22c0,37.808,33.424,68.192,75.024,68.192
	c40.256,0,72.72-28.832,74.448-65.232C283.168,377.328,226.384,365.44,185.472,334.496z"/>
<ellipse style="fill:#F4C534;" cx="157.648" cy="214.288" rx="86.8" ry="73.872"/>
<path style="fill:#FFFFFF;" d="M232.224,214.288c-2.848,34.24-38.544,62-79.744,62s-72.256-27.76-69.408-62
	c2.848-34.256,38.544-62,79.744-62S235.088,180.032,232.224,214.288z"/>
<path style="fill:#3E4347;" d="M222.352,204.672c0,19.408-15.856,35.264-35.408,35.264c-19.408,0-35.264-15.856-35.264-35.264
	c0-19.552,15.856-35.408,35.264-35.408C206.496,169.264,222.352,185.136,222.352,204.672z"/>
<ellipse transform="matrix(-0.7071 -0.7071 0.7071 -0.7071 203.8757 469.4219)" style="fill:#5A5F63;" cx="199.158" cy="192.487" rx="11.648" ry="8.592"/>
<path style="fill:#3E4347;" d="M211.296,86.592c-0.896-4.24-60.144,54.944-128.4,69.232
	C144.592,180.704,192.736,155.248,211.296,86.592z"/>
<ellipse style="fill:#F4C534;" cx="354.4" cy="229.776" rx="86.8" ry="73.872"/>
<path style="fill:#FFFFFF;" d="M279.76,229.776c2.848,34.256,38.544,62,79.744,62s72.256-27.76,69.408-62
	c-2.848-34.256-38.544-62-79.744-62C307.984,167.776,276.912,195.52,279.76,229.776z"/>
<path style="fill:#3E4347;" d="M289.648,220.16c0,19.408,15.856,35.264,35.408,35.264c19.408,0,35.264-15.856,35.264-35.264
	c0-19.552-15.856-35.408-35.264-35.408C305.504,184.752,289.648,200.624,289.648,220.16z"/>
<ellipse transform="matrix(-0.7071 -0.7071 0.7071 -0.7071 386.9614 576.21)" style="fill:#5A5F63;" cx="312.818" cy="207.963" rx="8.592" ry="11.648"/>
<path style="fill:#3E4347;" d="M300.704,102.064c0.896-4.24,60.144,54.944,128.4,69.232
	C367.408,196.192,319.264,170.736,300.704,102.064z"/>
<g>
</g>
<g>
</g>
<g>
</g>
<g>
</g>
<g>
</g>
<g>
</g>
<g>
</g>
<g>
</g>
<g>
</g>
<g>
</g>
<g>
</g>
<g>
</g>
<g>
</g>
<g>
</g>
<g>
</g>
</svg>
