<?xml version="1.0" encoding="iso-8859-1"?>
<!-- Generator: Adobe Illustrator 19.0.0, SVG Export Plug-In . SVG Version: 6.00 Build 0)  -->
<svg version="1.1" id="Capa_1" xmlns="http://www.w3.org/2000/svg" xmlns:xlink="http://www.w3.org/1999/xlink" x="0px" y="0px"
	 viewBox="0 0 512 512" style="enable-background:new 0 0 512 512;" xml:space="preserve">
<circle style="fill:#FFD93B;" cx="256" cy="256" r="256"/>
<path style="fill:#F4C534;" d="M512,256c0,141.44-114.64,256-256,256c-80.48,0-152.32-37.12-199.28-95.28
	c43.92,35.52,99.84,56.72,160.72,56.72c141.36,0,256-114.56,256-256c0-60.88-21.2-116.8-56.72-160.72
	C474.8,103.68,512,175.52,512,256z"/>
<path style="fill:#3E4347;" d="M412.832,325.856c-8.16,36.16-28.16,66.88-55.36,88.48s-61.6,34.24-98.72,34.24
	c-74.56,0-137.92-50.72-154.24-123.36c-0.96-4.48,0.32-9.12,3.52-12.64c3.52-3.52,8.48-5.12,13.12-4.16
	c97.76,17.76,190.24,18.08,274.72,0.64c4.96-1.12,9.76,0.32,13.12,3.84C412.512,316.256,413.792,321.056,412.832,325.856z"/>
<path style="fill:#FFFFFF;" d="M392.24,329.232c-17.12,59.44-70.944,100.256-133.408,100.256
	c-63.008,0-116.976-41.232-133.824-101.088c47.808,8.496,95.2,12.736,140.256,12.736
	C308.832,341.136,351.424,337.168,392.24,329.232z"/>
<path style="fill:#F4C534;" d="M243.232,187.696c0,48.96-39.68,88.64-88.64,88.64c-48.8,0-88.48-39.68-88.48-88.64
	c0-48.8,39.68-88.48,88.48-88.48C203.552,99.216,243.232,138.896,243.232,187.696z"/>
<path style="fill:#FFFFFF;" d="M228.352,187.696c-3.04,41.088-38.464,74.272-79.264,74.272c-40.64,0-71.136-33.184-68.096-74.272
	c3.04-40.912,38.448-74.096,79.088-74.096C200.88,113.6,231.392,146.784,228.352,187.696z"/>
<path style="fill:#3E4347;" d="M208.672,198.576c0,21.76-17.6,39.52-39.52,39.52c-21.6-0.16-39.36-17.92-39.36-39.52
	c0.16-21.76,17.76-39.52,39.36-39.52C191.232,159.056,208.672,176.832,208.672,198.576z"/>
<path style="fill:#5A5F63;" d="M193.664,191.52c-3.232,3.232-9.824,2.064-14.736-2.848c-4.784-4.784-5.952-11.376-2.72-14.608
	s9.824-2.064,14.608,2.72C195.744,181.696,196.896,188.288,193.664,191.52z"/>
<path style="fill:#F4C534;" d="M268.768,187.696c0,48.96,39.68,88.64,88.64,88.64c48.8,0,88.48-39.68,88.48-88.64
	c0-48.8-39.68-88.48-88.48-88.48C308.448,99.216,268.768,138.896,268.768,187.696z"/>
<path style="fill:#FFFFFF;" d="M283.648,187.696c3.04,41.088,38.464,74.272,79.264,74.272c40.64,0,71.136-33.184,68.096-74.272
	c-3.04-40.912-38.448-74.096-79.088-74.096C311.12,113.6,280.608,146.784,283.648,187.696z"/>
<path style="fill:#3E4347;" d="M382.208,198.576c0,21.76-17.6,39.52-39.52,39.52c-21.6-0.16-39.36-17.92-39.36-39.52
	c0.16-21.76,17.76-39.52,39.36-39.52C364.768,159.056,382.208,176.832,382.208,198.576z"/>
<path style="fill:#5A5F63;" d="M367.216,191.52c-3.232,3.232-9.824,2.064-14.736-2.848c-4.784-4.784-5.952-11.376-2.72-14.608
	s9.824-2.064,14.608,2.72C369.28,181.696,370.448,188.288,367.216,191.52z"/>
<g>
</g>
<g>
</g>
<g>
</g>
<g>
</g>
<g>
</g>
<g>
</g>
<g>
</g>
<g>
</g>
<g>
</g>
<g>
</g>
<g>
</g>
<g>
</g>
<g>
</g>
<g>
</g>
<g>
</g>
</svg>
