<?xml version="1.0" encoding="iso-8859-1"?>
<!-- Generator: Adobe Illustrator 19.0.0, SVG Export Plug-In . SVG Version: 6.00 Build 0)  -->
<svg version="1.1" id="Capa_1" xmlns="http://www.w3.org/2000/svg" xmlns:xlink="http://www.w3.org/1999/xlink" x="0px" y="0px"
	 viewBox="0 0 512.01 512.01" style="enable-background:new 0 0 512.01 512.01;" xml:space="preserve">
<circle style="fill:#FFD93B;" cx="256.005" cy="234.576" r="234.576"/>
<path style="fill:#F4C534;" d="M490.581,234.576c0,129.6-105.04,234.576-234.576,234.576c-73.744,0-139.568-34.016-182.592-87.312
	c40.24,32.544,91.488,51.968,147.264,51.968c129.52,0,234.576-104.976,234.576-234.576c0-55.792-19.424-107.024-51.968-147.264
	C456.485,95.008,490.581,160.832,490.581,234.576z"/>
<path style="fill:#E24B4B;" d="M260.085,425.552c0.592,13.776,3.52,27.552,1.168,41.2c-8.944,52.336-79.168,61.424-98.512,15.984
	c-5.856-13.936-4.688-29.456-3.232-44.416c7.184-71.984,12.752-94.272,23.904-110.4c16.864-24.192,48.672-33.424,75.936-21.552
	l46.032,16.864C275.621,347.984,258.469,386.992,260.085,425.552z"/>
<path style="fill:#D03F3F;" d="M259.349,306.352c-10.512-4.576-21.68-5.952-32.416-4.608c1.84,1.504,3.488,3.248,4.608,5.312
	c3.824,7.024,3.392,15.68,1.056,23.328c-2.352,7.632-6.432,14.608-9.824,21.84c-8.496,18.176-12.56,39.232-6.944,58.496
	c5.808-38.176,27.232-73.712,58.288-96.656l16.816,3.856L259.349,306.352z"/>
<path style="fill:#F4C534;" d="M238.533,206.048c-12.096,30.736-53.44,53.008-95.136,49.632
	c-43.504-5.152-84.192-62.928-64.256-116.32c21.76-52.832,71.488-59.36,110.944-28.96
	C228.757,136.896,250.709,172.496,238.533,206.048z"/>
<path style="fill:#FFFFFF;" d="M228.085,202.256c-13.776,26.48-52.144,47.056-88.576,42.08
	c-38.256-5.952-66.592-55.04-46.256-97.712c20.976-42.464,65.44-47.152,99.504-24.256
	C225.941,142.912,241.749,173.984,228.085,202.256z"/>
<ellipse style="fill:#3E4347;" cx="180.613" cy="182.352" rx="39.088" ry="39.152"/>
<ellipse transform="matrix(-0.7071 -0.7071 0.7071 -0.7071 213.2015 425.1223)" style="fill:#5A5F63;" cx="194.646" cy="168.406" rx="12.464" ry="8.288"/>
<path style="fill:#F4C534;" d="M273.701,206.528c12.288,30.672,53.76,52.688,95.44,49.056c43.472-5.424,83.792-63.44,63.536-116.704
	c-22.08-52.704-71.84-58.928-111.12-28.288C283.061,137.328,261.333,173.056,273.701,206.528z"/>
<path style="fill:#FFFFFF;" d="M284.133,202.688c13.952,26.4,52.432,46.752,88.832,41.552c38.224-6.176,66.256-55.44,45.664-97.984
	c-21.232-42.336-65.728-46.752-99.648-23.648C285.909,143.328,270.309,174.496,284.133,202.688z"/>
<ellipse style="fill:#3E4347;" cx="331.397" cy="182.352" rx="39.088" ry="39.152"/>
<ellipse transform="matrix(-0.7071 -0.7071 0.7071 -0.7071 470.5674 531.7587)" style="fill:#5A5F63;" cx="345.415" cy="168.422" rx="12.464" ry="8.288"/>
<path style="fill:#3E4347;" d="M356.005,380.832v10.56c-29.104-68.608-135.36-101.888-205.584-42.96
	C150.421,257.216,356.005,247.6,356.005,380.832z"/>
<g>
	<path style="fill:#D03F3F;" d="M231.845,491.248c-26.832,19.072-64.576-2.528-66.48-3.584
		c22.256,39.584,87.296,29.36,95.888-20.912c2.224-12.896-0.224-25.904-1.008-38.928
		C258.693,448.992,249.237,478.88,231.845,491.248z"/>
	<path style="fill:#D03F3F;" d="M260.821,407.552c0.032-0.288,0.08-0.576,0.112-0.864l-0.128-0.096
		C260.805,406.592,260.805,406.976,260.821,407.552z"/>
</g>
<g>
</g>
<g>
</g>
<g>
</g>
<g>
</g>
<g>
</g>
<g>
</g>
<g>
</g>
<g>
</g>
<g>
</g>
<g>
</g>
<g>
</g>
<g>
</g>
<g>
</g>
<g>
</g>
<g>
</g>
</svg>
