<?xml version="1.0" encoding="iso-8859-1"?>
<!-- Generator: Adobe Illustrator 19.0.0, SVG Export Plug-In . SVG Version: 6.00 Build 0)  -->
<svg version="1.1" id="Capa_1" xmlns="http://www.w3.org/2000/svg" xmlns:xlink="http://www.w3.org/1999/xlink" x="0px" y="0px"
	 viewBox="0 0 512 512" style="enable-background:new 0 0 512 512;" xml:space="preserve">
<circle style="fill:#FFD93B;" cx="256" cy="256" r="256"/>
<path style="fill:#F4C534;" d="M512,256c0,141.44-114.64,256-256,256c-80.48,0-152.32-37.12-199.28-95.28
	c43.92,35.52,99.84,56.72,160.72,56.72c141.36,0,256-114.56,256-256c0-60.88-21.2-116.8-56.72-160.72
	C474.8,103.68,512,175.52,512,256z"/>
<path style="fill:#3E4347;" d="M144.224,405.408c1.36,20.832,48.8-25.808,111.904-27.744c61.632-2.448,111.6,74.448,111.504,40.256
	c5.824-36.288-42.976-82.512-111.36-75.856C189.216,348.688,139.392,387.872,144.224,405.408z"/>
<ellipse transform="matrix(-0.2963 -0.9551 0.9551 -0.2963 -24.3237 416.3883)" style="fill:#F4C534;" cx="141.233" cy="217.155" rx="97.296" ry="79.12"/>
<path style="fill:#FFFFFF;" d="M206.8,196.816c9.92,43.2-11.36,87.36-47.616,98.592s-73.616-14.72-83.536-57.92
	s11.36-87.36,47.616-98.608C159.52,127.648,196.896,153.616,206.8,196.816z"/>
<path style="fill:#3E4347;" d="M201.424,217.088c0,24.272-16.4,43.904-36.336,43.904c-20.096,0-36.336-19.616-36.336-43.904
	c0-24.128,16.24-43.744,36.336-43.744C185.024,173.344,201.424,192.96,201.424,217.088z"/>
<path style="fill:#5A5F63;" d="M184.784,203.136c-2.864,2.944-8.912,1.888-13.504-2.448c-4.432-4.304-5.792-10.256-2.912-13.376
	c2.864-2.944,8.912-1.888,13.504,2.448C186.304,194.048,187.664,200.016,184.784,203.136z"/>
<ellipse transform="matrix(-0.9551 -0.2963 0.2963 -0.9551 660.4926 534.5219)" style="fill:#F4C534;" cx="370.75" cy="217.211" rx="79.12" ry="97.296"/>
<path style="fill:#FFFFFF;" d="M305.2,196.816c-9.92,43.2,11.36,87.36,47.616,98.592c36.256,11.248,73.616-14.72,83.536-57.92
	s-11.36-87.36-47.616-98.608C352.48,127.648,315.104,153.616,305.2,196.816z"/>
<path style="fill:#3E4347;" d="M383.264,217.088c0,24.272-16.4,43.904-36.336,43.904c-20.096,0-36.336-19.616-36.336-43.904
	c0-24.128,16.24-43.744,36.336-43.744C366.848,173.344,383.264,192.96,383.264,217.088z"/>
<path style="fill:#5A5F63;" d="M366.608,203.136c-2.864,2.944-8.912,1.888-13.504-2.448c-4.432-4.304-5.792-10.256-2.912-13.376
	c2.864-2.944,8.912-1.888,13.504,2.448C368.144,194.048,369.504,200.016,366.608,203.136z"/>
<g>
</g>
<g>
</g>
<g>
</g>
<g>
</g>
<g>
</g>
<g>
</g>
<g>
</g>
<g>
</g>
<g>
</g>
<g>
</g>
<g>
</g>
<g>
</g>
<g>
</g>
<g>
</g>
<g>
</g>
</svg>
