<?xml version="1.0" encoding="iso-8859-1"?>
<!-- Generator: Adobe Illustrator 19.0.0, SVG Export Plug-In . SVG Version: 6.00 Build 0)  -->
<svg version="1.1" id="Capa_1" xmlns="http://www.w3.org/2000/svg" xmlns:xlink="http://www.w3.org/1999/xlink" x="0px" y="0px"
	 viewBox="0 0 512 512" style="enable-background:new 0 0 512 512;" xml:space="preserve">
<circle style="fill:#FFD93B;" cx="256" cy="256" r="256"/>
<path style="fill:#F4C534;" d="M512,256c0,141.44-114.64,256-256,256c-80.48,0-152.32-37.12-199.28-95.28
	c43.92,35.52,99.84,56.72,160.72,56.72c141.36,0,256-114.56,256-256c0-60.88-21.2-116.8-56.72-160.72
	C474.8,103.68,512,175.52,512,256z"/>
<path style="fill:#3E4347;" d="M386.512,352.736c-16.64,50.88-70.72,85.28-130.56,85.28c-65.44,0-114.88-38.72-130.72-85.28
	c-3.36-10.24,9.28-17.76,17.44-10.88c24.32,20.96,66.56,34.56,114.24,34.24c47.36-0.48,88.96-14.24,113.12-35.2
	C378.032,334.016,389.872,342.672,386.512,352.736z"/>
<path style="fill:#F4C534;" d="M245.456,206.944c0,47.472-38.48,86.144-86.144,86.144c-47.472,0-86.144-38.656-86.144-86.144
	c0-47.648,38.672-86.144,86.144-86.144C206.976,120.8,245.456,159.28,245.456,206.944z"/>
<path style="fill:#FFFFFF;" d="M234.272,206.944c-3.712,39.04-40.24,70.832-81.696,70.832c-41.312,0-71.936-31.792-68.224-70.832
	c3.728-39.184,40.384-70.832,81.696-70.832C207.536,136.096,238,167.744,234.272,206.944z"/>
<path style="fill:#3E4347;" d="M212.32,216.976c0,23.408-18.88,42.288-42.288,42.288s-42.464-18.88-42.464-42.288
	s18.896-42.288,42.464-42.288C193.264,174.688,212.32,193.568,212.32,216.976z"/>
<ellipse transform="matrix(-0.7071 -0.7071 0.7071 -0.7071 169.4637 477.0624)" style="fill:#5A5F63;" cx="183.535" cy="203.434" rx="14.624" ry="10.448"/>
<path style="fill:#F4C534;" d="M266.544,206.944c0,47.472,38.48,86.144,86.144,86.144c47.472,0,86.144-38.656,86.144-86.144
	c0-47.648-38.672-86.144-86.144-86.144C305.024,120.8,266.544,159.28,266.544,206.944z"/>
<path style="fill:#FFFFFF;" d="M277.728,206.944c3.712,39.04,40.24,70.832,81.696,70.832c41.312,0,71.936-31.792,68.224-70.832
	c-3.728-39.184-40.384-70.832-81.696-70.832C304.464,136.096,274,167.744,277.728,206.944z"/>
<path style="fill:#3E4347;" d="M384.432,216.976c0,23.408-18.896,42.288-42.288,42.288c-23.408,0-42.464-18.88-42.464-42.288
	s18.896-42.288,42.464-42.288C365.376,174.688,384.432,193.568,384.432,216.976z"/>
<ellipse transform="matrix(-0.7071 -0.7071 0.7071 -0.7071 463.3152 598.7256)" style="fill:#5A5F63;" cx="355.658" cy="203.407" rx="14.624" ry="10.448"/>
<g>
</g>
<g>
</g>
<g>
</g>
<g>
</g>
<g>
</g>
<g>
</g>
<g>
</g>
<g>
</g>
<g>
</g>
<g>
</g>
<g>
</g>
<g>
</g>
<g>
</g>
<g>
</g>
<g>
</g>
</svg>
