<?xml version="1.0" encoding="iso-8859-1"?>
<!-- Generator: Adobe Illustrator 19.0.0, SVG Export Plug-In . SVG Version: 6.00 Build 0)  -->
<svg version="1.1" id="Capa_1" xmlns="http://www.w3.org/2000/svg" xmlns:xlink="http://www.w3.org/1999/xlink" x="0px" y="0px"
	 viewBox="0 0 512 512" style="enable-background:new 0 0 512 512;" xml:space="preserve">
<circle style="fill:#FFD93B;" cx="256" cy="256" r="256"/>
<path style="fill:#F4C534;" d="M512,256c0,141.44-114.64,256-256,256c-80.48,0-152.32-37.12-199.28-95.28
	c43.92,35.52,99.84,56.72,160.72,56.72c141.36,0,256-114.56,256-256c0-60.88-21.2-116.8-56.72-160.72
	C474.8,103.68,512,175.52,512,256z"/>
<g>
	<path style="fill:#3E4347;" d="M251.856,132.688c-15.264-27.664-45.184-47.664-80.016-48.128c-6.768,0-22.112,5.264-26.32-2.112
		c-8.384-15.04,47.856-46.4,85.632,0.224C243.328,97.568,253.808,113.44,251.856,132.688z"/>
	<path style="fill:#3E4347;" d="M324.064,208.112c19.328-24.992,51.984-40.176,86.448-35.28c6.688,1.04,21.04,8.592,26.336,1.952
		c10.592-13.568-40.16-53.2-84.656-12.928C337.872,174.72,325.088,188.784,324.064,208.112z"/>
</g>
<path style="fill:#F4C534;" d="M260.048,222.112c-7.248,42.192-71.84,53.888-114.016,46.64s-70.624-47.344-63.392-89.52
	c7.248-42.176,47.44-70.48,89.632-63.232C214.448,123.248,267.28,179.936,260.048,222.112z"/>
<path style="fill:#FFFFFF;" d="M247.28,218.112c-8.896,35.568-66.048,45.232-102.448,38.976
	c-36.416-6.256-58.816-40.176-49.92-75.744s45.744-59.312,82.16-53.056C213.488,134.528,256.192,182.544,247.28,218.112z"/>
<ellipse style="fill:#3E4347;" cx="197.44" cy="209.92" rx="37.808" ry="37.744"/>
<ellipse transform="matrix(-0.7071 -0.7071 0.7071 -0.7071 220.1773 484.7822)" style="fill:#5A5F63;" cx="210.49" cy="196.791" rx="10.96" ry="8.704"/>
<g>
	<path style="fill:#3E4347;" d="M81.504,132.016c5.76,2.864,12.432,3.872,18.784,2.8c-9.888,9.088-21.136,16.672-33.264,22.416
		c5.952,1.856,12.72,0.976,18-2.336c-7.648,8.224-15.296,16.464-22.944,24.688c44.352,1.152,63.936-55.792,138.72-47.744
		c6.72,0.72,20.784,10.8,20.784,10.8s-15.536-28.256-70.528-28.256C120.48,114.368,104.736,132.8,81.504,132.016z"/>
	<path style="fill:#3E4347;" d="M437.68,256.544c-18.272,16.128-41.648,6.416-63.712-2.144c-10.368-3.952-21.072-8.224-32.272-8.4
		c-14.16-0.816-34.24,6.752-43.296,19.584c14.32-26.336,33.904-37.696,59.92-39.344c6.592-0.336,13.168-1.648,19.264-4.608
		c13.328-6.256,19.584-15.136,21.392-23.04c2.8,13.504,2.144,22.048-10.528,27.664c11.024-1.152,14.32,0,22.224-7.408
		c7.904-7.744,13.168-18.112,14.48-28.8c5.44,10.704,3.952,24.528-2.96,34.576c11.36-2.96,21.232-8.896,26.672-19.92
		C450.688,223.296,451.68,244.352,437.68,256.544z"/>
	<path style="fill:#3E4347;" d="M394.512,358.24C371.152,416,320.272,456,261.232,456c-71.2,0-130.56-58.24-144.32-135.52
		c-1.28-7.68,6.56-13.6,13.6-10.4c98.56,44.8,183.2,57.76,252.32,35.52C390.512,343.2,397.552,350.88,394.512,358.24z"/>
</g>
<path style="fill:#FFFFFF;" d="M384.528,345.328c-0.56,0.064-1.12,0.08-1.696,0.272c-64.912,20.896-143.664,10.352-234.624-28.064
	c12.88,50.176,61.984,75.152,120.816,78.464C321.632,398.976,366.512,383.632,384.528,345.328z"/>
<path style="fill:#D03F3F;" d="M261.232,456c26.576,0,51.456-8.16,72.96-22.336c-10.304-20.192-37.312-34.688-69.344-34.688
	c-33.824,0-62.032,16.192-70.864,38.192C214.16,449.104,236.976,456,261.232,456z"/>
<g>
</g>
<g>
</g>
<g>
</g>
<g>
</g>
<g>
</g>
<g>
</g>
<g>
</g>
<g>
</g>
<g>
</g>
<g>
</g>
<g>
</g>
<g>
</g>
<g>
</g>
<g>
</g>
<g>
</g>
</svg>
